<svg width="60" height="27" viewBox="0 0 60 27" fill="none" xmlns="http://www.w3.org/2000/svg">
<g clip-path="url(#clip0_6_1721)">
<path d="M59.8201 18.3502C59.8201 18.2504 59.8114 18.1468 59.7998 18.0432L59.7823 17.8551L59.823 17.6748C59.9448 17.126 60.0028 16.4852 59.9999 15.7753C59.9941 15.0615 59.9419 14.2672 59.9071 13.7338C59.8955 13.5841 59.8897 13.4613 59.8839 13.3807C59.8665 12.9394 59.8027 12.5211 59.6924 12.1374L59.6402 11.9494L59.6547 11.627C60.0028 3.02739 58.9556 2.04885 58.068 1.5308C57.3776 1.12787 55.553 -0.00416565 43.5002 -0.00416565C27.7199 -0.000328242 2.45398 1.43102 2.20451 1.44254L0.298691 2.70504L0.249377 4.05965C0.237774 4.31292 -0.0523053 10.3683 0.00861137 15.6256C0.014413 16.1475 0.0869328 16.6272 0.226171 17.0416L0.310294 17.291L0.15075 18.5766C0.118841 18.8298 0.0782304 19.1637 0.0347185 19.5589C-9.10108e-05 21.186 0.629381 24.1408 0.800528 24.5744L1.48802 26.3051L2.95582 26.3627C3.10376 26.3703 18.8899 26.9997 33.2256 26.9997C51.4165 26.9997 55.611 26.0173 57.1832 25.2805C58.2507 24.7778 59.3008 23.8607 59.8143 18.7761L59.8259 18.6955C59.823 18.5804 59.8201 18.4614 59.8143 18.3502H59.8201Z" fill="#612E18"/>
<path d="M9.42176 16.2361L13.1058 17.9629L2.12626 16.923L0.858616 17.6175C0.780295 18.2545 0.704874 18.9069 0.629453 19.5669C0.516322 19.966 0.559834 21.1326 0.934037 22.633C1.03266 23.0283 1.24732 23.7843 1.38656 24.1296C1.67664 24.8395 1.8971 25.4152 1.8971 25.4152C1.8971 25.4152 5.05896 25.5495 6.45134 25.5802C7.66098 25.607 11.2609 25.7759 12.9027 25.749C14.765 25.7221 17.9356 25.8833 23.1367 25.9754C26.1332 26.0291 29.0108 26.0675 32.2133 26.0867C34.8327 26.1021 37.426 26.01 39.8569 26.0368C42.5952 26.0675 50.5028 25.6761 53.2295 25.3077C53.8735 25.2233 55.1789 24.9892 56.11 24.7167C56.725 24.5364 57.0412 24.3982 57.4212 24.1258C57.5952 24.003 57.9172 23.6615 58.2624 22.9285C58.2885 22.894 58.3175 22.7366 58.3407 22.6868C58.7962 21.6545 59.1326 18.7879 59.1297 18.6997C59.1297 18.6229 59.121 18.2277 59.1123 18.1471L59.0775 17.771L57.4531 16.286C57.5546 15.8216 50.7784 16.923 50.7726 16.3051C50.7697 15.8485 54.2332 15.223 55.5705 15.7103C56.4407 16.025 59.1472 15.9329 59.182 15.7756C59.2168 15.6182 59.2023 13.5192 59.1878 13.4233C59.034 12.3948 59.1849 11.9343 58.741 11.5237C58.2363 11.0556 57.6416 10.7946 57.2036 10.5989L54.6219 10.3764L58.6685 9.66259C59.0775 1.0975 57.7606 2.06453 57.076 1.66544C56.4784 1.31623 55.3674 0.667709 43.4626 0.667709C27.7954 0.679222 2.50337 1.70381 2.2568 1.71916L1.01236 2.68619L0.942739 4.1137C0.931136 4.36697 0.632354 9.68178 0.69037 14.893C0.69037 14.893 8.31075 15.9406 9.42176 16.2361Z" fill="#8C5130"/>
<path d="M57.6098 18.3812C57.5982 17.5063 57.572 17.0343 57.4531 16.2975C57.3719 15.7833 52.017 15.0733 52.017 15.0733C52.017 15.0733 55.8635 15.2537 57.4589 14.6781C57.7954 14.5553 57.4531 11.4125 57.3719 10.8253C57.2152 9.69713 47.2916 9.75853 47.2916 9.75853L57.2849 9.04477C57.2849 9.04477 57.6185 2.01464 56.5075 1.36228C53.128 -0.633169 2.25683 1.71916 2.25683 1.71916C2.25683 1.71916 1.60125 9.14455 2.01606 13.2966C2.05957 13.7264 14.6026 15.3266 14.6026 15.3266L2.12919 16.9268C2.12919 16.9268 2.01026 17.9053 1.84491 19.5055C1.84491 19.5247 1.84201 19.5439 1.83911 19.5669C1.83911 19.5669 1.85942 20.1579 1.84491 19.5669C1.83331 19.8125 1.89713 20.3152 1.92904 20.7105C1.98705 21.4972 2.31774 21.8732 2.31774 21.8732C2.31774 21.8732 50.8393 23.8341 56.9455 20.9638C57.2414 20.8256 57.4212 19.8893 57.6156 18.7457C57.5807 18.7534 57.6504 18.3735 57.6156 18.3773L57.6098 18.3812Z" fill="#F4A766"/>
<path d="M2.25683 1.71917C2.25683 1.71917 1.99286 4.78526 1.90873 7.78995C1.83621 10.4992 1.94064 13.1738 2.01606 13.2928C2.30324 13.7456 14.6026 15.3228 14.6026 15.3228C14.6026 15.3228 3.16478 13.3312 2.8863 12.8131C2.60782 12.2951 2.90951 1.68463 2.90951 1.68463L2.25683 1.71533V1.71917Z" fill="#FFCC9C"/>
<path d="M2.9095 1.68846L2.88919 2.45595C2.88919 2.45595 4.66448 1.99162 5.91182 2.0722C7.15916 2.15663 6.36144 1.75754 9.34055 2.0722C12.3197 2.38303 15.3684 1.40066 15.7832 1.46973C16.198 1.5388 24.0157 1.71916 24.5233 1.61555C25.0309 1.51578 32.5034 0.690738 32.9472 0.679226C33.1648 0.675388 26.9571 0.798185 20.9611 0.986218C14.7969 1.17809 8.83001 1.43903 8.83001 1.43903L2.9066 1.68846H2.9095Z" fill="#FFCC9C"/>
<path d="M57.6098 18.7688C57.6098 18.7688 57.6098 18.7534 57.6098 18.7457C57.5895 17.3758 57.5343 16.3857 57.4212 16.2246C57.0557 15.7065 52.017 15.0695 52.017 15.0695C52.017 15.0695 56.4871 16.1478 56.9542 16.6735C57.1949 16.9422 57.1891 18.0857 57.1601 18.8455C56.9861 20.1349 56.5336 21.1288 56.5336 21.1288C56.5336 21.1288 56.8614 21.0098 56.9426 20.9676C57.0064 20.9331 57.1079 20.8179 57.1079 20.8179C57.1079 20.8179 57.3487 20.4994 57.4937 19.8317C57.5488 19.5861 57.6011 19.2369 57.6069 18.8148C57.6069 18.8148 57.6069 18.7841 57.6069 18.7726L57.6098 18.7688Z" fill="#FFCC9C"/>
<path d="M56.9194 14.8239C56.9194 14.8239 57.1978 11.7808 56.7308 11.259C56.2667 10.7371 47.2916 9.75085 47.2916 9.75085C47.2916 9.75085 55.2311 9.68946 57.0673 10.5183C57.2268 10.5912 57.3632 10.5989 57.3951 10.9865C57.4154 11.2666 57.807 14.5169 57.4618 14.6666C57.2558 14.7587 56.9194 14.8162 56.9194 14.8162V14.8239Z" fill="#FFCC9C"/>
<path d="M2.31194 21.8732C2.46568 21.8732 2.13499 19.5554 2.28873 19.5516C2.44827 18.3582 2.71805 16.8501 3.10385 16.8002C2.81087 16.8385 2.12629 16.9268 2.12629 16.9268C2.12629 16.9268 1.96384 18.3889 1.83331 19.5669C1.8246 19.6552 1.91743 20.9254 1.94644 21.0635C1.97835 21.2055 2.08277 21.5509 2.30904 21.8732H2.31194Z" fill="#FFCC9C"/>
<g style="mix-blend-mode:multiply" opacity="0.28">
<path d="M1.35745 21.0559C1.1921 21.1672 1.01515 21.2861 0.806297 21.4012C0.751182 21.4319 0.722174 21.4703 0.710571 21.5087C0.716373 21.5624 0.754083 21.8195 0.759885 21.8732C0.809198 21.854 0.881718 21.7888 0.983246 21.7351C1.32264 21.5471 2.2973 20.9446 3.359 20.864C4.20603 20.7988 8.65584 20.8218 10.6023 20.1272C11.4696 19.8202 13.7235 18.4695 14.0049 18.3812C13.7061 18.4196 11.0693 19.5516 9.94089 19.8125C9.50578 19.9123 6.04223 20.0965 4.12771 20.3651C2.03043 20.6606 1.48218 21.0367 1.35455 21.0597L1.35745 21.0559Z" fill="url(#paint0_radial_6_1721)"/>
<path d="M11.6351 20.7105C12.9521 20.8486 14.4547 21.3437 15.7687 21.524C20.5666 22.1802 21.7038 25.5802 27.2675 26.0483C27.894 26.056 28.5235 26.0598 29.1501 26.0637C24.6191 25.7298 20.6856 22.4719 16.3025 21.0904C14.7506 20.9446 13.1928 20.8064 11.6351 20.7067V20.7105Z" fill="url(#paint1_radial_6_1721)"/>
<path d="M46.3286 20.2116C42.1601 22.3644 35.8074 25.8258 32.3467 26.079C32.3032 26.079 32.2597 26.0867 32.2191 26.0905C32.0712 26.0982 34.6123 26.0982 34.9603 26.079C34.972 26.079 34.9865 26.079 34.9981 26.079C38.1773 25.8833 42.9317 21.8656 45.9689 20.6337C46.3315 20.4879 46.6912 20.3268 47.048 20.1617C46.8072 20.1771 46.5664 20.1963 46.3286 20.2116Z" fill="url(#paint2_radial_6_1721)"/>
<path d="M17.7935 16.1747C13.3756 17.111 6.61091 18.7112 3.18797 17.9898C3.14736 17.9821 3.10095 17.9744 3.06034 17.9629C2.9153 17.9284 5.39838 18.6421 5.74357 18.7227C5.75517 18.7227 5.76968 18.7266 5.78128 18.7304C8.91994 19.4326 14.211 16.8386 17.3758 16.4855C17.7529 16.4433 18.13 16.3896 18.5071 16.3282C18.2692 16.2783 18.0313 16.2284 17.7964 16.1747H17.7935Z" fill="url(#paint3_radial_6_1721)"/>
<path d="M29.9188 26.0714C33.217 24.5709 37.6494 20.108 39.8163 20.0198C40.4313 19.9929 44.3763 19.3482 44.4054 19.3559C44.5156 19.3712 40.3065 19.2408 39.6306 19.3559C36.4253 19.897 32.5672 24.5402 30.2002 25.3039C29.9188 25.396 28.7208 25.9601 28.4423 26.0675C28.6192 26.0867 29.7418 26.056 29.9188 26.0714Z" fill="url(#paint4_radial_6_1721)"/>
<path d="M53.0729 19.6667C50.3085 21.4511 45.5773 25.4343 43.6947 25.8987C43.6337 25.914 43.7005 25.9294 43.831 25.9409C44.1269 25.9639 44.7593 25.9639 45.0145 25.8987C46.4388 25.5456 51.0105 21.1978 52.3738 20.5532C53.334 20.0965 54.3899 19.659 55.3849 19.2753C54.6161 19.4173 53.8474 19.5554 53.0758 19.6706L53.0729 19.6667Z" fill="url(#paint5_radial_6_1721)"/>
<path d="M1.16612 4.90422C2.31773 3.23494 4.0205 4.32477 5.33455 4.61641C6.69793 4.91573 8.27306 5.41459 9.65384 5.4875C11.9397 5.60262 14.1037 5.01934 16.3228 4.27488C17.8022 3.77602 19.1626 2.84353 20.5782 2.10675C22.223 1.25484 24.1694 1.21263 25.9389 0.944012C26.1622 0.913312 26.3827 0.874938 26.6003 0.832727C26.8961 0.775166 26.1303 0.79819 25.7648 0.821215C24.6625 0.897963 23.7314 0.932499 22.8669 1.0246C22.223 1.08983 21.6138 1.19344 21.0017 1.36996C19.0698 1.93406 17.4106 3.44216 15.4641 4.02161C12.4183 4.93492 9.12589 4.62025 6.05105 4.17895C4.18004 3.91033 2.39025 2.55956 0.910846 4.68548C0.902143 4.84282 0.89054 5.03085 0.878937 5.24191C0.878937 5.24191 0.884738 5.24191 0.884738 5.23423L1.16612 4.90422Z" fill="url(#paint6_radial_6_1721)"/>
<path d="M39.094 0.564107C38.8416 0.548757 38.5922 0.541082 38.3369 0.556432C38.0613 0.567944 38.656 0.571782 39.094 0.564107Z" fill="url(#paint7_radial_6_1721)"/>
<path d="M49.0872 4.18289C50.5927 4.48988 52.1998 4.32871 53.7227 4.42848C55.4081 4.53977 57.3864 4.29418 58.7382 5.84449C58.7324 5.66797 58.7266 5.50296 58.7208 5.34563C57.72 4.23661 57.1833 4.14835 55.8055 4.07928C54.0012 3.98718 52.2056 3.68787 50.4129 3.43076C47.106 2.95876 44.6171 1.18971 41.5481 0.687012C40.8809 0.575728 40.1876 0.525841 39.4479 0.560378C39.3754 0.560378 39.2448 0.564215 39.0969 0.568053C39.4218 0.58724 39.7409 0.637126 40.06 0.694687C43.1435 1.28181 46.0385 3.56507 49.0901 4.18673L49.0872 4.18289Z" fill="url(#paint8_radial_6_1721)"/>
<path d="M24.1172 3.51507C24.1027 3.56112 24.5349 3.87578 24.5842 3.91416C25.8577 4.96561 26.7888 5.17667 28.2856 5.22655C30.2988 5.29179 32.3061 5.06154 34.3164 5.01933C37.1592 4.95793 40.7387 6.39696 42.7258 3.55728C42.8157 3.43064 42.8708 3.3232 42.7258 3.26947C41.1332 2.69003 39.4711 2.73224 37.8757 2.16814C36.4195 1.65776 34.972 1.54264 33.4722 1.64241C30.5366 1.83045 27.4937 2.06837 24.6944 3.33087C24.5697 3.38843 24.1056 3.46134 24.1143 3.51507H24.1172ZM34.2177 1.98394C35.7059 1.91871 37.0808 2.46362 38.5167 2.84736C39.1636 3.02004 39.8337 3.07377 40.4893 3.1697C41.3044 3.28482 42.7113 3.42681 41.0665 4.13289C38.5834 5.20353 35.6856 4.555 33.1096 4.69315C31.7434 4.76606 30.38 4.84665 29.0108 4.85049C27.485 4.85432 26.5423 4.51663 25.321 3.55344C28.1754 2.35233 31.2386 2.11441 34.2148 1.98394H34.2177Z" fill="url(#paint9_radial_6_1721)"/>
<path d="M4.11913 7.12223C5.0764 7.16061 6.01045 7.0877 6.97061 7.03781C9.55812 6.9035 12.1253 7.36783 14.7099 7.16444C17.4222 6.94571 20.1054 5.59111 22.8292 5.53738C25.1731 5.4875 27.6011 6.68093 29.9188 7.09921C34.3947 7.9089 39.1955 8.05472 43.6192 6.79222C46.433 5.98636 48.8755 5.7753 51.7182 6.27033C52.9453 6.48522 54.1549 6.81908 55.3819 7.03781C56.522 7.24503 57.7722 7.4983 58.7208 8.39625C58.7266 8.23508 58.7295 8.07391 58.7324 7.92041C57.0267 6.46987 54.5929 6.48522 52.6349 6.09381C50.2475 5.61797 47.7326 4.8927 45.3336 5.41075C42.2878 6.06695 39.4044 7.2834 36.2947 7.33329C33.1996 7.38318 30.0899 6.92653 27.0615 6.09764C24.6016 5.4261 22.6117 5.19969 20.1083 5.62948C16.7434 6.20893 13.4713 6.64639 10.0745 6.69628C7.80314 6.73082 5.52892 6.77303 3.2605 6.84594C2.45118 6.86896 1.28796 7.01095 0.765818 7.95495C0.760016 8.13531 0.754215 8.3195 0.748413 8.50754L1.10521 8.07007C1.87972 6.86513 3.23439 7.0877 4.11913 7.12223Z" fill="url(#paint10_radial_6_1721)"/>
<path d="M33.0516 4.17128C33.7797 4.17128 34.502 4.1329 35.2301 4.15977C36.1381 4.1943 36.9619 3.6609 37.8466 3.46903C37.9569 3.44601 38.9373 3.43066 38.9837 3.3424C39.0389 3.26181 38.1599 3.11215 38.0555 3.09297C38.0381 3.08913 38.0149 3.08529 37.9917 3.08913C35.1431 3.1582 32.1292 2.73992 29.3154 3.4345C29.2458 3.44984 28.2798 3.49589 28.4916 3.6302C29.5823 4.31326 31.8797 4.1636 33.0516 4.16744V4.17128ZM29.9333 3.66858C32.164 3.26181 34.502 3.46519 36.7646 3.48438C36.3324 3.64555 35.8973 3.7837 35.4448 3.77602L33.4693 3.78754C32.4802 3.80672 30.9921 4.04081 29.9333 3.66858Z" fill="url(#paint11_radial_6_1721)"/>
<path d="M25.788 19.5593C26.5161 19.5593 27.2413 19.5209 27.9694 19.5478C28.8774 19.5823 29.7012 19.0489 30.586 18.857C30.6962 18.834 31.6796 18.8186 31.7231 18.7304C31.7782 18.6536 30.8992 18.5001 30.7977 18.481C30.7803 18.4771 30.7571 18.4771 30.7339 18.4771C27.8853 18.55 24.8714 18.1279 22.0576 18.8225C21.988 18.8378 21.022 18.8839 21.2338 19.0182C22.3245 19.7013 24.6219 19.5516 25.7938 19.5554L25.788 19.5593ZM22.6668 19.0566C24.8946 18.6498 27.2355 18.8532 29.4982 18.8724C29.0659 19.0335 28.6308 19.1717 28.1783 19.164L26.2029 19.1755C25.2137 19.1909 23.7256 19.4288 22.6668 19.0566Z" fill="url(#paint12_radial_6_1721)"/>
<path d="M58.9934 18.7266C58.8687 18.7304 58.9064 18.7381 58.9934 18.7266C57.1717 17.6521 54.8946 18.0435 52.9772 18.1932C51.4717 18.3121 49.9807 18.3505 48.4868 18.0589C46.8739 17.7442 45.4177 16.639 43.9673 15.7142C41.6293 14.2214 38.9519 13.3811 36.3934 12.8323C34.299 12.3833 32.837 12.6788 31.2386 10.5951C33.4839 10.0809 34.8153 9.98111 37.0808 9.67028C38.6473 9.45539 40.1905 9.20595 41.7714 9.34026C43.1464 9.45539 44.4605 10.2382 45.7513 10.8138C47.7529 11.7079 49.8907 12.3833 51.988 12.4639C54.1955 12.5483 57.311 11.8921 59.1994 13.6535C59.1994 13.5269 59.1936 13.4463 59.1907 13.4271C59.1704 13.2928 59.1559 13.1662 59.1443 13.0472C57.4995 11.7655 55.205 11.8691 53.3833 11.7847C50.7204 11.6619 48.3127 11.4624 45.7571 10.3226C44.5446 9.78157 43.3901 9.20212 42.1137 9.01408C40.9505 8.8414 39.7438 8.9949 38.5864 9.15607C35.7262 9.559 32.7529 9.28654 29.9333 10.0655C29.8811 10.0809 29.533 10.1998 29.6374 10.3457C30.9341 12.1876 32.8892 12.5752 34.6877 12.9052C37.3912 13.4079 40.1209 14.1409 42.6649 15.4916C43.8542 16.121 44.971 16.9729 46.1516 17.6329C47.4338 18.3505 48.8117 18.5577 50.1924 18.6191C52.6494 18.7304 55.7097 17.6367 58.1203 18.7765C58.4365 18.9491 58.7092 19.7281 58.9905 19.9315C59.0137 19.7665 59.0979 19.095 59.1182 18.9184C59.1269 18.8801 59.0689 18.7995 58.9963 18.7266H58.9934Z" fill="url(#paint13_radial_6_1721)"/>
<path d="M50.9931 13.9144C48.217 13.9835 44.9507 11.9881 42.2327 11.5353C42.1659 11.5237 42.4212 12.0418 42.5169 12.1684C43.2131 13.1009 44.211 13.4309 45.0812 13.9989C46.1168 14.6781 46.958 15.5722 48.0981 15.9675C50.0851 16.6582 53.9026 16.7695 55.9418 16.8846C56.0462 16.8923 54.7873 16.6121 54.532 16.5968C52.5943 16.4893 50.7697 16.2821 48.861 15.7986C47.6194 15.4839 46.6448 14.6129 45.586 13.761C44.8898 13.2007 44.0892 12.9666 43.4278 12.368C45.8441 12.9896 49.5891 14.5323 52.0925 14.467C52.1969 14.467 51.2454 13.9029 50.9902 13.9106L50.9931 13.9144Z" fill="url(#paint14_radial_6_1721)"/>
<path d="M1.0646 11.4854C2.1611 10.173 4.03501 10.4224 5.40418 10.4915C6.68053 10.5567 7.88146 10.4032 9.15781 10.2651C13.2363 9.82761 17.3322 9.45539 21.4224 9.23665C23.6995 9.11386 25.4052 9.75087 27.2704 11.4278C28.5438 12.5752 29.8028 13.6458 31.2183 14.467C32.7065 15.3305 34.3367 15.9253 35.9234 16.3819C37.8815 16.9422 39.9671 16.5469 42.1514 17.9859C42.5575 18.2546 45.4554 18.5999 45.1364 18.4464L44.1675 17.9015C42.5314 17.1225 38.7401 16.4126 37.0286 16.0788C34.7138 15.6259 32.3264 14.609 30.2495 13.1853C28.7121 12.1301 27.4647 10.1807 25.9215 9.14456C24.4218 8.14299 22.5827 8.6572 20.9495 8.7493C16.4997 8.98722 12.0412 9.57435 7.60299 10.054C5.4535 10.2881 2.50919 9.01408 0.713602 11.1669C0.707801 11.1745 0.7049 11.1822 0.699098 11.1861C0.699098 11.2973 0.699098 11.5813 0.696198 11.6926C0.910856 11.6005 0.96307 11.6158 1.0704 11.4892L1.0646 11.4854Z" fill="url(#paint15_radial_6_1721)"/>
<path d="M17.3439 10.7217C14.8811 10.7908 11.2667 10.9635 8.94607 12.2375C8.89965 12.2644 8.76332 12.368 8.87645 12.4064C12.134 13.5115 15.4467 14.3097 18.7827 14.87C21.7299 15.365 24.5958 15.1539 27.5489 14.751C27.5837 14.7472 28.0188 14.5822 27.9202 14.5016C27.4792 14.1332 27.0122 13.8607 26.5336 13.5691C23.4906 11.0556 20.7929 10.6258 17.3439 10.7217ZM17.6862 14.3327C16.0124 14.0181 14.3473 13.6228 12.691 13.1777C11.7221 12.9167 10.7562 12.6212 9.796 12.3027C9.15782 12.0955 10.643 11.9075 10.8751 11.8653C13.3031 11.4432 15.7803 11.401 18.2257 11.3818C21.0076 11.3626 23.6067 11.8 26.0288 13.7993C26.4262 14.0411 26.815 14.2752 27.1863 14.5553C23.9577 14.9467 20.9118 14.9352 17.6862 14.3289V14.3327Z" fill="url(#paint16_radial_6_1721)"/>
<path d="M15.4757 12.2682C15.4264 12.2682 15.3655 12.2951 15.3075 12.3334C15.1857 12.4025 15.0783 12.51 15.1189 12.5829C15.1247 12.6136 15.1538 12.6366 15.2176 12.6443C17.7558 13.3849 22.339 14.279 24.9497 14.0679C25.031 14.0603 23.8677 13.5768 23.6415 13.4271C21.1468 11.754 18.0778 12.2337 15.4757 12.2682ZM16.6941 12.6097C18.6898 12.5522 20.8248 12.5598 22.6059 13.6343C20.6014 13.9413 18.6173 13.1508 16.6941 12.6097Z" fill="url(#paint17_radial_6_1721)"/>
<path d="M20.41 18.2354C22.2752 17.9169 24.1462 17.6789 26.0375 17.6636C28.802 17.6444 34.2236 17.9437 36.988 17.9629C37.2955 17.9629 34.7341 17.5255 34.3715 17.5216C31.433 17.5024 28.4597 16.5201 25.5241 16.5431C22.5972 16.5661 19.7254 17.6828 16.8391 18.3774C18.0284 18.316 19.2207 18.2699 20.4129 18.2354H20.41Z" fill="url(#paint18_radial_6_1721)"/>
<path d="M17.1234 20.0965C18.9886 20.273 20.8596 20.4073 22.7509 20.4112C25.5154 20.4227 30.937 20.2538 33.6985 20.2462C34.006 20.2462 31.4446 20.4918 31.082 20.4918C28.1435 20.5033 25.1702 21.0482 22.2346 21.0367C19.3077 21.0252 16.433 20.4035 13.5496 20.0198C14.7389 20.0543 15.9312 20.0773 17.1234 20.0965Z" fill="url(#paint19_radial_6_1721)"/>
</g>
<path opacity="0.28" d="M58.6714 9.67027C59.0804 1.10517 57.7635 2.0722 57.0789 1.67311C56.4813 1.32391 55.3703 0.675385 43.4655 0.675385C27.7954 0.679222 2.50338 1.70381 2.25682 1.71916L1.01238 2.68619L0.942757 4.1137C0.931154 4.36697 0.632373 9.68178 0.690388 14.893C0.690388 14.893 2.02185 13.0625 2.12628 13.3734L15.0232 15.2614L2.12918 16.9268L0.861535 17.6214C0.803519 18.0857 0.748404 18.5654 0.693289 19.0489C3.92187 17.8363 7.44053 17.702 10.7155 16.9997C14.3212 16.2284 17.9095 15.5262 21.5384 15.0273C21.901 14.8776 22.2868 14.8124 22.6697 14.7702C23.9896 14.6397 25.3152 14.5208 26.638 14.4287C29.1472 14.2521 31.6622 14.1831 34.1655 13.9183C34.212 13.8415 34.2845 13.784 34.3831 13.7648C38.7256 12.9397 43.158 11.9267 47.5411 11.6427C48.7623 11.5659 49.9807 11.5391 51.2019 11.5352C51.5819 11.4739 51.959 11.4201 52.3419 11.3971C53.2121 11.3395 54.1955 11.2052 55.1093 11.3702C56.1129 11.2359 57.1166 11.1323 58.1261 11.0709C57.7983 10.8714 57.4734 10.7217 57.2065 10.6028L47.2945 9.75469L57.2878 9.04093L58.6743 9.67027H58.6714Z" fill="url(#paint20_linear_6_1721)"/>
<path d="M39.0649 4.70467L41.5045 4.18662L44.2022 4.30558L46.2502 4.15208L50.9814 4.51664L46.3691 4.81212L42.836 4.64711L39.0649 4.70467Z" fill="#612E18"/>
<path d="M39.0649 4.70467L41.0346 3.65322L42.427 3.753L44.4459 3.82974L46.0152 3.55345L47.573 3.84126L49.6528 3.90649L50.9814 4.51664L46.2502 4.15209L44.2022 4.30558L41.5045 4.18662L39.0649 4.70467Z" fill="#FFCC9C"/>
<path d="M1.67374 5.6295L2.94718 5.14215L4.30476 5.42612L5.35194 5.35705L7.72769 6.03627L5.36645 6.13988L3.58826 5.75997L1.67374 5.6295Z" fill="#612E18"/>
<path d="M1.67374 5.62949L2.74703 4.49362L3.44612 4.68549L4.4614 4.8812L5.27652 4.63944L6.04523 5.05772L7.09532 5.24959L7.72769 6.03626L5.35194 5.35704L4.30476 5.42611L2.94428 5.14598L1.67374 5.62949Z" fill="#FFCC9C"/>
<g clip-path="url(#clip1_6_1721)">
<path d="M22 12.022C21.9873 16.4334 18.3886 20.0123 13.9776 19.9997C11.3144 19.9921 8.95505 18.6778 7.50565 16.6664C6.5545 15.3462 5.99529 13.7254 6 11.9774C6.00471 10.3865 6.47558 8.90344 7.28332 7.65861C7.4977 7.32747 7.73652 7.01304 7.99654 6.71795C9.46832 5.04645 11.6251 3.99326 14.0224 4C15.8193 4.00469 17.478 4.60484 18.8117 5.6129C20.7529 7.07898 22.0071 9.40777 22 12.022Z" fill="#FFBD39"/>
<path d="M13.9779 19.7876C9.66296 19.7755 6.16224 16.2722 6.17432 11.9783C6.18639 7.68411 9.70684 4.20045 14.0221 4.21246C18.337 4.22448 21.8377 7.72778 21.8257 12.0217C21.8136 16.3156 18.2931 19.7993 13.9782 19.7873L13.9779 19.7876Z" fill="#FFE574"/>
<path d="M18.7773 16.7541C21.4157 14.1285 21.4157 9.87156 18.7773 7.24598C16.1389 4.6204 11.8611 4.6204 9.22268 7.24598C6.58425 9.87156 6.58425 14.1285 9.22268 16.7541C11.8611 19.3796 16.1389 19.3796 18.7773 16.7541Z" fill="#FFBD39"/>
<path d="M7.60695 12.1864C7.59988 14.6271 8.90087 16.7678 10.8529 17.9508C8.70063 16.8217 7.2365 14.5703 7.24386 11.9812C7.25417 8.26784 10.2876 5.26623 14.0188 5.27678C15.2978 5.28029 16.4924 5.63722 17.5101 6.25436C16.5758 5.76381 15.5118 5.48483 14.3822 5.4819C10.6506 5.47136 7.61755 8.47297 7.60695 12.1864Z" fill="#F99200"/>
<path d="M16.6541 12.6045C16.6005 12.4768 16.5331 12.3531 16.4527 12.233C16.208 11.8693 15.7265 11.5933 15.008 11.4057L14.4541 11.2618L14.3796 11.2422L13.8227 11.0969C13.783 11.0869 13.7447 11.0763 13.7076 11.0652C13.6823 11.0576 13.6572 11.05 13.6334 11.0421H13.6328C13.1119 10.87 12.8524 10.5999 12.8533 10.2318C12.8542 9.97187 12.9576 9.75854 13.1646 9.59063C13.2888 9.49011 13.4467 9.41949 13.6381 9.37993C13.6619 9.37495 13.6867 9.37026 13.7123 9.36616C13.8198 9.34857 13.9355 9.34066 14.0624 9.34096C14.177 9.34096 14.2845 9.34945 14.3849 9.36557C14.389 9.36616 14.3937 9.36674 14.3984 9.36792C14.419 9.37114 14.4397 9.37495 14.4594 9.37905C14.9088 9.47136 15.2053 9.73129 15.349 10.16H16.5923C16.5923 10.16 16.5793 10.0132 16.5463 9.85817C16.4182 9.36323 16.1185 8.98052 15.647 8.70887C15.326 8.52425 14.9756 8.40176 14.5954 8.34227C14.5516 8.33524 14.5071 8.32938 14.4629 8.32411C14.4609 8.32411 14.4588 8.32381 14.4564 8.32352V7.53583H13.5424V8.33173C13.04 8.40088 12.6124 8.58227 12.2594 8.87561C11.7944 9.26213 11.5612 9.77641 11.5591 10.4179C11.5582 10.7408 11.6233 11.0441 11.7532 11.3284C11.8836 11.6129 12.0579 11.8339 12.2753 11.9903C12.4932 12.1471 12.8301 12.2875 13.2868 12.4114L13.6287 12.504L13.7035 12.524L14.3755 12.7059L14.4503 12.7262L14.6205 12.7728C14.978 12.8683 15.2115 12.9996 15.3201 13.1663C15.4288 13.3336 15.4824 13.515 15.4821 13.7117C15.4821 13.7644 15.4774 13.8151 15.468 13.864C15.43 14.0683 15.3137 14.2429 15.1199 14.3895C14.9512 14.5163 14.7318 14.5993 14.4617 14.6365C14.4561 14.6371 14.4506 14.638 14.445 14.6388C14.4205 14.6423 14.3955 14.645 14.3705 14.6476C14.2812 14.6561 14.1879 14.6605 14.0889 14.6599C13.9505 14.6599 13.8201 14.652 13.6982 14.6371H13.6976C13.6887 14.6365 13.6799 14.635 13.6708 14.6341C13.6549 14.6318 13.6393 14.6297 13.6234 14.6274C12.9408 14.526 12.5365 14.1881 12.4101 13.6129C12.4081 13.6044 12.4066 13.5959 12.4045 13.5874H11.1457C11.1457 13.5874 11.1498 13.7415 11.1819 13.8526C11.3506 14.4841 11.6946 14.95 12.2137 15.2495C12.4022 15.3585 12.6021 15.4476 12.8139 15.5171C13.0203 15.5851 13.2382 15.6343 13.4667 15.6648C13.4917 15.6683 13.5171 15.6715 13.5427 15.6744V16.4654H14.4567V15.6835C15.0866 15.6255 15.614 15.4315 16.0384 15.1001C16.556 14.6963 16.8158 14.1418 16.8175 13.4371C16.8181 13.1432 16.7642 12.8659 16.6544 12.6054L16.6541 12.6045Z" fill="#FFE574"/>
</g>
</g>
<defs>
<radialGradient id="paint0_radial_6_1721" cx="0" cy="0" r="1" gradientUnits="userSpaceOnUse" gradientTransform="translate(83.5453 24.924) scale(59.3089 80.0598)">
<stop stop-color="#B35A40"/>
<stop offset="1" stop-color="#732F1B"/>
</radialGradient>
<radialGradient id="paint1_radial_6_1721" cx="0" cy="0" r="1" gradientUnits="userSpaceOnUse" gradientTransform="translate(14.9919 22.8249) scale(10.2255 13.8032)">
<stop stop-color="#B35A40"/>
<stop offset="1" stop-color="#732F1B"/>
</radialGradient>
<radialGradient id="paint2_radial_6_1721" cx="0" cy="0" r="1" gradientUnits="userSpaceOnUse" gradientTransform="translate(45.8929 20.9983) scale(9.96393 13.4501)">
<stop stop-color="#B35A40"/>
<stop offset="1" stop-color="#732F1B"/>
</radialGradient>
<radialGradient id="paint3_radial_6_1721" cx="0" cy="0" r="1" gradientTransform="matrix(9.73743 2.79449 -2.15554 13.1444 16.9781 16.7486)" gradientUnits="userSpaceOnUse">
<stop stop-color="#B35A40"/>
<stop offset="1" stop-color="#732F1B"/>
</radialGradient>
<radialGradient id="paint4_radial_6_1721" cx="0" cy="0" r="1" gradientTransform="matrix(-11.8157 -2.42535 2.54637 -21.7094 27.2508 24.4572)" gradientUnits="userSpaceOnUse">
<stop stop-color="#B35A40"/>
<stop offset="1" stop-color="#732F1B"/>
</radialGradient>
<radialGradient id="paint5_radial_6_1721" cx="0" cy="0" r="1" gradientUnits="userSpaceOnUse" gradientTransform="translate(51.5273 22.1418) scale(5.80779 7.83982)">
<stop stop-color="#B35A40"/>
<stop offset="1" stop-color="#732F1B"/>
</radialGradient>
<radialGradient id="paint6_radial_6_1721" cx="0" cy="0" r="1" gradientUnits="userSpaceOnUse" gradientTransform="translate(13.773 3.14668) scale(9.20422 12.1761)">
<stop stop-color="#B35A40"/>
<stop offset="1" stop-color="#732F1B"/>
</radialGradient>
<radialGradient id="paint7_radial_6_1721" cx="0" cy="0" r="1" gradientUnits="userSpaceOnUse" gradientTransform="translate(38.6792 0.560269) scale(0.29298 0.387578)">
<stop stop-color="#B35A40"/>
<stop offset="1" stop-color="#732F1B"/>
</radialGradient>
<radialGradient id="paint8_radial_6_1721" cx="0" cy="0" r="1" gradientUnits="userSpaceOnUse" gradientTransform="translate(48.9161 3.19284) scale(7.08664 9.37479)">
<stop stop-color="#B35A40"/>
<stop offset="1" stop-color="#732F1B"/>
</radialGradient>
<radialGradient id="paint9_radial_6_1721" cx="0" cy="0" r="1" gradientUnits="userSpaceOnUse" gradientTransform="translate(33.4664 3.47286) scale(6.68633 8.84522)">
<stop stop-color="#B35A40"/>
<stop offset="1" stop-color="#732F1B"/>
</radialGradient>
<radialGradient id="paint10_radial_6_1721" cx="0" cy="0" r="1" gradientUnits="userSpaceOnUse" gradientTransform="translate(29.7418 6.86896) scale(20.5202 27.1458)">
<stop stop-color="#B35A40"/>
<stop offset="1" stop-color="#732F1B"/>
</radialGradient>
<radialGradient id="paint11_radial_6_1721" cx="0" cy="0" r="1" gradientUnits="userSpaceOnUse" gradientTransform="translate(33.7246 3.60718) scale(3.73332 4.93874)">
<stop stop-color="#B35A40"/>
<stop offset="1" stop-color="#732F1B"/>
</radialGradient>
<radialGradient id="paint12_radial_6_1721" cx="0" cy="0" r="1" gradientUnits="userSpaceOnUse" gradientTransform="translate(26.461 18.9952) scale(3.73332 4.93874)">
<stop stop-color="#B35A40"/>
<stop offset="1" stop-color="#732F1B"/>
</radialGradient>
<radialGradient id="paint13_radial_6_1721" cx="0" cy="0" r="1" gradientUnits="userSpaceOnUse" gradientTransform="translate(44.4053 14.7587) scale(10.8954 14.4133)">
<stop stop-color="#B35A40"/>
<stop offset="1" stop-color="#732F1B"/>
</radialGradient>
<radialGradient id="paint14_radial_6_1721" cx="0" cy="0" r="1" gradientUnits="userSpaceOnUse" gradientTransform="translate(49.0872 14.2138) scale(5.05898 6.69244)">
<stop stop-color="#B35A40"/>
<stop offset="1" stop-color="#732F1B"/>
</radialGradient>
<radialGradient id="paint15_radial_6_1721" cx="0" cy="0" r="1" gradientUnits="userSpaceOnUse" gradientTransform="translate(22.925 13.5077) scale(15.9457 21.0942)">
<stop stop-color="#B35A40"/>
<stop offset="1" stop-color="#732F1B"/>
</radialGradient>
<radialGradient id="paint16_radial_6_1721" cx="0" cy="0" r="1" gradientUnits="userSpaceOnUse" gradientTransform="translate(18.3852 12.9359) scale(6.85747 9.07163)">
<stop stop-color="#B35A40"/>
<stop offset="1" stop-color="#732F1B"/>
</radialGradient>
<radialGradient id="paint17_radial_6_1721" cx="0" cy="0" r="1" gradientUnits="userSpaceOnUse" gradientTransform="translate(20.03 13.1393) scale(3.51866 4.65478)">
<stop stop-color="#B35A40"/>
<stop offset="1" stop-color="#732F1B"/>
</radialGradient>
<radialGradient id="paint18_radial_6_1721" cx="0" cy="0" r="1" gradientUnits="userSpaceOnUse" gradientTransform="translate(18.7362 18.8494) scale(12.981 17.1724)">
<stop stop-color="#B35A40"/>
<stop offset="1" stop-color="#732F1B"/>
</radialGradient>
<radialGradient id="paint19_radial_6_1721" cx="0" cy="0" r="1" gradientUnits="userSpaceOnUse" gradientTransform="translate(15.4525 14.8457) scale(12.981 9.61655)">
<stop stop-color="#B35A40"/>
<stop offset="1" stop-color="#732F1B"/>
</radialGradient>
<linearGradient id="paint20_linear_6_1721" x1="34.5571" y1="85.5435" x2="24.5577" y2="-0.85856" gradientUnits="userSpaceOnUse">
<stop stop-color="#FFF1ED"/>
<stop offset="0.44" stop-color="#FFE0C4"/>
<stop offset="0.79" stop-color="#FFD6AA"/>
<stop offset="1" stop-color="#FFD3A1"/>
</linearGradient>
<clipPath id="clip0_6_1721">
<rect width="60" height="27" fill="white"/>
</clipPath>
<clipPath id="clip1_6_1721">
<rect width="16" height="16" fill="white" transform="translate(6 4)"/>
</clipPath>
</defs>
</svg>
