<?xml version="1.0" encoding="UTF-8"?>
<svg xmlns="http://www.w3.org/2000/svg" xmlns:xlink="http://www.w3.org/1999/xlink" viewBox="0 0 48.79 51.63">
  <defs>
    <style>
      .cls-1 {
        fill: url(#_Áåçûìÿííûé_ãðàäèåíò_27);
      }

      .cls-1, .cls-2, .cls-3, .cls-4 {
        mix-blend-mode: multiply;
      }

      .cls-1, .cls-3 {
        opacity: .22;
      }

      .cls-5 {
        fill: url(#_Áåçûìÿííûé_ãðàäèåíò_148);
      }

      .cls-6 {
        isolation: isolate;
      }

      .cls-2 {
        opacity: .12;
      }

      .cls-2, .cls-7 {
        fill: #7a2900;
      }

      .cls-8 {
        fill: url(#_Áåçûìÿííûé_ãðàäèåíò_148-3);
      }

      .cls-8, .cls-9 {
        mix-blend-mode: screen;
        opacity: .32;
      }

      .cls-9 {
        fill: url(#_Áåçûìÿííûé_ãðàäèåíò_148-4);
      }

      .cls-10 {
        fill: #511a00;
      }

      .cls-3 {
        fill: url(#_Áåçûìÿííûé_ãðàäèåíò_27-2);
      }

      .cls-4 {
        fill: #864300;
        opacity: .23;
      }

      .cls-11 {
        fill: url(#_Áåçûìÿííûé_ãðàäèåíò_148-2);
      }
    </style>
    <linearGradient id="_Áåçûìÿííûé_ãðàäèåíò_148" data-name="Áåçûìÿííûé ãðàäèåíò 148" x1="26.32" y1="41.01" x2="22.07" y2="4.04" gradientUnits="userSpaceOnUse">
      <stop offset="0" stop-color="#b44d2f"/>
      <stop offset=".18" stop-color="#c15b28"/>
      <stop offset=".72" stop-color="#e68219"/>
      <stop offset="1" stop-color="#f59113"/>
    </linearGradient>
    <linearGradient id="_Áåçûìÿííûé_ãðàäèåíò_27" data-name="Áåçûìÿííûé ãðàäèåíò 27" x1="26.19" y1="41.02" x2="21.94" y2="4.06" gradientUnits="userSpaceOnUse">
      <stop offset="0" stop-color="#b44320"/>
      <stop offset="1" stop-color="#ff9215"/>
    </linearGradient>
    <linearGradient id="_Áåçûìÿííûé_ãðàäèåíò_148-2" data-name="Áåçûìÿííûé ãðàäèåíò 148" x1="-983.4" y1="692.66" x2="-963.47" y2="692.66" gradientTransform="translate(-1153.27 -174.51) rotate(-135)" xlink:href="#_Áåçûìÿííûé_ãðàäèåíò_148"/>
    <linearGradient id="_Áåçûìÿííûé_ãðàäèåíò_148-3" data-name="Áåçûìÿííûé ãðàäèåíò 148" x1="-983.44" y1="692.78" x2="-963.47" y2="692.78" gradientTransform="translate(-1153.27 -174.51) rotate(-135)" xlink:href="#_Áåçûìÿííûé_ãðàäèåíò_148"/>
    <linearGradient id="_Áåçûìÿííûé_ãðàäèåíò_148-4" data-name="Áåçûìÿííûé ãðàäèåíò 148" x1="14.09" y1="46.52" x2="9.42" y2="5.95" xlink:href="#_Áåçûìÿííûé_ãðàäèåíò_148"/>
    <linearGradient id="_Áåçûìÿííûé_ãðàäèåíò_27-2" data-name="Áåçûìÿííûé ãðàäèåíò 27" x1="-983.4" y1="692.36" x2="-963.47" y2="692.36" gradientTransform="translate(-1153.27 -174.51) rotate(-135)" xlink:href="#_Áåçûìÿííûé_ãðàäèåíò_27"/>
  </defs>
  <g class="cls-6">
    <g id="Layer_2">
      <g id="Layer_1-2" data-name="Layer_1">
        <g>
          <path class="cls-7" d="M48.44,38.32c-.73.73-6.54,7.63-6.54,7.63-1.01-.22-.89-.43-1.67-1.06.76,1.99-5.59,6.25-5.1,6.74-7.47-7.47-15.19-14.63-22.69-22.06C10.1,27.24.1,16.86.1,16.86c0,0-.37-2.93.3-3.52.72-.63,2.82.31,3.03.13.72.51,1.5.99,2.2,1.37-.59-.58-.81-1.19-1.39-1.8.42-.47-.55-1.81,0-2.39.97-1.03,3.56-1.25,4.59-1.15-.47-.59-.18-3.18-.43-3.76,2.12-1.08,3.23-1.13,5.38-2.23,4.92,3.78,9.4,9.42,13.26,14.06,1.19,1.43,2.63,1.91,3.96,3.08,5.93,5.2,11.88,9.04,17.45,14.61.03.03,0,3.08,0,3.08Z"/>
          <path class="cls-5" d="M48.44,35.24c-.73.73-6.54,7.63-6.54,7.63-1.01-.22-1.88-.64-2.66-1.26,2.7,2.63-4.6,6.46-4.12,6.94-7.47-7.47-15.19-14.63-22.69-22.06-2.35-2.33-4.58-4.49-6.75-6.9-1.31-1.46-5.52-3.91-5.29-6.26.07-.65,2.63-2.59,3.03-2.95.72.5,1.5.99,2.2,1.37-.59-.58-.81-1.19-1.39-1.8,1.18-1.3,2.98-3.69,4.59-3.54-.47-.59-.18-.79-.43-1.36,2.12-1.08,3.23-3.52,5.38-4.63,4.92,3.78,9.4,9.42,13.26,14.06,1.19,1.43,2.63,1.91,3.96,3.08,5.93,5.2,11.22,11.46,16.8,17.03.03.03.65.66.65.66Z"/>
          <path class="cls-1" d="M43.26,38.16c-2.36.88-5.11,1.6-7.64,1.4-2.39-.2-4.31-1.73-3.78-4.29.45-2.14,2.12-4.03,3.52-5.62,1.23-1.39,2.59-2.64,3.86-3.98,0,0,.01-.01.02-.02-2.67-2.81-5.39-5.58-8.26-8.09-1.33-1.16-2.77-1.64-3.96-3.08-1.25-1.5-2.56-3.11-3.94-4.72-1.28,1.32-2.88,2.41-4.3,3.37-3.05,2.05-6.87,3.79-10.63,3.46-2.49-.22-6.07-1.89-6.74-4.5-.55.5-1,.99-1.02,1.26-.23,2.35,3.98,4.8,5.29,6.26,2.17,2.4,4.41,4.57,6.75,6.9,7.5,7.44,15.21,14.59,22.69,22.06-.48-.48,6.82-4.31,4.12-6.94.78.62,1.65,1.04,2.66,1.26,0,0,4.98-5.92,6.3-7.37-.08.04-.16.08-.24.12-1.37,1.1-3,1.9-4.7,2.54Z"/>
          <path class="cls-4" d="M41.75,28.29c-2.73-2.88-7.83-8.17-10.76-10.74-1.33-1.16-2.77-1.64-3.96-3.08-.17-.21-.35-.42-.52-.63-2.12,2.06-4.17,4.15-6.09,6.34-1.16,1.33-1.64,2.77-3.08,3.96-1.26,1.05-2.6,2.15-3.95,3.28,4.04,3.99,11.26,10.91,15.34,14.85,0,0-1.07-2.06-.58-2.77,2.3-3.32,8.8-9.47,10.81-11.45.74-.73,2.07-.16,2.78.23Z"/>
          <g>
            <path class="cls-2" d="M36.94,46.83c-.2-.06-.4-.17-.59-.34-5.93-5.29-12.22-10.43-17.46-16.43-2.46-2.82-4.72-5.82-7.22-8.61-1.26-1.4-2.57-2.77-3.92-4.08-.27-.04-.54-.17-.79-.4-1.8-1.69-3.71-3.25-5.57-4.87-.53.49-.96.97-.99,1.23-.23,2.35,3.98,4.8,5.29,6.26,2.17,2.4,4.41,4.57,6.75,6.9,7.5,7.44,15.21,14.59,22.69,22.06-.18-.18.74-.84,1.81-1.72Z"/>
            <path class="cls-2" d="M18.26,8.71c5.84,5.85,12.24,11.26,19.43,15.3-2.17-2.25-4.39-4.44-6.7-6.46-1.33-1.16-2.77-1.64-3.96-3.08C23.18,9.84,18.7,4.2,13.77.42c-.74.38-1.36.93-1.94,1.52,2.1,2.3,4.23,4.57,6.43,6.78Z"/>
            <path class="cls-2" d="M47.79,34.59c-.51-.51-1.02-1.03-1.53-1.55-1.49-.44-3.09-.64-4.26-1.67-.62-.55-1.18-1.17-1.79-1.73-.31-.29-1.67-1.06-1.78-1.38.36,1.09,1.32,2.37,1.41,3.44-.74.02-1.28-.49-1.85-.89.26.99,3.01,4.12,2.55,5.03-.56,1.1-4.17-2.67-4.5-3.04-.72-.81-1.5-1.68-1.88-2.71-.23-.62-.21-1.33-.52-1.92-1.17-2.21-4.41-3.43-6.32-4.88-2.43-1.84-4.74-3.86-6.9-6.01-3.93-3.91-7.96-7.65-12.55-10.7-.74.31-1.48.99-2.16,1.71,1.58,1.24,3.04,2.66,4.52,4.02,6.03,5.54,11.64,11.58,17.2,17.59,4.18,4.52,8.24,9.14,12.24,13.82.29-.73.23-1.46-.44-2.11.78.62,1.65,1.04,2.66,1.26,0,0,5.81-6.9,6.54-7.63,0,0-.62-.62-.65-.66Z"/>
            <path class="cls-2" d="M17.98,24.3c1,1.22,2,2.44,3.03,3.63,2.27,2.6,4.73,5.03,7.27,7.39-3.39-3.72-6.84-7.37-10.31-11.02Z"/>
          </g>
          <path class="cls-7" d="M35.38,2.67c.45.45,5.55,2.1,7.63,3.87,0,0,0,2.68,0,2.67-.22,1.01-.64,1.88-1.26,2.66,2.17-2.23,5.69.04,6.94,1.44.26.3-.09,2.76,0,2.67-7.47,7.47-14.63,15.19-22.06,22.69-2.33,2.35-4.49,4.58-6.9,6.75-1.46,1.31-3.91,5.52-6.26,5.29-.65-.07-2.47-2.48-2.83-2.88,0,0-.62-1.44-.12-2.13,0,0,.18.6-.43,1.18-1.3-1.18-3.69-2.98-3.54-4.59-.59.47-.79.18-1.36.43-1.08-2.12-3.52-3.23-4.63-5.38v-2.67c3.55-3.85,10.3-7.46,14.06-10.59,1.43-1.19,1.91-2.63,3.08-3.96,5.2-5.93,11.46-11.22,17.04-16.8.03-.03.65-.65.65-.65Z"/>
          <path class="cls-11" d="M35.38,0c.73.73,7.63,6.55,7.63,6.54-.22,1.01-.64,1.88-1.26,2.66,2.63-2.7,6.46,4.6,6.94,4.12-7.47,7.47-14.63,15.19-22.06,22.69-2.33,2.35-4.49,4.58-6.9,6.75-1.46,1.31-3.91,5.52-6.26,5.29-.65-.06-2.59-2.63-2.95-3.03.5-.72.99-1.5,1.37-2.2-.58.59-1.19.81-1.8,1.39-1.3-1.18-3.69-2.98-3.54-4.59-.59.47-.79.18-1.36.43-1.08-2.12-3.52-3.23-4.63-5.38,3.78-4.92,9.42-9.4,14.06-13.26,1.43-1.19,1.91-2.63,3.08-3.96C22.88,11.53,29.14,6.23,34.72.66c.03-.03.65-.66.65-.66Z"/>
          <g>
            <path class="cls-2" d="M1.97,36.51c.78-.9,1.6-1.76,2.51-2.53,1.55-1.3,3.33-2.24,4.96-3.42,2.75-2,5.06-4.55,7.17-7.19,2.33-2.91,5.33-5.07,8.04-7.6,4.64-4.32,8.32-9.53,13.03-13.75-1.13-.97-2.06-1.78-2.3-2.02,0,0-.62.62-.65.66-5.58,5.58-11.84,10.87-17.04,16.8-1.16,1.33-1.64,2.77-3.08,3.96-4.64,3.85-10.27,8.33-14.06,13.26.36.7.86,1.29,1.41,1.84Z"/>
            <path class="cls-2" d="M25.55,19.01s-.07.07-.11.1c-1.37,1.2-2.8,2.34-4.12,3.59-1.35,1.27-2.47,2.71-3.66,4.13-.15.17-.29.34-.44.51,2.91-2.66,5.72-5.39,8.34-8.32Z"/>
            <path class="cls-2" d="M45.71,10.1c-.14.1-.27.19-.41.29-1.27,1.79-2.55,3.58-3.85,5.34-4.96,6.74-10.09,13.38-15.93,19.38-4.15,4.27-8.54,8.28-12.96,12.26.37.37.71.64.91.66,2.35.23,4.8-3.98,6.26-5.29,2.4-2.17,4.57-4.41,6.9-6.75,7.44-7.5,14.59-15.21,22.06-22.69-.26.26-1.49-1.74-2.98-3.22Z"/>
            <path class="cls-2" d="M43.01,6.54s-.88-.74-2.04-1.72c.12.1-4.72,4.67-5.11,5.07-1.9,1.89-3.8,3.78-5.57,5.79-1,1.14-2,2.25-2.89,3.47-.66.9-1.32,1.93-2.27,2.57-1.62,1.08-2.4,2.42-3.36,4.18-.82,1.5-2.21,2.39-3.2,3.73-.97,1.31-1.98,2.3-3.23,3.39-2.88,2.51-5.79,5-8.6,7.59.5,1.12,1.83,2.26,2.85,3.15-.06-.05,4.27-4.4,5.42-4.35.1.7-.42,1.19-.61,1.83,1.18-.98,2.34-2.02,3.5-3.04,1.24-1.1,2.4-2.27,3.61-3.41.53-.5,1.65-1.23,1.68-1.95-1.96.44-3.29,2.56-5.3,2.93.33-1.51,1.81-2.6,2.88-3.55,1.59-1.4,2.97-3.14,4.41-4.7,2.82-3.05,5.35-6.33,7.94-9.58,2.8-3.52,6.02-6.6,9.55-9.31-.32.08-.63.25-.92.55.62-.78,1.04-1.65,1.26-2.66ZM30.16,20.23c-.27.35-.53.7-.8,1.05-.74.98-4.13,5.54-5.67,4.75-.97-.5,1.26-2.66,1.68-3.2.99-1.24,1.96-2.45,2.91-3.73.74-1,1-1.26,2-1.78,2.25-1.16,3.24-4.29,5.68-5.14-1.73,2.83-3.8,5.43-5.81,8.05Z"/>
            <path class="cls-2" d="M9.34,34.26c-1.16.74-2.32,1.45-3.35,2.39-.66.61-1.27,1.26-1.86,1.94.05.06.11.12.16.18,1.65-1.53,3.34-3.03,5.04-4.52Z"/>
          </g>
          <path class="cls-8" d="M41.2,6.99c.13.66-.22,1.91.2,2.42.09-.07.17-.13.25-.21.75-.69,1.13-1.69,1.36-2.66,0,0-6.9-5.81-7.63-6.54,0,0-.62.62-.65.66-5.58,5.58-11.84,10.87-17.04,16.8-1.16,1.33-1.64,2.77-3.08,3.96-4.64,3.85-10.27,8.33-14.06,13.26.33.64.78,1.19,1.28,1.7-.16-.17-.28-1.79-.21-2.06.18-.71.92-1.27,1.35-1.82,1-1.27,2.1-2.44,3.3-3.54,1.13-1.04,2.58-2.62,4.04-3.18-.2.55-.67,1.11-.81,1.66,1.15-1.3,2.79-2.11,3.89-3.49,1.43-1.8,2.98-3.48,4.38-5.3,1.28-1.65,2.16-3.43,3.81-4.77,2.34-1.9,4.38-4.41,6.92-6.07-1.01.96-1.68,2.63-2.8,3.64,1.95-1.74,3.54-3.7,5.37-5.57.86-.88,1.87-1.42,2.79-2.2.67-.58,2.04-2,3.06-1.69-.21.48.09.86.6.82-.44.98-1.72,1.55-2.19,2.55.83-.59,1.6-1.34,2.5-1.82.05.04.07.06.15.07-.1.36-.44.63-.42,1.05-.01-.24,1.09-.54,1.32-.51,1.13.13,2.13,1.87,2.33,2.85Z"/>
          <path class="cls-9" d="M1.9,12.71c1.29-1.24,2.25-1.1,3.63-.1,1.02.74,2.05,1.7,2.78,2.74-.67-1.01-2.16-2.22-2.39-3.42.03-.03.06-.05.09-.06.97.38.09-1.68,0-2.18.95-.33,2.92,2.47,3.69,3-.75-.84-3.25-3.04-2.68-4.27.24-.5,1.55-1.35,2.1-1.34.8.02,1.56,1.13,2.01,1.65-.29-.7-1.17-1.49-1.23-2.26-.06-.71.68-1.65.91-2.32.28.11.54.27.77.48-.51-1.21.36-1.69,1.33-2.28,1.65-.99,3.66.88,4.91,1.87.51.4,1,.83,1.47,1.27-1.76-1.85-3.6-3.6-5.51-5.06-2.14,1.1-3.26,3.54-5.38,4.63.26.58-.04.78.43,1.36-1.61-.15-3.41,2.24-4.59,3.54.58.62.8,1.23,1.39,1.8-.7-.38-1.48-.87-2.2-1.37-.4.36-2.96,2.3-3.03,2.95-.05.53.12,1.07.44,1.6.11-.84.43-1.63,1.05-2.23Z"/>
          <path class="cls-3" d="M44.52,9.11c-.02.16-.04.32-.06.48-.53,3.33-2.61,6.04-4.9,8.39-3.76,3.85-8.36,6.82-12.82,9.79-2.72,1.81-5.5,3.54-8.34,5.15-2.49,1.41-11.66,6.92-15.34,4.62.82.76,1.62,1.52,2.12,2.51.58-.26.78.04,1.36-.43-.15,1.61,2.25,3.41,3.54,4.59.62-.58,1.23-.8,1.8-1.39-.38.7-.87,1.48-1.37,2.2.36.4,2.3,2.96,2.95,3.03,2.35.23,4.8-3.98,6.26-5.29,2.4-2.17,4.57-4.41,6.9-6.75,7.44-7.5,14.59-15.21,22.06-22.69-.33.33-2.19-2.91-4.17-4.2Z"/>
          <path class="cls-10" d="M9.79,44.14c2.98-1.98,5.32-5.04,8.14-7.29-2.48,2.81-5.04,5.51-6.8,8.43-.5.84-.22,1.05-.48,1.87-.02-.23-.24-.22-.31-1.1l-.24.15c-.21-.52-.12-1.2-.3-2.05Z"/>
          <path class="cls-10" d="M42.94,7.18c-1.1,2.45-3.84,4.09-5.47,6.2,1.85-1.52,3.49-3.42,5.52-4.69-.09-.43-.05-.96-.05-1.51Z"/>
          <path class="cls-10" d="M45.71,10.1s.26.53,0,.86c-.26.34-1.05,1.47-1.05,1.47l1.93-1.38-.88-.95Z"/>
          <path class="cls-10" d="M41.9,45.27v-2.39l-5.93-4.51s3.89,4.45,3.96,4.72c.07.27.3,1.13.3,1.13,0,0,.92,1.18,1.67,1.06Z"/>
        </g>
      </g>
    </g>
  </g>
</svg>