<?xml version="1.0" encoding="UTF-8"?>
<svg id="Layer_2" xmlns="http://www.w3.org/2000/svg" viewBox="0 0 849.47 293.48">
  <defs>
    <style>
      .cls-1 {
        stroke: #4d341a;
      }

      .cls-1, .cls-2, .cls-3, .cls-4, .cls-5, .cls-6, .cls-7, .cls-8, .cls-9, .cls-10, .cls-11, .cls-12, .cls-13, .cls-14, .cls-15, .cls-16 {
        fill: none;
        stroke-miterlimit: 10;
      }

      .cls-2 {
        stroke: #27450b;
      }

      .cls-17 {
        fill: #1a4f06;
      }

      .cls-18 {
        fill: #603a20;
      }

      .cls-3 {
        stroke: #81b42a;
      }

      .cls-19 {
        fill: #a0612c;
      }

      .cls-20 {
        fill: #4c8514;
      }

      .cls-4 {
        stroke: #452d15;
      }

      .cls-5 {
        stroke: #6da51d;
      }

      .cls-21 {
        fill: #b56a33;
      }

      .cls-6 {
        stroke: #5b7320;
      }

      .cls-7 {
        stroke: #689923;
      }

      .cls-8 {
        stroke: #a2d333;
      }

      .cls-22 {
        fill: #b5e23f;
      }

      .cls-9 {
        stroke: #336a0d;
      }

      .cls-23 {
        fill: #8c8228;
      }

      .cls-10 {
        stroke: #1a1308;
      }

      .cls-24 {
        fill: #7a4927;
      }

      .cls-11 {
        stroke: #548a16;
      }

      .cls-12 {
        stroke: #486414;
      }

      .cls-25 {
        fill: #b5ab31;
      }

      .cls-26 {
        fill: #d1c23b;
      }

      .cls-27 {
        fill: #674525;
      }

      .cls-28 {
        fill: #8e542d;
      }

      .cls-29 {
        fill: #010401;
      }

      .cls-13 {
        stroke: #27390a;
      }

      .cls-30 {
        fill: #59501b;
      }

      .cls-31 {
        fill: #706621;
      }

      .cls-14 {
        stroke: #5f3e20;
      }

      .cls-15 {
        stroke: #405411;
      }

      .cls-16 {
        stroke: #0e2a04;
      }
    </style>
  </defs>
  <g id="Layer_1-2" data-name="Layer_1">
    <g>
      <path class="cls-16" d="M471.75,234.78c-.49.15-.74.35-.77.6-.01.04-.08.06-.18.06h-.29c-.21,0-.39-.06-.41-.13-.43-1.31.45-2.52.46-4.05.01-1.69.17-3.51.47-5.45.87-5.64.42-11.63-.6-16.81-.91-4.67-2.08-9.11-3.51-13.32-.86-2.56-2.82-6.96-5.88-13.21-2.81-5.74-5.56-11.76-8.27-18.09-1.02-2.36-1.42-4.24-2.36-7.59-.59-2.1-.95-4-1.1-5.7-.57-6.45.31-12.83,2.64-19.13,1.87-5.07,5.05-9.87,9.52-14.4,2.67-2.71,6.4-5.44,12.47-7.29.05-.02.11-.03.17-.04l6.37-.95c.14-.02.29-.03.44-.04,2.71-.06,5.32-.17,7.83-.32,4.1-.26,9.04.16,13.19.19,22.29.17,42.05.2,59.3.09,4.41-.03,8.96-.12,13.67-.29,6.74-.24,11.29-.4,13.66-.48,15.33-.54,29.85-1.57,43.58-3.08,2.44-.27,4.92-.57,7.44-.92,6.17-.84,42.24,17.02,48.07,16.06,14.33-2.36,27.91-5.16,40.76-8.41,12.38-3.13,24.12-6.84,35.23-11.12,25.49-9.82,56.3,15.82,67.77,3.11,2.05-2.27,3.5-4.57,5.23-7.32,2.53-4.03,4.72-9,6.57-14.9,1.7-5.41,2.7-8.56,2.99-9.45.51-1.52,0-2.8.62-4.2.34-.77.54-1.82.59-3.15.09-2.16.19-4.69.29-7.59.08-2.29-.31-4.35-1.17-6.17-.94-2-4.24-2.81-9.91-2.44-.32.02-.63.06-.92.11-6.59,1.19-11.97,2.05-16.13,2.6-2.69.35-8.5,1.02-17.45,2.01-2.45.27-19.69-36.84-30.14-36.19-5.69.35-12.2.62-19.52.81-17.05.43-32.55.59-46.5.5-11.28-.07-19.55-.07-24.81.02-10.97.19-49-18.23-54.53-18.07-2.49.07-7.5.31-15.02.7-5.45.28-10.41.62-14.86,1.01-17.09,1.51-33.6,3.76-49.53,6.73-3.35.63-7.16,1.42-11.43,2.39-5.28,1.19-8.98,2.06-11.1,2.59-5.33,1.34-11.46,3.06-18.41,5.14-8.46,2.54-14.01,4.76-21.38,7.82-14.96,6.21-27.03,13.45-36.19,20.99-3.94,3.24-7.41,7.81-9.75,10.33-.58.63-1.87,2.59-3.86,5.88-.99,1.62-1,3.07-1.75,4.67-.78,1.68-1.26,2.84-1.43,3.49-.61,2.34-1.32,4.16-1.53,6.46-.76,8.12-.19,16.57,1.72,25.35.43,1.96,1.98,4.38-.25,6.07-4.32,3.28-8.04,6.44-11.15,9.49-1.76,1.73-2.85,3.48-4.62,5.24-.09.09-.37.15-.64.12-.27-.02-.45-.11-.41-.21.06-.16-.1-.3-.49-.42M471.15,235.85c.35.1.49.21.41.31"/>
      <line class="cls-13" x1="471.56" y1="236.16" x2="466.76" y2="238.68"/>
      <path class="cls-16" d="M466.76,238.68l-10.41,5.34c-.15.08-.49.03-.45-.06l4.78-10.62s.02-.05.02-.08c.01-1.04.36-2.06,1.03-3.05.11-.16.16-.31.16-.47v-16.41c0-.28-.1-.57-.3-.84-.25-.35-.42-.69-.49-1.04-1.45-7.03-3.73-14.29-7.31-22.12-2.74-5.99-4.82-10.4-6.24-13.22-2.25-4.49-3.82-7.96-4.73-10.41-.17-.45-1.04-3.03-2.62-7.72-1.08-3.22-1.64-5.79-1.69-7.74-.09-3.73.09-6.48.53-8.26.28-1.15.61-2.55.99-4.2,1.16-5.11,3.38-10.34,6.67-15.68,2.05-3.31,4.83-6.3,8.34-8.93,5.98-4.48,14.69-7.38,29.4-7.55,7.13-.08,22.83-.08,47.11,0,10.05.03,20.57-.07,31-.06,2.45,0,10.11-.22,22.98-.68,10.7-.38,17.52-1.03,30.25-2.01,12.31-.94,53.87,16.21,65.13,14.24,5.39-.94,11.09-1.74,16.9-2.88,5.47-1.07,10.22-2.05,14.26-2.94,7.44-1.63,15-3.62,22.67-5.99,14.14-4.35,27.82-9.33,39.06-14.92,5.74-2.86,9.58-4.85,11.53-5.97,14.51-8.37,36.29,20.04,42.05,10.42,2.17-3.63,3.65-6.56,4.42-8.77,1.4-4.03,2.37-5.79,2.51-7.98.04-.7.32-1.42.83-2.15.08-.11.12-.23.13-.35.08-.8-.04-1.3.39-2.12.47-.87.68-1.84.63-2.92-.07-1.67,1.1-3.15,1.01-4.86-.12-2.2,1.14-5.08.74-7.28-.19-1.06-.58-2.48-1.16-4.23-.12-.38-1.19-.62-2.2-.5-5.15.62-10.05,1.51-15.14,2.13-19.09,2.32-49.24-33.98-68.89-33.73-14.8.19-33.52.32-56.16.4-13.12.05-57.4-18.22-69.14-17.78-19.85.74-38.93,2.55-57.26,5.43-16.45,2.59-31.19,5.68-44.22,9.25-14.02,3.85-27.21,8.67-39.58,14.46-8.75,4.1-17.02,9.19-24.8,15.26-4.01,3.13-7.37,6.45-10.07,9.94-2.18,2.84-4.09,6.3-5.73,10.39-1.45,3.62-2.27,6.64-2.44,9.04-.1,1.43-.19,2.58-.27,3.45-.19,2.28-.29,3.43-.29,3.44.07,2.86.3,6.8.67,11.83.04.62.26,1.23.66,1.83.05.08.14.14.27.19.17.06.33.1.49.11"/>
      <path class="cls-9" d="M442.78,99.29l.21.28c.07.1.44.12.58.03,1.12-.7,3.04-1.97,5.75-3.8,1.21-.82,4.2-2.74,8.95-5.75,6.96-4.41,17.92-10.24,22.96-13.21,2.49-1.47,6.41-2.93,8.68-4.48.16-.11.07-.25-.21-.32-.28-.07-.67-.06-.92.03-.41.15-.85.24-1.34.29-.66.06-1.12-.23-.63-.4,1.65-.57,2.29-1.13,1.91-1.68"/>
      <path class="cls-11" d="M488.72,70.27c5.55-4.1,10.76-8.25,15.65-12.46,3.54-3.05,6.84-6.67,10.43-10.01"/>
      <path class="cls-9" d="M514.8,47.81c.05.71-.24,1.4-.88,2.06-4.42,4.59-8.01,8.2-10.77,10.84-.06.05.09.1.24.08l5.52-.83c.25-.04.49.05.38.14-3.8,2.96-9.02,6.22-12.08,8.42-.2.15-1.14.58-2.83,1.3-.04.02-.04.04.01.06l.19.07c.12.04.3.04.42,0,1.79-.57,4.3-1.5,5.91-2.26,3.07-1.46,6.52-3,10.36-4.61,1.37-.58,4.85-2.11,10.43-4.59,15.19-6.75,32.42-12.78,51.7-18.1"/>
      <line class="cls-11" x1="573.4" y1="40.41" x2="582.35" y2="38.07"/>
      <path class="cls-7" d="M582.35,38.07c10.39-2.42,18.13-4.18,23.24-5.28,29.23-6.25,89.52,7.62,121.3,4.38,4.1-.42,13.18-1.27,27.24-2.56"/>
      <path class="cls-11" d="M754.13,34.61l13.57-1.14c.11-.01.23.01.26.05.03.04-.03.07-.14.09l-4,.66"/>
      <path class="cls-7" d="M763.82,34.28c-21.86,1.99-42.52,4.43-61.99,7.32-11.51,1.71-53.12-14.81-65.27-12.36"/>
      <line class="cls-11" x1="636.56" y1="29.23" x2="633.26" y2="29.79"/>
      <path class="cls-9" d="M633.26,29.79c-5.76,1.22-11.53,2.41-17.3,3.57-8.23,1.66-18.65,4.33-31.25,8.03-8.47,2.48-17.07,5.3-25.78,8.45-.09.03-.09.09,0,.12h0c.1.04.26.04.37.01,3.84-1.18,7.95-2.42,12.32-3.73.42-.12.85-.16,1.29-.1.19.02.15.11-.11.25"/>
      <path class="cls-11" d="M572.8,46.39c-8.62,2.55-16.65,5.23-24.1,8.04"/>
      <path class="cls-9" d="M548.7,54.44c-3.71.63-6.64,1.62-8.81,2.98-.16.1-.35.2-.58.28-3.75,1.37-7.31,2.8-10.66,4.29-1.87.84-5.35,2.29-10.42,4.37-11.55,4.72-22.13,9.72-31.74,14.97"/>
      <path class="cls-16" d="M486.49,81.33c-.09-.09-.15-.14-.17-.14-.2-.02-.42,0-.54.06-15.01,7.84-27.86,15.98-38.53,24.41-1.27,1-3.75,3.07-7.46,6.2-5.43,4.58-10.45,9.68-14.9,13.88-.93.88-2.22,2.44-3.87,4.69-.84,1.15-2.07,1.74-5.41,1.64-.35-.01-.68-.06-.95-.14-.72-.21-1.5-.61-2.33-1.22-2.79-2.03-6.35-4.65-10.66-7.86-1.49-1.1-3.47-2.39-5.16-3.56-5.37-3.72-10-6.71-13.9-8.98-3.88-2.25-10.06-5.64-18.53-10.15-5.18-2.76-12.31-5.84-17.89-8.57-.84-.41-1.31-.49-1.41-.22"/>
      <path class="cls-9" d="M344.78,91.37c-4.93-2.07-9.86-4.14-14.79-6.21-12.62-5.31-25.96-10.38-40.01-15.2-1.93-.66-5.64-1.66-11.15-2.98"/>
      <path class="cls-11" d="M278.83,66.97c-1.42-.6-2.35-.84-2.78-.7"/>
      <line class="cls-7" x1="276.05" y1="66.27" x2="269.33" y2="63.97"/>
      <path class="cls-16" d="M269.33,63.97c.37.02.64.02.8,0,.33-.04.42-.19.16-.27-16-4.91-79.82,31.58-97.81,28.07-13.54-2.64-26.66-4.94-39.37-6.9-.23-.04-.2-.16.05-.17.81-.06,1.6-.02,2.36.09,6.16.96,13.72,1.78,19.23,2.57,12.07,1.74,71.26-36.91,83.94-34.56,1.31.24,6.09,1.24,14.36,2.99,4.33.92,8.56,1.9,12.68,2.96,11.28,2.89,16.62,4.3,26.18,7.11,8.72,2.56,15.37,5.12,24.68,8.38,2.94,1.03,5.05,1.81,6.32,2.34,5.41,2.27,9.83,3.92,15.2,6.31,9.41,4.18,14.13,6.27,14.17,6.29,9.59,4.32,20.12,9.46,31.59,15.41.15.07.27.16.37.24.79.67,1.87,1.22,3.24,1.65"/>
      <path class="cls-9" d="M387.48,106.47c1.05-.14,1.43-.36,1.13-.67-.04-.04-.05-.07-.04-.11.38-1.25.91-2.41,1.58-3.49.44-.69.67-1.82.69-3.36.04-3.64-.02-5.84-.18-6.58-1.79-8.39-8.47-16.61-20.04-24.67-2.09-1.46-4.85-3.1-8.26-4.93-.1-.05-.28-.07-.44-.05-.16.02-.24.09-.2.15.13.18.52.49,1.18.91.05.04.09.07.1.11.02.05-.03.11-.14.18-.14.09-.5.07-.58-.02-.09-.1-.27-.14-.55-.14"/>
      <line class="cls-11" x1="361.73" y1="63.8" x2="360.08" y2="62.43"/>
      <path class="cls-7" d="M360.08,62.43c-.58-.3-.99-.63-1.23-.99"/>
      <path class="cls-16" d="M358.85,61.44c.23.02.48.02.75.01.25-.01.38-.11.25-.19-9.85-5.78-22.87-10.38-38.62-14.73-10.31-2.84-20.84-5.23-31.59-7.17-5.82-1.04-14.28-2.61-20.34-3.53-14.85-2.24-26.05-3.74-33.6-4.5-12.01-1.21-69.96,38.53-80.21,37.83-4.01-.27-11.62-.71-22.81-1.31-3.88-.21-6.84-.33-8.87-.36-7.32-.13-13.95-.48-22.2-.71-12.65-.37-38.79,23.35-46.69,22.96-6.83-.33-19.42-1.22-37.78-2.65-2.68-.21-4.18.14-4.49,1.05-1.61,4.65-1.22,9.52,1.18,14.63,4.12,8.76,10.87,17.42,20.26,25.99,1.05.95,5.26,4.17,12.65,9.66,5.01,3.71,25.27-18.05,32.66-13.78,7.54,4.35,15.92,7.85,26.65,11.82,15.4,5.7,34.61,10.49,54.37,13.87,5.84.99,11.31,1.74,16.41,2.24,14.43,1.42,76.39-38.28,92.23-37.69,3.78.14,6.31.21,7.59.21,6.35,0,12.09.3,18.95.35,9.7.07,16.04.24,22.36-.09-1.57.01-3.12-.02-4.66-.08"/>
      <path class="cls-9" d="M313.3,115.27c9.77-.14,19.53-.13,29.29.01.2,0,.3.03.3.09"/>
      <path class="cls-16" d="M342.89,115.37l-.91.09c-.18.02-.29.08-.26.14.02.06.18.11.36.11,6.39-.02,12.81.21,19.24.68,8.43.62,15.35,2.1,20.78,4.42,3.15,1.35,5.4,2.39,6.76,3.12.29.15,1.92,1.1,4.89,2.84,1.4.82,2.88,1.79,4.45,2.92,5.89,4.24,10.75,9.55,14.57,15.92,4.42,7.36,7.73,13.35,9.94,17.96,3.63,7.57,6.36,15.63,8.18,24.2,1.1,5.15,1.48,11.09,1.13,17.82-.07,1.54-.22,2.84-.45,3.88-.6,2.82-.5,4.34-1.3,6.8-.3.92-.58,1.89-.85,2.9-2.02,7.64-6.07,15.78-12.14,24.4-1.61,2.29-2.47,3.52-2.57,3.69-.07.11-.32.2-.63.21l-6.68.29"/>
      <path class="cls-13" d="M407.4,247.77c-1.34-.09-2.01-.28-2-.58.01-.61.38-1.47,1.09-2.6.77-1.21,1.26-2.07,1.47-2.58.69-1.69,1.27-3.25,1.76-4.68.36-1.06,1.58-2.87,3.67-5.43"/>
      <path class="cls-16" d="M413.39,231.91c1.63-2.68,2.83-5,3.59-6.94,1.21-3.07,2.33-6.76,3.38-11.07.91-3.75,1.35-7.46,1.33-11.11-.02-4.37-.31-8.36-.86-11.99-.44-2.93-1.3-6.31-2.57-10.14-1.78-5.36-3.36-10.05-5.86-15.02-.92-1.82-1.71-3.46-2.37-4.91-3.27-7.24-6.5-12.96-9.69-17.19-.83-1.11-1.17-1.72-2.1-2.61-.85-.82-2.38-2.37-4.57-4.66-.39-.41-1.62-1.48-3.69-3.2-4.13-3.45-9.18-6.53-15.17-9.26-2.34-1.06-5.7-2.04-10.08-2.94-2.13-.44-4.85-.75-8.14-.93-5.03-.27-7.86-.41-8.5-.41-13.82-.07-26.65-.16-38.5-.26-2.54-.02-5.57.11-8.32.04-7.4-.2-15.35-.13-23.16-.35-2.07-.06-4.24-.1-6.51-.12-4.28-.04-13.13-.46-26.55-1.25-13.85-.82-74.02,38.53-86.85,36.67-4.33-.63-7.47-1.12-9.42-1.47-4.31-.77-9.32-1.77-15.05-3.02-19.14-4.15-36.16-9.83-49.37-15.99-8.84-4.13-31.26,16.6-35.53,13.99-7-4.28-12.35-7.84-16.06-10.68-7.83-6-14.59-12.4-20.29-19.2-6.99-8.35-10.96-17.12-11.07-25.67-.03-2.3.59-4.38,1.97-6.57.91-1.43,4.42-2.72,8.99-2.44,5.09.31,14.11.89,27.06,1.72,7.5.48,29.53-23.41,38.14-23.02,2.9.13,7.22.28,12.96.45,14.57.44,26.69.9,36.38,1.37,5.95.3,11.02.52,15.19.68,5.44.21,10.67.51,15.7.88,8.54.64,17.82,1.41,27.84,2.31,8.02.72,62.72-39.11,70.46-38.09,7.1.93,14.74,2.04,22.91,3.33,5.58.88,12.44,2.1,20.57,3.67,4.62.89,8.5,1.7,11.64,2.42,10.77,2.47,20.46,5.06,29.07,7.76,8.6,2.7,15.87,5.42,21.82,8.16,7.17,3.31,12.95,6.45,17.32,9.42,4.46,3.03,7.29,5.11,8.48,6.24,6.99,6.62,12.06,13.53,13.97,20.6,1.2,4.46,1.12,7.73.98,12.36-.07,2-1.05,3.96-1.42,6.06-.21,1.23-.78,2.54-1.69,3.92-.2.29-.13.7.21,1.23.04.06.28.18.62.31.21.08.62.36,1.23.82,3.79,2.91,6.73,5.33,8.82,7.25.18.16.37.27.57.33.26.07.38.19.3.3-.22.3.02.64.73,1,.25.13.58.19.98.17.42-.02.68-.12.79-.3"/>
      <path class="cls-6" d="M358.85,61.44c-6.45-4.13-16.23-7.81-26.77-11.2-12.56-4.04-26.78-7.52-42.67-10.44-6.01-1.1-11.41-2.06-16.21-2.87-33.75-5.68-116.24,32.19-154.9,30.86-11.56-.4-20.51-.68-26.84-.87-19.83-.56-51.14,22.37-72.54,20.76-1.91-.15-2.93-.22-3.05-.22-1.25-.05-1.96.16-2.11.62-1.47,4.58-1.16,9.23.95,13.94,2.79,6.24,7,12.46,12.65,18.64,3.99,4.37,7.73,7.92,11.22,10.65"/>
      <path class="cls-12" d="M38.58,131.32c3.99,3.21,8.19,6.38,12.6,9.52.93.66,2.07,1.31,3.43,1.97"/>
      <path class="cls-10" d="M466.76,238.68c-1.81,1.7-5.33,3.16-8.3,4.62-.84.41-1.55.85-2.12,1.31l-3.82,3.1"/>
      <path class="cls-2" d="M452.52,247.71c1.67-2.5,3.05-5.02,4.14-7.56.79-1.86,1.53-3.71,2.21-5.55"/>
      <path class="cls-12" d="M458.87,234.6c1.23-3.39,1.86-6.77,1.88-10.15.01-2.31.05-4.63.13-6.94.03-.69-.24-1.25-.79-1.68"/>
      <path class="cls-6" d="M460.09,215.82c-.09-3.69-.64-7.23-1.67-10.6-3.09-10.11-7.25-18.94-12.94-30.61-1.89-3.88-3.32-7.13-4.29-9.73-1.8-4.87-2.88-8.13-3.23-9.77-1.09-5.03-1.02-10.31.19-15.84,1.45-6.59,4.26-12.95,8.43-19.06,1.07-1.57,2.73-3.15,4.39-4.69"/>
      <path class="cls-2" d="M450.97,115.52c2.09-2.03,4.84-3.93,8.23-5.7,6.65-3.48,17.35-4.72,28.9-4.8,7.83-.05,19.32,0,34.48.16,15.78.16,32.44-.05,45.06-.19,4.59-.05,9.26-.33,13.77-.4,2.33-.03,5.76-.17,10.31-.42,14.74-.8,27.09-1.76,37.06-2.87,26.74-2.99,83.49,10.52,105.3,3.89,18.03-5.48,33.37-11.63,46.03-18.46,6.2-3.34,22.26,30.95,26.62,27.73,8.38-6.18,15.56-12.76,19.68-19.99"/>
      <path class="cls-12" d="M826.42,94.48c3.29-5.81,5.63-11.69,7.02-17.62"/>
      <path class="cls-6" d="M833.44,76.86c1.2-4.53,2.16-9.07,2.89-13.62.48-3.01.3-6.07-.55-9.19-.02-.09-.28-.14-.5-.1-13.02,2.2-37.35-33.79-51.43-32.84-8.83.6-16.4.99-22.71,1.17-4.71.14-12.88.26-24.49.38-15.93.16-38.91-.03-57.94.45-12.51.32-49.41-18.1-51.15-18.04-26.93.95-52.31,3.76-76.15,8.42-12.41,2.43-24.98,5.34-35.47,8.73-8.19,2.65-15.41,5.25-21.68,7.8-14.25,5.81-26.02,12.83-34.67,19.96-9.29,7.66-14.1,16.04-16.15,24.28-.47,1.92-.92,3.85-1.34,5.77"/>
      <path class="cls-2" d="M442.09,80.05c-.59,5.82-.52,10.84.2,15.06.38,2.23.54,3.62.49,4.19"/>
      <path class="cls-8" d="M360.08,62.43c-.03.14-.1.26-.21.34-.1.08-.43.08-.52,0-.81-.71-1.79-1.39-2.96-2.04-5.69-3.17-12.46-6.04-20.31-8.61-8.11-2.65-14.64-4.6-19.59-5.84-2.17-.54-5.8-1.45-10.91-2.7-2.3-.57-4.5-1.01-6.6-1.34-.29-.05-.57-.1-.83-.16-1.54-.37-2.47-.58-2.8-.64-6.77-1.19-15.69-2.75-26.77-4.7-.56-.1-1.15.11-.88.31.09.07.35.13.79.19,2.04.26,3.49.54,4.34.83.24.08.53.15.84.2,7.53,1.09,14.51,2.43,20.93,4.04,7.43,1.87,14.01,3.72,18.06,6.49,1.29.88,1.06,1.53-.71,1.95-.24.06-.52.09-.8.09-4.68,0-10.41-1.58-13.8-2.63-6.55-2.03-13.57-3.8-21.04-5.32-8.89-1.81-14.17-2.87-15.85-3.17-1.31-.23-2.49-.34-3.54-.32-.68.02-.99.31-.51.48,4.39,1.59,8.33,3.44,11.8,5.53.86.52,1.12,1.02.79,1.51-.07.1-.37.16-.65.12-11.44-1.38-21.81-3.34-32.41-5.37-7.47-1.43-64.96,37.61-78.83,35.73-6.36-.87-15.37-1.79-27.03-2.78-8.57-.73-21.97-2.18-40.22-4.35-5.76-.69-27.98,22.47-33.46,21.11-1.95-.48-3.73-.78-5.34-.89-14.07-.98-25.66-1.81-34.75-2.49-.55-.04-1.06.11-1.04.31.08,1.15-.89,2.02-1.06,3.22-.32,2.34-.06,4.42.79,6.24.48,1.03.3,2.15.66,3.21,1.57,4.65,5.13,10.31,10.7,16.98,3.75,4.5,8.08,8.9,12.99,13.2.08.07-.07.15-.28.15h-.49"/>
      <path class="cls-10" d="M409.18,231.81l.52.35c.14.09-.11.2-.4.17l-6.2-.64c-.07,0-.15-.01-.22-.01-6.01-.07-12.02-.1-18.04-.09-1.79,0-4.6.21-8.45.61-16.8,1.76-28.97,5.38-36.5,10.86-.91.67-2.11,2.25-3.59,4.73-.73,1.24-1.07,1.92-5.25,1.55-15.24-1.36-31.51.8-41.09,5.15-3.61,1.64-5.26,3.31-7.23,5.28-.35.35-1.33.56-2.37.52-13.8-.58-26.14.59-37.02,3.5-8.28,2.23-13.88,4.97-16.79,8.23-2.52,2.82-1.25,5.26,3.8,7.32,2.55,1.04,6.52,1.89,11.91,2.57,5.23.66,9.75,1.1,13.54,1.32,4.89.29,11.04.43,18.45.42,2.84,0,5.32-.05,7.43-.15,4.56-.2,7.05-.3,7.47-.31.28,0,.56-.02.82-.07,1.69-.27,3.59-.26,5.7.01.28.04.53.09.73.17,5.17,1.91,11.25,3.33,18.23,4.24,6.8.89,12.71,1.44,17.72,1.65,8.41.35,17.71.03,27.91-.95.06,0,.12-.01.17-.02l5.94-1.02c.37-.06.82-.06,1.18.02,6.13,1.27,11.32,2.15,15.56,2.64,5.49.63,9.34,1.07,11.54,1.33,2.98.35,5.19.34,7.99.68,1.43.17,3.43.32,6.01.44,11.31.53,21.21.7,29.72.52,10.49-.22,19.91-.76,28.28-1.62,6.29-.64,12.52-1.51,18.68-2.59,1.85-.32,3.4-.67,4.65-1.04.25-.07.57-.11.9-.1,1.3.03,2.32.11,3.05.25,5.52,1.01,11.96,1.44,18.13,1.67,6.74.25,14.56.07,23.47-.51,9.01-.59,18.26-2.59,25.03-4.94.7-.24,1.69-.34,2.64-.26,11.79,1.04,23.67,1.33,35.65.85,2.61-.1,5.33-.11,8.11-.31,7.18-.52,13.83-1.46,19.95-2.79,8.15-1.78,14.54-4.84,13.93-8.24-.22-1.24-.85-2.3-1.89-3.2-2.45-2.1-6.19-3.85-11.22-5.27-1.87-.52-4.96-1.28-8.1-1.8-1.64-.27-4.05-.72-7.22-1.34-.31-.06-.63-.1-.98-.13-6.31-.53-10.76-.87-13.35-1.01-1.56-.09-5.29-.1-11.2-.05-.34,0-.66-.05-.88-.14-1.53-.62-2.31-1.25-2.32-1.9,0-.08-.04-.16-.13-.23l-3.1-2.62c-.07-.06-.17-.12-.29-.17l-4.06-1.78c-.09-.04-.18-.07-.29-.1-4.59-1.22-8.3-2.05-11.15-2.5-7.27-1.14-15.54-1.49-24.81-1.04-1.46.07-2.51-.09-3.15-.47-.16-.1-.22-.21-.17-.33.32-.69.34-1.23.07-1.63-2.19-3.19-6.55-5.84-13.06-7.97-3.66-1.2-7.54-2.19-11.64-2.99-3.98-.77-8.51-1.32-13.58-1.66-.88-.06-1.72.03-2.33,0-4.41-.25-9.05-.27-13.92-.05-3.25.15-5.96.6-8.52,1.18-.71.16-1.37.21-1.99.16"/>
      <path class="cls-2" d="M316.54,73.54c2.75,1.14,5.62,2.29,8.59,3.43,3.53,1.36,6.37,2.5,8.53,3.44,18.05,7.81,35.07,15.89,51.07,24.25.95.5,1.87,1.1,2.75,1.81"/>
      <path class="cls-6" d="M269.33,63.97c-25.03-7.77-100.02,27.03-130.55,22.35-15.97-2.45-32.21-4.63-48.71-6.53"/>
      <path class="cls-5" d="M361.73,63.8c3.42,4.79,8.68,9.89,5.32,14.89-.23.35-1.08.6-2.08.62-1.36.03-2.77-.07-4.24-.28-2.75-.41-6.43-1.08-11.02-2-8.35-1.67-16.89-2.8-25.1-4.31-1.06-.2-1.97-.47-2.67-.82-8.86-4.39-15.37-7.68-19.52-9.85-4.55-2.38-9.02-4.21-14.36-6.72-.15-.07-.36-.13-.61-.18-.27-.05-.56.06-.41.15,1.81,1.14,3.99,2.1,5.37,3.17,2.67,2.04,6.43,4.07,9.05,6.15.32.26,2.61,1.97,6.88,5.14.05.04.12.08.19.11l8.01,3.67"/>
      <line class="cls-12" x1="316.54" y1="73.54" x2="300.64" y2="68.03"/>
      <path class="cls-8" d="M300.64,68.03c.51-.06.69-.17.54-.32-.03-.03-.09-.06-.17-.08-3.83-1.15-6.49-2.21-10.44-3.23-3.76-.97-7.3-2.18-11.63-3.29-11.43-2.92-17.7-4.62-25.99-6.33-6.77-1.39-59.4,38.02-66.29,36.8-12.69-2.24-25.51-4.26-38.46-6.07-3.15-.44-5.93-.8-8.34-1.08-7.15-.83-13.55-1.78-20.98-2.54-16.43-1.68-25.42-2.6-26.97-2.75-.1-.01-.2-.01-.31-.01h-1.92c-.29-.01-.54.06-.58.17l-.04.13"/>
      <path class="cls-12" d="M89.06,79.44c-.11.02-.22.03-.34.04-.12.01-.13.07-.02.09l1.37.22"/>
      <path class="cls-8" d="M90.07,79.79c-.3.01-.51.06-.63.15-.1.08,0,.17.24.19,6.25.71,13.43,1.61,21.56,2.72,19.21,2.61,36.12,5.04,53.53,8.39,10.3,1.98,17.11,3.34,20.44,4.09,10.65,2.4,67.86-35.64,77.97-32.73.21.06,2.14.67,5.79,1.84,2.15.68,4.51,1.3,7.08,1.83M177.31,110.83c-.39-.01-.73.03-1.03.11-.2.06-.12.17.12.19,5.55.45,58.32-39.83,64.67-39.42,8.63.55,17.96,1.44,27.97,2.68,7.09.88,13.99,2.13,20.69,3.74,5.91,1.43,11.52,3.16,16.83,5.19"/>
      <path class="cls-11" d="M120.82,129.86c-1.11-.44-2.4-.79-3.88-1.06M116.71,128.76c-9.95-2.79-19.21-5.82-27.78-9.09-4.09-1.56-24.68,20.23-29.05,18.68-2.11-.74-7.55-2.48-16.33-5.21"/>
      <path class="cls-3" d="M450.97,115.52c.03-.2-.01-.34-.11-.44-.09-.09-.45-.09-.56,0l-3.18,2.41"/>
      <path class="cls-5" d="M447.12,117.48c-3.39,1.01-6.3,2.11-8.72,3.29-1.61.78-2.63,1.71-3.06,2.56-1.53,3.05-2.91,5.5-4.12,7.35-.57.86-1.46,1.57-2.68,2.13-3.03,1.4-4.95,2.89-4.76,4.62.13,1.19.62,2.99.44,4.24-.35,2.35-1.46,4.69-3.31,7-.79.99-.81,1.5-1.24,2.68-.03.09-.35.1-.46.03-.55-.38-.88-.81-1-1.28-.03-.11-.11-.22-.25-.32l-.67-.49c-.09-.07-.16-.14-.2-.22-1.53-2.97-3.37-5.94-5.5-8.92-.68-.95-1.45-1.83-2.3-2.66-1.65-1.6-2.53-2.47-2.65-2.62-.61-.77-1.59-1.64-2.94-2.59-.51-.36-1.56-1.21-3.16-2.54-.23-.2-.42-.35-.55-.45-1.51-1.19-3.1-2.19-4.75-3-.24-.12-.52-.13-.83-.04-.14.04-.13.09.04.13"/>
      <path class="cls-2" d="M394.45,126.38c-4.54-2.58-8.84-4.66-12.9-6.25-10.43-4.07-23.87-4.53-38.66-4.76M313.3,115.27c-17.25-.04-32.5-.28-45.74-.74-14.59-.5-76.47,39.14-92.01,37.52-5.23-.54-10.66-1.31-16.29-2.28-16.57-2.86-31.75-6.56-45.56-11.1-10.07-3.31-18.54-6.59-25.41-9.83-5.79-2.73-27.59,17.98-33.68,13.97"/>
      <path class="cls-5" d="M54.61,142.81l-13.24-10.68s0-.09.1-.12c.11-.02.25-.02.34.02.91.35,1.49.73,1.74,1.12"/>
      <path class="cls-9" d="M43.55,133.15c3.72,1.39,7.58,2.7,11.57,3.95,3.3,1.03,21.43-22.29,22.66-21.79,2.03.83,4.03,1.68,6,2.54,2.07.9,4.97,2.03,8.69,3.38,8.09,2.95,16.17,5.46,24.24,7.54"/>
      <path class="cls-5" d="M116.71,128.76c.07.01.15.02.23.04"/>
      <path class="cls-9" d="M116.94,128.8c1.11.44,2.4.79,3.88,1.06"/>
      <path class="cls-5" d="M120.82,129.86c.11-.02.23-.02.37.01,11.97,2.98,25.11,5.7,39.14,7.72,7.19,1.04,13.77,1.85,19.74,2.43,7.99.78,60.47-39.47,63.8-39.35,4.05.15,6.13.23,6.22.23,1.27.04,8.62.06,22.05.07,4.9,0,8.9-.16,12.01-.49,12.25-1.31,23.03-3.43,28.7-7.58,1.34-.99,1.94-2.2,1.56-3.22-.91-2.5-3.52-4.61-7.85-6.35"/>
      <path class="cls-3" d="M306.56,83.33c-1.37-.87-3.13-1.66-5.27-2.36-10-3.27-21.32-5.68-33.97-7.22-9.12-1.11-16.49-1.84-22.1-2.2-7.04-.45-60.89,39.78-67.91,39.28"/>
      <path class="cls-5" d="M177.31,110.83c-6.16-.41-10.27-.65-12.32-.71-5.7-.17-11.72-.37-18.06-.6-.09,0-.15-.03-.16-.06,0-.03.06-.06.15-.06,1.75-.08,2.95-.11,3.6-.08,6.08.29,14.1.24,19.91.51.6.03,4.79.13,12.57.3,13.93.31,75.04-39.6,89.69-38.32,4.29.37,11.06,1.2,17.4,1.68,1.04.07,1.91.33,2.88.43.39.04.68-.12.42-.23-3.67-1.49-7.72-3.3-12.16-5.43-1.29-.62-2.09-1.05-2.4-1.29"/>
      <path class="cls-2" d="M344.78,91.37c5.08,2.39,10.16,4.77,15.25,7.14,2.51,1.17,8.85,4.59,19.01,10.27,4.31,2.41,9.29,5.55,12.09,7.49,3.55,2.45,10.03,7.17,19.46,14.16.98.72,2.14,1.36,3.48,1.91.49.2,1.24.3,1.99.26,4.23-.24,5.32-.89,6.49-2.4,2.21-2.85,4.41-5.32,6.6-7.4,3.63-3.44,5.84-5.84,8.91-8.49,6.25-5.4,10.05-8.62,11.4-9.65,10.61-8.13,22.96-15.91,37.03-23.34"/>
      <path class="cls-9" d="M745.05,85.48c.49,0,.74-.09.77-.27M746.33,85.07c1.94-.56,3.58-1.21,4.92-1.96"/>
      <path class="cls-5" d="M826.42,94.48c-.44.05-.74.15-.9.3-.05.05-.19.07-.33.06h-.01c-.13-.02-.2-.07-.16-.11.55-.58,1.01-1.37,1.4-2.36.64-1.63,2.18-4.17,2.83-6.07,1.09-3.22,1.88-5.5,2.35-6.86.02-.05.02-.09.01-.14-.11-.52.18-1.02.87-1.51.16-.11,0-.25-.34-.29h-.03c-.34-.05-.71.01-.86.12-1.95,1.53-3.99,3.02-6.12,4.45-11.14,7.49-34.89-20-48.85-11.5-7.2,4.38-15.93,8.44-24.72,12.24-.29.13-.39.23-.3.31"/>
      <line class="cls-11" x1="751.25" y1="83.11" x2="746.33" y2="85.07"/>
      <path class="cls-5" d="M746.33,85.07c-.14.01-.31.06-.51.14"/>
      <path class="cls-11" d="M745.82,85.21c-.33.05-.58.15-.77.27"/>
      <path class="cls-5" d="M745.05,85.48c-.71.17-1.38.37-2,.6-17.29,6.31-36.76,11.54-58.42,15.71-2.57.49-39.16-16.96-50.21-15.14-7.27,1.19-14.33,2.13-21.2,2.8-11.62,1.14-22.56,2.12-32.81,2.92-2.43.19-5.48.33-9.16.43-.36.01-3.41.15-9.16.41-12.66.58-25.97.36-39.92-.65-5.59-.41-9.71-1.46-12.35-3.17-4.99-3.22,9.13-6.54,15.74-7.46,8.31-1.16,16.64-2.13,24.99-2.93.22-.02.37-.1.35-.18-.02-.08-.2-.14-.43-.15-2.71-.08-5.61.18-8.28.35-12.33.82-22.21,1.61-29.64,2.36-5.23.53-10.64.73-15.42.75-.25,0-.45-.08-.42-.17.48-1.28,2.64-2.62,4.13-3.75.75-.57,1.82-1.22,3.22-1.95,5.61-2.92,12.15-6.06,18.87-8.09,13.99-4.21,29.25-7.8,45.77-10.77,7.11-1.28,13.55-2.4,19.31-3.35,8.15-1.36,16.18-2.42,24.65-3.07,5.62-.43,10.92-.89,16.44-1.2,6.92-.38,46.73,17.67,59.88,16.95,1.4-.08,2.65-.18,3.75-.31.23-.02.36-.11.3-.19h0c-.05-.07-.23-.11-.41-.11-4.86.21-8.03.29-9.52.24-4.42-.16-38.34-18.79-42.19-18.67-9.42.3-17.44.46-26.28.99-7.18.42-13.09.8-17.74,1.15-15.91,1.17-31.23,3.42-45.72,6.06-2.54.46-5.2,1.01-7.98,1.64-.2.05-.47.04-.64-.03-.16-.06-.17-.16-.02-.23l6.17-2.83M572.8,46.39c13.99-3.16,20.84-5.12,38.07-9.8.07-.02,3.46-.99,10.16-2.92,3.29-.95,6.77-1.88,10.44-2.8,1.03-.26,1.62-.62,1.79-1.09"/>
      <path class="cls-8" d="M636.56,29.23c-.06.08-.09.15-.08.2.02.11.34.17.6.12,13.09-2.61,54.89,13.91,65.83,12.36,7.22-1.02,16.01-2.2,26.36-3.52,1.79-.23,7.59-.88,17.38-1.94,5.81-.63,11.53-1.35,17.17-2.17M754.13,34.61c.2-.09.3-.15.31-.17.02-.12-.31-.22-.65-.19-11.28.94-21.73,1.93-31.36,2.96-30.48,3.29-88.94-10.82-115.81-5.12-7.95,1.69-16.28,3.57-24.99,5.65-.31.07-.22.24.14.27l.58.05"/>
      <path class="cls-5" d="M573.4,40.41c-1.47,0-2.62.1-3.44.28-11.91,2.65-25.03,5.84-39.38,9.55-5.13,1.33-10.26,2.89-15.37,4.68-.15.05-.4,0-.32-.07,1.57-1.44,2.15-3.08,3.73-4.81,6.37-6.98,9.95-11.12,10.76-12.42,2.31-3.74,3.84-6.21,4.58-7.4.07-.11-.29-.19-.53-.11-.47.15-.75.27-.86.38-1.37,1.37-3.16,2.83-4.28,4.03-4.19,4.48-8.68,8.92-13.49,13.31M488.72,70.27c-1.45,1.35-4.05,2.3-7.82,2.87-12.72,1.9-24.98,4.13-36.78,6.69"/>
      <path class="cls-12" d="M394.45,126.38c8.95,5.74,15.25,11.87,18.9,18.39,1.73,3.1,3.62,6.18,5.68,9.26"/>
      <path class="cls-6" d="M419.03,154.03c10.03,17.65,15.37,34.29,14.3,51.45-.89,14.1-6.66,28.01-17.32,41.74-.07.08.13.16.37.15l2.17-.09"/>
      <line class="cls-12" x1="418.55" y1="247.29" x2="432.51" y2="246.77"/>
      <path class="cls-2" d="M432.51,246.77c3.05.09,6.07.17,9.06.24,1.55.04,4.56.29,9.02.77"/>
      <path class="cls-10" d="M450.59,247.77l-1.57.03c-.8.02-1.6,0-2.39-.06-5.12-.35-10.31-.51-15.57-.48-.51,0-4.08.15-10.71.44-4.33.19-8.64.21-12.95.06M413.39,231.91l-.95.54c-.12.07-.4.06-.49-.01l-.35-.27"/>
      <path class="cls-15" d="M452.52,247.71c-.81.08-1.46.1-1.93.06"/>
      <path class="cls-8" d="M833.44,76.86c-.18,0-.31.01-.38.05-.17.08-.52.04-.53-.06-.2-1.89.66-3.76,1-5.58.41-2.17,1.1-6.07,2.05-11.72.3-1.78-.12-3.21-.76-4.77-.07-.17-.57-.26-1-.19-9.78,1.59-19.83,2.84-30.16,3.76-8.73.78-28.13-36.2-36.65-35.79-5.03.24-13.8.41-26.31.49-18.98.12-38.17.26-57.57.42-3.15.02-5.64.15-7.47.36-.33.04-.64.09-.93.16-5.92,1.43-40.94-16.05-45.51-15.23-15.39,2.73-32.14,6.76-43.61,9.89-4.79,1.31-13.57,3.76-26.34,7.35-3.66,1.03-7.96,1.87-11.58,2.97-.32.1-.8,0-.75-.14.71-2.13,3.58-3.34,7.84-5.45,1.54-.77,3.74-1.68,6.6-2.75,3.26-1.22,6.49-2.6,9.68-4.13.3-.15.6-.31.91-.49.07-.04.04-.09-.07-.12h-.01c-.1-.02-.23-.02-.31.01-4.07,1.68-9.06,2.88-14.99,4.42-2.09.54-8.79,2.67-20.12,6.37-3.29,1.08-6.4,2.25-9.31,3.52-6.06,2.65-13.54,5.75-18.27,7.58-2.89,1.12-5.62,2.11-8.21,2.97-.12.04-.3.04-.43,0-.13-.04-.16-.1-.07-.15,1.5-.84,2.79-1.71,3.88-2.6,1.79-1.48,2.94-2.37,3.43-2.69,2.3-1.48,4.36-3.44,7.38-5.12,1.57-.88,2.79-1.54,3.66-1.98.14-.07.1-.17-.1-.22h-.02c-.14-.04-.34-.04-.46.01-4.83,1.87-7.43,3.02-12.72,4.84-5.83,2-10.22,3.72-13.18,5.18-5.69,2.8-9.51,4.55-14.47,7.29-3.45,1.9-6.99,3.61-10.63,5.15-1.52.64-3.59,1.27-6.21,1.9-.11.02-.26.08-.43.16-.19.09-.3.14-.33.16-.2.09-.48.16-.8.18-1.11.09-1.89.34-2.36.77-2.07,1.89-3.79,3.83-5.17,5.82-2.69,3.88-4.73,7.76-6.12,11.62-.43,1.19-.72,1.84-.87,1.93-.14.09-.2.19-.18.28.15.9-.1,2.06-.74,3.48-.43.94-.3,1.96.39,3.06"/>
      <path class="cls-3" d="M444.12,79.83c-1.02.37-1.7.44-2.03.22"/>
      <path class="cls-5" d="M458.87,234.6c-.45-.49-.61-1.09-.47-1.78,1.09-5.32,1.38-10.71.87-16.17-.01-.09-.18-.15-.42-.17-.23-.01-.46.04-.53.12-1.35,1.52-2.55,2.97-3.61,4.35-.87,1.13-2.23,2.56-4.08,4.3-4.09,3.83-6.17,5.77-6.22,5.82-2.28,1.92-3.62,3.35-4.03,4.29-.83,1.89-1.35,3.39-1.57,4.49-.31,1.54-1.96,2.84-4.97,3.9-3,1.05-5.75,1.9-8.25,2.54-.03.01-.01.03.03.03h7.4c.34,0,.5.15.24.23l-.75.23"/>
      <path class="cls-8" d="M418.55,247.29c-.63-.15-.9-.32-.79-.5.83-1.39,2.77-4.27,5.84-8.63,2.13-3.02,4.43-7.73,6.9-14.12,1.01-2.6,1.71-4.51,2.09-5.72.19-.61.29-1.15.29-1.61.02-1.35.86-2.49.93-3.95.09-2.25.86-4.34.88-6.61.03-4.07.06-7.42.09-10.06.02-2.33-.75-4.78-.9-6.51-.15-1.77-.47-3.39-.95-4.87-.64-2-1.1-4.56-2.02-7.06-2.66-7.19-4.33-11.5-5-12.93-.99-2.11-2.88-5.66-5.65-10.67-.07-.14-.53-.2-.86-.12l-.37.1M460.09,215.82c-.92-1.25-1.45-2.46-1.6-3.65-.1-.79-.25-1.39-.44-1.81-.25-.53-.31-1.14-.18-1.82.13-.62-.84-4-2.91-10.12-.23-.67-1.11-1.47-1.04-2.16.03-.3-.14-.84-.49-1.62-4.41-9.91-7.38-16.35-8.91-19.32-2.16-4.19-3.97-8.47-5.44-12.83-1.5-4.45-2.26-6.72-2.29-6.79-.76-1.78-1.1-3.67-1.01-5.66.16-3.62-.6-6.66,1.11-9.97.06-.12.09-.24.09-.36-.02-1.26.19-2.25.63-2.97.05-.09.24-.67.57-1.74,1.79-5.85,4.77-11.69,8.94-17.52"/>
      <path class="cls-6" d="M300.64,68.03c-12.83-4.14-26.46-7.89-40.89-11.24-13.86-3.22-75.66,34.61-91.75,32.1-15.59-2.43-31.54-4.55-47.85-6.34-8.19-.9-17.35-1.86-27.5-2.87-1.17-.12-2.36-.19-3.59-.23"/>
      <path class="cls-8" d="M604,42.24c.69.05,1.75.04,3.16-.05,16.16-.99,59.8,15.42,75.04,12.25,9.92-2.06,21.28-4.88,31.16-6.91,3.67-.75,12.23-2.62,25.69-5.59,5.2-1.15,9.56-2.26,14.9-3.25.79-.15,1.44-.33,1.95-.57.19-.09-.08-.21-.37-.16-4.62.72-8.48,1.22-13.86,1.67-18.49,1.56-36.44,3.9-53.85,7.03-3.25.59-5.83,1.1-7.72,1.53-13.59,3.1-56.88-12-70.29-8.1-1.99.58-3.97,1.25-5.94,2.01-.13.05-.06.13.13.15M56.31,108.27l.86.21c.18.04.4.07.62.07,4.61.02,23.85-23.91,26-23.64,5.92.76,12.66,1.73,20.21,2.92,8.3,1.31,17.48,2.63,25.04,3.18,10.64.77,19.23,1.35,25.76,1.77,1.67.1,2.57-.67,1.18-1.01-4.77-1.18-9.87-2.16-15.3-2.94-8.34-1.2-17.32-2.2-26.94-2.99-1.95-.16-6.1-.41-12.47-.73-2.67-.14-6.83-.39-12.48-.76-3.32-.22-24.67,23.76-32.33,23.75-.27,0-.37.12-.15.18"/>
      <path class="cls-4" d="M299.75,278.85c.56.03,1.16-.04,1.79-.22.2-.06.49-.04.63.04,2.35,1.29,5.75,2.45,10.22,3.49,11.52,2.67,23.66,3.57,36.43,2.7,6.57-.45,12.33-2.04,17.2-3.66.26-.09.67-.07.88.02,2.74,1.24,5.75,2.29,9.03,3.17,2.31.62,6.08,1.26,11.3,1.93,6.85.88,13.67,1.5,20.46,1.86"/>
      <path class="cls-1" d="M407.69,288.16c12.85.77,25.75.9,38.69.38"/>
      <path class="cls-4" d="M446.38,288.55c6.85-.2,13.18-.68,19-1.42,2.22-.28,5.9-.85,11.05-1.7,4.68-.77,9.41-1.22,14.31-2.17,1.64-.32,3.61-.33,5.28-.04.25.04,1.5.36,3.76.96,3.58.95,9.86,1.34,16.09,1.46,2.65.05,5.29,0,7.9-.16,5.5-.34,8.7-.56,9.59-.65,5.26-.55,13.39-1.94,19.06-3.41,3.21-.84,4.92-1.26,5.15-1.27,1.34-.06,2.35-1.08,4.43-1.1.37,0,.73.04,1.02.12,4.56,1.23,9.81,1.42,15.13,1.89.3.03.61.05.93.05,12.76.2,24.11.06,35.77-1.74,3.37-.52,5.91-1.06,7.63-1.62,4.05-1.31,8.01-3.01,6.26-5.01-1.02-1.16-1.8-1.89-2.33-2.2-3.17-1.83-7.39-3.26-12.67-4.3-5.81-1.15-10.65-2.01-17.17-2.24-1.41-.05-4.36-.16-8.87-.33-.17,0-.35,0-.52,0l-8.95.35c-.36.01-.67-.08-.68-.21-.1-1.63-.52-2.73-1.26-3.31-6.18-4.86-17.01-7.38-32.49-7.56-2.43-.03-6.42.18-11.97.62-.45.04-.91.04-1.36.01l-2.77-.16c-.18-.01-.29-.08-.22-.14l2.9-2.51s.05-.05.05-.08c.21-1.72-3.37-3.74-6.75-4.9"/>
      <path class="cls-1" d="M523.68,245.77c-6.07-2.87-12.58-5.03-19.54-6.47-8.74-1.81-20.4-1.88-28.17.67-5.78,1.89-8.34,3.87-10.89,6.52-1.49,1.53-2.33,3.26-2.54,5.17-.04.38-.83.68-1.83.7-.29,0-.77-.06-1.44-.2-6.05-1.27-11.05-1.87-18.65-2-10.43-.17-19.87-.05-28.31.36-5.41.26-12.17.87-20.3,1.81-3.56.41-7.72,1.37-10.93,1.76-4.36.53-8.6,1.13-12.73,1.79-.25.04-.53,0-.68-.07-.15-.08-.1-.19.1-.25l10.48-3.24c.07-.02.13-.05.19-.07,3.98-1.67,8.2-3.34,12.65-5,3.25-1.21,7-3.5,6.88-5.27-.01-.11.1-.23.3-.32.31-.14.82-.39,1.51-.75,3.21-1.68,2.83-3.3-1.16-4.85-1.67-.65-3.76-.83-6.27-.55-2.35.27-6.07.78-11.15,1.53-3.59.53-7.22,1.47-10.9,2.82-.53.2-.58.18-.15-.04,2.11-1.06,4.76-2.06,7.95-3,.15-.04.17-.12.04-.17l-.2-.08c-.21-.09-.56-.11-.83-.05-3.56.72-7.43,1.87-11.6,3.47-4.5,1.72-7.43,3.05-8.79,3.98-1.09.75-2.11,1.45-3.04,2.09-3.93,2.68-5.94,5.56-7.04,8.58-.15.41-1.46.63-2.44.4-8.05-1.89-17.04-2.65-26.96-2.28-13.15.49-17.18,4.06-21.62,8.22-.11.1-.28.2-.49.28l-3.78,1.45c-.25.1-.6.16-.98.17-11.03.27-18.73.57-23.11.93-7.15.57-13.53,1.75-19.15,3.53-5.72,1.81-8.79,4.01-9.2,6.62-.32,1.98,4.21,3.57,9.06,4.22,5.95.79,12.74,1.26,20.38,1.4,6.22.11,11.72.07,16.5-.12,3.84-.16,9.9-.17,14.9-.57"/>
      <path class="cls-14" d="M523.68,245.77c-.68.99-1.21,1.98-1.6,2.98-.5,1.3-1.12,2.23-1.85,2.79-5,3.85-13.46,5.24-23.73,6.88-.33.05-.67.09-1.03.11-11.87.61-19.26-2.82-27.33-5.05-.81-.22-1.99,0-1.89.37.7,2.75,3.09,4.32,7.99,7.33.14.09.25.18.33.28,3.06,3.73,3.69,7.37,1.89,10.9-.05.09-.16.18-.34.25-5.14,1.99-10.86,3.14-15.79,4.32-6.92,1.65-13.24,2.5-21.55,3.3-3.74.36-7.96.56-12.65.61-6.56.07-10.9.11-13.01.11-10.35,0-20.15-.53-29.39-1.62-1.41-.17-2.61-.36-3.61-.58-5.75-1.27-11.03-2.63-15.82-4.09-1-.3-2.44-.33-3.53-.07-.93.22-2.23.58-2.67.77-2.44,1.05-5.17,1.84-8.18,2.36-.28.05-.44.16-.4.27.13.36-.25.66-1.14.92-2.43.7-5.24.96-8.45.78-2.76-.16-5.44-.29-8.03-.4-5.33-.21-9.66-1.15-12.24-2.65-1.03-.6-2.44-1.8-4.22-3.59-.09-.09-.37-.15-.63-.12-3.72.39-5.67,1.18-7.8,2.27-.41.21-.94.39-1.55.52-2.83.63-7.91,1.36-5.71,3.15M446.38,288.55c-12.94-.37-25.84-.49-38.69-.38M527.43,272.17c-.4,0-.69-.05-.88-.12-.25-.1-.16-.25.27-.46.29-.15.5-.33.63-.55.68-1.2.93-2.37.76-3.51-.29-1.98-3.61-3.85-9.9-3.49-7.03.41-13.8,2.48-14.46,5.12-.64,2.55,4.19,4.2,11.02,4.23,4.37.01,8.06.04,11.49-.43.41-.06.6-.23.41-.37-.03-.02.23-.1.8-.23.23-.05.13-.18-.14-.18"/>
      <path class="cls-29" d="M471.75,234.78c-.49.15-.74.35-.77.6-.01.04-.08.06-.18.06h-.29c-.21,0-.39-.06-.41-.13-.43-1.31.45-2.52.46-4.05.01-1.69.17-3.51.47-5.45.87-5.64.42-11.63-.6-16.81-.91-4.67-2.08-9.11-3.51-13.32-.86-2.56-2.82-6.96-5.88-13.21-2.81-5.74-5.56-11.76-8.27-18.09-1.02-2.36-1.42-4.24-2.36-7.59-.59-2.1-.95-4-1.1-5.7-.57-6.45.31-12.83,2.64-19.13,1.87-5.07,5.05-9.87,9.52-14.4,2.67-2.71,6.4-5.44,12.47-7.29.05-.02.11-.03.17-.04l6.37-.95c.14-.02.29-.03.44-.04,2.71-.06,5.32-.17,7.83-.32,4.1-.26,9.04.16,13.19.19,22.29.17,42.05.2,59.3.09,4.41-.03,8.96-.12,13.67-.29,6.74-.24,11.29-.4,13.66-.48,15.33-.54,29.85-1.57,43.58-3.08,2.44-.27,4.92-.57,7.44-.92,6.17-.84,42.24,17.02,48.07,16.06,14.33-2.36,27.91-5.16,40.76-8.41,12.38-3.13,24.12-6.84,35.23-11.12,25.49-9.82,56.3,15.82,67.77,3.11,2.05-2.27,3.5-4.57,5.23-7.32,2.53-4.03,4.72-9,6.57-14.9,1.7-5.41,2.7-8.56,2.99-9.45.51-1.52,0-2.8.62-4.2.34-.77.54-1.82.59-3.15.09-2.16.19-4.69.29-7.59.08-2.29-.31-4.35-1.17-6.17-.94-2-4.24-2.81-9.91-2.44-.32.02-.63.06-.92.11-6.59,1.19-11.97,2.05-16.13,2.6-2.69.35-8.5,1.02-17.45,2.01-2.45.27-19.69-36.84-30.14-36.19-5.69.35-12.2.62-19.52.81-17.05.43-32.55.59-46.5.5-11.28-.07-19.55-.07-24.81.02-10.97.19-49-18.23-54.53-18.07-2.49.07-7.5.31-15.02.7-5.45.28-10.41.62-14.86,1.01-17.09,1.51-33.6,3.76-49.53,6.73-3.35.63-7.16,1.42-11.43,2.39-5.28,1.19-8.98,2.06-11.1,2.59-5.33,1.34-11.46,3.06-18.41,5.14-8.46,2.54-14.01,4.76-21.38,7.82-14.96,6.21-27.03,13.45-36.19,20.99-3.94,3.24-7.41,7.81-9.75,10.33-.58.63-1.87,2.59-3.86,5.88-.99,1.62-1,3.07-1.75,4.67-.78,1.68-1.26,2.84-1.43,3.49-.61,2.34-1.32,4.16-1.53,6.46-.76,8.12-.19,16.57,1.72,25.35.43,1.96,1.98,4.38-.25,6.07-4.32,3.28-8.04,6.44-11.15,9.49-1.76,1.73-2.85,3.48-4.62,5.24-.09.09-.37.15-.64.12-.27-.02-.45-.11-.41-.21.06-.16-.1-.3-.49-.42,1.06-1.27,2.23-2.54,3.51-3.79,4.09-4.01,8.27-7.68,12.53-11,.65-.51.91-1.06.76-1.62-2.8-10.07-3.62-20.15-2.47-30.23.15-1.32.31-2.15.47-2.49.53-1.12.37-2.21.86-3.31.33-.72,1.06-2.53,2.2-5.41,2.15-5.44,6.29-10.96,12.42-16.57,8.99-8.23,21.31-15.74,36.96-22.54,5.97-2.6,13.29-5.3,21.95-8.11,9.99-3.24,21.85-6.32,35.58-9.22,24.78-5.24,51.64-8.5,80.57-9.78.71-.03,1.76-.17,2.7-.18,1.31,0,3.95-.07,7.94-.2,24.08-.8,78.64,18.24,103.06,18.09,4.45-.02,8-.09,10.63-.2,4.85-.19,9.01-.13,14.19-.33,14.92-.58,40.12,35.94,54.04,34.4,7.3-.8,15.48-2.18,21.01-3.07.13-.02.26-.05.39-.07,2.93-.65,5.52-.82,7.76-.49,3.37.49,5.5,1.47,6.39,2.94.52.85.91,2.25,1.18,4.2.51,3.74.34,7.31-.51,10.7-.42,1.69.09,3.47-.68,4.99-.73,1.45-.43,2.89-1.15,4.46-.03.06-.2.65-.51,1.78-2.07,7.38-4.73,13.87-7.99,19.48-2.03,3.48-4.98,7.16-8.59,10.62-12.37,11.86-41.59-15.13-66.08-5.8-2.09.79-5.58,2.02-10.47,3.68-20.76,7.05-45.37,12.64-71.52,16.52-7.97,1.19-46.3-16.37-55.43-15.46-.23.02-1.42.11-3.59.27-.94.07-2.13.17-3.57.3-12.27,1.1-24.74,1.85-37.4,2.25-6.85.22-10.75.31-11.72.26-.19-.01-2.34.06-6.45.2-1.64.06-3.82.09-6.53.1-19.97.07-33.27.04-39.89-.08-14.69-.27-24.72-.34-30.07-.21-2.74.07-4.73.29-7.01.36-.33.01-.66.04-.96.09-2.43.37-3.76.59-4,.67-3.32,1.02-6.01,2.29-8.08,3.8-2.35,1.72-4.26,3.44-5.72,5.16-3.27,3.84-5.6,7.43-6.98,10.76-.37.89-.88,2.32-1.53,4.29-.53,1.6-.84,2.77-.93,3.49-.04.3-.27,1.47-.7,3.49-.47,2.21-.54,5.83-.21,10.86.05.74.25,1.51.6,2.3.47,1.05,0,2.15.82,3.08.27.32.44.96.49,1.93.02.36.22,1,.59,1.92,2.3,5.71,4.24,10.18,5.82,13.42,4.64,9.54,7.48,15.7,8.51,18.47.89,2.36,1.47,4.05,1.75,5.07.87,3.18,1.42,5.09,1.63,5.73.5,1.52.75,2.63.76,3.32.03,1.5.75,2.77.89,4.43.67,7.58.61,13.35-.2,17.31-.51,2.49-.78,4.24-.82,5.26h0Z"/>
      <path class="cls-17" d="M471.75,234.78l-.6,1.08c.35.1.49.21.41.31l-4.8,2.52-10.41,5.34c-.15.08-.49.03-.45-.06l4.78-10.62s.02-.05.02-.08c.01-1.04.36-2.06,1.03-3.05.11-.16.16-.31.16-.47v-16.41c0-.28-.1-.57-.3-.84-.25-.35-.42-.69-.49-1.04-1.45-7.03-3.73-14.29-7.31-22.12-2.74-5.99-4.82-10.4-6.24-13.22-2.25-4.49-3.82-7.96-4.73-10.41-.17-.45-1.04-3.03-2.62-7.72-1.08-3.22-1.64-5.79-1.69-7.74-.09-3.73.09-6.48.53-8.26.28-1.15.61-2.55.99-4.2,1.16-5.11,3.38-10.34,6.67-15.68,2.05-3.31,4.83-6.3,8.34-8.93,5.98-4.48,14.69-7.38,29.4-7.55,7.13-.08,22.83-.08,47.11,0,10.05.03,20.57-.07,31-.06,2.45,0,10.11-.22,22.98-.68,10.7-.38,17.52-1.03,30.25-2.01,12.31-.94,53.87,16.21,65.13,14.24,5.39-.94,11.09-1.74,16.9-2.88,5.47-1.07,10.22-2.05,14.26-2.94,7.44-1.63,15-3.62,22.67-5.99,14.14-4.35,27.82-9.33,39.06-14.92,5.74-2.86,9.58-4.85,11.53-5.97,14.51-8.37,36.29,20.04,42.05,10.42,2.17-3.63,3.65-6.56,4.42-8.77,1.4-4.03,2.37-5.79,2.51-7.98.04-.7.32-1.42.83-2.15.08-.11.12-.23.13-.35.08-.8-.04-1.3.39-2.12.47-.87.68-1.84.63-2.92-.07-1.67,1.1-3.15,1.01-4.86-.12-2.2,1.14-5.08.74-7.28-.19-1.06-.58-2.48-1.16-4.23-.12-.38-1.19-.62-2.2-.5-5.15.62-10.05,1.51-15.14,2.13-19.09,2.32-49.24-33.98-68.89-33.73-14.8.19-33.52.32-56.16.4-13.12.05-57.4-18.22-69.14-17.78-19.85.74-38.93,2.55-57.26,5.43-16.45,2.59-31.19,5.68-44.22,9.25-14.02,3.85-27.21,8.67-39.58,14.46-8.75,4.1-17.02,9.19-24.8,15.26-4.01,3.13-7.37,6.45-10.07,9.94-2.18,2.84-4.09,6.3-5.73,10.39-1.45,3.62-2.27,6.64-2.44,9.04-.1,1.43-.19,2.58-.27,3.45-.19,2.28-.29,3.43-.29,3.44.07,2.86.3,6.8.67,11.83.04.62.26,1.23.66,1.83.05.08.14.14.27.19.17.06.33.1.49.11l.21.28c.07.1.44.12.58.03,1.12-.7,3.04-1.97,5.75-3.8,1.21-.82,4.2-2.74,8.95-5.75,6.96-4.41,17.92-10.24,22.96-13.21,2.49-1.47,6.41-2.93,8.68-4.48.16-.11.07-.25-.21-.32-.28-.07-.67-.06-.92.03-.41.15-.85.24-1.34.29-.66.06-1.12-.23-.63-.4,1.65-.57,2.29-1.13,1.91-1.68,5.55-4.1,10.76-8.25,15.65-12.46,3.54-3.05,6.84-6.67,10.43-10.01.05.71-.24,1.4-.88,2.06-4.42,4.59-8.01,8.2-10.77,10.84-.06.05.09.1.24.08l5.52-.83c.25-.04.49.05.38.14-3.8,2.96-9.02,6.22-12.08,8.42-.2.15-1.14.58-2.83,1.3-.04.02-.04.04.01.06l.19.07c.12.04.3.04.42,0,1.79-.57,4.3-1.5,5.91-2.26,3.07-1.46,6.52-3,10.36-4.61,1.37-.58,4.85-2.11,10.43-4.59,15.19-6.75,32.42-12.78,51.7-18.1l8.95-2.34c10.39-2.42,18.13-4.18,23.24-5.28,29.23-6.25,89.52,7.62,121.3,4.38,4.1-.42,13.18-1.27,27.24-2.56l13.57-1.14c.11-.01.23.01.26.05.03.04-.03.07-.14.09l-4,.66c-21.86,1.99-42.52,4.43-61.99,7.32-11.51,1.71-53.12-14.81-65.27-12.36l-3.3.56c-5.76,1.22-11.53,2.41-17.3,3.57-8.23,1.66-18.65,4.33-31.25,8.03-8.47,2.48-17.07,5.3-25.78,8.45-.09.03-.09.09,0,.12h0c.1.04.26.04.37.01,3.84-1.18,7.95-2.42,12.32-3.73.42-.12.85-.16,1.29-.1.19.02.15.11-.11.25-8.62,2.55-16.65,5.23-24.1,8.04-3.71.63-6.64,1.62-8.81,2.98-.16.1-.35.2-.58.28-3.75,1.37-7.31,2.8-10.66,4.29-1.87.84-5.35,2.29-10.42,4.37-11.55,4.72-22.13,9.72-31.74,14.97-.09-.09-.15-.14-.17-.14-.2-.02-.42,0-.54.06-15.01,7.84-27.86,15.98-38.53,24.41-1.27,1-3.75,3.07-7.46,6.2-5.43,4.58-10.45,9.68-14.9,13.88-.93.88-2.22,2.44-3.87,4.69-.84,1.15-2.07,1.74-5.41,1.64-.35-.01-.68-.06-.95-.14-.72-.21-1.5-.61-2.33-1.22-2.79-2.03-6.35-4.65-10.66-7.86-1.49-1.1-3.47-2.39-5.16-3.56-5.37-3.72-10-6.71-13.9-8.98-3.88-2.25-10.06-5.64-18.53-10.15-5.18-2.76-12.31-5.84-17.89-8.57-.84-.41-1.31-.49-1.41-.22-4.93-2.07-9.86-4.14-14.79-6.21-12.62-5.31-25.96-10.38-40.01-15.2-1.93-.66-5.64-1.66-11.15-2.98-1.42-.6-2.35-.84-2.78-.7l-6.72-2.3c.37.02.64.02.8,0,.33-.04.42-.19.16-.27-16-4.91-79.82,31.58-97.81,28.07-13.54-2.64-26.66-4.94-39.37-6.9-.23-.04-.2-.16.05-.17.81-.06,1.6-.02,2.36.09,6.16.96,13.72,1.78,19.23,2.57,12.07,1.74,71.26-36.91,83.94-34.56,1.31.24,6.09,1.24,14.36,2.99,4.33.92,8.56,1.9,12.68,2.96,11.28,2.89,16.62,4.3,26.18,7.11,8.72,2.56,15.37,5.12,24.68,8.38,2.94,1.03,5.05,1.81,6.32,2.34,5.41,2.27,9.83,3.92,15.2,6.31,9.41,4.18,14.13,6.27,14.17,6.29,9.59,4.32,20.12,9.46,31.59,15.41.15.07.27.16.37.24.79.67,1.87,1.22,3.24,1.65,1.05-.14,1.43-.36,1.13-.67-.04-.04-.05-.07-.04-.11.38-1.25.91-2.41,1.58-3.49.44-.69.67-1.82.69-3.36.04-3.64-.02-5.84-.18-6.58-1.79-8.39-8.47-16.61-20.04-24.67-2.09-1.46-4.85-3.1-8.26-4.93-.1-.05-.28-.07-.44-.05-.16.02-.24.09-.2.15.13.18.52.49,1.18.91.05.04.09.07.1.11.02.05-.03.11-.14.18-.14.09-.5.07-.58-.02-.09-.1-.27-.14-.55-.14l-1.65-1.37c-.58-.3-.99-.63-1.23-.99.23.02.48.02.75.01.25-.01.38-.11.25-.19-9.85-5.78-22.87-10.38-38.62-14.73-10.31-2.84-20.84-5.23-31.59-7.17-5.82-1.04-14.28-2.61-20.34-3.53-14.85-2.24-26.05-3.74-33.6-4.5-12.01-1.21-69.96,38.53-80.21,37.83-4.01-.27-11.62-.71-22.81-1.31-3.88-.21-6.84-.33-8.87-.36-7.32-.13-13.95-.48-22.2-.71-12.65-.37-38.79,23.35-46.69,22.96-6.83-.33-19.42-1.22-37.78-2.65-2.68-.21-4.18.14-4.49,1.05-1.61,4.65-1.22,9.52,1.18,14.63,4.12,8.76,10.87,17.42,20.26,25.99,1.05.95,5.26,4.17,12.65,9.66,5.01,3.71,25.27-18.05,32.66-13.78,7.54,4.35,15.92,7.85,26.65,11.82,15.4,5.7,34.61,10.49,54.37,13.87,5.84.99,11.31,1.74,16.41,2.24,14.43,1.42,76.39-38.28,92.23-37.69,3.78.14,6.31.21,7.59.21,6.35,0,12.09.3,18.95.35,9.7.07,16.04.24,22.36-.09-1.57.01-3.12-.02-4.66-.08,9.77-.14,19.53-.13,29.29.01.2,0,.3.03.3.09l-.91.09c-.18.02-.29.08-.26.14.02.06.18.11.36.11,6.39-.02,12.81.21,19.24.68,8.43.62,15.35,2.1,20.78,4.42,3.15,1.35,5.4,2.39,6.76,3.12.29.15,1.92,1.1,4.89,2.84,1.4.82,2.88,1.79,4.45,2.92,5.89,4.24,10.75,9.55,14.57,15.92,4.42,7.36,7.73,13.35,9.94,17.96,3.63,7.57,6.36,15.63,8.18,24.2,1.1,5.15,1.48,11.09,1.13,17.82-.07,1.54-.22,2.84-.45,3.88-.6,2.82-.5,4.34-1.3,6.8-.3.92-.58,1.89-.85,2.9-2.02,7.64-6.07,15.78-12.14,24.4-1.61,2.29-2.47,3.52-2.57,3.69-.07.11-.32.2-.63.21l-6.68.29c-1.34-.09-2.01-.28-2-.58.01-.61.38-1.47,1.09-2.6.77-1.21,1.26-2.07,1.47-2.58.69-1.69,1.27-3.25,1.76-4.68.36-1.06,1.58-2.87,3.67-5.43,1.63-2.68,2.83-5,3.59-6.94,1.21-3.07,2.33-6.76,3.38-11.07.91-3.75,1.35-7.46,1.33-11.11-.02-4.37-.31-8.36-.86-11.99-.44-2.93-1.3-6.31-2.57-10.14-1.78-5.36-3.36-10.05-5.86-15.02-.92-1.82-1.71-3.46-2.37-4.91-3.27-7.24-6.5-12.96-9.69-17.19-.83-1.11-1.17-1.72-2.1-2.61-.85-.82-2.38-2.37-4.57-4.66-.39-.41-1.62-1.48-3.69-3.2-4.13-3.45-9.18-6.53-15.17-9.26-2.34-1.06-5.7-2.04-10.08-2.94-2.13-.44-4.85-.75-8.14-.93-5.03-.27-7.86-.41-8.5-.41-13.82-.07-26.65-.16-38.5-.26-2.54-.02-5.57.11-8.32.04-7.4-.2-15.35-.13-23.16-.35-2.07-.06-4.24-.1-6.51-.12-4.28-.04-13.13-.46-26.55-1.25-13.85-.82-74.02,38.53-86.85,36.67-4.33-.63-7.47-1.12-9.42-1.47-4.31-.77-9.32-1.77-15.05-3.02-19.14-4.15-36.16-9.83-49.37-15.99-8.84-4.13-31.26,16.6-35.53,13.99-7-4.28-12.35-7.84-16.06-10.68-7.83-6-14.59-12.4-20.29-19.2-6.99-8.35-10.96-17.12-11.07-25.67-.03-2.3.59-4.38,1.97-6.57.91-1.43,4.42-2.72,8.99-2.44,5.09.31,14.11.89,27.06,1.72,7.5.48,29.53-23.41,38.14-23.02,2.9.13,7.22.28,12.96.45,14.57.44,26.69.9,36.38,1.37,5.95.3,11.02.52,15.19.68,5.44.21,10.67.51,15.7.88,8.54.64,17.82,1.41,27.84,2.31,8.02.72,62.72-39.11,70.46-38.09,7.1.93,14.74,2.04,22.91,3.33,5.58.88,12.44,2.1,20.57,3.67,4.62.89,8.5,1.7,11.64,2.42,10.77,2.47,20.46,5.06,29.07,7.76,8.6,2.7,15.87,5.42,21.82,8.16,7.17,3.31,12.95,6.45,17.32,9.42,4.46,3.03,7.29,5.11,8.48,6.24,6.99,6.62,12.06,13.53,13.97,20.6,1.2,4.46,1.12,7.73.98,12.36-.07,2-1.05,3.96-1.42,6.06-.21,1.23-.78,2.54-1.69,3.92-.2.29-.13.7.21,1.23.04.06.28.18.62.31.21.08.62.36,1.23.82,3.79,2.91,6.73,5.33,8.82,7.25.18.16.37.27.57.33.26.07.38.19.3.3-.22.3.02.64.73,1,.25.13.58.19.98.17.42-.02.68-.12.79-.3l.55-.09c.39.12.55.26.49.42-.04.1.14.19.41.21.27.02.55-.03.64-.12,1.77-1.76,2.86-3.51,4.62-5.24,3.11-3.05,6.83-6.21,11.15-9.49,2.23-1.69.68-4.11.25-6.07-1.91-8.78-2.48-17.23-1.72-25.35.21-2.3.92-4.12,1.53-6.46.17-.65.65-1.82,1.43-3.49.75-1.6.76-3.05,1.75-4.67,1.99-3.29,3.28-5.26,3.86-5.88,2.34-2.52,5.81-7.09,9.75-10.33,9.16-7.54,21.23-14.78,36.19-20.99,7.37-3.06,12.92-5.28,21.38-7.82,6.95-2.08,13.08-3.8,18.41-5.14,2.12-.53,5.82-1.4,11.1-2.59,4.27-.96,8.08-1.76,11.43-2.39,15.93-2.97,32.44-5.22,49.53-6.73,4.45-.4,9.41-.73,14.86-1.01,7.52-.39,12.53-.62,15.02-.7,5.53-.17,43.56,18.26,54.53,18.07,5.26-.09,13.53-.1,24.81-.02,13.95.1,29.45-.07,46.5-.5,7.32-.19,13.83-.46,19.52-.81,10.45-.65,27.69,36.46,30.14,36.19,8.95-.99,14.76-1.66,17.45-2.01,4.16-.54,9.54-1.41,16.13-2.6.29-.05.6-.09.92-.11,5.67-.37,8.97.44,9.91,2.44.86,1.83,1.25,3.88,1.17,6.17-.1,2.9-.2,5.43-.29,7.59-.05,1.34-.25,2.39-.59,3.15-.62,1.4-.11,2.68-.62,4.2-.29.9-1.29,4.05-2.99,9.45-1.85,5.9-4.04,10.86-6.57,14.9-1.73,2.75-3.18,5.05-5.23,7.32-11.47,12.71-42.28-12.93-67.77-3.11-11.11,4.28-22.85,7.99-35.23,11.12-12.85,3.25-26.43,6.05-40.76,8.41-5.83.96-41.9-16.9-48.07-16.06-2.52.34-5,.65-7.44.92-13.73,1.51-28.25,2.53-43.58,3.08-2.37.08-6.92.25-13.66.48-4.71.17-9.26.26-13.67.29-17.25.11-37.01.08-59.3-.09-4.15-.03-9.09-.45-13.19-.19-2.51.16-5.12.26-7.83.32-.15,0-.3.01-.44.04l-6.37.95c-.06.01-.12.02-.17.04-6.07,1.85-9.8,4.59-12.47,7.29-4.47,4.54-7.65,9.34-9.52,14.4-2.33,6.3-3.21,12.68-2.64,19.13.15,1.7.51,3.6,1.1,5.7.94,3.35,1.34,5.22,2.36,7.59,2.71,6.33,5.46,12.36,8.27,18.09,3.06,6.25,5.02,10.65,5.88,13.21,1.43,4.21,2.6,8.65,3.51,13.32,1.02,5.18,1.47,11.17.6,16.81-.3,1.95-.46,3.76-.47,5.45,0,1.53-.89,2.73-.46,4.05.02.07.2.13.41.13h.29c.1,0,.17-.02.18-.06.03-.25.28-.45.77-.6h0Z"/>
      <path class="cls-29" d="M466.76,238.68c-1.81,1.7-5.33,3.16-8.3,4.62-.84.41-1.55.85-2.12,1.31l-3.82,3.1c1.67-2.5,3.05-5.02,4.14-7.56.79-1.86,1.53-3.71,2.21-5.55,1.23-3.39,1.86-6.77,1.88-10.15.01-2.31.05-4.63.13-6.94.03-.69-.24-1.25-.79-1.68-.09-3.69-.64-7.23-1.67-10.6-3.09-10.11-7.25-18.94-12.94-30.61-1.89-3.88-3.32-7.13-4.29-9.73-1.8-4.87-2.88-8.13-3.23-9.77-1.09-5.03-1.02-10.31.19-15.84,1.45-6.59,4.26-12.95,8.43-19.06,1.07-1.57,2.73-3.15,4.39-4.69,2.09-2.03,4.84-3.93,8.23-5.7,6.65-3.48,17.35-4.72,28.9-4.8,7.83-.05,19.32,0,34.48.16,15.78.16,32.44-.05,45.06-.19,4.59-.05,9.26-.33,13.77-.4,2.33-.03,5.76-.17,10.31-.42,14.74-.8,27.09-1.76,37.06-2.87,26.74-2.99,83.49,10.52,105.3,3.89,18.03-5.48,33.37-11.63,46.03-18.46,6.2-3.34,22.26,30.95,26.62,27.73,8.38-6.18,15.56-12.76,19.68-19.99,3.29-5.81,5.63-11.69,7.02-17.62,1.2-4.53,2.16-9.07,2.89-13.62.48-3.01.3-6.07-.55-9.19-.02-.09-.28-.14-.5-.1-13.02,2.2-37.35-33.79-51.43-32.84-8.83.6-16.4.99-22.71,1.17-4.71.14-12.88.26-24.49.38-15.93.16-38.91-.03-57.94.45-12.51.32-49.41-18.1-51.15-18.04-26.93.95-52.31,3.76-76.15,8.42-12.41,2.43-24.98,5.34-35.47,8.73-8.19,2.65-15.41,5.25-21.68,7.8-14.25,5.81-26.02,12.83-34.67,19.96-9.29,7.66-14.1,16.04-16.15,24.28-.47,1.92-.92,3.85-1.34,5.77-.59,5.82-.52,10.84.2,15.06.38,2.23.54,3.62.49,4.19-.16-.01-.32-.05-.49-.11-.13-.05-.22-.11-.27-.19-.4-.6-.62-1.21-.66-1.83-.37-5.02-.6-8.97-.67-11.83,0-.01.1-1.15.29-3.44.08-.87.17-2.02.27-3.45.17-2.4.99-5.41,2.44-9.04,1.64-4.09,3.55-7.55,5.73-10.39,2.7-3.5,6.06-6.81,10.07-9.94,7.78-6.08,16.05-11.17,24.8-15.26,12.37-5.79,25.56-10.61,39.58-14.46,13.03-3.58,27.77-6.67,44.22-9.25,18.33-2.88,37.41-4.69,57.26-5.43,11.74-.44,56.02,17.83,69.14,17.78,22.64-.08,41.36-.21,56.16-.4,19.65-.25,49.8,36.05,68.89,33.73,5.09-.62,9.99-1.51,15.14-2.13,1.01-.12,2.08.12,2.2.5.58,1.76.97,3.17,1.16,4.23.4,2.2-.86,5.08-.74,7.28.09,1.71-1.08,3.18-1.01,4.86.05,1.08-.16,2.05-.63,2.92-.43.82-.31,1.32-.39,2.12,0,.12-.05.23-.13.35-.51.73-.79,1.45-.83,2.15-.14,2.19-1.11,3.96-2.51,7.98-.77,2.22-2.25,5.15-4.42,8.77-5.76,9.62-27.54-18.79-42.05-10.42-1.95,1.12-5.79,3.11-11.53,5.97-11.24,5.59-24.92,10.58-39.06,14.92-7.67,2.36-15.23,4.36-22.67,5.99-4.04.89-8.79,1.87-14.26,2.94-5.81,1.14-11.51,1.94-16.9,2.88-11.26,1.97-52.82-15.18-65.13-14.24-12.73.98-19.55,1.63-30.25,2.01-12.87.46-20.53.69-22.98.68-10.43-.01-20.95.09-31,.06-24.28-.08-39.98-.09-47.11,0-14.71.17-23.42,3.07-29.4,7.55-3.51,2.64-6.29,5.62-8.34,8.93-3.29,5.34-5.51,10.56-6.67,15.68-.38,1.65-.71,3.05-.99,4.2-.44,1.78-.62,4.54-.53,8.26.05,1.95.61,4.53,1.69,7.74,1.58,4.69,2.45,7.26,2.62,7.72.91,2.46,2.48,5.93,4.73,10.41,1.42,2.82,3.5,7.22,6.24,13.22,3.58,7.84,5.86,15.09,7.31,22.12.07.35.24.7.49,1.04.2.27.3.55.3.84v16.41c0,.16-.05.32-.16.47-.67.99-1.02,2.01-1.03,3.05,0,.02-.01.05-.02.08l-4.78,10.62c-.04.09.3.14.45.06l10.41-5.34h0Z"/>
      <path class="cls-26" d="M833.44,76.86c-.18,0-.31.01-.38.05-.17.08-.52.04-.53-.06-.2-1.89.66-3.76,1-5.58.41-2.17,1.1-6.07,2.05-11.72.3-1.78-.12-3.21-.76-4.77-.07-.17-.57-.26-1-.19-9.78,1.59-19.83,2.84-30.16,3.76-8.73.78-28.13-36.2-36.65-35.79-5.03.24-13.8.41-26.31.49-18.98.12-38.17.26-57.57.42-3.15.02-5.64.15-7.47.36-.33.04-.64.09-.93.16-5.92,1.43-40.94-16.05-45.51-15.23-15.39,2.73-32.14,6.76-43.61,9.89-4.79,1.31-13.57,3.76-26.34,7.35-3.66,1.03-7.96,1.87-11.58,2.97-.32.1-.8,0-.75-.14.71-2.13,3.58-3.34,7.84-5.45,1.54-.77,3.74-1.68,6.6-2.75,3.26-1.22,6.49-2.6,9.68-4.13.3-.15.6-.31.91-.49.07-.04.04-.09-.07-.12h-.01c-.1-.02-.23-.02-.31.01-4.07,1.68-9.06,2.88-14.99,4.42-2.09.54-8.79,2.67-20.12,6.37-3.29,1.08-6.4,2.25-9.31,3.52-6.06,2.65-13.54,5.75-18.27,7.58-2.89,1.12-5.62,2.11-8.21,2.97-.12.04-.3.04-.43,0-.13-.04-.16-.1-.07-.15,1.5-.84,2.79-1.71,3.88-2.6,1.79-1.48,2.94-2.37,3.43-2.69,2.3-1.48,4.36-3.44,7.38-5.12,1.57-.88,2.79-1.54,3.66-1.98.14-.07.1-.17-.1-.22h-.02c-.14-.04-.34-.04-.46.01-4.83,1.87-7.43,3.02-12.72,4.84-5.83,2-10.22,3.72-13.18,5.18-5.69,2.8-9.51,4.55-14.47,7.29-3.45,1.9-6.99,3.61-10.63,5.15-1.52.64-3.59,1.27-6.21,1.9-.11.02-.26.08-.43.16-.19.09-.3.14-.33.16-.2.09-.48.16-.8.18-1.11.09-1.89.34-2.36.77-2.07,1.89-3.79,3.83-5.17,5.82-2.69,3.88-4.73,7.76-6.12,11.62-.43,1.19-.72,1.84-.87,1.93-.14.09-.2.19-.18.28.15.9-.1,2.06-.74,3.48-.43.94-.3,1.96.39,3.06-1.02.37-1.7.44-2.03.22.42-1.93.87-3.85,1.34-5.77,2.05-8.24,6.86-16.62,16.15-24.28,8.65-7.13,20.42-14.14,34.67-19.96,6.27-2.56,13.49-5.16,21.68-7.8,10.49-3.39,23.06-6.3,35.47-8.73,23.84-4.66,49.22-7.47,76.15-8.42,1.74-.06,38.64,18.36,51.15,18.04,19.03-.48,42.01-.28,57.94-.45,11.61-.12,19.78-.25,24.49-.38,6.31-.18,13.88-.57,22.71-1.17,14.08-.96,38.41,35.04,51.43,32.84.22-.04.48.02.5.1.85,3.12,1.03,6.18.55,9.19-.73,4.55-1.69,9.08-2.89,13.62h0Z"/>
      <path class="cls-25" d="M833.44,76.86c-1.39,5.93-3.73,11.81-7.02,17.62-.44.05-.74.15-.9.3-.05.05-.19.07-.33.06h-.01c-.13-.02-.2-.07-.16-.11.55-.58,1.01-1.37,1.4-2.36.64-1.63,2.18-4.17,2.83-6.07,1.09-3.22,1.88-5.5,2.35-6.86.02-.05.02-.09.01-.14-.11-.52.18-1.02.87-1.51.16-.11,0-.25-.34-.29h-.03c-.34-.05-.71.01-.86.12-1.95,1.53-3.99,3.02-6.12,4.45-11.14,7.49-34.89-20-48.85-11.5-7.2,4.38-15.93,8.44-24.72,12.24-.29.13-.39.23-.3.31l-4.92,1.96c-.14.01-.31.06-.51.14-.33.05-.58.15-.77.27-.71.17-1.38.37-2,.6-17.29,6.31-36.76,11.54-58.42,15.71-2.57.49-39.16-16.96-50.21-15.14-7.27,1.19-14.33,2.13-21.2,2.8-11.62,1.14-22.56,2.12-32.81,2.92-2.43.19-5.48.33-9.16.43-.36.01-3.41.15-9.16.41-12.66.58-25.97.36-39.92-.65-5.59-.41-9.71-1.46-12.35-3.17-4.99-3.22,9.13-6.54,15.74-7.46,8.31-1.16,16.64-2.13,24.99-2.93.22-.02.37-.1.35-.18-.02-.08-.2-.14-.43-.15-2.71-.08-5.61.18-8.28.35-12.33.82-22.21,1.61-29.64,2.36-5.23.53-10.64.73-15.42.75-.25,0-.45-.08-.42-.17.48-1.28,2.64-2.62,4.13-3.75.75-.57,1.82-1.22,3.22-1.95,5.61-2.92,12.15-6.06,18.87-8.09,13.99-4.21,29.25-7.8,45.77-10.77,7.11-1.28,13.55-2.4,19.31-3.35,8.15-1.36,16.18-2.42,24.65-3.07,5.62-.43,10.92-.89,16.44-1.2,6.92-.38,46.73,17.67,59.88,16.95,1.4-.08,2.65-.18,3.75-.31.23-.02.36-.11.3-.19h0c-.05-.07-.23-.11-.41-.11-4.86.21-8.03.29-9.52.24-4.42-.16-38.34-18.79-42.19-18.67-9.42.3-17.44.46-26.28.99-7.18.42-13.09.8-17.74,1.15-15.91,1.17-31.23,3.42-45.72,6.06-2.54.46-5.2,1.01-7.98,1.64-.2.05-.47.04-.64-.03-.16-.06-.17-.16-.02-.23l6.17-2.83c7.45-2.82,15.48-5.5,24.1-8.04,13.99-3.16,20.84-5.12,38.07-9.8.07-.02,3.46-.99,10.16-2.92,3.29-.95,6.77-1.88,10.44-2.8,1.03-.26,1.62-.62,1.79-1.09l3.3-.56c-.06.08-.09.15-.08.2.02.11.34.17.6.12,13.09-2.61,54.89,13.91,65.83,12.36,7.22-1.02,16.01-2.2,26.36-3.52,1.79-.23,7.59-.88,17.38-1.94,5.81-.63,11.53-1.35,17.17-2.17l4-.66c.11-.02.17-.06.14-.09-.03-.04-.15-.06-.26-.05l-13.57,1.14c.2-.09.3-.15.31-.17.02-.12-.31-.22-.65-.19-11.28.94-21.73,1.93-31.36,2.96-30.48,3.29-88.94-10.82-115.81-5.12-7.95,1.69-16.28,3.57-24.99,5.65-.31.07-.22.24.14.27l.58.05-8.95,2.34c-1.47,0-2.62.1-3.44.28-11.91,2.65-25.03,5.84-39.38,9.55-5.13,1.33-10.26,2.89-15.37,4.68-.15.05-.4,0-.32-.07,1.57-1.44,2.15-3.08,3.73-4.81,6.37-6.98,9.95-11.12,10.76-12.42,2.31-3.74,3.84-6.21,4.58-7.4.07-.11-.29-.19-.53-.11-.47.15-.75.27-.86.38-1.37,1.37-3.16,2.83-4.28,4.03-4.19,4.48-8.68,8.92-13.49,13.31-3.59,3.33-6.89,6.96-10.43,10.01-4.89,4.21-10.1,8.36-15.65,12.46-1.45,1.35-4.05,2.3-7.82,2.87-12.72,1.9-24.98,4.13-36.78,6.69-.69-1.1-.82-2.12-.39-3.06.64-1.42.89-2.58.74-3.48-.02-.1.04-.2.18-.28.15-.09.44-.73.87-1.93,1.39-3.86,3.43-7.74,6.12-11.62,1.38-1.99,3.1-3.93,5.17-5.82.47-.43,1.25-.69,2.36-.77.32-.02.6-.09.8-.18.03-.01.14-.07.33-.16.17-.08.32-.14.43-.16,2.62-.63,4.69-1.26,6.21-1.9,3.64-1.53,7.18-3.25,10.63-5.15,4.96-2.74,8.78-4.49,14.47-7.29,2.96-1.46,7.35-3.18,13.18-5.18,5.29-1.81,7.89-2.96,12.72-4.84.12-.05.32-.05.46-.01h.02c.2.06.24.16.1.23-.87.45-2.09,1.11-3.66,1.98-3.02,1.68-5.08,3.64-7.38,5.12-.49.32-1.64,1.21-3.43,2.69-1.09.89-2.38,1.76-3.88,2.6-.09.05-.06.11.07.15.13.04.31.04.43,0,2.59-.86,5.32-1.85,8.21-2.97,4.73-1.83,12.21-4.94,18.27-7.58,2.91-1.27,6.02-2.45,9.31-3.52,11.33-3.71,18.03-5.83,20.12-6.37,5.93-1.54,10.92-2.75,14.99-4.42.08-.03.21-.04.31-.01h.01c.11.02.14.08.07.12-.31.18-.61.34-.91.49-3.19,1.54-6.42,2.92-9.68,4.13-2.86,1.07-5.06,1.99-6.6,2.75-4.26,2.12-7.13,3.33-7.84,5.45-.05.15.43.24.75.14,3.62-1.11,7.92-1.94,11.58-2.97,12.77-3.59,21.55-6.04,26.34-7.35,11.47-3.13,28.22-7.16,43.61-9.89,4.57-.81,39.59,16.67,45.51,15.23.29-.07.6-.12.93-.16,1.83-.22,4.32-.34,7.47-.36,19.4-.15,38.59-.29,57.57-.42,12.51-.08,21.28-.25,26.31-.49,8.52-.41,27.92,36.57,36.65,35.79,10.33-.92,20.38-2.17,30.16-3.76.43-.07.93.02,1,.19.64,1.56,1.06,3,.76,4.77-.95,5.64-1.64,9.55-2.05,11.72-.34,1.82-1.2,3.69-1,5.58.01.1.36.14.53.06.07-.03.2-.05.38-.05M604,42.24c.69.05,1.75.04,3.16-.05,16.16-.99,59.8,15.42,75.04,12.25,9.92-2.06,21.28-4.88,31.16-6.91,3.67-.75,12.23-2.62,25.69-5.59,5.2-1.15,9.56-2.26,14.9-3.25.79-.15,1.44-.33,1.95-.57.19-.09-.08-.21-.37-.16-4.62.72-8.48,1.22-13.86,1.67-18.49,1.56-36.44,3.9-53.85,7.03-3.25.59-5.83,1.1-7.72,1.53-13.59,3.1-56.88-12-70.29-8.1-1.99.58-3.97,1.25-5.94,2.01-.13.05-.06.13.13.15h0Z"/>
      <path class="cls-22" d="M763.82,34.28c-5.64.82-11.36,1.55-17.17,2.17-9.79,1.06-15.59,1.71-17.38,1.94-10.35,1.32-19.14,2.5-26.36,3.52-10.94,1.55-52.74-14.97-65.83-12.36-.26.05-.58-.01-.6-.12-.01-.05.02-.12.08-.2,12.15-2.45,53.76,14.07,65.27,12.36,19.47-2.89,40.13-5.33,61.99-7.32h0Z"/>
      <path class="cls-22" d="M754.13,34.61c-14.06,1.29-23.14,2.14-27.24,2.56-31.78,3.24-92.07-10.62-121.3-4.38-5.11,1.09-12.85,2.85-23.24,5.28l-.58-.05c-.36-.03-.45-.2-.14-.27,8.71-2.08,17.04-3.96,24.99-5.65,26.87-5.71,85.33,8.4,115.81,5.12,9.63-1.04,20.08-2.03,31.36-2.96.34-.03.67.07.65.19-.01.02-.11.07-.31.17h0Z"/>
      <path class="cls-29" d="M414,124.56c-.11.18-.37.28-.79.3-.4.02-.73-.04-.98-.17-.71-.36-.95-.7-.73-1,.08-.11-.04-.23-.3-.3-.2-.06-.39-.17-.57-.33-2.09-1.93-5.03-4.34-8.82-7.25-.61-.47-1.02-.74-1.23-.82-.34-.13-.58-.25-.62-.31-.34-.53-.41-.94-.21-1.23.91-1.38,1.48-2.69,1.69-3.92.37-2.1,1.35-4.06,1.42-6.06.14-4.62.22-7.89-.98-12.36-1.91-7.07-6.98-13.98-13.97-20.6-1.19-1.13-4.02-3.21-8.48-6.24-4.37-2.97-10.15-6.1-17.32-9.42-5.95-2.75-13.22-5.47-21.82-8.16-8.61-2.7-18.3-5.29-29.07-7.76-3.14-.72-7.02-1.52-11.64-2.42-8.13-1.57-14.99-2.79-20.57-3.67-8.17-1.29-15.81-2.4-22.91-3.33-7.74-1.01-62.44,38.81-70.46,38.09-10.02-.9-19.3-1.67-27.84-2.31-5.03-.37-10.26-.67-15.7-.88-4.17-.16-9.24-.38-15.19-.68-9.69-.47-21.81-.93-36.38-1.37-5.74-.17-10.06-.32-12.96-.45-8.61-.38-30.64,23.51-38.14,23.02-12.95-.84-21.97-1.41-27.06-1.72-4.57-.28-8.08,1.01-8.99,2.44-1.38,2.19-2,4.28-1.97,6.57.11,8.55,4.08,17.32,11.07,25.67,5.7,6.8,12.46,13.2,20.29,19.2,3.71,2.84,9.06,6.4,16.06,10.68,4.27,2.61,26.69-18.11,35.53-13.99,13.21,6.16,30.23,11.84,49.37,15.99,5.73,1.24,10.74,2.25,15.05,3.02,1.95.35,5.09.84,9.42,1.47,12.83,1.86,73-37.49,86.85-36.67,13.42.79,22.27,1.21,26.55,1.25,2.27.02,4.44.06,6.51.12,7.81.22,15.76.15,23.16.35,2.75.07,5.78-.06,8.32-.04,11.85.1,24.68.19,38.5.26.64,0,3.47.14,8.5.41,3.29.18,6.01.49,8.14.93,4.38.9,7.74,1.88,10.08,2.94,5.99,2.72,11.04,5.81,15.17,9.26,2.07,1.72,3.3,2.79,3.69,3.2,2.19,2.29,3.72,3.85,4.57,4.66.93.9,1.27,1.51,2.1,2.61,3.19,4.23,6.42,9.96,9.69,17.19.66,1.45,1.45,3.09,2.37,4.91,2.5,4.97,4.08,9.65,5.86,15.02,1.27,3.83,2.13,7.21,2.57,10.14.55,3.63.84,7.62.86,11.99.02,3.66-.42,7.36-1.33,11.11-1.05,4.3-2.17,7.99-3.38,11.07-.76,1.94-1.96,4.26-3.59,6.94l-.95.54c-.12.07-.4.06-.49-.01l-.35-.27c1.64-3.29,3.14-6.59,4.5-9.89.64-1.56.7-2.93,1.32-4.2.27-.56.86-2.84,1.77-6.85,1.14-4.97.76-9.4.67-15.02-.03-1.66-.23-3.12-.6-4.39-.57-1.97-.39-3.54-1.09-5.86-1.59-5.22-2.77-8.84-3.52-10.87-1.15-3.11-2.57-6.6-4.26-10.48-1.27-2.9-3.45-7.2-6.56-12.88-2.09-3.83-4.42-7.24-6.98-10.24-3.77-4.43-8.2-8.35-13.29-11.76-3.43-2.3-6.72-4.13-9.85-5.48-3.46-1.5-8.25-3.06-13.51-3.53-3.97-.35-9.67-.59-17.11-.71-13.4-.22-35.65.01-53.57-.3-11.55-.2-18.09-.33-19.64-.37-6.33-.17-16.28-.71-29.84-1.6-29.43-1.93-102.25,34.51-124.8,27.94-13.35-3.89-25-8.2-34.96-12.91-6.09-2.89-27.81,18.16-33.45,14.96-2.09-1.19-5.79-3.59-11.08-7.21-3.21-2.19-6.43-4.68-9.67-7.45-5.83-5-10.91-10.08-15.25-15.24-4.17-4.96-7.21-10.11-9.12-15.45-1.51-4.21-2.02-8.43-1.53-12.66.1-.87.27-1.51.5-1.93.53-1,.44-1.76,1.34-2.56.98-.87,2.87-1.63,5.66-2.3.33-.08.7-.12,1.08-.12,3.16-.04,5.22,0,6.19.08.95.09,2.59.21,4.92.36,20.8,1.33,55.11-21.86,71.2-21.38,4.54.14,9.48.43,13.42.43.72,0,1.44.03,2.14.08,2.41.19,4.97.28,7.68.27.56,0,1.13.02,1.68.07,2.09.2,4.44.29,7.05.28.55,0,1.1.02,1.64.06,1.74.14,4.09.25,7.06.34,5.82.17,15.12.68,27.89,1.51,8.19.53,65.63-39.26,78.68-37.97,10.27,1.01,20.29,2.24,30.08,3.7,10.63,1.58,20.22,3.19,28.79,4.82,19.01,3.63,35.81,7.97,50.38,13,24.53,8.49,41.12,18.69,49.76,30.6,5.47,7.53,7.93,15.14,7.4,22.82-.07,1.13-.22,2-.44,2.61-.45,1.23-.32,2.3-.72,3.49-.81,2.33-1.59,4.34-2.34,6.04-.06.12,0,.25.16.36,4.9,3.29,9.11,6.67,12.62,10.17h0Z"/>
      <path class="cls-26" d="M604,42.24c-.19-.01-.26-.1-.13-.15,1.97-.76,3.95-1.43,5.94-2.01,13.41-3.9,56.7,11.21,70.29,8.1,1.89-.43,4.47-.94,7.72-1.53,17.41-3.13,35.36-5.47,53.85-7.03,5.38-.46,9.24-.96,13.86-1.67.29-.05.56.07.37.16-.51.24-1.16.43-1.95.57-5.34.99-9.7,2.1-14.9,3.25-13.46,2.97-22.02,4.84-25.69,5.59-9.88,2.03-21.24,4.85-31.16,6.91-15.24,3.17-58.88-13.25-75.04-12.25-1.41.09-2.47.1-3.16.05h0Z"/>
      <path class="cls-23" d="M826.42,94.48c-4.12,7.22-11.3,13.81-19.68,19.99-4.36,3.22-20.42-31.07-26.62-27.73-12.66,6.83-28,12.99-46.03,18.46-21.81,6.63-78.56-6.89-105.3-3.89-9.97,1.11-22.32,2.07-37.06,2.87-4.55.25-7.98.39-10.31.42-4.51.07-9.18.35-13.77.4-12.62.13-29.28.35-45.06.19-15.16-.16-26.65-.21-34.48-.16-11.55.07-22.25,1.32-28.9,4.8-3.39,1.77-6.14,3.67-8.23,5.7.03-.2-.01-.34-.11-.44-.09-.09-.45-.09-.56,0l-3.18,2.41c-3.39,1.01-6.3,2.11-8.72,3.29-1.61.78-2.63,1.71-3.06,2.56-1.53,3.05-2.91,5.5-4.12,7.35-.57.86-1.46,1.57-2.68,2.13-3.03,1.4-4.95,2.89-4.76,4.62.13,1.19.62,2.99.44,4.24-.35,2.35-1.46,4.69-3.31,7-.79.99-.81,1.5-1.24,2.68-.03.09-.35.1-.46.03-.55-.38-.88-.81-1-1.28-.03-.11-.11-.22-.25-.32l-.67-.49c-.09-.07-.16-.14-.2-.22-1.53-2.97-3.37-5.94-5.5-8.92-.68-.95-1.45-1.83-2.3-2.66-1.65-1.6-2.53-2.47-2.65-2.62-.61-.77-1.59-1.64-2.94-2.59-.51-.36-1.56-1.21-3.16-2.54-.23-.2-.42-.35-.55-.45-1.51-1.19-3.1-2.19-4.75-3-.24-.12-.52-.13-.83-.04-.14.04-.13.09.04.13-4.54-2.58-8.84-4.66-12.9-6.25-10.43-4.07-23.87-4.53-38.66-4.76,0-.05-.1-.08-.3-.09-9.76-.15-19.52-.15-29.29-.01-17.25-.04-32.5-.28-45.74-.74-14.59-.5-76.47,39.14-92.01,37.52-5.23-.54-10.66-1.31-16.29-2.28-16.57-2.86-31.75-6.56-45.56-11.1-10.07-3.31-18.54-6.59-25.41-9.83-5.79-2.73-27.59,17.98-33.68,13.97l-13.24-10.68s0-.09.1-.12c.11-.02.25-.02.34.02.91.35,1.49.73,1.74,1.12,3.72,1.39,7.58,2.7,11.57,3.95,3.3,1.03,21.43-22.29,22.66-21.79,2.03.83,4.03,1.68,6,2.54,2.07.9,4.97,2.03,8.69,3.38,8.09,2.95,16.17,5.46,24.24,7.54.07.01.15.02.23.04,1.11.44,2.4.79,3.88,1.06.11-.02.23-.02.37.01,11.97,2.98,25.11,5.7,39.14,7.72,7.19,1.04,13.77,1.85,19.74,2.43,7.99.78,60.47-39.47,63.8-39.35,4.05.15,6.13.23,6.22.23,1.27.04,8.62.06,22.05.07,4.9,0,8.9-.16,12.01-.49,12.25-1.31,23.03-3.43,28.7-7.58,1.34-.99,1.94-2.2,1.56-3.22-.91-2.5-3.52-4.61-7.85-6.35-1.37-.87-3.13-1.66-5.27-2.36-10-3.27-21.32-5.68-33.97-7.22-9.12-1.11-16.49-1.84-22.1-2.2-7.04-.45-60.89,39.78-67.91,39.28-6.16-.41-10.27-.65-12.32-.71-5.7-.17-11.72-.37-18.06-.6-.09,0-.15-.03-.16-.06,0-.03.06-.06.15-.06,1.75-.08,2.95-.11,3.6-.08,6.08.29,14.1.24,19.91.51.6.03,4.79.13,12.57.3,13.93.31,75.04-39.6,89.69-38.32,4.29.37,11.06,1.2,17.4,1.68,1.04.07,1.91.33,2.88.43.39.04.68-.12.42-.23-3.67-1.49-7.72-3.3-12.16-5.43-1.29-.62-2.09-1.05-2.4-1.29,5.51,1.32,9.22,2.32,11.15,2.98,14.05,4.83,27.39,9.89,40.01,15.2,4.93,2.08,9.86,4.14,14.79,6.21,5.08,2.39,10.16,4.77,15.25,7.14,2.51,1.17,8.85,4.59,19.01,10.27,4.31,2.41,9.29,5.55,12.09,7.49,3.55,2.45,10.03,7.17,19.46,14.16.98.72,2.14,1.36,3.48,1.91.49.2,1.24.3,1.99.26,4.23-.24,5.32-.89,6.49-2.4,2.21-2.85,4.41-5.32,6.6-7.4,3.63-3.44,5.84-5.84,8.91-8.49,6.25-5.4,10.05-8.62,11.4-9.65,10.61-8.13,22.96-15.91,37.03-23.34,9.61-5.26,20.19-10.25,31.74-14.97,5.07-2.08,8.55-3.53,10.42-4.37,3.35-1.5,6.91-2.93,10.66-4.29.23-.08.42-.17.58-.28,2.17-1.36,5.1-2.35,8.81-2.98l-6.17,2.83c-.15.07-.14.16.02.23.17.07.44.08.64.03,2.78-.63,5.44-1.18,7.98-1.64,14.49-2.63,29.81-4.89,45.72-6.06,4.65-.34,10.56-.72,17.74-1.15,8.84-.52,16.86-.69,26.28-.99,3.85-.12,37.77,18.51,42.19,18.67,1.49.05,4.66-.02,9.52-.24.18,0,.36.04.41.1h0c.06.09-.07.17-.3.2-1.1.12-2.35.23-3.75.31-13.15.72-52.96-17.33-59.88-16.95-5.52.3-10.82.76-16.44,1.2-8.47.65-16.5,1.71-24.65,3.07-5.76.96-12.2,2.08-19.31,3.35-16.52,2.97-31.78,6.56-45.77,10.77-6.72,2.02-13.26,5.16-18.87,8.09-1.4.73-2.47,1.38-3.22,1.95-1.49,1.13-3.65,2.47-4.13,3.75-.03.09.17.17.42.17,4.78-.02,10.19-.21,15.42-.75,7.43-.75,17.31-1.54,29.64-2.36,2.67-.17,5.57-.43,8.28-.35.23,0,.41.07.43.15.02.08-.13.16-.35.18-8.35.8-16.68,1.77-24.99,2.93-6.61.92-20.73,4.24-15.74,7.46,2.64,1.71,6.76,2.76,12.35,3.17,13.95,1.01,27.26,1.23,39.92.65,5.75-.26,8.8-.4,9.16-.41,3.68-.1,6.73-.24,9.16-.43,10.25-.8,21.19-1.77,32.81-2.92,6.87-.67,13.93-1.61,21.2-2.8,11.05-1.82,47.64,15.64,50.21,15.14,21.66-4.17,41.13-9.4,58.42-15.71.62-.22,1.29-.42,2-.6.49,0,.74-.09.77-.27.2-.08.37-.13.51-.14,1.94-.56,3.58-1.21,4.92-1.96-.09-.07,0-.18.3-.31,8.79-3.8,17.52-7.85,24.72-12.24,13.96-8.5,37.71,18.99,48.85,11.5,2.13-1.43,4.17-2.91,6.12-4.45.15-.11.52-.17.86-.13h.03c.34.05.5.19.34.3-.69.49-.98,1-.87,1.51.01.05.01.09-.01.14-.47,1.35-1.26,3.64-2.35,6.86-.65,1.9-2.19,4.44-2.83,6.07-.39,1-.85,1.78-1.4,2.36-.04.05.03.1.16.11h.01c.14.02.28,0,.33-.05.16-.15.46-.25.9-.3h0Z"/>
      <path class="cls-29" d="M358.85,61.44c-6.45-4.13-16.23-7.81-26.77-11.2-12.56-4.04-26.78-7.52-42.67-10.44-6.01-1.1-11.41-2.06-16.21-2.87-33.75-5.68-116.24,32.19-154.9,30.86-11.56-.4-20.51-.68-26.84-.87-19.83-.56-51.14,22.37-72.54,20.76-1.91-.15-2.93-.22-3.05-.22-1.25-.05-1.96.16-2.11.62-1.47,4.58-1.16,9.23.95,13.94,2.79,6.24,7,12.46,12.65,18.64,3.99,4.37,7.73,7.92,11.22,10.65,3.99,3.21,8.19,6.38,12.6,9.52.93.66,2.07,1.31,3.43,1.97,6.09,4.02,27.89-16.7,33.68-13.97,6.87,3.24,15.34,6.52,25.41,9.83,13.81,4.54,28.99,8.24,45.56,11.1,5.63.97,11.06,1.73,16.29,2.28,15.54,1.62,77.42-38.01,92.01-37.52,13.24.46,28.49.7,45.74.74,1.54.06,3.09.09,4.66.08-6.32.33-12.66.16-22.36.09-6.86-.05-12.6-.35-18.95-.35-1.28,0-3.81-.07-7.59-.21-15.84-.59-77.8,39.11-92.23,37.69-5.1-.5-10.57-1.25-16.41-2.24-19.76-3.37-38.97-8.17-54.37-13.87-10.73-3.97-19.11-7.47-26.65-11.82-7.39-4.27-27.65,17.5-32.66,13.78-7.39-5.49-11.6-8.71-12.65-9.66-9.39-8.56-16.14-17.22-20.26-25.99-2.4-5.11-2.79-9.98-1.18-14.63.31-.91,1.81-1.26,4.49-1.05,18.36,1.43,30.95,2.31,37.78,2.65,7.9.39,34.04-23.33,46.69-22.96,8.25.24,14.88.58,22.2.71,2.03.04,4.99.16,8.87.36,11.19.59,18.8,1.03,22.81,1.31,10.25.7,68.2-39.04,80.21-37.83,7.55.76,18.75,2.26,33.6,4.5,6.06.92,14.52,2.49,20.34,3.53,10.75,1.93,21.28,4.32,31.59,7.17,15.75,4.35,28.77,8.95,38.62,14.73.13.07,0,.17-.25.19-.27.01-.52,0-.75-.01h0Z"/>
      <path class="cls-26" d="M358.85,61.44c.24.36.65.68,1.23.99-.03.14-.1.26-.21.34-.1.08-.43.08-.52,0-.81-.71-1.79-1.39-2.96-2.04-5.69-3.17-12.46-6.04-20.31-8.61-8.11-2.65-14.64-4.6-19.59-5.84-2.17-.54-5.8-1.45-10.91-2.7-2.3-.57-4.5-1.01-6.6-1.34-.29-.05-.57-.1-.83-.16-1.54-.37-2.47-.58-2.8-.64-6.77-1.19-15.69-2.75-26.77-4.7-.56-.1-1.15.11-.88.31.09.07.35.13.79.19,2.04.26,3.49.54,4.34.83.24.08.53.15.84.2,7.53,1.09,14.51,2.43,20.93,4.04,7.43,1.87,14.01,3.72,18.06,6.49,1.29.88,1.06,1.53-.71,1.95-.24.06-.52.09-.8.09-4.68,0-10.41-1.58-13.8-2.63-6.55-2.03-13.57-3.8-21.04-5.32-8.89-1.81-14.17-2.87-15.85-3.17-1.31-.23-2.49-.34-3.54-.32-.68.02-.99.31-.51.48,4.39,1.59,8.33,3.44,11.8,5.53.86.52,1.12,1.02.79,1.51-.07.1-.37.16-.65.12-11.44-1.38-21.81-3.34-32.41-5.37-7.47-1.43-64.96,37.61-78.83,35.73-6.36-.87-15.37-1.79-27.03-2.78-8.57-.73-21.97-2.18-40.22-4.35-5.76-.69-27.98,22.47-33.46,21.11-1.95-.48-3.73-.78-5.34-.89-14.07-.98-25.66-1.81-34.75-2.49-.55-.04-1.06.11-1.04.31.08,1.15-.89,2.02-1.06,3.22-.32,2.34-.06,4.42.79,6.24.48,1.03.3,2.15.66,3.21,1.57,4.65,5.13,10.31,10.7,16.98,3.75,4.5,8.08,8.9,12.99,13.2.08.07-.07.15-.28.15h-.49c-3.49-2.72-7.23-6.27-11.22-10.64-5.65-6.18-9.86-12.39-12.65-18.64-2.11-4.71-2.42-9.36-.95-13.94.15-.46.86-.67,2.11-.62.12,0,1.14.08,3.05.22,21.4,1.61,52.71-21.32,72.54-20.76,6.33.18,15.28.47,26.84.87,38.66,1.33,121.15-36.54,154.9-30.86,4.8.81,10.2,1.76,16.21,2.87,15.89,2.92,30.11,6.4,42.67,10.44,10.54,3.39,20.32,7.06,26.77,11.2h0Z"/>
      <path class="cls-25" d="M360.08,62.43l1.65,1.37c3.42,4.79,8.68,9.89,5.32,14.89-.23.35-1.08.6-2.08.62-1.36.03-2.77-.07-4.24-.28-2.75-.41-6.43-1.08-11.02-2-8.35-1.67-16.89-2.8-25.1-4.31-1.06-.2-1.97-.47-2.67-.82-8.86-4.39-15.37-7.68-19.52-9.85-4.55-2.38-9.02-4.21-14.36-6.72-.15-.07-.36-.13-.61-.18-.27-.05-.56.06-.41.15,1.81,1.14,3.99,2.1,5.37,3.17,2.67,2.04,6.43,4.07,9.05,6.15.32.26,2.61,1.97,6.88,5.14.05.04.12.08.19.11l8.01,3.67-15.9-5.51c.51-.06.69-.17.54-.32-.03-.03-.09-.06-.17-.08-3.83-1.15-6.49-2.21-10.44-3.23-3.76-.97-7.3-2.18-11.63-3.29-11.43-2.92-17.7-4.62-25.99-6.33-6.77-1.39-59.4,38.02-66.29,36.8-12.69-2.24-25.51-4.26-38.46-6.07-3.15-.44-5.93-.8-8.34-1.08-7.15-.83-13.55-1.78-20.98-2.54-16.43-1.68-25.42-2.6-26.97-2.75-.1-.01-.2-.01-.31-.01h-1.92c-.29-.01-.54.06-.58.17l-.04.13c-.11.02-.22.03-.34.04-.12.01-.13.07-.02.09l1.37.22c-.3.01-.51.06-.63.15-.1.08,0,.17.24.19,6.25.71,13.43,1.61,21.56,2.72,19.21,2.61,36.12,5.04,53.53,8.39,10.3,1.98,17.11,3.34,20.44,4.09,10.65,2.4,67.86-35.64,77.97-32.73.21.06,2.14.67,5.79,1.84,2.15.68,4.51,1.3,7.08,1.83.43-.13,1.36.1,2.78.7.31.24,1.11.67,2.4,1.29,4.44,2.13,8.49,3.94,12.16,5.43.26.11-.03.27-.42.23-.97-.1-1.84-.36-2.88-.43-6.34-.48-13.11-1.31-17.4-1.68-14.65-1.28-75.76,38.63-89.69,38.32-7.78-.17-11.97-.27-12.57-.3-5.81-.27-13.83-.21-19.91-.51-.65-.03-1.85,0-3.6.08-.09,0-.15.03-.15.06.01.03.07.06.16.06,6.34.23,12.36.43,18.06.6,2.05.06,6.16.3,12.32.71-.39-.01-.73.03-1.03.11-.2.06-.12.17.12.19,5.55.45,58.32-39.83,64.67-39.42,8.63.55,17.96,1.44,27.97,2.68,7.09.88,13.99,2.13,20.69,3.74,5.91,1.43,11.52,3.16,16.83,5.19,4.33,1.73,6.94,3.85,7.85,6.35.38,1.02-.22,2.24-1.56,3.22-5.67,4.16-16.45,6.27-28.7,7.58-3.11.33-7.11.5-12.01.49-13.43,0-20.78-.03-22.05-.07-.09,0-2.17-.08-6.22-.23-3.33-.12-55.81,40.13-63.8,39.35-5.97-.58-12.55-1.4-19.74-2.43-14.03-2.02-27.17-4.74-39.14-7.72-.14-.03-.26-.04-.37-.01-1.11-.44-2.4-.79-3.88-1.06-.08-.01-.16-.02-.23-.04-9.95-2.79-19.21-5.82-27.78-9.09-4.09-1.56-24.68,20.23-29.05,18.68-2.11-.74-7.55-2.48-16.33-5.21-.25-.4-.83-.77-1.74-1.12-.09-.04-.23-.04-.34-.02-.11.02-.15.07-.1.12l13.24,10.68c-1.36-.66-2.5-1.31-3.43-1.97-4.41-3.14-8.61-6.31-12.6-9.52h.49c.21,0,.36-.09.28-.16-4.91-4.3-9.24-8.7-12.99-13.2-5.57-6.68-9.13-12.34-10.7-16.98-.36-1.05-.18-2.18-.66-3.21-.85-1.82-1.11-3.9-.79-6.24.17-1.2,1.14-2.07,1.06-3.22-.02-.2.49-.35,1.04-.31,9.09.68,20.68,1.51,34.75,2.49,1.61.11,3.39.41,5.34.89,5.48,1.36,27.7-21.8,33.46-21.11,18.25,2.17,31.65,3.62,40.22,4.35,11.66.99,20.67,1.92,27.03,2.78,13.87,1.88,71.36-37.16,78.83-35.73,10.6,2.03,20.97,3.98,32.41,5.37.28.04.58-.02.65-.12.33-.49.07-1-.79-1.51-3.47-2.1-7.41-3.94-11.8-5.53-.48-.17-.17-.46.51-.48,1.05-.02,2.23.08,3.54.32,1.68.3,6.96,1.36,15.85,3.17,7.47,1.52,14.49,3.29,21.04,5.32,3.39,1.05,9.12,2.63,13.8,2.63.28,0,.56-.03.8-.09,1.77-.42,2-1.07.71-1.95-4.05-2.77-10.63-4.62-18.06-6.49-6.42-1.61-13.4-2.96-20.93-4.04-.31-.05-.6-.11-.84-.2-.85-.3-2.3-.57-4.34-.83-.44-.06-.7-.12-.79-.19-.27-.2.32-.41.88-.31,11.08,1.95,20,3.51,26.77,4.7.33.06,1.26.27,2.8.64.26.06.54.12.83.16,2.1.32,4.3.77,6.6,1.34,5.11,1.26,8.74,2.16,10.91,2.7,4.95,1.24,11.48,3.19,19.59,5.84,7.85,2.57,14.62,5.44,20.31,8.61,1.17.65,2.15,1.33,2.96,2.04.09.08.42.09.52,0,.11-.09.18-.2.21-.34M56.31,108.27l.86.21c.18.04.4.07.62.07,4.61.02,23.85-23.91,26-23.64,5.92.76,12.66,1.73,20.21,2.92,8.3,1.31,17.48,2.63,25.04,3.18,10.64.77,19.23,1.35,25.76,1.77,1.67.1,2.57-.67,1.18-1.01-4.77-1.18-9.87-2.16-15.3-2.94-8.34-1.2-17.32-2.2-26.94-2.99-1.95-.16-6.1-.41-12.47-.73-2.67-.14-6.83-.39-12.48-.76-3.32-.22-24.67,23.76-32.33,23.75-.27,0-.37.12-.15.18h0Z"/>
      <path class="cls-20" d="M633.26,29.79c-.17.47-.76.83-1.79,1.09-3.67.92-7.15,1.85-10.44,2.8-6.7,1.93-10.09,2.9-10.16,2.92-17.23,4.68-24.08,6.63-38.07,9.8.26-.14.3-.23.11-.25-.44-.06-.87-.02-1.29.1-4.37,1.31-8.48,2.55-12.32,3.73-.11.03-.27.03-.37,0h0c-.09-.04-.09-.09,0-.12,8.71-3.15,17.31-5.97,25.78-8.45,12.6-3.7,23.02-6.37,31.25-8.03,5.77-1.16,11.54-2.35,17.3-3.57h0Z"/>
      <path class="cls-23" d="M573.4,40.41c-19.28,5.32-36.51,11.35-51.7,18.1-5.58,2.48-9.06,4.01-10.43,4.59-3.84,1.61-7.29,3.14-10.36,4.61-1.61.77-4.12,1.69-5.91,2.26-.12.04-.3.04-.42,0l-.19-.07s-.05-.04-.01-.06c1.69-.72,2.63-1.15,2.83-1.3,3.06-2.2,8.28-5.47,12.08-8.42.11-.09-.13-.17-.38-.14l-5.52.83c-.15.02-.3-.03-.24-.08,2.76-2.64,6.35-6.25,10.77-10.84.64-.66.93-1.35.88-2.06,4.81-4.39,9.3-8.83,13.49-13.31,1.12-1.2,2.91-2.67,4.28-4.03.11-.11.39-.24.86-.38.24-.07.6,0,.53.11-.74,1.19-2.27,3.66-4.58,7.4-.81,1.3-4.39,5.44-10.76,12.42-1.58,1.73-2.16,3.37-3.73,4.81-.08.07.17.13.32.07,5.11-1.79,10.24-3.35,15.37-4.68,14.35-3.71,27.47-6.9,39.38-9.55.82-.18,1.97-.27,3.44-.28h0Z"/>
      <path class="cls-22" d="M300.64,68.03c-12.83-4.14-26.46-7.89-40.89-11.24-13.86-3.22-75.66,34.61-91.75,32.1-15.59-2.43-31.54-4.55-47.85-6.34-8.19-.9-17.35-1.86-27.5-2.87-1.17-.12-2.36-.19-3.59-.23l.04-.13c.04-.1.29-.18.58-.18h1.92c.11.01.21.01.31.02,1.55.15,10.54,1.07,26.97,2.75,7.43.76,13.83,1.72,20.98,2.54,2.41.27,5.19.63,8.34,1.08,12.95,1.81,25.77,3.83,38.46,6.07,6.89,1.22,59.52-38.19,66.29-36.8,8.29,1.71,14.56,3.4,25.99,6.33,4.33,1.11,7.87,2.32,11.63,3.29,3.95,1.01,6.61,2.07,10.44,3.23.08.02.14.05.17.08.15.15-.03.26-.54.32h0Z"/>
      <path class="cls-29" d="M89.06,79.44c1.23.04,2.42.11,3.59.23,10.15,1.01,19.31,1.97,27.5,2.87,16.31,1.79,32.26,3.91,47.85,6.34,16.09,2.51,77.89-35.32,91.75-32.1,14.43,3.35,28.06,7.1,40.89,11.24l15.9,5.51c2.75,1.14,5.62,2.29,8.59,3.43,3.53,1.36,6.37,2.5,8.53,3.44,18.05,7.81,35.07,15.89,51.07,24.25.95.5,1.87,1.1,2.75,1.81-1.37-.42-2.45-.97-3.24-1.65-.1-.09-.22-.17-.37-.24-11.47-5.95-22-11.09-31.59-15.41-.04-.02-4.76-2.11-14.17-6.29-5.37-2.38-9.79-4.04-15.2-6.31-1.27-.53-3.38-1.31-6.32-2.34-9.31-3.26-15.96-5.81-24.68-8.38-9.56-2.81-14.9-4.22-26.18-7.11-4.12-1.06-8.35-2.04-12.68-2.96-8.27-1.76-13.05-2.75-14.36-2.99-12.68-2.35-71.87,36.3-83.94,34.56-5.51-.79-13.07-1.61-19.23-2.57-.76-.12-1.55-.15-2.36-.09-.25.02-.28.14-.05.17,12.71,1.96,25.83,4.26,39.37,6.9,17.99,3.51,81.81-32.98,97.81-28.07.26.08.17.23-.16.27-.16.02-.43.02-.8,0-25.03-7.77-100.02,27.03-130.55,22.35-15.97-2.45-32.21-4.63-48.71-6.53l-1.37-.22c-.11-.02-.1-.07.02-.09.12-.01.23-.02.34-.04h0Z"/>
      <path class="cls-26" d="M90.07,79.79c16.5,1.9,32.74,4.08,48.71,6.53,30.53,4.68,105.52-30.13,130.55-22.35l6.72,2.3c-2.57-.54-4.93-1.15-7.08-1.83-3.65-1.16-5.58-1.78-5.79-1.84-10.11-2.91-67.32,35.14-77.97,32.73-3.33-.75-10.14-2.11-20.44-4.09-17.41-3.34-34.32-5.78-53.53-8.39-8.13-1.1-15.31-2.01-21.56-2.72-.23-.02-.34-.11-.24-.19.12-.09.33-.14.63-.15h0Z"/>
      <path class="cls-26" d="M56.46,108.09c7.66.01,29.01-23.97,32.33-23.75,5.65.37,9.81.63,12.48.76,6.37.32,10.52.57,12.47.73,9.62.79,18.6,1.79,26.94,2.99,5.43.78,10.53,1.76,15.3,2.94,1.39.35.49,1.12-1.18,1.01-6.53-.41-15.12-1-25.76-1.77-7.56-.54-16.74-1.87-25.04-3.18-7.55-1.19-14.29-2.16-20.21-2.92-2.15-.27-21.39,23.67-26,23.64-.22,0-.44-.03-.62-.07l-.86-.21c-.22-.05-.12-.18.15-.18h0Z"/>
      <path class="cls-23" d="M361.73,63.8c.28,0,.46.04.55.14.08.09.44.11.58.02.11-.07.16-.13.14-.18,0-.04-.05-.07-.1-.11-.66-.42-1.05-.73-1.18-.91-.04-.06.04-.12.2-.15.16-.02.34,0,.44.05,3.41,1.83,6.17,3.47,8.26,4.93,11.57,8.05,18.25,16.28,20.04,24.67.16.74.22,2.94.18,6.58-.02,1.55-.25,2.67-.69,3.36-.67,1.08-1.2,2.24-1.58,3.49-.01.04,0,.08.04.11.3.3-.08.52-1.13.67-.88-.71-1.8-1.31-2.75-1.81-16-8.36-33.02-16.44-51.07-24.25-2.16-.94-5-2.08-8.53-3.44-2.97-1.15-5.84-2.29-8.59-3.43l-8.01-3.67c-.07-.03-.14-.07-.19-.11-4.27-3.17-6.56-4.89-6.88-5.14-2.62-2.09-6.38-4.11-9.05-6.15-1.38-1.06-3.56-2.03-5.37-3.17-.15-.1.14-.2.41-.15.25.05.46.1.61.18,5.34,2.51,9.81,4.34,14.36,6.72,4.15,2.18,10.66,5.46,19.52,9.85.7.35,1.61.62,2.67.82,8.21,1.51,16.75,2.63,25.1,4.31,4.59.92,8.27,1.59,11.02,2,1.47.22,2.88.31,4.24.28,1-.02,1.85-.27,2.08-.62,3.36-5-1.9-10.1-5.32-14.89h0Z"/>
      <path class="cls-17" d="M751.25,83.11c-1.34.75-2.98,1.4-4.92,1.96l4.92-1.96h0Z"/>
      <path class="cls-17" d="M745.82,85.21c-.03.18-.28.27-.77.27.19-.12.44-.22.77-.27h0Z"/>
      <path class="cls-17" d="M43.55,133.15c8.78,2.73,14.22,4.47,16.33,5.21,4.37,1.55,24.96-20.24,29.05-18.68,8.57,3.27,17.83,6.3,27.78,9.09-8.07-2.08-16.15-4.59-24.24-7.54-3.72-1.36-6.62-2.49-8.69-3.38-1.97-.86-3.97-1.7-6-2.54-1.23-.5-19.36,22.82-22.66,21.79-3.99-1.25-7.85-2.56-11.57-3.95h0Z"/>
      <path class="cls-26" d="M177.31,110.83c7.02.5,60.87-39.73,67.91-39.28,5.61.36,12.98,1.09,22.1,2.2,12.65,1.54,23.97,3.95,33.97,7.22,2.14.7,3.9,1.49,5.27,2.36-5.31-2.03-10.92-3.77-16.83-5.19-6.7-1.62-13.6-2.86-20.69-3.74-10.01-1.24-19.34-2.13-27.97-2.68-6.35-.4-59.12,39.87-64.67,39.42-.24-.02-.32-.13-.12-.19.3-.09.64-.12,1.03-.11h0Z"/>
      <path class="cls-23" d="M488.72,70.27c.38.55-.26,1.11-1.91,1.68-.49.17-.03.46.63.4.49-.05.93-.14,1.34-.29.25-.09.64-.1.92-.03.28.07.37.21.21.32-2.27,1.56-6.19,3.02-8.68,4.48-5.04,2.98-16,8.81-22.96,13.21-4.75,3.01-7.74,4.93-8.95,5.75-2.71,1.83-4.63,3.1-5.75,3.8-.14.09-.51.07-.58-.03l-.21-.28c.05-.57-.11-1.97-.49-4.19-.72-4.22-.79-9.24-.2-15.06.33.22,1.01.15,2.03-.22,11.8-2.55,24.06-4.78,36.78-6.69,3.77-.57,6.37-1.52,7.82-2.87h0Z"/>
      <path class="cls-29" d="M486.49,81.33c-14.07,7.44-26.42,15.22-37.03,23.34-1.35,1.03-5.15,4.25-11.4,9.65-3.07,2.65-5.28,5.05-8.91,8.49-2.19,2.08-4.39,4.54-6.6,7.4-1.17,1.51-2.26,2.16-6.49,2.4-.75.04-1.5-.06-1.99-.26-1.34-.55-2.5-1.19-3.48-1.91-9.43-6.99-15.91-11.71-19.46-14.16-2.8-1.94-7.78-5.08-12.09-7.49-10.16-5.68-16.5-9.1-19.01-10.27-5.09-2.37-10.17-4.76-15.25-7.14.1-.26.57-.19,1.41.22,5.58,2.73,12.71,5.81,17.89,8.57,8.47,4.51,14.65,7.9,18.53,10.15,3.9,2.27,8.53,5.26,13.9,8.98,1.69,1.18,3.67,2.46,5.16,3.56,4.31,3.21,7.87,5.83,10.66,7.86.83.61,1.61,1.01,2.33,1.22.27.08.6.12.95.14,3.34.1,4.57-.49,5.41-1.64,1.65-2.25,2.94-3.82,3.87-4.69,4.45-4.19,9.47-9.3,14.9-13.88,3.71-3.13,6.19-5.19,7.46-6.2,10.67-8.43,23.52-16.57,38.53-24.41.12-.06.34-.09.54-.06.02,0,.08.05.17.14h0Z"/>
      <path class="cls-17" d="M120.82,129.86c-1.48-.27-2.77-.62-3.88-1.06,1.48.27,2.77.62,3.88,1.06h0Z"/>
      <path class="cls-23" d="M450.97,115.52c-1.66,1.53-3.32,3.12-4.39,4.69-4.17,6.11-6.98,12.47-8.43,19.06-1.21,5.53-1.28,10.81-.19,15.84.35,1.64,1.43,4.9,3.23,9.77.97,2.6,2.4,5.85,4.29,9.73,5.69,11.67,9.85,20.51,12.94,30.61,1.03,3.38,1.58,6.91,1.67,10.6-.92-1.25-1.45-2.46-1.6-3.65-.1-.79-.25-1.39-.44-1.81-.25-.53-.31-1.14-.18-1.82.13-.62-.84-4-2.91-10.12-.23-.67-1.11-1.47-1.04-2.16.03-.3-.14-.84-.49-1.62-4.41-9.91-7.38-16.35-8.91-19.32-2.16-4.19-3.97-8.47-5.44-12.83-1.5-4.45-2.26-6.72-2.29-6.79-.76-1.78-1.1-3.67-1.01-5.66.16-3.62-.6-6.66,1.11-9.97.06-.12.09-.24.09-.36-.02-1.26.19-2.25.63-2.97.05-.09.24-.67.57-1.74,1.79-5.85,4.77-11.69,8.94-17.52l3.18-2.41c.11-.09.47-.08.56,0,.1.1.14.25.11.44h0Z"/>
      <path class="cls-29" d="M342.89,115.37c14.79.23,28.23.69,38.66,4.76,4.06,1.58,8.36,3.67,12.9,6.25,8.95,5.74,15.25,11.87,18.9,18.39,1.73,3.1,3.62,6.18,5.68,9.26,10.03,17.65,15.37,34.29,14.3,51.45-.89,14.1-6.66,28.01-17.32,41.74-.07.08.13.16.37.15l2.17-.09,13.96-.52c3.05.09,6.07.17,9.06.24,1.55.04,4.56.29,9.02.77l-1.57.03c-.8.02-1.6,0-2.39-.06-5.12-.35-10.31-.51-15.57-.48-.51,0-4.08.15-10.71.44-4.33.19-8.64.21-12.95.06l6.68-.29c.31-.01.56-.1.63-.21.1-.17.96-1.4,2.57-3.69,6.07-8.62,10.12-16.76,12.14-24.4.27-1.01.55-1.98.85-2.9.8-2.46.7-3.97,1.3-6.8.23-1.05.38-2.34.45-3.88.35-6.73-.03-12.68-1.13-17.82-1.82-8.56-4.55-16.63-8.18-24.2-2.21-4.61-5.52-10.59-9.94-17.96-3.82-6.37-8.68-11.68-14.57-15.92-1.57-1.13-3.05-2.1-4.45-2.92-2.97-1.74-4.6-2.68-4.89-2.84-1.36-.73-3.61-1.77-6.76-3.12-5.43-2.33-12.35-3.8-20.78-4.42-6.43-.48-12.85-.7-19.24-.68-.18,0-.34-.05-.36-.11-.03-.06.08-.12.26-.14l.91-.09h0Z"/>
      <path class="cls-31" d="M447.12,117.48c-4.17,5.83-7.15,11.67-8.94,17.52-.33,1.07-.52,1.65-.57,1.74-.44.72-.65,1.71-.63,2.97,0,.12-.03.24-.09.36-1.71,3.31-.95,6.35-1.11,9.97-.09,2,.25,3.89,1.01,5.66.03.07.79,2.33,2.29,6.79,1.47,4.36,3.28,8.64,5.44,12.83,1.53,2.97,4.5,9.41,8.91,19.32.35.79.52,1.33.49,1.62-.07.68.81,1.49,1.04,2.16,2.07,6.13,3.04,9.5,2.91,10.12-.13.68-.07,1.29.18,1.82.19.42.34,1.03.44,1.81.15,1.18.68,2.4,1.6,3.65.55.43.82.99.79,1.68-.08,2.31-.12,4.63-.13,6.94-.02,3.38-.65,6.77-1.88,10.15-.45-.49-.61-1.09-.47-1.78,1.09-5.32,1.38-10.71.87-16.17-.01-.09-.18-.15-.42-.17-.23-.01-.46.04-.53.12-1.35,1.52-2.55,2.97-3.61,4.35-.87,1.13-2.23,2.56-4.08,4.3-4.09,3.83-6.17,5.77-6.22,5.82-2.28,1.92-3.62,3.35-4.03,4.29-.83,1.89-1.35,3.39-1.57,4.49-.31,1.54-1.96,2.84-4.97,3.9-3,1.05-5.75,1.9-8.25,2.54-.03.01-.01.03.03.03h7.4c.34,0,.5.15.24.23l-.75.23-13.96.52c-.63-.15-.9-.32-.79-.5.83-1.39,2.77-4.27,5.84-8.63,2.13-3.02,4.43-7.73,6.9-14.12,1.01-2.6,1.71-4.51,2.09-5.72.19-.61.29-1.15.29-1.61.02-1.35.86-2.49.93-3.95.09-2.25.86-4.34.88-6.61.03-4.07.06-7.42.09-10.06.02-2.33-.75-4.78-.9-6.51-.15-1.77-.47-3.39-.95-4.87-.64-2-1.1-4.56-2.02-7.06-2.66-7.19-4.33-11.5-5-12.93-.99-2.11-2.88-5.66-5.65-10.67-.07-.14-.53-.2-.86-.12l-.37.1c-2.06-3.07-3.95-6.16-5.68-9.26-3.65-6.52-9.95-12.65-18.9-18.39-.17-.05-.18-.09-.04-.13.31-.1.59-.08.83.04,1.65.81,3.24,1.81,4.75,3,.13.1.32.26.55.45,1.6,1.33,2.65,2.18,3.16,2.54,1.35.95,2.33,1.82,2.94,2.59.12.15,1,1.03,2.65,2.62.85.83,1.62,1.72,2.3,2.66,2.13,2.98,3.97,5.95,5.5,8.92.04.07.11.15.2.22l.67.49c.14.1.22.21.25.32.12.47.45.9,1,1.28.11.07.43.06.46-.03.43-1.18.45-1.69,1.24-2.68,1.85-2.31,2.96-4.65,3.31-7,.18-1.25-.31-3.05-.44-4.24-.19-1.73,1.73-3.22,4.76-4.62,1.22-.57,2.11-1.27,2.68-2.13,1.21-1.85,2.59-4.3,4.12-7.35.43-.86,1.45-1.78,3.06-2.56,2.42-1.18,5.33-2.28,8.72-3.29h0Z"/>
      <path class="cls-23" d="M418.55,247.29l-2.17.09c-.24.01-.44-.07-.37-.15,10.66-13.73,16.43-27.64,17.32-41.74,1.07-17.17-4.27-33.81-14.3-51.45l.37-.1c.33-.09.79-.02.86.12,2.77,5.01,4.66,8.56,5.65,10.67.67,1.43,2.34,5.74,5,12.93.92,2.5,1.38,5.05,2.02,7.06.48,1.48.8,3.1.95,4.87.15,1.73.92,4.18.9,6.51-.03,2.63-.06,5.99-.09,10.06-.02,2.27-.79,4.36-.88,6.61-.07,1.46-.91,2.61-.93,3.95,0,.46-.1,1-.29,1.61-.38,1.21-1.08,3.12-2.09,5.72-2.47,6.39-4.77,11.1-6.9,14.12-3.07,4.37-5.01,7.24-5.84,8.63-.11.19.16.35.79.5h0Z"/>
      <path class="cls-30" d="M458.87,234.6c-.68,1.84-1.42,3.69-2.21,5.55-1.09,2.54-2.47,5.06-4.14,7.56-.81.08-1.46.1-1.93.06-4.46-.48-7.47-.73-9.02-.77-2.99-.07-6.01-.15-9.06-.24l.75-.23c.26-.08.1-.23-.24-.23h-7.4s-.06-.02-.03-.03c2.5-.64,5.25-1.49,8.25-2.54,3.01-1.05,4.66-2.35,4.97-3.9.22-1.11.74-2.61,1.57-4.49.41-.94,1.75-2.37,4.03-4.29.05-.05,2.13-1.99,6.22-5.82,1.85-1.73,3.21-3.17,4.08-4.3,1.06-1.38,2.26-2.83,3.61-4.35.07-.08.3-.13.53-.12.24.01.41.08.42.17.51,5.46.22,10.85-.87,16.17-.14.69.02,1.29.47,1.78h0Z"/>
      <path class="cls-18" d="M409.18,231.81l.52.35c.14.09-.11.2-.4.17l-6.2-.64c-.07,0-.15-.01-.22-.01-6.01-.07-12.02-.1-18.04-.09-1.79,0-4.6.21-8.45.61-16.8,1.76-28.97,5.38-36.5,10.86-.91.67-2.11,2.25-3.59,4.73-.73,1.24-1.07,1.92-5.25,1.55-15.24-1.36-31.51.8-41.09,5.15-3.61,1.64-5.26,3.31-7.23,5.28-.35.35-1.33.56-2.37.52-13.8-.58-26.14.59-37.02,3.5-8.28,2.23-13.88,4.97-16.79,8.23-2.52,2.82-1.25,5.26,3.8,7.32,2.55,1.04,6.52,1.89,11.91,2.57,5.23.66,9.75,1.1,13.54,1.32,4.89.29,11.04.43,18.45.42,2.84,0,5.32-.05,7.43-.15,4.56-.2,7.05-.3,7.47-.31.28,0,.56-.02.82-.07,1.69-.27,3.59-.26,5.7.01.28.04.53.09.73.17,5.17,1.91,11.25,3.33,18.23,4.24,6.8.89,12.71,1.44,17.72,1.65,8.41.35,17.71.03,27.91-.95.06,0,.12-.01.17-.02l5.94-1.02c.37-.06.82-.06,1.18.02,6.13,1.27,11.32,2.15,15.56,2.64,5.49.63,9.34,1.07,11.54,1.33,2.98.35,5.19.34,7.99.68,1.43.17,3.43.32,6.01.44,11.31.53,21.21.7,29.72.52,10.49-.22,19.91-.76,28.28-1.62,6.29-.64,12.52-1.51,18.68-2.59,1.85-.32,3.4-.67,4.65-1.04.25-.07.57-.11.9-.1,1.3.03,2.32.11,3.05.25,5.52,1.01,11.96,1.44,18.13,1.67,6.74.25,14.56.07,23.47-.51,9.01-.59,18.26-2.59,25.03-4.94.7-.24,1.69-.34,2.64-.26,11.79,1.04,23.67,1.33,35.65.85,2.61-.1,5.33-.11,8.11-.31,7.18-.52,13.83-1.46,19.95-2.79,8.15-1.78,14.54-4.84,13.93-8.24-.22-1.24-.85-2.3-1.89-3.2-2.45-2.1-6.19-3.85-11.22-5.27-1.87-.52-4.96-1.28-8.1-1.8-1.64-.27-4.05-.72-7.22-1.34-.31-.06-.63-.1-.98-.13-6.31-.53-10.76-.87-13.35-1.01-1.56-.09-5.29-.1-11.2-.05-.34,0-.66-.05-.88-.14-1.53-.62-2.31-1.25-2.32-1.9,0-.08-.04-.16-.13-.23l-3.1-2.62c-.07-.06-.17-.12-.29-.17l-4.06-1.78c-.09-.04-.18-.07-.29-.1-4.59-1.22-8.3-2.05-11.15-2.5-7.27-1.14-15.54-1.49-24.81-1.04-1.46.07-2.51-.09-3.15-.47-.16-.1-.22-.21-.17-.33.32-.69.34-1.23.07-1.63-2.19-3.19-6.55-5.84-13.06-7.97-3.66-1.2-7.54-2.19-11.64-2.99-3.98-.77-8.51-1.32-13.58-1.66-.88-.06-1.72.03-2.33,0-4.41-.25-9.05-.27-13.92-.05-3.25.15-5.96.6-8.52,1.18-.71.16-1.37.21-1.99.16.08-.1-.06-.2-.41-.31.41.06.74.06.97-.02,1.73-.54,2.95-.85,3.67-.94,7.9-.94,16.01-1.07,24.33-.41,7.31.58,14.06,1.71,20.25,3.38,7.85,2.12,13.4,4.8,16.67,8.06,1.05,1.04,1.06,2.18.93,3.26-.02.16.38.28.81.25,6.03-.43,11.84-.43,17.43,0,16.19,1.24,26.28,4.59,30.25,10.04.15.2.68.34,1.27.33,10.64-.15,20.5.56,29.59,2.13,11.61,2.02,20.26,4.52,24.08,8.89,1.4,1.61,1.65,3.09.75,4.45-.97,1.48-2.88,2.82-5.74,4.01-3.83,1.61-8.61,2.87-14.33,3.8-3.45.56-8.7,1.14-15.77,1.73-1.8.15-3.96.24-6.48.26-2.31.02-5.63.25-8.65.27-9.93.06-19.49-.31-28.68-1.11-.39-.04-.81,0-1.1.1l-4.47,1.53c-.35.12-.76.2-1.21.25-.53.06-1.11.21-1.73.45-.27.1-.58.2-.92.27-4.65,1.05-9.52,1.86-14.62,2.41-.22.02-.44.04-.67.04-1.13.02-2.33.11-3.6.28-.18.02-.36.04-.55.05-7.21.41-14.81.52-22.8.31-.23,0-.71-.04-1.31-.1-.85-.08-1.83-.14-2.92-.2-4.85-.23-9.72-.78-14.62-1.67-.28-.05-.61-.04-.86.02-2.61.67-5.71,1.28-9.3,1.82-6.36.96-11.45,1.61-15.26,1.93-3.02.25-5.51.48-7.47.69-.32.03-.65.05-.98.05-1.76-.01-3.13.23-4.55.31-11.79.68-23.69.83-35.72.44-7.36-.24-15.26-.78-23.7-1.63-1.75-.17-3.93-.4-6.55-.68-7.43-.8-14.22-1.9-20.35-3.3-.26-.06-.6-.06-.86,0-1.93.46-4.29.84-7.08,1.13-13.06,1.37-26.37,1.34-39.92-.09-9.75-1.03-17.94-2.77-24.59-5.23-.27-.1-.63-.16-1.02-.17-1.46-.03-2.94.32-4.28.33-1.91,0-3.7.09-5.37.25-.42.04-.85.06-1.28.07-11.41.12-18.25.12-20.53,0-5.15-.27-9.42-.55-12.82-.82-4.96-.41-10.32-1.04-15.01-2.04-7.49-1.61-11.66-4.57-10.42-7.55.99-2.37,3.88-4.62,8.67-6.75,8.47-3.76,19.35-6.08,32.64-6.95,3.95-.26,9.11-.27,15.48-.06.31.01.61-.06.7-.17.51-.58,1.35-1.39,2.51-2.44,3.16-2.84,8.92-5.09,17.28-6.75,3.61-.72,6.52-1.17,8.73-1.35,5.01-.41,8.15-.74,12.77-.66,2.09.04,5.73.19,10.93.46.54.03,1.02-.13.97-.33-.12-.49-.05-.98.2-1.48,3.39-6.73,17.48-12.14,35.28-14.65.05,0,2.93-.32,8.64-.95,2.72-.3,5.67-.47,8.86-.51,8.65-.1,14.18-.18,21.46.85h0Z"/>
      <path class="cls-19" d="M409.18,231.81l2.42.35.35.27c.09.07.37.08.49.01l.95-.54c-2.09,2.55-3.31,4.36-3.67,5.43-.49,1.43-1.07,2.99-1.76,4.68-.21.51-.7,1.37-1.47,2.58-.71,1.12-1.08,1.99-1.09,2.6-.01.3.66.49,2,.58,4.31.15,8.62.12,12.95-.06,6.63-.29,10.2-.44,10.71-.44,5.26-.02,10.45.14,15.57.48.79.05,1.59.07,2.39.06l1.57-.03c.47.04,1.12.02,1.93-.06l3.82-3.1c.57-.46,1.28-.9,2.12-1.31,2.97-1.46,6.49-2.92,8.3-4.62l4.8-2.52c.62.05,1.28,0,1.99-.16,2.56-.58,5.27-1.03,8.52-1.18,4.87-.22,9.51-.2,13.92.05.61.04,1.45-.05,2.33,0,5.07.34,9.6.89,13.58,1.66,4.1.79,7.98,1.79,11.64,2.99,6.51,2.13,10.87,4.78,13.06,7.97.27.4.25.95-.07,1.63-.05.11.01.23.17.33.64.38,1.69.54,3.15.47,9.27-.45,17.54-.1,24.81,1.04,2.85.45,6.56,1.27,11.15,2.5.11.03.2.06.29.1l4.06,1.78c.12.05.22.11.29.17l3.1,2.62c.09.07.13.15.13.23,0,.64.79,1.28,2.32,1.9.22.09.54.14.88.14,5.91-.06,9.64-.04,11.2.05,2.59.15,7.04.48,13.35,1.01.35.03.67.07.98.13,3.17.62,5.58,1.06,7.22,1.34,3.14.52,6.23,1.28,8.1,1.8,5.03,1.41,8.77,3.17,11.22,5.27,1.04.9,1.67,1.97,1.89,3.2.61,3.4-5.78,6.46-13.93,8.24-6.12,1.34-12.77,2.27-19.95,2.79-2.78.2-5.5.21-8.11.31-11.98.48-23.86.2-35.65-.85-.95-.08-1.94.01-2.64.26-6.77,2.35-16.02,4.34-25.03,4.94-8.91.59-16.73.76-23.47.51-6.17-.23-12.61-.66-18.13-1.67-.73-.13-1.75-.21-3.05-.25-.33,0-.65.03-.9.1-1.25.37-2.8.71-4.65,1.04-6.16,1.08-12.39,1.94-18.68,2.59-8.37.86-17.79,1.4-28.28,1.62-8.51.18-18.41,0-29.72-.52-2.58-.12-4.58-.27-6.01-.44-2.8-.33-5.01-.32-7.99-.68-2.2-.26-6.05-.7-11.54-1.33-4.24-.48-9.43-1.36-15.56-2.64-.36-.07-.81-.08-1.18-.02l-5.94,1.02c-.05.01-.11.02-.17.02-10.2.98-19.5,1.29-27.91.95-5.01-.21-10.92-.75-17.72-1.65-6.98-.92-13.06-2.33-18.23-4.24-.2-.07-.45-.13-.73-.17-2.11-.27-4.01-.28-5.7-.01-.26.04-.54.06-.82.07-.42,0-2.91.11-7.47.31-2.11.09-4.59.14-7.43.15-7.41,0-13.56-.14-18.45-.42-3.79-.22-8.31-.67-13.54-1.32-5.39-.68-9.36-1.53-11.91-2.57-5.05-2.06-6.32-4.5-3.8-7.32,2.91-3.26,8.51-6,16.79-8.23,10.88-2.92,23.22-4.08,37.02-3.5,1.04.04,2.02-.17,2.37-.52,1.97-1.96,3.62-3.64,7.23-5.28,9.58-4.35,25.85-6.51,41.09-5.15,4.18.37,4.52-.31,5.25-1.55,1.48-2.48,2.68-4.06,3.59-4.73,7.53-5.48,19.7-9.1,36.5-10.86,3.85-.4,6.66-.61,8.45-.61,6.02-.02,12.03.01,18.04.09.07,0,.15,0,.22.01l6.2.64c.29.03.54-.08.4-.17l-.52-.35M299.75,278.85c.56.03,1.16-.04,1.79-.22.2-.06.49-.04.63.04,2.35,1.29,5.75,2.45,10.22,3.49,11.52,2.67,23.66,3.57,36.43,2.7,6.57-.45,12.33-2.04,17.2-3.66.26-.09.67-.07.88.02,2.74,1.24,5.75,2.29,9.03,3.17,2.31.62,6.08,1.26,11.3,1.93,6.85.88,13.67,1.5,20.46,1.86,12.85.77,25.75.9,38.69.38,6.85-.2,13.18-.68,19-1.42,2.22-.28,5.9-.85,11.05-1.7,4.68-.77,9.41-1.22,14.31-2.17,1.64-.32,3.61-.33,5.28-.04.25.04,1.5.36,3.76.96,3.58.95,9.86,1.34,16.09,1.46,2.65.05,5.29,0,7.9-.16,5.5-.34,8.7-.56,9.59-.65,5.26-.55,13.39-1.94,19.06-3.41,3.21-.84,4.92-1.26,5.15-1.27,1.34-.06,2.35-1.08,4.43-1.1.37,0,.73.04,1.02.12,4.56,1.23,9.81,1.42,15.13,1.89.3.03.61.05.93.05,12.76.2,24.11.06,35.77-1.74,3.37-.52,5.91-1.06,7.63-1.62,4.05-1.31,8.01-3.01,6.26-5.01-1.02-1.16-1.8-1.89-2.33-2.2-3.17-1.83-7.39-3.26-12.67-4.3-5.81-1.15-10.65-2.01-17.17-2.24-1.41-.05-4.36-.16-8.87-.33-.17,0-.35,0-.52,0l-8.95.35c-.36.01-.67-.08-.68-.21-.1-1.63-.52-2.73-1.26-3.31-6.18-4.86-17.01-7.38-32.49-7.56-2.43-.03-6.42.18-11.97.62-.45.04-.91.04-1.36.01l-2.77-.16c-.18-.01-.29-.08-.22-.14l2.9-2.51s.05-.05.05-.08c.21-1.72-3.37-3.74-6.75-4.9-6.07-2.87-12.58-5.03-19.54-6.47-8.74-1.81-20.4-1.88-28.17.67-5.78,1.89-8.34,3.87-10.89,6.52-1.49,1.53-2.33,3.26-2.54,5.17-.04.38-.83.68-1.83.7-.29,0-.77-.06-1.44-.2-6.05-1.27-11.05-1.87-18.65-2-10.43-.17-19.87-.05-28.31.36-5.41.26-12.17.87-20.3,1.81-3.56.41-7.72,1.37-10.93,1.76-4.36.53-8.6,1.13-12.73,1.79-.25.04-.53,0-.68-.07-.15-.08-.1-.19.1-.25l10.48-3.24c.07-.02.13-.05.19-.07,3.98-1.67,8.2-3.34,12.65-5,3.25-1.21,7-3.5,6.88-5.27-.01-.11.1-.23.3-.32.31-.14.82-.39,1.51-.75,3.21-1.68,2.83-3.3-1.16-4.85-1.67-.65-3.76-.83-6.27-.55-2.35.27-6.07.78-11.15,1.53-3.59.53-7.22,1.47-10.9,2.82-.53.2-.58.18-.15-.04,2.11-1.06,4.76-2.06,7.95-3,.15-.04.17-.12.04-.17l-.2-.08c-.21-.09-.56-.11-.83-.05-3.56.72-7.43,1.87-11.6,3.47-4.5,1.72-7.43,3.05-8.79,3.98-1.09.75-2.11,1.45-3.04,2.09-3.93,2.68-5.94,5.56-7.04,8.58-.15.41-1.46.63-2.44.4-8.05-1.89-17.04-2.65-26.96-2.28-13.15.49-17.18,4.06-21.62,8.22-.11.1-.28.2-.49.28l-3.78,1.45c-.25.1-.6.16-.98.17-11.03.27-18.73.57-23.11.93-7.15.57-13.53,1.75-19.15,3.53-5.72,1.81-8.79,4.01-9.2,6.62-.32,1.98,4.21,3.57,9.06,4.22,5.95.79,12.74,1.26,20.38,1.4,6.22.11,11.72.07,16.5-.12,3.84-.16,9.9-.17,14.9-.57h0Z"/>
      <path class="cls-21" d="M523.68,245.77c-.68.99-1.21,1.98-1.6,2.98-.5,1.3-1.12,2.23-1.85,2.79-5,3.85-13.46,5.24-23.73,6.88-.33.05-.67.09-1.03.11-11.87.61-19.26-2.82-27.33-5.05-.81-.22-1.99,0-1.89.37.7,2.75,3.09,4.32,7.99,7.33.14.09.25.18.33.28,3.06,3.73,3.69,7.37,1.89,10.9-.05.09-.16.18-.34.25-5.14,1.99-10.86,3.14-15.79,4.32-6.92,1.65-13.24,2.5-21.55,3.3-3.74.36-7.96.56-12.65.61-6.56.07-10.9.11-13.01.11-10.35,0-20.15-.53-29.39-1.62-1.41-.17-2.61-.36-3.61-.58-5.75-1.27-11.03-2.63-15.82-4.09-1-.3-2.44-.33-3.53-.07-.93.22-2.23.58-2.67.77-2.44,1.05-5.17,1.84-8.18,2.36-.28.05-.44.16-.4.27.13.36-.25.66-1.14.92-2.43.7-5.24.96-8.45.78-2.76-.16-5.44-.29-8.03-.4-5.33-.21-9.66-1.15-12.24-2.65-1.03-.6-2.44-1.8-4.22-3.59-.09-.09-.37-.15-.63-.12-3.72.39-5.67,1.18-7.8,2.27-.41.21-.94.39-1.55.52-2.83.63-7.91,1.36-5.71,3.15-5,.39-11.06.41-14.9.57-4.78.2-10.28.24-16.5.12-7.64-.14-14.43-.61-20.38-1.4-4.85-.64-9.38-2.24-9.06-4.22.41-2.6,3.48-4.81,9.2-6.62,5.62-1.78,12-2.96,19.15-3.53,4.38-.35,12.08-.66,23.11-.93.38-.01.73-.07.98-.17l3.78-1.45c.21-.08.38-.18.49-.28,4.44-4.16,8.47-7.73,21.62-8.22,9.92-.37,18.91.39,26.96,2.28.98.23,2.29.01,2.44-.4,1.1-3.02,3.11-5.89,7.04-8.58.93-.64,1.95-1.34,3.04-2.09,1.36-.93,4.29-2.26,8.79-3.98,4.17-1.6,8.04-2.75,11.6-3.47.27-.06.62-.04.83.05l.2.08c.13.05.11.13-.04.17-3.19.94-5.84,1.94-7.95,3-.43.22-.38.23.15.04,3.68-1.35,7.31-2.29,10.9-2.82,5.08-.75,8.8-1.26,11.15-1.53,2.51-.28,4.6-.1,6.27.55,3.99,1.55,4.37,3.17,1.16,4.85-.69.36-1.2.61-1.51.75-.2.09-.31.2-.3.32.12,1.77-3.63,4.06-6.88,5.27-4.45,1.66-8.67,3.33-12.65,5-.06.02-.12.05-.19.07l-10.48,3.24c-.2.06-.25.17-.1.25.15.08.43.11.68.07,4.13-.66,8.37-1.25,12.73-1.79,3.21-.39,7.37-1.35,10.93-1.76,8.13-.94,14.89-1.55,20.3-1.81,8.44-.41,17.88-.53,28.31-.36,7.6.13,12.6.73,18.65,2,.67.14,1.15.21,1.44.2,1-.02,1.79-.33,1.83-.7.21-1.91,1.05-3.64,2.54-5.17,2.55-2.64,5.11-4.62,10.89-6.52,7.77-2.55,19.43-2.48,28.17-.67,6.96,1.44,13.47,3.6,19.54,6.47h0Z"/>
      <path class="cls-28" d="M446.38,288.55c-12.94-.37-25.84-.49-38.69-.38-6.79-.36-13.61-.98-20.46-1.86-5.22-.67-8.99-1.32-11.3-1.93-3.28-.87-6.29-1.93-9.03-3.17-.21-.1-.62-.11-.88-.02-4.87,1.62-10.63,3.22-17.2,3.66-12.77.87-24.91-.03-36.43-2.7-4.47-1.04-7.87-2.2-10.22-3.49-.14-.07-.43-.09-.63-.04-.63.18-1.23.25-1.79.22-2.2-1.79,2.88-2.52,5.71-3.15.61-.14,1.14-.31,1.55-.52,2.13-1.09,4.08-1.88,7.8-2.27.26-.03.54.02.63.12,1.78,1.79,3.19,2.99,4.22,3.59,2.58,1.5,6.91,2.44,12.24,2.65,2.59.1,5.27.23,8.03.4,3.21.18,6.02-.07,8.45-.78.89-.26,1.27-.57,1.14-.92-.04-.11.12-.22.4-.27,3.01-.52,5.74-1.31,8.18-2.36.44-.19,1.74-.54,2.67-.77,1.09-.26,2.53-.23,3.53.07,4.79,1.46,10.07,2.82,15.82,4.09,1,.22,2.2.41,3.61.58,9.24,1.08,19.04,1.62,29.39,1.62,2.11,0,6.45-.04,13.01-.11,4.69-.05,8.91-.26,12.65-.61,8.31-.79,14.63-1.65,21.55-3.3,4.93-1.17,10.65-2.33,15.79-4.32.18-.07.29-.15.34-.25,1.8-3.54,1.17-7.17-1.89-10.9-.08-.1-.19-.19-.33-.28-4.9-3.01-7.29-4.58-7.99-7.33-.1-.36,1.08-.59,1.89-.37,8.07,2.23,15.46,5.66,27.33,5.05.36-.02.7-.05,1.03-.11,10.27-1.63,18.73-3.03,23.73-6.88.73-.56,1.35-1.49,1.85-2.79.39-1,.92-1.99,1.6-2.98,3.38,1.16,6.96,3.17,6.75,4.9,0,.03-.02.06-.05.08l-2.9,2.51c-.07.06.04.13.22.14l2.77.16c.45.02.91.02,1.36-.01,5.55-.44,9.54-.64,11.97-.62,15.48.18,26.31,2.7,32.49,7.56.74.58,1.16,1.68,1.26,3.31,0,.13.32.22.68.21l8.95-.35c.17,0,.35,0,.52,0,4.51.17,7.46.28,8.87.33,6.52.22,11.36,1.09,17.17,2.24,5.28,1.04,9.5,2.48,12.67,4.3.53.31,1.31,1.04,2.33,2.2,1.75,1.99-2.21,3.69-6.26,5.01-1.72.56-4.26,1.09-7.63,1.62-11.66,1.8-23.01,1.94-35.77,1.74-.32,0-.63-.02-.93-.05-5.32-.47-10.57-.67-15.13-1.89-.29-.08-.65-.12-1.02-.12-2.08.02-3.09,1.04-4.43,1.1-.23.01-1.94.43-5.15,1.27-5.67,1.47-13.8,2.86-19.06,3.41-.89.09-4.09.31-9.59.65-2.61.16-5.25.22-7.9.16-6.23-.12-12.51-.51-16.09-1.46-2.26-.6-3.51-.92-3.76-.96-1.67-.29-3.64-.28-5.28.04-4.9.95-9.63,1.4-14.31,2.17-5.15.85-8.83,1.42-11.05,1.7-5.82.75-12.15,1.22-19,1.42M527.43,272.17c-.4,0-.69-.05-.88-.12-.25-.1-.16-.25.27-.46.29-.15.5-.33.63-.55.68-1.2.93-2.37.76-3.51-.29-1.98-3.61-3.85-9.9-3.49-7.03.41-13.8,2.48-14.46,5.12-.64,2.55,4.19,4.2,11.02,4.23,4.37.01,8.06.04,11.49-.43.41-.06.6-.23.41-.37-.03-.02.23-.1.8-.23.23-.05.13-.18-.14-.18h0Z"/>
      <path class="cls-24" d="M527.57,272.36c-.57.12-.83.2-.8.23.19.14,0,.31-.41.37-3.43.47-7.12.45-11.49.43-6.83-.02-11.66-1.68-11.02-4.23.66-2.64,7.43-4.71,14.46-5.12,6.29-.36,9.61,1.51,9.9,3.49.17,1.14-.08,2.31-.76,3.51-.13.22-.34.4-.63.55-.43.21-.52.36-.27.46.19.07.48.11.88.12.27,0,.37.13.14.18h0Z"/>
      <path class="cls-27" d="M446.38,288.55c-12.94.51-25.84.38-38.69-.38,12.85-.11,25.75.02,38.69.38h0Z"/>
    </g>
  </g>
</svg>