<svg width="206" height="120" viewBox="0 0 206 120" fill="none" xmlns="http://www.w3.org/2000/svg">
<path fill-rule="evenodd" clip-rule="evenodd" d="M2.68936 9.54379C6.18959 8.83063 171.606 8.54746 203.405 10.5296L205.419 11.8511C205.838 13.7598 205.419 33.0362 204.257 36.2664C169.849 36.9061 38.6106 36.7803 4.48678 36.0986L2.47313 34.7771C1.31089 29.0299 1.94607 11.463 2.68936 9.5333V9.54379Z" fill="url(#paint0_linear_17_4877)"/>
<path fill-rule="evenodd" clip-rule="evenodd" d="M0.675733 8.23281C4.29759 7.48818 172.957 8.40061 203.405 10.5401C203.824 12.4489 203.405 31.7252 202.243 34.9554C167.835 35.5952 36.597 35.4693 2.47315 34.7876C1.10819 32.4698 -0.175674 10.4247 0.675733 8.23281Z" fill="url(#paint1_radial_17_4877)"/>
<path fill-rule="evenodd" clip-rule="evenodd" d="M2.18933 36.7488C35.4212 36.9586 171.011 36.0986 203.919 36.4447L205.986 37.7661C206.095 46.1563 205.5 54.7876 204.811 63.6602C196.553 64.4153 9.852 63.6497 3.9462 62.9785L1.8785 61.6571C0.891949 55.4274 1.6893 39.6749 2.18933 36.7384V36.7488Z" fill="url(#paint2_linear_17_4877)"/>
<path fill-rule="evenodd" clip-rule="evenodd" d="M0.135194 35.4274C34.2861 35.6476 170.241 36.0881 203.919 36.4447C204.027 44.8348 203.432 53.4662 202.743 62.3387C194.486 63.0939 7.78434 62.3387 1.87855 61.6571C0.824428 56.8117 -0.405382 38.6051 0.135194 35.4274Z" fill="url(#paint3_radial_17_4877)"/>
<path fill-rule="evenodd" clip-rule="evenodd" d="M3.08127 64.1531C10.5007 63.6707 184.539 63.1987 203.054 64.0692L205.068 65.3907C205.77 68.4845 206.203 85.1914 205.703 91.2113C171.282 90.7604 36.8808 90.5611 2.32446 91.2113L0.310817 89.8899C0.081072 83.9224 2.54069 66.5128 3.06775 64.1531H3.08127Z" fill="url(#paint4_linear_17_4877)"/>
<path fill-rule="evenodd" clip-rule="evenodd" d="M1.06763 62.8422C9.02761 62.3178 192.202 63.1148 203.067 64.0797C203.77 67.1736 204.203 83.8804 203.703 89.9004C169.281 89.4494 34.8807 89.2501 0.324336 89.9004C-0.324356 88.128 0.445965 65.6109 1.06763 62.8527V62.8422Z" fill="url(#paint5_radial_17_4877)"/>
<path fill-rule="evenodd" clip-rule="evenodd" d="M4.48677 92.0608C12.4738 91.4735 187.364 90.2464 202.554 90.7394L204.567 92.0608C205.324 100.965 205.5 109.879 205.419 118.783C149.28 120.472 54.3279 120.336 2.68935 118.783L0.675708 117.462C0.432449 110.593 3.31102 95.5637 4.50028 92.0608H4.48677Z" fill="url(#paint6_linear_17_4877)"/>
<path fill-rule="evenodd" clip-rule="evenodd" d="M2.47313 90.7394C11.0142 90.1101 195.648 90.1311 202.554 90.7394C203.311 99.6434 203.486 108.558 203.405 117.462C148.537 118.983 61.6527 117.21 0.675717 117.462C0.189198 111.599 1.20278 94.5464 2.47313 90.7394Z" fill="url(#paint7_radial_17_4877)"/>
<g style="mix-blend-mode:multiply" opacity="0.5">
<path d="M53.3954 25.076C54.4766 24.8663 55.5577 24.7195 56.6389 24.6251C57.6119 24.5307 58.612 24.4992 59.6121 24.5307C60.5986 24.5621 61.5852 24.646 62.5447 24.8034C63.1934 24.9082 63.815 25.097 64.4097 25.3277C64.9773 25.5585 65.5178 25.8312 66.0314 26.1353C66.5855 26.4499 67.1125 26.8065 67.5855 27.205C68.018 27.5721 68.4234 27.9602 68.7478 28.3901C69.0586 28.7992 69.3559 29.2501 69.5722 29.7221C69.7884 30.215 69.9235 30.7289 69.91 31.2533C69.8965 31.7462 69.7614 32.2706 69.5046 32.732C69.2613 33.183 68.91 33.5816 68.4505 33.8857C67.7883 34.3262 67.045 34.6723 66.2476 34.9554C65.8962 35.0813 65.5314 35.1862 65.1665 35.2806C61.1257 35.2701 57.1524 35.2491 53.2873 35.2386C52.963 35.1652 52.6521 35.0918 52.3278 35.0079C51.0169 34.6618 49.7465 34.2423 48.5438 33.7389C47.9221 33.4767 47.341 33.0991 46.868 32.6481C46.4085 32.2181 46.0571 31.7043 45.8679 31.1694C45.7057 30.7184 45.7328 30.236 45.8814 29.785C46.0436 29.2816 46.3544 28.7887 46.7058 28.3901C47.1653 27.8658 47.7059 27.3833 48.314 26.9533C48.8951 26.5443 49.5573 26.1982 50.2466 25.936C51.2466 25.5585 52.3143 25.2753 53.3954 25.0656V25.076ZM51.2061 28.0441C47.9626 30.3094 50.7601 32.1762 54.3144 33.2879C57.666 34.3367 60.477 34.6408 63.9637 34.0954C65.3422 33.8857 66.7477 33.4557 67.8423 32.732C68.3964 32.365 68.6937 31.6833 68.7072 31.1169C68.7343 30.4038 68.3018 29.6801 67.8423 29.0823C66.2206 26.9848 63.5177 26.1668 60.5716 26.0829C57.7876 25.999 53.3414 26.5338 51.1926 28.0336L51.2061 28.0441ZM0.986576 24.8243C12.8522 24.5202 21.9339 21.6046 34.9888 19.2868C42.3812 17.9759 49.3546 16.623 56.8551 16.644C66.626 16.6859 76.2213 18.8149 84.8975 23.4085C88.1274 25.118 89.7086 26.6597 89.9924 28.1594C90.2762 29.6382 89.9249 31.1274 88.0463 32.8159C87.0868 33.6759 86.1273 34.515 85.1543 35.3225C86.4922 35.3225 87.8301 35.3225 89.168 35.3225C89.7897 34.7876 90.4249 34.2318 91.0465 33.6759C93.3575 31.5994 94.5603 29.6487 94.1819 27.6665C93.5062 24.0902 83.8569 20.2202 78.6403 18.6156C60.9635 13.183 52.2602 14.3367 34.6239 18.1752C22.5285 20.8076 10.9737 23.01 0.851432 23.0309C0.891975 23.6287 0.932518 24.2265 0.986576 24.8139V24.8243ZM0.540601 17.7137C14.4334 17.5983 25.353 15.6686 35.8943 14.3052C62.342 10.8757 71.0587 10.5401 97.547 19.7798C102.48 21.4997 106.399 23.7126 108.548 25.3907C110.386 26.817 110.656 28.8306 108.831 30.3409C107.494 31.4526 104.466 33.4137 101.236 35.354C102.466 35.354 103.696 35.354 104.926 35.354C107.899 33.6445 110.588 32.0084 111.832 30.9701C112.372 30.5191 112.805 29.9843 113.075 29.4075C113.359 28.8306 113.494 28.2328 113.467 27.6455C113.44 27.0897 113.237 26.5233 112.899 25.999C112.548 25.4431 112.061 24.9292 111.494 24.4887C109.075 22.601 104.304 20.5663 98.9525 18.689C91.2087 15.9832 82.1676 13.5815 77.2483 12.4699C67.3153 10.2255 62.6663 10.6345 52.5981 11.4421C46.7869 11.914 41.2595 12.6272 35.6375 13.3613C25.1638 14.7247 14.2983 16.1301 0.486543 16.0671C0.500057 16.602 0.527086 17.1578 0.554115 17.7137H0.540601ZM0.405457 11.4735C13.3658 11.2008 26.0152 9.42843 38.7323 7.99162C35.3132 7.99162 32.0562 7.98113 28.9884 7.97064C19.5419 8.90405 10.0818 9.6277 0.459514 9.70111C0.432485 10.2045 0.405457 10.8023 0.405457 11.4735ZM78.3836 8.19088C89.4654 11.1799 102.574 16.1091 112.115 18.9408C115.143 19.8427 121.684 21.6361 126.968 23.8175C138.712 28.6523 134.739 31.0016 124.008 34.6093C123.251 34.861 122.495 35.1128 121.724 35.3645C124.238 35.3645 126.738 35.3645 129.225 35.3645C131.063 34.7247 132.847 34.0745 134.495 33.3928C139.198 31.463 139.698 29.4389 138.198 27.5406C135.009 23.5239 119.548 19.119 113.737 17.3991C108.183 15.7525 102.682 14.0115 97.1686 12.3021C93.1548 11.054 88.695 9.56477 84.1542 8.24332C82.2081 8.23283 80.2891 8.21186 78.37 8.20137L78.3836 8.19088ZM98.7498 8.35869C99.0065 8.4321 99.2498 8.50551 99.5066 8.56844C111.872 12.0084 124.387 15.2701 137.009 18.1542C145.185 20.021 156.375 21.269 163.538 24.1322C170.309 26.838 166.984 29.3236 160.957 31.5994C157.335 32.9733 153.605 34.1584 149.875 35.3225C152.361 35.3225 154.807 35.312 157.2 35.3015C159.74 34.4835 162.254 33.634 164.714 32.7006C166.741 31.935 168.389 31.096 169.511 30.215C173.376 27.1421 169.714 24.5936 165.889 23.0624C158.267 20.021 146.672 18.7415 138.036 16.7698C126.914 14.2318 115.873 11.4001 104.939 8.42161C102.872 8.40064 100.804 8.37966 98.7362 8.35869H98.7498ZM176.539 9.53331C176.295 9.55428 176.066 9.56477 175.822 9.58574C161.713 10.5611 151.442 10.8757 139.59 8.84112C136.428 8.79917 133.211 8.74673 129.968 8.70478C146.361 12.7845 158.132 11.935 175.944 10.7079C180.579 10.3933 185.161 10.0682 189.594 9.90037C185.715 9.77452 181.336 9.64867 176.552 9.53331H176.539ZM16.3795 27.9182C14.6226 28.4845 13.4874 29.1872 12.9468 29.8479C12.6495 30.2045 12.5144 30.5611 12.5279 30.9072C12.5279 31.2847 12.7306 31.6308 13.082 31.9035C13.5009 32.2286 14.1766 32.4489 15.0686 32.5013C16.0146 32.5642 18.7715 32.9313 22.6637 33.5606C25.2584 33.9801 28.3397 34.5045 31.6913 35.1232C34.3266 35.1442 37.0565 35.1547 39.881 35.1757C38.881 34.924 37.8539 34.6828 36.7997 34.473C32.7589 33.655 29.0695 32.9733 26.0963 32.4594C24.0827 32.1133 14.974 30.9911 20.4608 28.9775C22.1096 28.3692 25.1098 27.7714 28.9614 26.9429C35.7321 25.4956 42.7326 23.2197 49.5033 22.0451C52.1656 21.5836 54.828 21.248 57.4227 21.1537C59.9905 21.0593 62.4771 21.2061 64.8151 21.7095C67.5855 22.2968 70.6533 23.807 73.0048 25.1914C77.37 27.7609 80.0188 30.1626 75.9645 34.0745C75.5185 34.494 75.0185 34.9135 74.4644 35.333C75.2752 35.333 76.0996 35.333 76.924 35.333C77.1267 35.1652 77.3294 34.9974 77.5186 34.8296C79.5052 33.0467 80.4648 31.1904 80.0323 29.6487C79.9783 29.4494 79.8972 29.2606 79.8026 29.0823C78.9376 27.4777 76.8024 25.7368 74.086 24.258C71.4236 22.8002 68.1937 21.5732 65.0719 20.9544C62.423 20.43 59.6256 20.2727 56.747 20.3671C53.8955 20.4615 50.9628 20.8076 48.0302 21.2795C44.1516 21.9088 40.2729 22.7688 36.5835 23.5868L36.3943 23.6287C32.4616 24.4992 28.8127 25.2229 25.6909 25.8521C21.515 26.6807 18.285 27.3204 16.393 27.9287L16.3795 27.9182Z" fill="#B7805C"/>
</g>
<path style="mix-blend-mode:multiply" fill-rule="evenodd" clip-rule="evenodd" d="M25.6774 25.8312C28.7992 25.2124 32.4481 24.4888 36.3808 23.6078L36.57 23.5658C40.2594 22.7478 44.1381 21.8878 48.0167 21.2586C50.9493 20.7866 53.8819 20.4405 56.7335 20.3461C59.612 20.2517 62.4095 20.4091 65.0583 20.9334C68.1937 21.5522 71.4101 22.7793 74.0725 24.2371C76.7753 25.7158 78.9106 27.4568 79.789 29.0614C79.8836 29.2397 79.9647 29.4389 80.0188 29.6277C80.4512 31.1694 79.4917 33.0362 77.5051 34.8086C77.3159 34.9764 77.1267 35.1442 76.9105 35.312C79.6404 35.312 82.3838 35.3225 85.1543 35.333C86.1273 34.5255 87.0868 33.6865 88.0463 32.8265C89.9248 31.1379 90.2762 29.6487 89.9924 28.1699C89.7086 26.6597 88.1409 25.118 84.8975 23.419C76.2212 18.8359 66.626 16.6964 56.8551 16.6545C49.3546 16.623 42.3677 17.9864 34.9888 19.2974C21.9339 21.6151 12.8522 24.5202 0.986572 24.8349C1.37849 29.6382 1.91907 33.8543 2.48667 34.7981C9.06818 34.924 19.2716 35.0394 31.6913 35.1233C28.3397 34.5045 25.2584 33.9801 22.6637 33.5606C18.7715 32.9313 16.0011 32.5538 15.0686 32.5013C14.1766 32.4489 13.5009 32.2287 13.082 31.9035C12.7306 31.6309 12.5414 31.2953 12.5279 30.9072C12.5279 30.5716 12.6495 30.2045 12.9468 29.848C13.4874 29.1872 14.6226 28.4846 16.3795 27.9182C18.2715 27.3099 21.5014 26.6702 25.6774 25.8417V25.8312Z" fill="url(#paint8_radial_17_4877)"/>
<path style="mix-blend-mode:multiply" fill-rule="evenodd" clip-rule="evenodd" d="M165.903 23.0624C169.727 24.5936 173.39 27.1421 169.525 30.215C168.416 31.096 166.754 31.935 164.727 32.7006C162.254 33.634 159.74 34.4835 157.213 35.3015C176.714 35.2386 192.986 35.1232 202.257 34.945C203.419 31.7148 203.851 12.4384 203.419 10.5296C198.121 10.1521 188.621 9.82697 176.539 9.52283C181.336 9.63819 185.701 9.76404 189.58 9.8899C185.147 10.0682 180.566 10.3828 175.93 10.6974C158.118 11.9245 146.347 12.774 129.954 8.6943C121.765 8.58942 113.359 8.49503 104.939 8.41113C115.872 11.3896 126.914 14.2213 138.036 16.7593C146.672 18.731 158.267 20.0105 165.889 23.0519L165.903 23.0624Z" fill="url(#paint9_radial_17_4877)"/>
<g style="mix-blend-mode:multiply" opacity="0.5">
<path d="M157.118 52.8474C155.997 52.7845 154.888 52.6481 153.821 52.4803C152.848 52.323 151.875 52.1133 150.915 51.8301C149.969 51.5574 149.064 51.2218 148.212 50.8442C147.631 50.5821 147.104 50.2464 146.645 49.8794C146.185 49.5228 145.78 49.1138 145.415 48.7048C145.023 48.2643 144.658 47.7923 144.361 47.2889C144.09 46.8275 143.874 46.3555 143.725 45.8626C143.59 45.3907 143.496 44.8872 143.482 44.3734C143.482 43.849 143.563 43.3141 143.793 42.8107C144.009 42.3387 144.361 41.8668 144.793 41.4892C145.212 41.1222 145.726 40.818 146.293 40.6397C147.104 40.388 147.983 40.2307 148.861 40.1573C149.82 40.0734 150.794 40.0944 151.726 40.1888C152.942 40.3041 154.186 40.4929 155.388 40.7761C156.51 41.0383 157.591 41.3634 158.632 41.7829C159.902 42.2968 161.132 42.8946 162.281 43.5658C163.402 44.216 164.457 44.9397 165.403 45.7263C165.889 46.1353 166.295 46.6387 166.565 47.1945C166.822 47.7294 166.957 48.2957 166.916 48.8621C166.876 49.334 166.659 49.785 166.322 50.194C165.957 50.645 165.457 51.033 164.957 51.3267C164.308 51.7147 163.578 52.0503 162.808 52.302C162.078 52.5432 161.308 52.7215 160.537 52.795C159.416 52.9103 158.281 52.9208 157.159 52.8579L157.118 52.8474ZM160.429 50.5296C164.484 49.1557 162.565 46.6597 159.591 44.709C156.794 42.8736 154.226 41.8773 150.631 41.5312C149.212 41.3948 147.685 41.4473 146.334 41.8773C145.645 42.0975 145.077 42.6743 144.834 43.2197C144.523 43.9014 144.631 44.709 144.834 45.3907C145.536 47.8133 147.793 49.2711 150.591 50.0786C153.24 50.8442 157.74 51.442 160.429 50.5191V50.5296ZM167.984 62.6429C161.943 62.1814 156.105 61.6046 150.321 60.0944C140.928 57.6298 132.576 53.1935 126.116 46.6387C123.711 44.1951 122.832 42.3283 123.184 40.7971C123.521 39.2973 124.467 37.9549 126.981 36.7908C127.562 36.5181 128.143 36.2559 128.725 35.9937L122.954 35.9727C120.738 37.1998 119.346 38.5632 118.967 40.2202C118.143 43.828 125.846 49.9423 130.198 52.774C139.158 58.6051 145.942 61.29 154.037 62.6429C158.943 62.6429 163.619 62.6429 168.011 62.6429H167.984ZM172.471 36.2244C185.039 42.7058 192.026 47.3728 203.513 51.2533C203.554 50.5925 203.581 49.9423 203.621 49.2921C193.296 46.1248 186.404 42.3807 175.538 36.2454C174.525 36.2454 173.511 36.2349 172.471 36.2244ZM141.509 62.6429C132.306 59.8741 124.373 55.5008 112.453 46.9953C108.426 44.1216 105.561 41.0173 104.169 38.8673C103.52 37.8605 103.399 36.8117 103.817 35.8993H100.263C100.169 36.3083 100.169 36.7593 100.25 37.1998C100.358 37.8186 100.615 38.4373 100.979 39.0037C102.534 41.4158 106.277 44.5621 110.669 47.6979C117.008 52.2286 124.711 56.7698 128.995 59.0666C131.941 60.6502 134.428 61.7724 136.82 62.6429C138.401 62.6429 139.968 62.6429 141.523 62.6429H141.509ZM187.161 36.3083C187.62 36.5181 188.08 36.7173 188.553 36.9166C193.769 39.2029 198.77 41.29 203.878 43.0939C203.892 42.4331 203.905 41.7619 203.919 41.1012C199.648 39.6329 195.432 38.0073 191.256 36.3293C189.945 36.3293 188.58 36.3083 187.174 36.2978L187.161 36.3083ZM125.63 62.6114C116.318 57.011 105.966 49.1977 98.0739 44.1951C95.5331 42.58 89.9787 39.2239 85.7893 35.8259H82.1133C86.6947 39.549 92.8438 43.3665 95.871 45.2858C100.533 48.2538 105.115 51.2847 109.71 54.2947C113.615 56.8537 117.954 59.8846 122.481 62.6114H125.63ZM114.467 62.58C111.832 60.9544 109.075 59.2029 105.939 57.2942C95.4521 50.9177 84.7622 44.6775 73.802 38.7729C71.9505 37.7766 69.8828 36.7698 67.7475 35.742L63.8959 35.721C66.8421 37.1159 69.7206 38.4898 72.2343 39.8427C83.6134 45.978 94.7088 52.4489 105.601 59.0771C107.656 60.3251 109.575 61.4892 111.386 62.5695H114.467V62.58ZM21.5418 35.5427C25.2718 36.13 29.1099 36.7069 32.9209 37.399C51.6249 40.8285 63.2202 43.6812 78.5726 53.0781C83.4242 56.0461 87.4786 58.322 92.8978 60.5873C94.4114 61.227 95.8845 61.8668 97.3035 62.517C98.8442 62.517 100.371 62.5275 101.912 62.538C99.3037 61.2375 96.6819 60 93.8979 58.8359C88.5462 56.5915 84.5594 54.3576 79.7754 51.4316C64.2473 41.9192 52.1925 39.7588 33.2723 36.2873C31.9884 36.0566 30.7046 35.8154 29.4342 35.5847C26.6908 35.5742 24.0555 35.5637 21.5418 35.5532V35.5427ZM-0.000149552 39.1505C8.0274 42.108 12.8385 42.4751 21.3391 42.6534C45.5569 43.1882 56.2198 52.5223 76.113 60.5349C77.6806 61.1641 79.2618 61.8039 80.843 62.4436C82.6809 62.4436 84.5189 62.4646 86.3704 62.4646C83.2621 61.1536 80.1808 59.8741 77.14 58.6471C60.3011 51.8615 40.8674 41.7305 21.5823 40.9124C12.9331 40.5453 8.39229 40.0839 -0.0136639 36.8747C-0.0406927 37.5039 -0.0406927 38.28 -0.0136639 39.1505H-0.000149552ZM0.283653 45.9465C15.5414 50.8128 29.0964 49.4704 45.3947 54.3576C52.5709 56.5076 59.8416 59.5176 67.1124 62.3702C68.5854 62.3702 70.0585 62.3912 71.5451 62.3912C67.6935 60.9334 63.9905 59.4861 60.8957 58.5107C58.5172 57.7556 56.2062 56.8537 53.8953 55.9517C32.5966 47.656 18.6768 48.8831 0.162023 43.7546C0.202566 44.4677 0.24311 45.2019 0.283653 45.957V45.9465ZM0.756657 52.4593C5.29749 53.6759 10.2843 54.5464 15.1225 54.9764C32.7317 56.5495 39.57 59.1715 49.3815 62.2653C51.6113 62.2758 53.8953 62.2968 56.2062 62.3073C55.7062 62.1709 55.1927 62.0346 54.6926 61.9087C41.9215 58.4898 34.3399 55.8993 15.609 53.3403C10.4195 52.6272 5.4867 51.5259 0.567455 50.2464C0.621513 50.9911 0.689085 51.7357 0.743142 52.4593H0.756657ZM1.24318 57.399C7.20303 58.7415 13.3656 60.1049 19.6363 61.3214C20.9201 61.5731 22.204 61.8144 23.4879 62.0556C26.7584 62.087 30.3262 62.1185 34.1507 62.15C23.15 60.0524 12.0277 58.0388 1.04046 55.5742C1.10803 56.2035 1.1756 56.8117 1.24318 57.3886V57.399ZM1.85132 61.5417L2.74327 61.72C4.18931 61.7829 7.13545 61.8458 11.3114 61.9087C8.04092 61.227 4.79746 60.5349 1.54049 59.8007C1.63509 60.4824 1.74321 61.0697 1.83781 61.5417H1.85132ZM193.904 59.2973C195.823 59.1924 197.202 58.7939 197.999 58.2905C198.432 58.0178 198.702 57.7032 198.837 57.3781C198.986 57.011 198.945 56.6334 198.716 56.2873C198.445 55.8678 197.891 55.4903 197.053 55.2176C196.175 54.924 193.661 53.8752 190.174 52.3125C187.296 51.0225 183.782 49.3865 179.985 47.5406C176.403 45.7997 173.39 43.8804 170.565 42.087C166.741 39.6539 163.267 37.441 159.199 36.1615C157.078 36.151 154.929 36.1405 152.726 36.13C152.821 36.13 152.915 36.13 153.01 36.1405C158.983 36.4761 163.227 39.3183 168.119 42.5904C170.754 44.3524 173.565 46.2402 176.944 47.9392C180.498 49.7326 183.769 51.3057 186.417 52.5328C188.215 53.3718 196.513 56.7069 190.404 57.2732C188.566 57.441 185.444 57.2837 181.39 57.1159C174.282 56.8222 166.605 57.2837 159.605 56.7383C156.848 56.5286 154.145 56.1825 151.618 55.6371C149.118 55.0918 146.78 54.3262 144.739 53.2669C142.32 52.0084 139.982 49.806 138.293 47.8867C135.144 44.3314 133.59 41.3634 139.104 38.6051C141.347 37.4829 144.401 36.6125 147.807 36.2559C148.537 36.1825 149.266 36.13 150.023 36.0986C147.401 36.0881 144.739 36.0776 142.036 36.0566C140.496 36.4552 139.104 36.9376 137.914 37.4829C135.265 38.6995 133.576 40.2622 133.36 41.8458C133.333 42.0451 133.333 42.2548 133.36 42.4541C133.536 44.216 134.874 46.4184 136.874 48.516C138.833 50.5716 141.428 52.5537 144.185 53.9276C146.509 55.0918 149.145 55.9308 151.956 56.56C154.74 57.1788 157.699 57.5773 160.727 57.8395C164.727 58.1961 168.808 58.3324 172.687 58.4583H172.876C177.025 58.5946 180.836 58.8044 184.093 58.9827C188.458 59.2239 191.823 59.4022 193.904 59.2868V59.2973Z" fill="#B7805C"/>
</g>
<path style="mix-blend-mode:multiply" fill-rule="evenodd" clip-rule="evenodd" d="M150.605 50.0892C153.253 50.8548 157.754 51.4526 160.443 50.5297C164.497 49.1558 162.578 46.6597 159.605 44.709C156.808 42.8737 154.24 41.8773 150.645 41.5312C149.226 41.3949 147.699 41.4473 146.347 41.8773C145.658 42.0976 145.091 42.6744 144.847 43.2197C144.537 43.9014 144.645 44.709 144.847 45.3907C145.55 47.8133 147.807 49.2711 150.605 50.0787V50.0892Z" fill="url(#paint10_radial_17_4877)"/>
<path style="mix-blend-mode:multiply" fill-rule="evenodd" clip-rule="evenodd" d="M105.588 59.0771C94.6954 52.4594 83.6 45.978 72.2209 39.8427C69.6937 38.4793 66.8152 37.1159 63.8825 35.721C51.3952 35.6686 39.6512 35.6162 29.4343 35.5742C30.7047 35.8154 31.9885 36.0462 33.2724 36.2769C52.1926 39.7483 64.2339 41.9088 79.7755 51.4211C84.5596 54.3472 88.5463 56.581 93.898 58.8254C96.682 59.9895 99.3038 61.2376 101.912 62.5275C105.074 62.538 108.237 62.5485 111.386 62.559C109.561 61.4788 107.656 60.3251 105.601 59.0666L105.588 59.0771Z" fill="url(#paint11_radial_17_4877)"/>
<path style="mix-blend-mode:multiply" fill-rule="evenodd" clip-rule="evenodd" d="M76.1267 60.5349C56.2335 52.5223 45.5571 43.1883 21.3529 42.6534C12.8523 42.4646 8.04117 42.108 0.0136108 39.1505C0.0271252 40.4824 0.0946973 42.0661 0.175784 43.7546C18.6905 48.8831 32.6104 47.656 53.9226 55.9623C56.2335 56.8642 58.5445 57.7661 60.923 58.5212C64.0178 59.4966 67.7208 60.9439 71.5724 62.4017C74.6401 62.4227 77.7485 62.4332 80.8838 62.4436C79.2891 61.8039 77.7079 61.1641 76.1538 60.5349H76.1267Z" fill="url(#paint12_radial_17_4877)"/>
<path style="mix-blend-mode:multiply" fill-rule="evenodd" clip-rule="evenodd" d="M175.552 36.235C186.418 42.3702 193.31 46.1144 203.635 49.2816C203.743 47.2051 203.824 45.1495 203.878 43.0939C198.783 41.29 193.783 39.1925 188.553 36.9167C188.093 36.7174 187.62 36.5076 187.161 36.3084C183.593 36.2874 179.701 36.2559 175.552 36.235ZM130.171 52.7845C125.819 49.9528 118.116 43.8385 118.94 40.2308C119.319 38.5737 120.711 37.2103 122.927 35.9833C116.616 35.9518 110.223 35.9308 103.804 35.8994C103.399 36.8118 103.52 37.871 104.156 38.8674C105.534 41.0173 108.399 44.1217 112.44 46.9953C124.36 55.4903 132.306 59.8742 141.496 62.6429C145.78 62.6429 149.969 62.6429 153.997 62.6534C145.901 61.3005 139.117 58.6157 130.157 52.7845H130.171Z" fill="url(#paint13_radial_17_4877)"/>
<g style="mix-blend-mode:multiply" opacity="0.5">
<path d="M50.5574 89.5228C57.8417 88.6104 65.9503 87.3938 72.7751 88.3063C74.6671 88.558 76.7213 88.967 78.9106 89.4704C80.8297 89.4704 82.7622 89.4704 84.6948 89.4704C80.681 88.4216 76.6672 87.6036 72.9102 87.3414C64.761 86.7541 55.1388 88.0755 46.9626 88.9565C45.1111 89.1558 43.2596 89.355 41.4082 89.5543C44.3813 89.5438 47.4356 89.5333 50.5574 89.5228ZM0.256803 89.6172C6.87886 89.5543 13.4333 89.1872 20.0689 88.8726C39.7729 87.9392 56.7065 81.3424 77.6132 84.4153C85.1002 85.5165 91.0466 87.3204 98.5335 89.4809C100.426 89.4809 102.304 89.4809 104.196 89.4809C103.75 89.355 103.304 89.2292 102.858 89.1033C92.5466 86.2297 85.2759 84.3105 77.8295 83.4085C70.383 82.5066 62.815 82.6219 51.9494 83.849C41.3406 85.0446 30.8399 86.838 20.1095 87.3519C13.4469 87.6665 6.78426 87.7399 0.121659 87.7609C0.148688 88.5999 0.202745 89.2397 0.256803 89.6172ZM134.658 89.5228C133.063 89.1348 131.428 88.7048 129.725 88.2328C124.17 86.6702 119.602 85.5585 113.791 84.7614C98.8173 82.7058 87.6274 79.0247 71.5047 78.6576C61.2067 78.4269 49.706 79.9476 39.3945 81.0698C26.7315 82.4437 14.1496 83.8175 0.0811157 83.849C0.0811157 84.4363 0.0811157 85.0026 0.0811157 85.527C14.2442 85.4851 26.8802 84.1112 39.5837 82.7373C49.8141 81.6256 61.2743 79.5176 71.4777 79.7483C80.654 79.9581 89.3843 81.8249 98.1957 83.7022C103.372 84.8139 108.304 85.8521 113.589 86.5758C118.67 87.268 122.778 88.2119 127.468 89.4914C129.887 89.4914 132.292 89.4914 134.671 89.5019L134.658 89.5228ZM203.905 82.2968C197.04 81.8773 192.702 82.6849 185.742 84.3105C163.551 89.4914 150.226 83.5134 129.049 80.8915C113.156 78.9198 95.7766 76.7698 80.8567 75.7525C71.1804 75.0918 60.8689 76.0042 51.2466 76.9691C47.2599 77.3676 43.2326 77.8186 39.2323 78.2696C26.5423 79.6959 14.1496 81.0907 0.108145 80.9964C0.108145 81.5522 0.0946301 82.0976 0.0811157 82.6324C14.2307 82.7268 26.6639 81.332 39.408 79.8951C52.071 78.4688 68.4775 76.0042 80.7351 76.8432C95.6009 77.8605 112.967 80.8705 128.833 82.8422C146.766 85.0656 168.349 89.7116 186.174 85.9465C193.053 84.4887 197.202 83.807 203.892 84.258C203.892 83.6183 203.892 82.968 203.892 82.2968H203.905ZM203.838 76.4027C187.972 75.4903 176.147 79.9371 159.362 79.3078C146.685 78.8254 132.779 76.1091 120.021 75.7525C114.913 75.6057 109.818 75.3435 104.71 74.8401C101.128 74.494 98.0605 74.1479 95.236 73.8438C86.776 72.9104 80.3972 72.2077 72.1399 72.4069C63.4231 72.6167 54.7739 73.5186 46.1517 74.4101C30.9345 75.9937 15.501 77.7032 0.175717 77.9444C0.162202 78.5527 0.148688 79.1505 0.135173 79.7483C15.5821 79.4652 31.6778 77.2837 46.3274 75.5008C54.882 74.452 63.4772 73.4662 72.1264 73.2564C88.222 72.8684 101.588 77.0215 119.927 77.2208C127.508 77.3047 137.117 78.8254 143.658 79.161C146.118 79.2869 148.564 79.57 151.01 79.8427C173.322 82.3702 185.458 78.1332 203.878 78.343C203.878 77.6927 203.851 77.0425 203.838 76.4027ZM203.635 70.687C198.202 70.4038 192.175 70.7604 186.62 71.6623C167.633 74.7457 160.902 73.2669 148.104 72.8684C142.401 72.6901 136.752 72.8055 131.049 72.8894C119.346 73.0572 109.75 72.4384 98.1416 71.2428C90.4519 70.4562 82.6541 69.6697 74.8968 69.5962C62.8014 69.4809 49.7601 70.9177 37.7187 71.9769C25.4071 73.0572 13.3928 74.1164 0.310861 74.5569C0.283832 75.2386 0.256803 75.9203 0.243289 76.602C24.7584 75.7001 52.6251 70.7184 74.8968 70.9282C82.5865 71.0016 90.3573 71.5574 97.9794 72.3335C109.656 73.5291 119.211 74.8191 130.982 74.6513C136.671 74.5674 142.32 74.5779 148.01 74.6303C160.943 74.7457 168.835 75.333 186.837 73.2669C192.513 72.6167 198.094 72.5013 203.757 72.5747C203.73 71.9245 203.703 71.2848 203.676 70.6765L203.635 70.687ZM203.324 66.0724C195.851 66.2926 187.985 66.4919 180.039 66.9638C155.159 68.4321 131.536 70.9387 103.088 67.5616C93.6683 66.4395 84.1542 65.4956 74.8158 65.4956C60.0445 65.4956 44.2056 66.7436 29.4074 67.9497C19.8392 68.7363 10.4061 69.5123 0.500062 69.7326C0.459519 70.4143 0.43249 71.117 0.405461 71.8406C9.825 72.0189 19.4608 71.2113 29.5425 69.9633C44.1921 68.1489 60.0986 66.6073 74.8158 66.6073C89.5329 66.6073 105.183 69.3131 120.373 70.3304C147.591 72.1447 175.336 68.2748 203.459 67.7294C203.419 67.1316 203.378 66.5758 203.324 66.0934V66.0724ZM179.606 63.5449C176.187 63.7336 172.782 63.9119 169.403 64.0588C156.294 64.6356 144.253 65.118 132.279 65.0446C120.873 64.9712 109.48 64.3944 97.2091 62.8946C93.1953 62.8736 89.1951 62.8527 85.2218 62.8422C88.2491 63.1253 91.506 63.5239 95.1684 64.0692C133.603 69.785 167.376 64.6251 201.905 64.0273C198.635 63.87 190.634 63.7127 179.606 63.5658V63.5449ZM33.4076 62.6744C22.5285 63.5553 11.7711 64.7195 0.837922 64.6251C0.810893 64.8558 0.797379 65.097 0.77035 65.3592C13.7307 65.1914 25.5287 64.6251 38.0296 63.7441C42.4488 63.4295 46.9491 63.1149 51.5439 62.8212C52.098 62.7897 52.6521 62.7478 53.1927 62.7163C46.1112 62.6954 39.4486 62.6849 33.4076 62.6849V62.6744Z" fill="#B7805C"/>
</g>
<path style="mix-blend-mode:multiply" fill-rule="evenodd" clip-rule="evenodd" d="M129.049 80.8914C150.226 83.5134 163.551 89.4913 185.742 84.3104C192.702 82.6848 197.04 81.8773 203.905 82.2968C203.905 81.0173 203.905 79.6854 203.878 78.3429C185.458 78.1332 173.322 82.3702 151.01 79.8427C148.564 79.57 146.118 79.2868 143.658 79.161C137.131 78.8254 127.522 77.3047 119.927 77.2208C101.588 77.0215 88.222 72.8579 72.1264 73.2564C63.4772 73.4662 54.882 74.4625 46.3274 75.5008C31.6778 77.2837 15.5821 79.4756 0.135183 79.7483C0.135183 80.1678 0.121669 80.5873 0.108154 80.9963C14.1361 81.0907 26.5423 79.6959 39.2323 78.2695C43.2326 77.8186 47.2599 77.3676 51.2466 76.9691C60.8689 76.0042 71.1804 75.0918 80.8567 75.7525C95.7766 76.7698 113.156 78.9198 129.049 80.8914Z" fill="url(#paint14_radial_17_4877)"/>
<path style="mix-blend-mode:multiply" fill-rule="evenodd" clip-rule="evenodd" d="M148.091 72.8684C160.902 73.2669 167.633 74.7457 186.607 71.6623C192.161 70.7604 198.189 70.4038 203.621 70.6869C203.567 69.6172 203.513 68.6104 203.446 67.7189C175.309 68.2643 147.577 72.1447 120.359 70.3199C105.169 69.3026 90.0735 66.5967 74.8022 66.5967C59.5309 66.5967 44.1786 68.1384 29.529 69.9528C19.4337 71.2008 9.81147 72.0084 0.391929 71.8301C0.351385 72.7111 0.310842 73.6235 0.283813 74.5464C13.3658 74.1059 25.3801 73.0572 37.6917 71.9664C49.733 70.9072 62.7744 69.4704 74.8698 69.5857C82.6271 69.6591 90.4249 70.4457 98.1146 71.2323C109.723 72.4174 119.332 73.0467 131.022 72.8789C136.725 72.795 142.388 72.6796 148.077 72.8579L148.091 72.8684Z" fill="url(#paint15_radial_17_4877)"/>
<g style="mix-blend-mode:multiply" opacity="0.5">
<path d="M203.392 108.013C199.743 111.169 196.08 114.421 192.526 117.714C193.648 117.693 194.756 117.672 195.851 117.651C198.337 115.27 200.851 112.91 203.419 110.561C203.419 109.712 203.405 108.862 203.392 108.013ZM203.203 101.07C201.473 102.653 199.77 104.258 198.067 105.873C193.905 109.837 189.729 113.823 185.593 117.84C186.404 117.829 187.202 117.819 187.999 117.798C191.675 114.179 195.472 110.519 199.432 106.754C200.689 105.558 201.973 104.352 203.27 103.167C203.243 102.475 203.23 101.772 203.189 101.08L203.203 101.07ZM202.581 91.0331C196.999 96.9586 193.296 102.853 186.756 109.586C183.661 112.774 180.782 115.364 177.917 117.934C178.647 117.934 179.363 117.913 180.093 117.913C182.769 115.396 185.81 113.12 188.35 110.509C191.067 107.719 193.486 104.95 195.891 102.213C198.31 99.4547 200.567 96.9796 202.865 94.6513C202.784 93.4452 202.689 92.2496 202.594 91.0436L202.581 91.0331ZM194.486 90.5611L194.256 90.7814C191.675 93.183 189.134 95.6791 186.634 98.2381C180.485 104.499 174.025 111.285 168.268 118.018C169.065 118.018 169.863 118.007 170.646 117.997C173.822 114.033 177.336 110.089 181.863 105.475C186.931 100.315 192.283 95.4274 197.851 90.6136C196.864 90.6031 195.743 90.5821 194.499 90.5716L194.486 90.5611ZM187.242 90.4982C183.296 94.3996 179.471 98.364 175.714 102.381C170.822 107.625 166.268 112.68 162.078 118.049C162.767 118.049 163.457 118.049 164.146 118.049C166.592 115.102 169.322 112.04 172.201 108.883C177.755 102.821 184.026 96.5496 190.431 90.5297C189.418 90.5297 188.35 90.5087 187.229 90.4982H187.242ZM179.755 90.4458C177.093 93.2145 174.403 95.9937 171.66 98.7835C168.187 102.318 164.727 105.852 161.794 109.68C159.713 112.396 157.889 115.218 156.132 118.07C156.632 118.07 157.145 118.07 157.645 118.07C159.213 115.427 160.875 112.847 162.74 110.404C166.511 105.475 173.633 98.1332 181.674 90.4667C181.039 90.4667 180.404 90.4667 179.742 90.4562L179.755 90.4458ZM171.295 90.4038C170.079 91.935 168.822 93.5082 167.497 95.1337C162.254 101.605 157.186 107.845 152.375 115.396C151.807 116.277 151.267 117.179 150.74 118.081C151.659 118.081 152.564 118.081 153.47 118.081C158.118 110.435 162.822 103.471 168.971 95.8993C170.322 94.2423 171.795 92.386 173.349 90.4143C172.674 90.4143 171.971 90.4143 171.282 90.4143L171.295 90.4038ZM163.051 90.3723C161.889 92.0504 160.727 93.7284 159.538 95.3959C154.375 102.664 150.334 110.467 146.347 118.081C146.793 118.081 147.226 118.081 147.672 118.081C152.078 110.708 156.645 103.461 161.727 96.3084C163.146 94.3052 164.524 92.3335 165.876 90.3723C164.943 90.3723 163.997 90.3723 163.051 90.3723ZM76.3969 117.745C76.3969 117.745 76.5321 117.651 76.5996 117.598C77.4916 116.959 78.4376 116.382 79.4241 115.878C80.0999 115.532 80.8432 115.281 81.6135 115.092C82.3568 114.914 83.1406 114.788 83.9109 114.693C84.7353 114.599 85.5867 114.557 86.4381 114.567C87.222 114.588 87.9923 114.662 88.7491 114.809C89.4789 114.945 90.2222 115.144 90.9384 115.406C91.6817 115.679 92.3574 116.036 92.925 116.508C93.398 116.896 93.817 117.368 94.1143 117.871H92.4115C92.2358 117.609 92.0196 117.378 91.7898 117.189C91.0195 116.56 89.8437 116.224 88.7896 116.015C85.4245 115.364 82.4514 116.203 79.9782 117.766L76.4239 117.745H76.3969ZM59.8553 117.63C61.5851 115.899 63.4366 114.242 65.5043 112.659C73.9643 106.156 84.5866 101.594 97.155 99.7378C101.831 99.0456 104.899 99.3183 106.804 100.43C108.683 101.521 110.048 103.031 110.291 105.747C110.696 110.005 110.818 114.095 110.372 117.976C111.548 117.976 112.724 117.986 113.899 117.997C114.413 113.739 114.278 109.219 113.832 104.499C113.521 101.164 112.386 98.6891 109.859 97.2313C105.304 94.5989 92.7088 97.7242 86.4516 99.8217C71.356 104.887 63.8556 109.796 56.8551 117.609C57.8552 117.609 58.8552 117.619 59.8553 117.63ZM51.4629 117.577C64.7745 103.723 73.5048 97.7347 97.101 90.278C95.3441 90.278 93.5737 90.278 91.8168 90.278C86.4246 92.1867 81.5864 94.0955 78.4241 95.4484C67.3828 100.157 63.8285 103.608 56.0713 111.033C53.8008 113.204 51.6656 115.375 49.5979 117.556H51.4764L51.4629 117.577ZM125.441 90.2884C125.427 93.2669 124.522 99.4232 123.481 104.279C122.332 109.659 122.103 113.886 121.251 118.018C121.94 118.018 122.63 118.018 123.332 118.018C124.332 113.854 124.968 109.407 126.062 104.269C127.035 99.7064 128.279 93.8857 128.63 90.278C127.576 90.278 126.508 90.278 125.441 90.278V90.2884ZM40.0972 117.514C40.8946 116.686 41.6919 115.857 42.5028 115.029C48.6654 108.705 55.1523 100.461 63.3826 95.9623C66.9098 94.0325 71.4777 92.1343 76.5591 90.2884C74.8833 90.2884 73.2075 90.2884 71.5452 90.2884C68.1802 91.7252 65.0583 93.2774 62.3825 94.9974C54.4766 100.084 47.4626 107.876 41.2054 114.295C40.1648 115.364 39.1242 116.424 38.0971 117.483C38.7593 117.483 39.435 117.483 40.0972 117.483V117.514ZM139.617 90.3094C138.915 91.7253 138.239 93.1411 137.631 94.5255C134.468 101.814 133.793 110.226 131.495 118.06C132.225 118.06 132.955 118.06 133.671 118.06C134.347 115.931 134.941 113.791 135.536 111.662C137.212 105.653 139.05 100.241 141.604 94.3681C142.185 93.0257 142.82 91.6728 143.496 90.3094C142.212 90.3094 140.901 90.3094 139.604 90.3094H139.617ZM31.7048 117.472C39.9486 107.708 47.7869 97.913 61.1256 90.3094C60.2742 90.3094 59.4363 90.3094 58.5985 90.3094C52.4224 94.2528 46.6923 99.1505 39.7864 106.335C36.2727 109.995 32.8941 113.739 29.4749 117.452C30.2182 117.452 30.9615 117.452 31.7048 117.452V117.472ZM154.443 90.3514C150.307 99.3603 145.969 109.019 141.117 118.091C142.131 118.091 143.131 118.091 144.131 118.091C144.51 117.368 144.874 116.644 145.226 115.92C148.172 109.953 150.604 103.849 153.551 97.871C154.794 95.354 156.064 92.8474 157.362 90.3514C156.402 90.3514 155.429 90.3514 154.456 90.3514H154.443ZM48.5032 90.3514C40.1783 96.9586 32.5967 105.223 25.4882 112.533C23.8935 114.169 22.2988 115.815 20.6906 117.452C21.8123 117.452 22.9475 117.452 24.0827 117.452C25.2449 116.266 26.3936 115.071 27.5559 113.886C34.9618 106.272 42.3271 97.0949 51.0304 90.3409C50.179 90.3409 49.3411 90.3409 48.5032 90.3409V90.3514ZM42.0163 90.3723C38.2728 93.7703 34.7185 97.2942 31.2994 100.724C28.2181 103.828 25.1638 107.006 22.1366 110.152C19.7851 112.596 17.4471 115.029 15.0821 117.441C16.1768 117.441 17.2849 117.441 18.3931 117.441C20.3257 115.459 22.2447 113.466 24.1638 111.463C30.3263 105.055 37.3808 97.1998 44.7732 90.3619C43.8407 90.3619 42.9353 90.3619 42.0163 90.3619V90.3723ZM35.5159 90.3933C31.5156 94.1794 27.691 98.0703 23.8664 101.951C18.785 107.111 13.7036 112.313 8.48706 117.441C9.47361 117.441 10.4737 117.441 11.4737 117.441C16.2443 112.501 20.8122 107.541 25.2584 102.811C29.2046 98.6157 33.1779 94.4206 37.3808 90.3933H35.5159ZM29.2317 90.4248C23.8394 95.4694 18.6499 100.692 13.582 105.632C9.50064 109.607 5.45983 113.54 1.32442 117.462C2.48666 117.462 3.66241 117.462 4.83817 117.452C13.9874 108.264 22.961 98.7835 32.0156 90.4143C31.0696 90.4143 30.1371 90.4143 29.2317 90.4248ZM20.0148 90.4772C13.6901 96.2035 7.54105 102.077 1.62174 107.761L0.635189 108.705C0.581132 110.267 0.540588 111.767 0.540588 113.12C1.70283 111.914 2.86507 110.697 4.0273 109.449C9.90607 103.157 16.1903 96.6754 22.7853 90.4667C21.8393 90.4667 20.9068 90.4772 20.0148 90.4877V90.4772ZM9.55469 90.5821C7.23022 92.7321 4.97331 94.8401 2.74344 96.9167C2.27043 97.3676 1.78391 97.8081 1.31091 98.2591C1.21631 99.2135 1.13522 100.21 1.05414 101.227C2.18935 100.189 3.32455 99.14 4.45976 98.0808C7.1221 95.6057 9.82498 93.0887 12.5684 90.5401C11.4873 90.5506 10.4737 90.5611 9.55469 90.5716V90.5821ZM103.318 117.934C103.493 116.728 103.52 115.574 103.426 114.515C103.155 111.652 101.926 109.407 99.8309 108.369C99.5606 108.233 99.2903 108.128 99.0065 108.034C96.4793 107.237 92.7088 107.163 88.7356 107.698C84.8299 108.222 80.6945 109.324 77.3024 110.876C74.4373 112.187 71.8561 113.928 69.4911 115.931C68.8288 116.497 68.1666 117.084 67.5315 117.682H69.2478C69.8019 117.168 70.3695 116.654 70.9506 116.151C73.0589 114.358 75.3563 112.826 77.924 111.694C80.9648 110.351 85.2759 109.596 88.8302 109.219C95.4387 108.516 100.398 108.81 101.236 114.893C101.372 115.836 101.385 116.843 101.277 117.913H103.304L103.318 117.934Z" fill="#B7805C"/>
</g>
<path style="mix-blend-mode:multiply" fill-rule="evenodd" clip-rule="evenodd" d="M126.062 104.289C124.968 109.428 124.333 113.886 123.332 118.039C126.062 118.049 128.792 118.06 131.495 118.07C133.793 110.236 134.468 101.814 137.631 94.5359C138.239 93.1516 138.901 91.7357 139.617 90.3199C136.022 90.3199 132.36 90.3094 128.63 90.2989C128.279 93.9067 127.035 99.7274 126.062 104.289ZM56.0578 111.033C63.8285 103.608 67.3828 100.157 78.4106 95.4484C81.5865 94.0955 86.4246 92.1972 91.8033 90.278C86.6679 90.278 81.5594 90.2779 76.5456 90.2884C71.4642 92.1343 66.8963 94.0325 63.369 95.9623C55.1388 100.461 48.6519 108.705 42.4893 115.029C41.692 115.857 40.8811 116.686 40.0837 117.514C43.2191 117.535 46.3815 117.546 49.5708 117.567C51.6521 115.375 53.7873 113.204 56.0442 111.044L56.0578 111.033Z" fill="url(#paint16_radial_17_4877)"/>
<path style="mix-blend-mode:multiply" fill-rule="evenodd" clip-rule="evenodd" d="M101.236 114.893C100.398 108.81 95.4522 108.516 88.8302 109.219C85.2759 109.596 80.9513 110.351 77.924 111.694C75.3563 112.826 73.0589 114.358 70.9506 116.151C70.3695 116.644 69.8019 117.158 69.2478 117.693C71.6263 117.714 74.0049 117.724 76.3969 117.745C76.4645 117.693 76.5321 117.651 76.5996 117.598C77.4916 116.959 78.4376 116.382 79.4241 115.878C80.0999 115.532 80.8432 115.281 81.6135 115.092C82.3568 114.914 83.1406 114.788 83.9109 114.693C84.7353 114.599 85.5867 114.557 86.4381 114.567C87.222 114.588 87.9923 114.662 88.7491 114.809C89.4789 114.945 90.2221 115.144 90.9384 115.406C91.6817 115.679 92.3574 116.036 92.925 116.508C93.398 116.896 93.817 117.368 94.1143 117.871C96.5063 117.892 98.9119 117.902 101.304 117.923C101.412 116.854 101.385 115.836 101.263 114.903L101.236 114.893Z" fill="url(#paint17_radial_17_4877)"/>
<path style="mix-blend-mode:screen" fill-rule="evenodd" clip-rule="evenodd" d="M2.20284 9.99463C2.32447 9.99463 2.4461 9.99463 2.56773 9.99463C24.3124 9.53317 45.8814 9.22903 67.4504 9.01927C86.9111 8.8305 106.372 8.72562 125.954 8.66269C69.0045 7.94953 2.93262 7.77124 0.675711 8.2327C0.337851 9.10318 0.337851 13.0885 0.540567 17.724V18.0177L0.554081 18.0282V18.0387C0.554081 18.175 0.554081 18.3009 0.567596 18.4372V18.4582V18.4792C0.783826 22.842 1.16223 27.6559 1.62172 30.949C1.62172 26.7434 1.67578 22.6533 1.81092 18.5316C6.74368 18.6784 11.9062 18.3428 17.6903 17.5562C23.2312 16.8011 28.7181 15.8363 34.232 14.9658C39.6107 14.1163 44.6921 13.3612 49.9762 12.669C45.8003 13.057 41.1919 13.6234 35.8807 14.3051C25.6774 15.6265 15.1091 17.4828 1.82444 17.7031C1.90552 15.1546 2.02715 12.5956 2.18932 9.99463H2.20284Z" fill="url(#paint18_linear_17_4877)"/>
<path style="mix-blend-mode:screen" fill-rule="evenodd" clip-rule="evenodd" d="M3.48671 35.4483C2.28393 35.4483 1.14872 35.4379 0.121621 35.4274C-0.283811 37.871 0.337852 49.1662 1.1352 56.4761C1.2298 50.4772 1.3244 44.6775 1.95958 38.6681C2.02715 38.0283 2.10824 37.3886 2.18932 36.7488C2.18932 36.7174 2.18932 36.6859 2.18932 36.6544C15.2578 36.6544 28.2991 36.7278 41.327 36.7488C50.8141 36.7593 60.3013 36.7488 69.7748 36.6649C70.9236 36.6544 72.0858 36.6439 73.2345 36.6335C83.7487 36.5181 94.2494 36.2978 104.764 35.9098C64.0042 35.7315 22.7177 35.5742 3.45968 35.4588L3.48671 35.4483Z" fill="url(#paint19_linear_17_4877)"/>
<path style="mix-blend-mode:screen" fill-rule="evenodd" clip-rule="evenodd" d="M0.0676126 85.6214C0.405473 83.0624 0.79739 80.3671 1.17579 77.6717C1.48662 75.4588 1.77043 73.2355 2.00017 71.096C2.20289 69.1243 2.36506 67.205 2.41912 65.4117C2.44615 64.7929 2.27046 64.1951 1.89206 63.5973C6.7167 63.6288 11.5413 63.6812 16.366 63.6812C31.0561 63.6602 45.8003 63.7231 60.5446 63.6917C62.8555 63.6917 65.18 63.6917 67.491 63.6707C68.964 63.6707 70.4371 63.6602 71.8967 63.6497C86.303 63.5763 100.709 63.398 115.062 62.968C67.4774 62.6849 16.0416 62.559 3.60839 62.7583C2.32452 62.7793 1.4596 62.8002 1.05416 62.8317C0.58116 64.9292 0.013555 78.4898 0.0676126 85.6214Z" fill="url(#paint20_linear_17_4877)"/>
<path style="mix-blend-mode:screen" fill-rule="evenodd" clip-rule="evenodd" d="M1.58117 104.384C2.40555 98.9827 3.33804 96.644 3.06776 91.1904C3.06776 91.1379 3.06776 91.096 3.06776 91.0435C4.12188 91.075 5.16249 91.1065 6.21661 91.1379C25.4746 91.6833 44.584 91.3582 63.7339 90.8128C69.3559 90.6555 74.9779 90.4667 80.6134 90.2884C40.9486 90.3304 6.06795 90.4772 2.47312 90.7394C2.43258 90.8757 2.37852 91.033 2.33798 91.2009C1.35143 94.8925 0.567592 106.125 0.554077 113.256C0.864908 110.288 1.1352 107.32 1.59469 104.373L1.58117 104.384Z" fill="url(#paint21_linear_17_4877)"/>
<path style="mix-blend-mode:multiply" fill-rule="evenodd" clip-rule="evenodd" d="M31.5562 115.176C69.6668 114.421 156.983 113.959 191.445 115.291C192.229 115.322 193.269 115.396 193.851 114.976C194.432 114.557 194.378 113.77 194.391 113.152C194.432 111.138 194.58 108.82 194.472 107.205L186.85 106.681L194.351 105.296C193.648 94.2737 193.161 83.1777 192.905 72.0503L188.837 70.9491L192.864 69.9108C192.553 54.064 194.04 39.2554 194.756 23.4504C192.621 19.3497 190.486 16.4237 187.647 13.0571C187.134 12.4384 186.323 12.0084 185.377 12.0713C170.146 13.1305 42.1785 14.2947 14.7172 13.2354C13.2306 13.1725 12.0278 14.2003 12.0008 15.3644C11.8522 20.021 12.5144 23.0414 12.7171 27.4672L15.6767 28.9145L14.3523 30.2674L14.5956 31.3162L12.9333 32.2181C13.5685 48.7152 13.5009 65.1494 12.7441 81.5207L14.974 82.4226L13.8658 84.0063L17.0147 85.2438L12.5144 86.1353C12.163 92.6901 10.8656 99.2973 10.798 105.684C15.3524 109.397 24.4341 113.34 31.5562 115.165V115.176Z" fill="url(#paint22_radial_17_4877)"/>
<path fill-rule="evenodd" clip-rule="evenodd" d="M31.6779 112.292C37.3404 113.351 175.376 112.826 197.189 111.662C197.013 109.502 196.851 107.341 196.702 105.17L188.891 104.667L196.567 103.356C195.851 92.8474 195.351 82.2653 195.094 71.6518L190.932 70.603L195.053 69.6067C194.729 54.4939 194.891 39.3287 195.635 24.2475C192.324 20.6502 189.013 17.0634 185.715 13.4661C184.35 13.0152 31.9617 13.8751 9.62236 14.5254C10.0008 19.4022 10.3116 24.2684 10.5549 29.1347L13.5821 30.5191L12.2171 31.8091L12.4604 32.8054L10.7576 33.6654C11.4063 49.3969 11.3387 65.076 10.5549 80.6816L12.8388 81.5416L11.7036 83.0519L14.9335 84.237L10.3251 85.0865C9.94671 91.5574 9.44667 98.0283 8.82501 104.478C16.4471 107.09 24.0693 109.691 31.6779 112.292Z" fill="url(#paint23_linear_17_4877)"/>
<path style="mix-blend-mode:multiply" fill-rule="evenodd" clip-rule="evenodd" d="M31.6643 112.292C24.0421 109.691 16.42 107.09 8.8114 104.489C9.52766 103.639 16.6498 99.2658 17.6228 99.1924C18.5688 99.119 29.2992 110.687 31.6778 112.292H31.6643Z" fill="url(#paint24_radial_17_4877)"/>
<path style="mix-blend-mode:multiply" fill-rule="evenodd" clip-rule="evenodd" d="M195.634 24.2475C193.35 23.398 183.607 22.1709 183.147 21.3948C182.796 20.7865 185.188 15.5951 185.701 13.4661C189.012 17.0634 192.323 20.6502 195.621 24.2475H195.634Z" fill="url(#paint25_radial_17_4877)"/>
<path fill-rule="evenodd" clip-rule="evenodd" d="M16.2578 101.017C21.069 104.866 26.6774 109.135 31.6778 112.291C29.9885 112.291 8.8114 105.779 8.8114 104.489C11.0953 103.178 13.5414 101.993 16.2578 101.017Z" fill="url(#paint26_linear_17_4877)"/>
<path fill-rule="evenodd" clip-rule="evenodd" d="M195.635 24.2475C191.729 22.8841 187.796 21.5521 184.026 19.958C184.769 17.829 185.255 15.658 185.701 13.4661C186.661 13.4661 195.621 23.4399 195.621 24.2475H195.635Z" fill="url(#paint27_linear_17_4877)"/>
<path style="mix-blend-mode:screen" fill-rule="evenodd" clip-rule="evenodd" d="M26.9072 110.666C25.5963 106.974 15.3524 102.465 11.8792 102.863C13.2576 102.192 14.7172 101.573 16.2443 101.028C21.0419 104.866 26.6234 109.124 31.6237 112.281C31.6237 112.281 31.6507 112.302 31.6642 112.302C31.2183 112.302 29.4208 111.851 27.0153 111.159C26.9882 111.002 26.9477 110.834 26.8936 110.676L26.9072 110.666Z" fill="url(#paint28_radial_17_4877)"/>
<path style="mix-blend-mode:screen" fill-rule="evenodd" clip-rule="evenodd" d="M185.58 19.2238C186.729 21.2794 191.742 22.7372 194.783 23.3245C194.905 23.3455 195.013 23.3665 195.121 23.3875C195.445 23.8279 195.621 24.1321 195.621 24.2474C195.526 24.216 195.418 24.174 195.31 24.1321C191.499 22.8106 187.688 21.4997 184.026 19.9475C184.769 17.8185 185.255 15.6476 185.701 13.4556C185.755 13.4556 185.85 13.4976 185.972 13.5605C185.958 13.6025 185.931 13.6444 185.918 13.6864C185.296 15.1546 184.796 17.8185 185.58 19.2134V19.2238Z" fill="url(#paint29_radial_17_4877)"/>
<path style="mix-blend-mode:screen" opacity="0.5" fill-rule="evenodd" clip-rule="evenodd" d="M34.3942 110.299C31.6913 109.46 30.6912 107.687 29.2317 104.961C25.0692 97.1788 19.6229 98.5841 15.2713 96.4551C12.3657 95.0393 11.4467 90.7603 16.8254 85.013C21.7987 79.7063 12.7711 73.8332 13.0955 62.7267C13.2982 55.6161 18.2174 44.3733 19.0148 41.0592C19.7581 37.9968 20.6906 36.3607 16.9471 32.0083C15.501 30.3198 17.1228 29.5437 13.5955 25.2752C11.744 23.0414 12.3251 21.4577 14.1496 20.3041C24.8665 13.5185 52.1926 17.85 64.288 18.7309C69.7884 19.1399 73.7751 16.4131 82.8433 17.0844C99.0606 18.2904 96.5604 12.1237 119.886 19.5699C135.117 24.4257 137.698 16.4761 150.632 17.3151C157.118 17.7346 159.321 16.6334 163.457 16.2558C166.646 15.9727 169.984 15.5636 172.755 16.2034C178.471 17.5353 175.768 21.9402 180.701 24.6355C187.796 28.5159 195.513 23.0938 191.999 34.41C190.229 40.0943 188.161 46.7016 191.486 53.7388C192.445 55.7734 192.432 60.8914 191.35 62.7687C187.026 70.2569 183.026 69.0928 188.769 73.3717C193.459 76.8641 186.864 79.7273 190.242 83.6392C193.513 87.4147 191.959 91.0959 188.337 98.8253C187.85 99.8741 190.283 101.164 185.742 103.22C182.566 104.656 193.81 108.778 168.416 108.778C161.213 108.778 158.997 110.76 151.713 110.592C139.171 110.299 131.887 107.551 116.359 108.621C106.223 109.323 101.169 110.467 90.3303 110.1C83.8974 109.89 82.573 111.473 73.8022 109.481C60.4905 106.45 46.4895 114.053 34.4347 110.309L34.3942 110.299Z" fill="url(#paint30_radial_17_4877)"/>
<path style="mix-blend-mode:screen" opacity="0.5" fill-rule="evenodd" clip-rule="evenodd" d="M23.1366 95.5007C19.6499 93.0571 17.9741 91.2008 20.3662 84.3943C23.934 74.2841 16.9335 71.7252 16.1632 65.443C15.1767 57.378 15.9875 61.3214 19.731 55.6266C22.042 52.1132 15.8659 51.012 23.042 44.4048C28.3802 39.486 27.0964 35.4902 22.2177 30.9805C18.2715 27.3413 17.8255 22.3387 22.042 19.9265C28.637 16.151 36.178 20.4194 41.3541 20.6607C42.9082 20.7341 44.8948 20.4509 48.1653 19.4651C51.8953 18.3429 61.2878 22.4855 68.6396 22.4855C77.6402 22.4855 87.2084 18.5107 100.223 18.5107C113.237 18.5107 117.575 27.4357 129.279 23.6916C130.576 23.2721 138.833 27.4776 150.604 22.6953C159.983 18.8882 172.809 20.5453 175.444 24.3523C176.16 25.3906 181.106 24.5096 181.985 30.4352C182.363 33.0151 190.634 34.6722 185.742 41.6465C184.85 42.926 184.228 50.3093 185.823 52.5117C187.661 55.0393 187.661 60.7131 185.742 62.905C180.309 69.1242 188.066 74.2212 184.08 78.7414C180.039 83.314 183.499 86.9637 183.499 90.4561C183.499 97.7975 180.147 93.3402 182.025 100.503C183.661 106.754 177.025 107.614 170.025 106.355C167.97 105.988 166.214 105.621 161.835 108.096C155.253 111.82 145.699 109.439 138.171 107.677C127.711 105.223 120.819 105.349 109.899 107.845C102.493 109.544 90.3167 103.597 78.0321 106.995C67.3017 109.963 62.5852 103.513 54.8009 107.467C48.8275 110.498 43.0569 109.743 40.4351 107.687C37.097 105.076 40.9892 108.348 35.8267 102.842C30.8399 97.5248 24.8665 96.7383 23.0961 95.5007H23.1366Z" fill="url(#paint31_radial_17_4877)"/>
<path style="mix-blend-mode:multiply" fill-rule="evenodd" clip-rule="evenodd" d="M56.5712 4.5307L149.199 5.17045C149.361 11.117 149.01 17.0949 150.104 23.2512C150.185 23.7127 150.267 24.3209 149.861 24.667C149.456 25.0026 148.672 24.9817 148.077 24.9397C118.602 22.8841 86.5867 22.2968 57.6794 24.7509C57.0848 24.8034 56.328 24.8139 55.9226 24.4783C55.5171 24.1427 55.5577 23.5449 55.6252 23.0834C56.6388 17.053 56.5848 10.6031 56.5577 4.54119L56.5712 4.5307Z" fill="url(#paint32_radial_17_4877)"/>
<path fill-rule="evenodd" clip-rule="evenodd" d="M53.0305 2.50658C85.5732 1.69902 121.021 2.18146 152.74 3.14632C151.929 9.1243 152.564 15.5113 152.415 21.4893C151.929 22.0032 151.523 22.5276 151.28 23.0939C120.508 21.3634 85.884 21.3634 54.4765 22.9366C54.1522 22.2863 53.7197 21.762 53.3413 21.3215C53.3413 15.3854 54.1792 8.50553 53.017 2.49609L53.0305 2.50658Z" fill="url(#paint33_linear_17_4877)"/>
<path fill-rule="evenodd" clip-rule="evenodd" d="M51.8683 0.419439C85.1813 -0.3986 121.454 0.0943209 153.916 1.08016C152.997 7.88666 152.51 14.6932 152.429 21.4892C120.4 20.6502 85.6002 20.3565 53.3549 21.3214C53.4495 14.6722 53.1927 7.27838 51.8683 0.408951V0.419439Z" fill="url(#paint34_linear_17_4877)"/>
<g style="mix-blend-mode:multiply" opacity="0.5">
<path d="M152.442 20.1678C146.293 20.3356 140.144 20.2307 133.995 20.3776C130.846 20.4615 127.711 20.5663 124.589 20.7027C123.441 20.7551 122.292 20.8076 121.157 20.8705C131.752 21.0068 142.226 21.2166 152.429 21.4788C152.429 21.0383 152.429 20.5978 152.442 20.1573V20.1678ZM152.51 17.6612C146.78 17.8815 141.09 18.0808 135.347 18.0808C129.603 18.0808 121.454 18.4373 115.818 18.8883C111.305 19.2449 106.804 19.6959 102.318 20.2307C100.939 20.388 99.5877 20.5558 98.2497 20.7341C100.696 20.7341 103.142 20.7341 105.588 20.7551C116.048 19.7588 127.089 19.2554 135.333 19.2554C141.077 19.2554 146.753 19.0666 152.47 18.8464C152.47 18.4583 152.497 18.0703 152.51 17.6822V17.6612ZM152.618 15.1337C148.118 15.3015 143.888 15.3644 139.293 15.2596C126.589 14.9449 114.927 16.5286 102.534 17.7661C99.4525 18.0703 96.3577 18.3849 93.3305 18.9512C90.7222 19.4442 88.195 20.0839 85.6678 20.7656C86.4111 20.7656 87.1544 20.7656 87.9112 20.7551C89.7222 20.2622 91.5331 19.8322 93.344 19.4861C103.318 17.6193 129.536 16.193 139.252 16.4342C143.834 16.5496 148.064 16.4866 152.551 16.3188C152.564 15.9308 152.591 15.5427 152.605 15.1442L152.618 15.1337ZM153.037 8.96696C148.618 9.48086 144.861 9.66964 140.793 9.88988C125.549 10.6869 117.156 12.8369 102.737 15.2491C97.5064 16.1196 92.4656 16.9691 86.8841 18.3639C84.0191 19.0771 81.1946 19.979 78.3836 20.818C79.5188 20.8076 80.6405 20.7971 81.7757 20.7866C89.0194 18.7834 95.3036 17.2208 102.926 15.9518C109.386 14.8715 119.319 12.9733 125.197 12.344C131.644 11.6518 136.428 11.4001 140.847 11.1694C144.861 10.9596 148.564 10.7708 152.915 10.2674C152.956 9.83744 152.983 9.40745 153.024 8.97745L153.037 8.96696ZM153.551 1.05926C150.807 2.06607 147.307 3.2302 143.428 4.28946C138.36 5.67383 133.739 6.4709 128.495 7.19455C118.535 8.55794 109.25 11.033 99.5606 13.0886C89.9384 15.1337 80.8026 18.7205 71.8831 20.9019C72.5859 20.8915 73.2751 20.881 73.9779 20.8705C75.9104 20.2727 77.8295 19.6224 79.7891 19.0876C86.4652 17.2417 93.0872 15.5008 99.939 14.043C107.548 12.4279 114.305 10.7289 122.211 9.34452C129.333 8.09649 136.604 7.4882 143.726 5.54798C147.537 4.5097 150.996 3.35606 153.74 2.35973C153.794 1.92973 153.848 1.49974 153.916 1.06974H153.551V1.05926ZM62.7474 0.199266C62.9366 0.440482 63.1123 0.702674 63.2339 0.975354C63.3826 1.28998 63.4637 1.60461 63.4502 1.94022C63.4502 2.25485 63.342 2.57997 63.1799 2.87362C63.0177 3.15679 62.788 3.40849 62.4771 3.59727C62.0447 3.86995 61.5446 4.09019 61.0176 4.26848C60.4365 4.45726 59.8418 4.5936 59.2337 4.68799C58.4498 4.80336 57.6255 4.87677 56.8146 4.89775C56.0578 4.91872 55.2875 4.88726 54.5442 4.79287C53.8685 4.70897 53.1927 4.60409 52.517 4.45726C52.4494 3.95385 52.3819 3.43996 52.3008 2.93655C52.5711 3.03094 52.8414 3.12533 53.1387 3.20923C55.355 3.86995 57.22 4.05873 59.531 3.72313C60.45 3.58679 61.3689 3.32459 62.0987 2.87362C62.4636 2.64289 62.6663 2.2129 62.6798 1.85632C62.6934 1.40535 62.4096 0.954379 62.1122 0.576822C62.0041 0.45097 61.896 0.325118 61.7744 0.209754C62.0987 0.209754 62.4231 0.199266 62.7474 0.188778V0.199266ZM76.7754 0.031463C76.951 0.954379 76.7078 1.87729 75.478 2.91557C69.2614 8.20136 62.8285 12.1552 53.1522 11.1379C53.1792 11.5155 53.1927 11.8825 53.2198 12.2601C63.3961 13.634 70.5587 9.33403 77.4646 3.46093C78.8701 2.26534 79.6404 1.14316 79.5864 0.0104877C78.6539 0.0104877 77.7214 0.0104877 76.7889 0.031463H76.7754ZM90.06 0C90.033 0.482433 89.7762 0.954379 89.2492 1.3634C87.9518 2.3807 84.2894 4.54116 81.2757 6.1248C73.5184 10.2045 71.5588 13.2879 57.8552 14.5779C56.5308 14.7037 55.0037 14.6618 53.3008 14.5254C53.3008 14.7247 53.3008 14.924 53.3144 15.1337C54.7334 15.2176 56.1659 15.2386 57.6119 15.1862C69.5857 14.7876 73.8157 11.3057 82.2622 6.85894C85.4786 5.17042 89.7762 2.8946 91.2223 1.77242C91.5871 1.48925 91.8574 1.15364 92.0466 0.797063C92.1818 0.545359 92.2629 0.283167 92.2899 0.0209754C91.5466 0.0209754 90.8033 0.0209754 90.0465 0.0209754L90.06 0ZM105.912 0.0943891C106.521 1.48925 103.804 2.61143 99.3039 4.04824C96.7091 4.87677 94.0062 5.68432 91.5601 6.57577C85.8435 8.66282 80.681 12.3125 74.8698 14.5674C67.7072 17.3466 61.3149 18.1751 53.3684 17.9969C53.3684 18.28 53.3684 18.5632 53.3684 18.8464C61.0851 18.9617 67.7477 18.2486 75.3158 15.3225C77.7349 14.3891 79.9918 13.3194 82.2487 12.2496C85.8706 10.5296 89.2627 9.08233 93.1548 7.656C97.3713 6.11432 102.304 4.82433 106.237 3.29313C108.899 2.25485 109.534 1.17462 109.034 0.13634C107.994 0.125852 106.94 0.115364 105.899 0.104877L105.912 0.0943891ZM127.36 0.409019C126.643 1.0173 125.346 1.59413 123.778 2.16046C119.684 3.62874 115.372 4.76141 111.183 6.07236C95.7496 10.8967 74.0319 20.1993 58.6661 20.6502C56.9497 20.7027 55.1793 20.7027 53.3684 20.6502C53.3684 20.8705 53.3684 21.1012 53.3684 21.3214C56.4362 21.2271 59.531 21.1432 62.6393 21.0802C70.0046 20.4405 77.2619 18.6995 83.8975 16.5181C87.9923 15.1757 91.952 13.634 96.0469 12.2916C101.709 10.4352 107.44 8.70477 113.143 6.92187C117.521 5.55847 122.022 4.37336 126.292 2.84216C127.63 2.35973 128.725 1.83534 129.468 1.2795C129.833 0.996329 130.103 0.72365 130.279 0.461458C129.319 0.440482 128.346 0.419507 127.387 0.398532L127.36 0.409019ZM52.9089 7.87625C55.0442 8.24331 57.1795 8.35868 59.4634 7.96015C60.7338 7.73991 61.9366 7.42528 63.0447 7.05821C65.3422 6.28212 67.2342 5.24384 68.491 4.18458C69.8019 3.0624 70.4371 1.89827 70.1533 0.933403C70.1128 0.807551 70.0722 0.692187 70.0046 0.576822C69.9236 0.419507 69.8154 0.27268 69.6938 0.115364C69.2208 0.115364 68.7343 0.125852 68.2613 0.13634C69.0992 1.14316 69.0586 2.26534 67.4639 3.72313C66.3693 4.71945 64.707 5.69481 62.6934 6.42895C61.7068 6.78553 60.6392 7.07918 59.5175 7.28894C57.2065 7.71893 55.0442 7.50918 52.8278 7.00577C52.8549 7.29942 52.8819 7.60357 52.9089 7.89722V7.87625Z" fill="#B7805C"/>
</g>
<path style="mix-blend-mode:multiply" opacity="0.65" fill-rule="evenodd" clip-rule="evenodd" d="M62.0988 2.87365C62.4637 2.64292 62.6665 2.21292 62.68 1.85634C62.6935 1.40537 62.4097 0.954403 62.1124 0.576847C62.0042 0.450994 61.8961 0.325142 61.7745 0.209778C58.45 0.262216 55.1524 0.33563 51.882 0.419531C52.0441 1.25855 52.1928 2.09756 52.3144 2.94706C52.5847 3.04145 52.855 3.13584 53.1523 3.21974C55.3687 3.88047 57.2337 4.06924 59.5446 3.73364C60.4636 3.5973 61.3826 3.33511 62.1124 2.88414L62.0988 2.87365Z" fill="url(#paint35_radial_17_4877)"/>
<path style="mix-blend-mode:multiply" opacity="0.65" fill-rule="evenodd" clip-rule="evenodd" d="M70.1533 0.922886C70.4371 1.88775 69.8019 3.06237 68.491 4.17407C67.2342 5.24381 65.3422 6.28209 63.0447 7.04769C61.9366 7.41476 60.7338 7.72939 59.4634 7.94963C57.166 8.34816 55.0442 8.24328 52.9089 7.86573C53.0035 8.95645 53.0981 10.0472 53.1522 11.1379C62.8285 12.1552 69.2614 8.20133 75.478 2.91554C76.7078 1.86678 76.9511 0.943861 76.7754 0.0314331C74.4103 0.0419208 72.0453 0.0628961 69.6803 0.0943592C69.8019 0.251674 69.9101 0.408989 69.9911 0.555817C70.0587 0.671181 70.1128 0.786546 70.1398 0.912398L70.1533 0.922886Z" fill="url(#paint36_radial_17_4877)"/>
<path style="mix-blend-mode:multiply" opacity="0.65" fill-rule="evenodd" clip-rule="evenodd" d="M91.2222 1.76193C89.7897 2.8946 85.4786 5.15994 82.2622 6.84845C73.8157 11.2952 69.5857 14.7771 57.6119 15.1757C56.1659 15.2281 54.7333 15.1966 53.3143 15.1232C53.3414 16.0881 53.3549 17.0425 53.3549 17.9864C61.3013 18.1542 67.6937 17.3256 74.8563 14.5569C80.6675 12.302 85.83 8.65233 91.5466 6.56529C93.9927 5.67383 96.6956 4.86628 99.2903 4.03776C103.791 2.60094 106.507 1.48925 105.899 0.0839014C101.372 0.0419507 96.8307 0.0104877 92.2899 0C92.2628 0.262192 92.1817 0.524384 92.0466 0.776088C91.8574 1.13267 91.5871 1.46827 91.2222 1.75144V1.76193Z" fill="url(#paint37_radial_17_4877)"/>
<path style="mix-blend-mode:multiply" opacity="0.65" fill-rule="evenodd" clip-rule="evenodd" d="M113.116 6.93233C107.412 8.71524 101.682 10.4457 96.0198 12.302C91.925 13.6444 87.9652 15.1861 83.8704 16.5286C77.2483 18.6995 69.9911 20.451 62.6257 21.0907C65.6935 21.0173 68.7748 20.9648 71.8831 20.9124C80.8026 18.731 89.9248 15.1442 99.5606 13.0991C109.25 11.0435 118.521 8.56841 128.495 7.20501C133.739 6.49185 138.36 5.6843 143.428 4.29993C147.307 3.24067 150.807 2.07654 153.551 1.06972C145.969 0.838993 138.171 0.639727 130.252 0.471924C130.076 0.734116 129.806 1.0068 129.441 1.28996C128.698 1.84581 127.603 2.37019 126.265 2.85263C121.994 4.38383 117.494 5.56894 113.116 6.93233Z" fill="url(#paint38_radial_17_4877)"/>
<path style="mix-blend-mode:screen" fill-rule="evenodd" clip-rule="evenodd" d="M53.3549 16.8114C54.2738 11.3998 54.2468 8.06471 53.1657 1.18479C82.5054 1.5204 113.305 1.13235 142.874 0.765283C113.372 -0.000317012 81.4513 -0.314947 51.8683 0.41919C52.8954 5.76791 53.2738 11.4313 53.3549 16.8114Z" fill="url(#paint39_linear_17_4877)"/>
<g style="mix-blend-mode:screen" opacity="0.5">
<path fill-rule="evenodd" clip-rule="evenodd" d="M71.5588 16.7069C74.5725 16.0042 76.5997 15.2281 78.8701 14.1794C79.1674 14.043 79.4647 13.8962 79.7756 13.7494C79.8702 13.7074 79.9648 13.6655 80.0594 13.613C80.2756 13.5081 80.4783 13.4138 80.6946 13.2984C84.9246 11.2428 87.9923 10.0787 92.344 8.4426C95.7496 7.17359 99.8445 5.7997 102.534 4.58313C102.277 4.66703 102.02 4.75093 101.75 4.83483C98.8985 5.75775 95.8712 6.63871 93.1548 7.63504C92.5602 7.85529 91.9791 8.07553 91.398 8.28528C90.7763 8.5265 90.1546 8.76771 89.5465 9.00893C89.1411 9.16624 88.7491 9.33405 88.3572 9.49136C87.6004 9.80599 86.8571 10.1206 86.1138 10.4457C84.83 11.0121 83.5596 11.5889 82.2487 12.2182C81.573 12.5328 80.8973 12.8579 80.2216 13.1725C79.9107 13.3194 79.5999 13.4557 79.2891 13.6025C79.1945 13.6445 79.0863 13.6969 78.9917 13.7389C78.7755 13.8437 78.5458 13.9381 78.3295 14.043C77.343 14.4835 76.3429 14.903 75.3158 15.3015C73.9779 15.8154 72.6805 16.2664 71.3831 16.6544C71.0047 16.7698 70.6263 16.8747 70.2479 16.9796C70.7074 16.8852 71.1399 16.7908 71.5588 16.6964V16.7069Z" fill="#CA9E67"/>
</g>
<g style="mix-blend-mode:screen" opacity="0.5">
<path fill-rule="evenodd" clip-rule="evenodd" d="M90.9654 16.1301C90.114 16.3398 89.2626 16.5601 88.4247 16.7803C87.8165 16.9376 87.2084 17.0949 86.6002 17.2523C84.3704 17.8396 82.1405 18.4374 79.9106 19.0561C79.8701 19.0666 79.8295 19.0771 79.7755 19.0876C79.0052 19.2974 78.2348 19.5281 77.478 19.7693C78.3294 19.5491 79.1808 19.3183 80.0458 19.0981C80.3971 19.0037 80.762 18.9093 81.1134 18.8254C83.2081 18.2905 85.3164 17.7766 87.4111 17.2523C87.5598 17.2103 87.7219 17.1788 87.8706 17.1369C88.1814 17.0635 88.5058 16.9796 88.8166 16.9062C89.668 16.6964 90.5194 16.4762 91.3843 16.2664C92.7763 15.9203 94.1683 15.5742 95.5603 15.2491C96.5739 15.0184 97.5875 14.7877 98.601 14.5779C99.7498 14.3262 100.939 14.2318 102.088 13.9801C104.669 13.4138 107.196 12.6587 109.75 12.0189C110.156 11.914 110.561 11.8092 110.98 11.7148C111.724 11.526 112.467 11.3267 113.21 11.1379C112.399 11.3162 111.588 11.484 110.791 11.6623C108.061 12.2601 105.358 12.8789 102.561 13.4977C102.372 13.5396 102.182 13.5816 101.993 13.6235C101.872 13.655 101.736 13.676 101.615 13.7074C101.061 13.8333 100.493 13.9486 99.939 14.064C99.3578 14.1899 98.7767 14.3157 98.1956 14.4416C95.763 14.9764 93.3574 15.5533 90.9654 16.1406V16.1301Z" fill="#CA9E67"/>
</g>
<g style="mix-blend-mode:screen" opacity="0.5">
<path fill-rule="evenodd" clip-rule="evenodd" d="M122.076 12.9208C131.292 12.0504 139.415 11.935 146.226 11.4001C147.266 11.3162 148.28 11.2218 149.267 11.1169C150.321 11.0016 151.334 10.8757 152.321 10.7184C152.51 10.687 152.699 10.6555 152.902 10.624C152.902 10.4982 152.915 10.3828 152.929 10.257C152.726 10.2779 152.524 10.2989 152.321 10.3199C151.267 10.4352 150.253 10.5296 149.267 10.6135C147.037 10.8023 144.915 10.9282 142.753 11.0435C142.131 11.075 141.496 11.1065 140.861 11.1484C136.455 11.3791 131.657 11.6308 125.211 12.323C124.13 12.4384 122.9 12.5957 121.589 12.795C120.467 12.9523 119.292 13.1411 118.075 13.3403C119.427 13.183 120.765 13.0467 122.076 12.9208Z" fill="#CA9E67"/>
</g>
<defs>
<linearGradient id="paint0_linear_17_4877" x1="103.71" y1="36.6859" x2="103.71" y2="9.00892" gradientUnits="userSpaceOnUse">
<stop stop-color="#692705"/>
<stop offset="1" stop-color="#823B00"/>
</linearGradient>
<radialGradient id="paint1_radial_17_4877" cx="0" cy="0" r="1" gradientUnits="userSpaceOnUse" gradientTransform="translate(39.9351 -13.7703) scale(168.227 130.551)">
<stop stop-color="#F59547"/>
<stop offset="1" stop-color="#A14C1F"/>
</radialGradient>
<linearGradient id="paint2_linear_17_4877" x1="103.71" y1="63.9644" x2="103.71" y2="36.3608" gradientUnits="userSpaceOnUse">
<stop stop-color="#692705"/>
<stop offset="1" stop-color="#823B00"/>
</linearGradient>
<radialGradient id="paint3_radial_17_4877" cx="0" cy="0" r="1" gradientUnits="userSpaceOnUse" gradientTransform="translate(16.0822 5.11799) scale(239.327 185.726)">
<stop stop-color="#F59547"/>
<stop offset="1" stop-color="#A14C1F"/>
</radialGradient>
<linearGradient id="paint4_linear_17_4877" x1="103.115" y1="91.2113" x2="103.115" y2="63.5868" gradientUnits="userSpaceOnUse">
<stop stop-color="#692705"/>
<stop offset="1" stop-color="#823B00"/>
</linearGradient>
<radialGradient id="paint5_radial_17_4877" cx="0" cy="0" r="1" gradientUnits="userSpaceOnUse" gradientTransform="translate(13.6225 37.7556) scale(217.96 169.145)">
<stop stop-color="#F59547"/>
<stop offset="1" stop-color="#A14C1F"/>
</radialGradient>
<linearGradient id="paint6_linear_17_4877" x1="103.047" y1="120" x2="103.047" y2="90.624" gradientUnits="userSpaceOnUse">
<stop stop-color="#692705"/>
<stop offset="1" stop-color="#823B00"/>
</linearGradient>
<radialGradient id="paint7_radial_17_4877" cx="0" cy="0" r="1" gradientUnits="userSpaceOnUse" gradientTransform="translate(44.3948 55.6371) scale(184.715 143.346)">
<stop stop-color="#F59547"/>
<stop offset="1" stop-color="#A14C1F"/>
</radialGradient>
<radialGradient id="paint8_radial_17_4877" cx="0" cy="0" r="1" gradientUnits="userSpaceOnUse" gradientTransform="translate(19.7175 -12.5327) scale(119.846 93.0047)">
<stop stop-color="#CFA04D"/>
<stop offset="1" stop-color="white"/>
</radialGradient>
<radialGradient id="paint9_radial_17_4877" cx="0" cy="0" r="1" gradientUnits="userSpaceOnUse" gradientTransform="translate(187.026 -30.5296) scale(107.088 83.1043)">
<stop stop-color="#CFA04D"/>
<stop offset="1" stop-color="white"/>
</radialGradient>
<radialGradient id="paint10_radial_17_4877" cx="0" cy="0" r="1" gradientUnits="userSpaceOnUse" gradientTransform="translate(157.348 16.6964) scale(59.0309 45.8102)">
<stop stop-color="#CFA04D"/>
<stop offset="1" stop-color="white"/>
</radialGradient>
<radialGradient id="paint11_radial_17_4877" cx="0" cy="0" r="1" gradientUnits="userSpaceOnUse" gradientTransform="translate(65.7745 15.1652) scale(108.791 84.4258)">
<stop stop-color="#CFA04D"/>
<stop offset="1" stop-color="white"/>
</radialGradient>
<radialGradient id="paint12_radial_17_4877" cx="0" cy="0" r="1" gradientUnits="userSpaceOnUse" gradientTransform="translate(-17.4875 71.3477) scale(133.82 103.849)">
<stop stop-color="#CFA04D"/>
<stop offset="1" stop-color="white"/>
</radialGradient>
<radialGradient id="paint13_radial_17_4877" cx="0" cy="0" r="1" gradientUnits="userSpaceOnUse" gradientTransform="translate(153.726 49.2711) scale(37.4889 29.0928)">
<stop stop-color="#CFA04D"/>
<stop offset="1" stop-color="white"/>
</radialGradient>
<radialGradient id="paint14_radial_17_4877" cx="0" cy="0" r="1" gradientUnits="userSpaceOnUse" gradientTransform="translate(151.983 118.836) scale(162.727 126.282)">
<stop stop-color="#CFA04D"/>
<stop offset="1" stop-color="white"/>
</radialGradient>
<radialGradient id="paint15_radial_17_4877" cx="0" cy="0" r="1" gradientUnits="userSpaceOnUse" gradientTransform="translate(138.374 27.9392) scale(189.931 147.394)">
<stop stop-color="#CFA04D"/>
<stop offset="1" stop-color="white"/>
</radialGradient>
<radialGradient id="paint16_radial_17_4877" cx="0" cy="0" r="1" gradientUnits="userSpaceOnUse" gradientTransform="translate(68.018 143.209) scale(115.899 89.9423)">
<stop stop-color="#CFA04D"/>
<stop offset="1" stop-color="white"/>
</radialGradient>
<radialGradient id="paint17_radial_17_4877" cx="0" cy="0" r="1" gradientUnits="userSpaceOnUse" gradientTransform="translate(63.1258 127.824) scale(66.5179 51.6204)">
<stop stop-color="#CFA04D"/>
<stop offset="1" stop-color="white"/>
</radialGradient>
<linearGradient id="paint18_linear_17_4877" x1="0.405423" y1="19.465" x2="125.968" y2="19.465" gradientUnits="userSpaceOnUse">
<stop stop-color="#A48A7B"/>
<stop offset="1" stop-color="#945534"/>
</linearGradient>
<linearGradient id="paint19_linear_17_4877" x1="-8.32851e-06" y1="45.9465" x2="104.791" y2="45.9465" gradientUnits="userSpaceOnUse">
<stop stop-color="#A48A7B"/>
<stop offset="1" stop-color="#945534"/>
</linearGradient>
<linearGradient id="paint20_linear_17_4877" x1="0.0676126" y1="74.1479" x2="115.075" y2="74.1479" gradientUnits="userSpaceOnUse">
<stop stop-color="#A48A7B"/>
<stop offset="1" stop-color="#945534"/>
</linearGradient>
<linearGradient id="paint21_linear_17_4877" x1="0.554077" y1="101.783" x2="80.6134" y2="101.783" gradientUnits="userSpaceOnUse">
<stop stop-color="#A48A7B"/>
<stop offset="1" stop-color="#945534"/>
</linearGradient>
<radialGradient id="paint22_radial_17_4877" cx="0" cy="0" r="1" gradientUnits="userSpaceOnUse" gradientTransform="translate(99.3038 79.8846) scale(168.714 130.928)">
<stop stop-color="#A48A7B"/>
<stop offset="1" stop-color="white"/>
</radialGradient>
<linearGradient id="paint23_linear_17_4877" x1="103.007" y1="112.868" x2="103.007" y2="13.3403" gradientUnits="userSpaceOnUse">
<stop stop-color="#EDD6B9"/>
<stop offset="1" stop-color="#D4B492"/>
</linearGradient>
<radialGradient id="paint24_radial_17_4877" cx="0" cy="0" r="1" gradientUnits="userSpaceOnUse" gradientTransform="translate(16.5822 114.106) scale(26.8261 20.818)">
<stop stop-color="#A48A7B"/>
<stop offset="1" stop-color="white"/>
</radialGradient>
<radialGradient id="paint25_radial_17_4877" cx="0" cy="0" r="1" gradientUnits="userSpaceOnUse" gradientTransform="translate(192.729 18.5002) scale(11.8791 9.21867)">
<stop stop-color="#A48A7B"/>
<stop offset="1" stop-color="white"/>
</radialGradient>
<linearGradient id="paint26_linear_17_4877" x1="19.9608" y1="108.914" x2="22.0137" y2="102.664" gradientUnits="userSpaceOnUse">
<stop stop-color="#BF9F7E"/>
<stop offset="1" stop-color="#EDD6B9"/>
</linearGradient>
<linearGradient id="paint27_linear_17_4877" x1="191.742" y1="18.0283" x2="187.912" y2="22.9637" gradientUnits="userSpaceOnUse">
<stop stop-color="#BF9F7E"/>
<stop offset="1" stop-color="#EDD6B9"/>
</linearGradient>
<radialGradient id="paint28_radial_17_4877" cx="0" cy="0" r="1" gradientUnits="userSpaceOnUse" gradientTransform="translate(18.7715 112.533) scale(21.9339 17.0215)">
<stop/>
<stop offset="1" stop-color="#A3805F"/>
</radialGradient>
<radialGradient id="paint29_radial_17_4877" cx="0" cy="0" r="1" gradientUnits="userSpaceOnUse" gradientTransform="translate(194.026 15.7419) scale(14.2712 11.075)">
<stop/>
<stop offset="1" stop-color="#A3805F"/>
</radialGradient>
<radialGradient id="paint30_radial_17_4877" cx="0" cy="0" r="1" gradientUnits="userSpaceOnUse" gradientTransform="translate(102.655 63.5972) scale(136.793 106.156)">
<stop stop-color="#CA9E67"/>
<stop offset="1"/>
</radialGradient>
<radialGradient id="paint31_radial_17_4877" cx="0" cy="0" r="1" gradientUnits="userSpaceOnUse" gradientTransform="translate(101.574 64.216) scale(73.6535 57.1578)">
<stop stop-color="#CA9E67"/>
<stop offset="1"/>
</radialGradient>
<radialGradient id="paint32_radial_17_4877" cx="0" cy="0" r="1" gradientUnits="userSpaceOnUse" gradientTransform="translate(102.885 14.7457) scale(76.7618 59.57)">
<stop stop-color="#A48A7B"/>
<stop offset="1" stop-color="white"/>
</radialGradient>
<linearGradient id="paint33_linear_17_4877" x1="102.885" y1="23.0939" x2="102.885" y2="2.09756" gradientUnits="userSpaceOnUse">
<stop stop-color="#692705"/>
<stop offset="1" stop-color="#823B00"/>
</linearGradient>
<linearGradient id="paint34_linear_17_4877" x1="102.885" y1="21.4892" x2="102.885" y2="-6.80077e-05" gradientUnits="userSpaceOnUse">
<stop stop-color="#A14C1F"/>
<stop offset="1" stop-color="#F59547"/>
</linearGradient>
<radialGradient id="paint35_radial_17_4877" cx="0" cy="0" r="1" gradientUnits="userSpaceOnUse" gradientTransform="translate(51.3144 -7.32037) scale(23.7989 18.4688)">
<stop stop-color="#CFA04D"/>
<stop offset="1" stop-color="white"/>
</radialGradient>
<radialGradient id="paint36_radial_17_4877" cx="0" cy="0" r="1" gradientUnits="userSpaceOnUse" gradientTransform="translate(63.3826 -7.56165) scale(43.1785 33.5081)">
<stop stop-color="#CFA04D"/>
<stop offset="1" stop-color="white"/>
</radialGradient>
<radialGradient id="paint37_radial_17_4877" cx="0" cy="0" r="1" gradientUnits="userSpaceOnUse" gradientTransform="translate(75.032 -8.96696) scale(61.3013 47.5721)">
<stop stop-color="#CFA04D"/>
<stop offset="1" stop-color="white"/>
</radialGradient>
<radialGradient id="paint38_radial_17_4877" cx="0" cy="0" r="1" gradientUnits="userSpaceOnUse" gradientTransform="translate(100.466 -6.17727) scale(74.1535 57.5459)">
<stop stop-color="#CFA04D"/>
<stop offset="1" stop-color="white"/>
</radialGradient>
<linearGradient id="paint39_linear_17_4877" x1="51.8683" y1="8.4108" x2="142.888" y2="8.4108" gradientUnits="userSpaceOnUse">
<stop stop-color="#A48A7B"/>
<stop offset="1" stop-color="#945534"/>
</linearGradient>
</defs>
</svg>
