<svg width="29" height="6" viewBox="0 0 29 6" fill="none" xmlns="http://www.w3.org/2000/svg">
<path d="M1.58001 5.76699C1.2289 5.76699 0.901668 5.57775 0.621016 5.23982C0.477705 5.06796 -0.0979295 4.32838 0.195859 4.04838C0.0167197 4.04066 0.045382 3.82439 0 3.62742C0.0107484 3.60425 0.022691 3.57529 0.0334393 3.55211C0.0107484 3.59846 0.00597131 3.05584 0.00597131 3.02688C0.00597131 1.62689 0.714169 0.4818 1.58001 0.4818H16.7006C16.8785 0.4818 17.06 0.466352 17.238 0.4818C17.3897 0.495317 17.5509 0.640143 17.6978 0.61504C17.9665 0.570626 18.2149 0.448972 18.4836 0.472145C18.7953 0.499179 19.1106 0.4818 19.4235 0.4818H27.388C27.7463 0.4818 28.0054 0.727039 28.3148 0.964553C28.5679 1.15959 28.8605 1.44924 28.9346 1.91848C28.9692 2.13861 28.9298 2.37999 28.9501 2.60399C28.9704 2.82026 29.0074 3.0095 29.0015 3.23929C28.9847 3.84949 28.8235 4.42107 28.5739 4.88645C28.2765 5.43678 27.8406 5.76313 27.388 5.76313H24.0489C23.8387 5.76313 23.6106 5.72064 23.4016 5.76313C23.0552 5.83651 22.7149 5.76313 22.3638 5.76313C22.0664 5.76313 21.769 5.76313 21.4704 5.76313H14.2571C13.8893 5.76313 13.5214 5.80368 13.1536 5.78823C12.9124 5.77857 12.4394 5.80368 12.2269 5.58354C12.2794 5.63761 12.277 5.69168 12.2925 5.7554C11.871 5.79788 11.4649 5.76313 11.0433 5.76313H1.58001V5.76699Z" fill="#7A2900"/>
<path d="M27.3892 5.29582H24.05C23.8398 5.29582 23.6117 5.25334 23.4027 5.29582C23.0564 5.3692 22.716 5.29582 22.3649 5.29582C22.0675 5.29582 21.7702 5.29582 21.4716 5.29582H14.2583C13.6922 5.29582 13.0676 5.3943 12.5087 5.22437C12.357 5.17803 12.1122 5.2012 11.9856 5.07568C12.0477 5.10658 12.099 5.16258 12.1181 5.25141C11.816 5.43292 11.3634 5.29582 11.0457 5.29582H1.57997C1.29693 5.29582 1.03778 5.15486 0.788178 4.94824C0.72727 4.89803 0.367798 4.46355 0.648449 4.50797C0.55888 4.49445 0.385712 4.55624 0.317639 4.43072C0.143276 4.11211 0.894467 4.16231 1.00195 4.09859C0.74399 4.02907 0.25076 4.21831 0.157608 3.67184C0.115808 3.42273 0.168356 3.40149 0.290171 3.2528C-0.0227261 3.54825 0.0059362 3.16205 0.0059362 2.75074V2.55764C0.0059362 1.15765 0.714134 0.0125614 1.57997 0.0125614H16.7005C16.8785 0.0125614 17.06 -0.00288672 17.2379 0.0125614C17.3896 0.0260785 17.5508 0.170905 17.6977 0.145801C17.9664 0.101388 18.2149 -0.0202659 18.4836 0.00290632C18.7953 0.0299405 19.1105 0.0125614 19.4234 0.0125614H27.388C27.8979 0.0125614 28.384 0.42773 28.6766 1.10165C28.8199 1.43186 28.9668 1.77751 28.9501 2.19268C28.9405 2.44371 28.7912 2.81253 28.5894 2.70247C28.63 2.72564 28.7805 2.71212 28.8486 2.7546C28.9811 2.83764 29.0062 3.19681 28.9345 3.37446C28.8748 3.52315 28.7291 3.57142 28.6312 3.60811C28.378 3.70273 28.1093 3.70466 27.8502 3.70466C28.0317 3.70466 28.2108 3.72397 28.39 3.75487C28.4963 3.77225 28.7482 3.71046 28.8211 3.83018C28.8306 3.84563 28.5942 4.38245 28.5727 4.423C28.2753 4.97334 27.8394 5.29968 27.3868 5.29968L27.3892 5.29582Z" fill="url(#paint0_linear_19_7453)"/>
<path style="mix-blend-mode:screen" opacity="0.25" d="M0.0824244 1.77365C0.289032 0.756002 0.88258 0.0125614 1.58003 0.0125614H3.83957C3.56728 0.172836 3.29857 0.344696 3.03225 0.530073C2.74802 0.727037 2.46856 0.939449 2.19388 1.1731C1.9407 1.38744 1.68871 1.59792 1.41164 1.71958C1.09874 1.85861 0.773902 1.86054 0.452646 1.81034C0.323665 1.7891 0.201851 1.77365 0.0836186 1.77558L0.0824244 1.77365ZM3.17915 1.27738C3.34037 1.14607 3.49801 1.00317 3.65566 0.856415C3.42875 0.99931 3.20423 1.15186 2.98209 1.31407C2.81012 1.44151 2.64053 1.58441 2.46975 1.7273C2.71219 1.60951 2.94985 1.46275 3.17915 1.27738ZM5.96058 2.41088C5.39092 2.54219 4.82842 2.73336 4.26473 2.91295C4.59435 2.8666 4.92277 2.80481 5.25 2.71791C5.59275 2.62716 5.92595 2.49585 6.25318 2.33943C6.15644 2.36647 6.05971 2.38964 5.96178 2.41281L5.96058 2.41088ZM0.29142 3.25474C0.244844 3.31074 0.209016 3.34936 0.183937 3.38798C1.60153 3.01722 3.01434 2.60591 4.42476 2.16178C5.041 1.96675 5.65963 1.8142 6.27706 1.63848C6.56488 1.55737 6.8527 1.44731 7.12021 1.2542C7.36504 1.07848 7.59195 0.839036 7.82841 0.63821C8.26073 0.269386 8.7038 0.107181 9.17434 0.0125614H6.00955C5.8531 0.0666298 5.69665 0.126491 5.5414 0.197939C5.07086 0.414213 4.64212 0.736692 4.21815 1.12869C3.81569 1.50137 3.4168 1.88565 2.98568 2.17144C2.05176 2.79129 0.998424 2.83764 0.0119629 3.15432C0.0298768 3.35129 0.0895899 3.44204 0.29142 3.25474ZM18.4848 0.00290632C18.2161 -0.0202659 17.9677 0.101388 17.699 0.145801C17.5521 0.170905 17.3909 0.0241475 17.2392 0.0125614C17.0613 -0.00288672 16.8797 0.0125614 16.7018 0.0125614H16.6636C16.1166 0.282903 15.5577 0.443178 14.9797 0.35242C14.6703 0.304145 14.3634 0.236559 14.0529 0.21918C13.7316 0.201801 13.4223 0.259731 13.1035 0.327317C12.449 0.46635 11.7898 0.499177 11.1317 0.526211C10.4665 0.553246 9.79894 0.574487 9.13732 0.709658C8.84712 0.769519 8.56527 0.848691 8.29537 1.03793C8.09712 1.17696 7.90962 1.35269 7.72212 1.52262C8.29895 1.21365 8.86981 1.02634 9.49082 1.03407C10.2743 1.04565 11.0577 1.1229 11.8411 1.06303C12.2066 1.03407 12.5529 1.01862 12.9148 1.13062C13.2384 1.23103 13.5537 1.39324 13.8738 1.51489C14.6333 1.80454 15.406 1.56317 16.1464 1.25034C16.8929 0.935587 17.6357 0.603452 18.3881 0.327317C18.6831 0.21918 18.9792 0.114905 19.2754 0.0125614C19.0127 0.0164234 18.7487 0.0241475 18.4872 0.00290632H18.4848ZM17.4112 4.68948C16.9968 4.3979 16.5752 4.47514 16.1357 4.47321C15.1086 4.46934 14.0875 4.27817 13.0617 4.22411C12.0621 4.17004 11.1031 4.32259 10.1345 4.73582C9.73684 4.90575 9.34393 5.09886 8.95102 5.29389H11.0469C11.3646 5.29389 11.8184 5.43099 12.1194 5.24947C12.1075 5.19541 12.0836 5.15292 12.0525 5.12203C12.1863 5.19347 12.3821 5.18382 12.5099 5.22244C13.0676 5.39237 13.6922 5.29389 14.2595 5.29389H18.1158C17.8805 5.09499 17.656 4.85941 17.4112 4.68755V4.68948ZM27.8992 0.155457C26.8052 0.221111 25.7137 0.423868 24.646 0.823588C24.0978 1.02828 23.5652 1.29282 23.0433 1.63655C22.7531 1.82772 22.4653 2.0324 22.1763 2.22937C22.6265 2.27571 23.0756 2.29888 23.527 2.28537C24.0095 2.27185 24.4872 2.3684 24.9673 2.40123C25.2145 2.41861 25.4629 2.41668 25.7077 2.36454C25.9454 2.3124 26.1771 2.2004 26.4111 2.11157C26.8948 1.9262 27.3809 1.76785 27.8741 1.66165C28.193 1.59213 28.513 1.54772 28.8319 1.5342C28.7865 1.37779 28.7328 1.23103 28.6766 1.10358C28.4844 0.661382 28.2085 0.331179 27.898 0.157388L27.8992 0.155457ZM21.4143 0.0125614C20.2535 0.383316 19.0927 0.756002 17.9414 1.20207C17.1878 1.49558 16.4462 1.87985 15.6878 2.13282C15.326 2.25254 14.9558 2.3375 14.5855 2.3375C14.2058 2.3375 13.8415 2.22164 13.4761 2.06716C13.1668 1.93585 12.8574 1.78137 12.5374 1.73503C12.1636 1.68096 11.7838 1.76592 11.4088 1.77365C10.6254 1.7891 9.83358 1.65006 9.05253 1.7331C8.34552 1.80841 7.6851 2.27185 7.02825 2.66385C6.31528 3.08674 5.58797 3.35322 4.83439 3.50191C4.74602 3.51928 4.65884 3.53473 4.57046 3.54825C5.11385 3.75487 5.6441 4.05611 6.15525 4.40755C6.51711 4.65665 6.87778 4.93858 7.22292 5.26106C8.2667 4.31293 9.42753 3.68149 10.5907 3.27018C11.2583 3.0346 11.9128 3.04426 12.5875 3.18908C13.3029 3.34356 14.0183 3.38025 14.7408 3.36094C15.2257 3.34742 15.7117 3.3146 16.1966 3.29529C17.0171 2.96122 17.8017 2.41474 18.6317 2.15213C19.1214 1.83544 19.6468 1.76592 20.1651 1.5902C20.8065 1.37393 21.437 0.997379 22.0568 0.65752C22.4354 0.448971 22.8128 0.232697 23.1902 0.0125614H21.4167H21.4143ZM0.59118 4.73196C0.65567 4.815 0.726132 4.89031 0.795399 4.95403C1.03306 5.1761 1.30535 5.29582 1.58003 5.29582H5.16282C3.67357 4.60452 2.13417 4.28397 0.59118 4.73196ZM28.851 2.7546C28.7829 2.71212 28.6325 2.72564 28.5907 2.70247C28.7817 2.64453 28.9549 2.60785 28.9501 2.24868C28.9501 2.23902 28.9501 2.22744 28.9501 2.21778C28.4294 2.2313 27.9087 2.32592 27.3916 2.47847C26.9199 2.6175 26.4601 2.83184 25.9907 2.98246C25.5262 3.13308 25.0556 3.10798 24.5851 3.05198C24.1146 2.99598 23.6512 2.98439 23.1795 2.98246C22.6659 2.98246 22.1536 2.91874 21.6412 2.85308C20.773 2.74109 19.8654 2.56343 18.9936 2.75267C19.199 2.76619 19.4068 2.80674 19.6146 2.88591C20.0971 3.07129 20.5652 3.35129 21.0513 3.51156C21.566 3.67956 22.0855 3.58301 22.6014 3.48066C23.1126 3.37832 23.6094 3.32425 24.1217 3.43432C24.5935 3.53473 25.0556 3.72397 25.5226 3.87266C25.9907 4.02135 26.472 4.11597 26.9485 4.02328C27.4394 3.92673 27.9075 3.62356 28.3733 3.37253C28.5704 3.26632 28.7686 3.17943 28.9692 3.10991C28.974 2.94577 28.943 2.81446 28.8522 2.75653L28.851 2.7546ZM27.935 4.3361C27.4657 4.58327 26.9939 4.74741 26.4983 4.74355C26.0361 4.73969 25.5787 4.59679 25.1285 4.44231C24.6472 4.27624 24.1659 4.08893 23.6727 4.05418C23.1783 4.01942 22.691 4.16424 22.2002 4.24535C21.6854 4.33031 21.1862 4.29169 20.6846 4.08121C20.2022 3.87845 19.7292 3.57915 19.2336 3.46908C18.83 3.38025 18.4287 3.42853 18.0286 3.52508C18.2233 3.61004 18.4167 3.71625 18.6114 3.84949C18.8706 4.02714 19.1261 4.22217 19.396 4.35155C19.7077 4.50024 20.035 4.535 20.3598 4.55238C21.0537 4.58714 21.7475 4.44231 22.4402 4.535C23.1424 4.62769 23.8172 4.91927 24.4764 5.29775H27.3904C27.8431 5.29775 28.279 4.97141 28.5763 4.42107C28.6241 4.33224 28.7125 4.12949 28.7937 3.8939C28.5071 4.02714 28.224 4.18549 27.9362 4.3361H27.935ZM21.7451 5.19347C21.0776 5.21085 20.4123 5.29968 19.7471 5.16837C19.1751 5.05637 18.6831 4.60645 18.1504 4.28976C17.9558 4.1739 17.7587 4.09859 17.5604 4.05031C17.6106 4.08314 17.6608 4.11983 17.7109 4.15845C18.0358 4.41528 18.3319 4.74934 18.6747 4.94437C18.9303 5.09113 19.1906 5.2012 19.4534 5.29582H21.4729C21.7702 5.29582 22.0676 5.29582 22.3662 5.29582C22.4748 5.29582 22.599 5.33444 22.7041 5.32092C22.7232 5.31899 22.7435 5.3132 22.7627 5.3074C22.4307 5.2263 22.0927 5.18575 21.7463 5.19541L21.7451 5.19347Z" fill="url(#paint1_linear_19_7453)"/>
<g style="mix-blend-mode:multiply" opacity="0.77">
<path d="M1.15241 2.73143C1.19063 2.58467 1.34708 1.98606 1.25751 1.8702C1.21212 1.81227 1.04732 1.83544 0.986408 1.83351C1.15241 1.75627 1.31722 1.76592 1.4665 1.62496C1.62653 1.47434 1.73879 1.33917 1.93585 1.33917H17.1902C17.5711 1.33917 17.9533 1.36041 18.3343 1.33917C18.7176 1.31793 19.0878 0.995448 19.4664 1.02248C19.384 1.0669 19.2933 1.15186 19.2515 1.27738C19.4378 1.37972 19.7722 1.29282 19.9859 1.31986C20.3956 1.37006 20.7741 1.41255 21.1706 1.20593C21.3928 1.09007 21.5934 1.38165 21.8287 1.24648C21.8311 1.21751 21.8287 1.20979 21.8287 1.17889C21.8311 1.48206 26.3 1.33917 26.8935 1.33917H27.0357C27.3868 1.33917 27.6244 1.72537 27.7474 2.22164C27.8597 2.68122 28.1177 2.65612 28.4055 2.63102C28.292 2.74688 28.0806 2.72371 27.9493 2.73336C27.6447 2.7546 27.7546 3.24894 27.5922 3.55404C27.4525 3.81473 27.2482 3.96535 27.0368 3.96535H26.017C25.6933 3.96535 25.3697 3.94025 25.046 3.93059C24.1133 3.90163 23.1758 3.96535 22.2419 3.96535H1.93465C1.79254 3.96535 1.65161 3.89776 1.53219 3.77032C1.41754 3.64866 1.37574 3.44977 1.28139 3.31846C1.08673 3.05005 0.745167 3.20839 0.515869 3.16591C0.819212 2.97088 1.04254 3.14853 1.15241 2.72757V2.73143Z" fill="#864300"/>
</g>
<path style="mix-blend-mode:screen" opacity="0.5" d="M27.5887 3.55597C27.449 3.81665 27.2448 3.96727 27.0334 3.96727H1.93476C1.79265 3.96727 1.65172 3.89969 1.5323 3.77224C1.41765 3.65059 1.37585 3.45169 1.2815 3.32038C1.24926 3.27597 1.21224 3.24314 1.17163 3.21997C1.40571 3.359 1.4272 3.87265 1.60395 4.11596C1.61231 4.12755 1.62067 4.1372 1.62903 4.14686C1.73652 4.27044 1.88819 4.32065 2.053 4.33417C2.45666 4.1121 2.93197 3.96148 3.32608 4.18934C3.34161 4.199 3.35594 4.20865 3.37027 4.22217C3.41326 4.23375 3.45387 4.25113 3.49447 4.27817H3.58165C3.66047 4.25499 3.74407 4.25499 3.8217 4.27817H4.26835C4.37345 4.22989 4.4881 4.22024 4.59797 4.24727C4.78666 4.09472 4.99446 4.08507 5.17241 4.255C5.30975 4.21831 5.44112 4.21444 5.57965 4.26658C5.58801 4.27044 5.59637 4.2743 5.60473 4.27817H11.1628C11.2763 4.25886 11.3897 4.24727 11.5032 4.23955C11.5259 4.21831 11.5534 4.20093 11.5856 4.18934C11.9033 4.0812 12.2102 4.09472 12.5207 4.23955C12.6628 4.12755 12.8324 4.09279 12.9817 4.17196C12.996 4.16617 13.0092 4.16038 13.0235 4.15651C13.0725 4.11789 13.125 4.07927 13.1799 4.06382C13.2182 4.05224 13.2564 4.04065 13.2958 4.04838C13.3221 4.05224 13.3507 4.0561 13.3758 4.06769C13.4009 4.07927 13.4248 4.09858 13.4486 4.11596C13.5466 4.08893 13.6457 4.12369 13.7233 4.20672C13.8487 4.18162 13.9717 4.18355 14.0971 4.22989C14.1234 4.23955 14.1473 4.25693 14.1688 4.27817C14.176 4.2743 14.1831 4.27044 14.1903 4.26851C14.3336 4.21444 14.4697 4.21444 14.6131 4.26851C14.6214 4.27237 14.6298 4.27624 14.6381 4.2801H21.8598C22.1047 4.15458 22.3519 4.10244 22.6134 4.10051C22.6791 4.10051 22.7328 4.13141 22.7734 4.18355C22.8057 4.17775 22.8403 4.17969 22.8726 4.19127C22.8976 4.20093 22.9227 4.20672 22.9466 4.21444C22.9609 4.21831 22.9669 4.22024 22.9645 4.21831C22.9705 4.21831 22.9765 4.22024 22.9824 4.22217C23.0314 4.23375 23.0816 4.24148 23.1293 4.26658C23.1365 4.27044 23.1437 4.2743 23.1508 4.27817H23.5007C23.5473 4.25693 23.5987 4.25499 23.6465 4.26658C23.6668 4.27237 23.7145 4.27624 23.7551 4.27817H23.8136C23.8554 4.27624 23.9104 4.27044 23.9271 4.26658C23.9797 4.25306 24.031 4.25693 24.0764 4.27817H24.4024C24.4024 4.27817 24.4144 4.27044 24.4203 4.26658C24.5481 4.18934 24.6843 4.17582 24.8192 4.17582C24.8861 4.17582 24.9446 4.21444 24.99 4.2801H25.1058C25.1345 4.26272 25.1644 4.25306 25.1954 4.25306C25.2742 4.25306 25.3566 4.25693 25.4343 4.2801H26.1138C26.3204 4.2801 26.527 4.27624 26.7348 4.2801C27.2304 4.29168 27.4263 4.17389 27.6269 3.45169C27.6126 3.5019 27.6007 3.54052 27.5911 3.5579L27.5887 3.55597Z" fill="url(#paint2_linear_19_7453)"/>
<g style="mix-blend-mode:multiply" opacity="0.76">
<path d="M27.7438 2.22357C27.622 1.7273 27.3832 1.3411 27.032 1.3411H26.8899C26.2964 1.3411 21.8274 1.48206 21.8251 1.18082C21.8251 1.21172 21.8286 1.21944 21.8251 1.24841C21.5898 1.38551 21.3892 1.09393 21.167 1.20786C20.7705 1.41448 20.3919 1.37199 19.9823 1.32179C19.7685 1.29475 19.4353 1.38165 19.2478 1.2793C19.2896 1.15186 19.3804 1.06882 19.4628 1.02441C19.0842 0.999307 18.714 1.31986 18.3307 1.3411C17.9509 1.36234 17.5675 1.3411 17.1865 1.3411H1.93463C1.73757 1.3411 1.62531 1.47434 1.46528 1.62689C1.316 1.76785 1.15119 1.7582 0.985188 1.83544C1.04729 1.83544 1.2121 1.8142 1.25629 1.87213C1.34705 1.98799 1.1906 2.5866 1.15119 2.73336C1.04012 3.15432 0.817991 2.97667 0.514648 3.1717C0.743947 3.21418 1.0867 3.05584 1.28017 3.32425C1.37452 3.45556 1.41632 3.65252 1.53097 3.77611C1.65039 3.90355 1.79131 3.97114 1.93343 3.97114H22.2347C23.1686 3.97114 24.1061 3.90742 25.0388 3.93638C25.3625 3.94604 25.6861 3.97114 26.0098 3.97114H27.0297C27.241 3.97114 27.4453 3.81859 27.585 3.55983C27.7474 3.25666 27.6375 2.76039 27.9421 2.73915C28.0734 2.7295 28.2848 2.7546 28.3983 2.63681C28.1105 2.66191 27.8525 2.68508 27.7402 2.22743L27.7438 2.22357ZM27.3652 2.75653C27.3652 3.19294 27.1443 3.55018 26.8744 3.55018C26.417 3.55018 25.9751 3.49418 25.5225 3.43432C25.5404 3.36287 25.5368 3.26246 25.5655 3.18908C25.5189 3.25859 24.9588 3.64287 24.9743 3.51542C25.0006 3.29915 25.1499 3.18715 25.1989 3.0037C24.8979 3.34742 24.757 3.57528 24.3879 3.54825C24.2148 3.53666 24.038 3.54825 23.8649 3.54825H15.2268C14.509 3.54825 13.7507 3.64866 13.0425 3.46908C13.0592 3.28177 13.138 3.1408 13.2144 2.99598C13.0305 3.12535 12.923 3.44204 12.7272 3.53859C12.5313 3.63514 12.2542 3.54825 12.05 3.54825H10.4832C9.48594 3.54825 8.44813 3.67569 7.45809 3.54632C7.45092 3.43818 7.47481 3.32039 7.53094 3.2528C7.32194 3.50383 7.2682 3.5637 7.01741 3.54825C6.72959 3.53087 6.43938 3.54825 6.15037 3.54825H2.05764C1.78773 3.54825 1.56679 3.19101 1.56679 2.7546V2.54991C1.56679 2.1135 1.78773 1.75626 2.05764 1.75626C2.3777 1.75626 2.69895 1.75047 3.01902 1.75626C3.26384 1.76013 3.44298 1.78137 3.23159 2.22743C3.58748 1.4782 4.55484 1.75626 5.03612 1.75626H6.07394C6.3104 1.75626 6.80602 1.59213 6.99591 1.85861C6.96366 2.04978 6.88604 2.21392 6.86096 2.41088C6.90753 2.03047 7.43062 1.7582 7.6229 1.73695C7.9561 1.70027 8.64877 1.54772 8.93539 1.81999C8.92225 1.91268 8.90792 2.02854 8.87926 2.1135C9.00346 1.75433 9.42504 1.75626 9.63165 1.75626C10.0496 1.75626 10.4676 1.75626 10.8844 1.75626C11.1699 1.75626 11.6105 1.61916 11.8804 1.75626C12.1766 1.90688 11.9115 2.05557 11.8339 2.37998C11.9616 2.30854 12.0596 2.06716 12.185 1.94937C12.6328 1.53034 13.3291 1.7582 13.8199 1.7582H19.8294C20.8171 1.7582 21.8203 1.67902 22.8044 1.7833C22.8665 1.99957 22.7363 2.15019 22.673 2.34136C22.8426 2.21198 22.9942 1.87019 23.1973 1.77944C23.4373 1.67323 23.7848 1.76785 24.0297 1.7833C24.0022 1.84123 23.9819 1.95709 23.964 1.99957C24.1097 1.66358 24.5683 1.74082 24.7701 1.75433C25.1391 1.78137 25.5117 1.75433 25.8808 1.75433H26.872C27.1419 1.75433 27.3629 2.11157 27.3629 2.54798V2.75267L27.3652 2.75653Z" fill="#864300"/>
</g>
<path d="M8.91382 2.54692V2.75766C8.91382 3.15593 8.83386 3.48097 8.7349 3.48097L1.63461 3.48097C1.53565 3.48097 1.45569 3.15771 1.45569 2.75766V2.54692C1.45569 2.14687 1.53565 1.82361 1.63461 1.82361L8.7349 1.82361C8.83341 1.82361 8.91382 2.14687 8.91382 2.54692Z" fill="url(#paint3_linear_19_7453)"/>
<path style="mix-blend-mode:screen" opacity="0.64" d="M1.58827 1.82361C1.54284 1.82361 1.50236 1.90843 1.47357 2.04111C1.44973 2.15204 1.44973 2.32386 1.47357 2.43479C1.50236 2.56964 1.54329 2.65229 1.58827 2.65229H8.78011C8.82689 2.65229 8.86873 2.56311 8.89797 2.42174C8.91911 2.31734 8.91911 2.15856 8.89797 2.05416C8.86918 1.91278 8.82689 1.82361 8.78011 1.82361H1.58827Z" fill="url(#paint4_linear_19_7453)"/>
<path style="mix-blend-mode:multiply" d="M8.75611 3.24771H1.61296C1.53477 3.24771 1.46983 2.98989 1.4579 2.65228C1.45657 2.68911 1.45569 2.72594 1.45569 2.76431V2.77505C1.45569 3.16484 1.52593 3.48096 1.61296 3.48096H8.75655C8.84358 3.48096 8.91382 3.16484 8.91382 2.77505V2.76431C8.91382 2.72594 8.91294 2.68911 8.91161 2.65228C8.89968 2.98989 8.83474 3.24771 8.75655 3.24771H8.75611Z" fill="url(#paint5_linear_19_7453)"/>
<g style="mix-blend-mode:screen">
<path opacity="0.58" d="M28.6777 1.10165C28.3852 0.42773 27.8991 0.0125614 27.3891 0.0125614H19.4246C19.1117 0.0125614 18.7964 0.0299405 18.4847 0.00290632C18.216 -0.0202659 17.9676 0.101388 17.6989 0.145801C17.552 0.170905 17.3908 0.0241475 17.2391 0.0125614C17.0612 -0.00288672 16.8796 0.0125614 16.7017 0.0125614H1.57994C0.714099 0.0125614 0.00590188 1.15765 0.00590188 2.55764V2.75074C0.00590188 2.84729 0.00470761 2.94191 0.00590188 3.02688C0.0465068 2.91295 0.093083 2.80481 0.148019 2.7044C0.169516 2.60012 0.196984 2.50936 0.218481 2.46495C0.339101 2.22164 0.523017 2.19075 0.704545 2.19654C0.331935 2.18495 0.0787519 2.07489 0.294913 1.47627C0.435836 1.08621 0.614976 0.676831 0.925484 0.669107C1.12612 0.663314 1.20972 0.728968 1.41633 0.640141C1.89403 0.435454 2.42189 0.559039 2.91751 0.518487C2.59506 0.205663 1.94658 0.715451 1.64682 0.336972C1.9215 0.082078 2.28097 0.151595 2.57715 0.184422C2.97961 0.228835 3.38925 0.207594 3.7941 0.207594H16.6826C16.8402 0.207594 17.1137 0.184422 17.257 0.298352C17.017 0.539729 16.6885 0.609245 16.4593 0.823588C16.6563 0.748278 16.8844 0.777243 17.091 0.711589C17.5568 0.566763 17.964 0.16125 18.4525 0.19987C18.7618 0.224973 19.0747 0.207594 19.3852 0.207594H27.2852C27.708 0.207594 28.1152 0.477936 28.4066 0.931725C28.5822 1.09586 28.7255 1.32758 28.8509 1.59213C28.802 1.41448 28.7422 1.24455 28.6789 1.10165H28.6777Z" fill="url(#paint6_linear_19_7453)"/>
</g>
<g style="mix-blend-mode:multiply" opacity="0.56">
<path style="mix-blend-mode:multiply" opacity="0.41" d="M27.308 5.10469C27.2997 5.10469 27.2925 5.10469 27.2842 5.10469H26.4983C26.3932 5.10469 25.2276 4.99656 25.2026 5.0738C25.2372 4.96759 25.3256 4.92511 25.4163 4.91932C25.3924 4.87297 25.3638 4.83435 25.3268 4.80539C25.3232 4.77642 25.3554 4.77449 25.3399 4.74939C25.1488 4.62001 24.5517 4.68373 24.4048 4.89228C24.4191 4.92318 24.4346 4.93476 24.4502 4.96759C24.1492 5.23021 23.6608 5.0429 23.33 5.10856C23.2392 5.12593 23.1628 5.16842 23.0815 5.17421C23.0481 5.20511 23.0135 5.28621 22.9991 5.32483C23.146 5.42717 23.2571 5.33062 23.4016 5.29973C23.6094 5.25531 23.8387 5.29973 24.0489 5.29973H27.3881C27.5051 5.29973 27.6197 5.27848 27.732 5.236C27.5899 5.19545 27.4478 5.15297 27.3068 5.10856L27.308 5.10469Z" fill="url(#paint7_linear_19_7453)"/>
<path style="mix-blend-mode:multiply" opacity="0.41" d="M11.459 5.13363C11.3216 5.12011 11.1891 5.10466 11.0732 5.10466H2.47931C1.8989 5.19735 1.1919 5.21859 0.646118 4.79956C0.695083 4.85556 0.746436 4.9077 0.796595 4.95597C1.03425 5.17804 1.30655 5.29776 1.58123 5.29776H11.0469C11.3372 5.29776 11.7384 5.40976 12.0358 5.2939C11.8423 5.26107 11.6501 5.21087 11.4614 5.13749L11.459 5.13363Z" fill="url(#paint8_linear_19_7453)"/>
<path style="mix-blend-mode:multiply" opacity="0.41" d="M21.5839 5.10466H21.4155C20.7145 5.10466 19.9585 5.22825 19.2682 5.03708C18.91 4.93667 18.2077 5.08342 17.9307 4.69915C17.9522 4.66825 17.9725 4.61805 17.9963 4.58522C17.8948 4.45971 17.7312 4.4346 17.6082 4.38826C17.6667 4.20867 17.8829 4.24536 18.0035 4.18357C17.6106 4.26467 17.1413 4.13336 16.7424 4.09088C16.9729 4.13143 17.2332 4.19129 17.441 4.36895C17.4243 4.3844 17.3992 4.42108 17.3789 4.44233C17.4745 4.54853 17.5843 4.6277 17.6763 4.73391C17.4613 5.39432 15.8395 5.19349 15.4478 4.91542C15.5839 4.84591 15.7547 4.79763 15.9088 4.81115C15.5182 4.73584 14.8996 4.62577 14.5318 4.80343C14.6309 4.80343 14.73 4.85749 14.8065 4.9637C14.318 5.17225 13.7149 5.22052 13.1596 5.15873C12.9888 5.18963 12.8192 5.22246 12.6484 5.25721C13.1703 5.37501 13.7388 5.2939 14.2583 5.2939H21.4716C21.7117 5.2939 21.9505 5.2939 22.1906 5.2939C21.9888 5.21859 21.7869 5.14522 21.5827 5.10273L21.5839 5.10466Z" fill="url(#paint9_linear_19_7453)"/>
</g>
<path style="mix-blend-mode:screen" opacity="0.46" d="M12.7738 0.657513C12.3988 0.491446 11.9665 0.562893 11.5807 0.530066C10.8917 0.470205 10.2062 0.439308 9.51467 0.427722C8.35982 0.408412 7.20258 0.389102 6.04773 0.348551C5.04813 0.313792 3.98524 0.219173 2.98923 0.358206C3.06566 0.408412 3.18509 0.481791 3.28182 0.506894C2.7456 0.842891 2.15205 0.688409 1.59313 0.70772C1.35906 0.715444 0.0537301 0.943303 0.423951 1.76785C0.533823 2.01115 0.767899 1.81419 0.865828 2.05364C0.751179 2.21198 0.557709 2.41088 0.525464 2.65418C0.914793 2.71984 1.31368 2.23901 0.8718 1.75433C0.938678 1.6095 1.03303 1.61337 1.13812 1.56895C1.37458 1.46661 1.47968 1.37199 1.67673 1.17503C1.84871 1.00316 2.20698 1.09392 2.41479 1.09392H11.1401C11.6118 1.09392 12.4096 1.31599 12.7738 0.655582V0.657513Z" fill="url(#paint10_linear_19_7453)"/>
<path style="mix-blend-mode:screen" opacity="0.46" d="M26.8028 1.19436C26.0934 1.0476 25.3768 1.03988 24.6615 1.03602C23.9987 1.03216 23.3609 1.20209 22.6921 1.09781C22.4855 1.06498 22.0831 1.10747 21.9147 0.925951C21.8072 1.08816 21.4752 1.20981 21.4967 0.879606C21.2447 1.07657 20.9366 1.03988 20.6476 1.06305C20.3323 1.08623 19.8343 1.32181 19.55 1.1654C19.5954 1.05726 19.673 0.993536 19.7483 0.922089C19.4796 0.682643 18.9529 1.14029 18.6782 1.21367C18.486 1.26581 18.0489 1.36622 18.1325 0.964571C18.2411 0.437404 18.9768 0.209544 19.2467 0.389129C19.1404 0.918227 20.7359 0.400715 20.9425 0.389129C21.2793 0.371749 21.5492 0.37368 21.8562 0.539748C22.3088 0.784987 22.839 0.607333 23.3132 0.580299C24.6089 0.508852 26.005 0.342784 27.2936 0.613126C27.5397 0.665264 27.7797 0.775332 27.8502 1.21367C27.886 1.43188 27.8549 1.67518 27.7403 1.8007C27.4776 1.35271 27.1921 1.27546 26.8016 1.19436H26.8028Z" fill="url(#paint11_linear_19_7453)"/>
<path style="mix-blend-mode:screen" opacity="0.31" d="M15.0656 3.51347C15.1934 3.37637 15.3187 3.22768 15.4238 3.04617C15.5863 2.7681 15.6866 2.41086 15.7762 2.06135C15.8036 1.95514 15.8347 1.84894 15.8789 1.75818H15.4943C15.511 1.82963 15.5218 1.90687 15.5254 1.98797C15.5516 2.51127 15.3056 2.91099 15.0548 3.17554C14.9163 3.32423 14.767 3.44395 14.6141 3.55016H15.0512C15.0512 3.53664 15.0548 3.52313 15.0644 3.51347H15.0656Z" fill="url(#paint12_linear_19_7453)"/>
<path style="mix-blend-mode:screen" opacity="0.31" d="M4.7018 3.30108C4.71852 3.10991 4.80331 2.94191 4.869 2.78743C4.90363 2.7044 4.94065 2.62136 4.96573 2.52868C4.99201 2.43019 5.01111 2.32399 5.03022 2.21971C5.06008 2.0633 5.08874 1.89144 5.16517 1.77558C5.16876 1.76979 5.17353 1.76399 5.17831 1.76013H4.6194C4.62656 1.77558 4.63373 1.79103 4.6397 1.80648C4.77465 2.16758 4.63492 2.58661 4.48922 2.87626C4.35666 3.13888 4.18946 3.3706 4.00793 3.55211H4.74838C4.71255 3.48839 4.69344 3.40536 4.7018 3.30108Z" fill="url(#paint13_linear_19_7453)"/>
<defs>
<linearGradient id="paint0_linear_19_7453" x1="14.4911" y1="4.74162" x2="14.4911" y2="0.0955949" gradientUnits="userSpaceOnUse">
<stop stop-color="#B44320"/>
<stop offset="1" stop-color="#FF9215"/>
</linearGradient>
<linearGradient id="paint1_linear_19_7453" x1="14.49" y1="13.9004" x2="14.49" y2="0.242353" gradientUnits="userSpaceOnUse">
<stop stop-color="#B44320"/>
<stop offset="1" stop-color="#FF9215"/>
</linearGradient>
<linearGradient id="paint2_linear_19_7453" x1="14.3981" y1="-0.960678" x2="14.3981" y2="5.30933" gradientUnits="userSpaceOnUse">
<stop stop-color="#B44320"/>
<stop offset="1" stop-color="#FF9215"/>
</linearGradient>
<linearGradient id="paint3_linear_19_7453" x1="5.18475" y1="1.76824" x2="5.18475" y2="3.24344" gradientUnits="userSpaceOnUse">
<stop stop-color="#FFFF3B"/>
<stop offset="0.6" stop-color="#85B918"/>
<stop offset="1" stop-color="#318900"/>
</linearGradient>
<linearGradient id="paint4_linear_19_7453" x1="5.18464" y1="1.75401" x2="5.18464" y2="3.67672" gradientUnits="userSpaceOnUse">
<stop stop-color="#98D600"/>
<stop offset="0.54" stop-color="#FFFF3B"/>
<stop offset="1" stop-color="#98D600"/>
</linearGradient>
<linearGradient id="paint5_linear_19_7453" x1="5.18476" y1="2.13512" x2="5.18476" y2="3.49171" gradientUnits="userSpaceOnUse">
<stop stop-color="#98D600"/>
<stop offset="0.54" stop-color="#FFFF3B"/>
<stop offset="1" stop-color="#98D600"/>
</linearGradient>
<linearGradient id="paint6_linear_19_7453" x1="14.8542" y1="5.9485" x2="12.8197" y2="-0.697539" gradientUnits="userSpaceOnUse">
<stop stop-color="#C76525"/>
<stop offset="1" stop-color="#FF9D33"/>
</linearGradient>
<linearGradient id="paint7_linear_19_7453" x1="25.0796" y1="2.8203" x2="23.0451" y2="-3.82574" gradientUnits="userSpaceOnUse">
<stop stop-color="#B15813"/>
<stop offset="1" stop-color="#FF9215"/>
</linearGradient>
<linearGradient id="paint8_linear_19_7453" x1="6.73566" y1="8.4318" x2="4.70107" y2="1.78173" gradientUnits="userSpaceOnUse">
<stop stop-color="#B15813"/>
<stop offset="1" stop-color="#FF9215"/>
</linearGradient>
<linearGradient id="paint9_linear_19_7453" x1="17.4076" y1="5.16839" x2="15.3729" y2="-1.4837" gradientUnits="userSpaceOnUse">
<stop stop-color="#B15813"/>
<stop offset="1" stop-color="#FF9215"/>
</linearGradient>
<linearGradient id="paint10_linear_19_7453" x1="0.358267" y1="1.47433" x2="12.7738" y2="1.47433" gradientUnits="userSpaceOnUse">
<stop stop-color="#B44320"/>
<stop offset="1" stop-color="#FF9215"/>
</linearGradient>
<linearGradient id="paint11_linear_19_7453" x1="18.1217" y1="1.06305" x2="27.8645" y2="1.06305" gradientUnits="userSpaceOnUse">
<stop stop-color="#B44320"/>
<stop offset="1" stop-color="#FF9215"/>
</linearGradient>
<linearGradient id="paint12_linear_19_7453" x1="15.2459" y1="1.69639" x2="15.2459" y2="3.2914" gradientUnits="userSpaceOnUse">
<stop stop-color="#98D600"/>
<stop offset="0.54" stop-color="#FFFF3B"/>
<stop offset="1" stop-color="#98D600"/>
</linearGradient>
<linearGradient id="paint13_linear_19_7453" x1="4.59312" y1="1.69641" x2="4.59312" y2="3.29143" gradientUnits="userSpaceOnUse">
<stop stop-color="#98D600"/>
<stop offset="0.54" stop-color="#FFFF3B"/>
<stop offset="1" stop-color="#98D600"/>
</linearGradient>
</defs>
</svg>
