<svg width="29" height="6" viewBox="0 0 29 6" fill="none" xmlns="http://www.w3.org/2000/svg">
<path d="M1.57737 5.75722C1.22684 5.75722 0.900161 5.5683 0.619979 5.23093C0.476907 5.05936 -0.0977659 4.32102 0.195532 4.04149C0.0166917 4.03378 0.0453061 3.81786 0 3.62123C0.0107304 3.5981 0.0226531 3.56918 0.0333835 3.54605C0.0107304 3.59231 0.00596133 3.05061 0.00596133 3.02169C0.00596133 1.62404 0.712975 0.480863 1.57737 0.480863H16.6727C16.8503 0.480863 17.0315 0.465441 17.2092 0.480863C17.3606 0.494358 17.5215 0.638942 17.6682 0.613881C17.9365 0.569541 18.1845 0.448091 18.4527 0.471224C18.7639 0.498213 19.0786 0.480863 19.391 0.480863H27.3422C27.6999 0.480863 27.9587 0.725692 28.2674 0.96281C28.5202 1.15752 28.8123 1.44669 28.8862 1.91514C28.9208 2.13491 28.8815 2.37588 28.9017 2.5995C28.922 2.81541 28.959 3.00434 28.953 3.23375C28.9363 3.84293 28.7754 4.41355 28.5262 4.87815C28.2293 5.42757 27.7941 5.75336 27.3422 5.75336H24.0087C23.7988 5.75336 23.5711 5.71095 23.3625 5.75336C23.0167 5.82662 22.6769 5.75336 22.3264 5.75336C22.0295 5.75336 21.7326 5.75336 21.4346 5.75336H14.2333C13.8661 5.75336 13.4988 5.79385 13.1316 5.77843C12.8908 5.76879 12.4186 5.79385 12.2064 5.57408C12.2589 5.62806 12.2565 5.68204 12.272 5.74565C11.8511 5.78806 11.4458 5.75336 11.0249 5.75336H1.57737V5.75722Z" fill="#7A2900"/>
<path d="M27.3434 5.28697H24.0098C23.8 5.28697 23.5723 5.24456 23.3636 5.28697C23.0179 5.36023 22.6781 5.28697 22.3275 5.28697C22.0307 5.28697 21.7338 5.28697 21.4357 5.28697H14.2344C13.6693 5.28697 13.0458 5.38529 12.4878 5.21564C12.3364 5.16937 12.0919 5.19251 11.9656 5.0672C12.0276 5.09805 12.0788 5.15395 12.0979 5.24263C11.7963 5.42384 11.3444 5.28697 11.0272 5.28697H1.57734C1.29478 5.28697 1.03605 5.14624 0.78687 4.93997C0.726064 4.88985 0.367192 4.45609 0.647374 4.50043C0.557954 4.48694 0.385076 4.54863 0.317117 4.42332C0.143046 4.10524 0.892981 4.15536 1.00029 4.09174C0.742756 4.02234 0.25035 4.21126 0.157353 3.6657C0.115624 3.41701 0.168083 3.39581 0.289695 3.24737C-0.0226793 3.54232 0.00593505 3.15676 0.00593505 2.74614V2.55337C0.00593505 1.15572 0.712949 0.0125404 1.57734 0.0125404H16.6726C16.8503 0.0125404 17.0315 -0.0028819 17.2091 0.0125404C17.3606 0.0260349 17.5215 0.170619 17.6682 0.145558C17.9364 0.101219 18.1844 -0.020232 18.4527 0.00290147C18.7639 0.0298905 19.0786 0.0125404 19.391 0.0125404H27.3422C27.8513 0.0125404 28.3366 0.427015 28.6287 1.09981C28.7717 1.42946 28.9184 1.77454 28.9017 2.18901C28.8922 2.43963 28.7431 2.80783 28.5416 2.69795C28.5822 2.72108 28.7324 2.70759 28.8004 2.75C28.9327 2.83289 28.9577 3.19146 28.8862 3.36882C28.8266 3.51726 28.6811 3.56545 28.5834 3.60208C28.3306 3.69654 28.0624 3.69847 27.8036 3.69847C27.9849 3.69847 28.1637 3.71775 28.3425 3.74859C28.4486 3.76594 28.7002 3.70426 28.7729 3.82378C28.7825 3.8392 28.5464 4.37513 28.525 4.41561C28.2281 4.96503 27.7929 5.29083 27.341 5.29083L27.3434 5.28697Z" fill="url(#paint0_linear_17_6914)"/>
<path style="mix-blend-mode:screen" opacity="0.25" d="M0.0820625 1.77068C0.288325 0.754739 0.880881 0.0125404 1.57716 0.0125404H3.83293C3.5611 0.172547 3.29284 0.34412 3.02696 0.529188C2.7432 0.725822 2.46421 0.937879 2.18999 1.17114C1.93723 1.38513 1.68566 1.59525 1.40906 1.71671C1.09668 1.85551 0.772385 1.85743 0.451665 1.80731C0.3229 1.78611 0.201289 1.77068 0.0832547 1.77261L0.0820625 1.77068ZM3.17361 1.27524C3.33457 1.14415 3.49194 1.0015 3.64932 0.854984C3.42279 0.99764 3.19865 1.14994 2.97689 1.31187C2.8052 1.4391 2.6359 1.58176 2.4654 1.72442C2.70743 1.60682 2.94469 1.46031 3.17361 1.27524ZM5.9504 2.40685C5.38169 2.53794 4.82013 2.72879 4.25738 2.90808C4.58645 2.86181 4.91432 2.80012 5.241 2.71337C5.58318 2.62277 5.91582 2.49168 6.2425 2.33553C6.14593 2.36251 6.04936 2.38565 5.95159 2.40878L5.9504 2.40685ZM0.290709 3.2493C0.244211 3.3052 0.208443 3.34376 0.183405 3.38231C1.59863 3.01218 3.00908 2.60156 4.41714 2.15817C5.03235 1.96346 5.64995 1.81117 6.26635 1.63574C6.55369 1.55477 6.84102 1.44489 7.10809 1.25211C7.3525 1.07668 7.57904 0.837634 7.8151 0.637144C8.2467 0.268936 8.68904 0.107002 9.15879 0.0125404H5.99928C5.84309 0.0665185 5.68691 0.12628 5.53191 0.197608C5.06216 0.41352 4.63414 0.735461 4.21088 1.1268C3.80909 1.49887 3.41087 1.8825 2.98046 2.16781C2.04811 2.78663 0.996531 2.83289 0.0117188 3.14905C0.0296027 3.34569 0.0892161 3.43629 0.290709 3.2493ZM18.4537 0.00290147C18.1854 -0.020232 17.9374 0.101219 17.6692 0.145558C17.5225 0.170619 17.3616 0.0241071 17.2102 0.0125404C17.0325 -0.0028819 16.8513 0.0125404 16.6736 0.0125404H16.6355C16.0894 0.282431 15.5315 0.442437 14.9544 0.351831C14.6456 0.303636 14.3392 0.236164 14.0292 0.218814C13.7085 0.201464 13.3997 0.259297 13.0813 0.32677C12.428 0.465571 11.7699 0.498343 11.1129 0.525332C10.4488 0.552321 9.78234 0.573527 9.12183 0.708472C8.83211 0.768233 8.55073 0.847273 8.28128 1.0362C8.08336 1.175 7.89618 1.35043 7.70899 1.52007C8.28486 1.21162 8.85476 1.02463 9.47474 1.03234C10.2569 1.04391 11.039 1.12102 11.8211 1.06126C12.186 1.03234 12.5317 1.01692 12.893 1.12873C13.2161 1.22897 13.5308 1.39091 13.8504 1.51236C14.6086 1.80153 15.38 1.56055 16.1192 1.24825C16.8644 0.934023 17.606 0.602444 18.3571 0.32677C18.6516 0.218814 18.9473 0.114713 19.243 0.0125404C18.9807 0.016396 18.7172 0.0241071 18.4561 0.00290147H18.4537ZM17.3818 4.68164C16.9681 4.39055 16.5473 4.46766 16.1085 4.46573C15.0832 4.46188 14.0638 4.27103 13.0396 4.21705C12.0417 4.16307 11.0843 4.31536 10.1174 4.72791C9.72035 4.89756 9.32809 5.09033 8.93583 5.28504H11.0283C11.3454 5.28504 11.7985 5.42191 12.0989 5.2407C12.087 5.18672 12.0631 5.14431 12.0322 5.11347C12.1657 5.1848 12.3612 5.17516 12.4888 5.21371C13.0456 5.38336 13.6691 5.28504 14.2355 5.28504H18.0853C17.8504 5.08648 17.6263 4.85129 17.3818 4.67972V4.68164ZM27.8523 0.155197C26.7602 0.220742 25.6705 0.423159 24.6046 0.822212C24.0574 1.02656 23.5256 1.29066 23.0046 1.63381C22.7149 1.82466 22.4275 2.02901 22.139 2.22564C22.5885 2.27191 23.0368 2.29504 23.4874 2.28155C23.9691 2.26805 24.446 2.36444 24.9253 2.39721C25.1721 2.41456 25.4201 2.41264 25.6645 2.36059C25.9018 2.30854 26.1331 2.19672 26.3668 2.10805C26.8496 1.92298 27.3349 1.7649 27.8273 1.65887C28.1456 1.58947 28.4652 1.54513 28.7835 1.53164C28.7382 1.37549 28.6845 1.22897 28.6285 1.10174C28.4365 0.660277 28.1611 0.330625 27.8511 0.157125L27.8523 0.155197ZM21.3783 0.0125404C20.2194 0.382676 19.0606 0.754739 17.9112 1.20006C17.1589 1.49308 16.4185 1.87671 15.6614 2.12925C15.3002 2.24878 14.9306 2.3336 14.5609 2.3336C14.1818 2.3336 13.8182 2.21793 13.4533 2.06371C13.1445 1.93262 12.8357 1.77839 12.5162 1.73213C12.143 1.67815 11.7639 1.76297 11.3895 1.77068C10.6074 1.78611 9.81692 1.64731 9.03718 1.7302C8.33136 1.80538 7.67203 2.26805 7.01628 2.65939C6.3045 3.08158 5.57841 3.34761 4.82609 3.49605C4.73786 3.5134 4.65083 3.52883 4.5626 3.54232C5.10508 3.74859 5.63445 4.04933 6.14474 4.40019C6.506 4.64887 6.86606 4.93033 7.21062 5.25227C8.25267 4.30573 9.41155 3.67534 10.5728 3.26472C11.2393 3.02953 11.8927 3.03917 12.5663 3.18375C13.2805 3.33798 13.9946 3.3746 14.7159 3.35533C15.2 3.34183 15.6853 3.30906 16.1693 3.28978C16.9884 2.95627 17.7717 2.41071 18.6003 2.14853C19.0892 1.83237 19.6138 1.76297 20.1312 1.58754C20.7715 1.37163 21.401 0.995713 22.0198 0.656422C22.3977 0.448221 22.7745 0.232308 23.1512 0.0125404H21.3807H21.3783ZM0.589968 4.72406C0.65435 4.80695 0.724694 4.88213 0.793846 4.94575C1.03111 5.16745 1.30294 5.28697 1.57716 5.28697H5.15396C3.66721 4.59682 2.13038 4.27681 0.589968 4.72406ZM28.8026 2.75C28.7346 2.70759 28.5844 2.72108 28.5427 2.69795C28.7334 2.64012 28.9063 2.60349 28.9015 2.24492C28.9015 2.23528 28.9015 2.22371 28.9015 2.21407C28.3817 2.22757 27.8619 2.32203 27.3456 2.47433C26.8747 2.61313 26.4157 2.82711 25.9471 2.97748C25.4833 3.12785 25.0135 3.10279 24.5438 3.04688C24.074 2.99097 23.6114 2.97941 23.1405 2.97748C22.6278 2.97748 22.1163 2.91386 21.6049 2.84832C20.7381 2.73651 19.832 2.55915 18.9616 2.74807C19.1667 2.76157 19.3741 2.80205 19.5816 2.88109C20.0633 3.06616 20.5306 3.34569 21.0159 3.50569C21.5297 3.67341 22.0484 3.57702 22.5634 3.47485C23.0737 3.37268 23.5697 3.3187 24.0812 3.42858C24.5521 3.52883 25.0135 3.71775 25.4797 3.86619C25.9471 4.01463 26.4276 4.10909 26.9033 4.01656C27.3933 3.92017 27.8607 3.6175 28.3257 3.36689C28.5224 3.26086 28.7203 3.17411 28.9206 3.10471C28.9254 2.94085 28.8944 2.80976 28.8038 2.75193L28.8026 2.75ZM27.8881 4.32886C27.4195 4.57562 26.9486 4.73948 26.4538 4.73562C25.9924 4.73177 25.5358 4.58911 25.0863 4.43489C24.6058 4.2691 24.1253 4.0821 23.6329 4.0474C23.1393 4.0127 22.6529 4.15729 22.1628 4.23825C21.649 4.32308 21.1506 4.28452 20.6499 4.07439C20.1682 3.87197 19.696 3.57317 19.2012 3.46328C18.7983 3.3746 18.3977 3.4228 17.9983 3.51919C18.1926 3.60401 18.3857 3.71004 18.5801 3.84306C18.8388 4.02041 19.0939 4.21512 19.3634 4.34428C19.6746 4.49272 20.0013 4.52742 20.3256 4.54477C21.0183 4.57947 21.711 4.43489 22.4025 4.52742C23.1035 4.61995 23.7772 4.91105 24.4353 5.2889H27.3444C27.7963 5.2889 28.2315 4.9631 28.5283 4.41368C28.576 4.325 28.6643 4.12259 28.7453 3.8874C28.4592 4.02041 28.1766 4.17849 27.8893 4.32886H27.8881ZM21.7086 5.1848C21.0421 5.20215 20.378 5.29082 19.7139 5.15974C19.1428 5.04792 18.6516 4.59875 18.1199 4.28259C17.9255 4.16692 17.7288 4.09174 17.5309 4.04355C17.581 4.07632 17.631 4.11295 17.6811 4.1515C18.0054 4.4079 18.3011 4.74141 18.6433 4.93611C18.8984 5.08262 19.1583 5.19251 19.4206 5.28697H21.4367C21.7336 5.28697 22.0305 5.28697 22.3286 5.28697C22.4371 5.28697 22.5611 5.32553 22.666 5.31203C22.6851 5.3101 22.7053 5.30432 22.7244 5.29854C22.3929 5.21757 22.0555 5.17709 21.7098 5.18672L21.7086 5.1848Z" fill="url(#paint1_linear_17_6914)"/>
<g style="mix-blend-mode:multiply" opacity="0.77">
<path d="M1.15037 2.72686C1.18852 2.58035 1.34471 1.98274 1.25529 1.86707C1.20998 1.80924 1.04545 1.83237 0.984646 1.83044C1.15037 1.75333 1.3149 1.76297 1.46394 1.62224C1.6237 1.47187 1.73577 1.33693 1.9325 1.33693H17.1613C17.5417 1.33693 17.9232 1.35813 18.3035 1.33693C18.6862 1.31572 19.0558 0.993781 19.4338 1.02077C19.3515 1.06511 19.2609 1.14993 19.2192 1.27524C19.4052 1.37741 19.739 1.29066 19.9524 1.31765C20.3614 1.36777 20.7393 1.41018 21.1351 1.20391C21.3569 1.08824 21.5572 1.37934 21.7921 1.24439C21.7945 1.21548 21.7921 1.20777 21.7921 1.17692C21.7945 1.47958 26.2559 1.33693 26.8485 1.33693H26.9904C27.3409 1.33693 27.5781 1.72249 27.701 2.21793C27.813 2.67674 28.0706 2.65168 28.3579 2.62662C28.2446 2.74229 28.0336 2.71915 27.9024 2.72879C27.5984 2.75 27.7081 3.24351 27.546 3.5481C27.4065 3.80835 27.2026 3.95872 26.9916 3.95872H25.9734C25.6503 3.95872 25.3272 3.93366 25.004 3.92402C24.0729 3.8951 23.137 3.95872 22.2046 3.95872H1.93131C1.78943 3.95872 1.64874 3.89125 1.52951 3.76401C1.41505 3.64256 1.37332 3.444 1.27914 3.31291C1.0848 3.04495 0.743808 3.20303 0.514893 3.16062C0.817728 2.96591 1.04068 3.14327 1.15037 2.72301V2.72686Z" fill="#864300"/>
</g>
<path style="mix-blend-mode:screen" opacity="0.5" d="M27.5426 3.55003C27.4031 3.81029 27.1992 3.96065 26.9882 3.96065H1.93154C1.78966 3.96065 1.64897 3.89318 1.52974 3.76595C1.41528 3.6445 1.37356 3.44593 1.27937 3.31484C1.24717 3.27051 1.21021 3.23773 1.16968 3.2146C1.40336 3.3534 1.42482 3.86619 1.60128 4.10909C1.60962 4.12066 1.61797 4.1303 1.62632 4.13994C1.73362 4.26332 1.88504 4.31344 2.04957 4.32693C2.45256 4.10524 2.92708 3.95487 3.32053 4.18235C3.33603 4.19199 3.35033 4.20163 3.36464 4.21512C3.40756 4.22669 3.4481 4.24404 3.48864 4.27103H3.57567C3.65436 4.24789 3.73782 4.24789 3.81532 4.27103H4.26122C4.36614 4.22283 4.4806 4.21319 4.59029 4.24018C4.77867 4.08789 4.98612 4.07825 5.16377 4.24789C5.30088 4.21127 5.43203 4.20741 5.57033 4.25946C5.57868 4.26332 5.58703 4.26717 5.59537 4.27103H11.1442C11.2574 4.25175 11.3707 4.24018 11.484 4.23247C11.5066 4.21127 11.5341 4.19392 11.5662 4.18235C11.8834 4.07439 12.1898 4.08789 12.4998 4.23247C12.6417 4.12066 12.811 4.08596 12.96 4.165C12.9743 4.15922 12.9874 4.15343 13.0017 4.14958C13.0506 4.11102 13.1031 4.07247 13.1579 4.05704C13.1961 4.04548 13.2342 4.03391 13.2736 4.04162C13.2998 4.04548 13.3284 4.04933 13.3534 4.0609C13.3785 4.07247 13.4023 4.09174 13.4262 4.10909C13.5239 4.0821 13.6229 4.1168 13.7004 4.1997C13.8256 4.17464 13.9484 4.17657 14.0736 4.22283C14.0998 4.23247 14.1237 4.24982 14.1451 4.27103C14.1523 4.26717 14.1594 4.26332 14.1666 4.26139C14.3096 4.20741 14.4456 4.20741 14.5886 4.26139C14.597 4.26524 14.6053 4.2691 14.6137 4.27296H21.8233C22.0677 4.14765 22.3145 4.0956 22.5756 4.09367C22.6412 4.09367 22.6949 4.12452 22.7354 4.17657C22.7676 4.17078 22.8022 4.17271 22.8344 4.18428C22.8594 4.19392 22.8844 4.1997 22.9083 4.20741C22.9226 4.21127 22.9285 4.21319 22.9262 4.21127C22.9321 4.21127 22.9381 4.21319 22.944 4.21512C22.9929 4.22669 23.043 4.2344 23.0907 4.25946C23.0978 4.26332 23.105 4.26717 23.1122 4.27103H23.4615C23.508 4.24982 23.5593 4.24789 23.6069 4.25946C23.6272 4.26524 23.6749 4.2691 23.7154 4.27103H23.7739C23.8156 4.2691 23.8704 4.26332 23.8871 4.25946C23.9396 4.24597 23.9909 4.24982 24.0362 4.27103H24.3616C24.3616 4.27103 24.3736 4.26332 24.3795 4.25946C24.5071 4.18235 24.643 4.16886 24.7778 4.16886C24.8445 4.16886 24.9029 4.20741 24.9482 4.27296H25.0639C25.0925 4.25561 25.1223 4.24597 25.1533 4.24597C25.232 4.24597 25.3143 4.24982 25.3918 4.27296H26.0702C26.2764 4.27296 26.4827 4.2691 26.6901 4.27296C27.1849 4.28452 27.3805 4.16693 27.5808 3.44593C27.5665 3.49606 27.5545 3.53461 27.545 3.55196L27.5426 3.55003Z" fill="url(#paint2_linear_17_6914)"/>
<g style="mix-blend-mode:multiply" opacity="0.76">
<path d="M27.6975 2.21986C27.5759 1.72441 27.3374 1.33886 26.9869 1.33886H26.845C26.2524 1.33886 21.791 1.47958 21.7886 1.17885C21.7886 1.20969 21.7922 1.21741 21.7886 1.24632C21.5537 1.3832 21.3534 1.0921 21.1317 1.20584C20.7358 1.41211 20.3579 1.3697 19.9489 1.31958C19.7355 1.29259 19.4029 1.37934 19.2157 1.27717C19.2574 1.14993 19.348 1.06704 19.4303 1.0227C19.0523 0.997638 18.6827 1.31765 18.3 1.33886C17.9209 1.36006 17.5382 1.33886 17.1578 1.33886H1.9314C1.73467 1.33886 1.6226 1.47187 1.46284 1.62417C1.3138 1.7649 1.14927 1.75526 0.983547 1.83237C1.04554 1.83237 1.21008 1.81116 1.25419 1.869C1.3448 1.98467 1.18862 2.58228 1.14927 2.72879C1.03839 3.14905 0.81663 2.97169 0.513794 3.1664C0.742709 3.20881 1.08489 3.05073 1.27804 3.31869C1.37223 3.44978 1.41396 3.64642 1.52841 3.7698C1.64764 3.89703 1.78833 3.9645 1.93021 3.9645H22.1975C23.1299 3.9645 24.0658 3.90089 24.997 3.9298C25.3201 3.93944 25.6432 3.9645 25.9663 3.9645H26.9845C27.1955 3.9645 27.3994 3.81221 27.5389 3.55388C27.701 3.25122 27.5914 2.75578 27.8954 2.73457C28.0265 2.72494 28.2376 2.75 28.3508 2.6324C28.0635 2.65746 27.806 2.6806 27.6939 2.22371L27.6975 2.21986ZM27.3195 2.75192C27.3195 3.18761 27.099 3.54425 26.8295 3.54425C26.3729 3.54425 25.9317 3.48834 25.4799 3.42858C25.4977 3.35725 25.4942 3.25701 25.5228 3.18375C25.4763 3.25315 24.9171 3.63678 24.9326 3.50955C24.9588 3.29363 25.1079 3.18182 25.1567 2.99868C24.8563 3.34183 24.7156 3.56931 24.3472 3.54232C24.1743 3.53075 23.9979 3.54232 23.825 3.54232H15.2013C14.4848 3.54232 13.7277 3.64256 13.0207 3.46328C13.0374 3.27628 13.1161 3.13555 13.1924 2.99097C13.0087 3.12013 12.9014 3.43629 12.7059 3.53268C12.5104 3.62907 12.2338 3.54232 12.0299 3.54232H10.4656C9.4701 3.54232 8.43402 3.66955 7.44563 3.54039C7.43848 3.43243 7.46232 3.31484 7.51836 3.24737C7.30971 3.49798 7.25606 3.55774 7.00568 3.54232C6.71835 3.52497 6.42863 3.54232 6.1401 3.54232H2.0542C1.78475 3.54232 1.56418 3.18568 1.56418 2.75V2.54565C1.56418 2.10997 1.78475 1.75333 2.0542 1.75333C2.37373 1.75333 2.69445 1.74755 3.01398 1.75333C3.25839 1.75719 3.43723 1.77839 3.2262 2.22371C3.5815 1.47573 4.54723 1.75333 5.02771 1.75333H6.06379C6.29986 1.75333 6.79465 1.58947 6.98422 1.8555C6.95203 2.04635 6.87454 2.21022 6.8495 2.40685C6.896 2.02708 7.41821 1.75526 7.61016 1.73405C7.94281 1.69742 8.63432 1.54513 8.92046 1.81695C8.90735 1.90948 8.89304 2.02515 8.86443 2.10997C8.98842 1.7514 9.40929 1.75333 9.61556 1.75333C10.0328 1.75333 10.4501 1.75333 10.8662 1.75333C11.1512 1.75333 11.5911 1.61646 11.8606 1.75333C12.1563 1.9037 11.8916 2.05214 11.8141 2.37601C11.9417 2.30468 12.0394 2.0637 12.1646 1.94611C12.6117 1.52778 13.3068 1.75526 13.7968 1.75526H19.7963C20.7823 1.75526 21.7838 1.67622 22.7663 1.78032C22.8283 1.99623 22.6983 2.1466 22.6351 2.33745C22.8044 2.20829 22.9558 1.86707 23.1585 1.77646C23.3982 1.67044 23.7451 1.7649 23.9895 1.78032C23.9621 1.83815 23.9418 1.95382 23.9239 1.99623C24.0694 1.6608 24.5272 1.73791 24.7287 1.7514C25.0971 1.77839 25.4691 1.7514 25.8375 1.7514H26.8271C27.0966 1.7514 27.3171 2.10804 27.3171 2.54372V2.74807L27.3195 2.75192Z" fill="#864300"/>
</g>
<path d="M27.0995 2.54266V2.75305C27.0995 3.15065 26.8245 3.47515 26.4842 3.47515L2.06855 3.47515C1.72826 3.47515 1.45329 3.15243 1.45329 2.75305V2.54266C1.45329 2.14327 1.72826 1.82056 2.06855 1.82056L26.4842 1.82056C26.823 1.82056 27.0995 2.14327 27.0995 2.54266Z" fill="url(#paint3_linear_17_6914)"/>
<path style="mix-blend-mode:screen" opacity="0.64" d="M1.90917 1.82056C1.75294 1.82056 1.61373 1.90524 1.51473 2.03769C1.43275 2.14844 1.43275 2.31997 1.51473 2.43072C1.61373 2.56534 1.75449 2.64785 1.90917 2.64785H26.6397C26.8005 2.64785 26.9444 2.55883 27.0449 2.41769C27.1176 2.31346 27.1176 2.15495 27.0449 2.05072C26.9459 1.90958 26.8005 1.82056 26.6397 1.82056H1.90917Z" fill="url(#paint4_linear_17_6914)"/>
<path style="mix-blend-mode:multiply" d="M26.5571 3.24219H1.99406C1.72517 3.24219 1.50186 2.98481 1.46084 2.64777C1.45629 2.68453 1.45325 2.7213 1.45325 2.7596V2.77033C1.45325 3.15946 1.69479 3.47506 1.99406 3.47506H26.5586C26.8579 3.47506 27.0994 3.15946 27.0994 2.77033V2.7596C27.0994 2.7213 27.0964 2.68453 27.0919 2.64777C27.0508 2.98481 26.8275 3.24219 26.5586 3.24219H26.5571Z" fill="url(#paint5_linear_17_6914)"/>
<g style="mix-blend-mode:screen">
<path opacity="0.58" d="M28.6298 1.09981C28.3377 0.427015 27.8525 0.0125404 27.3434 0.0125404H19.3922C19.0798 0.0125404 18.765 0.0298905 18.4538 0.00290147C18.1856 -0.020232 17.9376 0.101219 17.6693 0.145558C17.5227 0.170619 17.3617 0.0241071 17.2103 0.0125404C17.0327 -0.0028819 16.8514 0.0125404 16.6738 0.0125404H1.57731C0.712915 0.0125404 0.00590099 1.15572 0.00590099 2.55337V2.74614C0.00590099 2.84253 0.00470872 2.937 0.00590099 3.02182C0.046438 2.90808 0.0929364 2.80012 0.147781 2.69988C0.169241 2.59578 0.196664 2.50517 0.218124 2.46083C0.338543 2.21793 0.522152 2.18709 0.703377 2.19287C0.33139 2.1813 0.0786292 2.07142 0.294429 1.4738C0.435117 1.08439 0.613957 0.6757 0.923946 0.667989C1.12425 0.662205 1.20771 0.72775 1.41397 0.639072C1.89087 0.434726 2.41786 0.558105 2.91265 0.517621C2.59073 0.205319 1.94333 0.714256 1.64408 0.336409C1.9183 0.0819408 2.27717 0.151341 2.57285 0.184114C2.97464 0.228453 3.38359 0.207247 3.78777 0.207247H16.6547C16.8121 0.207247 17.0851 0.184114 17.2282 0.297853C16.9885 0.538827 16.6607 0.608227 16.4318 0.822212C16.6285 0.747028 16.8562 0.775945 17.0625 0.7104C17.5274 0.565816 17.934 0.16098 18.4216 0.199536C18.7304 0.224597 19.0428 0.207247 19.3528 0.207247H27.2396C27.6617 0.207247 28.0683 0.477138 28.3592 0.930168C28.5344 1.09403 28.6775 1.32536 28.8027 1.58947C28.7538 1.41211 28.6942 1.24247 28.631 1.09981H28.6298Z" fill="url(#paint6_linear_17_6914)"/>
</g>
<g style="mix-blend-mode:multiply" opacity="0.56">
<path style="mix-blend-mode:multiply" opacity="0.41" d="M27.2621 5.09605C27.2538 5.09605 27.2466 5.09605 27.2383 5.09605H26.4538C26.3489 5.09605 25.1852 4.9881 25.1602 5.06521C25.1948 4.95918 25.283 4.91677 25.3736 4.91098C25.3498 4.86472 25.3211 4.82616 25.2842 4.79725C25.2806 4.76833 25.3128 4.7664 25.2973 4.74134C25.1065 4.61218 24.5104 4.67579 24.3637 4.884C24.3781 4.91484 24.3936 4.92641 24.4091 4.95918C24.1086 5.22136 23.621 5.03436 23.2907 5.09991C23.2001 5.11726 23.1238 5.15967 23.0427 5.16545C23.0093 5.1963 22.9748 5.27726 22.9604 5.31582C23.1071 5.41799 23.218 5.3216 23.3622 5.29076C23.5697 5.24642 23.7986 5.29076 24.0085 5.29076H27.342C27.4589 5.29076 27.5733 5.26955 27.6854 5.22714C27.5435 5.18666 27.4016 5.14425 27.261 5.09991L27.2621 5.09605Z" fill="url(#paint7_linear_17_6914)"/>
<path style="mix-blend-mode:multiply" opacity="0.41" d="M11.4397 5.12501C11.3026 5.11152 11.1702 5.09609 11.0546 5.09609H2.47503C1.89559 5.18863 1.18976 5.20983 0.644897 4.7915C0.69378 4.84741 0.745048 4.89946 0.795123 4.94765C1.03238 5.16935 1.30422 5.28887 1.57844 5.28887H11.0283C11.3181 5.28887 11.7187 5.40069 12.0155 5.28502C11.8224 5.25225 11.6304 5.20212 11.4421 5.12887L11.4397 5.12501Z" fill="url(#paint8_linear_17_6914)"/>
<path style="mix-blend-mode:multiply" opacity="0.41" d="M21.5476 5.09613H21.3795C20.6796 5.09613 19.9249 5.21951 19.2358 5.02866C18.8781 4.92842 18.1771 5.07493 17.9005 4.6913C17.9219 4.66045 17.9422 4.61033 17.966 4.57756C17.8647 4.45225 17.7014 4.42719 17.5786 4.38092C17.637 4.20164 17.8528 4.23827 17.9732 4.17658C17.5809 4.25755 17.1124 4.12646 16.7142 4.08405C16.9443 4.12453 17.2042 4.18429 17.4116 4.36165C17.3949 4.37707 17.3699 4.4137 17.3496 4.4349C17.445 4.54093 17.5547 4.61997 17.6465 4.726C17.4319 5.3853 15.8128 5.18481 15.4217 4.90721C15.5577 4.83781 15.7282 4.78962 15.882 4.80311C15.4921 4.72793 14.8745 4.61804 14.5073 4.7954C14.6062 4.7954 14.7052 4.84938 14.7815 4.95541C14.2939 5.16361 13.6918 5.2118 13.1374 5.15011C12.9669 5.18096 12.7976 5.21373 12.6271 5.24843C13.1481 5.36602 13.7156 5.28506 14.2343 5.28506H21.4355C21.6752 5.28506 21.9136 5.28506 22.1533 5.28506C21.9518 5.20987 21.7503 5.13662 21.5464 5.09421L21.5476 5.09613Z" fill="url(#paint9_linear_17_6914)"/>
</g>
<path style="mix-blend-mode:screen" opacity="0.46" d="M12.7525 0.656402C12.3781 0.490612 11.9465 0.56194 11.5614 0.529168C10.8734 0.469406 10.1891 0.438562 9.49876 0.426995C8.34584 0.407717 7.19054 0.388439 6.03761 0.347956C5.03969 0.313256 3.97857 0.218794 2.98422 0.357595C3.06052 0.407717 3.17975 0.480973 3.27632 0.506034C2.741 0.84147 2.14844 0.687247 1.59046 0.706524C1.35678 0.714236 0.0536287 0.941715 0.423231 1.76488C0.53292 2.00778 0.766604 1.81115 0.86437 2.05019C0.749912 2.20827 0.556765 2.40683 0.524574 2.64974C0.913253 2.71528 1.31147 2.23526 0.870331 1.75139C0.937098 1.6068 1.03129 1.61066 1.13621 1.56632C1.37228 1.46415 1.47719 1.36968 1.67392 1.17305C1.84561 1.00148 2.20328 1.09208 2.41074 1.09208H11.1214C11.5924 1.09208 12.3888 1.31378 12.7525 0.654474V0.656402Z" fill="url(#paint10_linear_17_6914)"/>
<path style="mix-blend-mode:screen" opacity="0.46" d="M26.758 1.1923C26.0498 1.04579 25.3344 1.03808 24.6203 1.03423C23.9586 1.03037 23.3219 1.20002 22.6542 1.09592C22.448 1.06314 22.0462 1.10555 21.8781 0.924342C21.7708 1.08628 21.4393 1.20773 21.4608 0.878075C21.2092 1.07471 20.9016 1.03808 20.6131 1.06122C20.2983 1.08435 19.8011 1.31954 19.5174 1.16339C19.5627 1.05543 19.6402 0.991815 19.7153 0.920487C19.447 0.681441 18.9212 1.13833 18.647 1.21158C18.4551 1.26363 18.0187 1.36388 18.1022 0.962898C18.2107 0.436612 18.9451 0.209133 19.2145 0.388417C19.1084 0.916631 20.7013 0.399984 20.9076 0.388417C21.2438 0.371067 21.5132 0.372995 21.8196 0.538785C22.2715 0.783614 22.8009 0.606257 23.2742 0.579268C24.5678 0.50794 25.9616 0.34215 27.248 0.612041C27.4936 0.664091 27.7333 0.773975 27.8036 1.21158C27.8394 1.42942 27.8084 1.67232 27.6939 1.79763C27.4316 1.35038 27.1467 1.27327 26.7568 1.1923H26.758Z" fill="url(#paint11_linear_17_6914)"/>
<path style="mix-blend-mode:screen" opacity="0.31" d="M10.7218 3.45167C10.7373 3.28973 10.822 3.15479 10.8935 3.04876C10.9865 2.91189 11.0903 2.80007 11.1809 2.65935C11.2917 2.48585 11.3967 2.28728 11.4491 2.04824C11.4694 1.95185 11.4801 1.85353 11.4825 1.75714H8.64134C8.63657 1.87088 8.62584 1.98462 8.60795 2.09643C8.4923 2.81357 8.12389 3.2878 7.70898 3.54613H10.7218C10.7183 3.51721 10.7183 3.48637 10.7218 3.45359V3.45167Z" fill="url(#paint12_linear_17_6914)"/>
<path style="mix-blend-mode:screen" opacity="0.31" d="M15.0402 3.50767C15.1677 3.3708 15.2929 3.22236 15.3978 3.04115C15.56 2.76354 15.6601 2.4069 15.7496 2.05797C15.777 1.95194 15.808 1.84592 15.8521 1.75531H15.4682C15.4849 1.82664 15.4956 1.90375 15.4992 1.98472C15.5254 2.50715 15.2798 2.9062 15.0294 3.17031C14.8911 3.31875 14.7421 3.43827 14.5895 3.5443H15.0258C15.0258 3.5308 15.0294 3.51731 15.039 3.50767H15.0402Z" fill="url(#paint13_linear_17_6914)"/>
<path style="mix-blend-mode:screen" opacity="0.31" d="M4.69393 3.29552C4.71062 3.10467 4.79527 2.93695 4.86084 2.78272C4.89542 2.69983 4.93238 2.61693 4.95742 2.5244C4.98365 2.42608 5.00272 2.32006 5.0218 2.21595C5.05161 2.0598 5.08022 1.88823 5.15653 1.77256C5.1601 1.76678 5.16487 1.761 5.16964 1.75714H4.61166C4.61881 1.77256 4.62597 1.78799 4.63193 1.80341C4.76666 2.1639 4.62716 2.58223 4.4817 2.8714C4.34936 3.13358 4.18245 3.36492 4.00122 3.54613H4.74043C4.70466 3.48251 4.68558 3.39962 4.69393 3.29552Z" fill="url(#paint14_linear_17_6914)"/>
<defs>
<linearGradient id="paint0_linear_17_6914" x1="14.4669" y1="4.73369" x2="14.4669" y2="0.0954352" gradientUnits="userSpaceOnUse">
<stop stop-color="#B44320"/>
<stop offset="1" stop-color="#FF9215"/>
</linearGradient>
<linearGradient id="paint1_linear_17_6914" x1="14.4656" y1="13.8772" x2="14.4656" y2="0.241948" gradientUnits="userSpaceOnUse">
<stop stop-color="#B44320"/>
<stop offset="1" stop-color="#FF9215"/>
</linearGradient>
<linearGradient id="paint2_linear_17_6914" x1="14.374" y1="-0.959063" x2="14.374" y2="5.30047" gradientUnits="userSpaceOnUse">
<stop stop-color="#B44320"/>
<stop offset="1" stop-color="#FF9215"/>
</linearGradient>
<linearGradient id="paint3_linear_17_6914" x1="14.2764" y1="1.76528" x2="14.2764" y2="3.23802" gradientUnits="userSpaceOnUse">
<stop stop-color="#FF7920"/>
<stop offset="0.6" stop-color="#B91818"/>
<stop offset="1" stop-color="#B60000"/>
</linearGradient>
<linearGradient id="paint4_linear_17_6914" x1="14.276" y1="1.75107" x2="14.276" y2="3.67057" gradientUnits="userSpaceOnUse">
<stop stop-color="#FF1D15"/>
<stop offset="0.54" stop-color="#FFA63F"/>
<stop offset="1" stop-color="#FF5F15"/>
</linearGradient>
<linearGradient id="paint5_linear_17_6914" x1="14.2763" y1="2.13147" x2="14.2763" y2="3.48579" gradientUnits="userSpaceOnUse">
<stop stop-color="#98D600"/>
<stop offset="0.54" stop-color="#FFFF3B"/>
<stop offset="1" stop-color="#98D600"/>
</linearGradient>
<linearGradient id="paint6_linear_17_6914" x1="14.8293" y1="5.93856" x2="12.7983" y2="-0.696374" gradientUnits="userSpaceOnUse">
<stop stop-color="#C76525"/>
<stop offset="1" stop-color="#FF9D33"/>
</linearGradient>
<linearGradient id="paint7_linear_17_6914" x1="25.0374" y1="2.81548" x2="23.0063" y2="-3.81946" gradientUnits="userSpaceOnUse">
<stop stop-color="#B15813"/>
<stop offset="1" stop-color="#FF9215"/>
</linearGradient>
<linearGradient id="paint8_linear_17_6914" x1="6.72426" y1="8.41767" x2="4.69307" y2="1.77871" gradientUnits="userSpaceOnUse">
<stop stop-color="#B15813"/>
<stop offset="1" stop-color="#FF9215"/>
</linearGradient>
<linearGradient id="paint9_linear_17_6914" x1="17.3783" y1="5.15975" x2="15.347" y2="-1.48122" gradientUnits="userSpaceOnUse">
<stop stop-color="#B15813"/>
<stop offset="1" stop-color="#FF9215"/>
</linearGradient>
<linearGradient id="paint10_linear_17_6914" x1="0.357657" y1="1.47186" x2="12.7525" y2="1.47186" gradientUnits="userSpaceOnUse">
<stop stop-color="#B44320"/>
<stop offset="1" stop-color="#FF9215"/>
</linearGradient>
<linearGradient id="paint11_linear_17_6914" x1="18.0914" y1="1.06122" x2="27.8179" y2="1.06122" gradientUnits="userSpaceOnUse">
<stop stop-color="#B44320"/>
<stop offset="1" stop-color="#FF9215"/>
</linearGradient>
<linearGradient id="paint12_linear_17_6914" x1="9.59634" y1="1.69352" x2="9.59634" y2="3.28588" gradientUnits="userSpaceOnUse">
<stop stop-color="#98D600"/>
<stop offset="0.54" stop-color="#FFFF3B"/>
<stop offset="1" stop-color="#98D600"/>
</linearGradient>
<linearGradient id="paint13_linear_17_6914" x1="15.2202" y1="1.69362" x2="15.2202" y2="3.28597" gradientUnits="userSpaceOnUse">
<stop stop-color="#98D600"/>
<stop offset="0.54" stop-color="#FFFF3B"/>
<stop offset="1" stop-color="#98D600"/>
</linearGradient>
<linearGradient id="paint14_linear_17_6914" x1="4.58543" y1="1.69352" x2="4.58543" y2="3.28588" gradientUnits="userSpaceOnUse">
<stop stop-color="#98D600"/>
<stop offset="0.54" stop-color="#FFFF3B"/>
<stop offset="1" stop-color="#98D600"/>
</linearGradient>
</defs>
</svg>
