<?xml version="1.0" encoding="UTF-8"?>
<svg xmlns="http://www.w3.org/2000/svg" xmlns:xlink="http://www.w3.org/1999/xlink" viewBox="0 0 105.26 106.99">
  <defs>
    <style>
      .cls-1 {
        fill: url(#New_Gradient_Swatch_88-4);
      }

      .cls-1, .cls-2, .cls-3, .cls-4, .cls-5, .cls-6, .cls-7, .cls-8, .cls-9, .cls-10, .cls-11, .cls-12, .cls-13, .cls-14, .cls-15, .cls-16, .cls-17, .cls-18, .cls-19, .cls-20, .cls-21, .cls-22, .cls-23, .cls-24, .cls-25, .cls-26, .cls-27, .cls-28, .cls-29, .cls-30, .cls-31 {
        fill-rule: evenodd;
      }

      .cls-1, .cls-4, .cls-6, .cls-9, .cls-11, .cls-13, .cls-17, .cls-21, .cls-22, .cls-23, .cls-32, .cls-27, .cls-30 {
        mix-blend-mode: multiply;
      }

      .cls-2 {
        fill: url(#New_Gradient_Swatch_92-3);
      }

      .cls-3 {
        fill: url(#radial-gradient-6);
      }

      .cls-3, .cls-5, .cls-8, .cls-10, .cls-12, .cls-20, .cls-24, .cls-29 {
        mix-blend-mode: screen;
      }

      .cls-3, .cls-22, .cls-32, .cls-29 {
        opacity: .5;
      }

      .cls-4 {
        fill: url(#New_Gradient_Swatch_88-7);
      }

      .cls-5 {
        fill: url(#New_Gradient_Swatch_90);
      }

      .cls-6 {
        fill: url(#New_Gradient_Swatch_88-8);
      }

      .cls-7 {
        fill: url(#New_Gradient_Swatch_92);
      }

      .cls-8 {
        fill: url(#radial-gradient-4);
      }

      .cls-9 {
        fill: url(#New_Gradient_Swatch_88-6);
      }

      .cls-10 {
        fill: url(#New_Gradient_Swatch_90-3);
      }

      .cls-11 {
        fill: url(#radial-gradient-2);
      }

      .cls-12 {
        fill: url(#New_Gradient_Swatch_90-2);
      }

      .cls-13 {
        fill: url(#New_Gradient_Swatch_88-9);
      }

      .cls-14 {
        fill: url(#linear-gradient-3);
      }

      .cls-15 {
        fill: url(#New_Gradient_Swatch_92-4);
      }

      .cls-16 {
        fill: url(#New_Gradient_Swatch_91-4);
      }

      .cls-33 {
        isolation: isolate;
      }

      .cls-17 {
        fill: url(#New_Gradient_Swatch_88-5);
      }

      .cls-18 {
        fill: url(#linear-gradient-2);
      }

      .cls-19 {
        fill: url(#New_Gradient_Swatch_91-3);
      }

      .cls-20 {
        fill: url(#radial-gradient-5);
      }

      .cls-21 {
        fill: url(#New_Gradient_Swatch_88);
      }

      .cls-22 {
        fill: url(#New_Gradient_Swatch_88-2);
      }

      .cls-23 {
        fill: url(#radial-gradient);
      }

      .cls-24 {
        fill: url(#New_Gradient_Swatch_90-4);
      }

      .cls-32 {
        fill: #b7805c;
      }

      .cls-25 {
        fill: url(#New_Gradient_Swatch_92-2);
      }

      .cls-26 {
        fill: url(#New_Gradient_Swatch_91);
      }

      .cls-27 {
        fill: url(#New_Gradient_Swatch_88-3);
      }

      .cls-28 {
        fill: url(#New_Gradient_Swatch_91-2);
      }

      .cls-29 {
        fill: url(#radial-gradient-7);
      }

      .cls-30 {
        fill: url(#radial-gradient-3);
      }

      .cls-31 {
        fill: url(#linear-gradient);
      }
    </style>
    <linearGradient id="New_Gradient_Swatch_92" data-name="New Gradient Swatch 92" x1="53.16" y1="27.56" x2="53.16" y2="1.17" gradientUnits="userSpaceOnUse">
      <stop offset="0" stop-color="#692705"/>
      <stop offset="1" stop-color="#823b00"/>
    </linearGradient>
    <radialGradient id="New_Gradient_Swatch_91" data-name="New Gradient Swatch 91" cx="10.74" cy="-11.5" fx="10.74" fy="-11.5" r="94.56" gradientUnits="userSpaceOnUse">
      <stop offset="0" stop-color="#f59547"/>
      <stop offset="1" stop-color="#a14c1f"/>
    </radialGradient>
    <linearGradient id="New_Gradient_Swatch_92-2" data-name="New Gradient Swatch 92" x1="53.15" y1="53.57" x2="53.15" y2="27.24" xlink:href="#New_Gradient_Swatch_92"/>
    <radialGradient id="New_Gradient_Swatch_91-2" data-name="New Gradient Swatch 91" cx="9.5" cy="7.01" fx="9.5" fy="7.01" r="101.94" xlink:href="#New_Gradient_Swatch_91"/>
    <linearGradient id="New_Gradient_Swatch_92-3" data-name="New Gradient Swatch 92" x1="52.72" y1="79.54" x2="52.72" y2="53.2" xlink:href="#New_Gradient_Swatch_92"/>
    <radialGradient id="New_Gradient_Swatch_91-3" data-name="New Gradient Swatch 91" cx="9.76" cy="42.05" fx="9.76" fy="42.05" r="93.83" xlink:href="#New_Gradient_Swatch_91"/>
    <linearGradient id="New_Gradient_Swatch_92-4" data-name="New Gradient Swatch 92" x1="52.67" y1="106.99" x2="52.67" y2="78.99" xlink:href="#New_Gradient_Swatch_92"/>
    <radialGradient id="New_Gradient_Swatch_91-4" data-name="New Gradient Swatch 91" cx="14.9" cy="65.22" fx="14.9" fy="65.22" r="95.4" xlink:href="#New_Gradient_Swatch_91"/>
    <radialGradient id="New_Gradient_Swatch_88" data-name="New Gradient Swatch 88" cx="23.16" cy="-11.54" fx="23.16" fy="-11.54" r="71.14" gradientUnits="userSpaceOnUse">
      <stop offset="0" stop-color="#cfa04d"/>
      <stop offset="1" stop-color="#fff"/>
    </radialGradient>
    <radialGradient id="New_Gradient_Swatch_88-2" data-name="New Gradient Swatch 88" cx="99.26" cy="-13.46" fx="99.26" fy="-13.46" r="38.62" xlink:href="#New_Gradient_Swatch_88"/>
    <radialGradient id="New_Gradient_Swatch_88-3" data-name="New Gradient Swatch 88" cx="56.34" cy="15.63" fx="56.34" fy="15.63" r="72.13" xlink:href="#New_Gradient_Swatch_88"/>
    <radialGradient id="New_Gradient_Swatch_88-4" data-name="New Gradient Swatch 88" cx="20.13" cy="18.24" fx="20.13" fy="18.24" r="68.79" xlink:href="#New_Gradient_Swatch_88"/>
    <radialGradient id="New_Gradient_Swatch_88-5" data-name="New Gradient Swatch 88" cx="97.46" cy="21.16" fx="97.46" fy="21.16" r="48" xlink:href="#New_Gradient_Swatch_88"/>
    <radialGradient id="New_Gradient_Swatch_88-6" data-name="New Gradient Swatch 88" cx="51.9" cy="66.87" fx="51.9" fy="66.87" r="36.78" xlink:href="#New_Gradient_Swatch_88"/>
    <radialGradient id="New_Gradient_Swatch_88-7" data-name="New Gradient Swatch 88" cx="33.53" cy="30.97" fx="33.53" fy="30.97" r="98.5" xlink:href="#New_Gradient_Swatch_88"/>
    <radialGradient id="New_Gradient_Swatch_88-8" data-name="New Gradient Swatch 88" cx="55.7" cy="65.35" fx="55.7" fy="65.35" r="78.99" xlink:href="#New_Gradient_Swatch_88"/>
    <radialGradient id="New_Gradient_Swatch_88-9" data-name="New Gradient Swatch 88" cx="37.41" cy="119.35" fx="37.41" fy="119.35" r="63.27" xlink:href="#New_Gradient_Swatch_88"/>
    <linearGradient id="New_Gradient_Swatch_90" data-name="New Gradient Swatch 90" x1=".3" y1="11.04" x2="94.04" y2="11.04" gradientUnits="userSpaceOnUse">
      <stop offset="0" stop-color="#a48a7b"/>
      <stop offset="1" stop-color="#945534"/>
    </linearGradient>
    <linearGradient id="New_Gradient_Swatch_90-2" data-name="New Gradient Swatch 90" x1="0" y1="36.39" x2="77.66" y2="36.39" xlink:href="#New_Gradient_Swatch_90"/>
    <linearGradient id="New_Gradient_Swatch_90-3" data-name="New Gradient Swatch 90" x1=".05" y1="63.25" x2="85.11" y2="63.25" xlink:href="#New_Gradient_Swatch_90"/>
    <linearGradient id="New_Gradient_Swatch_90-4" data-name="New Gradient Swatch 90" x1=".41" y1="89.62" x2="59.65" y2="89.62" xlink:href="#New_Gradient_Swatch_90"/>
    <radialGradient id="radial-gradient" cx="53.8" cy="82.57" fx="53.8" fy="82.57" r="89.71" gradientUnits="userSpaceOnUse">
      <stop offset="0" stop-color="#a48a7b"/>
      <stop offset="1" stop-color="#fff"/>
    </radialGradient>
    <linearGradient id="linear-gradient" x1="52.49" y1="101.29" x2="52.49" y2="6.38" gradientUnits="userSpaceOnUse">
      <stop offset="0" stop-color="#edd6b9"/>
      <stop offset="1" stop-color="#d4b492"/>
    </linearGradient>
    <radialGradient id="radial-gradient-2" cx="9.7" cy="101.77" fx="9.7" fy="101.77" r="15.43" xlink:href="#radial-gradient"/>
    <radialGradient id="radial-gradient-3" cx="99.18" cy="10.96" fx="99.18" fy="10.96" r="8.82" xlink:href="#radial-gradient"/>
    <linearGradient id="linear-gradient-2" x1="11.58" y1="97.58" x2="13.9" y2="92.12" gradientUnits="userSpaceOnUse">
      <stop offset="0" stop-color="#bf9f7e"/>
      <stop offset="1" stop-color="#edd6b9"/>
    </linearGradient>
    <linearGradient id="linear-gradient-3" x1="97.59" y1="10.85" x2="93.82" y2="14.63" xlink:href="#linear-gradient-2"/>
    <radialGradient id="radial-gradient-4" cx="7.14" cy="108.74" fx="7.14" fy="108.74" r="26.09" gradientUnits="userSpaceOnUse">
      <stop offset="0" stop-color="#000"/>
      <stop offset="1" stop-color="#a3805f"/>
    </radialGradient>
    <radialGradient id="radial-gradient-5" cx="102.16" cy="3.31" fx="102.16" fy="3.31" r="17.1" xlink:href="#radial-gradient-4"/>
    <radialGradient id="radial-gradient-6" cx="52.24" cy="54.44" fx="52.24" fy="54.44" r="92.75" gradientUnits="userSpaceOnUse">
      <stop offset="0" stop-color="#ca9e67"/>
      <stop offset="1" stop-color="#000"/>
    </radialGradient>
    <radialGradient id="radial-gradient-7" cx="51.43" cy="54.36" fx="51.43" fy="54.36" r="76.15" xlink:href="#radial-gradient-6"/>
  </defs>
  <g class="cls-33">
    <g id="Layer_2">
      <g id="Layer_1-2" data-name="Layer_1">
        <g>
          <g>
            <path class="cls-7" d="M1.99,1.68c2.59-.68,77.82-.95,101.36.94l1.49,1.26c.31,1.82,0,20.2-.86,23.28-25.46.61-75.4.49-100.65-.16l-1.49-1.26c-.86-5.48-.39-22.23.16-24.07h0Z"/>
            <path class="cls-26" d="M.5.42c2.68-.71,80.31.16,102.85,2.2.31,1.82,0,20.2-.86,23.28-25.46.61-75.4.49-100.65-.16C.82,23.53-.13,2.52.5.42h0Z"/>
            <path class="cls-25" d="M1.62,27.61c24.59.2,77.75-.62,102.1-.29l1.53,1.26c.08,8-.36,16.23-.87,24.69-6.11.72-97.09-.01-101.46-.65l-1.53-1.26c-.73-5.94-.14-20.96.23-23.76h0Z"/>
            <path class="cls-28" d="M.1,26.36c25.27.21,78.7.63,103.63.97.08,8-.36,16.23-.87,24.69-6.11.72-97.09,0-101.46-.65C.61,46.74-.3,29.38.1,26.36H.1Z"/>
            <path class="cls-2" d="M2.28,53.75c5.49-.46,87.1-.91,100.81-.08l1.49,1.26c.52,2.95.84,18.88.47,24.62-25.47-.43-77.75-.62-103.32,0l-1.49-1.26c-.17-5.69,1.65-22.29,2.04-24.54h0Z"/>
            <path class="cls-19" d="M.79,52.49c5.89-.5,94.27.26,102.3,1.18.52,2.95.84,18.88.47,24.62-25.47-.43-77.75-.62-103.32,0-.48-1.69.09-23.16.55-25.79h0Z"/>
            <path class="cls-15" d="M3.32,80.35c5.91-.56,88.15-1.73,99.39-1.26l1.49,1.26c.56,8.49.69,16.99.63,25.48-41.54,1.61-64.63,1.48-102.85,0l-1.49-1.26c-.18-6.55,1.95-20.88,2.83-24.22h0Z"/>
            <path class="cls-16" d="M1.83,79.1c6.32-.6,95.77-.58,100.89,0,.56,8.49.69,16.99.63,25.48-40.6,1.45-57.72-.24-102.85,0-.36-5.59.39-21.85,1.33-25.48h0Z"/>
            <path class="cls-21" d="M19,17.21c2.31-.59,5.01-1.28,7.92-2.12l.14-.04c2.73-.78,5.6-1.6,8.47-2.2,2.17-.45,4.34-.78,6.45-.87,2.13-.09,4.2.06,6.16.56,2.32.59,4.7,1.76,6.67,3.15,2,1.41,3.58,3.07,4.23,4.6.07.17.13.36.17.54.32,1.47-.39,3.25-1.86,4.94-.14.16-.28.32-.44.48,2.02,0,4.05.01,6.1.02.72-.77,1.43-1.57,2.14-2.39,1.39-1.61,1.65-3.03,1.44-4.44-.21-1.44-1.37-2.91-3.77-4.53-6.42-4.37-13.52-6.41-20.75-6.45-5.55-.03-10.72,1.27-16.18,2.52-9.66,2.21-16.38,4.98-25.16,5.28.29,4.58.69,8.6,1.11,9.5,4.87.12,12.42.23,21.61.31-2.48-.59-4.76-1.09-6.68-1.49-2.88-.6-4.93-.96-5.62-1.01-.66-.05-1.16-.26-1.47-.57-.26-.26-.4-.58-.41-.95,0-.32.09-.67.31-1.01.4-.63,1.24-1.3,2.54-1.84,1.4-.58,3.79-1.19,6.88-1.98h0Z"/>
            <path class="cls-32" d="M39.51,16.48c.8-.2,1.6-.34,2.4-.43.72-.09,1.46-.12,2.2-.09.73.03,1.46.11,2.17.26.48.1.94.28,1.38.5.42.22.82.48,1.2.77.41.3.8.64,1.15,1.02.32.35.62.72.86,1.13.23.39.45.82.61,1.27.16.47.26.96.25,1.46-.01.47-.11.97-.3,1.41-.18.43-.44.81-.78,1.1-.49.42-1.04.75-1.63,1.02-.26.12-.53.22-.8.31-2.99-.01-5.93-.03-8.79-.04-.24-.07-.47-.14-.71-.22-.97-.33-1.91-.73-2.8-1.21-.46-.25-.89-.61-1.24-1.04-.34-.41-.6-.9-.74-1.41-.12-.43-.1-.89.01-1.32.12-.48.35-.95.61-1.33.34-.5.74-.96,1.2-1.37.43-.39.92-.72,1.43-.97.74-.36,1.52-.63,2.33-.83h0ZM37.89,19.32c-2.4,2.16-.33,3.94,2.3,5,2.48,1,4.56,1.29,7.14.77,1.02-.2,2.06-.61,2.87-1.3.41-.35.63-1,.64-1.54.02-.68-.3-1.37-.64-1.94-1.2-2-3.2-2.78-5.38-2.86-2.06-.08-5.35.43-6.94,1.86h0ZM.73,16.25c8.78-.29,15.5-3.07,25.16-5.28,5.47-1.25,10.63-2.54,16.18-2.52,7.23.04,14.33,2.07,20.75,6.45,2.39,1.63,3.56,3.1,3.77,4.53.21,1.41-.05,2.83-1.44,4.44-.71.82-1.42,1.62-2.14,2.39.99,0,1.98,0,2.97,0,.46-.51.93-1.04,1.39-1.57,1.71-1.98,2.6-3.84,2.32-5.73-.5-3.41-7.64-7.1-11.5-8.63-13.08-5.18-19.52-4.08-32.57-.42C16.67,12.43,8.12,14.53.63,14.55v.21s.01.03.01.03v.03s.02.27.02.27v.03s.01.16.01.16c0,.14.02.29.03.43v.03s0,.01,0,.01h0s0,.04,0,.04c0,.16.02.32.03.47h0ZM.4,9.47c10.28-.11,18.36-1.95,26.16-3.25,19.57-3.27,26.02-3.59,45.62,5.22,3.65,1.64,6.55,3.75,8.14,5.35,1.36,1.36,1.56,3.28.21,4.72-.98,1.05-3.2,2.91-5.57,4.74.93,0,1.84-.01,2.75-.02,2.17-1.61,4.12-3.15,5.03-4.12.4-.43.72-.94.92-1.49.21-.55.31-1.12.29-1.68-.02-.53-.17-1.07-.42-1.57-.26-.53-.62-1.02-1.04-1.44-1.79-1.8-5.32-3.74-9.28-5.53-5.73-2.58-12.42-4.87-16.06-5.93-7.35-2.14-10.79-1.75-18.24-.98-4.3.45-8.39,1.13-12.55,1.83-7.75,1.3-15.79,2.64-26.01,2.58v.02s0,.02,0,.02v.02s0,.02,0,.02v.02s0,.02,0,.02v.02s0,.02,0,.02v.02s0,.02,0,.02v.29s0,.02,0,.02v.02s0,.02,0,.02v.02s0,.02,0,.02v.02s0,.02,0,.02v.02c0,.1,0,.2,0,.3v.02s0,.02,0,.02v.02s0,.02,0,.02v.02s0,.02,0,.02v.02s0,.02,0,.02v.02s0,.02,0,.02v.27s0,.02,0,.02H.4ZM.3,3.52c9.43-.26,18.62-1.89,27.87-3.25-2.42-.02-4.74-.04-6.95-.06C14.31,1.08,7.38,1.76.35,1.83v.02s0,.07,0,.07v.02c0,.06,0,.12,0,.19v.02s0,.04,0,.04H.33s0,.03,0,.03c0,.07,0,.13,0,.2v.03s0,.03,0,.03v.03s0,.03,0,.03c0,.08,0,.16,0,.24H.31s0,.03,0,.03v.03s0,.03,0,.03v.03c0,.07,0,.15,0,.23v.03s0,.03,0,.03v.03s0,.03,0,.03c0,.08,0,.16,0,.24v.03s0,.03,0,.03H.3ZM59.11.78c7.95,2.87,17.1,7.28,23.85,9.85,2.24.86,7.08,2.57,10.99,4.65,8.69,4.61,5.75,6.85-2.19,10.29-.42.18-.84.36-1.26.54,1.98-.03,3.88-.05,5.7-.09,1.15-.52,2.27-1.06,3.32-1.62,3.48-1.84,3.85-3.77,2.74-5.58-2.36-3.83-13.8-8.03-18.1-9.67-4.11-1.57-8.18-3.23-12.26-4.86-2.62-1.05-5.48-2.28-8.43-3.42-1.45-.04-2.91-.07-4.37-.11h0ZM74.92,1.21c8.74,3.11,17.56,6.06,26.47,8.68.66.19,1.34.38,2.05.56,0-.52.02-1.03.02-1.52-.44-.12-.88-.24-1.3-.37-7.48-2.2-14.92-4.63-22.29-7.19-1.61-.06-3.26-.11-4.94-.17h0ZM102.38,2.54c.33.07.66.14.98.2,0-.04-.01-.08-.02-.11-.31-.03-.63-.06-.97-.08h0ZM12.12,19.19c-1.3.54-2.14,1.21-2.54,1.84-.22.34-.32.68-.31,1.01,0,.36.15.69.41.95.31.31.81.52,1.47.57.7.06,2.74.41,5.62,1.01,1.92.4,4.2.9,6.68,1.49,1.95.02,3.97.03,6.06.05-.74-.24-1.5-.47-2.28-.67-2.99-.78-5.72-1.43-7.92-1.92-1.49-.33-8.23-1.4-4.17-3.32,1.22-.58,3.44-1.15,6.29-1.94,5.01-1.38,10.19-3.55,15.2-4.67,1.97-.44,3.94-.76,5.86-.85,1.9-.09,3.74.05,5.47.53,2.05.56,4.32,2,6.06,3.32,3.23,2.45,5.19,4.74,2.19,8.47-.33.4-.69.8-1.11,1.2.61,0,1.21,0,1.82,0,.15-.16.3-.32.44-.48,1.47-1.7,2.18-3.47,1.86-4.94-.04-.19-.1-.37-.17-.54-.64-1.53-2.22-3.19-4.23-4.6-1.97-1.39-4.35-2.56-6.67-3.15-1.96-.5-4.03-.65-6.16-.56-2.11.09-4.28.42-6.45.87-2.87.6-5.74,1.42-8.47,2.2l-.14.04c-2.91.83-5.61,1.52-7.92,2.12-3.09.79-5.48,1.4-6.88,1.98h0Z"/>
            <path class="cls-22" d="M103.37,2.73c-.33-.06-.65-.13-.98-.2-5.35-.45-13.33-.84-22.52-1.16,7.37,2.56,14.8,4.99,22.29,7.19.43.13.86.25,1.3.37.03-3.01,0-5.43-.09-6.2h0Z"/>
            <path class="cls-27" d="M78.13,48.91c-8.06-6.31-16.27-12.49-24.69-18.34-1.81-1.26-3.88-2.53-5.99-3.82-8.82-.08-17.55-.15-25.52-.22.89.21,1.78.42,2.68.64,14,3.31,22.91,5.37,34.41,14.44,3.54,2.79,6.49,4.92,10.45,7.06,2.06,1.11,4,2.3,5.93,3.53,2.34.01,4.68.02,7.01.03-1.35-1.03-2.76-2.13-4.28-3.33h0Z"/>
            <path class="cls-1" d="M56.33,50.3c-14.72-7.64-22.62-16.54-40.53-17.05-6.29-.18-9.85-.52-15.79-3.34.01,1.27.06,2.77.12,4.39,13.7,4.89,24,3.72,39.76,11.64,1.71.86,3.42,1.72,5.18,2.44,2.29.93,5.03,2.31,7.88,3.7,2.27.02,4.57.03,6.89.04-1.18-.61-2.35-1.22-3.5-1.82h0Z"/>
            <path class="cls-32" d="M103.2,46.09c-3.7-2.32-7.04-5.32-9.89-9.05-1.78-2.33-2.43-4.11-2.18-5.57.25-1.43.95-2.71,2.81-3.82.25-.15.51-.3.76-.45-1.33-.02-2.71-.03-4.12-.05-1.41,1.1-2.31,2.31-2.57,3.76-.61,3.44,5.09,9.27,8.31,11.97,2.43,2.04,4.65,3.68,6.78,4.99.03-.6.07-1.21.1-1.81h0ZM102.88,51.55c-6.06-2.67-11.65-6.79-19.67-14.16-2.98-2.74-5.1-5.7-6.13-7.75-.44-.88-.55-1.79-.33-2.61l-2.6-.03c-.04.34-.03.69.02,1.04.08.59.27,1.18.54,1.72,1.15,2.3,3.92,5.3,7.17,8.29,4.69,4.32,10.39,8.65,13.56,10.84,2.04,1.41,3.78,2.44,5.45,3.25.93-.03,1.61-.07,1.97-.11l.03-.47h0ZM92.96,52.27c-6.89-5.34-14.55-12.79-20.38-17.56-1.85-1.51-5.85-4.63-8.93-7.81l-2.73-.03c3.38,3.51,7.82,7.07,10.02,8.87,3.45,2.83,6.84,5.72,10.24,8.59,2.89,2.44,6.1,5.33,9.45,7.93h1.87c.15,0,.3,0,.45,0h0ZM84.7,52.24c-1.95-1.55-3.99-3.22-6.31-5.04-7.76-6.08-15.67-12.03-23.78-17.66-1.31-.91-2.77-1.83-4.28-2.76l-2.87-.03c2.11,1.29,4.18,2.56,5.99,3.82,8.42,5.85,16.63,12.02,24.69,18.34,1.52,1.19,2.94,2.3,4.28,3.33h2.28ZM16.05,26.49c2.73.55,5.52,1.09,8.3,1.75,13.84,3.27,22.42,5.99,33.78,14.95,3.59,2.83,6.59,5,10.6,7.16,1.12.61,2.21,1.22,3.26,1.84,1.13,0,2.27.01,3.41.02-1.93-1.24-3.87-2.42-5.93-3.53-3.96-2.14-6.91-4.27-10.45-7.06-11.49-9.07-20.41-11.13-34.41-14.44-.9-.21-1.79-.42-2.68-.64l-5.88-.05h0ZM0,29.9c5.94,2.82,9.5,3.17,15.79,3.34,17.92.51,25.81,9.41,40.53,17.05,1.16.6,2.33,1.21,3.5,1.82,1.36,0,2.72.02,4.09.02-2.3-1.25-4.58-2.47-6.83-3.64-12.46-6.47-26.84-16.13-41.11-16.91-6.4-.35-9.76-.79-15.98-3.85H.01c0,.06,0,.12,0,.17v.03s0,.03,0,.03v.03s0,0,0,0c0,.07,0,.14,0,.21v.03s0,.03,0,.03v.03c0,.07,0,.15,0,.23v.03s0,.03,0,.03H0c0,.08,0,.16,0,.24v.07s0,.03,0,.03c0,.07,0,.14,0,.21v.04s0,.04,0,.04v.04c0,.08,0,.17,0,.26v.04s0,.04,0,.04v.04c0,.08,0,.15,0,.23v.04h0ZM.21,36.39c11.29,4.64,21.32,3.36,33.38,8.02,5.31,2.05,10.69,4.92,16.07,7.64,1.09,0,2.18.02,3.28.02-2.85-1.39-5.59-2.77-7.88-3.7-1.76-.72-3.47-1.58-5.18-2.44C24.12,38.02,13.82,39.19.12,34.29v.03s0,.13,0,.13v.03s0,.03,0,.03v.16s0,.03,0,.03v.03s0,.03,0,.03v.16s0,.03,0,.03v.03s0,.03,0,.03v.03s0,.07,0,.07v.03s0,.03,0,.03v.03s0,.2,0,.2v.03s0,.03,0,.03v.03s0,.03,0,.03v.03s0,.03,0,.03v.03s0,.03,0,.03v.03s.01.2.01.2v.03s0,.03,0,.03v.03s0,.1,0,.1v.03s0,.03,0,.03v.17s0,.03,0,.03H.21ZM.56,42.59c3.36,1.16,7.05,1.99,10.63,2.4,13.03,1.5,18.09,4,25.35,6.95,1.65.01,3.33.03,5.05.04-.37-.13-.75-.26-1.12-.38-9.45-3.26-15.06-5.73-28.92-8.17-3.84-.68-7.49-1.73-11.13-2.95v.03s0,.03,0,.03v.03s0,.03,0,.03v.23s.02.03.02.03v.03s0,.03,0,.03v.03s0,.03,0,.03v.03s0,.03,0,.03c0,.11.01.22.02.33v.03s0,.03,0,.03v.03s0,.03,0,.03v.03s.02.3.02.3v.03s0,.03,0,.03v.03s0,.03,0,.03v.03s0,.03,0,.03v.03s.02.23.02.23v.03s0,.03,0,.03v.03s0,.03,0,.03v.07s0,.03,0,.03v.03h0ZM.92,47.3c4.41,1.28,8.97,2.58,13.61,3.74.95.24,1.9.47,2.85.7,2.42.03,5.06.06,7.89.09-8.14-2-16.37-3.92-24.5-6.27v.03s.02.22.02.22v.03s0,.03,0,.03v.08s0,.03,0,.03v.03s.02.25.02.25v.03s0,.03,0,.03v.11s.01.03.01.03v.03s.02.16.02.16v.03s0,.03,0,.03h0s.01.16.01.16v.03s0,.03,0,.03v.03s0,.08,0,.08v.03s0,.03,0,.03v.03s0,.03,0,.03v.16s.02.03.02.03h0ZM1.37,51.25l.66.17c1.07.06,3.25.12,6.34.18-2.42-.65-4.82-1.31-7.23-2.01v.03s0,.03,0,.03c0,.07.02.14.02.21v.03s0,.03,0,.03v.03c.01.08.02.15.03.23v.03s0,.03,0,.03v.03c.01.07.02.14.03.21v.03s0,.03,0,.03v.03c.01.07.02.14.03.2v.02s0,.02,0,.02c.01.07.02.14.03.21v.02s0,.02,0,.02c0,.06.02.12.03.18v.02h0ZM103.5,39.82c-.42-.53-.81-1.07-1.16-1.58-2.33-3.39-3.48-6.22.6-8.85.25-.16.52-.32.8-.47,0-.48,0-.96,0-1.44-.6.26-1.16.54-1.66.84-1.96,1.16-3.21,2.65-3.37,4.16-.02.19-.02.39,0,.58.13,1.68,1.12,3.78,2.6,5.78.64.86,1.36,1.71,2.15,2.5.02-.51.04-1.01.06-1.52h0Z"/>
            <path class="cls-17" d="M96.32,42.9c-3.22-2.7-8.92-8.53-8.31-11.97.26-1.45,1.15-2.67,2.57-3.76-4.3-.05-8.95-.1-13.83-.14-.22.82-.1,1.73.33,2.61,1.02,2.05,3.14,5.01,6.13,7.75,8.02,7.37,13.61,11.49,19.67,14.16.07-1.22.15-2.44.21-3.65-2.13-1.32-4.34-2.95-6.78-4.99h0Z"/>
            <path class="cls-32" d="M37.64,77.9c5.33-.86,11.23-1.98,16.21-1.12,1.4.24,2.92.63,4.54,1.11,1.42,0,2.85,0,4.28,0-2.97-1-5.94-1.78-8.72-2.03-6.03-.56-13.15.7-19.2,1.54-1.27.18-2.53.35-3.8.53,2.2,0,4.43-.02,6.69-.02h0ZM14.87,75.87c-4.93.3-9.86.37-14.79.39,0,.06,0,.13,0,.19v.13c0,.06,0,.11,0,.16,0,.04,0,.08,0,.12,0,.05,0,.1,0,.16v.12s0,.08.01.12c0,.05,0,.09,0,.13,0,.03,0,.06,0,.09,0,.05,0,.09,0,.13,0,.03,0,.06,0,.08,0,.04,0,.08.01.11v.06s.01.07.02.1c0,.02,0,.04,0,.06l14.69-2.16ZM99.64,77.94c-1.18-.37-2.39-.78-3.65-1.23-4.11-1.49-7.49-2.55-11.79-3.31-11.08-1.96-19.35-5.47-31.29-5.82-7.62-.22-16.13,1.23-23.76,2.3-9.37,1.31-18.68,2.62-29.09,2.65v.02H.05v.03c0,.13,0,.26,0,.39H.05v.08s0,.03,0,.03v.3s0,.02,0,.02v.15s0,.02,0,.02v.17s0,.02,0,.02v.02s0,.22,0,.22v.02s0,.02,0,.02v.05s0,.02,0,.02c10.48-.04,19.83-1.35,29.23-2.66,7.57-1.06,16.05-3.07,23.6-2.85,6.79.2,13.25,1.98,19.77,3.77,3.83,1.06,7.48,2.05,11.39,2.74,3.76.66,6.8,1.56,10.27,2.78,1.79,0,3.57,0,5.33.01h0ZM103.71,71.34c-2.59-.6-5.31-1.18-8.23-1.64-11.76-1.88-24.62-3.93-35.66-4.9-7.16-.63-14.79.24-21.91,1.16-2.95.38-5.93.81-8.89,1.24-9.39,1.36-18.56,2.69-28.95,2.6v.02s0,.02,0,.02v.02s0,.02,0,.02v.37s0,.02,0,.02v.02s0,.02,0,.02v.05s0,.02,0,.02v.29s0,.02,0,.02v.02s0,.02,0,.02v.02s0,.02,0,.02v.02s0,.02,0,.02v.02s0,.02,0,.02v.29s0,.02,0,.02v.02s0,.02,0,.02v.02s0,.02,0,.02v.02c10.47.09,19.67-1.24,29.1-2.61,9.37-1.36,21.51-3.71,30.58-2.91,11,.97,23.85,3.84,35.59,5.72,2.69.43,5.5.96,8.37,1.49,0-.56,0-1.13,0-1.72h0ZM103.68,66.5c-5.02-.76-10.06-1.52-14.87-1.69-3.78-.14-7.55-.39-11.33-.87-2.65-.33-4.92-.66-7.01-.95-6.26-.89-10.98-1.56-17.09-1.37-6.45.2-12.85,1.06-19.23,1.91-11.26,1.51-22.68,3.14-34.02,3.37v.03s0,.03,0,.03v.03s0,.03,0,.03v.03s0,.19,0,.19v.03s0,.05,0,.05v.03s0,.03,0,.03v.08s0,.03,0,.03v.03s0,.03,0,.03v.03s0,.05,0,.05v.03s0,.11,0,.11v.03s0,.03,0,.03v.03s0,.03,0,.03v.03s0,.19,0,.19v.03s0,.03,0,.03v.03s0,.03,0,.03v.05s0,.03,0,.03v.03s0,.03,0,.03v.03s0,.03,0,.03v.03s0,.03,0,.03v.19s0,.03,0,.03c11.43-.27,23.34-2.35,34.18-4.05,6.33-1,12.69-1.94,19.09-2.14,11.91-.37,21.8,3.59,35.37,3.78,4.67.07,10.38,1.08,14.96,1.6,0-.44-.01-.87-.02-1.31h0ZM103.58,61.97c-2.2.01-4.41.07-6.62.11-8.66.16-15.76-.43-24.35-1.57-5.69-.75-11.46-1.5-17.2-1.57-8.95-.11-18.6,1.26-27.51,2.27-9.11,1.03-18,2.04-27.68,2.46v.03s0,.03,0,.03v.03s0,.03,0,.03v.03s0,.03,0,.03v.03s0,.03,0,.03v.03s0,.03,0,.03v.18s0,.03,0,.03v.03s0,.03,0,.03v.03s0,.12,0,.12v.03s0,.03,0,.03v.03s0,.03,0,.03v.03s0,.15,0,.15v.03s0,.03,0,.03v.03s0,.03,0,.03v.03s0,.03,0,.03v.03s0,.06,0,.06v.03s0,.03,0,.03v.03s0,.03,0,.03v.12s0,.03,0,.03v.03s0,.03,0,.03v.03s0,.03,0,.03v.09s0,.03,0,.03v.03s0,.03,0,.03v.03s0,.03,0,.03c18.14-.86,38.76-5.61,55.24-5.41,5.69.07,11.44.6,17.08,1.34,8.64,1.14,15.71,2.37,24.42,2.21,2.25-.04,4.49-.06,6.73-.06-.01-.58-.03-1.16-.04-1.73h0ZM103.46,58.52c-8.6.25-17.51-.05-27.18-1.53-6.97-1.07-14.01-1.97-20.92-1.97-10.93,0-22.65,1.19-33.6,2.34-7.08.75-14.06,1.49-21.39,1.7v.03s0,.03,0,.03v.03s0,.03,0,.03v.21s0,.03,0,.03v.03s0,.03,0,.03v.03s0,.03,0,.03v.03s0,.03,0,.03v.03s0,.03,0,.03v.03s0,.19,0,.19v.03s0,.03,0,.03v.03s0,.03,0,.03v.03s0,.03,0,.03v.03s0,.03,0,.03v.03s0,.03,0,.03v.03s0,.16,0,.16v.03s0,.03,0,.03v.03s0,.03,0,.03v.03s0,.03,0,.03v.03s0,.03,0,.03v.03s0,.03,0,.03v.23s0,.03,0,.03v.03s0,.03,0,.03v.03c6.97.17,14.1-.6,21.56-1.79,10.84-1.73,22.61-3.2,33.5-3.2s22.47,2.58,33.71,3.55c4.79.41,9.61.52,14.45.43-.02-.53-.04-1.04-.06-1.53h0ZM103.2,54.57c-1.78.02-3.56.03-5.33.02-7.81-.06-15.6-.54-23.9-1.74-2.95-.05-6.01-.09-9.14-.13,1.73.24,3.58.55,5.59.93,11.44,2.19,22.32,2.71,32.91,2.5-.04-.61-.08-1.14-.13-1.57h0ZM24.53,52.36c-7.99.84-15.88,1.93-23.91,1.84h0s0,.02,0,.02v.16s-.01.01-.01.01h0s0,.03,0,.03h0s0,.04,0,.04h0s0,.03,0,.03h0s0,.02,0,.02h0s0,.02,0,.02v.15s-.01.01-.01.01h0s0,.02,0,.02v.16s-.01.01-.01.01c9.59-.16,18.32-.7,27.57-1.54,3.27-.3,6.6-.6,10-.88l.35-.03c-4.9-.04-9.61-.06-13.97-.08h0Z"/>
            <path class="cls-9" d="M95.49,69.7c2.92.47,5.63,1.04,8.23,1.64,0-1.14,0-2.33-.02-3.53-4.57-.52-10.28-1.54-14.96-1.6-13.57-.19-23.46-4.16-35.37-3.78-6.4.2-12.76,1.15-19.09,2.14-10.84,1.7-22.75,3.79-34.18,4.05v.36s0,.02,0,.02v.02s0,0,0,0h0s0,.44,0,.44v.02s0,.02,0,.02v.13s0,.02,0,.02v.02s0,.02,0,.02v.04s0,.02,0,.02v.02s0,.02,0,.02v.02s0,.02,0,.02c10.38.09,19.56-1.24,28.95-2.6,2.96-.43,5.94-.86,8.89-1.24,7.12-.92,14.75-1.79,21.91-1.16,11.04.97,23.9,3.02,35.66,4.9h0Z"/>
            <path class="cls-4" d="M103.52,60.05c-4.84.09-9.65-.02-14.45-.43-11.24-.97-22.41-3.55-33.71-3.55s-22.66,1.47-33.5,3.2c-7.47,1.19-14.59,1.96-21.56,1.79v.24s0,.04,0,.04h0s0,.04,0,.04v.04s-.02.44-.02.44v.03s0,.01,0,.01v.04s-.02.44-.02.44v.04s0,0,0,0v.04s-.01.41-.01.41v.04s0,.04,0,.04h0s0,.04,0,.04v.04s-.01.38-.01.38v.19s0,.04,0,.04c9.68-.42,18.57-1.42,27.68-2.46,8.91-1.01,18.57-2.38,27.51-2.27,5.74.07,11.51.82,17.2,1.57,8.59,1.13,15.7,1.73,24.35,1.57,2.21-.04,4.42-.09,6.62-.11-.02-.66-.04-1.3-.06-1.92h0Z"/>
            <path class="cls-32" d="M56.53,104.85s.1-.09.15-.14c.66-.61,1.36-1.16,2.09-1.64.5-.33,1.05-.57,1.62-.75.55-.17,1.13-.29,1.7-.38.61-.09,1.24-.13,1.87-.12.58.02,1.15.09,1.71.23.54.13,1.09.32,1.62.57.55.26,1.05.6,1.47,1.05.35.37.66.82.88,1.3h-1.26c-.13-.25-.29-.47-.46-.65-.57-.6-1.44-.92-2.22-1.12-2.5-.62-4.69.18-6.52,1.67l-2.63-.02h0ZM44.29,104.74c1.28-1.65,2.65-3.23,4.18-4.74,6.26-6.2,14.12-10.55,23.42-12.32,3.46-.66,5.73-.4,7.14.66,1.4,1.04,2.4,2.48,2.58,5.07.3,4.06.39,7.96.06,11.66.71,0,1.42.01,2.13.01.16,0,.32,0,.48,0,.38-4.05.28-8.37-.05-12.86-.23-3.18-1.07-5.54-2.94-6.93-3.37-2.51-12.69.47-17.32,2.47-11.17,4.83-16.72,9.51-21.9,16.96.74,0,1.48.01,2.22.02h0ZM38.08,104.68c9.83-13.19,16.29-18.9,33.68-25.99-1.27,0-2.56,0-3.87-.01-3.97,1.82-7.53,3.62-9.87,4.91-8.17,4.49-10.8,7.78-16.54,14.86-1.68,2.07-3.26,4.14-4.79,6.22h1.39ZM92.82,78.84c-.04,2.9-.7,8.63-1.45,13.17-.84,5.07-1.01,9.06-1.63,12.96.51-.01,1.03-.02,1.55-.03.72-3.91,1.19-8.1,1.99-12.92.71-4.26,1.61-9.69,1.88-13.14-.74-.01-1.52-.02-2.34-.03h0ZM29.67,104.62c.59-.79,1.18-1.58,1.78-2.37,4.56-6.03,9.36-13.89,15.45-18.18,2.61-1.84,5.99-3.65,9.75-5.41-1.24,0-2.48,0-3.71,0-2.49,1.37-4.8,2.85-6.78,4.49-5.85,4.85-11.04,12.28-15.67,18.4-.77,1.02-1.53,2.03-2.3,3.04.49,0,.98,0,1.48,0h0ZM102.78,80.07c-.33.89-.65,1.77-.94,2.64-2.3,6.83-2.83,14.7-4.45,22.07.54-.02,1.09-.03,1.63-.05.46-1.89.87-3.78,1.28-5.67.85-3.93,1.76-7.59,2.85-11.31-.09-2.56-.21-5.12-.37-7.67h0ZM23.46,104.59c6.1-9.31,11.9-18.65,21.77-25.9-.63,0-1.25,0-1.87,0-4.57,3.76-8.81,8.43-13.92,15.28-2.6,3.49-5.1,7.06-7.63,10.6.55,0,1.1,0,1.65,0h0ZM35.89,78.72c-6.16,6.3-11.77,14.18-17.03,21.15-1.18,1.56-2.36,3.13-3.55,4.69.83,0,1.67,0,2.51,0,.86-1.13,1.71-2.27,2.57-3.4,5.48-7.26,10.93-16.01,17.37-22.45-.63,0-1.25,0-1.87,0h0ZM31.09,78.74c-2.77,3.24-5.4,6.6-7.93,9.87-2.28,2.96-4.54,5.99-6.78,8.99-1.74,2.33-3.47,4.65-5.22,6.95.81,0,1.63,0,2.45,0,1.43-1.89,2.85-3.79,4.27-5.7,4.56-6.11,9.78-13.6,15.25-20.12-.69,0-1.36,0-2.04,0h0ZM26.28,78.77c-2.96,3.61-5.79,7.32-8.62,11.02-3.76,4.92-7.52,9.88-11.38,14.76.74,0,1.48,0,2.21,0,3.53-4.71,6.91-9.44,10.2-13.95,2.92-4,5.86-8,8.97-11.84h-1.38ZM21.63,78.79c-3.99,4.81-7.83,9.79-11.58,14.5-3.02,3.79-6.01,7.54-9.07,11.28h.08s.04,0,.04,0h.04s.04,0,.04,0h.04s.04,0,.04,0h.04s.04,0,.04,0h.04s.04,0,.04,0h.04s.04,0,.04,0h.04s.04,0,.04,0h.04s.04,0,.04,0c.64,0,1.28,0,1.91,0,6.77-8.76,13.41-17.8,20.11-25.78-.7,0-1.39,0-2.06.01h0ZM14.81,78.85c-4.68,5.46-9.23,11.06-13.61,16.48l-.73.9v.07c0,.12,0,.23-.01.35v.07s0,.07,0,.07v.28s0,.07,0,.07v.07s0,.07,0,.07v.28s0,.13,0,.13v.07s0,.26,0,.26h0s0,.07,0,.07v.07s0,.07,0,.07v.2s0,.27,0,.27v.16c0,.1,0,.2,0,.3v.11c0,.11,0,.21,0,.32v.1c0,.11,0,.23,0,.34l14.4-21.15ZM.41,100.08c0,.12,0,.24,0,.35H.41c0-.12,0-.23,0-.35H.41ZM.41,100.43c.86-1.15,1.72-2.31,2.58-3.5,4.35-6,9-12.18,13.88-18.1-.7,0-1.39.01-2.05.02L.41,100.43ZM7.07,78.94c-1.72,2.05-3.39,4.06-5.04,6.04-.35.43-.71.85-1.06,1.28v.04s-.01.13-.01.13v.04s0,0,0,0l-.02.21v.04s-.02.17-.02.17v.04s-.02.25-.02.25v.15s-.01.04-.01.04l-.02.27v.16s-.01.01-.01.01v.04s-.02.22-.02.22v.04s0,0,0,0v.12s-.03.33-.03.33v.05s-.01.12-.01.12h0s0,.06,0,.06v.23s-.02.05-.02.05c.84-.99,1.68-1.99,2.52-3,1.97-2.36,3.97-4.76,6-7.19-.8.01-1.55.02-2.23.03h0ZM76.45,105.02c.13-1.15.15-2.25.08-3.26-.2-2.73-1.11-4.87-2.66-5.86-.2-.13-.4-.23-.61-.32-1.87-.76-4.66-.83-7.6-.32-2.89.5-5.95,1.55-8.46,3.03-2.12,1.25-4.03,2.91-5.78,4.82-.49.54-.98,1.1-1.45,1.67h1.27c.41-.49.83-.98,1.26-1.46,1.56-1.71,3.26-3.17,5.16-4.25,2.25-1.28,5.44-2,8.07-2.36,4.89-.67,8.56-.39,9.18,5.41.1.9.11,1.86.03,2.88h1.5Z"/>
            <path class="cls-6" d="M93.28,92.01c-.8,4.82-1.27,9.01-1.99,12.92,1.97-.05,4-.1,6.09-.16,1.63-7.36,2.15-15.24,4.45-22.07.29-.87.61-1.75.94-2.64-.02-.32-.04-.65-.06-.97-.77-.09-3.49-.16-7.55-.22-.28,3.45-1.18,8.88-1.88,13.14h0ZM41.48,98.45c5.75-7.08,8.38-10.37,16.54-14.86,2.34-1.28,5.9-3.09,9.87-4.91-2.17,0-4.39-.01-6.63-.01-1.55,0-3.09,0-4.62,0-3.76,1.76-7.14,3.57-9.75,5.41-6.09,4.29-10.89,12.15-15.45,18.18-.59.79-1.19,1.58-1.78,2.37,2.32.02,4.66.03,7.02.05,1.54-2.09,3.12-4.16,4.79-6.22h0Z"/>
            <path class="cls-13" d="M74.91,102.13c-.62-5.8-4.28-6.08-9.18-5.41-2.63.36-5.83,1.08-8.07,2.36-1.9,1.08-3.6,2.54-5.16,4.25-.43.47-.85.96-1.26,1.47,1.76.02,3.52.03,5.29.05.05-.05.1-.09.15-.14.66-.61,1.36-1.16,2.09-1.64.5-.33,1.05-.57,1.62-.75.55-.17,1.13-.29,1.7-.38.61-.09,1.24-.13,1.87-.12.58.02,1.15.09,1.71.23.54.13,1.09.32,1.62.57.55.26,1.05.6,1.47,1.05.35.37.66.82.88,1.3,1.77.02,3.55.03,5.32.05.08-1.02.06-1.99-.03-2.88h0Z"/>
            <path class="cls-5" d="M1.63,2.11c.09,0,.18,0,.27,0,16.09-.44,32.87.42,48.84.22,14.4-.18,28.8-.28,43.29-.34C52.03.18,2.23-.53.5.42c-.25.83-.25,4.63-.1,9.05H.4v.28s.01.01.01.01H.41s0,.01,0,.01h0c0,.13,0,.25.01.38h0s0,.02,0,.02H.43s0,.01,0,.01h0c.16,4.17.44,8.76.78,11.9,0-4.01.04-7.91.14-11.84,3.65.14,7.47-.18,11.75-.93,4.1-.72,8.16-1.64,12.24-2.47,3.98-.81,7.74-1.53,11.65-2.19-3.09.37-6.5.91-10.43,1.56-7.55,1.26-15.37,3.03-25.2,3.24.06-2.43.15-4.87.27-7.35h0Z"/>
            <path class="cls-12" d="M2.58,26.37c-.9,0-1.73-.01-2.49-.02-.3,2.33.16,13.1.75,20.07.07-5.72.14-11.25.62-16.98.05-.61.11-1.22.17-1.83,0-.03,0-.06,0-.09,9.67,0,19.32.07,28.96.09,7.02.01,14.04,0,21.05-.08.85-.01,1.71-.02,2.56-.03,7.78-.11,15.67-.09,23.45-.46-30.16-.17-60.83-.55-75.08-.66h0Z"/>
            <path class="cls-10" d="M.06,74.22c.25-2.44.54-5.01.82-7.58.23-2.11.44-4.23.61-6.27.15-1.88.27-3.71.31-5.42.02-.59-.11-1.16-.39-1.73,3.57.03,7.14.08,10.71.08,10.87-.02,21.78.04,32.69.01,1.71,0,3.43,0,5.14-.02,1.09,0,2.18-.01,3.26-.02,10.66-.07,21.28.17,31.9-.24-35.21-.6-73.23-.99-82.44-.62-.95.02-1.59.04-1.89.07-.35,2-.77,14.93-.73,21.73H.06Z"/>
            <path class="cls-24" d="M1.17,92.1c.61-5.15,1.3-7.38,1.1-12.58,0-.05,0-.09,0-.14.78.03,1.55.06,2.33.09,14.25.52,28.39.21,42.56-.31,4.16-.15,8.32-.33,12.49-.5-29.35.04-55.16.18-57.82.43-.03.13-.07.28-.1.44-.73,3.52-1.31,14.23-1.33,21.03.23-2.83.43-5.66.77-8.47h0Z"/>
          </g>
          <g>
            <path class="cls-23" d="M20.19,103.49c28.2-.72,51.69-1.16,77.19.11.58.03,1.35.1,1.78-.3.43-.4.39-1.15.4-1.74.03-1.92.14-4.13.06-5.67l-5.64-.5,5.55-1.32c-.52-10.51-.88-21.09-1.07-31.7l-3.01-1.05,2.98-.99c-.23-15.11.87-29.23,1.4-44.3-1.58-3.91-3.16-6.7-5.26-9.91-.38-.59-.98-1-1.68-.94-11.27,1.01-64.83,2.12-85.15,1.11-1.1-.06-1.99.92-2.01,2.03-.11,4.44.38,7.32.53,11.54l2.18,1.38-.98,1.29.18,1-1.23.86c.47,15.73.42,31.4-.14,47.01l1.65.86-.82,1.51,2.33,1.18-3.33.85c-.26,6.25-1.22,12.55-1.27,18.64,3.37,3.54,10.09,7.3,15.36,9.04h0Z"/>
            <g>
              <path class="cls-31" d="M20.28,100.74c4.19,1.01,65.21.51,81.34-.6-.13-2.06-.25-4.12-.36-6.19l-5.78-.48,5.68-1.25c-.53-10.02-.9-20.11-1.09-30.23l-3.08-1,3.05-.95c-.24-14.41-.12-28.87.43-43.25-2.45-3.43-4.9-6.85-7.34-10.28-1.01-.43-72.64.39-89.17,1.01.28,4.65.51,9.29.69,13.93l2.24,1.32-1.01,1.23.18.95-1.26.82c.48,15,.43,29.95-.15,44.83l1.69.82-.84,1.44,2.39,1.13-3.41.81c-.28,6.17-.65,12.34-1.11,18.49h0c5.64,2.49,11.28,4.97,16.91,7.45h0Z"/>
              <path class="cls-11" d="M20.27,100.73c-5.64-2.48-11.28-4.96-16.92-7.44.53-.81,5.8-4.98,6.52-5.05.69-.07,8.64,10.96,10.4,12.49h0Z"/>
              <path class="cls-30" d="M100.48,16.78c-1.69-.81-8.9-1.98-9.24-2.72-.26-.58,1.51-5.53,1.89-7.56,2.45,3.43,4.9,6.85,7.34,10.28h0Z"/>
              <path class="cls-18" d="M8.87,89.99c3.56,3.67,7.71,7.74,11.41,10.75-1.25,0-16.92-6.21-16.92-7.44,1.69-1.25,3.5-2.38,5.51-3.31h0Z"/>
              <path class="cls-14" d="M100.48,16.78c-2.89-1.3-5.8-2.57-8.59-4.09.55-2.03.91-4.1,1.24-6.19.71,0,7.34,9.51,7.34,10.28h0Z"/>
              <path class="cls-8" d="M16.75,99.19c-.97-3.52-8.55-7.82-11.12-7.44,1.02-.64,2.1-1.23,3.23-1.75,3.55,3.66,7.68,7.72,11.38,10.73,0,0,.02.02.03.02-.33,0-1.66-.43-3.44-1.09-.02-.15-.05-.31-.09-.46,0,0,0,0,0,0h0Z"/>
              <path class="cls-20" d="M93.03,12c.85,1.96,4.56,3.35,6.81,3.91.09.02.17.04.25.06.24.42.37.71.37.82-.07-.03-.15-.07-.23-.11-2.82-1.26-5.64-2.51-8.35-3.99.55-2.03.91-4.1,1.24-6.19.04,0,.11.04.2.1-.01.04-.03.08-.04.12-.46,1.4-.83,3.94-.25,5.28h0Z"/>
              <path class="cls-3" d="M22.29,98.84c-1.96-.91-2.74-2.49-3.82-5.09-3.08-7.42-7.11-6.08-10.33-8.11-2.15-1.35-2.83-5.43,1.15-10.91,3.68-5.06-3-10.66-2.76-21.25.15-6.78,3.79-17.5,4.38-20.66.55-2.92,1.24-4.48-1.53-8.63-1.07-1.61.13-2.35-2.48-6.42-1.37-2.13-.94-3.64.41-4.74,4.2-3.43,11.88-4.33,19.43-3.43,21.18,2.53,22.47,4.05,40.42.58,4.73-.92,6.43-.65,9.49-1.01,2.36-.27,4.83-.66,6.88-.05,4.23,1.27,2.23,5.47,5.88,8.04,5.25,3.7,10.96-1.47,8.36,9.32-1.31,5.42-2.84,11.72-.38,18.43.71,1.94.7,6.82-.1,8.61-3.2,7.14-6.16,6.03-1.91,10.11,3.47,3.33-1.41,6.06,1.09,9.79,2.42,3.6,1.27,7.11-1.41,14.48-.36,1,1.44,2.23-1.92,4.19-2.35,1.37,5.97,5.3-12.82,5.3-5.33,0-6.97,1.97-12.36,1.81-4.72-.14-8,.1-11.7.34-6.75.43-13.57-1.16-14.54-1.12-7.74.26-13.11,3.36-19.42.44h0Z"/>
              <path class="cls-29" d="M13.96,84.72c-2.58-2.33-3.82-4.1-2.04-10.59,2.64-9.64-2.54-12.08-3.11-18.07-.73-7.69-.13-3.93,2.65-9.36,1.71-3.35-2.86-4.4,2.45-10.7,3.95-4.69,3-8.5-.6-12.8-2.92-3.47-3.25-8.24-.13-10.54,4.88-3.6,10.46.47,14.29.7,1.15.07,2.62-.2,5.04-1.14,2.76-1.07,9.8,1.92,15.15,2.88,6.12,1.1,11.42.98,19.37-3.18,6.94-3.63,16.58,1.33,18.54,4.96.53.99,4.19.15,4.84,5.8.28,2.46,6.4,4.04,2.78,10.69-.66,1.22-1.12,8.26.06,10.36,1.36,2.41,1.36,7.82-.06,9.91-4.02,5.93,1.72,10.79-1.23,15.1-2.99,4.36-.43,7.84-.43,11.17,0,7-2.48,2.75-1.09,9.58,1.21,5.96-3.7,6.78-8.88,5.58-3.45-.8-8.4,2.19-13.69,2.46-6.39.32-7.82-2.83-13.25-1.85-8.29,1.5-11.43-3.32-17.19.45-4.42,2.89-8.69,2.17-10.63.21-2.47-2.49.41.63-3.41-4.62-3.69-5.07-8.11-5.82-9.42-7h0Z"/>
            </g>
          </g>
        </g>
      </g>
    </g>
  </g>
</svg>