<svg width="29" height="6" viewBox="0 0 29 6" fill="none" xmlns="http://www.w3.org/2000/svg">
<path d="M1.57978 5.76616C1.22872 5.76616 0.901537 5.57695 0.620926 5.23907C0.477635 5.06723 -0.0979153 4.32776 0.195831 4.0478C0.0167172 4.04008 0.0453754 3.82384 0 3.6269C0.0107468 3.60373 0.0226877 3.57477 0.0334345 3.5516C0.0107468 3.59794 0.00597044 3.05541 0.00597044 3.02645C0.00597044 1.62666 0.714065 0.481737 1.57978 0.481737H16.6981C16.8761 0.481737 17.0576 0.466291 17.2355 0.481737C17.3871 0.495252 17.5483 0.640057 17.6952 0.614958C17.9639 0.570551 18.2122 0.448914 18.4809 0.472083C18.7926 0.499113 19.1078 0.481737 19.4207 0.481737H27.384C27.7423 0.481737 28.0014 0.72694 28.3106 0.96442C28.5638 1.15942 28.8563 1.44904 28.9304 1.9182C28.965 2.13831 28.9256 2.37965 28.9459 2.60361C28.9662 2.81986 29.0032 3.00907 28.9973 3.23883C28.9805 3.84894 28.8193 4.42044 28.5698 4.88574C28.2724 5.436 27.8366 5.7623 27.384 5.7623H24.0454C23.8352 5.7623 23.6071 5.71982 23.3982 5.7623C23.0519 5.83566 22.7116 5.7623 22.3605 5.7623C22.0632 5.7623 21.7659 5.7623 21.4673 5.7623H14.255C13.8873 5.7623 13.5195 5.80284 13.1517 5.7874C12.9105 5.77774 12.4376 5.80284 12.2251 5.58274C12.2776 5.6368 12.2752 5.69086 12.2908 5.75457C11.8692 5.79705 11.4633 5.7623 11.0417 5.7623H1.57978V5.76616Z" fill="#7A2900"/>
<path d="M27.3852 5.29505H24.0465C23.8364 5.29505 23.6083 5.25257 23.3993 5.29505C23.053 5.36842 22.7127 5.29505 22.3617 5.29505C22.0643 5.29505 21.767 5.29505 21.4685 5.29505H14.2562C13.6902 5.29505 13.0657 5.39352 12.5069 5.22361C12.3552 5.17728 12.1104 5.20044 11.9838 5.07495C12.0459 5.10584 12.0973 5.16183 12.1164 5.25064C11.8143 5.43213 11.3617 5.29505 11.0441 5.29505H1.57974C1.29675 5.29505 1.03763 5.15411 0.788064 4.94752C0.727166 4.89732 0.367745 4.4629 0.648356 4.50731C0.558799 4.49379 0.385656 4.55558 0.317593 4.43008C0.143256 4.11151 0.894338 4.16171 1.00181 4.09799C0.743883 4.02849 0.250724 4.2177 0.157585 3.6713C0.115792 3.42224 0.168332 3.401 0.290129 3.25233C-0.022722 3.54773 0.0059361 3.16159 0.0059361 2.75034V2.55727C0.0059361 1.15749 0.714031 0.0125596 1.57974 0.0125596H16.6981C16.876 0.0125596 17.0575 -0.0028863 17.2354 0.0125596C17.3871 0.0260747 17.5483 0.17088 17.6952 0.14578C17.9638 0.101373 18.2122 -0.0202629 18.4809 0.0029059C18.7925 0.0299362 19.1078 0.0125596 19.4206 0.0125596H27.384C27.8939 0.0125596 28.3799 0.427667 28.6724 1.10149C28.8157 1.43165 28.9626 1.77725 28.9459 2.19236C28.9363 2.44335 28.7871 2.81212 28.5853 2.70207C28.6259 2.72524 28.7763 2.71173 28.8444 2.7542C28.9769 2.83722 29.002 3.19634 28.9303 3.37397C28.8706 3.52264 28.725 3.5709 28.627 3.60759C28.3739 3.70219 28.1052 3.70412 27.8461 3.70412C28.0276 3.70412 28.2067 3.72343 28.3858 3.75432C28.4921 3.7717 28.7441 3.70992 28.8169 3.82962C28.8265 3.84507 28.59 4.38181 28.5685 4.42236C28.2712 4.97262 27.8354 5.29891 27.3828 5.29891L27.3852 5.29505Z" fill="url(#paint0_linear_19_7477)"/>
<path style="mix-blend-mode:screen" opacity="0.25" d="M0.0824141 1.77339C0.288992 0.755892 0.882454 0.0125596 1.5798 0.0125596H3.83902C3.56677 0.172811 3.2981 0.344646 3.03181 0.529996C2.74762 0.726931 2.4682 0.939312 2.19356 1.17293C1.94042 1.38724 1.68846 1.59769 1.41143 1.71933C1.09858 1.85834 0.773792 1.86027 0.452582 1.81007C0.32362 1.78884 0.201823 1.77339 0.0836082 1.77532L0.0824141 1.77339ZM3.17869 1.27719C3.33989 1.1459 3.49751 1.00303 3.65513 0.856291C3.42825 0.999165 3.20376 1.15169 2.98166 1.31387C2.80971 1.4413 2.64015 1.58418 2.4694 1.72705C2.7118 1.60928 2.94942 1.46254 3.17869 1.27719ZM5.95972 2.41053C5.39014 2.54182 4.82772 2.73296 4.26411 2.91252C4.59368 2.86619 4.92206 2.8044 5.24924 2.71752C5.59194 2.62677 5.92509 2.49548 6.25227 2.33909C6.15555 2.36613 6.05883 2.38929 5.96091 2.41246L5.95972 2.41053ZM0.29138 3.25426C0.24481 3.31025 0.208988 3.34887 0.183912 3.38748C1.6013 3.01678 3.0139 2.60554 4.42412 2.16147C5.04027 1.96646 5.65881 1.81393 6.27615 1.63824C6.56393 1.55715 6.8517 1.4471 7.11918 1.25402C7.36397 1.07833 7.59085 0.838914 7.82727 0.638118C8.25953 0.269347 8.70254 0.107166 9.17301 0.0125596H6.00868C5.85225 0.0666201 5.69583 0.126473 5.54059 0.19791C5.07012 0.414152 4.64145 0.736585 4.21754 1.12852C3.81514 1.50116 3.41631 1.88537 2.98524 2.17112C2.05147 2.79089 0.99828 2.83722 0.0119629 3.15386C0.0298742 3.3508 0.0895787 3.44154 0.29138 3.25426ZM18.4821 0.0029059C18.2135 -0.0202629 17.9651 0.101373 17.6964 0.14578C17.5495 0.17088 17.3883 0.024144 17.2367 0.0125596C17.0588 -0.0028863 16.8773 0.0125596 16.6994 0.0125596H16.6611C16.1143 0.282862 15.5554 0.443113 14.9775 0.352369C14.6682 0.304101 14.3613 0.236525 14.0509 0.219148C13.7297 0.201772 13.4204 0.259694 13.1016 0.327269C12.4472 0.466282 11.7881 0.499105 11.1301 0.526135C10.465 0.553165 9.79752 0.574403 9.136 0.709555C8.84583 0.769408 8.56403 0.848568 8.29416 1.03778C8.09594 1.17679 7.90847 1.35249 7.721 1.52239C8.29775 1.21348 8.86852 1.0262 9.48945 1.03392C10.2728 1.0455 11.0561 1.12273 11.8394 1.06288C12.2048 1.03392 12.5511 1.01847 12.9129 1.13045C13.2365 1.23085 13.5517 1.39303 13.8718 1.51467C14.6312 1.80428 15.4038 1.56294 16.1441 1.25016C16.8904 0.935451 17.6331 0.603364 18.3854 0.327269C18.6803 0.219148 18.9765 0.114889 19.2726 0.0125596C19.0099 0.016421 18.746 0.024144 18.4845 0.0029059H18.4821ZM17.4086 4.6888C16.9943 4.39726 16.5728 4.47449 16.1334 4.47256C15.1064 4.4687 14.0855 4.27755 13.0598 4.22349C12.0603 4.16943 11.1015 4.32196 10.1331 4.73514C9.73543 4.90504 9.34257 5.09811 8.94972 5.29312H11.0453C11.363 5.29312 11.8167 5.4302 12.1176 5.24871C12.1057 5.19465 12.0818 5.15218 12.0508 5.12128C12.1845 5.19272 12.3803 5.18307 12.5081 5.22168C13.0657 5.39159 13.6903 5.29312 14.2574 5.29312H18.1132C17.8779 5.09425 17.6534 4.8587 17.4086 4.68687V4.6888ZM27.8951 0.155434C26.8013 0.221079 25.7099 0.423806 24.6424 0.823468C24.0943 1.02813 23.5618 1.29264 23.04 1.63631C22.7498 1.82745 22.462 2.03211 22.1731 2.22904C22.6232 2.27538 23.0722 2.29855 23.5236 2.28503C24.006 2.27152 24.4836 2.36806 24.9636 2.40088C25.2108 2.41826 25.4592 2.41632 25.704 2.36419C25.9416 2.31206 26.1733 2.20008 26.4073 2.11127C26.8909 1.92592 27.3769 1.7676 27.8701 1.66141C28.1889 1.5919 28.5089 1.54749 28.8277 1.53398C28.7823 1.37759 28.7286 1.23085 28.6725 1.10342C28.4802 0.661286 28.2044 0.331131 27.8939 0.157365L27.8951 0.155434ZM21.4112 0.0125596C20.2506 0.383261 19.0899 0.755892 17.9388 1.20189C17.1853 1.49536 16.4438 1.87958 15.6856 2.13251C15.3238 2.25221 14.9536 2.33716 14.5834 2.33716C14.2037 2.33716 13.8395 2.22132 13.4741 2.06686C13.1649 1.93557 12.8556 1.78111 12.5356 1.73477C12.1618 1.68071 11.7821 1.76567 11.4072 1.77339C10.6238 1.78884 9.83215 1.64982 9.05122 1.73284C8.34432 1.80814 7.68398 2.27152 7.02723 2.66346C6.31436 3.08629 5.58716 3.35273 4.83369 3.5014C4.74533 3.51877 4.65816 3.53422 4.5698 3.54773C5.11311 3.75432 5.64329 4.05552 6.15436 4.40691C6.51617 4.65598 6.87678 4.93786 7.22187 5.2603C8.2655 4.31231 9.42616 3.68096 10.5892 3.26971C11.2567 3.03416 11.9111 3.04381 12.5857 3.18862C13.301 3.34308 14.0162 3.37976 14.7387 3.36045C15.2235 3.34694 15.7095 3.31412 16.1943 3.29481C17.0146 2.96079 17.7991 2.41439 18.629 2.15181C19.1186 1.83517 19.644 1.76567 20.1622 1.58997C20.8034 1.37373 21.4339 0.997234 22.0536 0.657425C22.4322 0.448906 22.8095 0.232663 23.1868 0.0125596H21.4136H21.4112ZM0.591096 4.73128C0.655577 4.8143 0.726028 4.8896 0.795285 4.95331C1.03291 5.17534 1.30516 5.29505 1.5798 5.29505H5.16207C3.67304 4.60385 2.13386 4.28334 0.591096 4.73128ZM28.8468 2.7542C28.7788 2.71173 28.6283 2.72524 28.5865 2.70207C28.7776 2.64415 28.9507 2.60747 28.9459 2.24835C28.9459 2.2387 28.9459 2.22711 28.9459 2.21746C28.4253 2.23097 27.9047 2.32558 27.3876 2.47811C26.916 2.61712 26.4563 2.83143 25.987 2.98203C25.5225 3.13263 25.052 3.10753 24.5815 3.05154C24.1111 2.99554 23.6478 2.98396 23.1761 2.98203C22.6626 2.98203 22.1504 2.91832 21.6381 2.85267C20.77 2.74069 19.8625 2.56306 18.9908 2.75227C19.1962 2.76579 19.404 2.80633 19.6117 2.88549C20.0941 3.07084 20.5622 3.3508 21.0482 3.51105C21.5629 3.67902 22.0823 3.58249 22.5982 3.48016C23.1092 3.37783 23.606 3.32377 24.1182 3.43382C24.5899 3.53422 25.052 3.72343 25.5189 3.8721C25.987 4.02076 26.4682 4.11537 26.9446 4.0227C27.4354 3.92616 27.9035 3.62303 28.3692 3.37204C28.5662 3.26585 28.7644 3.17896 28.965 3.10946C28.9698 2.94535 28.9388 2.81406 28.848 2.75613L28.8468 2.7542ZM27.931 4.33547C27.4617 4.58261 26.99 4.74672 26.4945 4.74286C26.0324 4.739 25.575 4.59612 25.1248 4.44166C24.6436 4.27562 24.1624 4.08834 23.6693 4.05359C23.1749 4.01883 22.6877 4.16364 22.1969 4.24473C21.6823 4.32968 21.1832 4.29107 20.6816 4.08062C20.1992 3.87789 19.7264 3.57863 19.2308 3.46857C18.8272 3.37976 18.426 3.42803 18.026 3.52457C18.2206 3.60952 18.4141 3.71571 18.6087 3.84893C18.8678 4.02656 19.1234 4.22156 19.3932 4.35092C19.7049 4.49959 20.0321 4.53434 20.3568 4.55172C21.0506 4.58647 21.7444 4.44166 22.4369 4.53434C23.1391 4.62702 23.8137 4.91856 24.4729 5.29698H27.3864C27.839 5.29698 28.2749 4.97069 28.5722 4.42043C28.6199 4.33161 28.7083 4.12889 28.7895 3.89334C28.5029 4.02656 28.2199 4.18488 27.9321 4.33547H27.931ZM21.742 5.19272C21.0745 5.2101 20.4094 5.29891 19.7443 5.16762C19.1723 5.05564 18.6803 4.60578 18.1478 4.28914C17.9531 4.17329 17.7561 4.09799 17.5579 4.04973C17.6081 4.08255 17.6582 4.11923 17.7084 4.15785C18.0332 4.41463 18.3293 4.74865 18.672 4.94366C18.9275 5.09039 19.1878 5.20044 19.4505 5.29505H21.4697C21.7671 5.29505 22.0644 5.29505 22.3629 5.29505C22.4716 5.29505 22.5958 5.33366 22.7008 5.32015C22.7199 5.31822 22.7402 5.31243 22.7594 5.30663C22.4274 5.22554 22.0895 5.185 21.7432 5.19465L21.742 5.19272Z" fill="url(#paint1_linear_19_7477)"/>
<g style="mix-blend-mode:multiply" opacity="0.77">
<path d="M1.15232 2.73106C1.19053 2.58432 1.34695 1.9858 1.2574 1.86995C1.21202 1.81203 1.04724 1.8352 0.98634 1.83327C1.15232 1.75604 1.3171 1.76569 1.46636 1.62475C1.62637 1.47415 1.73862 1.339 1.93564 1.339H17.1877C17.5686 1.339 17.9508 1.36024 18.3317 1.339C18.715 1.31776 19.0851 0.99533 19.4637 1.02236C19.3813 1.06677 19.2905 1.15172 19.2487 1.27722C19.435 1.37955 19.7694 1.29266 19.9831 1.31969C20.3927 1.36989 20.7712 1.41237 21.1676 1.20578C21.3897 1.08994 21.5903 1.38148 21.8256 1.24633C21.828 1.21736 21.8256 1.20964 21.8256 1.17875C21.828 1.48187 26.2962 1.339 26.8897 1.339H27.0318C27.3829 1.339 27.6205 1.72515 27.7435 2.22135C27.8557 2.68086 28.1136 2.65576 28.4014 2.63066C28.288 2.74651 28.0766 2.72334 27.9453 2.73299C27.6408 2.75423 27.7506 3.2485 27.5882 3.55355C27.4485 3.8142 27.2444 3.9648 27.033 3.9648H26.0132C25.6896 3.9648 25.366 3.9397 25.0425 3.93005C24.1099 3.90109 23.1725 3.9648 22.2387 3.9648H1.93445C1.79235 3.9648 1.65145 3.89722 1.53204 3.7698C1.41741 3.64816 1.37561 3.44929 1.28128 3.318C1.08664 3.04963 0.745134 3.20795 0.515869 3.16548C0.819168 2.97047 1.04246 3.1481 1.15232 2.7272V2.73106Z" fill="#864300"/>
</g>
<path style="mix-blend-mode:screen" opacity="0.5" d="M27.5848 3.55549C27.445 3.81614 27.2409 3.96674 27.0295 3.96674H1.93453C1.79243 3.96674 1.65153 3.89916 1.53212 3.77173C1.41749 3.6501 1.3757 3.45123 1.28136 3.31994C1.24912 3.27553 1.21211 3.24271 1.17151 3.21954C1.40555 3.35856 1.42704 3.87213 1.60377 4.1154C1.61213 4.12699 1.62049 4.13664 1.62884 4.1463C1.73631 4.26986 1.88796 4.32006 2.05275 4.33358C2.45635 4.11154 2.9316 3.96095 3.32564 4.18877C3.34117 4.19843 3.3555 4.20808 3.36983 4.2216C3.41281 4.23318 3.45341 4.25056 3.49401 4.27759H3.58118C3.65999 4.25442 3.74358 4.25442 3.82119 4.27759H4.26778C4.37286 4.22932 4.48749 4.21966 4.59735 4.24669C4.78602 4.09417 4.99379 4.08451 5.17171 4.25442C5.30903 4.21773 5.44038 4.21387 5.57889 4.266C5.58725 4.26986 5.59561 4.27372 5.60397 4.27759H11.1613C11.2747 4.25828 11.3881 4.24669 11.5016 4.23897C11.5243 4.21773 11.5517 4.20036 11.584 4.18877C11.9016 4.08065 12.2085 4.09417 12.5189 4.23897C12.661 4.12699 12.8306 4.09224 12.9799 4.1714C12.9942 4.1656 13.0073 4.15981 13.0216 4.15595C13.0706 4.11734 13.1231 4.07872 13.1781 4.06327C13.2163 4.05169 13.2545 4.04011 13.2939 4.04783C13.3202 4.05169 13.3488 4.05555 13.3739 4.06714C13.399 4.07872 13.4229 4.09803 13.4467 4.1154C13.5447 4.08837 13.6438 4.12313 13.7214 4.20615C13.8468 4.18105 13.9698 4.18298 14.0951 4.22932C14.1214 4.23897 14.1453 4.25635 14.1668 4.27759C14.1739 4.27372 14.1811 4.26986 14.1883 4.26793C14.3316 4.21387 14.4677 4.21387 14.611 4.26793C14.6193 4.27179 14.6277 4.27566 14.6361 4.27952H21.8567C22.1015 4.15402 22.3487 4.10189 22.6102 4.09996C22.6759 4.09996 22.7296 4.13085 22.7702 4.18298C22.8024 4.17719 22.8371 4.17912 22.8693 4.1907C22.8944 4.20036 22.9194 4.20615 22.9433 4.21387C22.9577 4.21773 22.9636 4.21966 22.9612 4.21773C22.9672 4.21773 22.9732 4.21966 22.9792 4.2216C23.0281 4.23318 23.0783 4.2409 23.126 4.266C23.1332 4.26986 23.1404 4.27372 23.1475 4.27759H23.4974C23.544 4.25635 23.5953 4.25442 23.6431 4.266C23.6634 4.27179 23.7111 4.27566 23.7517 4.27759H23.8102C23.852 4.27566 23.907 4.26986 23.9237 4.266C23.9762 4.25249 24.0276 4.25635 24.0729 4.27759H24.3989C24.3989 4.27759 24.4109 4.26986 24.4168 4.266C24.5446 4.18877 24.6807 4.17526 24.8157 4.17526C24.8825 4.17526 24.941 4.21387 24.9864 4.27952H25.1022C25.1309 4.26214 25.1608 4.25249 25.1918 4.25249C25.2706 4.25249 25.353 4.25635 25.4306 4.27952H26.1101C26.3166 4.27952 26.5232 4.27566 26.731 4.27952C27.2265 4.2911 27.4224 4.17333 27.623 3.45123C27.6086 3.50143 27.5967 3.54005 27.5871 3.55742L27.5848 3.55549Z" fill="url(#paint2_linear_19_7477)"/>
<g style="mix-blend-mode:multiply" opacity="0.76">
<path d="M27.7397 2.22327C27.618 1.72708 27.3791 1.34093 27.0281 1.34093H26.886C26.2925 1.34093 21.8242 1.48187 21.8218 1.18068C21.8218 1.21157 21.8254 1.21929 21.8218 1.24825C21.5866 1.38534 21.386 1.09379 21.1639 1.20771C20.7675 1.4143 20.3889 1.37182 19.9794 1.32162C19.7656 1.29459 19.4325 1.38147 19.245 1.27914C19.2868 1.15172 19.3775 1.06869 19.4599 1.02429C19.0814 0.999188 18.7112 1.31969 18.3279 1.34093C17.9482 1.36217 17.5649 1.34093 17.184 1.34093H1.9343C1.73727 1.34093 1.62503 1.47415 1.46502 1.62668C1.31576 1.76762 1.15098 1.75797 0.984997 1.8352C1.04709 1.8352 1.21187 1.81396 1.25606 1.87188C1.34681 1.98772 1.19038 2.58625 1.15098 2.73299C1.03993 3.15389 0.817825 2.97626 0.514526 3.17126C0.743791 3.21374 1.08649 3.05542 1.27994 3.32379C1.37427 3.45508 1.41606 3.65202 1.5307 3.77558C1.6501 3.90301 1.79101 3.97059 1.9331 3.97059H22.2314C23.1652 3.97059 24.1026 3.90687 25.0351 3.93584C25.3587 3.94549 25.6823 3.97059 26.0059 3.97059H27.0257C27.237 3.97059 27.4412 3.81806 27.5809 3.55934C27.7433 3.25622 27.6335 2.76002 27.938 2.73878C28.0693 2.72913 28.2807 2.75423 28.3941 2.63645C28.1063 2.66155 27.8484 2.68472 27.7362 2.22714L27.7397 2.22327ZM27.3612 2.75616C27.3612 3.1925 27.1403 3.54969 26.8705 3.54969C26.4131 3.54969 25.9713 3.4937 25.5187 3.43384C25.5367 3.36241 25.5331 3.26201 25.5617 3.18864C25.5152 3.25815 24.9551 3.64236 24.9707 3.51494C24.9969 3.29869 25.1462 3.18671 25.1951 3.00329C24.8942 3.34696 24.7533 3.57479 24.3844 3.54776C24.2112 3.53617 24.0345 3.54776 23.8613 3.54776H15.2245C14.5069 3.54776 13.7486 3.64816 13.0405 3.4686C13.0572 3.28132 13.136 3.14037 13.2125 2.99557C13.0286 3.12493 12.9211 3.44157 12.7253 3.5381C12.5294 3.63464 12.2524 3.54776 12.0482 3.54776H10.4816C9.48452 3.54776 8.44686 3.67519 7.45696 3.54583C7.44979 3.43771 7.47367 3.31993 7.5298 3.25236C7.32083 3.50335 7.2671 3.5632 7.01634 3.54776C6.72856 3.53038 6.4384 3.54776 6.14943 3.54776H2.05729C1.78742 3.54776 1.56652 3.19057 1.56652 2.75423V2.54957C1.56652 2.11322 1.78742 1.75604 2.05729 1.75604C2.3773 1.75604 2.69851 1.75024 3.01853 1.75604C3.26332 1.7599 3.44243 1.78114 3.23108 2.22714C3.58692 1.47801 4.55413 1.75604 5.03535 1.75604H6.07301C6.30944 1.75604 6.80499 1.59192 6.99485 1.85837C6.9626 2.04951 6.88499 2.21362 6.85991 2.41056C6.90648 2.0302 7.42949 1.75797 7.62174 1.73673C7.95489 1.70004 8.64746 1.54752 8.93405 1.81975C8.92091 1.91243 8.90658 2.02827 8.87792 2.11322C9.00211 1.75411 9.42362 1.75604 9.6302 1.75604C10.0481 1.75604 10.4661 1.75604 10.8828 1.75604C11.1682 1.75604 11.6088 1.61895 11.8787 1.75604C12.1748 1.90663 11.9097 2.0553 11.8321 2.37966C11.9599 2.30823 12.0578 2.06688 12.1832 1.94911C12.6309 1.53014 13.3271 1.75797 13.8179 1.75797H19.8265C20.814 1.75797 21.8171 1.67881 22.801 1.78307C22.8631 1.99931 22.7329 2.14991 22.6696 2.34105C22.8392 2.21169 22.9909 1.86995 23.1939 1.77921C23.4339 1.67301 23.7813 1.76762 24.0261 1.78307C23.9987 1.84099 23.9784 1.95683 23.9605 1.99931C24.1061 1.66336 24.5647 1.74059 24.7665 1.75411C25.1354 1.78114 25.508 1.75411 25.877 1.75411H26.8681C27.1379 1.75411 27.3588 2.11129 27.3588 2.54764V2.7523L27.3612 2.75616Z" fill="#864300"/>
</g>
<path d="M14.7125 2.54657V2.75728C14.7125 3.15549 14.5704 3.48049 14.3945 3.48049L1.77358 3.48049C1.59768 3.48049 1.45555 3.15728 1.45555 2.75728V2.54657C1.45555 2.14657 1.59768 1.82336 1.77358 1.82336L14.3945 1.82336C14.5696 1.82336 14.7125 2.14657 14.7125 2.54657Z" fill="url(#paint3_linear_19_7477)"/>
<path style="mix-blend-mode:screen" opacity="0.64" d="M1.69124 1.82336C1.61048 1.82336 1.53852 1.90818 1.48735 2.04083C1.44497 2.15174 1.44497 2.32355 1.48735 2.43446C1.53852 2.56929 1.61128 2.65193 1.69124 2.65193H14.4749C14.558 2.65193 14.6324 2.56276 14.6844 2.42141C14.7219 2.31702 14.7219 2.15827 14.6844 2.05388C14.6332 1.91253 14.558 1.82336 14.4749 1.82336H1.69124Z" fill="url(#paint4_linear_19_7477)"/>
<path style="mix-blend-mode:multiply" d="M14.4322 3.24725H1.73512C1.59613 3.24725 1.4807 2.98948 1.45949 2.65192C1.45714 2.68874 1.45557 2.72557 1.45557 2.76393V2.77467C1.45557 3.1644 1.58042 3.48048 1.73512 3.48048H14.433C14.5877 3.48048 14.7125 3.1644 14.7125 2.77467V2.76393C14.7125 2.72557 14.711 2.68874 14.7086 2.65192C14.6874 2.98948 14.5712 3.24725 14.4322 3.24725Z" fill="url(#paint5_linear_19_7477)"/>
<g style="mix-blend-mode:screen">
<path opacity="0.58" d="M28.6736 1.10149C28.381 0.427668 27.895 0.0125596 27.3852 0.0125596H19.4218C19.1089 0.0125596 18.7937 0.0299362 18.482 0.0029059C18.2134 -0.0202629 17.965 0.101373 17.6963 0.14578C17.5494 0.17088 17.3883 0.024144 17.2366 0.0125596C17.0587 -0.0028863 16.8772 0.0125596 16.6993 0.0125596H1.57971C0.713996 0.0125596 0.0059018 1.15749 0.0059018 2.55727V2.75034C0.0059018 2.84688 0.00470771 2.94148 0.0059018 3.02644C0.0465008 2.91252 0.0930703 2.8044 0.147998 2.704C0.169492 2.59974 0.196956 2.509 0.21845 2.46459C0.339053 2.22132 0.522942 2.19043 0.704444 2.19622C0.331888 2.18464 0.0787412 2.07458 0.294871 1.47606C0.435774 1.08605 0.614887 0.676732 0.92535 0.669009C1.12596 0.663217 1.20954 0.728862 1.41612 0.640048C1.89376 0.435391 2.42154 0.558958 2.91709 0.518412C2.59469 0.205633 1.9463 0.715347 1.64658 0.336923C1.92122 0.082066 2.28064 0.151572 2.57677 0.184395C2.97918 0.228802 3.38875 0.207564 3.79355 0.207564H16.6802C16.8378 0.207564 17.1112 0.184395 17.2545 0.298308C17.0145 0.53965 16.6861 0.609157 16.4569 0.823468C16.6539 0.74817 16.882 0.777131 17.0885 0.711486C17.5542 0.56668 17.9614 0.161226 18.4498 0.199841C18.7591 0.22494 19.0719 0.207564 19.3824 0.207564H27.2813C27.704 0.207564 28.1112 0.477867 28.4025 0.931589C28.5781 1.0957 28.7213 1.32739 28.8467 1.5919C28.7978 1.41427 28.7381 1.24437 28.6748 1.10149H28.6736Z" fill="url(#paint6_linear_19_7477)"/>
</g>
<g style="mix-blend-mode:multiply" opacity="0.56">
<path style="mix-blend-mode:multiply" opacity="0.41" d="M27.3041 5.10396C27.2958 5.10396 27.2886 5.10396 27.2802 5.10396H26.4945C26.3895 5.10396 25.224 4.99584 25.1989 5.07307C25.2336 4.96688 25.3219 4.9244 25.4127 4.91861C25.3888 4.87227 25.3601 4.83366 25.3231 4.8047C25.3195 4.77574 25.3518 4.7738 25.3363 4.7487C25.1452 4.61935 24.5482 4.68306 24.4013 4.89158C24.4156 4.92247 24.4311 4.93406 24.4467 4.96688C24.1458 5.22946 23.6574 5.04218 23.3266 5.10782C23.2359 5.1252 23.1594 5.16767 23.0782 5.17347C23.0448 5.20436 23.0102 5.28545 22.9958 5.32406C23.1427 5.42639 23.2538 5.32986 23.3983 5.29896C23.606 5.25456 23.8353 5.29896 24.0455 5.29896H27.3841C27.5011 5.29896 27.6158 5.27773 27.728 5.23525C27.5859 5.1947 27.4438 5.15223 27.3029 5.10782L27.3041 5.10396Z" fill="url(#paint7_linear_19_7477)"/>
<path style="mix-blend-mode:multiply" opacity="0.41" d="M11.4573 5.13291C11.32 5.11939 11.1874 5.10395 11.0716 5.10395H2.47892C1.8986 5.19662 1.19169 5.21786 0.645996 4.79889C0.694954 4.85488 0.7463 4.90701 0.796451 4.95528C1.03407 5.17731 1.30633 5.29702 1.58097 5.29702H11.0453C11.3355 5.29702 11.7367 5.409 12.034 5.29316C11.8406 5.26033 11.6483 5.21014 11.4597 5.13677L11.4573 5.13291Z" fill="url(#paint8_linear_19_7477)"/>
<path style="mix-blend-mode:multiply" opacity="0.41" d="M21.5808 5.10397H21.4124C20.7115 5.10397 19.9556 5.22753 19.2654 5.03639C18.9072 4.93599 18.2051 5.08273 17.9281 4.69851C17.9496 4.66762 17.9699 4.61742 17.9937 4.5846C17.8922 4.4591 17.7286 4.434 17.6057 4.38767C17.6642 4.20811 17.8803 4.24479 18.0009 4.18301C17.608 4.2641 17.1388 4.13281 16.7399 4.09033C16.9704 4.13088 17.2307 4.19073 17.4385 4.36836C17.4218 4.3838 17.3967 4.42049 17.3764 4.44173C17.4719 4.54792 17.5818 4.62708 17.6737 4.73327C17.4588 5.39358 15.8372 5.19278 15.4456 4.91476C15.5817 4.84525 15.7524 4.79698 15.9065 4.8105C15.516 4.7352 14.8975 4.62515 14.5297 4.80277C14.6288 4.80277 14.7279 4.85683 14.8043 4.96302C14.3159 5.17154 13.7129 5.21981 13.1577 5.15803C12.9869 5.18892 12.8174 5.22174 12.6466 5.2565C13.1684 5.37427 13.7368 5.29318 14.2562 5.29318H21.4685C21.7085 5.29318 21.9474 5.29318 22.1874 5.29318C21.9856 5.21788 21.7838 5.14451 21.5796 5.10204L21.5808 5.10397Z" fill="url(#paint9_linear_19_7477)"/>
</g>
<path style="mix-blend-mode:screen" opacity="0.46" d="M12.772 0.657459C12.3971 0.491416 11.9648 0.562853 11.5791 0.530031C10.8901 0.470178 10.2047 0.439286 9.51334 0.427702C8.35866 0.408394 7.20159 0.389087 6.0469 0.348541C5.04745 0.313788 3.98471 0.219182 2.98884 0.358195C3.06527 0.408394 3.18467 0.481762 3.2814 0.506862C2.74525 0.84281 2.15179 0.688351 1.59295 0.707658C1.35891 0.715381 0.0537744 0.943208 0.423942 1.76763C0.533798 2.0109 0.767839 1.81397 0.865755 2.05338C0.751122 2.2117 0.55768 2.41057 0.525439 2.65384C0.914712 2.71948 1.31354 2.23873 0.871725 1.75412C0.938594 1.60931 1.03293 1.61317 1.13801 1.56877C1.37444 1.46644 1.47952 1.37183 1.67654 1.1749C1.84849 1.00306 2.20672 1.09381 2.41449 1.09381H11.1385C11.6102 1.09381 12.4078 1.31584 12.772 0.655528V0.657459Z" fill="url(#paint10_linear_19_7477)"/>
<path style="mix-blend-mode:screen" opacity="0.46" d="M26.7988 1.19418C26.0896 1.04744 25.3731 1.03972 24.6578 1.03585C23.9951 1.03199 23.3575 1.2019 22.6888 1.09764C22.4822 1.06482 22.0798 1.10729 21.9114 0.925803C21.804 1.08798 21.472 1.20962 21.4935 0.879465C21.2416 1.0764 20.9335 1.03972 20.6445 1.06289C20.3293 1.08605 19.8313 1.3216 19.5471 1.16521C19.5925 1.05709 19.6701 0.993379 19.7454 0.921942C19.4767 0.68253 18.9501 1.14011 18.6755 1.21348C18.4832 1.26561 18.0462 1.36601 18.1298 0.964418C18.2384 0.437327 18.974 0.2095 19.2438 0.389059C19.1376 0.91808 20.7329 0.400643 20.9395 0.389059C21.2762 0.371682 21.5461 0.373613 21.8529 0.539656C22.3055 0.784859 22.8357 0.607232 23.3097 0.580202C24.6053 0.508764 26.0012 0.342721 27.2896 0.613024C27.5356 0.665154 27.7756 0.775206 27.8461 1.21348C27.8819 1.43166 27.8508 1.67493 27.7362 1.80043C27.4735 1.3525 27.1881 1.27527 26.7977 1.19418H26.7988Z" fill="url(#paint11_linear_19_7477)"/>
<path style="mix-blend-mode:screen" opacity="0.31" d="M10.7383 3.457C10.7538 3.29482 10.8386 3.15967 10.9102 3.05348C11.0034 2.9164 11.1073 2.80442 11.198 2.66347C11.3091 2.48971 11.4141 2.29084 11.4667 2.05143C11.487 1.95489 11.4977 1.85642 11.5001 1.75989H8.6546C8.64983 1.8738 8.63908 1.98771 8.62117 2.0997C8.50534 2.81793 8.13637 3.29289 7.72083 3.55161H10.7383C10.7347 3.52265 10.7347 3.49176 10.7383 3.45893V3.457Z" fill="url(#paint12_linear_19_7477)"/>
<path style="mix-blend-mode:screen" opacity="0.31" d="M15.0634 3.51303C15.1912 3.37595 15.3166 3.22728 15.4217 3.0458C15.584 2.76777 15.6844 2.41058 15.7739 2.06112C15.8014 1.95493 15.8324 1.84874 15.8766 1.758H15.4921C15.5088 1.82943 15.5196 1.90666 15.5231 1.98775C15.5494 2.51098 15.3034 2.91064 15.0527 3.17516C14.9142 3.32382 14.7649 3.44353 14.6121 3.54972H15.0491C15.0491 3.5362 15.0527 3.52269 15.0622 3.51303H15.0634Z" fill="url(#paint13_linear_19_7477)"/>
<path style="mix-blend-mode:screen" opacity="0.31" d="M4.70121 3.30061C4.71793 3.10947 4.80271 2.9415 4.86838 2.78704C4.90301 2.70402 4.94003 2.621 4.96511 2.52832C4.99138 2.42985 5.01048 2.32366 5.02959 2.2194C5.05944 2.06301 5.0881 1.89118 5.16452 1.77533C5.1681 1.76954 5.17288 1.76375 5.17765 1.75989H4.61882C4.62598 1.77533 4.63315 1.79078 4.63912 1.80623C4.77405 2.16727 4.63434 2.58624 4.48866 2.87585C4.35612 3.13843 4.18895 3.37012 4.00745 3.55161H4.74778C4.71196 3.4879 4.69285 3.40487 4.70121 3.30061Z" fill="url(#paint14_linear_19_7477)"/>
<defs>
<linearGradient id="paint0_linear_19_7477" x1="14.489" y1="4.74093" x2="14.489" y2="0.095581" gradientUnits="userSpaceOnUse">
<stop stop-color="#B44320"/>
<stop offset="1" stop-color="#FF9215"/>
</linearGradient>
<linearGradient id="paint1_linear_19_7477" x1="14.4879" y1="13.8984" x2="14.4879" y2="0.242318" gradientUnits="userSpaceOnUse">
<stop stop-color="#B44320"/>
<stop offset="1" stop-color="#FF9215"/>
</linearGradient>
<linearGradient id="paint2_linear_19_7477" x1="14.396" y1="-0.960498" x2="14.396" y2="5.3086" gradientUnits="userSpaceOnUse">
<stop stop-color="#B44320"/>
<stop offset="1" stop-color="#FF9215"/>
</linearGradient>
<linearGradient id="paint3_linear_19_7477" x1="8.08404" y1="1.76801" x2="8.08404" y2="3.24299" gradientUnits="userSpaceOnUse">
<stop stop-color="#FFFF3B"/>
<stop offset="0.427885" stop-color="#FF9215"/>
<stop offset="1" stop-color="#CD6F03"/>
</linearGradient>
<linearGradient id="paint4_linear_19_7477" x1="8.08386" y1="1.75377" x2="8.08386" y2="3.67621" gradientUnits="userSpaceOnUse">
<stop stop-color="#FB8600"/>
<stop offset="0.54" stop-color="#FFFF3B"/>
<stop offset="1" stop-color="#FF9215"/>
</linearGradient>
<linearGradient id="paint5_linear_19_7477" x1="8.08406" y1="2.13483" x2="8.08406" y2="3.49122" gradientUnits="userSpaceOnUse">
<stop stop-color="#FF8800"/>
<stop offset="0.54" stop-color="#FFFF3B"/>
<stop offset="1" stop-color="#FF9215"/>
</linearGradient>
<linearGradient id="paint6_linear_19_7477" x1="14.852" y1="5.94764" x2="12.8178" y2="-0.697438" gradientUnits="userSpaceOnUse">
<stop stop-color="#C76525"/>
<stop offset="1" stop-color="#FF9D33"/>
</linearGradient>
<linearGradient id="paint7_linear_19_7477" x1="25.076" y1="2.8199" x2="23.0418" y2="-3.82518" gradientUnits="userSpaceOnUse">
<stop stop-color="#B15813"/>
<stop offset="1" stop-color="#FF9215"/>
</linearGradient>
<linearGradient id="paint8_linear_19_7477" x1="6.73465" y1="8.4306" x2="4.70036" y2="1.78149" gradientUnits="userSpaceOnUse">
<stop stop-color="#B15813"/>
<stop offset="1" stop-color="#FF9215"/>
</linearGradient>
<linearGradient id="paint9_linear_19_7477" x1="17.405" y1="5.16768" x2="15.3707" y2="-1.48344" gradientUnits="userSpaceOnUse">
<stop stop-color="#B15813"/>
<stop offset="1" stop-color="#FF9215"/>
</linearGradient>
<linearGradient id="paint10_linear_19_7477" x1="0.358267" y1="1.47416" x2="12.772" y2="1.47416" gradientUnits="userSpaceOnUse">
<stop stop-color="#B44320"/>
<stop offset="1" stop-color="#FF9215"/>
</linearGradient>
<linearGradient id="paint11_linear_19_7477" x1="18.119" y1="1.06289" x2="27.8604" y2="1.06289" gradientUnits="userSpaceOnUse">
<stop stop-color="#B44320"/>
<stop offset="1" stop-color="#FF9215"/>
</linearGradient>
<linearGradient id="paint12_linear_19_7477" x1="9.61107" y1="1.69617" x2="9.61107" y2="3.29096" gradientUnits="userSpaceOnUse">
<stop stop-color="#98D600"/>
<stop offset="0.54" stop-color="#FFFF3B"/>
<stop offset="1" stop-color="#98D600"/>
</linearGradient>
<linearGradient id="paint13_linear_19_7477" x1="15.2437" y1="1.69621" x2="15.2437" y2="3.291" gradientUnits="userSpaceOnUse">
<stop stop-color="#98D600"/>
<stop offset="0.54" stop-color="#FFFF3B"/>
<stop offset="1" stop-color="#98D600"/>
</linearGradient>
<linearGradient id="paint14_linear_19_7477" x1="4.59255" y1="1.69617" x2="4.59255" y2="3.29096" gradientUnits="userSpaceOnUse">
<stop stop-color="#98D600"/>
<stop offset="0.54" stop-color="#FFFF3B"/>
<stop offset="1" stop-color="#98D600"/>
</linearGradient>
</defs>
</svg>
