<svg width="8" height="8" viewBox="0 0 8 8" fill="none" xmlns="http://www.w3.org/2000/svg">
<g clip-path="url(#clip0_50_3)">
<path d="M7.79997 0.831135C7.69174 0.757802 7.31997 0.733357 7.19291 0.717802C6.00703 0.560024 2.02821 0.680024 1.72468 0.686691C1.07291 0.702246 0.383501 0.688913 0.167031 1.3578C-0.0988516 2.17558 0.345855 2.43336 1.00938 2.78669C0.647031 3.04669 0.192913 3.18447 0.117619 3.63336C-0.0141455 4.40669 0.0964427 5.16225 0.13409 5.9378C0.152913 6.30891 0.195266 6.68891 0.296442 7.05114C0.378795 7.34891 0.442325 7.66002 0.745854 7.81558C1.00938 7.94891 1.33644 7.96225 1.62585 8.00002C2.49174 8.11558 7.19291 8.08891 7.44703 7.94002C7.91527 7.66447 7.92703 6.90891 7.92703 6.44891C7.92468 5.27114 8.01409 4.33114 8.02585 3.1578C8.02821 2.88447 8.03291 2.56891 7.81644 2.36225C7.6588 2.21336 7.29409 2.18447 7.27291 1.92002C7.8188 1.88447 8.40703 1.25114 7.79762 0.833357L7.79997 0.831135Z" fill="#7A2900"/>
<path d="M7.80001 0.195576C7.69177 0.122243 7.32001 0.0977982 7.19295 0.0822427C6.00706 -0.0755351 2.02824 0.0444649 1.72471 0.0511315C1.07295 0.0666871 0.383535 0.0533538 0.167064 0.722243C0.0588287 1.0578 0.120005 1.49113 0.160005 1.84224C0.216476 2.32891 0.541182 2.32891 0.997653 2.29558C0.814123 2.30891 0.456476 2.37558 0.310593 2.48446C0.136476 2.61113 0.148241 2.80446 0.1153 2.99558C-0.0164649 3.76891 0.0941233 4.52447 0.13177 5.30002C0.150594 5.67113 0.192947 6.05113 0.294123 6.41335C0.376476 6.71113 0.440005 7.02224 0.743535 7.1778C1.00706 7.31113 1.33412 7.32447 1.62354 7.36224C2.48942 7.4778 7.19059 7.45113 7.44471 7.30224C7.64236 7.18669 7.95295 6.71113 7.74118 6.51335C7.66354 6.44002 7.48001 6.50891 7.36942 6.46002C7.81883 6.42002 7.92706 6.16891 7.92471 5.81335C7.92236 4.63558 8.01177 3.69558 8.02353 2.52224C8.02824 2.06891 7.99765 1.70891 7.51295 1.52891C7.65883 1.51113 7.84706 1.42446 7.97883 1.38446C8.06118 1.12224 8.04236 0.366687 7.7953 0.197798L7.80001 0.195576Z" fill="url(#paint0_linear_50_3)"/>
<g style="mix-blend-mode:multiply" opacity="0.46">
<path style="mix-blend-mode:multiply" opacity="0.33" d="M7.80005 0.19557C7.69181 0.122237 7.32005 0.0977922 7.19299 0.0822367C6.64005 0.0066811 5.4824 -0.00665224 4.37181 1.44315e-05C2.96946 0.317792 1.57887 0.677792 0.141225 0.824459C0.0941659 1.03779 0.103578 1.28224 0.127108 1.51335C0.769461 1.44001 1.41417 1.47557 2.06593 1.49779C2.84946 1.52446 3.61652 1.4289 4.39299 1.3289C5.6024 1.17113 6.81181 1.0089 8.03064 1.01779C8.03299 0.700014 7.97181 0.311126 7.8024 0.19557H7.80005Z" fill="url(#paint1_linear_50_3)"/>
<path style="mix-blend-mode:multiply" opacity="0.33" d="M4.87271 4.14667C4.828 4.16667 4.77859 4.18445 4.72212 4.20001C4.31035 4.32223 4.02329 4.30667 3.62094 4.14667C2.35741 3.64223 4.69153 3.41334 4.20918 3.97556C4.33388 3.95778 4.43506 3.85112 4.49859 3.73778C4.21153 3.3089 3.10094 3.31556 2.76682 3.69112C2.43271 4.06667 3.01859 4.47778 3.35506 4.64667C4.11035 5.02223 4.81153 4.5289 5.45859 4.19112C5.84212 3.99112 6.08682 3.95334 6.508 3.93778C6.63035 3.93334 7.98565 3.8089 7.98565 3.80445C7.99741 3.54445 8.00682 3.28223 8.01624 3.0089C8.01624 2.94667 6.14094 3.21556 5.90094 3.19334C5.07977 3.12001 4.308 2.69556 3.54565 2.43334C2.99506 2.24445 2.47035 2.48223 1.948 2.63112C1.43506 2.77778 0.948 2.71778 0.418588 2.75334C0.317412 2.76001 0.232706 2.73778 0.169177 2.69778C0.140942 2.79112 0.136235 2.89556 0.117412 2.99778C0.0562354 3.35556 0.0468236 3.7089 0.0585884 4.06223C0.533882 4.07556 1.11741 4.19112 1.57388 4.04223C2.01859 3.89778 2.34329 3.53112 2.71741 3.27778C3.00447 3.08445 3.23741 2.95112 3.52682 2.98223C3.95977 3.02667 4.46565 3.31112 4.81859 3.53778C5.20682 3.7889 5.20682 4.00445 4.87035 4.14667H4.87271Z" fill="url(#paint2_linear_50_3)"/>
<path style="mix-blend-mode:multiply" opacity="0.33" d="M0.305851 6.4467C0.877616 6.57114 1.44232 6.7267 2.01879 6.83336C2.7435 6.9667 3.48467 6.95781 4.21879 6.98447C5.32232 7.0267 6.42585 7.09336 7.51761 7.25114C7.7082 7.08447 7.93409 6.68892 7.74585 6.51336C7.6682 6.44003 7.48467 6.50892 7.37409 6.46003C7.8235 6.42003 7.93173 6.16892 7.92938 5.81336C7.92938 5.77781 7.92938 5.74225 7.92938 5.7067C6.63762 6.05114 5.33644 6.35114 3.9835 6.40892C2.96703 6.45114 1.95291 6.38892 0.948204 6.25114C0.708204 6.21781 0.470557 6.17558 0.23291 6.13114C0.251734 6.2267 0.27291 6.32225 0.298792 6.41781C0.301145 6.42892 0.305851 6.44003 0.308204 6.45336L0.305851 6.4467Z" fill="url(#paint3_linear_50_3)"/>
<path style="mix-blend-mode:multiply" opacity="0.33" d="M0.842361 5.40447C1.70118 5.54003 2.55765 5.64003 3.41412 5.78003C4.16001 5.90225 5.03295 5.76669 5.73413 5.4978C6.45177 5.22225 7.19295 5.05114 7.94589 4.84447C7.94824 4.76003 7.95059 4.6778 7.9553 4.59558C6.86118 4.66447 5.76236 4.8578 4.67765 4.88447C3.1553 4.92225 1.63295 4.92447 0.110596 4.88447C0.120007 5.01558 0.129419 5.14669 0.136478 5.2778C0.371772 5.32225 0.607066 5.36669 0.844713 5.40447H0.842361Z" fill="url(#paint4_linear_50_3)"/>
<path style="mix-blend-mode:multiply" opacity="0.33" d="M4.93179 2.16892C5.95532 2.28225 6.98826 2.25558 8.01649 2.18003C8.00237 2.05336 7.97414 1.94003 7.91767 1.84003C6.80473 1.84003 5.69649 1.98447 4.58826 2.12669C4.7012 2.14225 4.81649 2.15558 4.93179 2.16892Z" fill="url(#paint5_linear_50_3)"/>
</g>
<g style="mix-blend-mode:screen" opacity="0.71">
<path d="M7.79064 1.69113C7.72711 1.63558 7.65181 1.58891 7.56946 1.53336C7.61652 1.74002 7.79064 1.8778 7.90122 2.05113C8.00005 2.20669 8.02828 2.40447 8.02593 2.58224C8.02593 2.56002 8.02593 2.54002 8.02593 2.52002C8.02593 2.32669 8.03064 2.12002 7.96005 1.93558C7.91769 1.82669 7.86122 1.75336 7.78828 1.69113H7.79064Z" fill="url(#paint6_linear_50_3)"/>
<path d="M7.8 0.195576C7.69176 0.122243 7.32 0.0977982 7.19294 0.0822427C6.00706 -0.0755351 2.02823 0.0444649 1.72471 0.0511315C1.07294 0.0666871 0.383528 0.0533538 0.167058 0.722243C0.110587 0.897798 0.101175 1.10002 0.108234 1.30224C0.115293 1.18224 0.131764 1.06669 0.167058 0.96002C0.308234 0.522243 0.654117 0.375576 1.05882 0.322243C1.30353 0.235576 1.57176 0.193354 1.81176 0.171132C2.23529 0.133354 2.71765 0.144465 3.14118 0.255576C3.45882 0.248909 3.80706 0.244465 4.16471 0.242243C4.18353 0.233354 4.2047 0.226687 4.22588 0.22002C4.64941 0.102243 5.07765 0.162243 5.50588 0.204465C5.56235 0.211132 5.61882 0.222243 5.66823 0.242243C5.86117 0.244465 6.04706 0.248909 6.22353 0.255576C6.25412 0.24002 6.28471 0.226687 6.32 0.22002C6.53647 0.173354 6.7647 0.157798 6.98117 0.22002C7.05176 0.24002 7.11059 0.273354 7.16 0.315576C7.16941 0.315576 7.18118 0.317798 7.19059 0.32002C7.31765 0.337798 7.68941 0.36002 7.79765 0.433354C7.94118 0.531132 8.00706 0.828909 8.02353 1.11335C8.04235 0.782243 7.98353 0.322243 7.79765 0.195576H7.8Z" fill="url(#paint7_linear_50_3)"/>
<path d="M7.39526 6.47781C7.5035 6.47336 7.59056 6.53336 7.65644 6.61114C7.67526 6.63558 7.80467 6.79558 7.79526 6.82447C7.87997 6.53558 7.67291 6.41781 7.39526 6.47781Z" fill="url(#paint8_linear_50_3)"/>
<path d="M0.117661 3.23335C0.155309 3.01558 0.178838 2.89335 0.324721 2.72002C0.463544 2.55335 0.642367 2.40224 0.849426 2.31335C0.654132 2.32447 0.440015 2.38224 0.29178 2.51113C0.143544 2.6378 0.14825 2.8178 0.117661 2.99558C0.0635438 3.30891 0.0517795 3.62002 0.0564854 3.92891C0.0611913 3.6978 0.0776615 3.46669 0.117661 3.23335Z" fill="url(#paint9_linear_50_3)"/>
</g>
<path style="mix-blend-mode:multiply" opacity="0.23" d="M7.51768 1.52669C7.66356 1.50891 7.8518 1.42224 7.98357 1.38224C8.06592 1.12224 8.0471 0.364467 7.80004 0.195578C7.6918 0.122245 7.32709 0.100023 7.19768 0.0822449C7.51533 0.528912 7.53415 1.10002 7.28945 1.65113C6.64239 3.09336 5.03062 4.1978 3.49651 4.66669C2.57886 4.94669 1.48709 5.00669 0.614154 4.5578C0.407095 4.45113 0.223565 4.31558 0.065918 4.15558C0.0823886 4.53558 0.117683 4.91558 0.138859 5.2978C0.157683 5.66891 0.200036 6.04891 0.301212 6.40891C0.383565 6.70669 0.447094 7.02002 0.750624 7.17336C1.01415 7.30669 1.34121 7.32002 1.63062 7.3578C2.49651 7.47336 7.19768 7.44669 7.4518 7.2978C7.64945 7.18225 7.96004 6.70669 7.74827 6.50891C7.67062 6.43558 7.48709 6.50447 7.37651 6.45558C7.82592 6.41558 7.93415 6.16447 7.9318 5.80891C7.92945 4.63113 8.01886 3.69113 8.03062 2.5178C8.03533 2.06447 8.00474 1.70447 7.52004 1.52447L7.51768 1.52669ZM3.96004 6.78224C3.78592 7.15558 2.83533 7.22224 2.79533 6.72891C2.75768 6.26891 3.80474 6.12002 3.96474 6.53558C4.00004 6.62891 3.99533 6.71113 3.96239 6.78224H3.96004ZM7.13886 5.69336C7.08474 5.87558 6.88474 6.05558 6.7318 6.16669C7.62592 6.95558 3.9671 7.4778 4.54357 6.45336C4.75533 6.07558 5.36004 5.71336 5.75298 5.51558C6.06121 5.36002 6.95768 4.98002 7.14121 5.5178C7.16004 5.57558 7.15768 5.63336 7.14121 5.69336H7.13886Z" fill="url(#paint10_linear_50_3)"/>
<path style="mix-blend-mode:multiply" opacity="0.23" d="M6.69879 0.871124C6.42349 0.655568 6.05408 0.804457 5.89879 1.07112C5.78349 1.26668 5.7482 1.49779 5.76231 1.7289C5.7129 1.99335 5.72231 2.26668 5.79761 2.46223C5.82349 2.53112 5.90349 2.56668 5.97408 2.57779C6.34349 2.63335 6.6682 2.08668 6.78349 1.82001C6.90584 1.53779 6.98349 1.09335 6.70114 0.871124H6.69879Z" fill="url(#paint11_linear_50_3)"/>
<path style="mix-blend-mode:multiply" opacity="0.23" d="M5.60237 2.83557C5.56708 2.7978 5.52002 2.78446 5.46826 2.78891C5.39061 2.79557 5.33885 2.8378 5.28943 2.89335C5.25414 2.93335 5.22355 2.98446 5.21414 3.03557C5.21179 3.05335 5.21414 3.07113 5.2212 3.08668C5.21179 3.13335 5.2612 3.18446 5.30826 3.18668C5.44473 3.19335 5.59296 3.09557 5.6259 2.96891C5.63767 2.92002 5.63767 2.87335 5.60002 2.83335L5.60237 2.83557Z" fill="url(#paint12_linear_50_3)"/>
</g>
<defs>
<linearGradient id="paint0_linear_50_3" x1="4.62824" y1="7.3178" x2="3.65492" y2="-0.989137" gradientUnits="userSpaceOnUse">
<stop stop-color="#B44D2F"/>
<stop offset="0.18" stop-color="#C15B28"/>
<stop offset="0.72" stop-color="#E68219"/>
<stop offset="1" stop-color="#F59113"/>
</linearGradient>
<linearGradient id="paint1_linear_50_3" x1="5.94122" y1="7.92446" x2="4.21907" y2="0.872274" gradientUnits="userSpaceOnUse">
<stop stop-color="#B44320"/>
<stop offset="1" stop-color="#FF9215"/>
</linearGradient>
<linearGradient id="paint2_linear_50_3" x1="5.30094" y1="8.14667" x2="3.56403" y2="1.02303" gradientUnits="userSpaceOnUse">
<stop stop-color="#B44320"/>
<stop offset="1" stop-color="#FF9215"/>
</linearGradient>
<linearGradient id="paint3_linear_50_3" x1="4.70585" y1="8.2267" x2="2.98585" y2="1.17241" gradientUnits="userSpaceOnUse">
<stop stop-color="#B44320"/>
<stop offset="1" stop-color="#FF9215"/>
</linearGradient>
<linearGradient id="paint4_linear_50_3" x1="5.00942" y1="8.46891" x2="3.16685" y2="0.913452" gradientUnits="userSpaceOnUse">
<stop stop-color="#B44320"/>
<stop offset="1" stop-color="#FF9215"/>
</linearGradient>
<linearGradient id="paint5_linear_50_3" x1="7.76708" y1="7.48003" x2="6.04707" y2="0.425744" gradientUnits="userSpaceOnUse">
<stop stop-color="#B44320"/>
<stop offset="1" stop-color="#FF9215"/>
</linearGradient>
<linearGradient id="paint6_linear_50_3" x1="7.80005" y1="8.93113" x2="7.80005" y2="1.58447" gradientUnits="userSpaceOnUse">
<stop stop-color="#B44D2F"/>
<stop offset="0.18" stop-color="#C15B28"/>
<stop offset="0.72" stop-color="#E68219"/>
<stop offset="1" stop-color="#F59113"/>
</linearGradient>
<linearGradient id="paint7_linear_50_3" x1="4.06823" y1="8.93113" x2="4.06823" y2="1.58447" gradientUnits="userSpaceOnUse">
<stop stop-color="#B44D2F"/>
<stop offset="0.18" stop-color="#C15B28"/>
<stop offset="0.72" stop-color="#E68219"/>
<stop offset="1" stop-color="#F59113"/>
</linearGradient>
<linearGradient id="paint8_linear_50_3" x1="7.60467" y1="8.93114" x2="7.60467" y2="1.58447" gradientUnits="userSpaceOnUse">
<stop stop-color="#B44D2F"/>
<stop offset="0.18" stop-color="#C15B28"/>
<stop offset="0.72" stop-color="#E68219"/>
<stop offset="1" stop-color="#F59113"/>
</linearGradient>
<linearGradient id="paint9_linear_50_3" x1="0.451779" y1="8.93113" x2="0.451779" y2="1.58447" gradientUnits="userSpaceOnUse">
<stop stop-color="#B44D2F"/>
<stop offset="0.18" stop-color="#C15B28"/>
<stop offset="0.72" stop-color="#E68219"/>
<stop offset="1" stop-color="#F59113"/>
</linearGradient>
<linearGradient id="paint10_linear_50_3" x1="5.39298" y1="8.0578" x2="3.67296" y2="1.00573" gradientUnits="userSpaceOnUse">
<stop stop-color="#B44320"/>
<stop offset="1" stop-color="#FF9215"/>
</linearGradient>
<linearGradient id="paint11_linear_50_3" x1="6.51526" y1="2.47335" x2="6.11165" y2="0.824357" gradientUnits="userSpaceOnUse">
<stop stop-color="#B44320"/>
<stop offset="1" stop-color="#FF9215"/>
</linearGradient>
<linearGradient id="paint12_linear_50_3" x1="5.47061" y1="3.16002" x2="5.38397" y2="2.8065" gradientUnits="userSpaceOnUse">
<stop stop-color="#B44320"/>
<stop offset="1" stop-color="#FF9215"/>
</linearGradient>
<clipPath id="clip0_50_3">
<rect width="8" height="8" fill="white"/>
</clipPath>
</defs>
</svg>
