<svg width="8" height="8" viewBox="0 0 8 8" fill="none" xmlns="http://www.w3.org/2000/svg">
<g clip-path="url(#clip0_50_2)">
<path d="M7.74358 0.831105C7.63534 0.757771 7.26358 0.733327 7.13652 0.717771C5.95063 0.559993 1.97181 0.679993 1.66828 0.68666C1.01652 0.702216 0.327105 0.688882 0.110634 1.35777C-0.155248 2.17999 0.221223 2.55555 0.95534 2.87333C0.927105 2.85999 0.432987 3.03777 0.374164 3.06666C0.117693 3.19777 0.105929 3.36666 0.0612227 3.6311C-0.070542 4.40444 0.0400462 5.15999 0.0776933 5.93555C0.0965168 6.30666 0.13887 6.68666 0.240046 7.04888C0.322399 7.34666 0.385929 7.65777 0.689458 7.81333C0.952987 7.94666 1.28005 7.95999 1.56946 7.99777C2.43534 8.11333 7.13652 8.08666 7.39063 7.93777C8.12005 7.50888 7.86593 6.10444 7.8871 5.43777C7.91299 4.67555 7.96005 3.91555 7.96946 3.15333C7.97181 2.85777 7.94358 2.56666 7.78358 2.30666C7.76005 2.26888 7.32005 1.74666 7.43534 1.71555C7.70122 1.64444 7.91063 1.68444 7.96005 1.40444C7.98828 1.24666 7.88475 0.928882 7.74358 0.831105Z" fill="#7A2900"/>
<path d="M7.74358 0.195535C7.63534 0.122202 7.26358 0.0977573 7.13652 0.0822017C5.95063 -0.0777983 1.97181 0.0444239 1.67063 0.0510906C1.01887 0.0666461 0.329458 0.0533128 0.112987 0.722202C0.0047521 1.05776 0.0659286 1.49109 0.105929 1.8422C0.162399 2.32887 0.487105 2.32887 0.943576 2.29554C0.760046 2.30887 0.402399 2.37554 0.256517 2.48442C0.0823992 2.61109 0.0941639 2.80442 0.0612227 2.99553C-0.070542 3.76887 0.0400462 4.52442 0.0776933 5.29998C0.0965168 5.67109 0.13887 6.05109 0.240046 6.41331C0.322399 6.71109 0.385929 7.0222 0.689458 7.17776C0.952987 7.31109 1.28005 7.32442 1.56946 7.3622C2.43534 7.47776 7.13652 7.45109 7.39063 7.3022C7.58828 7.18665 7.89887 6.71109 7.6871 6.51331C7.60946 6.43998 7.42593 6.50887 7.31534 6.45998C7.76475 6.41998 7.87299 6.16887 7.87063 5.81331C7.86828 4.63554 7.95769 3.69554 7.96946 2.5222C7.97416 2.06887 7.94358 1.70887 7.45887 1.52887C7.60475 1.51109 7.79299 1.42442 7.92475 1.38442C8.0071 1.1222 7.98828 0.366646 7.74122 0.197757L7.74358 0.195535Z" fill="url(#paint0_linear_50_2)"/>
<g opacity="0.5">
<path style="mix-blend-mode:multiply" opacity="0.33" d="M7.74353 0.195539C7.63529 0.122206 7.26353 0.0977617 7.13647 0.0822061C6.58588 0.00665058 5.42588 -0.00668275 4.31529 -1.6086e-05C2.91529 0.319984 1.52235 0.677762 0.0847065 0.826651C0.0376477 1.03998 0.0470594 1.28443 0.0705888 1.51554C0.712942 1.44221 1.36 1.47776 2.00941 1.49998C2.79294 1.52665 3.56 1.4311 4.33647 1.33109C5.54588 1.17332 6.75529 1.0111 7.97412 1.01998C7.97647 0.702206 7.91529 0.313317 7.74588 0.197762L7.74353 0.195539Z" fill="url(#paint1_linear_50_2)"/>
<path style="mix-blend-mode:multiply" opacity="0.33" d="M4.73886 4.05997C5.80945 4.03553 6.87063 3.86664 7.9318 3.79997C7.94357 3.53997 7.95298 3.27775 7.96239 3.00442C6.93416 3.07997 5.90121 3.10442 4.87533 2.9933C4.12239 2.91108 3.38592 2.76441 2.62592 2.72219C1.87063 2.67997 1.11533 2.70219 0.36239 2.75108C0.261214 2.75775 0.176508 2.73553 0.112979 2.69553C0.0847432 2.78886 0.0800373 2.8933 0.0612138 2.99553C3.73476e-05 3.35108 -0.00702147 3.70442 0.00474323 4.05775C1.58357 4.09997 3.16004 4.09553 4.73886 4.05775V4.05997Z" fill="url(#paint2_linear_50_2)"/>
<path style="mix-blend-mode:multiply" opacity="0.33" d="M0.251774 6.44666C0.823539 6.57111 1.38824 6.72666 1.96472 6.83333C2.68942 6.96666 3.4306 6.95778 4.16472 6.98444C5.26824 7.02666 6.37177 7.09333 7.46354 7.25111C7.65413 7.08444 7.88001 6.68889 7.69177 6.51333C7.61413 6.44 7.4306 6.50889 7.32001 6.46C7.76942 6.42 7.87766 6.16889 7.8753 5.81333C7.8753 5.77778 7.8753 5.74222 7.8753 5.70667C6.58354 6.05111 5.28236 6.35111 3.92942 6.40889C2.91295 6.45111 1.89883 6.38889 0.894127 6.25111C0.654127 6.21778 0.41648 6.17555 0.178833 6.13111C0.197657 6.22666 0.218833 6.32222 0.244715 6.41778C0.247068 6.42889 0.251774 6.44 0.254127 6.45333L0.251774 6.44666Z" fill="url(#paint3_linear_50_2)"/>
<path style="mix-blend-mode:multiply" opacity="0.33" d="M0.785964 5.40442C1.78596 5.5622 2.80243 5.62442 3.8142 5.58886C5.21185 5.53998 6.55538 5.21331 7.88949 4.84886C7.89185 4.76442 7.8942 4.6822 7.89891 4.59998C6.80479 4.66886 5.70596 4.8622 4.62126 4.88886C3.09891 4.92664 1.57655 4.92886 0.0541992 4.88886C0.063611 5.01998 0.0730227 5.15109 0.0800816 5.2822C0.315376 5.32664 0.55067 5.37109 0.788317 5.40886L0.785964 5.40442Z" fill="url(#paint4_linear_50_2)"/>
<path style="mix-blend-mode:multiply" opacity="0.33" d="M4.87539 2.16889C5.89892 2.28222 6.93186 2.25555 7.9601 2.18C7.94598 2.05333 7.91774 1.94 7.86127 1.84C6.74833 1.84 5.6401 1.98444 4.53186 2.12666C4.6448 2.14222 4.7601 2.15555 4.87539 2.16889Z" fill="url(#paint5_linear_50_2)"/>
</g>
<g style="mix-blend-mode:screen" opacity="0.71">
<path d="M7.73412 1.6911C7.67059 1.63555 7.59529 1.58888 7.51294 1.53333C7.56 1.73999 7.73412 1.87777 7.8447 2.0511C7.94353 2.20666 7.97176 2.40444 7.96941 2.58221C7.96941 2.55999 7.96941 2.53999 7.96941 2.51999C7.96941 2.32666 7.97412 2.11999 7.90353 1.93555C7.86117 1.82666 7.8047 1.75333 7.73176 1.6911H7.73412Z" fill="url(#paint6_linear_50_2)"/>
<path d="M7.74357 0.195535C7.63533 0.122202 7.26357 0.0977573 7.13651 0.0822017C5.95063 -0.0777983 1.9718 0.0444239 1.67063 0.0510906C1.01886 0.0666461 0.329451 0.0533128 0.112981 0.722202C0.05651 0.897757 0.0470983 1.09998 0.0541571 1.3022C0.0612159 1.1822 0.0776865 1.06665 0.112981 0.959979C0.329451 0.291091 1.01651 0.302202 1.67063 0.288868C1.68004 0.288868 1.69651 0.288868 1.71533 0.288868C1.98357 0.108868 2.30827 0.095535 2.61416 0.226646C2.63769 0.237757 2.66122 0.251091 2.68004 0.266646C2.75298 0.266646 2.83063 0.264424 2.91063 0.262202C3.11533 0.142202 3.36475 0.117757 3.59298 0.186646C3.64239 0.202202 3.6871 0.222202 3.7271 0.248868C4.0918 0.244424 4.47533 0.239979 4.8518 0.242202C4.87063 0.235535 4.88945 0.228868 4.91063 0.224424C5.14827 0.173313 5.3718 0.173313 5.60945 0.224424C5.63533 0.231091 5.66122 0.237757 5.68474 0.248868C5.79769 0.248868 5.90592 0.253313 6.01416 0.255535C6.15533 0.233313 6.29886 0.242202 6.43769 0.271091C6.71769 0.284424 6.96004 0.299979 7.13651 0.324424C7.26357 0.342202 7.63533 0.364424 7.74357 0.437757C7.8871 0.535535 7.95298 0.833313 7.96945 1.11776C7.98827 0.786646 7.92945 0.326646 7.74357 0.199979V0.195535Z" fill="url(#paint7_linear_50_2)"/>
<path d="M7.33887 6.47774C7.4471 6.4733 7.53416 6.5333 7.60004 6.61108C7.61887 6.63552 7.74828 6.79552 7.73887 6.82441C7.82357 6.53552 7.61651 6.41774 7.33887 6.47774Z" fill="url(#paint8_linear_50_2)"/>
<path d="M0.0635198 3.23332C0.101167 3.01555 0.124696 2.89332 0.270579 2.71999C0.409402 2.55332 0.588226 2.40221 0.795285 2.31332C0.59999 2.32444 0.385873 2.38221 0.237637 2.5111C0.0894021 2.63777 0.094108 2.81777 0.0635198 2.99555C0.0094021 3.30888 -0.00471555 3.61999 -9.6655e-06 3.92888C0.00469622 3.69777 0.0211668 3.46666 0.0611668 3.23332H0.0635198Z" fill="url(#paint9_linear_50_2)"/>
</g>
<g style="mix-blend-mode:screen" opacity="0.32">
<path d="M6.84472 5.60666C6.83766 5.94444 6.78354 6.2911 6.50825 6.45555C6.32001 6.56888 2.8353 6.58888 2.19295 6.49999C1.97883 6.4711 1.73648 6.46221 1.54119 6.35999C1.31531 6.24221 1.26825 6.00666 1.20707 5.78221C1.14589 5.55777 1.11295 5.31999 1.09648 5.08666C1.09178 5.08666 1.08942 5.08444 1.08472 5.08221C1.08472 5.10221 1.08472 5.12444 1.08472 5.14444C1.09883 5.42444 1.12942 5.71333 1.20472 5.98444C1.26589 6.20888 1.31295 6.44444 1.53883 6.56221C1.73413 6.66444 1.97648 6.67333 2.1906 6.70221C2.83295 6.78888 6.31766 6.76888 6.50589 6.65777C6.83766 6.45999 6.84942 5.99777 6.84236 5.60666H6.84472Z" fill="#FFAE2D"/>
</g>
<g style="mix-blend-mode:multiply" opacity="0.32">
<path d="M6.62597 1.07333C6.36715 0.893331 3.19774 0.879998 2.5695 0.913331C2.17421 0.935553 1.70832 0.935553 1.37891 1.18222C0.910677 1.53333 0.983618 2.25111 1.01891 2.75111C1.07068 3.48 1.04715 4.21111 1.08244 4.94222C1.09656 5.22222 1.12715 5.51111 1.20244 5.78222C1.26362 6.00666 1.31068 6.24222 1.53656 6.36C1.73185 6.46222 1.97421 6.47111 2.18832 6.5C2.83068 6.58666 6.31538 6.56666 6.50362 6.45555C6.93891 6.19555 6.82127 5.48444 6.84009 5.07111C6.87303 4.30444 6.8495 3.53333 6.89891 2.76444C6.92715 2.30889 7.08009 1.39333 6.62362 1.07555L6.62597 1.07333Z" fill="#864300"/>
</g>
<g style="mix-blend-mode:multiply" opacity="0.32">
<path d="M6.90128 2.76222C6.92952 2.30666 7.08246 1.39111 6.62599 1.07333C6.36716 0.893331 3.19775 0.879998 2.56952 0.913331C2.17422 0.935553 1.70834 0.935553 1.37893 1.18222C0.891871 1.54666 1.10128 2.22 1.06599 2.71555C1.01658 3.44222 1.04481 4.21111 1.08246 4.94222C1.09658 5.22222 1.12717 5.51111 1.20246 5.78222C1.26364 6.00666 1.31069 6.24222 1.53658 6.36C1.73187 6.46222 1.97422 6.47111 2.18834 6.5C2.83069 6.58666 6.3154 6.56666 6.50364 6.45555C6.93893 6.19555 6.82128 5.48444 6.84011 5.07111C6.87305 4.30444 6.84952 3.53333 6.89893 2.76444L6.90128 2.76222ZM6.12717 3.1C6.14599 3.10444 6.16481 3.10889 6.18599 3.11333C6.18128 3.3 6.31069 3.63333 6.19069 3.78222C5.99775 4.02444 5.30834 4.03555 5.02599 4.18889C5.22599 4.15555 5.96716 4.01333 6.09187 4.13778C6.22834 4.27555 6.10364 4.74222 6.10364 4.91778C6.10364 5.19111 6.14599 5.58 5.85893 5.75111C5.66599 5.86666 5.21187 5.80889 4.9954 5.81333C4.66128 5.82 4.14599 5.92444 3.83775 5.78889C3.85658 5.75555 3.86599 5.66666 3.88716 5.63555C3.53422 5.74 1.78599 6.08889 2.08246 5.31333C2.37187 5.21555 2.7154 5.17111 3.01187 5.14C2.56246 4.96 1.86834 5.31333 1.8354 4.62889C1.81187 4.13555 1.84011 3.64 1.80952 3.14666C1.79775 2.95778 1.77893 2.54666 2.12716 2.60666C1.91069 2.56889 1.79305 2.57555 1.79775 2.34444C1.80011 2.16222 1.90599 1.94889 2.05422 1.83778C2.29893 1.65555 2.64246 1.65555 2.93658 1.64C3.40246 1.61555 5.7554 1.62444 5.94599 1.75778C6.19775 1.93333 6.33422 2.69111 6.09422 2.87778C5.88481 3.04 5.36952 2.89778 5.12246 2.89111C5.42834 3.01333 5.7954 3.02889 6.12717 3.1Z" fill="#864300"/>
</g>
<g style="mix-blend-mode:multiply" opacity="0.76">
<path d="M6.90122 2.76222C6.92945 2.30666 7.08239 1.39111 6.62592 1.07333C6.3671 0.893331 3.19769 0.879998 2.56945 0.913331C2.17416 0.935553 1.70828 0.935553 1.37886 1.18222C0.882393 1.55333 1.01416 2.41555 1.0471 2.94444C1.08945 3.60889 1.0471 4.27778 1.08239 4.94222C1.09651 5.22222 1.1271 5.51111 1.20239 5.78222C1.26357 6.00666 1.31063 6.24222 1.53651 6.36C1.7318 6.46222 1.97416 6.47111 2.18828 6.5C2.83063 6.58666 6.31533 6.56666 6.50357 6.45555C6.93886 6.19555 6.82122 5.48444 6.84004 5.07111C6.87298 4.30444 6.84945 3.53333 6.89886 2.76444L6.90122 2.76222ZM6.58357 2.86666C6.54122 3.55111 6.56239 4.24 6.53181 4.92222C6.51533 5.29111 6.62122 5.92444 6.23298 6.15555C6.06592 6.25555 2.96004 6.27333 2.38592 6.19555C2.19533 6.16889 1.97886 6.16 1.80475 6.07111C1.60475 5.96666 1.56239 5.75555 1.50828 5.55555C1.44239 5.31333 1.41416 5.05555 1.40239 4.80666C1.37416 4.21333 1.40945 3.61778 1.3718 3.02666C1.35769 2.8 1.33416 2.30666 1.75533 2.37778C1.55298 2.34444 1.42122 2.33778 1.37651 2.20666C1.35769 2.20666 1.34357 2.21111 1.3271 2.21333C1.3271 2.20444 1.3271 2.19555 1.32475 2.18889C1.34122 2.19111 1.35769 2.19333 1.37416 2.19778C1.36475 2.16222 1.36004 2.12 1.36004 2.06666C1.36475 1.84889 1.48945 1.59111 1.66828 1.45778C1.96239 1.23778 2.37651 1.23778 2.72945 1.22C3.2871 1.18889 6.11298 1.20222 6.34357 1.36222C6.75063 1.64666 6.61416 2.46222 6.58828 2.86889L6.58357 2.86666Z" fill="#864300"/>
</g>
<path d="M6.33884 1.35998C6.10825 1.19998 3.28002 1.18664 2.72237 1.21775C2.36943 1.23775 1.95531 1.23775 1.6612 1.45775C1.24472 1.77109 1.30825 2.41109 1.33884 2.85775C1.38355 3.50664 1.36472 4.15998 1.39531 4.81109C1.40708 5.05998 1.43531 5.31775 1.5012 5.55998C1.55531 5.75998 1.59767 5.97109 1.79767 6.07553C1.97178 6.16664 2.18825 6.17331 2.37884 6.19998C2.95296 6.27775 6.05884 6.25998 6.22825 6.15998C6.61649 5.92886 6.51296 5.29553 6.52708 4.92442C6.55531 4.23998 6.53649 3.55109 6.57884 2.86664C6.60472 2.45998 6.7412 1.6422 6.33414 1.35998H6.33884Z" fill="url(#paint10_radial_50_2)"/>
<path style="mix-blend-mode:screen" opacity="0.52" d="M3.90588 2.98886C4.46588 2.65109 4.95058 2.21998 5.49176 1.85998C5.76941 1.67553 6.06588 1.51553 6.37411 1.38886C6.36235 1.37775 6.35058 1.36886 6.33646 1.35998C6.10588 1.19998 3.27764 1.18664 2.71999 1.21775C2.36705 1.23775 1.95293 1.23775 1.65882 1.45775C1.27058 1.74886 1.29882 2.32664 1.33176 2.76442C1.68705 3.83109 3.11529 3.46664 3.90588 2.99109V2.98886Z" fill="url(#paint11_radial_50_2)"/>
<path style="mix-blend-mode:multiply" opacity="0.46" d="M6.58356 2.86665C6.58592 2.8111 6.59297 2.74665 6.59768 2.67776C6.12239 2.77332 5.66827 3.0111 5.26356 3.2911C4.60239 3.74665 4.20709 4.4511 3.56239 4.92221C2.97415 5.3511 2.20709 5.44221 1.5318 5.13777C1.4918 5.11999 1.45415 5.10221 1.4165 5.07999C1.43297 5.24221 1.45886 5.40443 1.50121 5.55999C1.55533 5.75999 1.59768 5.9711 1.79768 6.07554C1.9718 6.16665 2.18827 6.17332 2.37886 6.19999C2.95297 6.27776 6.05886 6.25999 6.22827 6.15999C6.6165 5.92888 6.51297 5.29554 6.52709 4.92443C6.55533 4.23999 6.5365 3.5511 6.57886 2.86665H6.58356Z" fill="url(#paint12_radial_50_2)"/>
<path style="mix-blend-mode:multiply" opacity="0.6" d="M6.53178 4.92444C6.54355 4.65333 6.54825 4.38222 6.5506 4.10889C6.49884 4.46444 6.42355 4.81555 6.20002 5.12222C5.74119 5.75333 4.89649 5.79555 4.16002 5.82C3.44237 5.84222 2.56472 5.96666 1.96707 5.49555C1.61649 5.22 1.47531 4.82889 1.38354 4.42444C1.3859 4.55333 1.3906 4.68222 1.39766 4.80889C1.40943 5.05778 1.43766 5.31555 1.50354 5.55778C1.55766 5.75778 1.60002 5.96889 1.80002 6.07333C1.97413 6.16444 2.1906 6.17111 2.38119 6.19778C2.95531 6.27555 6.06119 6.25778 6.2306 6.15778C6.61884 5.92666 6.51531 5.29333 6.52943 4.92222L6.53178 4.92444Z" fill="url(#paint13_radial_50_2)"/>
<path style="mix-blend-mode:screen" d="M6.58355 2.86664C6.60943 2.45998 6.7459 1.6422 6.33884 1.35998C6.10825 1.19998 3.28002 1.18664 2.72237 1.21775C2.36943 1.23775 1.95531 1.23775 1.6612 1.45775C1.24472 1.77109 1.30825 2.41109 1.33884 2.85775C1.38355 3.50664 1.36472 4.15998 1.39531 4.81109C1.40708 5.05998 1.43531 5.31775 1.5012 5.55998C1.52237 5.63998 1.54355 5.71998 1.57178 5.79553C1.50825 5.55331 1.48002 5.29553 1.46825 5.04664C1.43767 4.39553 1.45649 3.7422 1.41178 3.09331C1.3812 2.64664 1.31767 2.00664 1.72472 1.69331C2.00943 1.47331 2.41178 1.47331 2.75531 1.45331C3.29884 1.4222 6.04472 1.43553 6.27061 1.59553C6.6659 1.87998 6.53178 2.69775 6.50825 3.1022C6.4659 3.78664 6.48708 4.47553 6.45884 5.15998C6.44943 5.37109 6.48002 5.67109 6.43531 5.93109C6.57649 5.63775 6.52002 5.20442 6.53178 4.92442C6.56002 4.23998 6.5412 3.55109 6.58355 2.86664Z" fill="url(#paint14_radial_50_2)"/>
<path style="mix-blend-mode:multiply" opacity="0.23" d="M1.03302 5.55553C0.908317 5.31108 0.609493 5.18886 0.421258 5.45775C0.28714 5.64886 0.28714 5.92886 0.336552 6.17553C0.338905 6.43775 0.40714 6.72219 0.651846 6.87997C0.915375 7.05108 1.17655 6.88441 1.22596 6.61108C1.28714 6.26886 1.19302 5.86219 1.03538 5.55553H1.03302Z" fill="url(#paint15_linear_50_2)"/>
<path style="mix-blend-mode:multiply" opacity="0.23" d="M2.22359 6.98887C2.17889 6.68887 1.82124 6.57331 1.55065 6.68665C1.46124 6.72442 1.42595 6.81554 1.433 6.89998C1.43771 6.93998 1.44948 6.97554 1.47065 7.00665C1.47065 7.01554 1.47536 7.02665 1.48006 7.03554C1.53653 7.15109 1.66124 7.21331 1.79065 7.23109C1.92948 7.24887 2.03065 7.2022 2.14359 7.13554C2.20006 7.1022 2.233 7.05331 2.22359 6.98887Z" fill="url(#paint16_linear_50_2)"/>
<path style="mix-blend-mode:screen" opacity="0.64" d="M1.71767 5.58221C1.85885 5.31332 2.07767 5.08665 2.30591 4.87998C2.70826 4.52221 3.16944 4.22443 3.5412 3.83776C3.89885 3.46665 4.17414 3.03554 4.47061 2.62221C4.76002 2.21776 5.06591 1.80665 5.47532 1.49998C5.59297 1.4111 5.72003 1.33554 5.85179 1.27332C5.5012 1.24221 5.01179 1.22443 4.52002 1.21332C4.52002 1.30887 4.51297 1.40443 4.4965 1.49776C4.41414 1.95998 4.1812 2.39776 3.92708 2.79554C3.63767 3.24887 3.28944 3.67554 2.89414 4.04887C2.57414 4.3511 2.20238 4.65554 1.76944 4.79998C1.65179 4.83998 1.52473 4.86443 1.40002 4.85998C1.41414 5.09332 1.44238 5.33332 1.50355 5.55998C1.53179 5.66443 1.55767 5.77332 1.60473 5.86665C1.63061 5.76887 1.66826 5.67332 1.71767 5.58221Z" fill="url(#paint17_linear_50_2)"/>
</g>
<defs>
<linearGradient id="paint0_linear_50_2" x1="5.33652" y1="8.05776" x2="3.6165" y2="1.00568" gradientUnits="userSpaceOnUse">
<stop stop-color="#B44D2F"/>
<stop offset="0.18" stop-color="#C15B28"/>
<stop offset="0.72" stop-color="#E68219"/>
<stop offset="1" stop-color="#F59113"/>
</linearGradient>
<linearGradient id="paint1_linear_50_2" x1="5.88471" y1="7.92443" x2="4.16469" y2="0.872354" gradientUnits="userSpaceOnUse">
<stop stop-color="#B44320"/>
<stop offset="1" stop-color="#FF9215"/>
</linearGradient>
<linearGradient id="paint2_linear_50_2" x1="5.22827" y1="8.08442" x2="3.50826" y2="1.03234" gradientUnits="userSpaceOnUse">
<stop stop-color="#B44320"/>
<stop offset="1" stop-color="#FF9215"/>
</linearGradient>
<linearGradient id="paint3_linear_50_2" x1="4.64942" y1="8.22667" x2="2.92942" y2="1.17238" gradientUnits="userSpaceOnUse">
<stop stop-color="#B44320"/>
<stop offset="1" stop-color="#FF9215"/>
</linearGradient>
<linearGradient id="paint4_linear_50_2" x1="4.87302" y1="8.17109" x2="3.15301" y2="1.11901" gradientUnits="userSpaceOnUse">
<stop stop-color="#B44320"/>
<stop offset="1" stop-color="#FF9215"/>
</linearGradient>
<linearGradient id="paint5_linear_50_2" x1="7.71068" y1="7.48" x2="5.99068" y2="0.425713" gradientUnits="userSpaceOnUse">
<stop stop-color="#B44320"/>
<stop offset="1" stop-color="#FF9215"/>
</linearGradient>
<linearGradient id="paint6_linear_50_2" x1="7.74353" y1="8.9311" x2="7.74353" y2="1.58444" gradientUnits="userSpaceOnUse">
<stop stop-color="#B44D2F"/>
<stop offset="0.18" stop-color="#C15B28"/>
<stop offset="0.72" stop-color="#E68219"/>
<stop offset="1" stop-color="#F59113"/>
</linearGradient>
<linearGradient id="paint7_linear_50_2" x1="4.0118" y1="8.93109" x2="4.0118" y2="1.58442" gradientUnits="userSpaceOnUse">
<stop stop-color="#B44D2F"/>
<stop offset="0.18" stop-color="#C15B28"/>
<stop offset="0.72" stop-color="#E68219"/>
<stop offset="1" stop-color="#F59113"/>
</linearGradient>
<linearGradient id="paint8_linear_50_2" x1="7.54828" y1="8.93108" x2="7.54828" y2="1.58441" gradientUnits="userSpaceOnUse">
<stop stop-color="#B44D2F"/>
<stop offset="0.18" stop-color="#C15B28"/>
<stop offset="0.72" stop-color="#E68219"/>
<stop offset="1" stop-color="#F59113"/>
</linearGradient>
<linearGradient id="paint9_linear_50_2" x1="0.397637" y1="8.9311" x2="0.397637" y2="1.58444" gradientUnits="userSpaceOnUse">
<stop stop-color="#B44D2F"/>
<stop offset="0.18" stop-color="#C15B28"/>
<stop offset="0.72" stop-color="#E68219"/>
<stop offset="1" stop-color="#F59113"/>
</linearGradient>
<radialGradient id="paint10_radial_50_2" cx="0" cy="0" r="1" gradientUnits="userSpaceOnUse" gradientTransform="translate(4.2659 2.26664) scale(4.94353 4.66889)">
<stop stop-color="#FFFF3B"/>
<stop offset="0.6" stop-color="#85B918"/>
<stop offset="1" stop-color="#318900"/>
</radialGradient>
<radialGradient id="paint11_radial_50_2" cx="0" cy="0" r="1" gradientUnits="userSpaceOnUse" gradientTransform="translate(4.26588 2.26664) scale(4.94353 4.66889)">
<stop stop-color="#FFFF3B"/>
<stop offset="1" stop-color="#98D600"/>
</radialGradient>
<radialGradient id="paint12_radial_50_2" cx="0" cy="0" r="1" gradientUnits="userSpaceOnUse" gradientTransform="translate(4.26592 2.26665) scale(4.94353 4.66889)">
<stop stop-color="#FFFF3B"/>
<stop offset="1" stop-color="#98D600"/>
</radialGradient>
<radialGradient id="paint13_radial_50_2" cx="0" cy="0" r="1" gradientUnits="userSpaceOnUse" gradientTransform="translate(4.2659 2.26666) scale(4.94353 4.66889)">
<stop stop-color="#FFFF3B"/>
<stop offset="0.6" stop-color="#85B918"/>
<stop offset="1" stop-color="#318900"/>
</radialGradient>
<radialGradient id="paint14_radial_50_2" cx="0" cy="0" r="1" gradientUnits="userSpaceOnUse" gradientTransform="translate(4.2659 2.19998) scale(4.70823 4.44667)">
<stop stop-color="#FFFF3B"/>
<stop offset="1" stop-color="#BEE55D"/>
</radialGradient>
<linearGradient id="paint15_linear_50_2" x1="0.976552" y1="6.93108" x2="0.583525" y2="5.32019" gradientUnits="userSpaceOnUse">
<stop stop-color="#B44320"/>
<stop offset="1" stop-color="#FF9215"/>
</linearGradient>
<linearGradient id="paint16_linear_50_2" x1="1.9083" y1="7.23331" x2="1.76038" y2="6.6292" gradientUnits="userSpaceOnUse">
<stop stop-color="#B44320"/>
<stop offset="1" stop-color="#FF9215"/>
</linearGradient>
<linearGradient id="paint17_linear_50_2" x1="1.40002" y1="3.53998" x2="5.85179" y2="3.53998" gradientUnits="userSpaceOnUse">
<stop stop-color="#98D600"/>
<stop offset="0.54" stop-color="#FFFF3B"/>
<stop offset="1" stop-color="#98D600"/>
</linearGradient>
<clipPath id="clip0_50_2">
<rect width="8" height="8" fill="white"/>
</clipPath>
</defs>
</svg>
