<?xml version="1.0" encoding="UTF-8"?>
<svg xmlns="http://www.w3.org/2000/svg" xmlns:xlink="http://www.w3.org/1999/xlink" viewBox="0 0 47.17 48.43">
  <defs>
    <style>
      .cls-1 {
        fill: url(#_Áåçûìÿííûé_ãðàäèåíò_94);
      }

      .cls-1, .cls-2, .cls-3, .cls-4, .cls-5 {
        mix-blend-mode: multiply;
      }

      .cls-1, .cls-3 {
        opacity: .46;
      }

      .cls-6 {
        fill: url(#_Áåçûìÿííûé_ãðàäèåíò_27-2);
      }

      .cls-2 {
        opacity: .59;
      }

      .cls-2, .cls-5 {
        fill: #864300;
      }

      .cls-7 {
        fill: url(#_Áåçûìÿííûé_ãðàäèåíò_94-3);
      }

      .cls-7, .cls-8, .cls-9, .cls-10, .cls-11 {
        mix-blend-mode: screen;
      }

      .cls-7, .cls-10, .cls-11 {
        opacity: .52;
      }

      .cls-8 {
        opacity: .55;
      }

      .cls-9 {
        opacity: .44;
      }

      .cls-12 {
        isolation: isolate;
      }

      .cls-3 {
        fill: url(#_Áåçûìÿííûé_ãðàäèåíò_94-2);
      }

      .cls-10 {
        fill: url(#_Áåçûìÿííûé_ãðàäèåíò_94-4);
      }

      .cls-4 {
        opacity: .14;
      }

      .cls-4, .cls-13 {
        fill: #7a2900;
      }

      .cls-14 {
        fill: url(#_Áåçûìÿííûé_ãðàäèåíò_27);
      }

      .cls-15 {
        fill: url(#_Áåçûìÿííûé_ãðàäèåíò_27-3);
      }

      .cls-11 {
        fill: url(#_Áåçûìÿííûé_ãðàäèåíò_94-5);
      }

      .cls-16 {
        fill: url(#_Áåçûìÿííûé_ãðàäèåíò_27-4);
      }

      .cls-5 {
        opacity: .61;
      }

      .cls-17 {
        fill: url(#_Áåçûìÿííûé_ãðàäèåíò_376);
      }
    </style>
    <linearGradient id="_Áåçûìÿííûé_ãðàäèåíò_27" data-name="Áåçûìÿííûé ãðàäèåíò 27" x1="28.98" y1="47.09" x2="21.89" y2="8.69" gradientUnits="userSpaceOnUse">
      <stop offset="0" stop-color="#b44320"/>
      <stop offset="1" stop-color="#ff9215"/>
    </linearGradient>
    <linearGradient id="_Áåçûìÿííûé_ãðàäèåíò_27-2" data-name="Áåçûìÿííûé ãðàäèåíò 27" x1="24.64" y1="23.64" x2="21.12" y2="4.59" xlink:href="#_Áåçûìÿííûé_ãðàäèåíò_27"/>
    <linearGradient id="_Áåçûìÿííûé_ãðàäèåíò_27-3" data-name="Áåçûìÿííûé ãðàäèåíò 27" x1="11.54" y1="42.49" x2="9.67" y2="32.37" xlink:href="#_Áåçûìÿííûé_ãðàäèåíò_27"/>
    <linearGradient id="_Áåçûìÿííûé_ãðàäèåíò_27-4" data-name="Áåçûìÿííûé ãðàäèåíò 27" x1="24.52" y1="57.99" x2="23.76" y2="30.33" xlink:href="#_Áåçûìÿííûé_ãðàäèåíò_27"/>
    <radialGradient id="_Áåçûìÿííûé_ãðàäèåíò_376" data-name="Áåçûìÿííûé ãðàäèåíò 376" cx="23.25" cy="18.69" fx="23.25" fy="18.69" r="16.07" gradientUnits="userSpaceOnUse">
      <stop offset="0" stop-color="#ffff3b"/>
      <stop offset=".6" stop-color="#85b918"/>
      <stop offset="1" stop-color="#318900"/>
    </radialGradient>
    <radialGradient id="_Áåçûìÿííûé_ãðàäèåíò_94" data-name="Áåçûìÿííûé ãðàäèåíò 94" cx="23.25" cy="18.69" fx="23.25" fy="18.69" r="16.07" gradientUnits="userSpaceOnUse">
      <stop offset="0" stop-color="#ffff3b"/>
      <stop offset="1" stop-color="#98d600"/>
    </radialGradient>
    <radialGradient id="_Áåçûìÿííûé_ãðàäèåíò_94-2" data-name="Áåçûìÿííûé ãðàäèåíò 94" cx="23.25" cy="18.69" fx="23.25" fy="18.69" r="16.07" xlink:href="#_Áåçûìÿííûé_ãðàäèåíò_94"/>
    <radialGradient id="_Áåçûìÿííûé_ãðàäèåíò_94-3" data-name="Áåçûìÿííûé ãðàäèåíò 94" cx="25.58" cy="19.76" fx="25.58" fy="19.76" r="21.57" xlink:href="#_Áåçûìÿííûé_ãðàäèåíò_94"/>
    <radialGradient id="_Áåçûìÿííûé_ãðàäèåíò_94-4" data-name="Áåçûìÿííûé ãðàäèåíò 94" cx="23.25" cy="18.69" fx="23.25" fy="18.69" r="16.07" xlink:href="#_Áåçûìÿííûé_ãðàäèåíò_94"/>
    <radialGradient id="_Áåçûìÿííûé_ãðàäèåíò_94-5" data-name="Áåçûìÿííûé ãðàäèåíò 94" cx="23.25" cy="18.69" fx="23.25" fy="18.69" r="16.07" xlink:href="#_Áåçûìÿííûé_ãðàäèåíò_94"/>
  </defs>
  <g class="cls-12">
    <g id="Layer_2">
      <g id="Layer_1-2" data-name="Layer_1">
        <g>
          <g>
            <path class="cls-13" d="M25.07,5.52l7.16,10.68,13.97.24c1.44.21,1.1,5.54.05,6.54l-9.19,10.64,2.33,12.21c.25,1.42-2.12,3.12-3.41,2.45l-12.49-5.58-12.49,5.58c-1.29.67-3.25-2.9-3-4.32l1.61-10.34L.73,22.98c-1.04-1-1.03-6.33.41-6.54l13.61-.24,7.17-10.68c.65-1.29,2.51-1.29,3.15,0Z"/>
            <path class="cls-14" d="M25.07.98l7.16,10.82,13.05,3.87c1.44.21,2.02,1.98.97,3-.73.71-1.34,1.58-2,2.34-1.06,1.25-2.15,3.26-3.79,3.66-1.28.32-2.64.3-3.92.6,1.28-.26,2.73-.04,4.03-.06-.3,0-.72.86-.88,1.08-.38.52-.8,1.01-1.22,1.5-.47.55-.93,1.09-1.4,1.64.27,2.38.54,4.75.8,7.12.16,1.43.29,2.24-1.3,2.5-.99.16-2.1-.07-3.05.22,1.31.18,2.75.02,4.04.3.99.21.88,2,.97,2.84.25,1.44-1.26,2.53-2.55,1.85l-12.49-5.65-12.49,5.65c-1.29.68-2.8-.42-2.55-1.85l1.16-12.99c.02-.21-.74-.89-.86-1.04-.48-.59-.81-1.38-1.44-1.82.38-.25,1-.05,1.38-.3-.99-.03-2.03-.2-2.68-1.02,1.36-.25,2.89-.18,4.2-.49-1.02-.3-2.14-.09-3.19-.14-1.28-.07-1.79-.45-2.54-1.42-1.17-1.5-2.38-3.21-3.75-4.54-1.04-1.02-.47-2.79.97-3l13.05-3.87L21.92.98c.65-1.31,2.51-1.31,3.15,0Z"/>
            <path class="cls-4" d="M26.52,3.17l2.97,4.48c-2.53.73-5.04,1.56-7.57,2.33-2.32.71-4.66,1.17-7.01,1.59l3.38-5.11c2.63-1.35,5.4-2.4,8.23-3.29ZM4.02,22.62c.52-.11,1.04-.22,1.56-.33,2.43-.49,4.88-.9,7.3-1.41,4.83-1.01,9.64-2.17,14.32-3.74,3.48-1.17,6.92-2.52,10.38-3.75l-5.35-1.59-1.18-1.79c-3.01.84-5.96,1.85-8.96,2.75-3.89,1.16-7.83,1.6-11.8,2.35-2.04.38-4,.9-5.91,1.72-1.29.56-2.56,1.13-3.89,1.54.07.1.14.2.24.29,1.19,1.16,2.26,2.61,3.29,3.95ZM9.61,29.43l-.12,1.37c.83-.04,1.67-.09,2.5-.14.12-.01.24-.03.36-.04.03,0,.07,0,.1-.01,3.82-.93,7.77-1.46,11.73-1.89,1-.22,2-.46,2.99-.72,4.82-1.29,9.48-3.12,14.19-4.76.53-.19,1.07-.37,1.6-.55.45-.58.87-1.18,1.29-1.67.66-.77,1.27-1.64,2-2.34.42-.41.57-.93.52-1.43-7.07,2.12-14.26,3.84-21.45,5.52-5.91,1.38-11.82,2.75-17.75,4.05.46.45.76,1.09,1.17,1.59.13.15.88.84.86,1.04ZM33.76,31.74c1.19.04,2.38.06,3.58.07l-.07-.6c-1.67.16-3.35.32-5.03.48.5.02,1.01.04,1.51.05ZM15.07,39.96c7.14-1.21,14.34-2.06,21.23-4.37.36-.12.68-.09.94.04.17-.08.34-.17.51-.25l-.1-.86c-.96,0-1.92-.01-2.88-.04-8.53-.22-17.11-.99-25.61.03l-.63,7.08c2.1-.7,4.27-1.25,6.54-1.63ZM37.57,39.58c-.11-.02-.22-.04-.33-.06-.33.16-.66.31-.99.47-1.59.75-3.16,1.52-4.75,2.26l4.49,2.03c1.29.68,2.8-.42,2.55-1.85-.1-.84.02-2.63-.97-2.84ZM38.89,27.29c.12-.15.25-.29.37-.44-.51.18-1.01.36-1.52.54.38-.03.77-.07,1.15-.1Z"/>
            <g>
              <path class="cls-4" d="M9.16,34.51l-.04.46c8.7-.91,17.48-.18,26.21.04.79.02,1.59.03,2.38.04l-.06-.53c-.96,0-1.92-.01-2.88-.04-8.53-.22-17.11-.99-25.61.03Z"/>
              <path class="cls-4" d="M7.59,26.8c.1.09.19.2.27.31,5.86-1.23,11.71-2.52,17.56-3.82,7.1-1.57,14.21-3.2,21.21-5.15.13-.29.18-.6.15-.9-7.07,2.12-14.26,3.84-21.45,5.52-5.91,1.38-11.82,2.75-17.75,4.05Z"/>
              <path class="cls-4" d="M38.89,27.29c.12-.15.25-.29.37-.44-.51.18-1.01.36-1.52.54.38-.03.77-.07,1.15-.1Z"/>
              <path class="cls-4" d="M32.25,31.68c.5.02,1.01.04,1.51.05,1.15.04,2.32.06,3.48.07.03,0,.07,0,.1,0l-.07-.59c-1.67.16-3.35.32-5.03.48Z"/>
              <path class="cls-4" d="M36.88,40.53c.35-.16.69-.31,1.04-.47.09.01.18.03.27.05-.13-.26-.33-.46-.61-.52-.11-.02-.22-.04-.33-.06-.33.16-.66.31-.99.47-1.59.75-3.16,1.52-4.75,2.26l.79.36c1.54-.68,3.06-1.38,4.6-2.08Z"/>
              <path class="cls-4" d="M26.75,3.5l-.22-.34c-2.83.89-5.6,1.94-8.23,3.29l-.53.79s.04.02.06.03l.2-.29c2.72-1.33,5.58-2.37,8.51-3.25.07-.08.14-.16.21-.24Z"/>
              <path class="cls-4" d="M3.42,17.36c2.01-.83,4.06-1.34,6.21-1.73,4.17-.74,8.31-1.18,12.4-2.34,3.14-.89,6.24-1.9,9.39-2.74l-.36-.54c-3.01.84-5.96,1.85-8.96,2.75-3.89,1.16-7.83,1.6-11.8,2.35-2.04.38-4,.9-5.91,1.72-1.29.56-2.56,1.13-3.89,1.54.03.04.06.08.09.12.96-.35,1.89-.74,2.84-1.13Z"/>
            </g>
            <path class="cls-2" d="M24.5,9.23l4.56,6.89,8.31,2.46c.92.13,1.29,1.26.62,1.91l-5.85,6.86.93,8.27c.16.92-.8,1.61-1.62,1.18l-7.95-3.6-7.95,3.6c-.82.43-1.78-.27-1.62-1.18l.74-8.27-5.66-6.86c-.66-.65-.3-1.78.62-1.91l8.31-2.46,4.56-6.89c.41-.83,1.6-.83,2.01,0Z"/>
            <path class="cls-5" d="M37.37,18.58l-8.31-2.46-4.56-6.89c-.41-.83-1.6-.83-2.01,0l-4.56,6.89-8.31,2.46c-.92.13-1.29,1.26-.62,1.91l5.66,6.86-.74,8.27c-.16.92.8,1.61,1.62,1.18l7.95-3.6,7.95,3.6c.82.43,1.78-.27,1.62-1.18l-.93-8.27,5.85-6.86c.66-.65.3-1.78-.62-1.91ZM34.72,22.3c-.98,1.15-1.96,2.3-2.94,3.45-1.5,1.76-4.02,1.17-6.02,1.95,1.18-.09,2.35.08,3.53.09.04.05.12.18.14.24-.22.03-.35.17-.52.26.64.25,1.48.29,2.05.59-.69-.37-.38,2.14-.37,2.25.1.97.22,1.93.33,2.9.12.71-.62,1.25-1.26.91l-6.16-2.79-6.16,2.79c-.64.33-1.38-.21-1.26-.91.03-.38.19-3.68.57-3.55-.12-.04-.26-.18-.4-.21.68-.44,1.6-.33,2.35-.64-.54-.13-1.5.18-1.94-.26-.49-.48.34-1.32,0-1.74-.02-.02-4.38-5.31-4.38-5.31-.51-.5-.23-1.38.48-1.48,1.37-.2,2.6-.95,3.99-1.01,1.98-.09,3.96-.3,5.92-.65-.9-.3-2.98.45-3.59-.17.2.21,1.94-2.83,2.06-3.01.53-.8,1.06-1.6,1.59-2.39.32-.64,1.24-.64,1.56,0,.44.67.88,1.33,1.32,2,.24.36.98,1.12.93,1.57-.07.64-.98.47-1.46.7.62.12,1.34.02,1.92.33-.63.51-1.63.35-2.33.72,1.22.09,2.52-.14,3.69.17.76.2,1.52.45,2.27.67,1.17.35,2.42.9,3.63,1.08.71.1,1,.98.48,1.48Z"/>
            <path class="cls-5" d="M37.37,18.58l-8.31-2.46-4.56-6.89c-.41-.83-1.6-.83-2.01,0l-4.56,6.89-8.31,2.46c-.92.13-1.29,1.26-.62,1.91l5.66,6.86-.74,8.27c-.16.92.8,1.61,1.62,1.18l7.95-3.6,7.95,3.6c.82.43,1.78-.27,1.62-1.18l-.93-8.27,5.85-6.86c.66-.65.3-1.78-.62-1.91ZM36.23,21.65l-5.14,6.02.82,7.27c.14.8-.71,1.42-1.43,1.04l-6.99-3.16-6.99,3.16c-.72.38-1.57-.23-1.43-1.04l.65-7.27-4.97-6.02c-.58-.57-.26-1.56.55-1.68l7.3-2.16,4.01-6.05c.36-.73,1.4-.73,1.76,0l4.01,6.05,7.3,2.16c.81.12,1.13,1.11.54,1.68Z"/>
            <g class="cls-9">
              <path class="cls-6" d="M1.71,17.37c2.34-.65,4.69-1.31,7.03-1.96,3.01-.84,6.3.11,9.15-1.66-.23.14-2.46-.14-2.79-.24,2.52-3.02,3.94-7.95,8.26-8.98-.64.13-1.44.19-2.05-.09.22-1.03.81-2.56,1.89-2.93,1.12-.38,4.45,5.71,5.23,6.81,1.01,1.44,2.37,2.91,3.21,4.43.72,1.31.25,1.12-.97,2.04,1.12-.09,2.73-.32,3.89-.55,1.98,1.14,4.55,1.41,6.76,2.02.88.25,5.73,1.14,4.03,3,1.24-1.18,2.37-2.88-.05-3.6,0,0-13.05-3.87-13.05-3.87L25.07.98c-.65-1.31-2.51-1.31-3.15,0l-7.17,10.82L1.71,15.67c-1.26.18-1.85,1.55-1.3,2.57.24-.44.69-.78,1.3-.87Z"/>
              <path class="cls-15" d="M9.55,30.17c-.03.3-.1,1.13-.2,2.21.02.06.03.12.05.18l.21-2.24s-.02-.09-.07-.16Z"/>
            </g>
            <g class="cls-8">
              <path class="cls-16" d="M38.24,19.24c.17.4.12.89-.24,1.25l-5.85,6.86.93,8.27c.16.92-.8,1.61-1.62,1.18l-7.95-3.6-7.95,3.6c-.82.43-1.78-.27-1.62-1.18l.74-8.27-5.66-6.86c-.36-.35-.42-.85-.24-1.25-.41.32-.21,1.31.2,1.81l5.12,6.35-.94,8.82c-.26,1.31,1.54,2.22,2.65,1.58l7.62-3.59,7.98,3.59c.86.46,2.49,0,2.31-1.31l-.92-9.09,5.15-6.32c.41-.39.67-1.57.3-1.84Z"/>
            </g>
          </g>
          <path class="cls-17" d="M24.38,10.87l4.01,6.05,7.3,2.16c.81.12,1.13,1.11.54,1.68l-5.14,6.02.82,7.27c.14.8-.71,1.42-1.43,1.04l-6.99-3.16-6.99,3.16c-.72.38-1.57-.23-1.43-1.04l.65-7.27-4.97-6.02c-.58-.57-.26-1.56.55-1.68l7.3-2.16,4.01-6.05c.36-.73,1.4-.73,1.76,0Z"/>
          <path class="cls-1" d="M35.68,19.09l-1.59-.47c-1.1,4.29-6.23,6.66-10.71,6.99-2.84.21-5.49-.55-7.78-2.25-1.71-1.26-2.84-2.96-2.74-4.73l-1.56.46c-.81.12-1.13,1.11-.55,1.68l4.97,6.02-.65,7.27c-.14.8.71,1.42,1.43,1.04l6.99-3.16,6.99,3.16c.72.38,1.56-.23,1.43-1.04l-.82-7.27,5.14-6.02c.58-.57.26-1.56-.54-1.68Z"/>
          <path class="cls-3" d="M32.33,24.23c-.6.6-1.18,1.24-1.69,1.92-.54.72-1.04,1.47-1.09,2.37-.08,1.31.6,3.8-1.71,3.46-1.62-.24-2.74-1.77-4.53-1.51-1.62.24-6.59,3.91-6.82.12-.09-1.59.25-3.3-.55-4.77-.76-1.4-2.13-2.3-3.15-3.48-.43-.5-.91-1.07-1.11-1.71-.06-.18-.16-1.6-.06-1.63,0,0-.33.1-.33.1-.81.12-1.13,1.11-.55,1.68l4.97,6.02-.65,7.27c-.14.8.71,1.42,1.43,1.04l6.99-3.16,6.99,3.16c.72.38,1.56-.23,1.43-1.04l-.82-7.27,5.14-6.02c.35-.34.37-.83.16-1.2.32.56-2.63,3.32-3.1,3.75-.32.3-.65.6-.96.92Z"/>
          <path class="cls-7" d="M21.85,21.95c2.22.03,4.48-.36,6.44-.95.57-.17,4.39-1.44,2.93-2.58-.54-.42-1.38-.42-2.01-.61-.61-.18-1.03-.48-1.47-.95-.9-.97-1.43-2.2-2.06-3.35-.5-.91-2.02-3.62-3.16-1.89-.71,1.07-1.41,2.13-2.12,3.2-.47.71-.9,1.53-1.46,2.19-.68.79-1.7.96-2.65,1.25-.42.13-1.58.37-1.69.82-.16.67,1.27,1.39,1.67,1.6,1.67.88,3.61,1.25,5.59,1.28Z"/>
          <path class="cls-10" d="M16.57,33.01c-.18-2.17.6-4.5,1.5-6.44.55-1.17,1.37-2.14,2.19-3.12,1.3-1.56,1.97-2.9,2.35-4.9.46-2.44,1.35-4.31,3.31-5.34l-1.55-2.33c-.36-.73-1.4-.73-1.76,0l-4.01,6.05-7.3,2.16c-.81.12-1.13,1.11-.55,1.68l4.97,6.02-.65,7.27c-.14.8.71,1.42,1.43,1.04l.61-.28c-.3-.49-.49-1.09-.55-1.8Z"/>
          <path class="cls-11" d="M25.92,25.39c1.3-3.19,4.15-5.66,7.36-7.02l-3.52-1.04c-.82,1.91-1.94,3.67-3.31,5.4-2.17,2.74-6.53,6.56-5.71,10.44l2.75-1.24,3.33,1.5c-1.29-2.53-2.06-5.21-.9-8.04Z"/>
        </g>
      </g>
    </g>
  </g>
</svg>