<svg width="474" height="49" viewBox="0 0 474 49" fill="none" xmlns="http://www.w3.org/2000/svg">
<g clip-path="url(#clip0_17_5010)" filter="url(#filter0_d_17_5010)">
<path d="M504.411 74.0817C504.411 73.6789 504.334 73.2607 504.232 72.8424L504.078 72.0833L504.437 71.3552C505.513 69.1398 506.025 66.5527 506 63.6867C505.948 60.8053 505.487 57.5985 505.18 55.4451C505.077 54.841 505.026 54.3452 504.975 54.0199C504.821 52.2383 504.257 50.5497 503.284 49.0006L502.822 48.2415L502.951 46.9402C506.025 12.2231 496.775 8.27274 488.934 6.18135C482.836 4.55472 466.719 -0.0153503 360.252 -0.0153503C220.86 0.000141414 -2.32262 5.77857 -4.52626 5.82504L-21.361 10.9218L-21.7966 16.3904C-21.8991 17.4129 -24.4615 41.8589 -23.9234 63.0826C-23.8721 65.1895 -23.2315 67.1259 -22.0016 68.799L-21.2585 69.806L-22.6678 74.9957C-22.9497 76.0182 -23.3084 77.366 -23.6928 78.9616C-24.0002 85.5301 -18.4399 97.4588 -16.9281 99.2094L-10.8553 106.196L2.11027 106.429C3.41708 106.459 142.861 109 269.493 109C430.179 109 467.231 105.034 481.119 102.06C490.549 100.03 499.824 96.3279 504.36 75.8013L504.462 75.476C504.437 75.0112 504.411 74.531 504.36 74.0817H504.411Z" fill="#612E18"/>
<path d="M59.2256 65.5456L91.7676 72.5169L-5.21795 68.3186L-16.4155 71.1226C-17.1073 73.6943 -17.7736 76.3279 -18.4398 78.9925C-19.4391 80.6036 -19.0547 85.3131 -15.7493 91.3704C-14.8781 92.966 -12.9819 96.0179 -11.752 97.4122C-9.18962 100.278 -7.24222 102.602 -7.24222 102.602C-7.24222 102.602 20.6876 103.144 32.9869 103.268C43.672 103.376 75.471 104.058 89.974 103.95C106.424 103.841 134.431 104.492 180.374 104.864C206.844 105.081 232.262 105.235 260.551 105.313C283.689 105.375 306.596 105.003 328.069 105.112C352.258 105.235 422.108 103.655 446.194 102.168C451.883 101.827 463.413 100.882 471.639 99.7824C477.071 99.0543 479.864 98.4966 483.22 97.3967C484.758 96.9009 487.602 95.5222 490.651 92.5632C490.882 92.4238 491.138 91.7886 491.343 91.5872C495.366 87.42 498.338 75.8476 498.313 75.4913C498.313 75.1815 498.236 73.5858 498.159 73.2605L497.852 71.7423L483.502 65.747C484.399 63.8725 424.542 68.3186 424.491 65.8245C424.465 63.9809 455.06 61.4558 466.873 63.4232C474.56 64.6936 498.467 64.3218 498.774 63.6866C499.081 63.0514 498.953 54.5774 498.825 54.1902C497.467 50.0384 498.8 48.1794 494.879 46.5217C490.421 44.6317 485.168 43.5783 481.299 42.7882L458.494 41.8897L494.239 39.0082C497.852 4.43063 486.218 8.33456 480.171 6.72341C474.893 5.31366 465.079 2.69556 359.919 2.69556C221.526 2.74203 -1.88688 6.87833 -4.06489 6.9403L-15.0574 10.8442L-15.6724 16.6072C-15.7749 17.6296 -18.4141 39.0857 -17.9017 60.1235C-17.9017 60.1235 49.4117 64.3527 59.2256 65.5456Z" fill="#8C5130"/>
<path d="M484.886 74.2055C484.784 70.6734 484.553 68.7679 483.502 65.7935C482.785 63.7176 435.484 60.8516 435.484 60.8516C435.484 60.8516 469.461 61.5797 483.554 59.256C486.526 58.7602 483.502 46.0725 482.785 43.7022C481.401 39.1477 393.743 39.3955 393.743 39.3955L482.016 36.5141C482.016 36.5141 484.963 8.13316 475.149 5.49956C445.298 -2.55615 -4.06483 6.9403 -4.06483 6.9403C-4.06483 6.9403 -9.85578 36.9168 -6.1916 53.6789C-5.80724 55.414 104.99 61.8741 104.99 61.8741L-5.19227 68.3341C-5.19227 68.3341 -6.24284 72.2845 -7.70339 78.7446C-7.70339 78.822 -7.72902 78.8995 -7.75464 78.9925C-7.75464 78.9925 -7.57527 81.3782 -7.70339 78.9925C-7.80589 79.9839 -7.24217 82.0133 -6.9603 83.609C-6.44783 86.7848 -3.52673 88.303 -3.52673 88.303C-3.52673 88.303 425.08 96.2193 479.018 84.6314C481.632 84.0737 483.221 80.2938 484.937 75.6772C484.63 75.7082 485.245 74.1745 484.937 74.19L484.886 74.2055Z" fill="#F4A766"/>
<path d="M-4.06494 6.94033C-4.06494 6.94033 -6.3967 19.3182 -7.13978 31.4483C-7.78037 42.3855 -6.85792 53.1832 -6.19171 53.6635C-3.65496 55.4915 104.989 61.8586 104.989 61.8586C104.989 61.8586 3.95527 53.8184 1.49539 51.727C-0.964477 49.6356 1.70038 6.8009 1.70038 6.8009L-4.06494 6.92484V6.94033Z" fill="#FFCC9C"/>
<path d="M1.70036 6.81638L1.521 9.91474C1.521 9.91474 17.2027 8.04023 28.2209 8.36556C39.239 8.70638 32.1925 7.09524 58.508 8.36556C84.8236 9.62039 111.754 5.6545 115.418 5.93335C119.082 6.21221 188.138 6.94032 192.622 6.52204C197.106 6.11926 263.113 2.78853 267.033 2.74205C268.955 2.72656 214.121 3.2223 161.156 3.98139C106.706 4.75598 53.9983 5.80942 53.9983 5.80942L1.67474 6.81638H1.70036Z" fill="#FFCC9C"/>
<path d="M478.788 59.8447C478.788 59.8447 481.247 47.5597 477.122 45.4528C473.022 43.346 393.743 39.3646 393.743 39.3646C393.743 39.3646 463.875 39.1167 480.094 42.4629C481.504 42.7573 482.708 42.7882 482.99 44.3529C483.169 45.4838 486.628 58.6053 483.579 59.2095C481.76 59.5813 478.788 59.8137 478.788 59.8137V59.8447Z" fill="#FFCC9C"/>
<g style="mix-blend-mode:multiply" opacity="0.28">
<path d="M-13.6993 19.7984C-3.52674 13.0595 11.5144 17.4592 23.1219 18.6366C35.165 19.8449 49.0787 21.8589 61.2755 22.1532C81.467 22.6179 100.582 20.2632 120.184 17.2578C133.252 15.2439 145.27 11.4794 157.774 8.50496C172.303 5.06579 189.496 4.89538 205.127 3.81096C207.1 3.68702 209.047 3.5321 210.969 3.36169C213.583 3.12932 206.818 3.22227 203.589 3.31522C193.852 3.62505 185.627 3.76448 177.991 4.13628C172.303 4.39964 166.922 4.81792 161.515 5.53054C144.45 7.80783 129.793 13.8961 112.6 16.2353C85.6949 19.9224 56.612 18.6521 29.4509 16.8705C12.9237 15.7861 -2.88615 10.333 -15.9542 18.9154C-16.0311 19.5506 -16.1336 20.3097 -16.2361 21.1617C-16.2361 21.1617 -16.1848 21.1617 -16.1848 21.1307L-13.6993 19.7984Z" fill="url(#paint0_radial_17_5010)"/>
<path d="M321.33 2.27669C319.101 2.21529 316.897 2.18459 314.642 2.24599C312.208 2.29204 317.461 2.30739 321.33 2.27669Z" fill="url(#paint1_radial_17_5010)"/>
<path d="M409.604 16.8857C422.902 18.125 437.098 17.4744 450.55 17.8772C465.438 18.3264 482.913 17.335 494.854 23.5936C494.802 22.881 494.751 22.2149 494.7 21.5797C485.86 17.1026 481.119 16.7463 468.948 16.4674C453.01 16.0956 437.149 14.8873 421.314 13.8493C392.103 11.9438 370.118 4.80212 343.008 2.7727C337.114 2.32344 330.99 2.12205 324.456 2.26147C323.816 2.26147 322.663 2.27697 321.356 2.29246C324.226 2.36992 327.044 2.57131 329.863 2.80369C357.101 5.17392 382.673 14.3915 409.629 16.9012L409.604 16.8857Z" fill="url(#paint2_radial_17_5010)"/>
<path d="M189.035 14.1904C188.907 14.3763 192.725 15.6467 193.161 15.8016C204.409 20.0463 212.635 20.8984 225.856 21.0998C243.639 21.3631 261.371 20.4336 279.128 20.2632C304.239 20.0153 335.859 25.8248 353.411 14.3609C354.205 13.8496 354.692 13.4159 353.411 13.199C339.344 10.8597 324.661 11.0301 310.568 8.75284C297.705 6.69243 284.919 6.22768 271.671 6.63047C245.74 7.38956 218.861 8.35005 194.134 13.4468C193.032 13.6792 188.933 13.9736 189.009 14.1904H189.035ZM278.257 8.00923C291.402 7.74587 303.547 9.9457 316.231 11.4949C321.945 12.192 327.864 12.4089 333.655 12.7962C340.855 13.2609 353.283 13.8341 338.754 16.6846C316.82 21.0068 291.222 18.3887 268.468 18.9464C256.4 19.2408 244.357 19.5661 232.262 19.5816C218.784 19.5971 210.457 18.2338 199.669 14.3454C224.883 9.49644 251.941 8.53595 278.231 8.00923H278.257Z" fill="url(#paint3_radial_17_5010)"/>
<path d="M12.3855 28.7527C20.8414 28.9076 29.0922 28.6133 37.5736 28.4119C60.4299 27.8697 83.1069 29.7442 105.938 28.9231C129.896 28.0401 153.598 22.5715 177.658 22.3546C198.362 22.1532 219.809 26.9711 240.282 28.6597C279.82 31.9285 322.227 32.5172 361.303 27.4204C386.158 24.1671 407.733 23.3151 432.844 25.3135C443.683 26.1811 454.368 27.5289 465.207 28.4119C475.277 29.2484 486.321 30.2709 494.7 33.896C494.751 33.2453 494.777 32.5947 494.802 31.975C479.736 26.1191 458.237 26.1811 440.941 24.6009C419.853 22.6799 397.637 19.752 376.447 21.8434C349.542 24.4925 324.072 29.4034 296.603 29.6047C269.263 29.8061 241.794 27.9626 215.043 24.6164C193.314 21.9053 175.736 20.9913 153.623 22.7264C123.9 25.0657 94.9963 26.8317 64.9909 27.0331C44.9276 27.1725 24.8386 27.3429 4.80094 27.6373C-2.34807 27.7302 -12.6232 28.3034 -17.2354 32.1144C-17.2867 32.8425 -17.3379 33.5861 -17.3892 34.3452L-14.2374 32.5792C-7.39593 27.7148 4.57032 28.6133 12.3855 28.7527Z" fill="url(#paint4_radial_17_5010)"/>
<path d="M267.956 16.8395C274.388 16.8395 280.768 16.6846 287.199 16.7931C295.22 16.9325 302.497 14.7791 310.312 14.0045C311.286 13.9116 319.946 13.8496 320.356 13.4933C320.843 13.168 313.079 12.5638 312.157 12.4864C312.003 12.4709 311.798 12.4554 311.593 12.4709C286.431 12.7497 259.808 11.0611 234.953 13.8651C234.338 13.9271 225.805 14.113 227.676 14.6552C237.31 17.4127 257.604 16.8086 267.956 16.824V16.8395ZM240.411 14.8101C260.115 13.168 280.768 13.9891 300.754 14.0665C296.936 14.7172 293.093 15.2749 289.096 15.2439L271.646 15.2904C262.908 15.3678 249.763 16.3128 240.411 14.8101Z" fill="url(#paint5_radial_17_5010)"/>
<path d="M497.109 75.5998C496.007 75.6153 496.34 75.6463 497.109 75.5998C481.017 71.2621 460.902 72.8423 443.965 73.4464C430.666 73.9267 417.496 74.0816 404.3 72.9042C390.053 71.6339 377.19 67.1723 364.378 63.4388C343.725 57.4125 320.075 54.0198 297.475 51.8044C278.974 49.9919 266.06 51.1848 251.941 42.7728C271.774 40.6969 283.535 40.2941 303.547 39.0392C317.384 38.1717 331.016 37.1647 344.981 37.7069C357.126 38.1717 368.734 41.332 380.136 43.6558C397.817 47.2654 416.701 49.9919 435.227 50.3172C454.727 50.6581 482.247 48.009 498.928 55.1197C498.928 54.6085 498.877 54.2831 498.851 54.2057C498.672 53.6635 498.543 53.1522 498.441 52.672C483.912 47.4977 463.644 47.916 447.552 47.5752C424.03 47.0795 402.762 46.2739 380.188 41.6728C369.477 39.4885 359.279 37.1492 348.004 36.3901C337.729 35.693 327.07 36.3127 316.846 36.9633C291.581 38.59 265.317 37.4901 240.411 40.6349C239.949 40.6969 236.875 41.1771 237.797 41.7658C249.251 49.2018 266.521 50.7665 282.408 52.0988C306.289 54.1282 330.401 57.0871 352.873 62.5402C363.379 65.0809 373.244 68.5201 383.673 71.1846C394.998 74.0816 407.169 74.9181 419.366 75.166C441.07 75.6153 468.103 71.2001 489.396 75.8012C492.189 76.4983 494.597 79.6431 497.083 80.4642C497.288 79.798 498.031 77.087 498.21 76.3744C498.287 76.2195 497.775 75.8941 497.134 75.5998H497.109Z" fill="url(#paint6_radial_17_5010)"/>
<path d="M-14.5961 46.3668C-4.91039 41.0686 11.6425 42.0756 23.7369 42.3545C35.0113 42.6178 45.6195 41.9981 56.8939 41.4404C92.9208 39.6744 129.101 38.1717 165.231 37.2886C185.345 36.7929 200.412 39.3645 216.888 46.1344C228.137 50.7665 239.258 55.0887 251.762 58.4039C264.907 61.8896 279.307 64.2908 293.324 66.1343C310.62 68.3961 329.043 66.8004 348.338 72.6099C351.925 73.6943 377.523 75.0885 374.704 74.4689L366.146 72.269C351.694 69.1242 318.204 66.2582 303.086 64.9105C282.638 63.0824 261.55 58.9771 243.204 53.2297C229.623 48.9694 218.605 41.0996 204.973 36.9168C191.726 32.8735 175.48 34.9494 161.054 35.3212C121.747 36.2817 82.3638 38.6519 43.1596 40.5884C24.1725 41.5334 -1.83555 36.3901 -17.6966 45.081C-17.7478 45.112 -17.7735 45.143 -17.8247 45.1585C-17.8247 45.6077 -17.8247 46.7541 -17.8503 47.2034C-15.9542 46.8316 -15.493 46.8935 -14.5449 46.3823L-14.5961 46.3668Z" fill="url(#paint7_radial_17_5010)"/>
</g>
<path opacity="0.28" d="M494.264 39.0392C497.877 4.46164 486.244 8.36556 480.197 6.75442C474.918 5.34467 465.104 2.72656 359.945 2.72656C221.526 2.74205 -1.88691 6.87835 -4.06492 6.94032L-15.0575 10.8442L-15.6724 16.6072C-15.7749 17.6296 -18.4142 39.0857 -17.9017 60.1235C-17.9017 60.1235 -6.14044 52.734 -5.21799 53.9888L108.705 61.6107L-5.19236 68.3342L-16.3899 71.1382C-16.9024 73.0127 -17.3892 74.9491 -17.8761 76.9011C10.6431 72.0057 41.7246 71.4635 70.6537 68.6285C102.504 65.5147 134.2 62.6797 166.256 60.6657C169.459 60.0616 172.867 59.7982 176.249 59.6278C187.908 59.1011 199.618 58.6208 211.302 58.249C233.466 57.5364 255.682 57.2575 277.795 56.1886C278.205 55.8788 278.846 55.6464 279.717 55.5689C318.076 52.2382 357.229 48.1484 395.946 47.002C406.734 46.6922 417.496 46.5837 428.283 46.5682C431.64 46.3204 434.971 46.1035 438.353 46.0105C446.04 45.7782 454.727 45.2359 462.798 45.9021C471.664 45.3599 480.53 44.9416 489.447 44.6937C486.551 43.8882 483.682 43.284 481.324 42.8037L393.768 39.3801L482.042 36.4986L494.29 39.0392H494.264Z" fill="url(#paint8_linear_17_5010)"/>
<path d="M321.074 18.9929L342.623 16.9015L366.453 17.3818L384.544 16.7621L426.336 18.2338L385.594 19.4267L354.385 18.7605L321.074 18.9929Z" fill="#612E18"/>
<path d="M321.074 18.9929L338.472 14.7482L350.772 15.1509L368.606 15.4608L382.468 14.3454L396.228 15.5072L414.6 15.7706L426.336 18.2338L384.544 16.7621L366.453 17.3818L342.623 16.9015L321.074 18.9929Z" fill="#FFCC9C"/>
<path d="M-9.21521 22.7264L2.03358 20.7589L14.0255 21.9053L23.2756 21.6265L44.2614 24.3685L23.4037 24.7868L7.69641 23.2531L-9.21521 22.7264Z" fill="#612E18"/>
<path d="M-9.21521 22.7264L0.265549 18.1408L6.44085 18.9154L15.4091 19.7055L22.6094 18.7295L29.3997 20.4181L38.6754 21.1927L44.2614 24.3685L23.2756 21.6265L14.0255 21.9053L2.00796 20.7744L-9.21521 22.7264Z" fill="#FFCC9C"/>
</g>
<defs>
<filter id="filter0_d_17_5010" x="0" y="0" width="474" height="49" filterUnits="userSpaceOnUse" color-interpolation-filters="sRGB">
<feFlood flood-opacity="0" result="BackgroundImageFix"/>
<feColorMatrix in="SourceAlpha" type="matrix" values="0 0 0 0 0 0 0 0 0 0 0 0 0 0 0 0 0 0 127 0" result="hardAlpha"/>
<feOffset dy="4"/>
<feGaussianBlur stdDeviation="2"/>
<feComposite in2="hardAlpha" operator="out"/>
<feColorMatrix type="matrix" values="0 0 0 0 0 0 0 0 0 0 0 0 0 0 0 0 0 0 0.25 0"/>
<feBlend mode="normal" in2="BackgroundImageFix" result="effect1_dropShadow_17_5010"/>
<feBlend mode="normal" in="SourceGraphic" in2="effect1_dropShadow_17_5010" result="shape"/>
</filter>
<radialGradient id="paint0_radial_17_5010" cx="0" cy="0" r="1" gradientUnits="userSpaceOnUse" gradientTransform="translate(97.6611 12.7032) scale(81.3039 49.1553)">
<stop stop-color="#B35A40"/>
<stop offset="1" stop-color="#732F1B"/>
</radialGradient>
<radialGradient id="paint1_radial_17_5010" cx="0" cy="0" r="1" gradientUnits="userSpaceOnUse" gradientTransform="translate(317.666 2.26134) scale(2.58799 1.55031)">
<stop stop-color="#B35A40"/>
<stop offset="1" stop-color="#732F1B"/>
</radialGradient>
<radialGradient id="paint2_radial_17_5010" cx="0" cy="0" r="1" gradientUnits="userSpaceOnUse" gradientTransform="translate(408.092 12.8888) scale(62.5986 37.8464)">
<stop stop-color="#B35A40"/>
<stop offset="1" stop-color="#732F1B"/>
</radialGradient>
<radialGradient id="paint3_radial_17_5010" cx="0" cy="0" r="1" gradientUnits="userSpaceOnUse" gradientTransform="translate(271.62 14.02) scale(59.0626 35.7085)">
<stop stop-color="#B35A40"/>
<stop offset="1" stop-color="#732F1B"/>
</radialGradient>
<radialGradient id="paint4_radial_17_5010" cx="0" cy="0" r="1" gradientUnits="userSpaceOnUse" gradientTransform="translate(238.719 27.7302) scale(181.262 109.589)">
<stop stop-color="#B35A40"/>
<stop offset="1" stop-color="#732F1B"/>
</radialGradient>
<radialGradient id="paint5_radial_17_5010" cx="0" cy="0" r="1" gradientUnits="userSpaceOnUse" gradientTransform="translate(273.901 14.5623) scale(32.9777 19.9379)">
<stop stop-color="#B35A40"/>
<stop offset="1" stop-color="#732F1B"/>
</radialGradient>
<radialGradient id="paint6_radial_17_5010" cx="0" cy="0" r="1" gradientUnits="userSpaceOnUse" gradientTransform="translate(368.247 59.5813) scale(96.2425 58.187)">
<stop stop-color="#B35A40"/>
<stop offset="1" stop-color="#732F1B"/>
</radialGradient>
<radialGradient id="paint7_radial_17_5010" cx="0" cy="0" r="1" gradientUnits="userSpaceOnUse" gradientTransform="translate(178.504 54.531) scale(140.853 85.1582)">
<stop stop-color="#B35A40"/>
<stop offset="1" stop-color="#732F1B"/>
</radialGradient>
<linearGradient id="paint8_linear_17_5010" x1="281.255" y1="345.342" x2="262.611" y2="-7.15178" gradientUnits="userSpaceOnUse">
<stop stop-color="#FFF1ED"/>
<stop offset="0.44" stop-color="#FFE0C4"/>
<stop offset="0.79" stop-color="#FFD6AA"/>
<stop offset="1" stop-color="#FFD3A1"/>
</linearGradient>
<clipPath id="clip0_17_5010">
<rect width="466" height="41" fill="white" transform="translate(4)"/>
</clipPath>
</defs>
</svg>
