<?xml version="1.0" encoding="UTF-8" standalone="no"?>
<!DOCTYPE svg PUBLIC "-//W3C//DTD SVG 1.1//EN"
 "http://www.w3.org/Graphics/SVG/1.1/DTD/svg11.dtd">
<!-- Generated by graphviz version 2.43.0 (0)
 -->
<!-- Title: backend/API/APIComponent.h Pages: 1 -->
<svg width="919pt" height="95pt"
 viewBox="0.00 0.00 918.50 95.00" xmlns="http://www.w3.org/2000/svg" xmlns:xlink="http://www.w3.org/1999/xlink">
<g id="graph0" class="graph" transform="scale(1 1) rotate(0) translate(4 91)">
<title>backend/API/APIComponent.h</title>
<polygon fill="white" stroke="transparent" points="-4,4 -4,-91 914.5,-91 914.5,4 -4,4"/>
<!-- Node1 -->
<g id="node1" class="node">
<title>Node1</title>
<g id="a_node1"><a xlink:title="Refer to docs https://oatpp.io/docs/start/step&#45;by&#45;step/#application&#45;components&#45;configuration.">
<polygon fill="#bfbfbf" stroke="black" points="409,-67.5 409,-86.5 569,-86.5 569,-67.5 409,-67.5"/>
<text text-anchor="middle" x="489" y="-74.5" font-family="Helvetica,sans-Serif" font-size="10.00">backend/API/APIComponent.h</text>
</a>
</g>
</g>
<!-- Node2 -->
<g id="node2" class="node">
<title>Node2</title>
<g id="a_node2"><a xlink:title=" ">
<polygon fill="white" stroke="#bfbfbf" points="0,-0.5 0,-30.5 180,-30.5 180,-0.5 0,-0.5"/>
<text text-anchor="start" x="8" y="-18.5" font-family="Helvetica,sans-Serif" font-size="10.00">oatpp/web/server/HttpConnection</text>
<text text-anchor="middle" x="90" y="-7.5" font-family="Helvetica,sans-Serif" font-size="10.00">Handler.hpp</text>
</a>
</g>
</g>
<!-- Node1&#45;&gt;Node2 -->
<g id="edge1" class="edge">
<title>Node1&#45;&gt;Node2</title>
<path fill="none" stroke="midnightblue" d="M431.83,-67.48C368.93,-58.1 266.65,-42.84 190.33,-31.46"/>
<polygon fill="midnightblue" stroke="midnightblue" points="190.62,-27.97 180.22,-29.95 189.59,-34.89 190.62,-27.97"/>
</g>
<!-- Node3 -->
<g id="node3" class="node">
<title>Node3</title>
<g id="a_node3"><a xlink:title=" ">
<polygon fill="white" stroke="#bfbfbf" points="198.5,-6 198.5,-25 401.5,-25 401.5,-6 198.5,-6"/>
<text text-anchor="middle" x="300" y="-13" font-family="Helvetica,sans-Serif" font-size="10.00">oatpp/web/mime/ContentMappers.hpp</text>
</a>
</g>
</g>
<!-- Node1&#45;&gt;Node3 -->
<g id="edge2" class="edge">
<title>Node1&#45;&gt;Node3</title>
<path fill="none" stroke="midnightblue" d="M461.92,-67.48C429.08,-57.14 373.57,-39.66 336.85,-28.1"/>
<polygon fill="midnightblue" stroke="midnightblue" points="337.62,-24.67 327.03,-25.01 335.52,-31.35 337.62,-24.67"/>
</g>
<!-- Node4 -->
<g id="node4" class="node">
<title>Node4</title>
<g id="a_node4"><a xlink:title=" ">
<polygon fill="white" stroke="#bfbfbf" points="419.5,-0.5 419.5,-30.5 558.5,-30.5 558.5,-0.5 419.5,-0.5"/>
<text text-anchor="start" x="427.5" y="-18.5" font-family="Helvetica,sans-Serif" font-size="10.00">oatpp/network/tcp/server</text>
<text text-anchor="middle" x="489" y="-7.5" font-family="Helvetica,sans-Serif" font-size="10.00">/ConnectionProvider.hpp</text>
</a>
</g>
</g>
<!-- Node1&#45;&gt;Node4 -->
<g id="edge3" class="edge">
<title>Node1&#45;&gt;Node4</title>
<path fill="none" stroke="midnightblue" d="M489,-67.48C489,-60.47 489,-50.19 489,-40.7"/>
<polygon fill="midnightblue" stroke="midnightblue" points="492.5,-40.52 489,-30.52 485.5,-40.52 492.5,-40.52"/>
</g>
<!-- Node5 -->
<g id="node5" class="node">
<title>Node5</title>
<g id="a_node5"><a xlink:title=" ">
<polygon fill="white" stroke="#bfbfbf" points="576.5,-6 576.5,-25 735.5,-25 735.5,-6 576.5,-6"/>
<text text-anchor="middle" x="656" y="-13" font-family="Helvetica,sans-Serif" font-size="10.00">oatpp/json/ObjectMapper.hpp</text>
</a>
</g>
</g>
<!-- Node1&#45;&gt;Node5 -->
<g id="edge4" class="edge">
<title>Node1&#45;&gt;Node5</title>
<path fill="none" stroke="midnightblue" d="M512.93,-67.48C541.7,-57.22 590.16,-39.96 622.6,-28.4"/>
<polygon fill="midnightblue" stroke="midnightblue" points="623.87,-31.66 632.12,-25.01 621.52,-25.07 623.87,-31.66"/>
</g>
<!-- Node6 -->
<g id="node6" class="node">
<title>Node6</title>
<g id="a_node6"><a xlink:title=" ">
<polygon fill="white" stroke="#bfbfbf" points="753.5,-6 753.5,-25 910.5,-25 910.5,-6 753.5,-6"/>
<text text-anchor="middle" x="832" y="-13" font-family="Helvetica,sans-Serif" font-size="10.00">oatpp/macro/component.hpp</text>
</a>
</g>
</g>
<!-- Node1&#45;&gt;Node6 -->
<g id="edge5" class="edge">
<title>Node1&#45;&gt;Node6</title>
<path fill="none" stroke="midnightblue" d="M538.14,-67.48C600.16,-56.72 706.73,-38.23 773.06,-26.72"/>
<polygon fill="midnightblue" stroke="midnightblue" points="773.69,-30.17 782.95,-25.01 772.5,-23.27 773.69,-30.17"/>
</g>
</g>
</svg>
