<?xml version="1.0" encoding="UTF-8" standalone="no"?>
<!DOCTYPE svg PUBLIC "-//W3C//DTD SVG 1.1//EN"
 "http://www.w3.org/Graphics/SVG/1.1/DTD/svg11.dtd">
<!-- Generated by graphviz version 2.43.0 (0)
 -->
<!-- Title: backend/API/APIDto.h Pages: 1 -->
<svg width="266pt" height="84pt"
 viewBox="0.00 0.00 265.50 84.00" xmlns="http://www.w3.org/2000/svg" xmlns:xlink="http://www.w3.org/1999/xlink">
<g id="graph0" class="graph" transform="scale(1 1) rotate(0) translate(4 80)">
<title>backend/API/APIDto.h</title>
<polygon fill="white" stroke="transparent" points="-4,4 -4,-80 261.5,-80 261.5,4 -4,4"/>
<!-- Node1 -->
<g id="node1" class="node">
<title>Node1</title>
<g id="a_node1"><a xlink:title="Define Data Transfer Objects to serialize/deserialize objects in requests.">
<polygon fill="#bfbfbf" stroke="black" points="80,-56.5 80,-75.5 201,-75.5 201,-56.5 80,-56.5"/>
<text text-anchor="middle" x="140.5" y="-63.5" font-family="Helvetica,sans-Serif" font-size="10.00">backend/API/APIDto.h</text>
</a>
</g>
</g>
<!-- Node2 -->
<g id="node2" class="node">
<title>Node2</title>
<g id="a_node2"><a xlink:title=" ">
<polygon fill="white" stroke="#bfbfbf" points="0,-0.5 0,-19.5 143,-19.5 143,-0.5 0,-0.5"/>
<text text-anchor="middle" x="71.5" y="-7.5" font-family="Helvetica,sans-Serif" font-size="10.00">oatpp/macro/codegen.hpp</text>
</a>
</g>
</g>
<!-- Node1&#45;&gt;Node2 -->
<g id="edge1" class="edge">
<title>Node1&#45;&gt;Node2</title>
<path fill="none" stroke="midnightblue" d="M129.41,-56.32C119.01,-48.18 103.24,-35.84 90.78,-26.09"/>
<polygon fill="midnightblue" stroke="midnightblue" points="92.82,-23.24 82.79,-19.83 88.51,-28.75 92.82,-23.24"/>
</g>
<!-- Node3 -->
<g id="node3" class="node">
<title>Node3</title>
<g id="a_node3"><a xlink:title=" ">
<polygon fill="white" stroke="#bfbfbf" points="161.5,-0.5 161.5,-19.5 257.5,-19.5 257.5,-0.5 161.5,-0.5"/>
<text text-anchor="middle" x="209.5" y="-7.5" font-family="Helvetica,sans-Serif" font-size="10.00">oatpp/Types.hpp</text>
</a>
</g>
</g>
<!-- Node1&#45;&gt;Node3 -->
<g id="edge2" class="edge">
<title>Node1&#45;&gt;Node3</title>
<path fill="none" stroke="midnightblue" d="M151.59,-56.32C161.99,-48.18 177.76,-35.84 190.22,-26.09"/>
<polygon fill="midnightblue" stroke="midnightblue" points="192.49,-28.75 198.21,-19.83 188.18,-23.24 192.49,-28.75"/>
</g>
</g>
</svg>
