<?xml version="1.0" encoding="UTF-8" standalone="no"?>
<!DOCTYPE svg PUBLIC "-//W3C//DTD SVG 1.1//EN"
 "http://www.w3.org/Graphics/SVG/1.1/DTD/svg11.dtd">
<!-- Generated by graphviz version 2.43.0 (0)
 -->
<!-- Title: backend/customer/AverageCustomer.h Pages: 1 -->
<!--zoomable 498 -->
<svg id="main" version="1.1" xmlns="http://www.w3.org/2000/svg" xmlns:xlink="http://www.w3.org/1999/xlink" xml:space="preserve" onload="init(evt)">
<style type="text/css"><![CDATA[
.edge:hover path { stroke: red; }
.edge:hover polygon { stroke: red; fill: red; }
]]></style>
<script type="text/javascript"><![CDATA[
var edges = document.getElementsByTagName('g');
if (edges && edges.length) {
  for (var i=0;i<edges.length;i++) {
    if (edges[i].id.substr(0,4)=='edge') {
      edges[i].setAttribute('class','edge');
    }
  }
}
]]></script>
        <defs>
                <circle id="rim" cx="0" cy="0" r="7"/>
                <circle id="rim2" cx="0" cy="0" r="3.5"/>
                <g id="zoomPlus">
                        <use xlink:href="#rim" fill="#404040">
                                <set attributeName="fill" to="#808080" begin="zoomplus.mouseover" end="zoomplus.mouseout"/>
                        </use>
                        <path d="M-4,0h8M0,-4v8" fill="none" stroke="white" stroke-width="1.5" pointer-events="none"/>
                </g>
                <g id="zoomMin">
                        <use xlink:href="#rim" fill="#404040">
                                <set attributeName="fill" to="#808080" begin="zoomminus.mouseover" end="zoomminus.mouseout"/>
                        </use>
                        <path d="M-4,0h8" fill="none" stroke="white" stroke-width="1.5" pointer-events="none"/>
                </g>
                <g id="dirArrow">
                        <path fill="none" stroke="white" stroke-width="1.5" d="M0,-3.0v7 M-2.5,-0.5L0,-3.0L2.5,-0.5"/>
                </g>
               <g id="resetDef">
                       <use xlink:href="#rim2" fill="#404040">
                               <set attributeName="fill" to="#808080" begin="reset.mouseover" end="reset.mouseout"/>
                       </use>
               </g>
        </defs>

<script type="text/javascript">
var viewWidth = 1713;
var viewHeight = 498;
var sectionId = 'dynsection-0';
</script>
<script xlink:href="svgpan.js"/>
<svg id="graph" class="graph">
<g id="viewport">
<title>backend/customer/AverageCustomer.h</title>
<polygon fill="white" stroke="transparent" points="-4,4 -4,-494 1709,-494 1709,4 -4,4"/>
<!-- Node1 -->
<g id="node1" class="node">
<title>Node1</title>
<g id="a_node1"><a xlink:title="Concrete customer class representing moderately experienced plant buyers.">
<polygon fill="#bfbfbf" stroke="black" points="887.5,-459.5 887.5,-489.5 1036.5,-489.5 1036.5,-459.5 887.5,-459.5"/>
<text text-anchor="start" x="895.5" y="-477.5" font-family="Helvetica,sans-Serif" font-size="10.00">backend/customer/Average</text>
<text text-anchor="middle" x="962" y="-466.5" font-family="Helvetica,sans-Serif" font-size="10.00">Customer.h</text>
</a>
</g>
</g>
<!-- Node2 -->
<g id="node2" class="node">
<title>Node2</title>
<g id="a_node2"><a xlink:href="Customer_8h.html" target="_top" xlink:title="Abstract base class for all customer types in the plant shop game.">
<polygon fill="white" stroke="black" points="926,-403.5 926,-422.5 998,-422.5 998,-403.5 926,-403.5"/>
<text text-anchor="middle" x="962" y="-410.5" font-family="Helvetica,sans-Serif" font-size="10.00">Customer.h</text>
</a>
</g>
</g>
<!-- Node1&#45;&gt;Node2 -->
<g id="edge1" class="edge">
<title>Node1&#45;&gt;Node2</title>
<path fill="none" stroke="midnightblue" d="M962,-459.4C962,-451.47 962,-441.46 962,-432.86"/>
<polygon fill="midnightblue" stroke="midnightblue" points="965.5,-432.66 962,-422.66 958.5,-432.66 965.5,-432.66"/>
</g>
<!-- Node3 -->
<g id="node3" class="node">
<title>Node3</title>
<g id="a_node3"><a xlink:title=" ">
<polygon fill="white" stroke="#bfbfbf" points="128.5,-67.5 128.5,-86.5 175.5,-86.5 175.5,-67.5 128.5,-67.5"/>
<text text-anchor="middle" x="152" y="-74.5" font-family="Helvetica,sans-Serif" font-size="10.00">vector</text>
</a>
</g>
</g>
<!-- Node2&#45;&gt;Node3 -->
<g id="edge2" class="edge">
<title>Node2&#45;&gt;Node3</title>
<path fill="none" stroke="midnightblue" d="M925.78,-411.57C754.94,-409.05 38,-393.07 38,-302 38,-302 38,-302 38,-188 38,-141.11 88.55,-107.89 122.33,-90.93"/>
<polygon fill="midnightblue" stroke="midnightblue" points="123.87,-94.07 131.36,-86.58 120.83,-87.77 123.87,-94.07"/>
</g>
<!-- Node4 -->
<g id="node4" class="node">
<title>Node4</title>
<g id="a_node4"><a xlink:title=" ">
<polygon fill="white" stroke="#bfbfbf" points="838,-6 838,-25 882,-25 882,-6 838,-6"/>
<text text-anchor="middle" x="860" y="-13" font-family="Helvetica,sans-Serif" font-size="10.00">string</text>
</a>
</g>
</g>
<!-- Node2&#45;&gt;Node4 -->
<g id="edge3" class="edge">
<title>Node2&#45;&gt;Node4</title>
<path fill="none" stroke="midnightblue" d="M967.28,-403.23C977.73,-385.04 1000,-341.6 1000,-302 1000,-302 1000,-302 1000,-132 1000,-98.31 985.72,-89.89 961,-67 958,-64.22 915.88,-43.55 886.99,-29.53"/>
<polygon fill="midnightblue" stroke="midnightblue" points="888.3,-26.28 877.77,-25.07 885.25,-32.58 888.3,-26.28"/>
</g>
<!-- Node5 -->
<g id="node5" class="node">
<title>Node5</title>
<g id="a_node5"><a xlink:title=" ">
<polygon fill="white" stroke="#bfbfbf" points="417,-6 417,-25 477,-25 477,-6 417,-6"/>
<text text-anchor="middle" x="447" y="-13" font-family="Helvetica,sans-Serif" font-size="10.00">iostream</text>
</a>
</g>
</g>
<!-- Node2&#45;&gt;Node5 -->
<g id="edge4" class="edge">
<title>Node2&#45;&gt;Node5</title>
<path fill="none" stroke="midnightblue" d="M925.64,-412.29C784.03,-413.08 269.6,-412.69 114,-367 58.04,-350.57 0,-360.32 0,-302 0,-302 0,-302 0,-132 0,-48.33 297.27,-24.32 406.96,-18.3"/>
<polygon fill="midnightblue" stroke="midnightblue" points="407.17,-21.79 416.98,-17.77 406.81,-14.8 407.17,-21.79"/>
</g>
<!-- Node6 -->
<g id="node6" class="node">
<title>Node6</title>
<g id="a_node6"><a xlink:title=" ">
<polygon fill="white" stroke="#bfbfbf" points="1142,-347.5 1142,-366.5 1198,-366.5 1198,-347.5 1142,-347.5"/>
<text text-anchor="middle" x="1170" y="-354.5" font-family="Helvetica,sans-Serif" font-size="10.00">sstream</text>
</a>
</g>
</g>
<!-- Node2&#45;&gt;Node6 -->
<g id="edge5" class="edge">
<title>Node2&#45;&gt;Node6</title>
<path fill="none" stroke="midnightblue" d="M994.96,-403.44C1032.26,-393.76 1092.93,-378.01 1132.14,-367.83"/>
<polygon fill="midnightblue" stroke="midnightblue" points="1133.07,-371.2 1141.87,-365.3 1131.31,-364.43 1133.07,-371.2"/>
</g>
<!-- Node7 -->
<g id="node7" class="node">
<title>Node7</title>
<g id="a_node7"><a xlink:href="CustomerVisitor_8h_source.html" target="_top" xlink:title=" ">
<polygon fill="white" stroke="black" points="447,-347.5 447,-366.5 551,-366.5 551,-347.5 447,-347.5"/>
<text text-anchor="middle" x="499" y="-354.5" font-family="Helvetica,sans-Serif" font-size="10.00">CustomerVisitor.h</text>
</a>
</g>
</g>
<!-- Node2&#45;&gt;Node7 -->
<g id="edge6" class="edge">
<title>Node2&#45;&gt;Node7</title>
<path fill="none" stroke="midnightblue" d="M925.67,-407.76C846.81,-398.57 659.19,-376.68 561.12,-365.25"/>
<polygon fill="midnightblue" stroke="midnightblue" points="561.4,-361.75 551.06,-364.07 560.59,-368.71 561.4,-361.75"/>
</g>
<!-- Node12 -->
<g id="node12" class="node">
<title>Node12</title>
<g id="a_node12"><a xlink:href="Plant_8h.html" target="_top" xlink:title="Defines the abstract base class for all Plant objects used in the system.">
<polygon fill="white" stroke="black" points="922,-123.5 922,-142.5 972,-142.5 972,-123.5 922,-123.5"/>
<text text-anchor="middle" x="947" y="-130.5" font-family="Helvetica,sans-Serif" font-size="10.00">Plant.h</text>
</a>
</g>
</g>
<!-- Node2&#45;&gt;Node12 -->
<g id="edge63" class="edge">
<title>Node2&#45;&gt;Node12</title>
<path fill="none" stroke="midnightblue" d="M962,-403.44C962,-384.94 962,-339.81 962,-302 962,-302 962,-302 962,-244 962,-211.5 955.49,-174.1 951.05,-152.34"/>
<polygon fill="midnightblue" stroke="midnightblue" points="954.46,-151.56 948.96,-142.5 947.61,-153.01 954.46,-151.56"/>
</g>
<!-- Node17 -->
<g id="node17" class="node">
<title>Node17</title>
<g id="a_node17"><a xlink:title=" ">
<polygon fill="white" stroke="#bfbfbf" points="1595,-67.5 1595,-86.5 1705,-86.5 1705,-67.5 1595,-67.5"/>
<text text-anchor="middle" x="1650" y="-74.5" font-family="Helvetica,sans-Serif" font-size="10.00">nlohmann/json.hpp</text>
</a>
</g>
</g>
<!-- Node2&#45;&gt;Node17 -->
<g id="edge64" class="edge">
<title>Node2&#45;&gt;Node17</title>
<path fill="none" stroke="midnightblue" d="M996.87,-403.4C1041.75,-390 1114,-359.49 1114,-302 1114,-302 1114,-302 1114,-188 1114,-140.46 1441.79,-100 1584.69,-84.62"/>
<polygon fill="midnightblue" stroke="midnightblue" points="1585.09,-88.1 1594.66,-83.56 1584.34,-81.14 1585.09,-88.1"/>
</g>
<!-- Node7&#45;&gt;Node3 -->
<g id="edge7" class="edge">
<title>Node7&#45;&gt;Node3</title>
<path fill="none" stroke="midnightblue" d="M446.75,-351.51C376.19,-344.8 254.71,-330.8 215,-311 161.82,-284.49 150.28,-257.84 142,-199 137.29,-165.55 136.96,-156.54 141,-123 142.07,-114.11 144.29,-104.43 146.46,-96.34"/>
<polygon fill="midnightblue" stroke="midnightblue" points="149.89,-97.09 149.27,-86.51 143.16,-95.17 149.89,-97.09"/>
</g>
<!-- Node8 -->
<g id="node8" class="node">
<title>Node8</title>
<g id="a_node8"><a xlink:title=" ">
<polygon fill="white" stroke="#bfbfbf" points="270,-67.5 270,-86.5 334,-86.5 334,-67.5 270,-67.5"/>
<text text-anchor="middle" x="302" y="-74.5" font-family="Helvetica,sans-Serif" font-size="10.00">algorithm</text>
</a>
</g>
</g>
<!-- Node7&#45;&gt;Node8 -->
<g id="edge8" class="edge">
<title>Node7&#45;&gt;Node8</title>
<path fill="none" stroke="midnightblue" d="M493.04,-347.48C479.21,-327.69 443.81,-277.12 414,-235 377.87,-183.96 334.84,-123.82 314.21,-95.03"/>
<polygon fill="midnightblue" stroke="midnightblue" points="317.01,-92.93 308.34,-86.84 311.32,-97 317.01,-92.93"/>
</g>
<!-- Node9 -->
<g id="node9" class="node">
<title>Node9</title>
<g id="a_node9"><a xlink:title=" ">
<polygon fill="white" stroke="#bfbfbf" points="500.5,-291.5 500.5,-310.5 553.5,-310.5 553.5,-291.5 500.5,-291.5"/>
<text text-anchor="middle" x="527" y="-298.5" font-family="Helvetica,sans-Serif" font-size="10.00">cstddef</text>
</a>
</g>
</g>
<!-- Node7&#45;&gt;Node9 -->
<g id="edge9" class="edge">
<title>Node7&#45;&gt;Node9</title>
<path fill="none" stroke="midnightblue" d="M503.62,-347.08C507.46,-339.69 513.02,-328.95 517.76,-319.81"/>
<polygon fill="midnightblue" stroke="midnightblue" points="520.97,-321.24 522.46,-310.75 514.75,-318.02 520.97,-321.24"/>
</g>
<!-- Node10 -->
<g id="node10" class="node">
<title>Node10</title>
<g id="a_node10"><a xlink:href="SalesFloor_8h.html" target="_top" xlink:title=" ">
<polygon fill="white" stroke="black" points="224,-291.5 224,-310.5 300,-310.5 300,-291.5 224,-291.5"/>
<text text-anchor="middle" x="262" y="-298.5" font-family="Helvetica,sans-Serif" font-size="10.00">SalesFloor.h</text>
</a>
</g>
</g>
<!-- Node7&#45;&gt;Node10 -->
<g id="edge10" class="edge">
<title>Node7&#45;&gt;Node10</title>
<path fill="none" stroke="midnightblue" d="M461.45,-347.44C420.19,-338.04 353.86,-322.93 309.13,-312.74"/>
<polygon fill="midnightblue" stroke="midnightblue" points="309.91,-309.33 299.38,-310.52 308.35,-316.15 309.91,-309.33"/>
</g>
<!-- Node7&#45;&gt;Node12 -->
<g id="edge62" class="edge">
<title>Node7&#45;&gt;Node12</title>
<path fill="none" stroke="midnightblue" d="M547.37,-347.44C628.83,-330.97 795.24,-288.32 905,-199 920.43,-186.44 932.06,-166.67 939.13,-152.23"/>
<polygon fill="midnightblue" stroke="midnightblue" points="942.45,-153.38 943.45,-142.83 936.09,-150.45 942.45,-153.38"/>
</g>
<!-- Node10&#45;&gt;Node3 -->
<g id="edge59" class="edge">
<title>Node10&#45;&gt;Node3</title>
<path fill="none" stroke="midnightblue" d="M226.18,-291.38C206.66,-284.75 183.91,-273.5 171,-255 137.16,-206.5 143.29,-131.6 148.55,-96.88"/>
<polygon fill="midnightblue" stroke="midnightblue" points="152.05,-97.17 150.24,-86.73 145.14,-96.02 152.05,-97.17"/>
</g>
<!-- Node11 -->
<g id="node11" class="node">
<title>Node11</title>
<g id="a_node11"><a xlink:href="Inventory_8h_source.html" target="_top" xlink:title=" ">
<polygon fill="white" stroke="black" points="256.5,-179.5 256.5,-198.5 327.5,-198.5 327.5,-179.5 256.5,-179.5"/>
<text text-anchor="middle" x="292" y="-186.5" font-family="Helvetica,sans-Serif" font-size="10.00">Inventory.h</text>
</a>
</g>
</g>
<!-- Node10&#45;&gt;Node11 -->
<g id="edge11" class="edge">
<title>Node10&#45;&gt;Node11</title>
<path fill="none" stroke="midnightblue" d="M264.35,-291.37C269.22,-273.54 280.46,-232.3 287.02,-208.27"/>
<polygon fill="midnightblue" stroke="midnightblue" points="290.4,-209.16 289.66,-198.59 283.65,-207.32 290.4,-209.16"/>
</g>
<!-- Node25 -->
<g id="node25" class="node">
<title>Node25</title>
<g id="a_node25"><a xlink:title=" ">
<polygon fill="white" stroke="#bfbfbf" points="171.5,-6 171.5,-25 236.5,-25 236.5,-6 171.5,-6"/>
<text text-anchor="middle" x="204" y="-13" font-family="Helvetica,sans-Serif" font-size="10.00">stdexcept</text>
</a>
</g>
</g>
<!-- Node10&#45;&gt;Node25 -->
<g id="edge61" class="edge">
<title>Node10&#45;&gt;Node25</title>
<path fill="none" stroke="midnightblue" d="M223.77,-292.41C201.31,-286.05 174.08,-274.71 157,-255 140.13,-235.52 147.93,-224.08 142,-199 128.3,-141.05 89.55,-118.76 119,-67 129.17,-49.13 148.44,-36.92 166.06,-28.99"/>
<polygon fill="midnightblue" stroke="midnightblue" points="167.73,-32.09 175.62,-25.02 165.04,-25.63 167.73,-32.09"/>
</g>
<!-- Node30 -->
<g id="node30" class="node">
<title>Node30</title>
<g id="a_node30"><a xlink:href="TransactionHistory_8h.html" target="_top" xlink:title=" ">
<polygon fill="white" stroke="black" points="290.5,-235.5 290.5,-254.5 405.5,-254.5 405.5,-235.5 290.5,-235.5"/>
<text text-anchor="middle" x="348" y="-242.5" font-family="Helvetica,sans-Serif" font-size="10.00">TransactionHistory.h</text>
</a>
</g>
</g>
<!-- Node10&#45;&gt;Node30 -->
<g id="edge47" class="edge">
<title>Node10&#45;&gt;Node30</title>
<path fill="none" stroke="midnightblue" d="M275.82,-291.32C289.23,-282.9 309.82,-269.97 325.59,-260.07"/>
<polygon fill="midnightblue" stroke="midnightblue" points="327.61,-262.94 334.22,-254.65 323.89,-257.01 327.61,-262.94"/>
</g>
<!-- Node32 -->
<g id="node32" class="node">
<title>Node32</title>
<g id="a_node32"><a xlink:href="Ledger_8h_source.html" target="_top" xlink:title=" ">
<polygon fill="white" stroke="black" points="838,-179.5 838,-198.5 896,-198.5 896,-179.5 838,-179.5"/>
<text text-anchor="middle" x="867" y="-186.5" font-family="Helvetica,sans-Serif" font-size="10.00">Ledger.h</text>
</a>
</g>
</g>
<!-- Node10&#45;&gt;Node32 -->
<g id="edge58" class="edge">
<title>Node10&#45;&gt;Node32</title>
<path fill="none" stroke="midnightblue" d="M300.23,-293.52C391.16,-278.01 627.43,-237.23 824,-199 825.26,-198.75 826.55,-198.5 827.84,-198.24"/>
<polygon fill="midnightblue" stroke="midnightblue" points="828.77,-201.63 837.88,-196.21 827.38,-194.77 828.77,-201.63"/>
</g>
<!-- Node33 -->
<g id="node33" class="node">
<title>Node33</title>
<g id="a_node33"><a xlink:title=" ">
<polygon fill="white" stroke="#bfbfbf" points="180,-235.5 180,-254.5 234,-254.5 234,-235.5 180,-235.5"/>
<text text-anchor="middle" x="207" y="-242.5" font-family="Helvetica,sans-Serif" font-size="10.00">random</text>
</a>
</g>
</g>
<!-- Node10&#45;&gt;Node33 -->
<g id="edge60" class="edge">
<title>Node10&#45;&gt;Node33</title>
<path fill="none" stroke="midnightblue" d="M252.92,-291.08C244.83,-283.14 232.8,-271.34 223.09,-261.8"/>
<polygon fill="midnightblue" stroke="midnightblue" points="225.5,-259.26 215.91,-254.75 220.6,-264.25 225.5,-259.26"/>
</g>
<!-- Node11&#45;&gt;Node3 -->
<g id="edge45" class="edge">
<title>Node11&#45;&gt;Node3</title>
<path fill="none" stroke="midnightblue" d="M281.01,-179.37C257.19,-160.65 200.56,-116.15 170.88,-92.83"/>
<polygon fill="midnightblue" stroke="midnightblue" points="172.96,-90.02 162.93,-86.59 168.64,-95.52 172.96,-90.02"/>
</g>
<!-- Node11&#45;&gt;Node4 -->
<g id="edge46" class="edge">
<title>Node11&#45;&gt;Node4</title>
<path fill="none" stroke="midnightblue" d="M304.16,-179.22C336.29,-156.5 426.86,-95.54 512,-67 623.9,-29.49 765.24,-19.83 827.75,-17.35"/>
<polygon fill="midnightblue" stroke="midnightblue" points="827.92,-20.85 837.79,-16.99 827.67,-13.85 827.92,-20.85"/>
</g>
<!-- Node11&#45;&gt;Node12 -->
<g id="edge12" class="edge">
<title>Node11&#45;&gt;Node12</title>
<path fill="none" stroke="midnightblue" d="M327.68,-185.06C441.86,-175.65 797.45,-146.33 911.45,-136.93"/>
<polygon fill="midnightblue" stroke="midnightblue" points="912.03,-140.39 921.71,-136.08 911.46,-133.42 912.03,-140.39"/>
</g>
<!-- Node12&#45;&gt;Node3 -->
<g id="edge15" class="edge">
<title>Node12&#45;&gt;Node3</title>
<path fill="none" stroke="midnightblue" d="M921.76,-130.5C831.88,-125.12 518.99,-106.11 261,-87 235.89,-85.14 207.55,-82.79 186.06,-80.96"/>
<polygon fill="midnightblue" stroke="midnightblue" points="186.07,-77.45 175.81,-80.08 185.47,-84.42 186.07,-77.45"/>
</g>
<!-- Node12&#45;&gt;Node4 -->
<g id="edge13" class="edge">
<title>Node12&#45;&gt;Node4</title>
<path fill="none" stroke="midnightblue" d="M948.86,-123.26C951.17,-110.04 953.63,-84.62 943,-67 936.43,-56.12 908.84,-40.55 887.24,-29.58"/>
<polygon fill="midnightblue" stroke="midnightblue" points="888.65,-26.37 878.14,-25.04 885.53,-32.64 888.65,-26.37"/>
</g>
<!-- Node12&#45;&gt;Node5 -->
<g id="edge17" class="edge">
<title>Node12&#45;&gt;Node5</title>
<path fill="none" stroke="midnightblue" d="M921.89,-131.14C843.45,-128.17 604,-116.81 533,-87 503.93,-74.8 476.96,-49.48 461.23,-32.74"/>
<polygon fill="midnightblue" stroke="midnightblue" points="463.78,-30.34 454.46,-25.31 458.61,-35.06 463.78,-30.34"/>
</g>
<!-- Node12&#45;&gt;Node8 -->
<g id="edge16" class="edge">
<title>Node12&#45;&gt;Node8</title>
<path fill="none" stroke="midnightblue" d="M921.83,-131.4C839.98,-129.19 573.87,-119.88 344.36,-86.99"/>
<polygon fill="midnightblue" stroke="midnightblue" points="344.55,-83.48 334.15,-85.51 343.54,-90.41 344.55,-83.48"/>
</g>
<!-- Node13 -->
<g id="node13" class="node">
<title>Node13</title>
<g id="a_node13"><a xlink:title=" ">
<polygon fill="white" stroke="#bfbfbf" points="1162,-67.5 1162,-86.5 1200,-86.5 1200,-67.5 1162,-67.5"/>
<text text-anchor="middle" x="1181" y="-74.5" font-family="Helvetica,sans-Serif" font-size="10.00">map</text>
</a>
</g>
</g>
<!-- Node12&#45;&gt;Node13 -->
<g id="edge14" class="edge">
<title>Node12&#45;&gt;Node13</title>
<path fill="none" stroke="midnightblue" d="M972.16,-126.76C1010.3,-118.72 1085.01,-102.63 1148,-87 1149.26,-86.69 1150.55,-86.36 1151.86,-86.03"/>
<polygon fill="midnightblue" stroke="midnightblue" points="1153.07,-89.33 1161.84,-83.38 1151.28,-82.56 1153.07,-89.33"/>
</g>
<!-- Node14 -->
<g id="node14" class="node">
<title>Node14</title>
<g id="a_node14"><a xlink:title=" ">
<polygon fill="white" stroke="#bfbfbf" points="1218.5,-67.5 1218.5,-86.5 1331.5,-86.5 1331.5,-67.5 1218.5,-67.5"/>
<text text-anchor="middle" x="1275" y="-74.5" font-family="Helvetica,sans-Serif" font-size="10.00">boost/uuid/uuid.hpp</text>
</a>
</g>
</g>
<!-- Node12&#45;&gt;Node14 -->
<g id="edge18" class="edge">
<title>Node12&#45;&gt;Node14</title>
<path fill="none" stroke="midnightblue" d="M972.19,-127.85C1023.34,-119.43 1140.65,-100.12 1213.33,-88.15"/>
<polygon fill="midnightblue" stroke="midnightblue" points="1213.97,-91.59 1223.27,-86.52 1212.84,-84.69 1213.97,-91.59"/>
</g>
<!-- Node15 -->
<g id="node15" class="node">
<title>Node15</title>
<g id="a_node15"><a xlink:title=" ">
<polygon fill="white" stroke="#bfbfbf" points="542,-67.5 542,-86.5 712,-86.5 712,-67.5 542,-67.5"/>
<text text-anchor="middle" x="627" y="-74.5" font-family="Helvetica,sans-Serif" font-size="10.00">boost/uuid/uuid_generators.hpp</text>
</a>
</g>
</g>
<!-- Node12&#45;&gt;Node15 -->
<g id="edge19" class="edge">
<title>Node12&#45;&gt;Node15</title>
<path fill="none" stroke="midnightblue" d="M921.89,-127.76C871.83,-119.31 758.33,-100.16 687.65,-88.23"/>
<polygon fill="midnightblue" stroke="midnightblue" points="687.99,-84.74 677.54,-86.53 686.82,-91.64 687.99,-84.74"/>
</g>
<!-- Node16 -->
<g id="node16" class="node">
<title>Node16</title>
<g id="a_node16"><a xlink:title=" ">
<polygon fill="white" stroke="#bfbfbf" points="730.5,-67.5 730.5,-86.5 857.5,-86.5 857.5,-67.5 730.5,-67.5"/>
<text text-anchor="middle" x="794" y="-74.5" font-family="Helvetica,sans-Serif" font-size="10.00">boost/uuid/uuid_io.hpp</text>
</a>
</g>
</g>
<!-- Node12&#45;&gt;Node16 -->
<g id="edge20" class="edge">
<title>Node12&#45;&gt;Node16</title>
<path fill="none" stroke="midnightblue" d="M922.76,-123.44C897.13,-114.4 856.51,-100.06 827.76,-89.92"/>
<polygon fill="midnightblue" stroke="midnightblue" points="828.72,-86.54 818.13,-86.52 826.39,-93.15 828.72,-86.54"/>
</g>
<!-- Node12&#45;&gt;Node17 -->
<g id="edge21" class="edge">
<title>Node12&#45;&gt;Node17</title>
<path fill="none" stroke="midnightblue" d="M972.28,-128.71C987.29,-126.84 1006.71,-124.57 1024,-123 1271.06,-100.59 1334.1,-111.06 1581,-87 1582.11,-86.89 1583.23,-86.78 1584.36,-86.66"/>
<polygon fill="midnightblue" stroke="midnightblue" points="1585.11,-90.1 1594.67,-85.54 1584.35,-83.14 1585.11,-90.1"/>
</g>
<!-- Node18 -->
<g id="node18" class="node">
<title>Node18</title>
<g id="a_node18"><a xlink:title=" ">
<polygon fill="white" stroke="#bfbfbf" points="1409,-6 1409,-25 1457,-25 1457,-6 1409,-6"/>
<text text-anchor="middle" x="1433" y="-13" font-family="Helvetica,sans-Serif" font-size="10.00">thread</text>
</a>
</g>
</g>
<!-- Node12&#45;&gt;Node18 -->
<g id="edge22" class="edge">
<title>Node12&#45;&gt;Node18</title>
<path fill="none" stroke="midnightblue" d="M972.29,-128.81C987.3,-126.98 1006.72,-124.7 1024,-123 1073.7,-118.1 1438.13,-123.7 1472,-87 1487.16,-70.57 1468.19,-47.17 1451.79,-31.91"/>
<polygon fill="midnightblue" stroke="midnightblue" points="1453.93,-29.13 1444.11,-25.14 1449.3,-34.38 1453.93,-29.13"/>
</g>
<!-- Node19 -->
<g id="node19" class="node">
<title>Node19</title>
<g id="a_node19"><a xlink:title=" ">
<polygon fill="white" stroke="#bfbfbf" points="1475,-6 1475,-25 1525,-25 1525,-6 1475,-6"/>
<text text-anchor="middle" x="1500" y="-13" font-family="Helvetica,sans-Serif" font-size="10.00">atomic</text>
</a>
</g>
</g>
<!-- Node12&#45;&gt;Node19 -->
<g id="edge23" class="edge">
<title>Node12&#45;&gt;Node19</title>
<path fill="none" stroke="midnightblue" d="M972.29,-128.79C987.3,-126.95 1006.72,-124.68 1024,-123 1075.47,-118 1449.81,-121.86 1488,-87 1502.01,-74.21 1503.57,-51.59 1502.55,-35.41"/>
<polygon fill="midnightblue" stroke="midnightblue" points="1506.04,-35.05 1501.56,-25.45 1499.07,-35.75 1506.04,-35.05"/>
</g>
<!-- Node20 -->
<g id="node20" class="node">
<title>Node20</title>
<g id="a_node20"><a xlink:href="GreenSock_8h.html" target="_top" xlink:title=" ">
<polygon fill="white" stroke="black" points="1028,-67.5 1028,-86.5 1106,-86.5 1106,-67.5 1028,-67.5"/>
<text text-anchor="middle" x="1067" y="-74.5" font-family="Helvetica,sans-Serif" font-size="10.00">GreenSock.h</text>
</a>
</g>
</g>
<!-- Node12&#45;&gt;Node20 -->
<g id="edge24" class="edge">
<title>Node12&#45;&gt;Node20</title>
<path fill="none" stroke="midnightblue" d="M966.01,-123.44C985.59,-114.64 1016.31,-100.81 1038.73,-90.72"/>
<polygon fill="midnightblue" stroke="midnightblue" points="1040.39,-93.81 1048.07,-86.52 1037.52,-87.43 1040.39,-93.81"/>
</g>
<!-- Node23 -->
<g id="node23" class="node">
<title>Node23</title>
<g id="a_node23"><a xlink:title=" ">
<polygon fill="white" stroke="#bfbfbf" points="1184,-6 1184,-25 1232,-25 1232,-6 1184,-6"/>
<text text-anchor="middle" x="1208" y="-13" font-family="Helvetica,sans-Serif" font-size="10.00">mutex</text>
</a>
</g>
</g>
<!-- Node12&#45;&gt;Node23 -->
<g id="edge44" class="edge">
<title>Node12&#45;&gt;Node23</title>
<path fill="none" stroke="midnightblue" d="M972.27,-128.36C1006.11,-122.8 1067.4,-110.3 1115,-87 1144.4,-72.61 1173.73,-48.3 1191.37,-32.33"/>
<polygon fill="midnightblue" stroke="midnightblue" points="1194.08,-34.6 1199.04,-25.24 1189.32,-29.46 1194.08,-34.6"/>
</g>
<!-- Node24 -->
<g id="node24" class="node">
<title>Node24</title>
<g id="a_node24"><a xlink:href="Logger_8h.html" target="_top" xlink:title="Header for Strategy Logger.">
<polygon fill="white" stroke="black" points="352,-67.5 352,-86.5 410,-86.5 410,-67.5 352,-67.5"/>
<text text-anchor="middle" x="381" y="-74.5" font-family="Helvetica,sans-Serif" font-size="10.00">Logger.h</text>
</a>
</g>
</g>
<!-- Node12&#45;&gt;Node24 -->
<g id="edge30" class="edge">
<title>Node12&#45;&gt;Node24</title>
<path fill="none" stroke="midnightblue" d="M921.95,-129.61C832.61,-121.09 529.15,-92.13 420.28,-81.75"/>
<polygon fill="midnightblue" stroke="midnightblue" points="420.35,-78.24 410.07,-80.77 419.69,-85.21 420.35,-78.24"/>
</g>
<!-- Node26 -->
<g id="node26" class="node">
<title>Node26</title>
<g id="a_node26"><a xlink:href="ThreadSafeQueue_8h_source.html" target="_top" xlink:title=" ">
<polygon fill="white" stroke="black" points="1349.5,-67.5 1349.5,-86.5 1462.5,-86.5 1462.5,-67.5 1349.5,-67.5"/>
<text text-anchor="middle" x="1406" y="-74.5" font-family="Helvetica,sans-Serif" font-size="10.00">ThreadSafeQueue.h</text>
</a>
</g>
</g>
<!-- Node12&#45;&gt;Node26 -->
<g id="edge34" class="edge">
<title>Node12&#45;&gt;Node26</title>
<path fill="none" stroke="midnightblue" d="M972.31,-129.02C987.33,-127.26 1006.75,-124.99 1024,-123 1161.56,-107.15 1198.6,-104.83 1339,-87.23"/>
<polygon fill="midnightblue" stroke="midnightblue" points="1339.81,-90.66 1349.29,-85.94 1338.93,-83.71 1339.81,-90.66"/>
</g>
<!-- Node27 -->
<g id="node27" class="node">
<title>Node27</title>
<g id="a_node27"><a xlink:title=" ">
<polygon fill="white" stroke="#bfbfbf" points="1543.5,-6 1543.5,-25 1590.5,-25 1590.5,-6 1543.5,-6"/>
<text text-anchor="middle" x="1567" y="-13" font-family="Helvetica,sans-Serif" font-size="10.00">queue</text>
</a>
</g>
</g>
<!-- Node12&#45;&gt;Node27 -->
<g id="edge42" class="edge">
<title>Node12&#45;&gt;Node27</title>
<path fill="none" stroke="midnightblue" d="M972.29,-128.77C987.3,-126.93 1006.72,-124.65 1024,-123 1131.14,-112.75 1411.04,-135.75 1507,-87 1529.76,-75.44 1547.37,-51.09 1557.47,-34.26"/>
<polygon fill="midnightblue" stroke="midnightblue" points="1560.62,-35.81 1562.52,-25.38 1554.53,-32.34 1560.62,-35.81"/>
</g>
<!-- Node29 -->
<g id="node29" class="node">
<title>Node29</title>
<g id="a_node29"><a xlink:title=" ">
<polygon fill="white" stroke="#bfbfbf" points="876,-67.5 876,-86.5 934,-86.5 934,-67.5 876,-67.5"/>
<text text-anchor="middle" x="905" y="-74.5" font-family="Helvetica,sans-Serif" font-size="10.00">memory</text>
</a>
</g>
</g>
<!-- Node12&#45;&gt;Node29 -->
<g id="edge43" class="edge">
<title>Node12&#45;&gt;Node29</title>
<path fill="none" stroke="midnightblue" d="M940.06,-123.08C934.07,-115.38 925.25,-104.03 917.95,-94.65"/>
<polygon fill="midnightblue" stroke="midnightblue" points="920.71,-92.5 911.81,-86.75 915.18,-96.79 920.71,-92.5"/>
</g>
<!-- Node20&#45;&gt;Node4 -->
<g id="edge28" class="edge">
<title>Node20&#45;&gt;Node4</title>
<path fill="none" stroke="midnightblue" d="M1027.92,-68.21C991.83,-60.5 937.02,-47.48 891,-31 889.38,-30.42 887.74,-29.79 886.09,-29.12"/>
<polygon fill="midnightblue" stroke="midnightblue" points="887.38,-25.86 876.81,-25.06 884.57,-32.28 887.38,-25.86"/>
</g>
<!-- Node20&#45;&gt;Node5 -->
<g id="edge27" class="edge">
<title>Node20&#45;&gt;Node5</title>
<path fill="none" stroke="midnightblue" d="M1027.75,-72.23C916.47,-61.55 599.79,-31.16 487.27,-20.36"/>
<polygon fill="midnightblue" stroke="midnightblue" points="487.32,-16.85 477.04,-19.38 486.66,-23.82 487.32,-16.85"/>
</g>
<!-- Node21 -->
<g id="node21" class="node">
<title>Node21</title>
<g id="a_node21"><a xlink:title=" ">
<polygon fill="white" stroke="#bfbfbf" points="900.5,-0.5 900.5,-30.5 1013.5,-30.5 1013.5,-0.5 900.5,-0.5"/>
<text text-anchor="start" x="908.5" y="-18.5" font-family="Helvetica,sans-Serif" font-size="10.00">websocketpp/config</text>
<text text-anchor="middle" x="957" y="-7.5" font-family="Helvetica,sans-Serif" font-size="10.00">/asio_no_tls.hpp</text>
</a>
</g>
</g>
<!-- Node20&#45;&gt;Node21 -->
<g id="edge25" class="edge">
<title>Node20&#45;&gt;Node21</title>
<path fill="none" stroke="midnightblue" d="M1051.24,-67.48C1035.78,-59.12 1011.7,-46.09 991.75,-35.3"/>
<polygon fill="midnightblue" stroke="midnightblue" points="993.39,-32.2 982.92,-30.52 990.06,-38.36 993.39,-32.2"/>
</g>
<!-- Node22 -->
<g id="node22" class="node">
<title>Node22</title>
<g id="a_node22"><a xlink:title=" ">
<polygon fill="white" stroke="#bfbfbf" points="1032,-6 1032,-25 1166,-25 1166,-6 1032,-6"/>
<text text-anchor="middle" x="1099" y="-13" font-family="Helvetica,sans-Serif" font-size="10.00">websocketpp/server.hpp</text>
</a>
</g>
</g>
<!-- Node20&#45;&gt;Node22 -->
<g id="edge26" class="edge">
<title>Node20&#45;&gt;Node22</title>
<path fill="none" stroke="midnightblue" d="M1071.58,-67.48C1076.24,-58.82 1083.59,-45.15 1089.51,-34.15"/>
<polygon fill="midnightblue" stroke="midnightblue" points="1092.77,-35.47 1094.42,-25.01 1086.6,-32.16 1092.77,-35.47"/>
</g>
<!-- Node20&#45;&gt;Node23 -->
<g id="edge29" class="edge">
<title>Node20&#45;&gt;Node23</title>
<path fill="none" stroke="midnightblue" d="M1087.75,-67.49C1109.53,-58.53 1144.75,-43.95 1175,-31 1176.37,-30.42 1177.76,-29.81 1179.17,-29.2"/>
<polygon fill="midnightblue" stroke="midnightblue" points="1180.71,-32.35 1188.48,-25.15 1177.92,-25.93 1180.71,-32.35"/>
</g>
<!-- Node24&#45;&gt;Node4 -->
<g id="edge31" class="edge">
<title>Node24&#45;&gt;Node4</title>
<path fill="none" stroke="midnightblue" d="M410.08,-69.54C414.72,-68.62 419.48,-67.73 424,-67 573.89,-42.69 754.6,-25.63 827.34,-19.26"/>
<polygon fill="midnightblue" stroke="midnightblue" points="828.01,-22.71 837.67,-18.36 827.4,-15.74 828.01,-22.71"/>
</g>
<!-- Node24&#45;&gt;Node5 -->
<g id="edge32" class="edge">
<title>Node24&#45;&gt;Node5</title>
<path fill="none" stroke="midnightblue" d="M390.46,-67.48C400.75,-58.2 417.42,-43.17 429.99,-31.83"/>
<polygon fill="midnightblue" stroke="midnightblue" points="432.48,-34.3 437.56,-25.01 427.79,-29.11 432.48,-34.3"/>
</g>
<!-- Node24&#45;&gt;Node25 -->
<g id="edge33" class="edge">
<title>Node24&#45;&gt;Node25</title>
<path fill="none" stroke="midnightblue" d="M355.64,-67.48C325.02,-57.18 273.34,-39.81 238.95,-28.25"/>
<polygon fill="midnightblue" stroke="midnightblue" points="239.91,-24.88 229.31,-25.01 237.68,-31.51 239.91,-24.88"/>
</g>
<!-- Node26&#45;&gt;Node4 -->
<g id="edge40" class="edge">
<title>Node26&#45;&gt;Node4</title>
<path fill="none" stroke="midnightblue" d="M1349.3,-67.95C1346.5,-67.62 1343.72,-67.3 1341,-67 1141.55,-45.23 1084.96,-82.32 891,-31 889.02,-30.48 887.01,-29.83 885.01,-29.1"/>
<polygon fill="midnightblue" stroke="midnightblue" points="885.93,-25.69 875.36,-25.01 883.2,-32.14 885.93,-25.69"/>
</g>
<!-- Node26&#45;&gt;Node5 -->
<g id="edge35" class="edge">
<title>Node26&#45;&gt;Node5</title>
<path fill="none" stroke="midnightblue" d="M1349.31,-67.87C1346.5,-67.56 1343.72,-67.26 1341,-67 1012.5,-35.03 613.98,-21.35 487.52,-17.62"/>
<polygon fill="midnightblue" stroke="midnightblue" points="487.26,-14.11 477.17,-17.32 487.06,-21.11 487.26,-14.11"/>
</g>
<!-- Node26&#45;&gt;Node18 -->
<g id="edge36" class="edge">
<title>Node26&#45;&gt;Node18</title>
<path fill="none" stroke="midnightblue" d="M1409.87,-67.48C1413.8,-58.82 1420,-45.15 1424.99,-34.15"/>
<polygon fill="midnightblue" stroke="midnightblue" points="1428.19,-35.56 1429.14,-25.01 1421.82,-32.67 1428.19,-35.56"/>
</g>
<!-- Node26&#45;&gt;Node19 -->
<g id="edge41" class="edge">
<title>Node26&#45;&gt;Node19</title>
<path fill="none" stroke="midnightblue" d="M1419.47,-67.48C1434.68,-57.84 1459.69,-42.02 1477.8,-30.55"/>
<polygon fill="midnightblue" stroke="midnightblue" points="1479.98,-33.31 1486.56,-25.01 1476.24,-27.4 1479.98,-33.31"/>
</g>
<!-- Node26&#45;&gt;Node23 -->
<g id="edge38" class="edge">
<title>Node26&#45;&gt;Node23</title>
<path fill="none" stroke="midnightblue" d="M1377.63,-67.48C1341.8,-56.71 1280.22,-38.2 1241.94,-26.7"/>
<polygon fill="midnightblue" stroke="midnightblue" points="1242.85,-23.32 1232.27,-23.79 1240.84,-30.02 1242.85,-23.32"/>
</g>
<!-- Node26&#45;&gt;Node27 -->
<g id="edge37" class="edge">
<title>Node26&#45;&gt;Node27</title>
<path fill="none" stroke="midnightblue" d="M1432.2,-67.44C1458.22,-58.78 1499.16,-44.75 1534,-31 1535.6,-30.37 1537.24,-29.7 1538.89,-29.02"/>
<polygon fill="midnightblue" stroke="midnightblue" points="1540.43,-32.17 1548.26,-25.03 1537.68,-25.73 1540.43,-32.17"/>
</g>
<!-- Node28 -->
<g id="node28" class="node">
<title>Node28</title>
<g id="a_node28"><a xlink:title=" ">
<polygon fill="white" stroke="#bfbfbf" points="1283.5,-6 1283.5,-25 1390.5,-25 1390.5,-6 1283.5,-6"/>
<text text-anchor="middle" x="1337" y="-13" font-family="Helvetica,sans-Serif" font-size="10.00">condition_variable</text>
</a>
</g>
</g>
<!-- Node26&#45;&gt;Node28 -->
<g id="edge39" class="edge">
<title>Node26&#45;&gt;Node28</title>
<path fill="none" stroke="midnightblue" d="M1396.11,-67.48C1385.35,-58.2 1367.93,-43.17 1354.78,-31.83"/>
<polygon fill="midnightblue" stroke="midnightblue" points="1356.73,-28.89 1346.87,-25.01 1352.16,-34.19 1356.73,-28.89"/>
</g>
<!-- Node30&#45;&gt;Node3 -->
<g id="edge55" class="edge">
<title>Node30&#45;&gt;Node3</title>
<path fill="none" stroke="midnightblue" d="M292.96,-235.5C266.65,-229.11 236.13,-218.05 214,-199 197.2,-184.54 171.67,-126.15 159.27,-96.08"/>
<polygon fill="midnightblue" stroke="midnightblue" points="162.48,-94.69 155.47,-86.75 156,-97.33 162.48,-94.69"/>
</g>
<!-- Node30&#45;&gt;Node5 -->
<g id="edge54" class="edge">
<title>Node30&#45;&gt;Node5</title>
<path fill="none" stroke="midnightblue" d="M347.75,-235.17C347.08,-222.27 344.67,-197.75 336,-179 310.85,-124.63 224.61,-114.59 261,-67 278.6,-43.98 357.51,-29 406.72,-21.71"/>
<polygon fill="midnightblue" stroke="midnightblue" points="407.34,-25.16 416.74,-20.27 406.34,-18.23 407.34,-25.16"/>
</g>
<!-- Node30&#45;&gt;Node11 -->
<g id="edge53" class="edge">
<title>Node30&#45;&gt;Node11</title>
<path fill="none" stroke="midnightblue" d="M339,-235.32C330.81,-227.42 318.49,-215.55 308.53,-205.94"/>
<polygon fill="midnightblue" stroke="midnightblue" points="310.79,-203.26 301.16,-198.83 305.93,-208.29 310.79,-203.26"/>
</g>
<!-- Node30&#45;&gt;Node17 -->
<g id="edge57" class="edge">
<title>Node30&#45;&gt;Node17</title>
<path fill="none" stroke="midnightblue" d="M405.59,-237.09C517.32,-223.19 770.96,-189.18 981,-143 1013.02,-135.96 1019.72,-128.7 1052,-123 1263.11,-85.75 1319.24,-103.22 1533,-87 1549.74,-85.73 1567.82,-84.34 1584.65,-83.05"/>
<polygon fill="midnightblue" stroke="midnightblue" points="1585.24,-86.52 1594.95,-82.26 1584.71,-79.54 1585.24,-86.52"/>
</g>
<!-- Node30&#45;&gt;Node25 -->
<g id="edge56" class="edge">
<title>Node30&#45;&gt;Node25</title>
<path fill="none" stroke="midnightblue" d="M308.5,-235.46C287.33,-228.91 262.49,-217.7 247,-199 206.91,-150.58 202.84,-71.37 203.25,-35.37"/>
<polygon fill="midnightblue" stroke="midnightblue" points="206.75,-35.38 203.51,-25.29 199.76,-35.2 206.75,-35.38"/>
</g>
<!-- Node31 -->
<g id="node31" class="node">
<title>Node31</title>
<g id="a_node31"><a xlink:href="TransactionMem_8h.html" target="_top" xlink:title=" ">
<polygon fill="white" stroke="black" points="428,-179.5 428,-198.5 534,-198.5 534,-179.5 428,-179.5"/>
<text text-anchor="middle" x="481" y="-186.5" font-family="Helvetica,sans-Serif" font-size="10.00">TransactionMem.h</text>
</a>
</g>
</g>
<!-- Node30&#45;&gt;Node31 -->
<g id="edge48" class="edge">
<title>Node30&#45;&gt;Node31</title>
<path fill="none" stroke="midnightblue" d="M369.07,-235.44C391.06,-226.52 425.73,-212.44 450.66,-202.32"/>
<polygon fill="midnightblue" stroke="midnightblue" points="452.08,-205.52 460.02,-198.52 449.44,-199.04 452.08,-205.52"/>
</g>
<!-- Node30&#45;&gt;Node32 -->
<g id="edge51" class="edge">
<title>Node30&#45;&gt;Node32</title>
<path fill="none" stroke="midnightblue" d="M405.75,-236.6C410.57,-236.04 415.37,-235.5 420,-235 599.24,-215.82 645.69,-225.51 824,-199 825.27,-198.81 826.57,-198.61 827.87,-198.39"/>
<polygon fill="midnightblue" stroke="midnightblue" points="828.72,-201.79 837.94,-196.57 827.47,-194.91 828.72,-201.79"/>
</g>
<!-- Node31&#45;&gt;Node4 -->
<g id="edge50" class="edge">
<title>Node31&#45;&gt;Node4</title>
<path fill="none" stroke="midnightblue" d="M481.91,-179.26C484.78,-156.62 495.76,-95.84 533,-67 578.66,-31.63 754.39,-20.67 827.64,-17.59"/>
<polygon fill="midnightblue" stroke="midnightblue" points="827.83,-21.09 837.68,-17.19 827.55,-14.09 827.83,-21.09"/>
</g>
<!-- Node31&#45;&gt;Node12 -->
<g id="edge49" class="edge">
<title>Node31&#45;&gt;Node12</title>
<path fill="none" stroke="midnightblue" d="M534,-181.86C630,-170.73 830.24,-147.53 911.54,-138.11"/>
<polygon fill="midnightblue" stroke="midnightblue" points="912.22,-141.55 921.76,-136.93 911.42,-134.6 912.22,-141.55"/>
</g>
<!-- Node32&#45;&gt;Node17 -->
<g id="edge52" class="edge">
<title>Node32&#45;&gt;Node17</title>
<path fill="none" stroke="midnightblue" d="M896.23,-182.36C933.03,-174.93 997.97,-160.71 1052,-143 1073.96,-135.8 1077.54,-128.45 1100,-123 1111.65,-120.17 1441.43,-94.25 1584.65,-83.08"/>
<polygon fill="midnightblue" stroke="midnightblue" points="1584.93,-86.57 1594.63,-82.3 1584.39,-79.59 1584.93,-86.57"/>
</g>
</g>
</svg>
        <g id="navigator" transform="translate(0 0)" fill="#404254">
                <rect fill="#f2f5e9" fill-opacity="0.5" stroke="#606060" stroke-width=".5" x="0" y="0" width="60" height="60"/>
                <use id="zoomplus" xlink:href="#zoomPlus" x="17" y="9" onmousedown="handleZoom(evt,'in')"/>
                <use id="zoomminus" xlink:href="#zoomMin" x="42" y="9" onmousedown="handleZoom(evt,'out')"/>
                <use id="reset" xlink:href="#resetDef" x="30" y="36" onmousedown="handleReset()"/>
                <g id="arrowUp" xlink:href="#dirArrow" transform="translate(30 24)" onmousedown="handlePan(0,-1)">
                  <use xlink:href="#rim" fill="#404040">
                        <set attributeName="fill" to="#808080" begin="arrowUp.mouseover" end="arrowUp.mouseout"/>
                  </use>
                  <path fill="none" stroke="white" stroke-width="1.5" d="M0,-3.0v7 M-2.5,-0.5L0,-3.0L2.5,-0.5"/>
                </g>
                <g id="arrowRight" xlink:href="#dirArrow" transform="rotate(90) translate(36 -43)" onmousedown="handlePan(1,0)">
                  <use xlink:href="#rim" fill="#404040">
                        <set attributeName="fill" to="#808080" begin="arrowRight.mouseover" end="arrowRight.mouseout"/>
                  </use>
                  <path fill="none" stroke="white" stroke-width="1.5" d="M0,-3.0v7 M-2.5,-0.5L0,-3.0L2.5,-0.5"/>
                </g>
                <g id="arrowDown" xlink:href="#dirArrow" transform="rotate(180) translate(-30 -48)" onmousedown="handlePan(0,1)">
                  <use xlink:href="#rim" fill="#404040">
                        <set attributeName="fill" to="#808080" begin="arrowDown.mouseover" end="arrowDown.mouseout"/>
                  </use>
                  <path fill="none" stroke="white" stroke-width="1.5" d="M0,-3.0v7 M-2.5,-0.5L0,-3.0L2.5,-0.5"/>
                </g>
                <g id="arrowLeft" xlink:href="#dirArrow" transform="rotate(270) translate(-36 17)" onmousedown="handlePan(-1,0)">
                  <use xlink:href="#rim" fill="#404040">
                        <set attributeName="fill" to="#808080" begin="arrowLeft.mouseover" end="arrowLeft.mouseout"/>
                  </use>
                  <path fill="none" stroke="white" stroke-width="1.5" d="M0,-3.0v7 M-2.5,-0.5L0,-3.0L2.5,-0.5"/>
                </g>
        </g>
        <svg viewBox="0 0 15 15" width="100%" height="30px" preserveAspectRatio="xMaxYMin meet">
         <g id="arrow_out" transform="scale(0.3 0.3)">
          <a xlink:href="AverageCustomer_8h__incl_org.svg" target="_base">
           <rect id="button" ry="5" rx="5" y="6" x="6" height="38" width="38"
                fill="#f2f5e9" fill-opacity="0.5" stroke="#606060" stroke-width="1.0"/>
           <path id="arrow"
             d="M 11.500037,31.436501 C 11.940474,20.09759 22.043105,11.32322 32.158766,21.979434 L 37.068811,17.246167 C 37.068811,17.246167 37.088388,32 37.088388,32 L 22.160133,31.978069 C 22.160133,31.978069 26.997745,27.140456 26.997745,27.140456 C 18.528582,18.264221 13.291696,25.230495 11.500037,31.436501 z"
             style="fill:#404040;"/>
          </a>
         </g>
        </svg>
</svg>
