<?xml version="1.0" encoding="UTF-8" standalone="no"?>
<!DOCTYPE svg PUBLIC "-//W3C//DTD SVG 1.1//EN"
 "http://www.w3.org/Graphics/SVG/1.1/DTD/svg11.dtd">
<!-- Generated by graphviz version 2.43.0 (0)
 -->
<!-- Title: backend/game/BasicLogger.h Pages: 1 -->
<svg width="391pt" height="140pt"
 viewBox="0.00 0.00 390.74 140.00" xmlns="http://www.w3.org/2000/svg" xmlns:xlink="http://www.w3.org/1999/xlink">
<g id="graph0" class="graph" transform="scale(1 1) rotate(0) translate(4 136)">
<title>backend/game/BasicLogger.h</title>
<polygon fill="white" stroke="transparent" points="-4,4 -4,-136 386.74,-136 386.74,4 -4,4"/>
<!-- Node1 -->
<g id="node1" class="node">
<title>Node1</title>
<g id="a_node1"><a xlink:title="Header file for BasicLogger ConcreteStrategy.">
<polygon fill="#bfbfbf" stroke="black" points="56.24,-112.5 56.24,-131.5 214.24,-131.5 214.24,-112.5 56.24,-112.5"/>
<text text-anchor="middle" x="135.24" y="-119.5" font-family="Helvetica,sans-Serif" font-size="10.00">backend/game/BasicLogger.h</text>
</a>
</g>
</g>
<!-- Node2 -->
<g id="node2" class="node">
<title>Node2</title>
<g id="a_node2"><a xlink:title=" ">
<polygon fill="white" stroke="#bfbfbf" points="85.24,-0.5 85.24,-19.5 145.24,-19.5 145.24,-0.5 85.24,-0.5"/>
<text text-anchor="middle" x="115.24" y="-7.5" font-family="Helvetica,sans-Serif" font-size="10.00">iostream</text>
</a>
</g>
</g>
<!-- Node1&#45;&gt;Node2 -->
<g id="edge1" class="edge">
<title>Node1&#45;&gt;Node2</title>
<path fill="none" stroke="midnightblue" d="M62.98,-112.42C40.82,-106.02 18.75,-94.97 5.24,-76 -15.95,-46.25 35.63,-27.88 75.14,-18.56"/>
<polygon fill="midnightblue" stroke="midnightblue" points="76.12,-21.92 85.12,-16.33 74.6,-15.09 76.12,-21.92"/>
</g>
<!-- Node3 -->
<g id="node3" class="node">
<title>Node3</title>
<g id="a_node3"><a xlink:title=" ">
<polygon fill="white" stroke="#bfbfbf" points="14.24,-56.5 14.24,-75.5 58.24,-75.5 58.24,-56.5 14.24,-56.5"/>
<text text-anchor="middle" x="36.24" y="-63.5" font-family="Helvetica,sans-Serif" font-size="10.00">ctime</text>
</a>
</g>
</g>
<!-- Node1&#45;&gt;Node3 -->
<g id="edge2" class="edge">
<title>Node1&#45;&gt;Node3</title>
<path fill="none" stroke="midnightblue" d="M119.33,-112.32C103.6,-103.74 79.3,-90.49 61.03,-80.52"/>
<polygon fill="midnightblue" stroke="midnightblue" points="62.56,-77.37 52.11,-75.65 59.21,-83.52 62.56,-77.37"/>
</g>
<!-- Node4 -->
<g id="node4" class="node">
<title>Node4</title>
<g id="a_node4"><a xlink:title=" ">
<polygon fill="white" stroke="#bfbfbf" points="76.24,-56.5 76.24,-75.5 126.24,-75.5 126.24,-56.5 76.24,-56.5"/>
<text text-anchor="middle" x="101.24" y="-63.5" font-family="Helvetica,sans-Serif" font-size="10.00">cstring</text>
</a>
</g>
</g>
<!-- Node1&#45;&gt;Node4 -->
<g id="edge3" class="edge">
<title>Node1&#45;&gt;Node4</title>
<path fill="none" stroke="midnightblue" d="M129.63,-112.08C124.87,-104.53 117.92,-93.49 112.09,-84.23"/>
<polygon fill="midnightblue" stroke="midnightblue" points="115.04,-82.35 106.75,-75.75 109.12,-86.08 115.04,-82.35"/>
</g>
<!-- Node5 -->
<g id="node5" class="node">
<title>Node5</title>
<g id="a_node5"><a xlink:title=" ">
<polygon fill="white" stroke="#bfbfbf" points="144.74,-56.5 144.74,-75.5 193.74,-75.5 193.74,-56.5 144.74,-56.5"/>
<text text-anchor="middle" x="169.24" y="-63.5" font-family="Helvetica,sans-Serif" font-size="10.00">cstdlib</text>
</a>
</g>
</g>
<!-- Node1&#45;&gt;Node5 -->
<g id="edge4" class="edge">
<title>Node1&#45;&gt;Node5</title>
<path fill="none" stroke="midnightblue" d="M140.85,-112.08C145.61,-104.53 152.56,-93.49 158.39,-84.23"/>
<polygon fill="midnightblue" stroke="midnightblue" points="161.36,-86.08 163.73,-75.75 155.44,-82.35 161.36,-86.08"/>
</g>
<!-- Node6 -->
<g id="node6" class="node">
<title>Node6</title>
<g id="a_node6"><a xlink:title=" ">
<polygon fill="white" stroke="#bfbfbf" points="211.74,-56.5 211.74,-75.5 266.74,-75.5 266.74,-56.5 211.74,-56.5"/>
<text text-anchor="middle" x="239.24" y="-63.5" font-family="Helvetica,sans-Serif" font-size="10.00">fstream</text>
</a>
</g>
</g>
<!-- Node1&#45;&gt;Node6 -->
<g id="edge5" class="edge">
<title>Node1&#45;&gt;Node6</title>
<path fill="none" stroke="midnightblue" d="M151.95,-112.32C168.55,-103.7 194.24,-90.36 213.46,-80.39"/>
<polygon fill="midnightblue" stroke="midnightblue" points="215.31,-83.37 222.57,-75.65 212.08,-77.16 215.31,-83.37"/>
</g>
<!-- Node7 -->
<g id="node7" class="node">
<title>Node7</title>
<g id="a_node7"><a xlink:href="Logger_8h.html" target="_top" xlink:title="Header for Strategy Logger interface.">
<polygon fill="white" stroke="black" points="285.24,-56.5 285.24,-75.5 343.24,-75.5 343.24,-56.5 285.24,-56.5"/>
<text text-anchor="middle" x="314.24" y="-63.5" font-family="Helvetica,sans-Serif" font-size="10.00">Logger.h</text>
</a>
</g>
</g>
<!-- Node1&#45;&gt;Node7 -->
<g id="edge6" class="edge">
<title>Node1&#45;&gt;Node7</title>
<path fill="none" stroke="midnightblue" d="M163.6,-112.44C193.98,-103.28 242.35,-88.69 276.06,-78.52"/>
<polygon fill="midnightblue" stroke="midnightblue" points="277.45,-81.76 286.01,-75.52 275.42,-75.05 277.45,-81.76"/>
</g>
<!-- Node7&#45;&gt;Node2 -->
<g id="edge8" class="edge">
<title>Node7&#45;&gt;Node2</title>
<path fill="none" stroke="midnightblue" d="M284.88,-57.03C250.54,-47.71 193.52,-32.24 155.18,-21.84"/>
<polygon fill="midnightblue" stroke="midnightblue" points="155.94,-18.42 145.38,-19.18 154.11,-25.17 155.94,-18.42"/>
</g>
<!-- Node8 -->
<g id="node8" class="node">
<title>Node8</title>
<g id="a_node8"><a xlink:title=" ">
<polygon fill="white" stroke="#bfbfbf" points="255.24,-0.5 255.24,-19.5 299.24,-19.5 299.24,-0.5 255.24,-0.5"/>
<text text-anchor="middle" x="277.24" y="-7.5" font-family="Helvetica,sans-Serif" font-size="10.00">string</text>
</a>
</g>
</g>
<!-- Node7&#45;&gt;Node8 -->
<g id="edge7" class="edge">
<title>Node7&#45;&gt;Node8</title>
<path fill="none" stroke="midnightblue" d="M308.13,-56.08C302.96,-48.53 295.39,-37.49 289.05,-28.23"/>
<polygon fill="midnightblue" stroke="midnightblue" points="291.78,-26.02 283.24,-19.75 286,-29.98 291.78,-26.02"/>
</g>
<!-- Node9 -->
<g id="node9" class="node">
<title>Node9</title>
<g id="a_node9"><a xlink:title=" ">
<polygon fill="white" stroke="#bfbfbf" points="317.74,-0.5 317.74,-19.5 382.74,-19.5 382.74,-0.5 317.74,-0.5"/>
<text text-anchor="middle" x="350.24" y="-7.5" font-family="Helvetica,sans-Serif" font-size="10.00">stdexcept</text>
</a>
</g>
</g>
<!-- Node7&#45;&gt;Node9 -->
<g id="edge9" class="edge">
<title>Node7&#45;&gt;Node9</title>
<path fill="none" stroke="midnightblue" d="M320.18,-56.08C325.22,-48.53 332.58,-37.49 338.75,-28.23"/>
<polygon fill="midnightblue" stroke="midnightblue" points="341.77,-30.01 344.41,-19.75 335.95,-26.13 341.77,-30.01"/>
</g>
</g>
</svg>
