<?xml version="1.0" encoding="UTF-8" standalone="no"?>
<!DOCTYPE svg PUBLIC "-//W3C//DTD SVG 1.1//EN"
 "http://www.w3.org/Graphics/SVG/1.1/DTD/svg11.dtd">
<!-- Generated by graphviz version 2.43.0 (0)
 -->
<!-- Title: MenuOption Pages: 1 -->
<svg width="122pt" height="95pt"
 viewBox="0.00 0.00 122.00 95.00" xmlns="http://www.w3.org/2000/svg" xmlns:xlink="http://www.w3.org/1999/xlink">
<g id="graph0" class="graph" transform="scale(1 1) rotate(0) translate(4 91)">
<title>MenuOption</title>
<polygon fill="white" stroke="transparent" points="-4,4 -4,-91 118,-91 118,4 -4,4"/>
<!-- Node1 -->
<g id="node1" class="node">
<title>Node1</title>
<g id="a_node1"><a xlink:title="Abstract base class for menu command options.">
<polygon fill="#bfbfbf" stroke="black" points="18,-0.5 18,-19.5 94,-19.5 94,-0.5 18,-0.5"/>
<text text-anchor="middle" x="56" y="-7.5" font-family="Helvetica,sans-Serif" font-size="10.00">MenuOption</text>
</a>
</g>
</g>
<!-- Node2 -->
<g id="node2" class="node">
<title>Node2</title>
<g id="a_node2"><a xlink:href="classGame.html" target="_top" xlink:title="The main game class representing the internal API of the system.">
<polygon fill="white" stroke="black" points="0,-67.5 0,-86.5 46,-86.5 46,-67.5 0,-67.5"/>
<text text-anchor="middle" x="23" y="-74.5" font-family="Helvetica,sans-Serif" font-size="10.00">Game</text>
</a>
</g>
</g>
<!-- Node2&#45;&gt;Node1 -->
<g id="edge1" class="edge">
<title>Node2&#45;&gt;Node1</title>
<path fill="none" stroke="#9a32cd" stroke-dasharray="5,2" d="M28.07,-57.48C30.14,-51.13 32.8,-44.09 36,-38 39.47,-31.39 44.47,-24.64 48.6,-19.54"/>
<polygon fill="#9a32cd" stroke="#9a32cd" points="24.67,-56.65 25.17,-67.24 31.38,-58.65 24.67,-56.65"/>
<text text-anchor="middle" x="51.5" y="-41" font-family="Helvetica,sans-Serif" font-size="10.00"> game</text>
</g>
<!-- Node3 -->
<g id="node3" class="node">
<title>Node3</title>
<g id="a_node3"><a xlink:href="classLogger.html" target="_top" xlink:title="Interface for concrete logging strategies.">
<polygon fill="white" stroke="black" points="64,-67.5 64,-86.5 114,-86.5 114,-67.5 64,-67.5"/>
<text text-anchor="middle" x="89" y="-74.5" font-family="Helvetica,sans-Serif" font-size="10.00">Logger</text>
</a>
</g>
</g>
<!-- Node3&#45;&gt;Node1 -->
<g id="edge2" class="edge">
<title>Node3&#45;&gt;Node1</title>
<path fill="none" stroke="#9a32cd" stroke-dasharray="5,2" d="M79.94,-58.16C73.58,-45.63 65.35,-29.41 60.38,-19.63"/>
<polygon fill="#9a32cd" stroke="#9a32cd" points="76.9,-59.9 84.55,-67.23 83.14,-56.73 76.9,-59.9"/>
<text text-anchor="middle" x="91" y="-41" font-family="Helvetica,sans-Serif" font-size="10.00"> logger</text>
</g>
</g>
</svg>
