<?xml version="1.0" encoding="UTF-8" standalone="no"?>
<!DOCTYPE svg PUBLIC "-//W3C//DTD SVG 1.1//EN"
 "http://www.w3.org/Graphics/SVG/1.1/DTD/svg11.dtd">
<!-- Generated by graphviz version 2.43.0 (0)
 -->
<!-- Title: ContinueGameOption Pages: 1 -->
<svg width="130pt" height="152pt"
 viewBox="0.00 0.00 130.00 152.00" xmlns="http://www.w3.org/2000/svg" xmlns:xlink="http://www.w3.org/1999/xlink">
<g id="graph0" class="graph" transform="scale(1 1) rotate(0) translate(4 148)">
<title>ContinueGameOption</title>
<polygon fill="white" stroke="transparent" points="-4,4 -4,-148 126,-148 126,4 -4,4"/>
<!-- Node1 -->
<g id="node1" class="node">
<title>Node1</title>
<g id="a_node1"><a xlink:title="Inherits from MenuOption. Represents ConcreteCommand participant in the Command design pattern....">
<polygon fill="#bfbfbf" stroke="black" points="0,-0.5 0,-19.5 122,-19.5 122,-0.5 0,-0.5"/>
<text text-anchor="middle" x="61" y="-7.5" font-family="Helvetica,sans-Serif" font-size="10.00">ContinueGameOption</text>
</a>
</g>
</g>
<!-- Node2 -->
<g id="node2" class="node">
<title>Node2</title>
<g id="a_node2"><a xlink:href="classMenuOption.html" target="_top" xlink:title=" ">
<polygon fill="white" stroke="black" points="23,-57.5 23,-76.5 99,-76.5 99,-57.5 23,-57.5"/>
<text text-anchor="middle" x="61" y="-64.5" font-family="Helvetica,sans-Serif" font-size="10.00">MenuOption</text>
</a>
</g>
</g>
<!-- Node2&#45;&gt;Node1 -->
<g id="edge1" class="edge">
<title>Node2&#45;&gt;Node1</title>
<path fill="none" stroke="midnightblue" d="M61,-47.12C61,-37.82 61,-27.06 61,-19.71"/>
<polygon fill="midnightblue" stroke="midnightblue" points="57.5,-47.41 61,-57.41 64.5,-47.41 57.5,-47.41"/>
</g>
<!-- Node3 -->
<g id="node3" class="node">
<title>Node3</title>
<g id="a_node3"><a xlink:href="classGame.html" target="_top" xlink:title="The Game class represents the internal API of the system. It is modelled in terms of the Facade desig...">
<polygon fill="white" stroke="black" points="5,-124.5 5,-143.5 51,-143.5 51,-124.5 5,-124.5"/>
<text text-anchor="middle" x="28" y="-131.5" font-family="Helvetica,sans-Serif" font-size="10.00">Game</text>
</a>
</g>
</g>
<!-- Node3&#45;&gt;Node2 -->
<g id="edge2" class="edge">
<title>Node3&#45;&gt;Node2</title>
<path fill="none" stroke="#9a32cd" stroke-dasharray="5,2" d="M33.07,-114.48C35.14,-108.13 37.8,-101.09 41,-95 44.47,-88.39 49.47,-81.64 53.6,-76.54"/>
<polygon fill="#9a32cd" stroke="#9a32cd" points="29.67,-113.65 30.17,-124.24 36.38,-115.65 29.67,-113.65"/>
<text text-anchor="middle" x="56.5" y="-98" font-family="Helvetica,sans-Serif" font-size="10.00"> game</text>
</g>
<!-- Node4 -->
<g id="node4" class="node">
<title>Node4</title>
<g id="a_node4"><a xlink:href="classLogger.html" target="_top" xlink:title="Interface for concrete Log strategies to implement.">
<polygon fill="white" stroke="black" points="69,-124.5 69,-143.5 119,-143.5 119,-124.5 69,-124.5"/>
<text text-anchor="middle" x="94" y="-131.5" font-family="Helvetica,sans-Serif" font-size="10.00">Logger</text>
</a>
</g>
</g>
<!-- Node4&#45;&gt;Node2 -->
<g id="edge3" class="edge">
<title>Node4&#45;&gt;Node2</title>
<path fill="none" stroke="#9a32cd" stroke-dasharray="5,2" d="M84.94,-115.16C78.58,-102.63 70.35,-86.41 65.38,-76.63"/>
<polygon fill="#9a32cd" stroke="#9a32cd" points="81.9,-116.9 89.55,-124.23 88.14,-113.73 81.9,-116.9"/>
<text text-anchor="middle" x="96" y="-98" font-family="Helvetica,sans-Serif" font-size="10.00"> logger</text>
</g>
</g>
</svg>
