<?xml version="1.0" encoding="UTF-8" standalone="no"?>
<!DOCTYPE svg PUBLIC "-//W3C//DTD SVG 1.1//EN"
 "http://www.w3.org/Graphics/SVG/1.1/DTD/svg11.dtd">
<!-- Generated by graphviz version 2.43.0 (0)
 -->
<!-- Title: ExitGameOption Pages: 1 -->
<svg width="122pt" height="152pt"
 viewBox="0.00 0.00 122.00 152.00" xmlns="http://www.w3.org/2000/svg" xmlns:xlink="http://www.w3.org/1999/xlink">
<g id="graph0" class="graph" transform="scale(1 1) rotate(0) translate(4 148)">
<title>ExitGameOption</title>
<polygon fill="white" stroke="transparent" points="-4,4 -4,-148 118,-148 118,4 -4,4"/>
<!-- Node1 -->
<g id="node1" class="node">
<title>Node1</title>
<g id="a_node1"><a xlink:title="Command participant for encapsulating the command of exiting the game allows for advanced logging and...">
<polygon fill="#bfbfbf" stroke="black" points="7.5,-0.5 7.5,-19.5 104.5,-19.5 104.5,-0.5 7.5,-0.5"/>
<text text-anchor="middle" x="56" y="-7.5" font-family="Helvetica,sans-Serif" font-size="10.00">ExitGameOption</text>
</a>
</g>
</g>
<!-- Node2 -->
<g id="node2" class="node">
<title>Node2</title>
<g id="a_node2"><a xlink:href="classMenuOption.html" target="_top" xlink:title=" ">
<polygon fill="white" stroke="black" points="18,-57.5 18,-76.5 94,-76.5 94,-57.5 18,-57.5"/>
<text text-anchor="middle" x="56" y="-64.5" font-family="Helvetica,sans-Serif" font-size="10.00">MenuOption</text>
</a>
</g>
</g>
<!-- Node2&#45;&gt;Node1 -->
<g id="edge1" class="edge">
<title>Node2&#45;&gt;Node1</title>
<path fill="none" stroke="midnightblue" d="M56,-47.12C56,-37.82 56,-27.06 56,-19.71"/>
<polygon fill="midnightblue" stroke="midnightblue" points="52.5,-47.41 56,-57.41 59.5,-47.41 52.5,-47.41"/>
</g>
<!-- Node3 -->
<g id="node3" class="node">
<title>Node3</title>
<g id="a_node3"><a xlink:href="classGame.html" target="_top" xlink:title="The Game class represents the internal API of the system. It is modelled in terms of the Facade desig...">
<polygon fill="white" stroke="black" points="0,-124.5 0,-143.5 46,-143.5 46,-124.5 0,-124.5"/>
<text text-anchor="middle" x="23" y="-131.5" font-family="Helvetica,sans-Serif" font-size="10.00">Game</text>
</a>
</g>
</g>
<!-- Node3&#45;&gt;Node2 -->
<g id="edge2" class="edge">
<title>Node3&#45;&gt;Node2</title>
<path fill="none" stroke="#9a32cd" stroke-dasharray="5,2" d="M28.07,-114.48C30.14,-108.13 32.8,-101.09 36,-95 39.47,-88.39 44.47,-81.64 48.6,-76.54"/>
<polygon fill="#9a32cd" stroke="#9a32cd" points="24.67,-113.65 25.17,-124.24 31.38,-115.65 24.67,-113.65"/>
<text text-anchor="middle" x="51.5" y="-98" font-family="Helvetica,sans-Serif" font-size="10.00"> game</text>
</g>
<!-- Node4 -->
<g id="node4" class="node">
<title>Node4</title>
<g id="a_node4"><a xlink:href="classLogger.html" target="_top" xlink:title="Interface for concrete Log strategies to implement.">
<polygon fill="white" stroke="black" points="64,-124.5 64,-143.5 114,-143.5 114,-124.5 64,-124.5"/>
<text text-anchor="middle" x="89" y="-131.5" font-family="Helvetica,sans-Serif" font-size="10.00">Logger</text>
</a>
</g>
</g>
<!-- Node4&#45;&gt;Node2 -->
<g id="edge3" class="edge">
<title>Node4&#45;&gt;Node2</title>
<path fill="none" stroke="#9a32cd" stroke-dasharray="5,2" d="M79.94,-115.16C73.58,-102.63 65.35,-86.41 60.38,-76.63"/>
<polygon fill="#9a32cd" stroke="#9a32cd" points="76.9,-116.9 84.55,-124.23 83.14,-113.73 76.9,-116.9"/>
<text text-anchor="middle" x="91" y="-98" font-family="Helvetica,sans-Serif" font-size="10.00"> logger</text>
</g>
</g>
</svg>
