<?xml version="1.0" encoding="UTF-8" standalone="no"?>
<!DOCTYPE svg PUBLIC "-//W3C//DTD SVG 1.1//EN"
 "http://www.w3.org/Graphics/SVG/1.1/DTD/svg11.dtd">
<!-- Generated by graphviz version 2.43.0 (0)
 -->
<!-- Title: PruningStaff Pages: 1 -->
<svg width="118pt" height="152pt"
 viewBox="0.00 0.00 118.00 152.00" xmlns="http://www.w3.org/2000/svg" xmlns:xlink="http://www.w3.org/1999/xlink">
<g id="graph0" class="graph" transform="scale(1 1) rotate(0) translate(4 148)">
<title>PruningStaff</title>
<polygon fill="white" stroke="transparent" points="-4,4 -4,-148 114,-148 114,4 -4,4"/>
<!-- Node1 -->
<g id="node1" class="node">
<title>Node1</title>
<g id="a_node1"><a xlink:title="Concrete observer class for staff responsible for pruning plants.">
<polygon fill="#bfbfbf" stroke="black" points="11,-0.5 11,-19.5 87,-19.5 87,-0.5 11,-0.5"/>
<text text-anchor="middle" x="49" y="-7.5" font-family="Helvetica,sans-Serif" font-size="10.00">PruningStaff</text>
</a>
</g>
</g>
<!-- Node2 -->
<g id="node2" class="node">
<title>Node2</title>
<g id="a_node2"><a xlink:href="classGreenhouseStaff.html" target="_top" xlink:title="Abstract base class for greenhouse staff observers.">
<polygon fill="white" stroke="black" points="0,-57.5 0,-76.5 98,-76.5 98,-57.5 0,-57.5"/>
<text text-anchor="middle" x="49" y="-64.5" font-family="Helvetica,sans-Serif" font-size="10.00">GreenhouseStaff</text>
</a>
</g>
</g>
<!-- Node2&#45;&gt;Node1 -->
<g id="edge1" class="edge">
<title>Node2&#45;&gt;Node1</title>
<path fill="none" stroke="midnightblue" d="M49,-47.12C49,-37.82 49,-27.06 49,-19.71"/>
<polygon fill="midnightblue" stroke="midnightblue" points="45.5,-47.41 49,-57.41 52.5,-47.41 45.5,-47.41"/>
</g>
<!-- Node3 -->
<g id="node3" class="node">
<title>Node3</title>
<g id="a_node3"><a xlink:href="classGreenhouse.html" target="_top" xlink:title="Central greenhouse management system coordinating plants, staff, and sales.">
<polygon fill="white" stroke="black" points="11.5,-124.5 11.5,-143.5 86.5,-143.5 86.5,-124.5 11.5,-124.5"/>
<text text-anchor="middle" x="49" y="-131.5" font-family="Helvetica,sans-Serif" font-size="10.00">Greenhouse</text>
</a>
</g>
</g>
<!-- Node3&#45;&gt;Node2 -->
<g id="edge2" class="edge">
<title>Node3&#45;&gt;Node2</title>
<path fill="none" stroke="#9a32cd" stroke-dasharray="5,2" d="M49,-114.04C49,-101.67 49,-86.12 49,-76.63"/>
<polygon fill="#9a32cd" stroke="#9a32cd" points="45.5,-114.23 49,-124.23 52.5,-114.23 45.5,-114.23"/>
<text text-anchor="middle" x="79.5" y="-98" font-family="Helvetica,sans-Serif" font-size="10.00"> greenhouse</text>
</g>
</g>
</svg>
