<?xml version="1.0" encoding="UTF-8" standalone="no"?>
<!DOCTYPE svg PUBLIC "-//W3C//DTD SVG 1.1//EN"
 "http://www.w3.org/Graphics/SVG/1.1/DTD/svg11.dtd">
<!-- Generated by graphviz version 2.43.0 (0)
 -->
<!-- Title: CustomerBuilder Pages: 1 -->
<svg width="480pt" height="84pt"
 viewBox="0.00 0.00 479.50 84.00" xmlns="http://www.w3.org/2000/svg" xmlns:xlink="http://www.w3.org/1999/xlink">
<g id="graph0" class="graph" transform="scale(1 1) rotate(0) translate(4 80)">
<title>CustomerBuilder</title>
<polygon fill="white" stroke="transparent" points="-4,4 -4,-80 475.5,-80 475.5,4 -4,4"/>
<!-- Node1 -->
<g id="node1" class="node">
<title>Node1</title>
<g id="a_node1"><a xlink:title="Abstract base class for building Customer objects step by step.">
<polygon fill="#bfbfbf" stroke="black" points="186,-56.5 186,-75.5 284,-75.5 284,-56.5 186,-56.5"/>
<text text-anchor="middle" x="235" y="-63.5" font-family="Helvetica,sans-Serif" font-size="10.00">CustomerBuilder</text>
</a>
</g>
</g>
<!-- Node2 -->
<g id="node2" class="node">
<title>Node2</title>
<g id="a_node2"><a xlink:href="classAverageCustomerBuilder.html" target="_top" xlink:title="Concrete builder for constructing AverageCustomer objects with random dialogue selection.">
<polygon fill="white" stroke="black" points="0,-0.5 0,-19.5 138,-19.5 138,-0.5 0,-0.5"/>
<text text-anchor="middle" x="69" y="-7.5" font-family="Helvetica,sans-Serif" font-size="10.00">AverageCustomerBuilder</text>
</a>
</g>
</g>
<!-- Node1&#45;&gt;Node2 -->
<g id="edge1" class="edge">
<title>Node1&#45;&gt;Node2</title>
<path fill="none" stroke="midnightblue" d="M199.05,-53.3C167.77,-43.13 123.18,-28.62 95.18,-19.52"/>
<polygon fill="midnightblue" stroke="midnightblue" points="198.1,-56.68 208.7,-56.44 200.27,-50.02 198.1,-56.68"/>
</g>
<!-- Node3 -->
<g id="node3" class="node">
<title>Node3</title>
<g id="a_node3"><a xlink:href="classGreenFingerCustomerBuilder.html" target="_top" xlink:title="Concrete builder for constructing GreenFingerCustomer objects with random dialogue selection.">
<polygon fill="white" stroke="black" points="156,-0.5 156,-19.5 314,-19.5 314,-0.5 156,-0.5"/>
<text text-anchor="middle" x="235" y="-7.5" font-family="Helvetica,sans-Serif" font-size="10.00">GreenFingerCustomerBuilder</text>
</a>
</g>
</g>
<!-- Node1&#45;&gt;Node3 -->
<g id="edge2" class="edge">
<title>Node1&#45;&gt;Node3</title>
<path fill="none" stroke="midnightblue" d="M235,-45.8C235,-36.91 235,-26.78 235,-19.75"/>
<polygon fill="midnightblue" stroke="midnightblue" points="231.5,-46.08 235,-56.08 238.5,-46.08 231.5,-46.08"/>
</g>
<!-- Node4 -->
<g id="node4" class="node">
<title>Node4</title>
<g id="a_node4"><a xlink:href="classIgnorantCustomerBuilder.html" target="_top" xlink:title="Concrete builder for constructing IgnorantCustomer objects with random dialogue selection.">
<polygon fill="white" stroke="black" points="332.5,-0.5 332.5,-19.5 471.5,-19.5 471.5,-0.5 332.5,-0.5"/>
<text text-anchor="middle" x="402" y="-7.5" font-family="Helvetica,sans-Serif" font-size="10.00">IgnorantCustomerBuilder</text>
</a>
</g>
</g>
<!-- Node1&#45;&gt;Node4 -->
<g id="edge3" class="edge">
<title>Node1&#45;&gt;Node4</title>
<path fill="none" stroke="midnightblue" d="M271.17,-53.3C302.64,-43.13 347.49,-28.62 375.66,-19.52"/>
<polygon fill="midnightblue" stroke="midnightblue" points="269.9,-50.04 261.46,-56.44 272.05,-56.7 269.9,-50.04"/>
</g>
</g>
</svg>
