<?xml version="1.0" encoding="UTF-8" standalone="no"?>
<!DOCTYPE svg PUBLIC "-//W3C//DTD SVG 1.1//EN"
 "http://www.w3.org/Graphics/SVG/1.1/DTD/svg11.dtd">
<!-- Generated by graphviz version 2.43.0 (0)
 -->
<!-- Title: CoutAndLog Pages: 1 -->
<svg width="90pt" height="152pt"
 viewBox="0.00 0.00 90.00 152.00" xmlns="http://www.w3.org/2000/svg" xmlns:xlink="http://www.w3.org/1999/xlink">
<g id="graph0" class="graph" transform="scale(1 1) rotate(0) translate(4 148)">
<title>CoutAndLog</title>
<polygon fill="white" stroke="transparent" points="-4,4 -4,-148 86,-148 86,4 -4,4"/>
<!-- Node1 -->
<g id="node1" class="node">
<title>Node1</title>
<g id="a_node1"><a xlink:title="Decorator that logs messages to both console and underlying logger.">
<polygon fill="#bfbfbf" stroke="black" points="3.5,-0.5 3.5,-19.5 78.5,-19.5 78.5,-0.5 3.5,-0.5"/>
<text text-anchor="middle" x="41" y="-7.5" font-family="Helvetica,sans-Serif" font-size="10.00">CoutAndLog</text>
</a>
</g>
</g>
<!-- Node2 -->
<g id="node2" class="node">
<title>Node2</title>
<g id="a_node2"><a xlink:href="classLogDecorator.html" target="_top" xlink:title="Base decorator for extending logger functionality.">
<polygon fill="white" stroke="black" points="0,-57.5 0,-76.5 82,-76.5 82,-57.5 0,-57.5"/>
<text text-anchor="middle" x="41" y="-64.5" font-family="Helvetica,sans-Serif" font-size="10.00">LogDecorator</text>
</a>
</g>
</g>
<!-- Node2&#45;&gt;Node1 -->
<g id="edge1" class="edge">
<title>Node2&#45;&gt;Node1</title>
<path fill="none" stroke="midnightblue" d="M41,-47.12C41,-37.82 41,-27.06 41,-19.71"/>
<polygon fill="midnightblue" stroke="midnightblue" points="37.5,-47.41 41,-57.41 44.5,-47.41 37.5,-47.41"/>
</g>
<!-- Node3 -->
<g id="node3" class="node">
<title>Node3</title>
<g id="a_node3"><a xlink:href="classLogger.html" target="_top" xlink:title="Interface for concrete logging strategies.">
<polygon fill="white" stroke="black" points="16,-124.5 16,-143.5 66,-143.5 66,-124.5 16,-124.5"/>
<text text-anchor="middle" x="41" y="-131.5" font-family="Helvetica,sans-Serif" font-size="10.00">Logger</text>
</a>
</g>
</g>
<!-- Node3&#45;&gt;Node2 -->
<g id="edge2" class="edge">
<title>Node3&#45;&gt;Node2</title>
<path fill="none" stroke="midnightblue" d="M39.44,-114.38C39.26,-111.58 39.1,-108.71 39,-106 38.63,-95.97 39.4,-84.45 40.09,-76.75"/>
<polygon fill="midnightblue" stroke="midnightblue" points="35.96,-114.79 40.21,-124.5 42.94,-114.26 35.96,-114.79"/>
</g>
<!-- Node3&#45;&gt;Node2 -->
<g id="edge3" class="edge">
<title>Node3&#45;&gt;Node2</title>
<path fill="none" stroke="#9a32cd" stroke-dasharray="5,2" d="M41,-114.04C41,-101.67 41,-86.12 41,-76.63"/>
<polygon fill="#9a32cd" stroke="#9a32cd" points="37.5,-114.23 41,-124.23 44.5,-114.23 37.5,-114.23"/>
<text text-anchor="middle" x="58" y="-98" font-family="Helvetica,sans-Serif" font-size="10.00"> logger</text>
</g>
</g>
</svg>
