<?xml version="1.0" encoding="UTF-8" standalone="no"?>
<!DOCTYPE svg PUBLIC "-//W3C//DTD SVG 1.1//EN"
 "http://www.w3.org/Graphics/SVG/1.1/DTD/svg11.dtd">
<!-- Generated by graphviz version 2.43.0 (0)
 -->
<!-- Title: TransactionStrategy Pages: 1 -->
<svg width="270pt" height="84pt"
 viewBox="0.00 0.00 270.00 84.00" xmlns="http://www.w3.org/2000/svg" xmlns:xlink="http://www.w3.org/1999/xlink">
<g id="graph0" class="graph" transform="scale(1 1) rotate(0) translate(4 80)">
<title>TransactionStrategy</title>
<polygon fill="white" stroke="transparent" points="-4,4 -4,-80 266,-80 266,4 -4,4"/>
<!-- Node1 -->
<g id="node1" class="node">
<title>Node1</title>
<g id="a_node1"><a xlink:title="Abstract base class for transaction handling strategies.">
<polygon fill="#bfbfbf" stroke="black" points="88.5,-56.5 88.5,-75.5 201.5,-75.5 201.5,-56.5 88.5,-56.5"/>
<text text-anchor="middle" x="145" y="-63.5" font-family="Helvetica,sans-Serif" font-size="10.00">TransactionStrategy</text>
</a>
</g>
</g>
<!-- Node2 -->
<g id="node2" class="node">
<title>Node2</title>
<g id="a_node2"><a xlink:href="classPlantDied.html" target="_top" xlink:title="Handles financial transactions when plants die due to poor care.">
<polygon fill="white" stroke="black" points="0,-0.5 0,-19.5 64,-19.5 64,-0.5 0,-0.5"/>
<text text-anchor="middle" x="32" y="-7.5" font-family="Helvetica,sans-Serif" font-size="10.00">PlantDied</text>
</a>
</g>
</g>
<!-- Node1&#45;&gt;Node2 -->
<g id="edge1" class="edge">
<title>Node1&#45;&gt;Node2</title>
<path fill="none" stroke="midnightblue" d="M118,-52.1C96.89,-42.01 68.14,-28.27 49.82,-19.52"/>
<polygon fill="midnightblue" stroke="midnightblue" points="116.56,-55.29 127.09,-56.44 119.58,-48.97 116.56,-55.29"/>
</g>
<!-- Node3 -->
<g id="node3" class="node">
<title>Node3</title>
<g id="a_node3"><a xlink:href="classRestock.html" target="_top" xlink:title="Handles financial transactions for inventory restocking.">
<polygon fill="white" stroke="black" points="82,-0.5 82,-19.5 138,-19.5 138,-0.5 82,-0.5"/>
<text text-anchor="middle" x="110" y="-7.5" font-family="Helvetica,sans-Serif" font-size="10.00">Restock</text>
</a>
</g>
</g>
<!-- Node1&#45;&gt;Node3 -->
<g id="edge2" class="edge">
<title>Node1&#45;&gt;Node3</title>
<path fill="none" stroke="midnightblue" d="M133.7,-47.57C127.68,-38.27 120.53,-27.25 115.67,-19.75"/>
<polygon fill="midnightblue" stroke="midnightblue" points="130.84,-49.6 139.22,-56.08 136.72,-45.79 130.84,-49.6"/>
</g>
<!-- Node4 -->
<g id="node4" class="node">
<title>Node4</title>
<g id="a_node4"><a xlink:href="classReturn.html" target="_top" xlink:title="Handles financial transactions for customer returns.">
<polygon fill="white" stroke="black" points="156.5,-0.5 156.5,-19.5 205.5,-19.5 205.5,-0.5 156.5,-0.5"/>
<text text-anchor="middle" x="181" y="-7.5" font-family="Helvetica,sans-Serif" font-size="10.00">Return</text>
</a>
</g>
</g>
<!-- Node1&#45;&gt;Node4 -->
<g id="edge3" class="edge">
<title>Node1&#45;&gt;Node4</title>
<path fill="none" stroke="midnightblue" d="M156.62,-47.57C162.82,-38.27 170.17,-27.25 175.17,-19.75"/>
<polygon fill="midnightblue" stroke="midnightblue" points="153.58,-45.82 150.94,-56.08 159.4,-49.7 153.58,-45.82"/>
</g>
<!-- Node5 -->
<g id="node5" class="node">
<title>Node5</title>
<g id="a_node5"><a xlink:href="classSale.html" target="_top" xlink:title="Handles financial transactions for plant sales.">
<polygon fill="white" stroke="black" points="224,-0.5 224,-19.5 262,-19.5 262,-0.5 224,-0.5"/>
<text text-anchor="middle" x="243" y="-7.5" font-family="Helvetica,sans-Serif" font-size="10.00">Sale</text>
</a>
</g>
</g>
<!-- Node1&#45;&gt;Node5 -->
<g id="edge4" class="edge">
<title>Node1&#45;&gt;Node5</title>
<path fill="none" stroke="midnightblue" d="M169.59,-51.45C187.68,-41.48 211.73,-28.23 227.29,-19.65"/>
<polygon fill="midnightblue" stroke="midnightblue" points="167.81,-48.43 160.75,-56.32 171.19,-54.56 167.81,-48.43"/>
</g>
</g>
</svg>
