<?xml version="1.0" encoding="UTF-8" standalone="no"?>
<!DOCTYPE svg PUBLIC "-//W3C//DTD SVG 1.1//EN"
 "http://www.w3.org/Graphics/SVG/1.1/DTD/svg11.dtd">
<!-- Generated by graphviz version 2.43.0 (0)
 -->
<!-- Title: CustomerVisitor Pages: 1 -->
<svg width="387pt" height="84pt"
 viewBox="0.00 0.00 387.00 84.00" xmlns="http://www.w3.org/2000/svg" xmlns:xlink="http://www.w3.org/1999/xlink">
<g id="graph0" class="graph" transform="scale(1 1) rotate(0) translate(4 80)">
<title>CustomerVisitor</title>
<polygon fill="white" stroke="transparent" points="-4,4 -4,-80 383,-80 383,4 -4,4"/>
<!-- Node1 -->
<g id="node1" class="node">
<title>Node1</title>
<g id="a_node1"><a xlink:title="Abstract base class for defining operations for the concrete visitors.">
<polygon fill="#bfbfbf" stroke="black" points="134,-56.5 134,-75.5 229,-75.5 229,-56.5 134,-56.5"/>
<text text-anchor="middle" x="181.5" y="-63.5" font-family="Helvetica,sans-Serif" font-size="10.00">CustomerVisitor</text>
</a>
</g>
</g>
<!-- Node2 -->
<g id="node2" class="node">
<title>Node2</title>
<g id="a_node2"><a xlink:href="classVisitEasyCustomer.html" target="_top" xlink:title="Visitor implementation for customers preferring easy&#45;to&#45;maintain plants.">
<polygon fill="white" stroke="black" points="0,-0.5 0,-19.5 109,-19.5 109,-0.5 0,-0.5"/>
<text text-anchor="middle" x="54.5" y="-7.5" font-family="Helvetica,sans-Serif" font-size="10.00">VisitEasyCustomer</text>
</a>
</g>
</g>
<!-- Node1&#45;&gt;Node2 -->
<g id="edge1" class="edge">
<title>Node1&#45;&gt;Node2</title>
<path fill="none" stroke="midnightblue" d="M152.11,-52.5C128.3,-42.38 95.39,-28.39 74.53,-19.52"/>
<polygon fill="midnightblue" stroke="midnightblue" points="150.8,-55.75 161.38,-56.44 153.54,-49.31 150.8,-55.75"/>
</g>
<!-- Node3 -->
<g id="node3" class="node">
<title>Node3</title>
<g id="a_node3"><a xlink:href="classVisitHighCustomer.html" target="_top" xlink:title="Visitor implementation for customers preferring challenging plants.">
<polygon fill="white" stroke="black" points="127.5,-0.5 127.5,-19.5 235.5,-19.5 235.5,-0.5 127.5,-0.5"/>
<text text-anchor="middle" x="181.5" y="-7.5" font-family="Helvetica,sans-Serif" font-size="10.00">VisitHighCustomer</text>
</a>
</g>
</g>
<!-- Node1&#45;&gt;Node3 -->
<g id="edge2" class="edge">
<title>Node1&#45;&gt;Node3</title>
<path fill="none" stroke="midnightblue" d="M181.5,-45.8C181.5,-36.91 181.5,-26.78 181.5,-19.75"/>
<polygon fill="midnightblue" stroke="midnightblue" points="178,-46.08 181.5,-56.08 185,-46.08 178,-46.08"/>
</g>
<!-- Node4 -->
<g id="node4" class="node">
<title>Node4</title>
<g id="a_node4"><a xlink:href="classVisitMediumCustomer.html" target="_top" xlink:title="Visitor implementation for balanced plant recommendations.">
<polygon fill="white" stroke="black" points="254,-0.5 254,-19.5 379,-19.5 379,-0.5 254,-0.5"/>
<text text-anchor="middle" x="316.5" y="-7.5" font-family="Helvetica,sans-Serif" font-size="10.00">VisitMediumCustomer</text>
</a>
</g>
</g>
<!-- Node1&#45;&gt;Node4 -->
<g id="edge3" class="edge">
<title>Node1&#45;&gt;Node4</title>
<path fill="none" stroke="midnightblue" d="M212.41,-52.64C237.74,-42.5 272.93,-28.43 295.21,-19.52"/>
<polygon fill="midnightblue" stroke="midnightblue" points="210.88,-49.48 202.89,-56.44 213.48,-55.98 210.88,-49.48"/>
</g>
</g>
</svg>
