<?xml version="1.0" encoding="UTF-8" standalone="no"?>
<!DOCTYPE svg PUBLIC "-//W3C//DTD SVG 1.1//EN"
 "http://www.w3.org/Graphics/SVG/1.1/DTD/svg11.dtd">
<!-- Generated by graphviz version 2.43.0 (0)
 -->
<!-- Title: LogDecorator Pages: 1 -->
<svg width="90pt" height="95pt"
 viewBox="0.00 0.00 90.00 95.00" xmlns="http://www.w3.org/2000/svg" xmlns:xlink="http://www.w3.org/1999/xlink">
<g id="graph0" class="graph" transform="scale(1 1) rotate(0) translate(4 91)">
<title>LogDecorator</title>
<polygon fill="white" stroke="transparent" points="-4,4 -4,-91 86,-91 86,4 -4,4"/>
<!-- Node1 -->
<g id="node1" class="node">
<title>Node1</title>
<g id="a_node1"><a xlink:title="Allows user to add extended functionality to the log ConcreteStrategies, i.e. can add cout before log...">
<polygon fill="#bfbfbf" stroke="black" points="0,-0.5 0,-19.5 82,-19.5 82,-0.5 0,-0.5"/>
<text text-anchor="middle" x="41" y="-7.5" font-family="Helvetica,sans-Serif" font-size="10.00">LogDecorator</text>
</a>
</g>
</g>
<!-- Node2 -->
<g id="node2" class="node">
<title>Node2</title>
<g id="a_node2"><a xlink:href="classLogger.html" target="_top" xlink:title="Interface for concrete Log strategies to implement.">
<polygon fill="white" stroke="black" points="16,-67.5 16,-86.5 66,-86.5 66,-67.5 16,-67.5"/>
<text text-anchor="middle" x="41" y="-74.5" font-family="Helvetica,sans-Serif" font-size="10.00">Logger</text>
</a>
</g>
</g>
<!-- Node2&#45;&gt;Node1 -->
<g id="edge1" class="edge">
<title>Node2&#45;&gt;Node1</title>
<path fill="none" stroke="midnightblue" d="M39.44,-57.38C39.26,-54.58 39.1,-51.71 39,-49 38.63,-38.97 39.4,-27.45 40.09,-19.75"/>
<polygon fill="midnightblue" stroke="midnightblue" points="35.96,-57.79 40.21,-67.5 42.94,-57.26 35.96,-57.79"/>
</g>
<!-- Node2&#45;&gt;Node1 -->
<g id="edge2" class="edge">
<title>Node2&#45;&gt;Node1</title>
<path fill="none" stroke="#9a32cd" stroke-dasharray="5,2" d="M41,-57.04C41,-44.67 41,-29.12 41,-19.63"/>
<polygon fill="#9a32cd" stroke="#9a32cd" points="37.5,-57.23 41,-67.23 44.5,-57.23 37.5,-57.23"/>
<text text-anchor="middle" x="58" y="-41" font-family="Helvetica,sans-Serif" font-size="10.00"> logger</text>
</g>
</g>
</svg>
