<?xml version="1.0" encoding="UTF-8" standalone="no"?>
<!DOCTYPE svg PUBLIC "-//W3C//DTD SVG 1.1//EN"
 "http://www.w3.org/Graphics/SVG/1.1/DTD/svg11.dtd">
<!-- Generated by graphviz version 2.43.0 (0)
 -->
<!-- Title: Plant Pages: 1 -->
<svg width="196pt" height="84pt"
 viewBox="0.00 0.00 195.50 84.00" xmlns="http://www.w3.org/2000/svg" xmlns:xlink="http://www.w3.org/1999/xlink">
<g id="graph0" class="graph" transform="scale(1 1) rotate(0) translate(4 80)">
<title>Plant</title>
<polygon fill="white" stroke="transparent" points="-4,4 -4,-80 191.5,-80 191.5,4 -4,4"/>
<!-- Node1 -->
<g id="node1" class="node">
<title>Node1</title>
<g id="a_node1"><a xlink:title="Abstract base class representing a plant entity in the greenhouse simulation.">
<polygon fill="#bfbfbf" stroke="black" points="79.5,-56.5 79.5,-75.5 120.5,-75.5 120.5,-56.5 79.5,-56.5"/>
<text text-anchor="middle" x="100" y="-63.5" font-family="Helvetica,sans-Serif" font-size="10.00">Plant</text>
</a>
</g>
</g>
<!-- Node2 -->
<g id="node2" class="node">
<title>Node2</title>
<g id="a_node2"><a xlink:href="classFlower.html" target="_top" xlink:title="Represents a Flower plant type within the greenhouse system.">
<polygon fill="white" stroke="black" points="0,-0.5 0,-19.5 50,-19.5 50,-0.5 0,-0.5"/>
<text text-anchor="middle" x="25" y="-7.5" font-family="Helvetica,sans-Serif" font-size="10.00">Flower</text>
</a>
</g>
</g>
<!-- Node1&#45;&gt;Node2 -->
<g id="edge1" class="edge">
<title>Node1&#45;&gt;Node2</title>
<path fill="none" stroke="midnightblue" d="M79.69,-50.38C66.14,-40.62 48.76,-28.11 37.27,-19.83"/>
<polygon fill="midnightblue" stroke="midnightblue" points="77.79,-53.32 87.95,-56.32 81.88,-47.64 77.79,-53.32"/>
</g>
<!-- Node3 -->
<g id="node3" class="node">
<title>Node3</title>
<g id="a_node3"><a xlink:href="classSucculent.html" target="_top" xlink:title="Represents a Succulent plant type within the greenhouse system.">
<polygon fill="white" stroke="black" points="68,-0.5 68,-19.5 132,-19.5 132,-0.5 68,-0.5"/>
<text text-anchor="middle" x="100" y="-7.5" font-family="Helvetica,sans-Serif" font-size="10.00">Succulent</text>
</a>
</g>
</g>
<!-- Node1&#45;&gt;Node3 -->
<g id="edge2" class="edge">
<title>Node1&#45;&gt;Node3</title>
<path fill="none" stroke="midnightblue" d="M100,-45.8C100,-36.91 100,-26.78 100,-19.75"/>
<polygon fill="midnightblue" stroke="midnightblue" points="96.5,-46.08 100,-56.08 103.5,-46.08 96.5,-46.08"/>
</g>
<!-- Node4 -->
<g id="node4" class="node">
<title>Node4</title>
<g id="a_node4"><a xlink:href="classTree.html" target="_top" xlink:title="Represents a Tree plant type within the greenhouse system.">
<polygon fill="white" stroke="black" points="150.5,-0.5 150.5,-19.5 187.5,-19.5 187.5,-0.5 150.5,-0.5"/>
<text text-anchor="middle" x="169" y="-7.5" font-family="Helvetica,sans-Serif" font-size="10.00">Tree</text>
</a>
</g>
</g>
<!-- Node1&#45;&gt;Node4 -->
<g id="edge3" class="edge">
<title>Node1&#45;&gt;Node4</title>
<path fill="none" stroke="midnightblue" d="M119.04,-50.1C131.46,-40.38 147.24,-28.03 157.71,-19.83"/>
<polygon fill="midnightblue" stroke="midnightblue" points="116.8,-47.4 111.09,-56.32 121.12,-52.92 116.8,-47.4"/>
</g>
</g>
</svg>
