<?xml version="1.0" encoding="UTF-8" standalone="no"?>
<!DOCTYPE svg PUBLIC "-//W3C//DTD SVG 1.1//EN"
 "http://www.w3.org/Graphics/SVG/1.1/DTD/svg11.dtd">
<!-- Generated by graphviz version 2.43.0 (0)
 -->
<!-- Title: PlantCreator Pages: 1 -->
<svg width="304pt" height="84pt"
 viewBox="0.00 0.00 303.50 84.00" xmlns="http://www.w3.org/2000/svg" xmlns:xlink="http://www.w3.org/1999/xlink">
<g id="graph0" class="graph" transform="scale(1 1) rotate(0) translate(4 80)">
<title>PlantCreator</title>
<polygon fill="white" stroke="transparent" points="-4,4 -4,-80 299.5,-80 299.5,4 -4,4"/>
<!-- Node1 -->
<g id="node1" class="node">
<title>Node1</title>
<g id="a_node1"><a xlink:title="Abstract base class responsible for creating and managing Plant objects.">
<polygon fill="#bfbfbf" stroke="black" points="115.5,-56.5 115.5,-75.5 192.5,-75.5 192.5,-56.5 115.5,-56.5"/>
<text text-anchor="middle" x="154" y="-63.5" font-family="Helvetica,sans-Serif" font-size="10.00">PlantCreator</text>
</a>
</g>
</g>
<!-- Node2 -->
<g id="node2" class="node">
<title>Node2</title>
<g id="a_node2"><a xlink:href="classFlowerCreator.html" target="_top" xlink:title="Concrete creator class responsible for creating Flower objects.">
<polygon fill="white" stroke="black" points="0,-0.5 0,-19.5 86,-19.5 86,-0.5 0,-0.5"/>
<text text-anchor="middle" x="43" y="-7.5" font-family="Helvetica,sans-Serif" font-size="10.00">FlowerCreator</text>
</a>
</g>
</g>
<!-- Node1&#45;&gt;Node2 -->
<g id="edge1" class="edge">
<title>Node1&#45;&gt;Node2</title>
<path fill="none" stroke="midnightblue" d="M126.99,-51.86C106.41,-41.85 78.66,-28.35 60.79,-19.65"/>
<polygon fill="midnightblue" stroke="midnightblue" points="125.64,-55.1 136.17,-56.32 128.7,-48.8 125.64,-55.1"/>
</g>
<!-- Node3 -->
<g id="node3" class="node">
<title>Node3</title>
<g id="a_node3"><a xlink:href="classSucculentCreator.html" target="_top" xlink:title="Concrete creator class responsible for creating Succulent objects.">
<polygon fill="white" stroke="black" points="104,-0.5 104,-19.5 204,-19.5 204,-0.5 104,-0.5"/>
<text text-anchor="middle" x="154" y="-7.5" font-family="Helvetica,sans-Serif" font-size="10.00">SucculentCreator</text>
</a>
</g>
</g>
<!-- Node1&#45;&gt;Node3 -->
<g id="edge2" class="edge">
<title>Node1&#45;&gt;Node3</title>
<path fill="none" stroke="midnightblue" d="M154,-45.8C154,-36.91 154,-26.78 154,-19.75"/>
<polygon fill="midnightblue" stroke="midnightblue" points="150.5,-46.08 154,-56.08 157.5,-46.08 150.5,-46.08"/>
</g>
<!-- Node4 -->
<g id="node4" class="node">
<title>Node4</title>
<g id="a_node4"><a xlink:href="classTreeCreator.html" target="_top" xlink:title="Concrete creator class responsible for creating Tree objects.">
<polygon fill="white" stroke="black" points="222.5,-0.5 222.5,-19.5 295.5,-19.5 295.5,-0.5 222.5,-0.5"/>
<text text-anchor="middle" x="259" y="-7.5" font-family="Helvetica,sans-Serif" font-size="10.00">TreeCreator</text>
</a>
</g>
</g>
<!-- Node1&#45;&gt;Node4 -->
<g id="edge3" class="edge">
<title>Node1&#45;&gt;Node4</title>
<path fill="none" stroke="midnightblue" d="M179.81,-51.73C199.25,-41.73 225.35,-28.31 242.17,-19.65"/>
<polygon fill="midnightblue" stroke="midnightblue" points="178.16,-48.64 170.87,-56.32 181.36,-54.86 178.16,-48.64"/>
</g>
</g>
</svg>
