<?xml version="1.0" encoding="UTF-8" standalone="no"?>
<!DOCTYPE svg PUBLIC "-//W3C//DTD SVG 1.1//EN"
 "http://www.w3.org/Graphics/SVG/1.1/DTD/svg11.dtd">
<!-- Generated by graphviz version 2.43.0 (0)
 -->
<!-- Title: Logger Pages: 1 -->
<svg width="184pt" height="140pt"
 viewBox="0.00 0.00 184.00 140.00" xmlns="http://www.w3.org/2000/svg" xmlns:xlink="http://www.w3.org/1999/xlink">
<g id="graph0" class="graph" transform="scale(1 1) rotate(0) translate(4 136)">
<title>Logger</title>
<polygon fill="white" stroke="transparent" points="-4,4 -4,-136 180,-136 180,4 -4,4"/>
<!-- Node1 -->
<g id="node1" class="node">
<title>Node1</title>
<g id="a_node1"><a xlink:title="Interface for concrete Log strategies to implement.">
<polygon fill="#bfbfbf" stroke="black" points="61,-112.5 61,-131.5 111,-131.5 111,-112.5 61,-112.5"/>
<text text-anchor="middle" x="86" y="-119.5" font-family="Helvetica,sans-Serif" font-size="10.00">Logger</text>
</a>
</g>
</g>
<!-- Node2 -->
<g id="node2" class="node">
<title>Node2</title>
<g id="a_node2"><a xlink:href="classBasicLogger.html" target="_top" xlink:title="Implements Logger interface. Reads LOG_FILE (log file path) environment variable, opens and appends l...">
<polygon fill="white" stroke="black" points="0,-56.5 0,-75.5 76,-75.5 76,-56.5 0,-56.5"/>
<text text-anchor="middle" x="38" y="-63.5" font-family="Helvetica,sans-Serif" font-size="10.00">BasicLogger</text>
</a>
</g>
</g>
<!-- Node1&#45;&gt;Node2 -->
<g id="edge1" class="edge">
<title>Node1&#45;&gt;Node2</title>
<path fill="none" stroke="midnightblue" d="M71.27,-104.43C62.86,-94.97 52.65,-83.48 45.78,-75.75"/>
<polygon fill="midnightblue" stroke="midnightblue" points="68.81,-106.93 78.07,-112.08 74.05,-102.28 68.81,-106.93"/>
</g>
<!-- Node3 -->
<g id="node3" class="node">
<title>Node3</title>
<g id="a_node3"><a xlink:href="classLogDecorator.html" target="_top" xlink:title="Allows user to add extended functionality to the log ConcreteStrategies, i.e. can add cout before log...">
<polygon fill="white" stroke="black" points="94,-56.5 94,-75.5 176,-75.5 176,-56.5 94,-56.5"/>
<text text-anchor="middle" x="135" y="-63.5" font-family="Helvetica,sans-Serif" font-size="10.00">LogDecorator</text>
</a>
</g>
</g>
<!-- Node1&#45;&gt;Node3 -->
<g id="edge2" class="edge">
<title>Node1&#45;&gt;Node3</title>
<path fill="none" stroke="midnightblue" d="M101.03,-104.43C109.62,-94.97 120.04,-83.48 127.06,-75.75"/>
<polygon fill="midnightblue" stroke="midnightblue" points="98.22,-102.33 94.09,-112.08 103.4,-107.03 98.22,-102.33"/>
</g>
<!-- Node4 -->
<g id="node4" class="node">
<title>Node4</title>
<g id="a_node4"><a xlink:href="classCoutAndLog.html" target="_top" xlink:title=" ">
<polygon fill="white" stroke="black" points="97.5,-0.5 97.5,-19.5 172.5,-19.5 172.5,-0.5 97.5,-0.5"/>
<text text-anchor="middle" x="135" y="-7.5" font-family="Helvetica,sans-Serif" font-size="10.00">CoutAndLog</text>
</a>
</g>
</g>
<!-- Node3&#45;&gt;Node4 -->
<g id="edge3" class="edge">
<title>Node3&#45;&gt;Node4</title>
<path fill="none" stroke="midnightblue" d="M135,-45.8C135,-36.91 135,-26.78 135,-19.75"/>
<polygon fill="midnightblue" stroke="midnightblue" points="131.5,-46.08 135,-56.08 138.5,-46.08 131.5,-46.08"/>
</g>
</g>
</svg>
