<?xml version="1.0" encoding="UTF-8" standalone="no"?>
<!DOCTYPE svg PUBLIC "-//W3C//DTD SVG 1.1//EN"
 "http://www.w3.org/Graphics/SVG/1.1/DTD/svg11.dtd">
<!-- Generated by graphviz version 2.43.0 (0)
 -->
<!-- Title: Customer Pages: 1 -->
<svg width="376pt" height="84pt"
 viewBox="0.00 0.00 376.00 84.00" xmlns="http://www.w3.org/2000/svg" xmlns:xlink="http://www.w3.org/1999/xlink">
<g id="graph0" class="graph" transform="scale(1 1) rotate(0) translate(4 80)">
<title>Customer</title>
<polygon fill="white" stroke="transparent" points="-4,4 -4,-80 372,-80 372,4 -4,4"/>
<!-- Node1 -->
<g id="node1" class="node">
<title>Node1</title>
<g id="a_node1"><a xlink:title="Abstract base class defining the interface and shared behavior for all customer types.">
<polygon fill="#bfbfbf" stroke="black" points="152,-56.5 152,-75.5 216,-75.5 216,-56.5 152,-56.5"/>
<text text-anchor="middle" x="184" y="-63.5" font-family="Helvetica,sans-Serif" font-size="10.00">Customer</text>
</a>
</g>
</g>
<!-- Node2 -->
<g id="node2" class="node">
<title>Node2</title>
<g id="a_node2"><a xlink:href="classAverageCustomer.html" target="_top" xlink:title="Represents a customer with some plant experience who can handle moderate care requirements.">
<polygon fill="white" stroke="black" points="0,-0.5 0,-19.5 104,-19.5 104,-0.5 0,-0.5"/>
<text text-anchor="middle" x="52" y="-7.5" font-family="Helvetica,sans-Serif" font-size="10.00">AverageCustomer</text>
</a>
</g>
</g>
<!-- Node1&#45;&gt;Node2 -->
<g id="edge1" class="edge">
<title>Node1&#45;&gt;Node2</title>
<path fill="none" stroke="midnightblue" d="M153.78,-52.64C129.01,-42.5 94.6,-28.43 72.82,-19.52"/>
<polygon fill="midnightblue" stroke="midnightblue" points="152.5,-55.9 163.08,-56.44 155.15,-49.42 152.5,-55.9"/>
</g>
<!-- Node3 -->
<g id="node3" class="node">
<title>Node3</title>
<g id="a_node3"><a xlink:href="classGreenFingerCustomer.html" target="_top" xlink:title="Represents an experienced plant enthusiast who seeks challenging specimens.">
<polygon fill="white" stroke="black" points="122.5,-0.5 122.5,-19.5 245.5,-19.5 245.5,-0.5 122.5,-0.5"/>
<text text-anchor="middle" x="184" y="-7.5" font-family="Helvetica,sans-Serif" font-size="10.00">GreenFingerCustomer</text>
</a>
</g>
</g>
<!-- Node1&#45;&gt;Node3 -->
<g id="edge2" class="edge">
<title>Node1&#45;&gt;Node3</title>
<path fill="none" stroke="midnightblue" d="M184,-45.8C184,-36.91 184,-26.78 184,-19.75"/>
<polygon fill="midnightblue" stroke="midnightblue" points="180.5,-46.08 184,-56.08 187.5,-46.08 180.5,-46.08"/>
</g>
<!-- Node4 -->
<g id="node4" class="node">
<title>Node4</title>
<g id="a_node4"><a xlink:href="classIgnorantCustomer.html" target="_top" xlink:title="Represents a customer with minimal plant knowledge who needs easy&#45;care plants.">
<polygon fill="white" stroke="black" points="264,-0.5 264,-19.5 368,-19.5 368,-0.5 264,-0.5"/>
<text text-anchor="middle" x="316" y="-7.5" font-family="Helvetica,sans-Serif" font-size="10.00">IgnorantCustomer</text>
</a>
</g>
</g>
<!-- Node1&#45;&gt;Node4 -->
<g id="edge3" class="edge">
<title>Node1&#45;&gt;Node4</title>
<path fill="none" stroke="midnightblue" d="M214.22,-52.64C238.99,-42.5 273.4,-28.43 295.18,-19.52"/>
<polygon fill="midnightblue" stroke="midnightblue" points="212.85,-49.42 204.92,-56.44 215.5,-55.9 212.85,-49.42"/>
</g>
</g>
</svg>
