<?xml version="1.0" encoding="UTF-8" standalone="no"?>
<!DOCTYPE svg PUBLIC "-//W3C//DTD SVG 1.1//EN"
 "http://www.w3.org/Graphics/SVG/1.1/DTD/svg11.dtd">
<!-- Generated by graphviz version 2.43.0 (0)
 -->
<!-- Title: TransactionStrategy Pages: 1 -->
<svg width="270pt" height="84pt"
 viewBox="0.00 0.00 270.00 84.00" xmlns="http://www.w3.org/2000/svg" xmlns:xlink="http://www.w3.org/1999/xlink">
<g id="graph0" class="graph" transform="scale(1 1) rotate(0) translate(4 80)">
<title>TransactionStrategy</title>
<polygon fill="white" stroke="transparent" points="-4,4 -4,-80 266,-80 266,4 -4,4"/>
<!-- Node1 -->
<g id="node1" class="node">
<title>Node1</title>
<g id="a_node1"><a xlink:title="The TransactionStrategy class an abstract class that will help define how transactions will be handel...">
<polygon fill="#bfbfbf" stroke="black" points="53.5,-56.5 53.5,-75.5 166.5,-75.5 166.5,-56.5 53.5,-56.5"/>
<text text-anchor="middle" x="110" y="-63.5" font-family="Helvetica,sans-Serif" font-size="10.00">TransactionStrategy</text>
</a>
</g>
</g>
<!-- Node2 -->
<g id="node2" class="node">
<title>Node2</title>
<g id="a_node2"><a xlink:href="classPlantDied.html" target="_top" xlink:title="Will handle the transaction as if a plant died after it was not cared for properly.">
<polygon fill="white" stroke="black" points="0,-0.5 0,-19.5 64,-19.5 64,-0.5 0,-0.5"/>
<text text-anchor="middle" x="32" y="-7.5" font-family="Helvetica,sans-Serif" font-size="10.00">PlantDied</text>
</a>
</g>
</g>
<!-- Node1&#45;&gt;Node2 -->
<g id="edge1" class="edge">
<title>Node1&#45;&gt;Node2</title>
<path fill="none" stroke="midnightblue" d="M89.23,-50.62C74.98,-40.76 56.54,-27.99 44.5,-19.65"/>
<polygon fill="midnightblue" stroke="midnightblue" points="87.25,-53.51 97.47,-56.32 91.24,-47.75 87.25,-53.51"/>
</g>
<!-- Node3 -->
<g id="node3" class="node">
<title>Node3</title>
<g id="a_node3"><a xlink:href="classRestock.html" target="_top" xlink:title="Will handle the transaction as a refund.">
<polygon fill="white" stroke="black" points="82,-0.5 82,-19.5 138,-19.5 138,-0.5 82,-0.5"/>
<text text-anchor="middle" x="110" y="-7.5" font-family="Helvetica,sans-Serif" font-size="10.00">Restock</text>
</a>
</g>
</g>
<!-- Node1&#45;&gt;Node3 -->
<g id="edge2" class="edge">
<title>Node1&#45;&gt;Node3</title>
<path fill="none" stroke="midnightblue" d="M103.53,-46.1C102.9,-37.14 103.34,-26.86 104.87,-19.75"/>
<polygon fill="midnightblue" stroke="midnightblue" points="100.07,-46.62 104.83,-56.08 107.01,-45.71 100.07,-46.62"/>
</g>
<!-- Node1&#45;&gt;Node3 -->
<g id="edge3" class="edge">
<title>Node1&#45;&gt;Node3</title>
<path fill="none" stroke="midnightblue" d="M116.47,-46.1C117.1,-37.14 116.66,-26.86 115.13,-19.75"/>
<polygon fill="midnightblue" stroke="midnightblue" points="112.99,-45.71 115.17,-56.08 119.93,-46.62 112.99,-45.71"/>
</g>
<!-- Node4 -->
<g id="node4" class="node">
<title>Node4</title>
<g id="a_node4"><a xlink:href="classReturn.html" target="_top" xlink:title="Will handle the transaction as a Return.">
<polygon fill="white" stroke="black" points="156.5,-0.5 156.5,-19.5 205.5,-19.5 205.5,-0.5 156.5,-0.5"/>
<text text-anchor="middle" x="181" y="-7.5" font-family="Helvetica,sans-Serif" font-size="10.00">Return</text>
</a>
</g>
</g>
<!-- Node1&#45;&gt;Node4 -->
<g id="edge4" class="edge">
<title>Node1&#45;&gt;Node4</title>
<path fill="none" stroke="midnightblue" d="M129.59,-50.1C142.37,-40.38 158.61,-28.03 169.39,-19.83"/>
<polygon fill="midnightblue" stroke="midnightblue" points="127.25,-47.48 121.41,-56.32 131.49,-53.06 127.25,-47.48"/>
</g>
<!-- Node5 -->
<g id="node5" class="node">
<title>Node5</title>
<g id="a_node5"><a xlink:href="classSale.html" target="_top" xlink:title="Will handle the transaction as a sale.">
<polygon fill="white" stroke="black" points="224,-0.5 224,-19.5 262,-19.5 262,-0.5 224,-0.5"/>
<text text-anchor="middle" x="243" y="-7.5" font-family="Helvetica,sans-Serif" font-size="10.00">Sale</text>
</a>
</g>
</g>
<!-- Node1&#45;&gt;Node5 -->
<g id="edge5" class="edge">
<title>Node1&#45;&gt;Node5</title>
<path fill="none" stroke="midnightblue" d="M140.34,-52.68C165.97,-42.27 201.9,-27.69 223.75,-18.82"/>
<polygon fill="midnightblue" stroke="midnightblue" points="139.02,-49.44 131.07,-56.44 141.66,-55.92 139.02,-49.44"/>
</g>
</g>
</svg>
