<?xml version="1.0" encoding="UTF-8" standalone="no"?>
<!DOCTYPE svg PUBLIC "-//W3C//DTD SVG 1.1//EN"
 "http://www.w3.org/Graphics/SVG/1.1/DTD/svg11.dtd">
<!-- Generated by graphviz version 2.43.0 (0)
 -->
<!-- Title: GreenhouseStaff Pages: 1 -->
<svg width="270pt" height="84pt"
 viewBox="0.00 0.00 270.00 84.00" xmlns="http://www.w3.org/2000/svg" xmlns:xlink="http://www.w3.org/1999/xlink">
<g id="graph0" class="graph" transform="scale(1 1) rotate(0) translate(4 80)">
<title>GreenhouseStaff</title>
<polygon fill="white" stroke="transparent" points="-4,4 -4,-80 266,-80 266,4 -4,4"/>
<!-- Node1 -->
<g id="node1" class="node">
<title>Node1</title>
<g id="a_node1"><a xlink:title="Abstract base class for greenhouse staff observers.">
<polygon fill="#bfbfbf" stroke="black" points="89,-56.5 89,-75.5 187,-75.5 187,-56.5 89,-56.5"/>
<text text-anchor="middle" x="138" y="-63.5" font-family="Helvetica,sans-Serif" font-size="10.00">GreenhouseStaff</text>
</a>
</g>
</g>
<!-- Node2 -->
<g id="node2" class="node">
<title>Node2</title>
<g id="a_node2"><a xlink:href="classFertilizerStaff.html" target="_top" xlink:title="Concrete observer class for staff responsible for fertilizing plants.">
<polygon fill="white" stroke="black" points="0,-0.5 0,-19.5 82,-19.5 82,-0.5 0,-0.5"/>
<text text-anchor="middle" x="41" y="-7.5" font-family="Helvetica,sans-Serif" font-size="10.00">FertilizerStaff</text>
</a>
</g>
</g>
<!-- Node1&#45;&gt;Node2 -->
<g id="edge1" class="edge">
<title>Node1&#45;&gt;Node2</title>
<path fill="none" stroke="midnightblue" d="M113.66,-51.45C95.76,-41.48 71.95,-28.23 56.55,-19.65"/>
<polygon fill="midnightblue" stroke="midnightblue" points="111.98,-54.52 122.42,-56.32 115.38,-48.4 111.98,-54.52"/>
</g>
<!-- Node3 -->
<g id="node3" class="node">
<title>Node3</title>
<g id="a_node3"><a xlink:href="classPruningStaff.html" target="_top" xlink:title="Concrete observer class for staff responsible for pruning plants.">
<polygon fill="white" stroke="black" points="100,-0.5 100,-19.5 176,-19.5 176,-0.5 100,-0.5"/>
<text text-anchor="middle" x="138" y="-7.5" font-family="Helvetica,sans-Serif" font-size="10.00">PruningStaff</text>
</a>
</g>
</g>
<!-- Node1&#45;&gt;Node3 -->
<g id="edge2" class="edge">
<title>Node1&#45;&gt;Node3</title>
<path fill="none" stroke="midnightblue" d="M138,-45.8C138,-36.91 138,-26.78 138,-19.75"/>
<polygon fill="midnightblue" stroke="midnightblue" points="134.5,-46.08 138,-56.08 141.5,-46.08 134.5,-46.08"/>
</g>
<!-- Node4 -->
<g id="node4" class="node">
<title>Node4</title>
<g id="a_node4"><a xlink:href="classWaterStaff.html" target="_top" xlink:title="Concrete observer class for staff responsible for watering plants.">
<polygon fill="white" stroke="black" points="194,-0.5 194,-19.5 262,-19.5 262,-0.5 194,-0.5"/>
<text text-anchor="middle" x="228" y="-7.5" font-family="Helvetica,sans-Serif" font-size="10.00">WaterStaff</text>
</a>
</g>
</g>
<!-- Node1&#45;&gt;Node4 -->
<g id="edge3" class="edge">
<title>Node1&#45;&gt;Node4</title>
<path fill="none" stroke="midnightblue" d="M161.04,-51.18C177.6,-41.24 199.42,-28.15 213.58,-19.65"/>
<polygon fill="midnightblue" stroke="midnightblue" points="159.23,-48.18 152.46,-56.32 162.84,-54.18 159.23,-48.18"/>
</g>
</g>
</svg>
