<?xml version="1.0" encoding="UTF-8" standalone="no"?>
<!DOCTYPE svg PUBLIC "-//W3C//DTD SVG 1.1//EN"
 "http://www.w3.org/Graphics/SVG/1.1/DTD/svg11.dtd">
<!-- Generated by graphviz version 2.43.0 (0)
 -->
<!-- Title: backend/customer/Customer.h Pages: 1 -->
<svg width="1525pt" height="408pt"
 viewBox="0.00 0.00 1525.00 408.00" xmlns="http://www.w3.org/2000/svg" xmlns:xlink="http://www.w3.org/1999/xlink">
<g id="graph0" class="graph" transform="scale(1 1) rotate(0) translate(4 404)">
<title>backend/customer/Customer.h</title>
<polygon fill="white" stroke="transparent" points="-4,4 -4,-404 1521,-404 1521,4 -4,4"/>
<!-- Node1 -->
<g id="node1" class="node">
<title>Node1</title>
<g id="a_node1"><a xlink:title="Abstract base class for all customer types in the plant shop game.">
<polygon fill="#bfbfbf" stroke="black" points="639.5,-380.5 639.5,-399.5 803.5,-399.5 803.5,-380.5 639.5,-380.5"/>
<text text-anchor="middle" x="721.5" y="-387.5" font-family="Helvetica,sans-Serif" font-size="10.00">backend/customer/Customer.h</text>
</a>
</g>
</g>
<!-- Node2 -->
<g id="node2" class="node">
<title>Node2</title>
<g id="a_node2"><a xlink:href="AverageCustomer_8h.html" target="_top" xlink:title="Concrete customer class representing moderately experienced plant buyers.">
<polygon fill="white" stroke="black" points="167,-313.5 167,-343.5 316,-343.5 316,-313.5 167,-313.5"/>
<text text-anchor="start" x="175" y="-331.5" font-family="Helvetica,sans-Serif" font-size="10.00">backend/customer/Average</text>
<text text-anchor="middle" x="241.5" y="-320.5" font-family="Helvetica,sans-Serif" font-size="10.00">Customer.h</text>
</a>
</g>
</g>
<!-- Node1&#45;&gt;Node2 -->
<g id="edge1" class="edge">
<title>Node1&#45;&gt;Node2</title>
<path fill="none" stroke="midnightblue" d="M642.79,-379.24C552.28,-368.02 404.8,-349.74 316.07,-338.74"/>
<polygon fill="midnightblue" stroke="midnightblue" points="642.37,-382.72 652.73,-380.48 643.23,-375.77 642.37,-382.72"/>
</g>
<!-- Node6 -->
<g id="node6" class="node">
<title>Node6</title>
<g id="a_node6"><a xlink:href="Customer_8cpp.html" target="_top" xlink:title="Implements the functionality defined in the Customer class.">
<polygon fill="white" stroke="black" points="396.5,-319 396.5,-338 572.5,-338 572.5,-319 396.5,-319"/>
<text text-anchor="middle" x="484.5" y="-326" font-family="Helvetica,sans-Serif" font-size="10.00">backend/customer/Customer.cpp</text>
</a>
</g>
</g>
<!-- Node1&#45;&gt;Node6 -->
<g id="edge5" class="edge">
<title>Node1&#45;&gt;Node6</title>
<path fill="none" stroke="midnightblue" d="M677.56,-377.97C631.54,-366.41 560.25,-348.52 518.39,-338.01"/>
<polygon fill="midnightblue" stroke="midnightblue" points="676.99,-381.43 687.54,-380.48 678.7,-374.65 676.99,-381.43"/>
</g>
<!-- Node7 -->
<g id="node7" class="node">
<title>Node7</title>
<g id="a_node7"><a xlink:href="CustomerBuilder_8h.html" target="_top" xlink:title="Abstract builder interface for creating Customer objects.">
<polygon fill="white" stroke="black" points="590.5,-313.5 590.5,-343.5 746.5,-343.5 746.5,-313.5 590.5,-313.5"/>
<text text-anchor="start" x="598.5" y="-331.5" font-family="Helvetica,sans-Serif" font-size="10.00">backend/customer/Customer</text>
<text text-anchor="middle" x="668.5" y="-320.5" font-family="Helvetica,sans-Serif" font-size="10.00">Builder.h</text>
</a>
</g>
</g>
<!-- Node1&#45;&gt;Node7 -->
<g id="edge6" class="edge">
<title>Node1&#45;&gt;Node7</title>
<path fill="none" stroke="midnightblue" d="M707.08,-372.81C698.92,-363.65 688.81,-352.3 680.99,-343.52"/>
<polygon fill="midnightblue" stroke="midnightblue" points="704.64,-375.34 713.91,-380.48 709.87,-370.68 704.64,-375.34"/>
</g>
<!-- Node15 -->
<g id="node15" class="node">
<title>Node15</title>
<g id="a_node15"><a xlink:href="Game_8h.html" target="_top" xlink:title="Header file for Game class.">
<polygon fill="white" stroke="black" points="683,-252 683,-271 812,-271 812,-252 683,-252"/>
<text text-anchor="middle" x="747.5" y="-259" font-family="Helvetica,sans-Serif" font-size="10.00">backend/game/Game.h</text>
</a>
</g>
</g>
<!-- Node1&#45;&gt;Node15 -->
<g id="edge33" class="edge">
<title>Node1&#45;&gt;Node15</title>
<path fill="none" stroke="midnightblue" d="M737.68,-372.96C744.6,-364.98 751.9,-354.75 755.5,-344 764,-318.66 755.7,-286.58 750.69,-271.33"/>
<polygon fill="midnightblue" stroke="midnightblue" points="735.02,-370.68 730.79,-380.39 740.15,-375.44 735.02,-370.68"/>
</g>
<!-- Node23 -->
<g id="node23" class="node">
<title>Node23</title>
<g id="a_node23"><a xlink:href="GreenFingerCustomer_8h.html" target="_top" xlink:title="Concrete customer class representing expert plant enthusiasts.">
<polygon fill="white" stroke="black" points="830.5,-313.5 830.5,-343.5 998.5,-343.5 998.5,-313.5 830.5,-313.5"/>
<text text-anchor="start" x="838.5" y="-331.5" font-family="Helvetica,sans-Serif" font-size="10.00">backend/customer/GreenFinger</text>
<text text-anchor="middle" x="914.5" y="-320.5" font-family="Helvetica,sans-Serif" font-size="10.00">Customer.h</text>
</a>
</g>
</g>
<!-- Node1&#45;&gt;Node23 -->
<g id="edge27" class="edge">
<title>Node1&#45;&gt;Node23</title>
<path fill="none" stroke="midnightblue" d="M758.86,-377.48C790.32,-367.78 835.45,-353.87 869.01,-343.52"/>
<polygon fill="midnightblue" stroke="midnightblue" points="757.68,-374.18 749.15,-380.48 759.74,-380.87 757.68,-374.18"/>
</g>
<!-- Node25 -->
<g id="node25" class="node">
<title>Node25</title>
<g id="a_node25"><a xlink:href="IgnorantCustomer_8h.html" target="_top" xlink:title="Concrete customer class representing inexperienced plant buyers.">
<polygon fill="white" stroke="black" points="1016,-313.5 1016,-343.5 1165,-343.5 1165,-313.5 1016,-313.5"/>
<text text-anchor="start" x="1024" y="-331.5" font-family="Helvetica,sans-Serif" font-size="10.00">backend/customer/Ignorant</text>
<text text-anchor="middle" x="1090.5" y="-320.5" font-family="Helvetica,sans-Serif" font-size="10.00">Customer.h</text>
</a>
</g>
</g>
<!-- Node1&#45;&gt;Node25 -->
<g id="edge30" class="edge">
<title>Node1&#45;&gt;Node25</title>
<path fill="none" stroke="midnightblue" d="M787.57,-378.93C845.57,-370.01 932.19,-356.5 1007.5,-344 1010.24,-343.54 1013.03,-343.08 1015.85,-342.6"/>
<polygon fill="midnightblue" stroke="midnightblue" points="786.8,-375.51 777.44,-380.48 787.86,-382.42 786.8,-375.51"/>
</g>
<!-- Node3 -->
<g id="node3" class="node">
<title>Node3</title>
<g id="a_node3"><a xlink:href="AverageCustomer_8cpp.html" target="_top" xlink:title="Implements the functionality defined in the AverageCustomer class.">
<polygon fill="white" stroke="black" points="0,-246.5 0,-276.5 149,-276.5 149,-246.5 0,-246.5"/>
<text text-anchor="start" x="8" y="-264.5" font-family="Helvetica,sans-Serif" font-size="10.00">backend/customer/Average</text>
<text text-anchor="middle" x="74.5" y="-253.5" font-family="Helvetica,sans-Serif" font-size="10.00">Customer.cpp</text>
</a>
</g>
</g>
<!-- Node2&#45;&gt;Node3 -->
<g id="edge2" class="edge">
<title>Node2&#45;&gt;Node3</title>
<path fill="none" stroke="midnightblue" d="M195.72,-309.68C168.94,-299.26 135.6,-286.28 110.67,-276.58"/>
<polygon fill="midnightblue" stroke="midnightblue" points="194.67,-313.03 205.26,-313.4 197.21,-306.51 194.67,-313.03"/>
</g>
<!-- Node4 -->
<g id="node4" class="node">
<title>Node4</title>
<g id="a_node4"><a xlink:href="AverageCustomerBuilder_8h.html" target="_top" xlink:title="Builder class for creating AverageCustomer objects with randomized dialogues.">
<polygon fill="white" stroke="black" points="167,-246.5 167,-276.5 316,-276.5 316,-246.5 167,-246.5"/>
<text text-anchor="start" x="175" y="-264.5" font-family="Helvetica,sans-Serif" font-size="10.00">backend/customer/Average</text>
<text text-anchor="middle" x="241.5" y="-253.5" font-family="Helvetica,sans-Serif" font-size="10.00">CustomerBuilder.h</text>
</a>
</g>
</g>
<!-- Node2&#45;&gt;Node4 -->
<g id="edge3" class="edge">
<title>Node2&#45;&gt;Node4</title>
<path fill="none" stroke="midnightblue" d="M241.5,-303.11C241.5,-294.15 241.5,-284.32 241.5,-276.58"/>
<polygon fill="midnightblue" stroke="midnightblue" points="238,-303.4 241.5,-313.4 245,-303.4 238,-303.4"/>
</g>
<!-- Node5 -->
<g id="node5" class="node">
<title>Node5</title>
<g id="a_node5"><a xlink:href="AverageCustomerBuilder_8cpp.html" target="_top" xlink:title="Implements the AverageCustomerBuilder class functionality.">
<polygon fill="white" stroke="black" points="162,-179.5 162,-209.5 311,-209.5 311,-179.5 162,-179.5"/>
<text text-anchor="start" x="170" y="-197.5" font-family="Helvetica,sans-Serif" font-size="10.00">backend/customer/Average</text>
<text text-anchor="middle" x="236.5" y="-186.5" font-family="Helvetica,sans-Serif" font-size="10.00">CustomerBuilder.cpp</text>
</a>
</g>
</g>
<!-- Node4&#45;&gt;Node5 -->
<g id="edge4" class="edge">
<title>Node4&#45;&gt;Node5</title>
<path fill="none" stroke="midnightblue" d="M239.65,-236.4C238.95,-227.37 238.19,-217.41 237.58,-209.58"/>
<polygon fill="midnightblue" stroke="midnightblue" points="236.16,-236.69 240.42,-246.4 243.14,-236.16 236.16,-236.69"/>
</g>
<!-- Node7&#45;&gt;Node4 -->
<g id="edge7" class="edge">
<title>Node7&#45;&gt;Node4</title>
<path fill="none" stroke="midnightblue" d="M580.09,-312.81C466.23,-295.5 435.8,-294.27 325.5,-277 322.43,-276.52 319.3,-276.02 316.14,-275.51"/>
<polygon fill="midnightblue" stroke="midnightblue" points="579.85,-316.31 590.26,-314.36 580.9,-309.39 579.85,-316.31"/>
</g>
<!-- Node8 -->
<g id="node8" class="node">
<title>Node8</title>
<g id="a_node8"><a xlink:href="CustomerBuilder_8cpp.html" target="_top" xlink:title="Implements the CustomerBuilder base class functionality.">
<polygon fill="white" stroke="black" points="508.5,-246.5 508.5,-276.5 664.5,-276.5 664.5,-246.5 508.5,-246.5"/>
<text text-anchor="start" x="516.5" y="-264.5" font-family="Helvetica,sans-Serif" font-size="10.00">backend/customer/Customer</text>
<text text-anchor="middle" x="586.5" y="-253.5" font-family="Helvetica,sans-Serif" font-size="10.00">Builder.cpp</text>
</a>
</g>
</g>
<!-- Node7&#45;&gt;Node8 -->
<g id="edge8" class="edge">
<title>Node7&#45;&gt;Node8</title>
<path fill="none" stroke="midnightblue" d="M642.85,-307.17C630.31,-297.23 615.53,-285.51 604.26,-276.58"/>
<polygon fill="midnightblue" stroke="midnightblue" points="640.7,-309.93 650.71,-313.4 645.04,-304.44 640.7,-309.93"/>
</g>
<!-- Node9 -->
<g id="node9" class="node">
<title>Node9</title>
<g id="a_node9"><a xlink:href="Director_8h.html" target="_top" xlink:title="Director class for coordinating customer construction using builders and visitors.">
<polygon fill="white" stroke="black" points="334.5,-252 334.5,-271 490.5,-271 490.5,-252 334.5,-252"/>
<text text-anchor="middle" x="412.5" y="-259" font-family="Helvetica,sans-Serif" font-size="10.00">backend/customer/Director.h</text>
</a>
</g>
</g>
<!-- Node7&#45;&gt;Node9 -->
<g id="edge9" class="edge">
<title>Node7&#45;&gt;Node9</title>
<path fill="none" stroke="midnightblue" d="M603.48,-310.99C553.31,-298.25 485.95,-281.15 446.09,-271.03"/>
<polygon fill="midnightblue" stroke="midnightblue" points="602.71,-314.41 613.27,-313.48 604.44,-307.62 602.71,-314.41"/>
</g>
<!-- Node11 -->
<g id="node11" class="node">
<title>Node11</title>
<g id="a_node11"><a xlink:href="GreenFingerCustomerBuilder_8h.html" target="_top" xlink:title="Builder class for creating GreenFingerCustomer objects with randomized dialogues.">
<polygon fill="white" stroke="black" points="830.5,-246.5 830.5,-276.5 998.5,-276.5 998.5,-246.5 830.5,-246.5"/>
<text text-anchor="start" x="838.5" y="-264.5" font-family="Helvetica,sans-Serif" font-size="10.00">backend/customer/GreenFinger</text>
<text text-anchor="middle" x="914.5" y="-253.5" font-family="Helvetica,sans-Serif" font-size="10.00">CustomerBuilder.h</text>
</a>
</g>
</g>
<!-- Node7&#45;&gt;Node11 -->
<g id="edge11" class="edge">
<title>Node7&#45;&gt;Node11</title>
<path fill="none" stroke="midnightblue" d="M731.26,-310.92C771.4,-300.31 822.92,-286.7 861.1,-276.61"/>
<polygon fill="midnightblue" stroke="midnightblue" points="730.35,-307.54 721.58,-313.48 732.14,-314.31 730.35,-307.54"/>
</g>
<!-- Node13 -->
<g id="node13" class="node">
<title>Node13</title>
<g id="a_node13"><a xlink:href="IgnorantCustomerBuilder_8h.html" target="_top" xlink:title="Builder class for creating IgnorantCustomer objects with randomized dialogues.">
<polygon fill="white" stroke="black" points="1016,-246.5 1016,-276.5 1165,-276.5 1165,-246.5 1016,-246.5"/>
<text text-anchor="start" x="1024" y="-264.5" font-family="Helvetica,sans-Serif" font-size="10.00">backend/customer/Ignorant</text>
<text text-anchor="middle" x="1090.5" y="-253.5" font-family="Helvetica,sans-Serif" font-size="10.00">CustomerBuilder.h</text>
</a>
</g>
</g>
<!-- Node7&#45;&gt;Node13 -->
<g id="edge13" class="edge">
<title>Node7&#45;&gt;Node13</title>
<path fill="none" stroke="midnightblue" d="M756.99,-314.94C825.45,-305.07 922.58,-290.74 1007.5,-277 1010.24,-276.56 1013.04,-276.1 1015.86,-275.63"/>
<polygon fill="midnightblue" stroke="midnightblue" points="756.08,-311.53 746.68,-316.42 757.08,-318.46 756.08,-311.53"/>
</g>
<!-- Node7&#45;&gt;Node15 -->
<g id="edge15" class="edge">
<title>Node7&#45;&gt;Node15</title>
<path fill="none" stroke="midnightblue" d="M693.41,-307.01C708.07,-294.94 725.86,-280.3 736.93,-271.19"/>
<polygon fill="midnightblue" stroke="midnightblue" points="691.14,-304.34 685.64,-313.4 695.59,-309.75 691.14,-304.34"/>
</g>
<!-- Node10 -->
<g id="node10" class="node">
<title>Node10</title>
<g id="a_node10"><a xlink:href="Director_8cpp.html" target="_top" xlink:title="Implements the Director class functionality.">
<polygon fill="white" stroke="black" points="329,-185 329,-204 496,-204 496,-185 329,-185"/>
<text text-anchor="middle" x="412.5" y="-192" font-family="Helvetica,sans-Serif" font-size="10.00">backend/customer/Director.cpp</text>
</a>
</g>
</g>
<!-- Node9&#45;&gt;Node10 -->
<g id="edge10" class="edge">
<title>Node9&#45;&gt;Node10</title>
<path fill="none" stroke="midnightblue" d="M412.5,-241.54C412.5,-229.17 412.5,-213.62 412.5,-204.13"/>
<polygon fill="midnightblue" stroke="midnightblue" points="409,-241.73 412.5,-251.73 416,-241.73 409,-241.73"/>
</g>
<!-- Node12 -->
<g id="node12" class="node">
<title>Node12</title>
<g id="a_node12"><a xlink:href="GreenFingerCustomerBuilder_8cpp.html" target="_top" xlink:title="Implements the GreenFingerCustomerBuilder class functionality.">
<polygon fill="white" stroke="black" points="856.5,-179.5 856.5,-209.5 1024.5,-209.5 1024.5,-179.5 856.5,-179.5"/>
<text text-anchor="start" x="864.5" y="-197.5" font-family="Helvetica,sans-Serif" font-size="10.00">backend/customer/GreenFinger</text>
<text text-anchor="middle" x="940.5" y="-186.5" font-family="Helvetica,sans-Serif" font-size="10.00">CustomerBuilder.cpp</text>
</a>
</g>
</g>
<!-- Node11&#45;&gt;Node12 -->
<g id="edge12" class="edge">
<title>Node11&#45;&gt;Node12</title>
<path fill="none" stroke="midnightblue" d="M923.9,-236.99C927.58,-227.8 931.67,-217.58 934.87,-209.58"/>
<polygon fill="midnightblue" stroke="midnightblue" points="920.61,-235.81 920.14,-246.4 927.11,-238.41 920.61,-235.81"/>
</g>
<!-- Node14 -->
<g id="node14" class="node">
<title>Node14</title>
<g id="a_node14"><a xlink:href="IgnorantCustomerBuilder_8cpp.html" target="_top" xlink:title="Implements the IgnorantCustomerBuilder class functionality.">
<polygon fill="white" stroke="black" points="1042,-179.5 1042,-209.5 1191,-209.5 1191,-179.5 1042,-179.5"/>
<text text-anchor="start" x="1050" y="-197.5" font-family="Helvetica,sans-Serif" font-size="10.00">backend/customer/Ignorant</text>
<text text-anchor="middle" x="1116.5" y="-186.5" font-family="Helvetica,sans-Serif" font-size="10.00">CustomerBuilder.cpp</text>
</a>
</g>
</g>
<!-- Node13&#45;&gt;Node14 -->
<g id="edge14" class="edge">
<title>Node13&#45;&gt;Node14</title>
<path fill="none" stroke="midnightblue" d="M1099.9,-236.99C1103.58,-227.8 1107.67,-217.58 1110.87,-209.58"/>
<polygon fill="midnightblue" stroke="midnightblue" points="1096.61,-235.81 1096.14,-246.4 1103.11,-238.41 1096.61,-235.81"/>
</g>
<!-- Node16 -->
<g id="node16" class="node">
<title>Node16</title>
<g id="a_node16"><a xlink:href="API_8h.html" target="_top" xlink:title="Bootstrapper for public facing API.">
<polygon fill="white" stroke="black" points="1133.5,-118 1133.5,-137 1237.5,-137 1237.5,-118 1133.5,-118"/>
<text text-anchor="middle" x="1185.5" y="-125" font-family="Helvetica,sans-Serif" font-size="10.00">backend/API/API.h</text>
</a>
</g>
</g>
<!-- Node15&#45;&gt;Node16 -->
<g id="edge16" class="edge">
<title>Node15&#45;&gt;Node16</title>
<path fill="none" stroke="midnightblue" d="M766.19,-245.69C778.77,-235.68 795.7,-222.13 810.5,-210 827.09,-196.4 827.85,-187.62 847.5,-179 961.19,-129.14 1002.39,-165.39 1124.5,-143 1133.6,-141.33 1143.38,-139.17 1152.39,-137.03"/>
<polygon fill="midnightblue" stroke="midnightblue" points="763.91,-243.03 758.26,-251.99 768.27,-248.51 763.91,-243.03"/>
</g>
<!-- Node17 -->
<g id="node17" class="node">
<title>Node17</title>
<g id="a_node17"><a xlink:href="APIController_8h.html" target="_top" xlink:title="Define endpoints.">
<polygon fill="white" stroke="black" points="748,-56.5 748,-75.5 899,-75.5 899,-56.5 748,-56.5"/>
<text text-anchor="middle" x="823.5" y="-63.5" font-family="Helvetica,sans-Serif" font-size="10.00">backend/API/APIController.h</text>
</a>
</g>
</g>
<!-- Node15&#45;&gt;Node17 -->
<g id="edge19" class="edge">
<title>Node15&#45;&gt;Node17</title>
<path fill="none" stroke="midnightblue" d="M704.79,-249.22C629.91,-227.45 487.86,-176.09 542.5,-112 568.42,-81.59 673.77,-71.65 747.82,-68.44"/>
<polygon fill="midnightblue" stroke="midnightblue" points="703.87,-252.59 714.44,-251.97 705.79,-245.86 703.87,-252.59"/>
</g>
<!-- Node19 -->
<g id="node19" class="node">
<title>Node19</title>
<g id="a_node19"><a xlink:href="MenuOption_8h_source.html" target="_top" xlink:title=" ">
<polygon fill="white" stroke="black" points="642,-185 642,-204 801,-204 801,-185 642,-185"/>
<text text-anchor="middle" x="721.5" y="-192" font-family="Helvetica,sans-Serif" font-size="10.00">backend/game/MenuOption.h</text>
</a>
</g>
</g>
<!-- Node15&#45;&gt;Node19 -->
<g id="edge20" class="edge">
<title>Node15&#45;&gt;Node19</title>
<path fill="none" stroke="midnightblue" d="M740.22,-242.29C735.22,-229.81 728.83,-213.81 724.95,-204.13"/>
<polygon fill="midnightblue" stroke="midnightblue" points="737.03,-243.75 743.99,-251.73 743.53,-241.15 737.03,-243.75"/>
</g>
<!-- Node16&#45;&gt;Node17 -->
<g id="edge17" class="edge">
<title>Node16&#45;&gt;Node17</title>
<path fill="none" stroke="midnightblue" d="M1141.57,-115.59C1135.85,-114.3 1130.04,-113.07 1124.5,-112 1045,-96.64 952.81,-83.54 891.62,-75.5"/>
<polygon fill="midnightblue" stroke="midnightblue" points="1141.2,-119.09 1151.73,-117.93 1142.78,-112.27 1141.2,-119.09"/>
</g>
<!-- Node18 -->
<g id="node18" class="node">
<title>Node18</title>
<g id="a_node18"><a xlink:href="APIController_8cpp.html" target="_top" xlink:title="Still need to see what going to do here.">
<polygon fill="white" stroke="black" points="742.5,-0.5 742.5,-19.5 904.5,-19.5 904.5,-0.5 742.5,-0.5"/>
<text text-anchor="middle" x="823.5" y="-7.5" font-family="Helvetica,sans-Serif" font-size="10.00">backend/API/APIController.cpp</text>
</a>
</g>
</g>
<!-- Node17&#45;&gt;Node18 -->
<g id="edge18" class="edge">
<title>Node17&#45;&gt;Node18</title>
<path fill="none" stroke="midnightblue" d="M823.5,-45.8C823.5,-36.91 823.5,-26.78 823.5,-19.75"/>
<polygon fill="midnightblue" stroke="midnightblue" points="820,-46.08 823.5,-56.08 827,-46.08 820,-46.08"/>
</g>
<!-- Node20 -->
<g id="node20" class="node">
<title>Node20</title>
<g id="a_node20"><a xlink:href="ContinueGameOption_8h.html" target="_top" xlink:title="Header file for ContinueGameOption class.">
<polygon fill="white" stroke="black" points="551.5,-112.5 551.5,-142.5 715.5,-142.5 715.5,-112.5 551.5,-112.5"/>
<text text-anchor="start" x="559.5" y="-130.5" font-family="Helvetica,sans-Serif" font-size="10.00">backend/game/ContinueGame</text>
<text text-anchor="middle" x="633.5" y="-119.5" font-family="Helvetica,sans-Serif" font-size="10.00">Option.h</text>
</a>
</g>
</g>
<!-- Node19&#45;&gt;Node20 -->
<g id="edge21" class="edge">
<title>Node19&#45;&gt;Node20</title>
<path fill="none" stroke="midnightblue" d="M701.25,-178.54C686.61,-167.73 666.94,-153.2 652.57,-142.59"/>
<polygon fill="midnightblue" stroke="midnightblue" points="699.51,-181.61 709.63,-184.73 703.67,-175.98 699.51,-181.61"/>
</g>
<!-- Node21 -->
<g id="node21" class="node">
<title>Node21</title>
<g id="a_node21"><a xlink:href="ExitGameOption_8h.html" target="_top" xlink:title=" ">
<polygon fill="white" stroke="black" points="733.5,-118 733.5,-137 913.5,-137 913.5,-118 733.5,-118"/>
<text text-anchor="middle" x="823.5" y="-125" font-family="Helvetica,sans-Serif" font-size="10.00">backend/game/ExitGameOption.h</text>
</a>
</g>
</g>
<!-- Node19&#45;&gt;Node21 -->
<g id="edge23" class="edge">
<title>Node19&#45;&gt;Node21</title>
<path fill="none" stroke="midnightblue" d="M743.83,-179.27C764.02,-166.4 793.09,-147.88 809.96,-137.13"/>
<polygon fill="midnightblue" stroke="midnightblue" points="741.81,-176.41 735.26,-184.73 745.57,-182.31 741.81,-176.41"/>
</g>
<!-- Node22 -->
<g id="node22" class="node">
<title>Node22</title>
<g id="a_node22"><a xlink:href="NewGameOption_8h.html" target="_top" xlink:title="Header file for NewGameOption class.">
<polygon fill="white" stroke="black" points="932,-118 932,-137 1115,-137 1115,-118 932,-118"/>
<text text-anchor="middle" x="1023.5" y="-125" font-family="Helvetica,sans-Serif" font-size="10.00">backend/game/NewGameOption.h</text>
</a>
</g>
</g>
<!-- Node19&#45;&gt;Node22 -->
<g id="edge25" class="edge">
<title>Node19&#45;&gt;Node22</title>
<path fill="none" stroke="midnightblue" d="M771.2,-182.8C830.63,-170.01 928.91,-148.86 983.62,-137.08"/>
<polygon fill="midnightblue" stroke="midnightblue" points="770.33,-179.41 761.29,-184.94 771.8,-186.25 770.33,-179.41"/>
</g>
<!-- Node20&#45;&gt;Node17 -->
<g id="edge22" class="edge">
<title>Node20&#45;&gt;Node17</title>
<path fill="none" stroke="midnightblue" d="M688.23,-109.36C723.58,-98.29 768.04,-84.37 796.13,-75.57"/>
<polygon fill="midnightblue" stroke="midnightblue" points="687.02,-106.07 678.53,-112.4 689.12,-112.75 687.02,-106.07"/>
</g>
<!-- Node21&#45;&gt;Node17 -->
<g id="edge24" class="edge">
<title>Node21&#45;&gt;Node17</title>
<path fill="none" stroke="midnightblue" d="M823.5,-107.82C823.5,-97 823.5,-83.9 823.5,-75.51"/>
<polygon fill="midnightblue" stroke="midnightblue" points="820,-107.98 823.5,-117.98 827,-107.98 820,-107.98"/>
</g>
<!-- Node22&#45;&gt;Node17 -->
<g id="edge26" class="edge">
<title>Node22&#45;&gt;Node17</title>
<path fill="none" stroke="midnightblue" d="M984.94,-115.03C946.07,-103.46 886.98,-85.88 852.1,-75.51"/>
<polygon fill="midnightblue" stroke="midnightblue" points="984.26,-118.48 994.84,-117.98 986.26,-111.77 984.26,-118.48"/>
</g>
<!-- Node23&#45;&gt;Node11 -->
<g id="edge29" class="edge">
<title>Node23&#45;&gt;Node11</title>
<path fill="none" stroke="midnightblue" d="M914.5,-303.11C914.5,-294.15 914.5,-284.32 914.5,-276.58"/>
<polygon fill="midnightblue" stroke="midnightblue" points="911,-303.4 914.5,-313.4 918,-303.4 911,-303.4"/>
</g>
<!-- Node24 -->
<g id="node24" class="node">
<title>Node24</title>
<g id="a_node24"><a xlink:href="GreenFingerCustomer_8cpp.html" target="_top" xlink:title="Implements the functionality defined in the GreenFingerCustomer class.">
<polygon fill="white" stroke="black" points="1182.5,-246.5 1182.5,-276.5 1350.5,-276.5 1350.5,-246.5 1182.5,-246.5"/>
<text text-anchor="start" x="1190.5" y="-264.5" font-family="Helvetica,sans-Serif" font-size="10.00">backend/customer/GreenFinger</text>
<text text-anchor="middle" x="1266.5" y="-253.5" font-family="Helvetica,sans-Serif" font-size="10.00">Customer.cpp</text>
</a>
</g>
</g>
<!-- Node23&#45;&gt;Node24 -->
<g id="edge28" class="edge">
<title>Node23&#45;&gt;Node24</title>
<path fill="none" stroke="midnightblue" d="M1000.34,-311.65C1058.43,-300.92 1134.46,-286.88 1190.39,-276.55"/>
<polygon fill="midnightblue" stroke="midnightblue" points="999.64,-308.22 990.45,-313.48 1000.91,-315.1 999.64,-308.22"/>
</g>
<!-- Node25&#45;&gt;Node13 -->
<g id="edge32" class="edge">
<title>Node25&#45;&gt;Node13</title>
<path fill="none" stroke="midnightblue" d="M1090.5,-303.11C1090.5,-294.15 1090.5,-284.32 1090.5,-276.58"/>
<polygon fill="midnightblue" stroke="midnightblue" points="1087,-303.4 1090.5,-313.4 1094,-303.4 1087,-303.4"/>
</g>
<!-- Node26 -->
<g id="node26" class="node">
<title>Node26</title>
<g id="a_node26"><a xlink:href="IgnorantCustomer_8cpp.html" target="_top" xlink:title="Implements the functionality defined in the IgnorantCustomer class.">
<polygon fill="white" stroke="black" points="1368,-246.5 1368,-276.5 1517,-276.5 1517,-246.5 1368,-246.5"/>
<text text-anchor="start" x="1376" y="-264.5" font-family="Helvetica,sans-Serif" font-size="10.00">backend/customer/Ignorant</text>
<text text-anchor="middle" x="1442.5" y="-253.5" font-family="Helvetica,sans-Serif" font-size="10.00">Customer.cpp</text>
</a>
</g>
</g>
<!-- Node25&#45;&gt;Node26 -->
<g id="edge31" class="edge">
<title>Node25&#45;&gt;Node26</title>
<path fill="none" stroke="midnightblue" d="M1175.15,-311.87C1233.93,-301.01 1311.52,-286.69 1367.96,-276.26"/>
<polygon fill="midnightblue" stroke="midnightblue" points="1174.35,-308.46 1165.15,-313.72 1175.62,-315.34 1174.35,-308.46"/>
</g>
</g>
</svg>
