<?xml version="1.0" encoding="UTF-8" standalone="no"?>
<!DOCTYPE svg PUBLIC "-//W3C//DTD SVG 1.1//EN"
 "http://www.w3.org/Graphics/SVG/1.1/DTD/svg11.dtd">
<!-- Generated by graphviz version 2.43.0 (0)
 -->
<!-- Title: backend/customer/CustomerVisitor.h Pages: 1 -->
<svg width="1564pt" height="475pt"
 viewBox="0.00 0.00 1563.50 475.00" xmlns="http://www.w3.org/2000/svg" xmlns:xlink="http://www.w3.org/1999/xlink">
<g id="graph0" class="graph" transform="scale(1 1) rotate(0) translate(4 471)">
<title>backend/customer/CustomerVisitor.h</title>
<polygon fill="white" stroke="transparent" points="-4,4 -4,-471 1559.5,-471 1559.5,4 -4,4"/>
<!-- Node1 -->
<g id="node1" class="node">
<title>Node1</title>
<g id="a_node1"><a xlink:title="Abstract visitor class for plant recommendation strategies for different customer types.">
<polygon fill="#bfbfbf" stroke="black" points="867.5,-436.5 867.5,-466.5 1023.5,-466.5 1023.5,-436.5 867.5,-436.5"/>
<text text-anchor="start" x="875.5" y="-454.5" font-family="Helvetica,sans-Serif" font-size="10.00">backend/customer/Customer</text>
<text text-anchor="middle" x="945.5" y="-443.5" font-family="Helvetica,sans-Serif" font-size="10.00">Visitor.h</text>
</a>
</g>
</g>
<!-- Node2 -->
<g id="node2" class="node">
<title>Node2</title>
<g id="a_node2"><a xlink:href="Customer_8h.html" target="_top" xlink:title="Abstract base class for all customer types in the plant shop game.">
<polygon fill="white" stroke="black" points="685.5,-375 685.5,-394 849.5,-394 849.5,-375 685.5,-375"/>
<text text-anchor="middle" x="767.5" y="-382" font-family="Helvetica,sans-Serif" font-size="10.00">backend/customer/Customer.h</text>
</a>
</g>
</g>
<!-- Node1&#45;&gt;Node2 -->
<g id="edge1" class="edge">
<title>Node1&#45;&gt;Node2</title>
<path fill="none" stroke="midnightblue" d="M897.43,-432.95C862.86,-420.32 817.75,-403.85 790.8,-394.01"/>
<polygon fill="midnightblue" stroke="midnightblue" points="896.28,-436.25 906.88,-436.4 898.68,-429.68 896.28,-436.25"/>
</g>
<!-- Node8 -->
<g id="node8" class="node">
<title>Node8</title>
<g id="a_node8"><a xlink:href="CustomerBuilder_8h.html" target="_top" xlink:title="Abstract builder interface for creating Customer objects.">
<polygon fill="white" stroke="black" points="527.5,-302.5 527.5,-332.5 683.5,-332.5 683.5,-302.5 527.5,-302.5"/>
<text text-anchor="start" x="535.5" y="-320.5" font-family="Helvetica,sans-Serif" font-size="10.00">backend/customer/Customer</text>
<text text-anchor="middle" x="605.5" y="-309.5" font-family="Helvetica,sans-Serif" font-size="10.00">Builder.h</text>
</a>
</g>
</g>
<!-- Node1&#45;&gt;Node8 -->
<g id="edge33" class="edge">
<title>Node1&#45;&gt;Node8</title>
<path fill="none" stroke="midnightblue" d="M857.12,-448.49C802.03,-443.84 731.44,-431.44 676.5,-400 647.84,-383.59 625.03,-351.22 613.57,-332.6"/>
<polygon fill="midnightblue" stroke="midnightblue" points="856.98,-451.99 867.22,-449.27 857.52,-445.01 856.98,-451.99"/>
</g>
<!-- Node10 -->
<g id="node10" class="node">
<title>Node10</title>
<g id="a_node10"><a xlink:href="Director_8h.html" target="_top" xlink:title="Director class for coordinating customer construction using builders and visitors.">
<polygon fill="white" stroke="black" points="35.5,-241 35.5,-260 191.5,-260 191.5,-241 35.5,-241"/>
<text text-anchor="middle" x="113.5" y="-248" font-family="Helvetica,sans-Serif" font-size="10.00">backend/customer/Director.h</text>
</a>
</g>
</g>
<!-- Node1&#45;&gt;Node10 -->
<g id="edge35" class="edge">
<title>Node1&#45;&gt;Node10</title>
<path fill="none" stroke="midnightblue" d="M857.09,-438.8C795.02,-429.92 710.25,-416.44 636.5,-400 443.26,-356.93 215.58,-284.75 139.62,-260.07"/>
<polygon fill="midnightblue" stroke="midnightblue" points="856.85,-442.3 867.24,-440.24 857.84,-435.37 856.85,-442.3"/>
</g>
<!-- Node27 -->
<g id="node27" class="node">
<title>Node27</title>
<g id="a_node27"><a xlink:href="CustomerVisitor_8cpp.html" target="_top" xlink:title="Implements the CustomerVisitor base class functionality.">
<polygon fill="white" stroke="black" points="867.5,-369.5 867.5,-399.5 1023.5,-399.5 1023.5,-369.5 867.5,-369.5"/>
<text text-anchor="start" x="875.5" y="-387.5" font-family="Helvetica,sans-Serif" font-size="10.00">backend/customer/Customer</text>
<text text-anchor="middle" x="945.5" y="-376.5" font-family="Helvetica,sans-Serif" font-size="10.00">Visitor.cpp</text>
</a>
</g>
</g>
<!-- Node1&#45;&gt;Node27 -->
<g id="edge34" class="edge">
<title>Node1&#45;&gt;Node27</title>
<path fill="none" stroke="midnightblue" d="M945.5,-426.11C945.5,-417.15 945.5,-407.32 945.5,-399.58"/>
<polygon fill="midnightblue" stroke="midnightblue" points="942,-426.4 945.5,-436.4 949,-426.4 942,-426.4"/>
</g>
<!-- Node28 -->
<g id="node28" class="node">
<title>Node28</title>
<g id="a_node28"><a xlink:href="VisitEasyCustomer_8h.html" target="_top" xlink:title="Visitor for creating plant recommendations for easy&#45;maintenance customers.">
<polygon fill="white" stroke="black" points="1041.5,-369.5 1041.5,-399.5 1195.5,-399.5 1195.5,-369.5 1041.5,-369.5"/>
<text text-anchor="start" x="1049.5" y="-387.5" font-family="Helvetica,sans-Serif" font-size="10.00">backend/customer/VisitEasy</text>
<text text-anchor="middle" x="1118.5" y="-376.5" font-family="Helvetica,sans-Serif" font-size="10.00">Customer.h</text>
</a>
</g>
</g>
<!-- Node1&#45;&gt;Node28 -->
<g id="edge36" class="edge">
<title>Node1&#45;&gt;Node28</title>
<path fill="none" stroke="midnightblue" d="M992.56,-432.82C1020.37,-422.37 1055.09,-409.32 1081.03,-399.58"/>
<polygon fill="midnightblue" stroke="midnightblue" points="991.17,-429.6 983.04,-436.4 993.63,-436.16 991.17,-429.6"/>
</g>
<!-- Node29 -->
<g id="node29" class="node">
<title>Node29</title>
<g id="a_node29"><a xlink:href="VisitHighCustomer_8h.html" target="_top" xlink:title="Visitor for creating plant recommendations for customers preferring challenging plants.">
<polygon fill="white" stroke="black" points="1214,-369.5 1214,-399.5 1367,-399.5 1367,-369.5 1214,-369.5"/>
<text text-anchor="start" x="1222" y="-387.5" font-family="Helvetica,sans-Serif" font-size="10.00">backend/customer/VisitHigh</text>
<text text-anchor="middle" x="1290.5" y="-376.5" font-family="Helvetica,sans-Serif" font-size="10.00">Customer.h</text>
</a>
</g>
</g>
<!-- Node1&#45;&gt;Node29 -->
<g id="edge37" class="edge">
<title>Node1&#45;&gt;Node29</title>
<path fill="none" stroke="midnightblue" d="M1029.99,-434.58C1086.87,-423.86 1161.2,-409.86 1215.9,-399.55"/>
<polygon fill="midnightblue" stroke="midnightblue" points="1029.11,-431.18 1019.94,-436.48 1030.41,-438.06 1029.11,-431.18"/>
</g>
<!-- Node30 -->
<g id="node30" class="node">
<title>Node30</title>
<g id="a_node30"><a xlink:href="VisitMediumCustomer_8h_source.html" target="_top" xlink:title=" ">
<polygon fill="white" stroke="black" points="1385.5,-369.5 1385.5,-399.5 1555.5,-399.5 1555.5,-369.5 1385.5,-369.5"/>
<text text-anchor="start" x="1393.5" y="-387.5" font-family="Helvetica,sans-Serif" font-size="10.00">backend/customer/VisitMedium</text>
<text text-anchor="middle" x="1470.5" y="-376.5" font-family="Helvetica,sans-Serif" font-size="10.00">Customer.h</text>
</a>
</g>
</g>
<!-- Node1&#45;&gt;Node30 -->
<g id="edge38" class="edge">
<title>Node1&#45;&gt;Node30</title>
<path fill="none" stroke="midnightblue" d="M1033.98,-441.09C1121.19,-431.58 1258.19,-416.05 1376.5,-400 1379.45,-399.6 1382.44,-399.19 1385.47,-398.76"/>
<polygon fill="midnightblue" stroke="midnightblue" points="1033.43,-437.63 1023.86,-442.19 1034.18,-444.58 1033.43,-437.63"/>
</g>
<!-- Node3 -->
<g id="node3" class="node">
<title>Node3</title>
<g id="a_node3"><a xlink:href="AverageCustomer_8h.html" target="_top" xlink:title="Concrete customer class representing moderately experienced plant buyers.">
<polygon fill="white" stroke="black" points="1247,-302.5 1247,-332.5 1396,-332.5 1396,-302.5 1247,-302.5"/>
<text text-anchor="start" x="1255" y="-320.5" font-family="Helvetica,sans-Serif" font-size="10.00">backend/customer/Average</text>
<text text-anchor="middle" x="1321.5" y="-309.5" font-family="Helvetica,sans-Serif" font-size="10.00">Customer.h</text>
</a>
</g>
</g>
<!-- Node2&#45;&gt;Node3 -->
<g id="edge2" class="edge">
<title>Node2&#45;&gt;Node3</title>
<path fill="none" stroke="midnightblue" d="M827.63,-373.37C837.91,-371.79 848.5,-370.27 858.5,-369 1026.8,-347.64 1070.37,-355.61 1238.5,-333 1241.25,-332.63 1244.06,-332.23 1246.89,-331.82"/>
<polygon fill="midnightblue" stroke="midnightblue" points="826.82,-369.95 817.48,-374.95 827.9,-376.87 826.82,-369.95"/>
</g>
<!-- Node7 -->
<g id="node7" class="node">
<title>Node7</title>
<g id="a_node7"><a xlink:href="Customer_8cpp.html" target="_top" xlink:title="Implements the functionality defined in the Customer class.">
<polygon fill="white" stroke="black" points="1053.5,-308 1053.5,-327 1229.5,-327 1229.5,-308 1053.5,-308"/>
<text text-anchor="middle" x="1141.5" y="-315" font-family="Helvetica,sans-Serif" font-size="10.00">backend/customer/Customer.cpp</text>
</a>
</g>
</g>
<!-- Node2&#45;&gt;Node7 -->
<g id="edge6" class="edge">
<title>Node2&#45;&gt;Node7</title>
<path fill="none" stroke="midnightblue" d="M826.8,-373.19C900.25,-360.43 1024.03,-338.92 1092.41,-327.03"/>
<polygon fill="midnightblue" stroke="midnightblue" points="826.03,-369.77 816.78,-374.94 827.23,-376.67 826.03,-369.77"/>
</g>
<!-- Node2&#45;&gt;Node8 -->
<g id="edge7" class="edge">
<title>Node2&#45;&gt;Node8</title>
<path fill="none" stroke="midnightblue" d="M736.49,-371.06C709.05,-360.05 669.03,-343.99 640.46,-332.53"/>
<polygon fill="midnightblue" stroke="midnightblue" points="735.4,-374.39 745.99,-374.87 738.01,-367.9 735.4,-374.39"/>
</g>
<!-- Node16 -->
<g id="node16" class="node">
<title>Node16</title>
<g id="a_node16"><a xlink:href="Game_8h.html" target="_top" xlink:title="Header file for Game class &#45; Main game facade.">
<polygon fill="white" stroke="black" points="210,-241 210,-260 339,-260 339,-241 210,-241"/>
<text text-anchor="middle" x="274.5" y="-248" font-family="Helvetica,sans-Serif" font-size="10.00">backend/game/Game.h</text>
</a>
</g>
</g>
<!-- Node2&#45;&gt;Node16 -->
<g id="edge32" class="edge">
<title>Node2&#45;&gt;Node16</title>
<path fill="none" stroke="midnightblue" d="M705.91,-373.17C655.22,-364.16 581.69,-349.89 518.5,-333 435.66,-310.85 339.83,-276.08 297.09,-260.08"/>
<polygon fill="midnightblue" stroke="midnightblue" points="705.59,-376.67 716.05,-374.96 706.81,-369.78 705.59,-376.67"/>
</g>
<!-- Node23 -->
<g id="node23" class="node">
<title>Node23</title>
<g id="a_node23"><a xlink:href="GreenFingerCustomer_8h.html" target="_top" xlink:title="Concrete customer class representing expert plant enthusiasts.">
<polygon fill="white" stroke="black" points="701.5,-302.5 701.5,-332.5 869.5,-332.5 869.5,-302.5 701.5,-302.5"/>
<text text-anchor="start" x="709.5" y="-320.5" font-family="Helvetica,sans-Serif" font-size="10.00">backend/customer/GreenFinger</text>
<text text-anchor="middle" x="785.5" y="-309.5" font-family="Helvetica,sans-Serif" font-size="10.00">Customer.h</text>
</a>
</g>
</g>
<!-- Node2&#45;&gt;Node23 -->
<g id="edge26" class="edge">
<title>Node2&#45;&gt;Node23</title>
<path fill="none" stroke="midnightblue" d="M772.61,-365.06C775.46,-354.75 778.96,-342.1 781.6,-332.59"/>
<polygon fill="midnightblue" stroke="midnightblue" points="769.22,-364.16 769.93,-374.73 775.97,-366.03 769.22,-364.16"/>
</g>
<!-- Node25 -->
<g id="node25" class="node">
<title>Node25</title>
<g id="a_node25"><a xlink:href="IgnorantCustomer_8h.html" target="_top" xlink:title="Concrete customer class representing inexperienced plant buyers.">
<polygon fill="white" stroke="black" points="887,-302.5 887,-332.5 1036,-332.5 1036,-302.5 887,-302.5"/>
<text text-anchor="start" x="895" y="-320.5" font-family="Helvetica,sans-Serif" font-size="10.00">backend/customer/Ignorant</text>
<text text-anchor="middle" x="961.5" y="-309.5" font-family="Helvetica,sans-Serif" font-size="10.00">Customer.h</text>
</a>
</g>
</g>
<!-- Node2&#45;&gt;Node25 -->
<g id="edge29" class="edge">
<title>Node2&#45;&gt;Node25</title>
<path fill="none" stroke="midnightblue" d="M802.92,-371.63C835.81,-360.61 884.82,-344.19 919.63,-332.53"/>
<polygon fill="midnightblue" stroke="midnightblue" points="801.63,-368.37 793.26,-374.87 803.86,-375.01 801.63,-368.37"/>
</g>
<!-- Node4 -->
<g id="node4" class="node">
<title>Node4</title>
<g id="a_node4"><a xlink:href="AverageCustomer_8cpp.html" target="_top" xlink:title="Implements the functionality defined in the AverageCustomer class.">
<polygon fill="white" stroke="black" points="1404,-235.5 1404,-265.5 1553,-265.5 1553,-235.5 1404,-235.5"/>
<text text-anchor="start" x="1412" y="-253.5" font-family="Helvetica,sans-Serif" font-size="10.00">backend/customer/Average</text>
<text text-anchor="middle" x="1478.5" y="-242.5" font-family="Helvetica,sans-Serif" font-size="10.00">Customer.cpp</text>
</a>
</g>
</g>
<!-- Node3&#45;&gt;Node4 -->
<g id="edge3" class="edge">
<title>Node3&#45;&gt;Node4</title>
<path fill="none" stroke="midnightblue" d="M1364.87,-298.54C1389.99,-288.14 1421.16,-275.24 1444.5,-265.58"/>
<polygon fill="midnightblue" stroke="midnightblue" points="1363.47,-295.34 1355.57,-302.4 1366.14,-301.8 1363.47,-295.34"/>
</g>
<!-- Node5 -->
<g id="node5" class="node">
<title>Node5</title>
<g id="a_node5"><a xlink:href="AverageCustomerBuilder_8h.html" target="_top" xlink:title="Builder class for creating AverageCustomer objects with randomized dialogues.">
<polygon fill="white" stroke="black" points="1237,-235.5 1237,-265.5 1386,-265.5 1386,-235.5 1237,-235.5"/>
<text text-anchor="start" x="1245" y="-253.5" font-family="Helvetica,sans-Serif" font-size="10.00">backend/customer/Average</text>
<text text-anchor="middle" x="1311.5" y="-242.5" font-family="Helvetica,sans-Serif" font-size="10.00">CustomerBuilder.h</text>
</a>
</g>
</g>
<!-- Node3&#45;&gt;Node5 -->
<g id="edge4" class="edge">
<title>Node3&#45;&gt;Node5</title>
<path fill="none" stroke="midnightblue" d="M1317.79,-292.4C1316.4,-283.37 1314.87,-273.41 1313.67,-265.58"/>
<polygon fill="midnightblue" stroke="midnightblue" points="1314.35,-293.04 1319.33,-302.4 1321.27,-291.98 1314.35,-293.04"/>
</g>
<!-- Node6 -->
<g id="node6" class="node">
<title>Node6</title>
<g id="a_node6"><a xlink:href="AverageCustomerBuilder_8cpp.html" target="_top" xlink:title="Implements the AverageCustomerBuilder class functionality.">
<polygon fill="white" stroke="black" points="1237,-168.5 1237,-198.5 1386,-198.5 1386,-168.5 1237,-168.5"/>
<text text-anchor="start" x="1245" y="-186.5" font-family="Helvetica,sans-Serif" font-size="10.00">backend/customer/Average</text>
<text text-anchor="middle" x="1311.5" y="-175.5" font-family="Helvetica,sans-Serif" font-size="10.00">CustomerBuilder.cpp</text>
</a>
</g>
</g>
<!-- Node5&#45;&gt;Node6 -->
<g id="edge5" class="edge">
<title>Node5&#45;&gt;Node6</title>
<path fill="none" stroke="midnightblue" d="M1311.5,-225.11C1311.5,-216.15 1311.5,-206.32 1311.5,-198.58"/>
<polygon fill="midnightblue" stroke="midnightblue" points="1308,-225.4 1311.5,-235.4 1315,-225.4 1308,-225.4"/>
</g>
<!-- Node8&#45;&gt;Node5 -->
<g id="edge8" class="edge">
<title>Node8&#45;&gt;Node5</title>
<path fill="none" stroke="midnightblue" d="M693.69,-301.94C931.37,-274.89 994.7,-294.19 1228.5,-266 1231.26,-265.67 1234.07,-265.3 1236.9,-264.92"/>
<polygon fill="midnightblue" stroke="midnightblue" points="693.24,-298.47 683.7,-303.09 694.04,-305.43 693.24,-298.47"/>
</g>
<!-- Node9 -->
<g id="node9" class="node">
<title>Node9</title>
<g id="a_node9"><a xlink:href="CustomerBuilder_8cpp.html" target="_top" xlink:title="Implements the CustomerBuilder base class functionality.">
<polygon fill="white" stroke="black" points="357.5,-235.5 357.5,-265.5 513.5,-265.5 513.5,-235.5 357.5,-235.5"/>
<text text-anchor="start" x="365.5" y="-253.5" font-family="Helvetica,sans-Serif" font-size="10.00">backend/customer/Customer</text>
<text text-anchor="middle" x="435.5" y="-242.5" font-family="Helvetica,sans-Serif" font-size="10.00">Builder.cpp</text>
</a>
</g>
</g>
<!-- Node8&#45;&gt;Node9 -->
<g id="edge9" class="edge">
<title>Node8&#45;&gt;Node9</title>
<path fill="none" stroke="midnightblue" d="M559.26,-298.82C531.93,-288.37 497.81,-275.32 472.32,-265.58"/>
<polygon fill="midnightblue" stroke="midnightblue" points="558.02,-302.09 568.61,-302.4 560.52,-295.56 558.02,-302.09"/>
</g>
<!-- Node8&#45;&gt;Node10 -->
<g id="edge10" class="edge">
<title>Node8&#45;&gt;Node10</title>
<path fill="none" stroke="midnightblue" d="M517.31,-306.56C435.17,-297.05 309.37,-281.85 200.5,-266 188.23,-264.21 175.01,-262.1 162.68,-260.06"/>
<polygon fill="midnightblue" stroke="midnightblue" points="517.02,-310.05 527.35,-307.72 517.82,-303.1 517.02,-310.05"/>
</g>
<!-- Node12 -->
<g id="node12" class="node">
<title>Node12</title>
<g id="a_node12"><a xlink:href="GreenFingerCustomerBuilder_8h.html" target="_top" xlink:title="Builder class for creating GreenFingerCustomer objects with randomized dialogues.">
<polygon fill="white" stroke="black" points="531.5,-235.5 531.5,-265.5 699.5,-265.5 699.5,-235.5 531.5,-235.5"/>
<text text-anchor="start" x="539.5" y="-253.5" font-family="Helvetica,sans-Serif" font-size="10.00">backend/customer/GreenFinger</text>
<text text-anchor="middle" x="615.5" y="-242.5" font-family="Helvetica,sans-Serif" font-size="10.00">CustomerBuilder.h</text>
</a>
</g>
</g>
<!-- Node8&#45;&gt;Node12 -->
<g id="edge12" class="edge">
<title>Node8&#45;&gt;Node12</title>
<path fill="none" stroke="midnightblue" d="M609.21,-292.4C610.6,-283.37 612.13,-273.41 613.33,-265.58"/>
<polygon fill="midnightblue" stroke="midnightblue" points="605.73,-291.98 607.67,-302.4 612.65,-293.04 605.73,-291.98"/>
</g>
<!-- Node14 -->
<g id="node14" class="node">
<title>Node14</title>
<g id="a_node14"><a xlink:href="IgnorantCustomerBuilder_8h.html" target="_top" xlink:title="Builder class for creating IgnorantCustomer objects with randomized dialogues.">
<polygon fill="white" stroke="black" points="903,-235.5 903,-265.5 1052,-265.5 1052,-235.5 903,-235.5"/>
<text text-anchor="start" x="911" y="-253.5" font-family="Helvetica,sans-Serif" font-size="10.00">backend/customer/Ignorant</text>
<text text-anchor="middle" x="977.5" y="-242.5" font-family="Helvetica,sans-Serif" font-size="10.00">CustomerBuilder.h</text>
</a>
</g>
</g>
<!-- Node8&#45;&gt;Node14 -->
<g id="edge14" class="edge">
<title>Node8&#45;&gt;Node14</title>
<path fill="none" stroke="midnightblue" d="M693.97,-301.04C757.69,-289.91 842.7,-275.05 902.97,-264.52"/>
<polygon fill="midnightblue" stroke="midnightblue" points="693.19,-297.63 683.94,-302.79 694.39,-304.52 693.19,-297.63"/>
</g>
<!-- Node8&#45;&gt;Node16 -->
<g id="edge16" class="edge">
<title>Node8&#45;&gt;Node16</title>
<path fill="none" stroke="midnightblue" d="M524.25,-300.54C459.11,-287.75 370.21,-270.3 317.93,-260.03"/>
<polygon fill="midnightblue" stroke="midnightblue" points="523.6,-303.98 534.09,-302.48 524.95,-297.11 523.6,-303.98"/>
</g>
<!-- Node11 -->
<g id="node11" class="node">
<title>Node11</title>
<g id="a_node11"><a xlink:href="Director_8cpp.html" target="_top" xlink:title="Implements the Director class functionality.">
<polygon fill="white" stroke="black" points="0,-174 0,-193 167,-193 167,-174 0,-174"/>
<text text-anchor="middle" x="83.5" y="-181" font-family="Helvetica,sans-Serif" font-size="10.00">backend/customer/Director.cpp</text>
</a>
</g>
</g>
<!-- Node10&#45;&gt;Node11 -->
<g id="edge11" class="edge">
<title>Node10&#45;&gt;Node11</title>
<path fill="none" stroke="midnightblue" d="M105.1,-231.29C99.33,-218.81 91.95,-202.81 87.48,-193.13"/>
<polygon fill="midnightblue" stroke="midnightblue" points="102.09,-233.12 109.45,-240.73 108.44,-230.19 102.09,-233.12"/>
</g>
<!-- Node13 -->
<g id="node13" class="node">
<title>Node13</title>
<g id="a_node13"><a xlink:href="GreenFingerCustomerBuilder_8cpp.html" target="_top" xlink:title="Implements the GreenFingerCustomerBuilder class functionality.">
<polygon fill="white" stroke="black" points="531.5,-168.5 531.5,-198.5 699.5,-198.5 699.5,-168.5 531.5,-168.5"/>
<text text-anchor="start" x="539.5" y="-186.5" font-family="Helvetica,sans-Serif" font-size="10.00">backend/customer/GreenFinger</text>
<text text-anchor="middle" x="615.5" y="-175.5" font-family="Helvetica,sans-Serif" font-size="10.00">CustomerBuilder.cpp</text>
</a>
</g>
</g>
<!-- Node12&#45;&gt;Node13 -->
<g id="edge13" class="edge">
<title>Node12&#45;&gt;Node13</title>
<path fill="none" stroke="midnightblue" d="M615.5,-225.11C615.5,-216.15 615.5,-206.32 615.5,-198.58"/>
<polygon fill="midnightblue" stroke="midnightblue" points="612,-225.4 615.5,-235.4 619,-225.4 612,-225.4"/>
</g>
<!-- Node15 -->
<g id="node15" class="node">
<title>Node15</title>
<g id="a_node15"><a xlink:href="IgnorantCustomerBuilder_8cpp.html" target="_top" xlink:title="Implements the IgnorantCustomerBuilder class functionality.">
<polygon fill="white" stroke="black" points="903,-168.5 903,-198.5 1052,-198.5 1052,-168.5 903,-168.5"/>
<text text-anchor="start" x="911" y="-186.5" font-family="Helvetica,sans-Serif" font-size="10.00">backend/customer/Ignorant</text>
<text text-anchor="middle" x="977.5" y="-175.5" font-family="Helvetica,sans-Serif" font-size="10.00">CustomerBuilder.cpp</text>
</a>
</g>
</g>
<!-- Node14&#45;&gt;Node15 -->
<g id="edge15" class="edge">
<title>Node14&#45;&gt;Node15</title>
<path fill="none" stroke="midnightblue" d="M977.5,-225.11C977.5,-216.15 977.5,-206.32 977.5,-198.58"/>
<polygon fill="midnightblue" stroke="midnightblue" points="974,-225.4 977.5,-235.4 981,-225.4 974,-225.4"/>
</g>
<!-- Node17 -->
<g id="node17" class="node">
<title>Node17</title>
<g id="a_node17"><a xlink:href="API_8h.html" target="_top" xlink:title="Bootstrapper for public facing API.">
<polygon fill="white" stroke="black" points="222.5,-112.5 222.5,-131.5 326.5,-131.5 326.5,-112.5 222.5,-112.5"/>
<text text-anchor="middle" x="274.5" y="-119.5" font-family="Helvetica,sans-Serif" font-size="10.00">backend/API/API.h</text>
</a>
</g>
</g>
<!-- Node16&#45;&gt;Node17 -->
<g id="edge17" class="edge">
<title>Node16&#45;&gt;Node17</title>
<path fill="none" stroke="midnightblue" d="M274.5,-230.44C274.5,-202.62 274.5,-152.04 274.5,-131.76"/>
<polygon fill="midnightblue" stroke="midnightblue" points="271,-230.81 274.5,-240.81 278,-230.81 271,-230.81"/>
</g>
<!-- Node18 -->
<g id="node18" class="node">
<title>Node18</title>
<g id="a_node18"><a xlink:href="APIController_8h.html" target="_top" xlink:title="Define endpoints.">
<polygon fill="white" stroke="black" points="279,-56.5 279,-75.5 430,-75.5 430,-56.5 279,-56.5"/>
<text text-anchor="middle" x="354.5" y="-63.5" font-family="Helvetica,sans-Serif" font-size="10.00">backend/API/APIController.h</text>
</a>
</g>
</g>
<!-- Node16&#45;&gt;Node18 -->
<g id="edge20" class="edge">
<title>Node16&#45;&gt;Node18</title>
<path fill="none" stroke="midnightblue" d="M257.53,-233.72C230.76,-206.92 184.62,-151.54 213.5,-112 228.81,-91.04 253.99,-79.62 278.86,-73.47"/>
<polygon fill="midnightblue" stroke="midnightblue" points="255.18,-236.33 264.8,-240.78 260.06,-231.31 255.18,-236.33"/>
</g>
<!-- Node20 -->
<g id="node20" class="node">
<title>Node20</title>
<g id="a_node20"><a xlink:href="MenuOption_8h.html" target="_top" xlink:title="Base class for menu command options.">
<polygon fill="white" stroke="black" points="355,-174 355,-193 514,-193 514,-174 355,-174"/>
<text text-anchor="middle" x="434.5" y="-181" font-family="Helvetica,sans-Serif" font-size="10.00">backend/game/MenuOption.h</text>
</a>
</g>
</g>
<!-- Node16&#45;&gt;Node20 -->
<g id="edge21" class="edge">
<title>Node16&#45;&gt;Node20</title>
<path fill="none" stroke="midnightblue" d="M305.01,-237.1C336.78,-224.2 385.69,-204.33 413.42,-193.06"/>
<polygon fill="midnightblue" stroke="midnightblue" points="303.69,-233.86 295.75,-240.87 306.33,-240.35 303.69,-233.86"/>
</g>
<!-- Node17&#45;&gt;Node18 -->
<g id="edge18" class="edge">
<title>Node17&#45;&gt;Node18</title>
<path fill="none" stroke="midnightblue" d="M295.8,-106.62C310.42,-96.76 329.33,-83.99 341.68,-75.65"/>
<polygon fill="midnightblue" stroke="midnightblue" points="293.68,-103.83 287.35,-112.32 297.6,-109.63 293.68,-103.83"/>
</g>
<!-- Node19 -->
<g id="node19" class="node">
<title>Node19</title>
<g id="a_node19"><a xlink:href="APIController_8cpp.html" target="_top" xlink:title="Still need to see what going to do here.">
<polygon fill="white" stroke="black" points="273.5,-0.5 273.5,-19.5 435.5,-19.5 435.5,-0.5 273.5,-0.5"/>
<text text-anchor="middle" x="354.5" y="-7.5" font-family="Helvetica,sans-Serif" font-size="10.00">backend/API/APIController.cpp</text>
</a>
</g>
</g>
<!-- Node18&#45;&gt;Node19 -->
<g id="edge19" class="edge">
<title>Node18&#45;&gt;Node19</title>
<path fill="none" stroke="midnightblue" d="M354.5,-45.8C354.5,-36.91 354.5,-26.78 354.5,-19.75"/>
<polygon fill="midnightblue" stroke="midnightblue" points="351,-46.08 354.5,-56.08 358,-46.08 351,-46.08"/>
</g>
<!-- Node21 -->
<g id="node21" class="node">
<title>Node21</title>
<g id="a_node21"><a xlink:href="ExitGameOption_8h.html" target="_top" xlink:title="Command for exiting the game with logging capabilities.">
<polygon fill="white" stroke="black" points="344.5,-112.5 344.5,-131.5 524.5,-131.5 524.5,-112.5 344.5,-112.5"/>
<text text-anchor="middle" x="434.5" y="-119.5" font-family="Helvetica,sans-Serif" font-size="10.00">backend/game/ExitGameOption.h</text>
</a>
</g>
</g>
<!-- Node20&#45;&gt;Node21 -->
<g id="edge22" class="edge">
<title>Node20&#45;&gt;Node21</title>
<path fill="none" stroke="midnightblue" d="M434.5,-163.82C434.5,-153 434.5,-139.9 434.5,-131.51"/>
<polygon fill="midnightblue" stroke="midnightblue" points="431,-163.98 434.5,-173.98 438,-163.98 431,-163.98"/>
</g>
<!-- Node22 -->
<g id="node22" class="node">
<title>Node22</title>
<g id="a_node22"><a xlink:href="NewGameOption_8h.html" target="_top" xlink:title="Header file for NewGameOption class.">
<polygon fill="white" stroke="black" points="543,-112.5 543,-131.5 726,-131.5 726,-112.5 543,-112.5"/>
<text text-anchor="middle" x="634.5" y="-119.5" font-family="Helvetica,sans-Serif" font-size="10.00">backend/game/NewGameOption.h</text>
</a>
</g>
</g>
<!-- Node20&#45;&gt;Node22 -->
<g id="edge24" class="edge">
<title>Node20&#45;&gt;Node22</title>
<path fill="none" stroke="midnightblue" d="M473.06,-171.03C511.93,-159.46 571.02,-141.88 605.9,-131.51"/>
<polygon fill="midnightblue" stroke="midnightblue" points="471.74,-167.77 463.16,-173.98 473.74,-174.48 471.74,-167.77"/>
</g>
<!-- Node21&#45;&gt;Node18 -->
<g id="edge23" class="edge">
<title>Node21&#45;&gt;Node18</title>
<path fill="none" stroke="midnightblue" d="M413.2,-106.62C398.58,-96.76 379.67,-83.99 367.32,-75.65"/>
<polygon fill="midnightblue" stroke="midnightblue" points="411.4,-109.63 421.65,-112.32 415.32,-103.83 411.4,-109.63"/>
</g>
<!-- Node22&#45;&gt;Node18 -->
<g id="edge25" class="edge">
<title>Node22&#45;&gt;Node18</title>
<path fill="none" stroke="midnightblue" d="M580.25,-110.54C527.33,-100.33 447.83,-85 398.66,-75.52"/>
<polygon fill="midnightblue" stroke="midnightblue" points="579.65,-113.99 590.13,-112.44 580.98,-107.11 579.65,-113.99"/>
</g>
<!-- Node23&#45;&gt;Node12 -->
<g id="edge28" class="edge">
<title>Node23&#45;&gt;Node12</title>
<path fill="none" stroke="midnightblue" d="M739.26,-298.82C711.93,-288.37 677.81,-275.32 652.32,-265.58"/>
<polygon fill="midnightblue" stroke="midnightblue" points="738.02,-302.09 748.61,-302.4 740.52,-295.56 738.02,-302.09"/>
</g>
<!-- Node24 -->
<g id="node24" class="node">
<title>Node24</title>
<g id="a_node24"><a xlink:href="GreenFingerCustomer_8cpp.html" target="_top" xlink:title="Implements the functionality defined in the GreenFingerCustomer class.">
<polygon fill="white" stroke="black" points="717.5,-235.5 717.5,-265.5 885.5,-265.5 885.5,-235.5 717.5,-235.5"/>
<text text-anchor="start" x="725.5" y="-253.5" font-family="Helvetica,sans-Serif" font-size="10.00">backend/customer/GreenFinger</text>
<text text-anchor="middle" x="801.5" y="-242.5" font-family="Helvetica,sans-Serif" font-size="10.00">Customer.cpp</text>
</a>
</g>
</g>
<!-- Node23&#45;&gt;Node24 -->
<g id="edge27" class="edge">
<title>Node23&#45;&gt;Node24</title>
<path fill="none" stroke="midnightblue" d="M791.43,-292.4C793.66,-283.37 796.11,-273.41 798.04,-265.58"/>
<polygon fill="midnightblue" stroke="midnightblue" points="787.96,-291.85 788.97,-302.4 794.76,-293.52 787.96,-291.85"/>
</g>
<!-- Node25&#45;&gt;Node14 -->
<g id="edge31" class="edge">
<title>Node25&#45;&gt;Node14</title>
<path fill="none" stroke="midnightblue" d="M967.43,-292.4C969.66,-283.37 972.11,-273.41 974.04,-265.58"/>
<polygon fill="midnightblue" stroke="midnightblue" points="963.96,-291.85 964.97,-302.4 970.76,-293.52 963.96,-291.85"/>
</g>
<!-- Node26 -->
<g id="node26" class="node">
<title>Node26</title>
<g id="a_node26"><a xlink:href="IgnorantCustomer_8cpp.html" target="_top" xlink:title="Implements the functionality defined in the IgnorantCustomer class.">
<polygon fill="white" stroke="black" points="1070,-235.5 1070,-265.5 1219,-265.5 1219,-235.5 1070,-235.5"/>
<text text-anchor="start" x="1078" y="-253.5" font-family="Helvetica,sans-Serif" font-size="10.00">backend/customer/Ignorant</text>
<text text-anchor="middle" x="1144.5" y="-242.5" font-family="Helvetica,sans-Serif" font-size="10.00">Customer.cpp</text>
</a>
</g>
</g>
<!-- Node25&#45;&gt;Node26 -->
<g id="edge30" class="edge">
<title>Node25&#45;&gt;Node26</title>
<path fill="none" stroke="midnightblue" d="M1010.9,-298.96C1040.37,-288.48 1077.31,-275.37 1104.87,-265.58"/>
<polygon fill="midnightblue" stroke="midnightblue" points="1009.46,-295.75 1001.21,-302.4 1011.8,-302.35 1009.46,-295.75"/>
</g>
</g>
</svg>
