<?xml version="1.0" encoding="UTF-8" standalone="no"?>
<!DOCTYPE svg PUBLIC "-//W3C//DTD SVG 1.1//EN"
 "http://www.w3.org/Graphics/SVG/1.1/DTD/svg11.dtd">
<!-- Generated by graphviz version 2.43.0 (0)
 -->
<!-- Title: backend/customer/CustomerBuilder.h Pages: 1 -->
<svg width="1532pt" height="352pt"
 viewBox="0.00 0.00 1532.00 352.00" xmlns="http://www.w3.org/2000/svg" xmlns:xlink="http://www.w3.org/1999/xlink">
<g id="graph0" class="graph" transform="scale(1 1) rotate(0) translate(4 348)">
<title>backend/customer/CustomerBuilder.h</title>
<polygon fill="white" stroke="transparent" points="-4,4 -4,-348 1528,-348 1528,4 -4,4"/>
<!-- Node1 -->
<g id="node1" class="node">
<title>Node1</title>
<g id="a_node1"><a xlink:title="Abstract builder interface for creating Customer objects.">
<polygon fill="#bfbfbf" stroke="black" points="431.5,-313.5 431.5,-343.5 587.5,-343.5 587.5,-313.5 431.5,-313.5"/>
<text text-anchor="start" x="439.5" y="-331.5" font-family="Helvetica,sans-Serif" font-size="10.00">backend/customer/Customer</text>
<text text-anchor="middle" x="509.5" y="-320.5" font-family="Helvetica,sans-Serif" font-size="10.00">Builder.h</text>
</a>
</g>
</g>
<!-- Node2 -->
<g id="node2" class="node">
<title>Node2</title>
<g id="a_node2"><a xlink:href="AverageCustomerBuilder_8h.html" target="_top" xlink:title="Builder class for creating AverageCustomer objects with randomized dialogues.">
<polygon fill="white" stroke="black" points="0,-246.5 0,-276.5 149,-276.5 149,-246.5 0,-246.5"/>
<text text-anchor="start" x="8" y="-264.5" font-family="Helvetica,sans-Serif" font-size="10.00">backend/customer/Average</text>
<text text-anchor="middle" x="74.5" y="-253.5" font-family="Helvetica,sans-Serif" font-size="10.00">CustomerBuilder.h</text>
</a>
</g>
</g>
<!-- Node1&#45;&gt;Node2 -->
<g id="edge1" class="edge">
<title>Node1&#45;&gt;Node2</title>
<path fill="none" stroke="midnightblue" d="M421.09,-315.48C350.05,-305.65 247.76,-291.12 158.5,-277 155.43,-276.51 152.3,-276.01 149.14,-275.5"/>
<polygon fill="midnightblue" stroke="midnightblue" points="420.95,-318.99 431.34,-316.89 421.91,-312.06 420.95,-318.99"/>
</g>
<!-- Node4 -->
<g id="node4" class="node">
<title>Node4</title>
<g id="a_node4"><a xlink:href="CustomerBuilder_8cpp.html" target="_top" xlink:title="Implements the CustomerBuilder base class functionality.">
<polygon fill="white" stroke="black" points="167.5,-246.5 167.5,-276.5 323.5,-276.5 323.5,-246.5 167.5,-246.5"/>
<text text-anchor="start" x="175.5" y="-264.5" font-family="Helvetica,sans-Serif" font-size="10.00">backend/customer/Customer</text>
<text text-anchor="middle" x="245.5" y="-253.5" font-family="Helvetica,sans-Serif" font-size="10.00">Builder.cpp</text>
</a>
</g>
</g>
<!-- Node1&#45;&gt;Node4 -->
<g id="edge3" class="edge">
<title>Node1&#45;&gt;Node4</title>
<path fill="none" stroke="midnightblue" d="M442.69,-311.05C399.53,-300.43 343.96,-286.74 302.81,-276.61"/>
<polygon fill="midnightblue" stroke="midnightblue" points="441.99,-314.48 452.54,-313.48 443.67,-307.69 441.99,-314.48"/>
</g>
<!-- Node5 -->
<g id="node5" class="node">
<title>Node5</title>
<g id="a_node5"><a xlink:href="Director_8h.html" target="_top" xlink:title="Director class for coordinating customer construction using builders and visitors.">
<polygon fill="white" stroke="black" points="341.5,-252 341.5,-271 497.5,-271 497.5,-252 341.5,-252"/>
<text text-anchor="middle" x="419.5" y="-259" font-family="Helvetica,sans-Serif" font-size="10.00">backend/customer/Director.h</text>
</a>
</g>
</g>
<!-- Node1&#45;&gt;Node5 -->
<g id="edge4" class="edge">
<title>Node1&#45;&gt;Node5</title>
<path fill="none" stroke="midnightblue" d="M481.54,-307.31C464.64,-295.1 443.98,-280.18 431.28,-271.01"/>
<polygon fill="midnightblue" stroke="midnightblue" points="479.82,-310.38 489.97,-313.4 483.91,-304.7 479.82,-310.38"/>
</g>
<!-- Node7 -->
<g id="node7" class="node">
<title>Node7</title>
<g id="a_node7"><a xlink:href="GreenFingerCustomerBuilder_8h.html" target="_top" xlink:title="Builder class for creating GreenFingerCustomer objects with randomized dialogues.">
<polygon fill="white" stroke="black" points="515.5,-246.5 515.5,-276.5 683.5,-276.5 683.5,-246.5 515.5,-246.5"/>
<text text-anchor="start" x="523.5" y="-264.5" font-family="Helvetica,sans-Serif" font-size="10.00">backend/customer/GreenFinger</text>
<text text-anchor="middle" x="599.5" y="-253.5" font-family="Helvetica,sans-Serif" font-size="10.00">CustomerBuilder.h</text>
</a>
</g>
</g>
<!-- Node1&#45;&gt;Node7 -->
<g id="edge6" class="edge">
<title>Node1&#45;&gt;Node7</title>
<path fill="none" stroke="midnightblue" d="M537.26,-307.45C551.11,-297.45 567.52,-285.6 580.01,-276.58"/>
<polygon fill="midnightblue" stroke="midnightblue" points="535.09,-304.7 529.03,-313.4 539.18,-310.38 535.09,-304.7"/>
</g>
<!-- Node9 -->
<g id="node9" class="node">
<title>Node9</title>
<g id="a_node9"><a xlink:href="IgnorantCustomerBuilder_8h.html" target="_top" xlink:title="Builder class for creating IgnorantCustomer objects with randomized dialogues.">
<polygon fill="white" stroke="black" points="701,-246.5 701,-276.5 850,-276.5 850,-246.5 701,-246.5"/>
<text text-anchor="start" x="709" y="-264.5" font-family="Helvetica,sans-Serif" font-size="10.00">backend/customer/Ignorant</text>
<text text-anchor="middle" x="775.5" y="-253.5" font-family="Helvetica,sans-Serif" font-size="10.00">CustomerBuilder.h</text>
</a>
</g>
</g>
<!-- Node1&#45;&gt;Node9 -->
<g id="edge8" class="edge">
<title>Node1&#45;&gt;Node9</title>
<path fill="none" stroke="midnightblue" d="M576.81,-311.05C620.3,-300.43 676.3,-286.74 717.75,-276.61"/>
<polygon fill="midnightblue" stroke="midnightblue" points="575.77,-307.7 566.89,-313.48 577.44,-314.5 575.77,-307.7"/>
</g>
<!-- Node11 -->
<g id="node11" class="node">
<title>Node11</title>
<g id="a_node11"><a xlink:href="Game_8h.html" target="_top" xlink:title="Header file for Game class.">
<polygon fill="white" stroke="black" points="868,-252 868,-271 997,-271 997,-252 868,-252"/>
<text text-anchor="middle" x="932.5" y="-259" font-family="Helvetica,sans-Serif" font-size="10.00">backend/game/Game.h</text>
</a>
</g>
</g>
<!-- Node1&#45;&gt;Node11 -->
<g id="edge10" class="edge">
<title>Node1&#45;&gt;Node11</title>
<path fill="none" stroke="midnightblue" d="M597.84,-315.95C668.51,-306.42 770.06,-292.05 858.5,-277 868.95,-275.22 880.2,-273.12 890.69,-271.07"/>
<polygon fill="midnightblue" stroke="midnightblue" points="597.09,-312.52 587.64,-317.33 598.02,-319.46 597.09,-312.52"/>
</g>
<!-- Node3 -->
<g id="node3" class="node">
<title>Node3</title>
<g id="a_node3"><a xlink:href="AverageCustomerBuilder_8cpp.html" target="_top" xlink:title="Implements the AverageCustomerBuilder class functionality.">
<polygon fill="white" stroke="black" points="0,-179.5 0,-209.5 149,-209.5 149,-179.5 0,-179.5"/>
<text text-anchor="start" x="8" y="-197.5" font-family="Helvetica,sans-Serif" font-size="10.00">backend/customer/Average</text>
<text text-anchor="middle" x="74.5" y="-186.5" font-family="Helvetica,sans-Serif" font-size="10.00">CustomerBuilder.cpp</text>
</a>
</g>
</g>
<!-- Node2&#45;&gt;Node3 -->
<g id="edge2" class="edge">
<title>Node2&#45;&gt;Node3</title>
<path fill="none" stroke="midnightblue" d="M74.5,-236.11C74.5,-227.15 74.5,-217.32 74.5,-209.58"/>
<polygon fill="midnightblue" stroke="midnightblue" points="71,-236.4 74.5,-246.4 78,-236.4 71,-236.4"/>
</g>
<!-- Node6 -->
<g id="node6" class="node">
<title>Node6</title>
<g id="a_node6"><a xlink:href="Director_8cpp.html" target="_top" xlink:title="Implements the Director class functionality.">
<polygon fill="white" stroke="black" points="331,-185 331,-204 498,-204 498,-185 331,-185"/>
<text text-anchor="middle" x="414.5" y="-192" font-family="Helvetica,sans-Serif" font-size="10.00">backend/customer/Director.cpp</text>
</a>
</g>
</g>
<!-- Node5&#45;&gt;Node6 -->
<g id="edge5" class="edge">
<title>Node5&#45;&gt;Node6</title>
<path fill="none" stroke="midnightblue" d="M418.04,-241.54C417.09,-229.17 415.89,-213.62 415.16,-204.13"/>
<polygon fill="midnightblue" stroke="midnightblue" points="414.57,-242.03 418.83,-251.73 421.55,-241.49 414.57,-242.03"/>
</g>
<!-- Node8 -->
<g id="node8" class="node">
<title>Node8</title>
<g id="a_node8"><a xlink:href="GreenFingerCustomerBuilder_8cpp.html" target="_top" xlink:title="Implements the GreenFingerCustomerBuilder class functionality.">
<polygon fill="white" stroke="black" points="515.5,-179.5 515.5,-209.5 683.5,-209.5 683.5,-179.5 515.5,-179.5"/>
<text text-anchor="start" x="523.5" y="-197.5" font-family="Helvetica,sans-Serif" font-size="10.00">backend/customer/GreenFinger</text>
<text text-anchor="middle" x="599.5" y="-186.5" font-family="Helvetica,sans-Serif" font-size="10.00">CustomerBuilder.cpp</text>
</a>
</g>
</g>
<!-- Node7&#45;&gt;Node8 -->
<g id="edge7" class="edge">
<title>Node7&#45;&gt;Node8</title>
<path fill="none" stroke="midnightblue" d="M599.5,-236.11C599.5,-227.15 599.5,-217.32 599.5,-209.58"/>
<polygon fill="midnightblue" stroke="midnightblue" points="596,-236.4 599.5,-246.4 603,-236.4 596,-236.4"/>
</g>
<!-- Node10 -->
<g id="node10" class="node">
<title>Node10</title>
<g id="a_node10"><a xlink:href="IgnorantCustomerBuilder_8cpp.html" target="_top" xlink:title="Implements the IgnorantCustomerBuilder class functionality.">
<polygon fill="white" stroke="black" points="701,-179.5 701,-209.5 850,-209.5 850,-179.5 701,-179.5"/>
<text text-anchor="start" x="709" y="-197.5" font-family="Helvetica,sans-Serif" font-size="10.00">backend/customer/Ignorant</text>
<text text-anchor="middle" x="775.5" y="-186.5" font-family="Helvetica,sans-Serif" font-size="10.00">CustomerBuilder.cpp</text>
</a>
</g>
</g>
<!-- Node9&#45;&gt;Node10 -->
<g id="edge9" class="edge">
<title>Node9&#45;&gt;Node10</title>
<path fill="none" stroke="midnightblue" d="M775.5,-236.11C775.5,-227.15 775.5,-217.32 775.5,-209.58"/>
<polygon fill="midnightblue" stroke="midnightblue" points="772,-236.4 775.5,-246.4 779,-236.4 772,-236.4"/>
</g>
<!-- Node12 -->
<g id="node12" class="node">
<title>Node12</title>
<g id="a_node12"><a xlink:href="API_8h.html" target="_top" xlink:title="Bootstrapper for public facing API.">
<polygon fill="white" stroke="black" points="800.5,-118 800.5,-137 904.5,-137 904.5,-118 800.5,-118"/>
<text text-anchor="middle" x="852.5" y="-125" font-family="Helvetica,sans-Serif" font-size="10.00">backend/API/API.h</text>
</a>
</g>
</g>
<!-- Node11&#45;&gt;Node12 -->
<g id="edge11" class="edge">
<title>Node11&#45;&gt;Node12</title>
<path fill="none" stroke="midnightblue" d="M921.84,-242.92C904.44,-214.2 870.57,-158.32 857.66,-137.02"/>
<polygon fill="midnightblue" stroke="midnightblue" points="919.07,-245.1 927.25,-251.84 925.06,-241.47 919.07,-245.1"/>
</g>
<!-- Node13 -->
<g id="node13" class="node">
<title>Node13</title>
<g id="a_node13"><a xlink:href="APIController_8h.html" target="_top" xlink:title="Define endpoints.">
<polygon fill="white" stroke="black" points="967,-56.5 967,-75.5 1118,-75.5 1118,-56.5 967,-56.5"/>
<text text-anchor="middle" x="1042.5" y="-63.5" font-family="Helvetica,sans-Serif" font-size="10.00">backend/API/APIController.h</text>
</a>
</g>
</g>
<!-- Node11&#45;&gt;Node13 -->
<g id="edge14" class="edge">
<title>Node11&#45;&gt;Node13</title>
<path fill="none" stroke="midnightblue" d="M929.65,-241.76C926.1,-211.48 923.54,-151.22 951.5,-112 964.7,-93.49 987.7,-82.21 1007.28,-75.57"/>
<polygon fill="midnightblue" stroke="midnightblue" points="926.2,-242.35 931,-251.79 933.14,-241.42 926.2,-242.35"/>
</g>
<!-- Node15 -->
<g id="node15" class="node">
<title>Node15</title>
<g id="a_node15"><a xlink:href="MenuOption_8h_source.html" target="_top" xlink:title=" ">
<polygon fill="white" stroke="black" points="1058,-185 1058,-204 1217,-204 1217,-185 1058,-185"/>
<text text-anchor="middle" x="1137.5" y="-192" font-family="Helvetica,sans-Serif" font-size="10.00">backend/game/MenuOption.h</text>
</a>
</g>
</g>
<!-- Node11&#45;&gt;Node15 -->
<g id="edge15" class="edge">
<title>Node11&#45;&gt;Node15</title>
<path fill="none" stroke="midnightblue" d="M969.51,-248.77C1010.13,-235.89 1074.36,-215.52 1110.49,-204.06"/>
<polygon fill="midnightblue" stroke="midnightblue" points="968.2,-245.51 959.72,-251.87 970.31,-252.18 968.2,-245.51"/>
</g>
<!-- Node12&#45;&gt;Node13 -->
<g id="edge12" class="edge">
<title>Node12&#45;&gt;Node13</title>
<path fill="none" stroke="midnightblue" d="M889.6,-114.88C926.54,-103.32 982.34,-85.84 1015.33,-75.51"/>
<polygon fill="midnightblue" stroke="midnightblue" points="888.22,-111.65 879.72,-117.98 890.31,-118.33 888.22,-111.65"/>
</g>
<!-- Node14 -->
<g id="node14" class="node">
<title>Node14</title>
<g id="a_node14"><a xlink:href="APIController_8cpp.html" target="_top" xlink:title="Still need to see what going to do here.">
<polygon fill="white" stroke="black" points="961.5,-0.5 961.5,-19.5 1123.5,-19.5 1123.5,-0.5 961.5,-0.5"/>
<text text-anchor="middle" x="1042.5" y="-7.5" font-family="Helvetica,sans-Serif" font-size="10.00">backend/API/APIController.cpp</text>
</a>
</g>
</g>
<!-- Node13&#45;&gt;Node14 -->
<g id="edge13" class="edge">
<title>Node13&#45;&gt;Node14</title>
<path fill="none" stroke="midnightblue" d="M1042.5,-45.8C1042.5,-36.91 1042.5,-26.78 1042.5,-19.75"/>
<polygon fill="midnightblue" stroke="midnightblue" points="1039,-46.08 1042.5,-56.08 1046,-46.08 1039,-46.08"/>
</g>
<!-- Node16 -->
<g id="node16" class="node">
<title>Node16</title>
<g id="a_node16"><a xlink:href="ContinueGameOption_8h.html" target="_top" xlink:title="Header file for ContinueGameOption class.">
<polygon fill="white" stroke="black" points="960.5,-112.5 960.5,-142.5 1124.5,-142.5 1124.5,-112.5 960.5,-112.5"/>
<text text-anchor="start" x="968.5" y="-130.5" font-family="Helvetica,sans-Serif" font-size="10.00">backend/game/ContinueGame</text>
<text text-anchor="middle" x="1042.5" y="-119.5" font-family="Helvetica,sans-Serif" font-size="10.00">Option.h</text>
</a>
</g>
</g>
<!-- Node15&#45;&gt;Node16 -->
<g id="edge16" class="edge">
<title>Node15&#45;&gt;Node16</title>
<path fill="none" stroke="midnightblue" d="M1116.09,-178.85C1100.23,-168 1078.75,-153.3 1063.09,-142.59"/>
<polygon fill="midnightblue" stroke="midnightblue" points="1114.46,-181.98 1124.69,-184.73 1118.41,-176.2 1114.46,-181.98"/>
</g>
<!-- Node17 -->
<g id="node17" class="node">
<title>Node17</title>
<g id="a_node17"><a xlink:href="ExitGameOption_8h.html" target="_top" xlink:title=" ">
<polygon fill="white" stroke="black" points="1142.5,-118 1142.5,-137 1322.5,-137 1322.5,-118 1142.5,-118"/>
<text text-anchor="middle" x="1232.5" y="-125" font-family="Helvetica,sans-Serif" font-size="10.00">backend/game/ExitGameOption.h</text>
</a>
</g>
</g>
<!-- Node15&#45;&gt;Node17 -->
<g id="edge18" class="edge">
<title>Node15&#45;&gt;Node17</title>
<path fill="none" stroke="midnightblue" d="M1158.81,-178.92C1177.59,-166.07 1204.32,-147.78 1219.89,-137.13"/>
<polygon fill="midnightblue" stroke="midnightblue" points="1156.59,-176.2 1150.31,-184.73 1160.54,-181.98 1156.59,-176.2"/>
</g>
<!-- Node18 -->
<g id="node18" class="node">
<title>Node18</title>
<g id="a_node18"><a xlink:href="NewGameOption_8h.html" target="_top" xlink:title="Header file for NewGameOption class.">
<polygon fill="white" stroke="black" points="1341,-118 1341,-137 1524,-137 1524,-118 1341,-118"/>
<text text-anchor="middle" x="1432.5" y="-125" font-family="Helvetica,sans-Serif" font-size="10.00">backend/game/NewGameOption.h</text>
</a>
</g>
</g>
<!-- Node15&#45;&gt;Node18 -->
<g id="edge20" class="edge">
<title>Node15&#45;&gt;Node18</title>
<path fill="none" stroke="midnightblue" d="M1186.41,-182.72C1244.5,-169.92 1340.22,-148.83 1393.54,-137.08"/>
<polygon fill="midnightblue" stroke="midnightblue" points="1185.38,-179.37 1176.37,-184.94 1186.89,-186.2 1185.38,-179.37"/>
</g>
<!-- Node16&#45;&gt;Node13 -->
<g id="edge17" class="edge">
<title>Node16&#45;&gt;Node13</title>
<path fill="none" stroke="midnightblue" d="M1042.5,-102.29C1042.5,-92.86 1042.5,-82.65 1042.5,-75.66"/>
<polygon fill="midnightblue" stroke="midnightblue" points="1039,-102.4 1042.5,-112.4 1046,-102.4 1039,-102.4"/>
</g>
<!-- Node17&#45;&gt;Node13 -->
<g id="edge19" class="edge">
<title>Node17&#45;&gt;Node13</title>
<path fill="none" stroke="midnightblue" d="M1195.4,-114.88C1158.46,-103.32 1102.66,-85.84 1069.67,-75.51"/>
<polygon fill="midnightblue" stroke="midnightblue" points="1194.69,-118.33 1205.28,-117.98 1196.78,-111.65 1194.69,-118.33"/>
</g>
<!-- Node18&#45;&gt;Node13 -->
<g id="edge21" class="edge">
<title>Node18&#45;&gt;Node13</title>
<path fill="none" stroke="midnightblue" d="M1366.3,-116.4C1290.91,-104.9 1169.03,-86.3 1098.27,-75.51"/>
<polygon fill="midnightblue" stroke="midnightblue" points="1366.21,-119.93 1376.62,-117.98 1367.26,-113.01 1366.21,-119.93"/>
</g>
</g>
</svg>
