<?xml version="1.0" encoding="UTF-8" standalone="no"?>
<!DOCTYPE svg PUBLIC "-//W3C//DTD SVG 1.1//EN"
 "http://www.w3.org/Graphics/SVG/1.1/DTD/svg11.dtd">
<!-- Generated by graphviz version 2.43.0 (0)
 -->
<!-- Title: backend/customer/Customer.h Pages: 1 -->
<!--zoomable 397 -->
<svg id="main" version="1.1" xmlns="http://www.w3.org/2000/svg" xmlns:xlink="http://www.w3.org/1999/xlink" xml:space="preserve" onload="init(evt)">
<style type="text/css"><![CDATA[
.edge:hover path { stroke: red; }
.edge:hover polygon { stroke: red; fill: red; }
]]></style>
<script type="text/javascript"><![CDATA[
var edges = document.getElementsByTagName('g');
if (edges && edges.length) {
  for (var i=0;i<edges.length;i++) {
    if (edges[i].id.substr(0,4)=='edge') {
      edges[i].setAttribute('class','edge');
    }
  }
}
]]></script>
        <defs>
                <circle id="rim" cx="0" cy="0" r="7"/>
                <circle id="rim2" cx="0" cy="0" r="3.5"/>
                <g id="zoomPlus">
                        <use xlink:href="#rim" fill="#404040">
                                <set attributeName="fill" to="#808080" begin="zoomplus.mouseover" end="zoomplus.mouseout"/>
                        </use>
                        <path d="M-4,0h8M0,-4v8" fill="none" stroke="white" stroke-width="1.5" pointer-events="none"/>
                </g>
                <g id="zoomMin">
                        <use xlink:href="#rim" fill="#404040">
                                <set attributeName="fill" to="#808080" begin="zoomminus.mouseover" end="zoomminus.mouseout"/>
                        </use>
                        <path d="M-4,0h8" fill="none" stroke="white" stroke-width="1.5" pointer-events="none"/>
                </g>
                <g id="dirArrow">
                        <path fill="none" stroke="white" stroke-width="1.5" d="M0,-3.0v7 M-2.5,-0.5L0,-3.0L2.5,-0.5"/>
                </g>
               <g id="resetDef">
                       <use xlink:href="#rim2" fill="#404040">
                               <set attributeName="fill" to="#808080" begin="reset.mouseover" end="reset.mouseout"/>
                       </use>
               </g>
        </defs>

<script type="text/javascript">
var viewWidth = 1525;
var viewHeight = 397;
var sectionId = 'dynsection-1';
</script>
<script xlink:href="svgpan.js"/>
<svg id="graph" class="graph">
<g id="viewport">
<title>backend/customer/Customer.h</title>
<polygon fill="white" stroke="transparent" points="-4,4 -4,-393 1521,-393 1521,4 -4,4"/>
<!-- Node1 -->
<g id="node1" class="node">
<title>Node1</title>
<g id="a_node1"><a xlink:title="Abstract base class for all customer types in the plant shop game.">
<polygon fill="#bfbfbf" stroke="black" points="639.5,-369.5 639.5,-388.5 803.5,-388.5 803.5,-369.5 639.5,-369.5"/>
<text text-anchor="middle" x="721.5" y="-376.5" font-family="Helvetica,sans-Serif" font-size="10.00">backend/customer/Customer.h</text>
</a>
</g>
</g>
<!-- Node2 -->
<g id="node2" class="node">
<title>Node2</title>
<g id="a_node2"><a xlink:href="AverageCustomer_8h.html" target="_top" xlink:title="Concrete customer class representing moderately experienced plant buyers.">
<polygon fill="white" stroke="black" points="167,-302.5 167,-332.5 316,-332.5 316,-302.5 167,-302.5"/>
<text text-anchor="start" x="175" y="-320.5" font-family="Helvetica,sans-Serif" font-size="10.00">backend/customer/Average</text>
<text text-anchor="middle" x="241.5" y="-309.5" font-family="Helvetica,sans-Serif" font-size="10.00">Customer.h</text>
</a>
</g>
</g>
<!-- Node1&#45;&gt;Node2 -->
<g id="edge1" class="edge">
<title>Node1&#45;&gt;Node2</title>
<path fill="none" stroke="midnightblue" d="M642.79,-368.24C552.28,-357.02 404.8,-338.74 316.07,-327.74"/>
<polygon fill="midnightblue" stroke="midnightblue" points="642.37,-371.72 652.73,-369.48 643.23,-364.77 642.37,-371.72"/>
</g>
<!-- Node6 -->
<g id="node6" class="node">
<title>Node6</title>
<g id="a_node6"><a xlink:href="Customer_8cpp.html" target="_top" xlink:title="Implements the functionality defined in the Customer class.">
<polygon fill="white" stroke="black" points="396.5,-308 396.5,-327 572.5,-327 572.5,-308 396.5,-308"/>
<text text-anchor="middle" x="484.5" y="-315" font-family="Helvetica,sans-Serif" font-size="10.00">backend/customer/Customer.cpp</text>
</a>
</g>
</g>
<!-- Node1&#45;&gt;Node6 -->
<g id="edge5" class="edge">
<title>Node1&#45;&gt;Node6</title>
<path fill="none" stroke="midnightblue" d="M677.56,-366.97C631.54,-355.41 560.25,-337.52 518.39,-327.01"/>
<polygon fill="midnightblue" stroke="midnightblue" points="676.99,-370.43 687.54,-369.48 678.7,-363.65 676.99,-370.43"/>
</g>
<!-- Node7 -->
<g id="node7" class="node">
<title>Node7</title>
<g id="a_node7"><a xlink:href="CustomerBuilder_8h.html" target="_top" xlink:title="Abstract builder interface for creating Customer objects.">
<polygon fill="white" stroke="black" points="590.5,-302.5 590.5,-332.5 746.5,-332.5 746.5,-302.5 590.5,-302.5"/>
<text text-anchor="start" x="598.5" y="-320.5" font-family="Helvetica,sans-Serif" font-size="10.00">backend/customer/Customer</text>
<text text-anchor="middle" x="668.5" y="-309.5" font-family="Helvetica,sans-Serif" font-size="10.00">Builder.h</text>
</a>
</g>
</g>
<!-- Node1&#45;&gt;Node7 -->
<g id="edge6" class="edge">
<title>Node1&#45;&gt;Node7</title>
<path fill="none" stroke="midnightblue" d="M707.08,-361.81C698.92,-352.65 688.81,-341.3 680.99,-332.52"/>
<polygon fill="midnightblue" stroke="midnightblue" points="704.64,-364.34 713.91,-369.48 709.87,-359.68 704.64,-364.34"/>
</g>
<!-- Node15 -->
<g id="node15" class="node">
<title>Node15</title>
<g id="a_node15"><a xlink:href="Game_8h.html" target="_top" xlink:title="Header file for Game class &#45; Main game facade.">
<polygon fill="white" stroke="black" points="683,-241 683,-260 812,-260 812,-241 683,-241"/>
<text text-anchor="middle" x="747.5" y="-248" font-family="Helvetica,sans-Serif" font-size="10.00">backend/game/Game.h</text>
</a>
</g>
</g>
<!-- Node1&#45;&gt;Node15 -->
<g id="edge31" class="edge">
<title>Node1&#45;&gt;Node15</title>
<path fill="none" stroke="midnightblue" d="M737.68,-361.96C744.6,-353.98 751.9,-343.75 755.5,-333 764,-307.66 755.7,-275.58 750.69,-260.33"/>
<polygon fill="midnightblue" stroke="midnightblue" points="735.02,-359.68 730.79,-369.39 740.15,-364.44 735.02,-359.68"/>
</g>
<!-- Node22 -->
<g id="node22" class="node">
<title>Node22</title>
<g id="a_node22"><a xlink:href="GreenFingerCustomer_8h.html" target="_top" xlink:title="Concrete customer class representing expert plant enthusiasts.">
<polygon fill="white" stroke="black" points="830.5,-302.5 830.5,-332.5 998.5,-332.5 998.5,-302.5 830.5,-302.5"/>
<text text-anchor="start" x="838.5" y="-320.5" font-family="Helvetica,sans-Serif" font-size="10.00">backend/customer/GreenFinger</text>
<text text-anchor="middle" x="914.5" y="-309.5" font-family="Helvetica,sans-Serif" font-size="10.00">Customer.h</text>
</a>
</g>
</g>
<!-- Node1&#45;&gt;Node22 -->
<g id="edge25" class="edge">
<title>Node1&#45;&gt;Node22</title>
<path fill="none" stroke="midnightblue" d="M758.86,-366.48C790.32,-356.78 835.45,-342.87 869.01,-332.52"/>
<polygon fill="midnightblue" stroke="midnightblue" points="757.68,-363.18 749.15,-369.48 759.74,-369.87 757.68,-363.18"/>
</g>
<!-- Node24 -->
<g id="node24" class="node">
<title>Node24</title>
<g id="a_node24"><a xlink:href="IgnorantCustomer_8h.html" target="_top" xlink:title="Concrete customer class representing inexperienced plant buyers.">
<polygon fill="white" stroke="black" points="1016,-302.5 1016,-332.5 1165,-332.5 1165,-302.5 1016,-302.5"/>
<text text-anchor="start" x="1024" y="-320.5" font-family="Helvetica,sans-Serif" font-size="10.00">backend/customer/Ignorant</text>
<text text-anchor="middle" x="1090.5" y="-309.5" font-family="Helvetica,sans-Serif" font-size="10.00">Customer.h</text>
</a>
</g>
</g>
<!-- Node1&#45;&gt;Node24 -->
<g id="edge28" class="edge">
<title>Node1&#45;&gt;Node24</title>
<path fill="none" stroke="midnightblue" d="M787.57,-367.93C845.57,-359.01 932.19,-345.5 1007.5,-333 1010.24,-332.54 1013.03,-332.08 1015.85,-331.6"/>
<polygon fill="midnightblue" stroke="midnightblue" points="786.8,-364.51 777.44,-369.48 787.86,-371.42 786.8,-364.51"/>
</g>
<!-- Node3 -->
<g id="node3" class="node">
<title>Node3</title>
<g id="a_node3"><a xlink:href="AverageCustomer_8cpp.html" target="_top" xlink:title="Implements the functionality defined in the AverageCustomer class.">
<polygon fill="white" stroke="black" points="0,-235.5 0,-265.5 149,-265.5 149,-235.5 0,-235.5"/>
<text text-anchor="start" x="8" y="-253.5" font-family="Helvetica,sans-Serif" font-size="10.00">backend/customer/Average</text>
<text text-anchor="middle" x="74.5" y="-242.5" font-family="Helvetica,sans-Serif" font-size="10.00">Customer.cpp</text>
</a>
</g>
</g>
<!-- Node2&#45;&gt;Node3 -->
<g id="edge2" class="edge">
<title>Node2&#45;&gt;Node3</title>
<path fill="none" stroke="midnightblue" d="M195.72,-298.68C168.94,-288.26 135.6,-275.28 110.67,-265.58"/>
<polygon fill="midnightblue" stroke="midnightblue" points="194.67,-302.03 205.26,-302.4 197.21,-295.51 194.67,-302.03"/>
</g>
<!-- Node4 -->
<g id="node4" class="node">
<title>Node4</title>
<g id="a_node4"><a xlink:href="AverageCustomerBuilder_8h.html" target="_top" xlink:title="Builder class for creating AverageCustomer objects with randomized dialogues.">
<polygon fill="white" stroke="black" points="167,-235.5 167,-265.5 316,-265.5 316,-235.5 167,-235.5"/>
<text text-anchor="start" x="175" y="-253.5" font-family="Helvetica,sans-Serif" font-size="10.00">backend/customer/Average</text>
<text text-anchor="middle" x="241.5" y="-242.5" font-family="Helvetica,sans-Serif" font-size="10.00">CustomerBuilder.h</text>
</a>
</g>
</g>
<!-- Node2&#45;&gt;Node4 -->
<g id="edge3" class="edge">
<title>Node2&#45;&gt;Node4</title>
<path fill="none" stroke="midnightblue" d="M241.5,-292.11C241.5,-283.15 241.5,-273.32 241.5,-265.58"/>
<polygon fill="midnightblue" stroke="midnightblue" points="238,-292.4 241.5,-302.4 245,-292.4 238,-292.4"/>
</g>
<!-- Node5 -->
<g id="node5" class="node">
<title>Node5</title>
<g id="a_node5"><a xlink:href="AverageCustomerBuilder_8cpp.html" target="_top" xlink:title="Implements the AverageCustomerBuilder class functionality.">
<polygon fill="white" stroke="black" points="164,-168.5 164,-198.5 313,-198.5 313,-168.5 164,-168.5"/>
<text text-anchor="start" x="172" y="-186.5" font-family="Helvetica,sans-Serif" font-size="10.00">backend/customer/Average</text>
<text text-anchor="middle" x="238.5" y="-175.5" font-family="Helvetica,sans-Serif" font-size="10.00">CustomerBuilder.cpp</text>
</a>
</g>
</g>
<!-- Node4&#45;&gt;Node5 -->
<g id="edge4" class="edge">
<title>Node4&#45;&gt;Node5</title>
<path fill="none" stroke="midnightblue" d="M240.39,-225.4C239.97,-216.37 239.51,-206.41 239.15,-198.58"/>
<polygon fill="midnightblue" stroke="midnightblue" points="236.89,-225.57 240.85,-235.4 243.88,-225.25 236.89,-225.57"/>
</g>
<!-- Node7&#45;&gt;Node4 -->
<g id="edge7" class="edge">
<title>Node7&#45;&gt;Node4</title>
<path fill="none" stroke="midnightblue" d="M580.09,-301.81C466.23,-284.5 435.8,-283.27 325.5,-266 322.43,-265.52 319.3,-265.02 316.14,-264.51"/>
<polygon fill="midnightblue" stroke="midnightblue" points="579.85,-305.31 590.26,-303.36 580.9,-298.39 579.85,-305.31"/>
</g>
<!-- Node8 -->
<g id="node8" class="node">
<title>Node8</title>
<g id="a_node8"><a xlink:href="CustomerBuilder_8cpp.html" target="_top" xlink:title="Implements the CustomerBuilder base class functionality.">
<polygon fill="white" stroke="black" points="508.5,-235.5 508.5,-265.5 664.5,-265.5 664.5,-235.5 508.5,-235.5"/>
<text text-anchor="start" x="516.5" y="-253.5" font-family="Helvetica,sans-Serif" font-size="10.00">backend/customer/Customer</text>
<text text-anchor="middle" x="586.5" y="-242.5" font-family="Helvetica,sans-Serif" font-size="10.00">Builder.cpp</text>
</a>
</g>
</g>
<!-- Node7&#45;&gt;Node8 -->
<g id="edge8" class="edge">
<title>Node7&#45;&gt;Node8</title>
<path fill="none" stroke="midnightblue" d="M642.85,-296.17C630.31,-286.23 615.53,-274.51 604.26,-265.58"/>
<polygon fill="midnightblue" stroke="midnightblue" points="640.7,-298.93 650.71,-302.4 645.04,-293.44 640.7,-298.93"/>
</g>
<!-- Node9 -->
<g id="node9" class="node">
<title>Node9</title>
<g id="a_node9"><a xlink:href="Director_8h.html" target="_top" xlink:title="Director class for coordinating customer construction using builders and visitors.">
<polygon fill="white" stroke="black" points="334.5,-241 334.5,-260 490.5,-260 490.5,-241 334.5,-241"/>
<text text-anchor="middle" x="412.5" y="-248" font-family="Helvetica,sans-Serif" font-size="10.00">backend/customer/Director.h</text>
</a>
</g>
</g>
<!-- Node7&#45;&gt;Node9 -->
<g id="edge9" class="edge">
<title>Node7&#45;&gt;Node9</title>
<path fill="none" stroke="midnightblue" d="M603.48,-299.99C553.31,-287.25 485.95,-270.15 446.09,-260.03"/>
<polygon fill="midnightblue" stroke="midnightblue" points="602.71,-303.41 613.27,-302.48 604.44,-296.62 602.71,-303.41"/>
</g>
<!-- Node11 -->
<g id="node11" class="node">
<title>Node11</title>
<g id="a_node11"><a xlink:href="GreenFingerCustomerBuilder_8h.html" target="_top" xlink:title="Builder class for creating GreenFingerCustomer objects with randomized dialogues.">
<polygon fill="white" stroke="black" points="830.5,-235.5 830.5,-265.5 998.5,-265.5 998.5,-235.5 830.5,-235.5"/>
<text text-anchor="start" x="838.5" y="-253.5" font-family="Helvetica,sans-Serif" font-size="10.00">backend/customer/GreenFinger</text>
<text text-anchor="middle" x="914.5" y="-242.5" font-family="Helvetica,sans-Serif" font-size="10.00">CustomerBuilder.h</text>
</a>
</g>
</g>
<!-- Node7&#45;&gt;Node11 -->
<g id="edge11" class="edge">
<title>Node7&#45;&gt;Node11</title>
<path fill="none" stroke="midnightblue" d="M731.26,-299.92C771.4,-289.31 822.92,-275.7 861.1,-265.61"/>
<polygon fill="midnightblue" stroke="midnightblue" points="730.35,-296.54 721.58,-302.48 732.14,-303.31 730.35,-296.54"/>
</g>
<!-- Node13 -->
<g id="node13" class="node">
<title>Node13</title>
<g id="a_node13"><a xlink:href="IgnorantCustomerBuilder_8h.html" target="_top" xlink:title="Builder class for creating IgnorantCustomer objects with randomized dialogues.">
<polygon fill="white" stroke="black" points="1016,-235.5 1016,-265.5 1165,-265.5 1165,-235.5 1016,-235.5"/>
<text text-anchor="start" x="1024" y="-253.5" font-family="Helvetica,sans-Serif" font-size="10.00">backend/customer/Ignorant</text>
<text text-anchor="middle" x="1090.5" y="-242.5" font-family="Helvetica,sans-Serif" font-size="10.00">CustomerBuilder.h</text>
</a>
</g>
</g>
<!-- Node7&#45;&gt;Node13 -->
<g id="edge13" class="edge">
<title>Node7&#45;&gt;Node13</title>
<path fill="none" stroke="midnightblue" d="M756.99,-303.94C825.45,-294.07 922.58,-279.74 1007.5,-266 1010.24,-265.56 1013.04,-265.1 1015.86,-264.63"/>
<polygon fill="midnightblue" stroke="midnightblue" points="756.08,-300.53 746.68,-305.42 757.08,-307.46 756.08,-300.53"/>
</g>
<!-- Node7&#45;&gt;Node15 -->
<g id="edge15" class="edge">
<title>Node7&#45;&gt;Node15</title>
<path fill="none" stroke="midnightblue" d="M693.41,-296.01C708.07,-283.94 725.86,-269.3 736.93,-260.19"/>
<polygon fill="midnightblue" stroke="midnightblue" points="691.14,-293.34 685.64,-302.4 695.59,-298.75 691.14,-293.34"/>
</g>
<!-- Node10 -->
<g id="node10" class="node">
<title>Node10</title>
<g id="a_node10"><a xlink:href="Director_8cpp.html" target="_top" xlink:title="Implements the Director class functionality.">
<polygon fill="white" stroke="black" points="331,-174 331,-193 498,-193 498,-174 331,-174"/>
<text text-anchor="middle" x="414.5" y="-181" font-family="Helvetica,sans-Serif" font-size="10.00">backend/customer/Director.cpp</text>
</a>
</g>
</g>
<!-- Node9&#45;&gt;Node10 -->
<g id="edge10" class="edge">
<title>Node9&#45;&gt;Node10</title>
<path fill="none" stroke="midnightblue" d="M413.08,-230.54C413.46,-218.17 413.94,-202.62 414.23,-193.13"/>
<polygon fill="midnightblue" stroke="midnightblue" points="409.58,-230.63 412.77,-240.73 416.58,-230.85 409.58,-230.63"/>
</g>
<!-- Node12 -->
<g id="node12" class="node">
<title>Node12</title>
<g id="a_node12"><a xlink:href="GreenFingerCustomerBuilder_8cpp.html" target="_top" xlink:title="Implements the GreenFingerCustomerBuilder class functionality.">
<polygon fill="white" stroke="black" points="830.5,-168.5 830.5,-198.5 998.5,-198.5 998.5,-168.5 830.5,-168.5"/>
<text text-anchor="start" x="838.5" y="-186.5" font-family="Helvetica,sans-Serif" font-size="10.00">backend/customer/GreenFinger</text>
<text text-anchor="middle" x="914.5" y="-175.5" font-family="Helvetica,sans-Serif" font-size="10.00">CustomerBuilder.cpp</text>
</a>
</g>
</g>
<!-- Node11&#45;&gt;Node12 -->
<g id="edge12" class="edge">
<title>Node11&#45;&gt;Node12</title>
<path fill="none" stroke="midnightblue" d="M914.5,-225.11C914.5,-216.15 914.5,-206.32 914.5,-198.58"/>
<polygon fill="midnightblue" stroke="midnightblue" points="911,-225.4 914.5,-235.4 918,-225.4 911,-225.4"/>
</g>
<!-- Node14 -->
<g id="node14" class="node">
<title>Node14</title>
<g id="a_node14"><a xlink:href="IgnorantCustomerBuilder_8cpp.html" target="_top" xlink:title="Implements the IgnorantCustomerBuilder class functionality.">
<polygon fill="white" stroke="black" points="1016,-168.5 1016,-198.5 1165,-198.5 1165,-168.5 1016,-168.5"/>
<text text-anchor="start" x="1024" y="-186.5" font-family="Helvetica,sans-Serif" font-size="10.00">backend/customer/Ignorant</text>
<text text-anchor="middle" x="1090.5" y="-175.5" font-family="Helvetica,sans-Serif" font-size="10.00">CustomerBuilder.cpp</text>
</a>
</g>
</g>
<!-- Node13&#45;&gt;Node14 -->
<g id="edge14" class="edge">
<title>Node13&#45;&gt;Node14</title>
<path fill="none" stroke="midnightblue" d="M1090.5,-225.11C1090.5,-216.15 1090.5,-206.32 1090.5,-198.58"/>
<polygon fill="midnightblue" stroke="midnightblue" points="1087,-225.4 1090.5,-235.4 1094,-225.4 1087,-225.4"/>
</g>
<!-- Node16 -->
<g id="node16" class="node">
<title>Node16</title>
<g id="a_node16"><a xlink:href="API_8h.html" target="_top" xlink:title="Bootstrapper for public facing API.">
<polygon fill="white" stroke="black" points="979.5,-112.5 979.5,-131.5 1083.5,-131.5 1083.5,-112.5 979.5,-112.5"/>
<text text-anchor="middle" x="1031.5" y="-119.5" font-family="Helvetica,sans-Serif" font-size="10.00">backend/API/API.h</text>
</a>
</g>
</g>
<!-- Node15&#45;&gt;Node16 -->
<g id="edge16" class="edge">
<title>Node15&#45;&gt;Node16</title>
<path fill="none" stroke="midnightblue" d="M760.46,-232.98C777.49,-211.68 806.94,-176.38 821.5,-168 835.48,-159.95 926.47,-142.23 984,-131.59"/>
<polygon fill="midnightblue" stroke="midnightblue" points="757.66,-230.86 754.2,-240.88 763.15,-235.21 757.66,-230.86"/>
</g>
<!-- Node17 -->
<g id="node17" class="node">
<title>Node17</title>
<g id="a_node17"><a xlink:href="APIController_8h.html" target="_top" xlink:title="Define endpoints.">
<polygon fill="white" stroke="black" points="696,-56.5 696,-75.5 847,-75.5 847,-56.5 696,-56.5"/>
<text text-anchor="middle" x="771.5" y="-63.5" font-family="Helvetica,sans-Serif" font-size="10.00">backend/API/APIController.h</text>
</a>
</g>
</g>
<!-- Node15&#45;&gt;Node17 -->
<g id="edge19" class="edge">
<title>Node15&#45;&gt;Node17</title>
<path fill="none" stroke="midnightblue" d="M688.51,-238.41C661.42,-230.93 630.32,-218.7 607.5,-199 575.82,-171.66 545.36,-144.68 571.5,-112 587.15,-92.44 646.05,-80.79 695.91,-74.26"/>
<polygon fill="midnightblue" stroke="midnightblue" points="687.73,-241.82 698.29,-240.95 689.49,-235.05 687.73,-241.82"/>
</g>
<!-- Node19 -->
<g id="node19" class="node">
<title>Node19</title>
<g id="a_node19"><a xlink:href="MenuOption_8h.html" target="_top" xlink:title="Base class for menu command options.">
<polygon fill="white" stroke="black" points="616,-174 616,-193 775,-193 775,-174 616,-174"/>
<text text-anchor="middle" x="695.5" y="-181" font-family="Helvetica,sans-Serif" font-size="10.00">backend/game/MenuOption.h</text>
</a>
</g>
</g>
<!-- Node15&#45;&gt;Node19 -->
<g id="edge20" class="edge">
<title>Node15&#45;&gt;Node19</title>
<path fill="none" stroke="midnightblue" d="M734.12,-232.77C723.98,-220.1 710.46,-203.2 702.4,-193.13"/>
<polygon fill="midnightblue" stroke="midnightblue" points="731.51,-235.11 740.49,-240.73 736.97,-230.74 731.51,-235.11"/>
</g>
<!-- Node16&#45;&gt;Node17 -->
<g id="edge17" class="edge">
<title>Node16&#45;&gt;Node17</title>
<path fill="none" stroke="midnightblue" d="M980.51,-110.41C931.37,-100.2 857.97,-84.96 812.51,-75.52"/>
<polygon fill="midnightblue" stroke="midnightblue" points="979.8,-113.84 990.3,-112.44 981.22,-106.98 979.8,-113.84"/>
</g>
<!-- Node18 -->
<g id="node18" class="node">
<title>Node18</title>
<g id="a_node18"><a xlink:href="APIController_8cpp.html" target="_top" xlink:title="Still need to see what going to do here.">
<polygon fill="white" stroke="black" points="690.5,-0.5 690.5,-19.5 852.5,-19.5 852.5,-0.5 690.5,-0.5"/>
<text text-anchor="middle" x="771.5" y="-7.5" font-family="Helvetica,sans-Serif" font-size="10.00">backend/API/APIController.cpp</text>
</a>
</g>
</g>
<!-- Node17&#45;&gt;Node18 -->
<g id="edge18" class="edge">
<title>Node17&#45;&gt;Node18</title>
<path fill="none" stroke="midnightblue" d="M771.5,-45.8C771.5,-36.91 771.5,-26.78 771.5,-19.75"/>
<polygon fill="midnightblue" stroke="midnightblue" points="768,-46.08 771.5,-56.08 775,-46.08 768,-46.08"/>
</g>
<!-- Node20 -->
<g id="node20" class="node">
<title>Node20</title>
<g id="a_node20"><a xlink:href="ExitGameOption_8h.html" target="_top" xlink:title="Command for exiting the game with logging capabilities.">
<polygon fill="white" stroke="black" points="781.5,-112.5 781.5,-131.5 961.5,-131.5 961.5,-112.5 781.5,-112.5"/>
<text text-anchor="middle" x="871.5" y="-119.5" font-family="Helvetica,sans-Serif" font-size="10.00">backend/game/ExitGameOption.h</text>
</a>
</g>
</g>
<!-- Node19&#45;&gt;Node20 -->
<g id="edge21" class="edge">
<title>Node19&#45;&gt;Node20</title>
<path fill="none" stroke="midnightblue" d="M730.31,-170.73C764.52,-159.17 815.9,-141.8 846.33,-131.51"/>
<polygon fill="midnightblue" stroke="midnightblue" points="729.07,-167.46 720.72,-173.98 731.31,-174.09 729.07,-167.46"/>
</g>
<!-- Node21 -->
<g id="node21" class="node">
<title>Node21</title>
<g id="a_node21"><a xlink:href="NewGameOption_8h.html" target="_top" xlink:title="Header file for NewGameOption class.">
<polygon fill="white" stroke="black" points="580,-112.5 580,-131.5 763,-131.5 763,-112.5 580,-112.5"/>
<text text-anchor="middle" x="671.5" y="-119.5" font-family="Helvetica,sans-Serif" font-size="10.00">backend/game/NewGameOption.h</text>
</a>
</g>
</g>
<!-- Node19&#45;&gt;Node21 -->
<g id="edge23" class="edge">
<title>Node19&#45;&gt;Node21</title>
<path fill="none" stroke="midnightblue" d="M688.24,-164.5C683.82,-153.55 678.39,-140.07 674.93,-131.51"/>
<polygon fill="midnightblue" stroke="midnightblue" points="685.07,-166.01 692.06,-173.98 691.57,-163.39 685.07,-166.01"/>
</g>
<!-- Node20&#45;&gt;Node17 -->
<g id="edge22" class="edge">
<title>Node20&#45;&gt;Node17</title>
<path fill="none" stroke="midnightblue" d="M846.41,-107.45C827.95,-97.48 803.4,-84.23 787.53,-75.65"/>
<polygon fill="midnightblue" stroke="midnightblue" points="844.97,-110.65 855.43,-112.32 848.3,-104.49 844.97,-110.65"/>
</g>
<!-- Node21&#45;&gt;Node17 -->
<g id="edge24" class="edge">
<title>Node21&#45;&gt;Node17</title>
<path fill="none" stroke="midnightblue" d="M696.59,-107.45C715.05,-97.48 739.6,-84.23 755.47,-75.65"/>
<polygon fill="midnightblue" stroke="midnightblue" points="694.7,-104.49 687.57,-112.32 698.03,-110.65 694.7,-104.49"/>
</g>
<!-- Node22&#45;&gt;Node11 -->
<g id="edge27" class="edge">
<title>Node22&#45;&gt;Node11</title>
<path fill="none" stroke="midnightblue" d="M914.5,-292.11C914.5,-283.15 914.5,-273.32 914.5,-265.58"/>
<polygon fill="midnightblue" stroke="midnightblue" points="911,-292.4 914.5,-302.4 918,-292.4 911,-292.4"/>
</g>
<!-- Node23 -->
<g id="node23" class="node">
<title>Node23</title>
<g id="a_node23"><a xlink:href="GreenFingerCustomer_8cpp.html" target="_top" xlink:title="Implements the functionality defined in the GreenFingerCustomer class.">
<polygon fill="white" stroke="black" points="1182.5,-235.5 1182.5,-265.5 1350.5,-265.5 1350.5,-235.5 1182.5,-235.5"/>
<text text-anchor="start" x="1190.5" y="-253.5" font-family="Helvetica,sans-Serif" font-size="10.00">backend/customer/GreenFinger</text>
<text text-anchor="middle" x="1266.5" y="-242.5" font-family="Helvetica,sans-Serif" font-size="10.00">Customer.cpp</text>
</a>
</g>
</g>
<!-- Node22&#45;&gt;Node23 -->
<g id="edge26" class="edge">
<title>Node22&#45;&gt;Node23</title>
<path fill="none" stroke="midnightblue" d="M1000.34,-300.65C1058.43,-289.92 1134.46,-275.88 1190.39,-265.55"/>
<polygon fill="midnightblue" stroke="midnightblue" points="999.64,-297.22 990.45,-302.48 1000.91,-304.1 999.64,-297.22"/>
</g>
<!-- Node24&#45;&gt;Node13 -->
<g id="edge30" class="edge">
<title>Node24&#45;&gt;Node13</title>
<path fill="none" stroke="midnightblue" d="M1090.5,-292.11C1090.5,-283.15 1090.5,-273.32 1090.5,-265.58"/>
<polygon fill="midnightblue" stroke="midnightblue" points="1087,-292.4 1090.5,-302.4 1094,-292.4 1087,-292.4"/>
</g>
<!-- Node25 -->
<g id="node25" class="node">
<title>Node25</title>
<g id="a_node25"><a xlink:href="IgnorantCustomer_8cpp.html" target="_top" xlink:title="Implements the functionality defined in the IgnorantCustomer class.">
<polygon fill="white" stroke="black" points="1368,-235.5 1368,-265.5 1517,-265.5 1517,-235.5 1368,-235.5"/>
<text text-anchor="start" x="1376" y="-253.5" font-family="Helvetica,sans-Serif" font-size="10.00">backend/customer/Ignorant</text>
<text text-anchor="middle" x="1442.5" y="-242.5" font-family="Helvetica,sans-Serif" font-size="10.00">Customer.cpp</text>
</a>
</g>
</g>
<!-- Node24&#45;&gt;Node25 -->
<g id="edge29" class="edge">
<title>Node24&#45;&gt;Node25</title>
<path fill="none" stroke="midnightblue" d="M1175.15,-300.87C1233.93,-290.01 1311.52,-275.69 1367.96,-265.26"/>
<polygon fill="midnightblue" stroke="midnightblue" points="1174.35,-297.46 1165.15,-302.72 1175.62,-304.34 1174.35,-297.46"/>
</g>
</g>
</svg>
        <g id="navigator" transform="translate(0 0)" fill="#404254">
                <rect fill="#f2f5e9" fill-opacity="0.5" stroke="#606060" stroke-width=".5" x="0" y="0" width="60" height="60"/>
                <use id="zoomplus" xlink:href="#zoomPlus" x="17" y="9" onmousedown="handleZoom(evt,'in')"/>
                <use id="zoomminus" xlink:href="#zoomMin" x="42" y="9" onmousedown="handleZoom(evt,'out')"/>
                <use id="reset" xlink:href="#resetDef" x="30" y="36" onmousedown="handleReset()"/>
                <g id="arrowUp" xlink:href="#dirArrow" transform="translate(30 24)" onmousedown="handlePan(0,-1)">
                  <use xlink:href="#rim" fill="#404040">
                        <set attributeName="fill" to="#808080" begin="arrowUp.mouseover" end="arrowUp.mouseout"/>
                  </use>
                  <path fill="none" stroke="white" stroke-width="1.5" d="M0,-3.0v7 M-2.5,-0.5L0,-3.0L2.5,-0.5"/>
                </g>
                <g id="arrowRight" xlink:href="#dirArrow" transform="rotate(90) translate(36 -43)" onmousedown="handlePan(1,0)">
                  <use xlink:href="#rim" fill="#404040">
                        <set attributeName="fill" to="#808080" begin="arrowRight.mouseover" end="arrowRight.mouseout"/>
                  </use>
                  <path fill="none" stroke="white" stroke-width="1.5" d="M0,-3.0v7 M-2.5,-0.5L0,-3.0L2.5,-0.5"/>
                </g>
                <g id="arrowDown" xlink:href="#dirArrow" transform="rotate(180) translate(-30 -48)" onmousedown="handlePan(0,1)">
                  <use xlink:href="#rim" fill="#404040">
                        <set attributeName="fill" to="#808080" begin="arrowDown.mouseover" end="arrowDown.mouseout"/>
                  </use>
                  <path fill="none" stroke="white" stroke-width="1.5" d="M0,-3.0v7 M-2.5,-0.5L0,-3.0L2.5,-0.5"/>
                </g>
                <g id="arrowLeft" xlink:href="#dirArrow" transform="rotate(270) translate(-36 17)" onmousedown="handlePan(-1,0)">
                  <use xlink:href="#rim" fill="#404040">
                        <set attributeName="fill" to="#808080" begin="arrowLeft.mouseover" end="arrowLeft.mouseout"/>
                  </use>
                  <path fill="none" stroke="white" stroke-width="1.5" d="M0,-3.0v7 M-2.5,-0.5L0,-3.0L2.5,-0.5"/>
                </g>
        </g>
        <svg viewBox="0 0 15 15" width="100%" height="30px" preserveAspectRatio="xMaxYMin meet">
         <g id="arrow_out" transform="scale(0.3 0.3)">
          <a xlink:href="Customer_8h__dep__incl_org.svg" target="_base">
           <rect id="button" ry="5" rx="5" y="6" x="6" height="38" width="38"
                fill="#f2f5e9" fill-opacity="0.5" stroke="#606060" stroke-width="1.0"/>
           <path id="arrow"
             d="M 11.500037,31.436501 C 11.940474,20.09759 22.043105,11.32322 32.158766,21.979434 L 37.068811,17.246167 C 37.068811,17.246167 37.088388,32 37.088388,32 L 22.160133,31.978069 C 22.160133,31.978069 26.997745,27.140456 26.997745,27.140456 C 18.528582,18.264221 13.291696,25.230495 11.500037,31.436501 z"
             style="fill:#404040;"/>
          </a>
         </g>
        </svg>
</svg>
