<?xml version="1.0" encoding="UTF-8" standalone="no"?>
<!DOCTYPE svg PUBLIC "-//W3C//DTD SVG 1.1//EN"
 "http://www.w3.org/Graphics/SVG/1.1/DTD/svg11.dtd">
<!-- Generated by graphviz version 2.43.0 (0)
 -->
<!-- Title: backend/customer/CustomerBuilder.cpp Pages: 1 -->
<!--zoomable 554 -->
<svg id="main" version="1.1" xmlns="http://www.w3.org/2000/svg" xmlns:xlink="http://www.w3.org/1999/xlink" xml:space="preserve" onload="init(evt)">
<style type="text/css"><![CDATA[
.edge:hover path { stroke: red; }
.edge:hover polygon { stroke: red; fill: red; }
]]></style>
<script type="text/javascript"><![CDATA[
var edges = document.getElementsByTagName('g');
if (edges && edges.length) {
  for (var i=0;i<edges.length;i++) {
    if (edges[i].id.substr(0,4)=='edge') {
      edges[i].setAttribute('class','edge');
    }
  }
}
]]></script>
        <defs>
                <circle id="rim" cx="0" cy="0" r="7"/>
                <circle id="rim2" cx="0" cy="0" r="3.5"/>
                <g id="zoomPlus">
                        <use xlink:href="#rim" fill="#404040">
                                <set attributeName="fill" to="#808080" begin="zoomplus.mouseover" end="zoomplus.mouseout"/>
                        </use>
                        <path d="M-4,0h8M0,-4v8" fill="none" stroke="white" stroke-width="1.5" pointer-events="none"/>
                </g>
                <g id="zoomMin">
                        <use xlink:href="#rim" fill="#404040">
                                <set attributeName="fill" to="#808080" begin="zoomminus.mouseover" end="zoomminus.mouseout"/>
                        </use>
                        <path d="M-4,0h8" fill="none" stroke="white" stroke-width="1.5" pointer-events="none"/>
                </g>
                <g id="dirArrow">
                        <path fill="none" stroke="white" stroke-width="1.5" d="M0,-3.0v7 M-2.5,-0.5L0,-3.0L2.5,-0.5"/>
                </g>
               <g id="resetDef">
                       <use xlink:href="#rim2" fill="#404040">
                               <set attributeName="fill" to="#808080" begin="reset.mouseover" end="reset.mouseout"/>
                       </use>
               </g>
        </defs>

<script type="text/javascript">
var viewWidth = 1916;
var viewHeight = 554;
var sectionId = 'dynsection-0';
</script>
<script xlink:href="svgpan.js"/>
<svg id="graph" class="graph">
<g id="viewport">
<title>backend/customer/CustomerBuilder.cpp</title>
<polygon fill="white" stroke="transparent" points="-4,4 -4,-550 1912,-550 1912,4 -4,4"/>
<!-- Node1 -->
<g id="node1" class="node">
<title>Node1</title>
<g id="a_node1"><a xlink:title="Implements the CustomerBuilder base class functionality.">
<polygon fill="#bfbfbf" stroke="black" points="602,-515.5 602,-545.5 758,-545.5 758,-515.5 602,-515.5"/>
<text text-anchor="start" x="610" y="-533.5" font-family="Helvetica,sans-Serif" font-size="10.00">backend/customer/Customer</text>
<text text-anchor="middle" x="680" y="-522.5" font-family="Helvetica,sans-Serif" font-size="10.00">Builder.cpp</text>
</a>
</g>
</g>
<!-- Node2 -->
<g id="node2" class="node">
<title>Node2</title>
<g id="a_node2"><a xlink:href="CustomerBuilder_8h.html" target="_top" xlink:title="Abstract builder interface for creating Customer objects.">
<polygon fill="white" stroke="black" points="626.5,-459.5 626.5,-478.5 733.5,-478.5 733.5,-459.5 626.5,-459.5"/>
<text text-anchor="middle" x="680" y="-466.5" font-family="Helvetica,sans-Serif" font-size="10.00">CustomerBuilder.h</text>
</a>
</g>
</g>
<!-- Node1&#45;&gt;Node2 -->
<g id="edge1" class="edge">
<title>Node1&#45;&gt;Node2</title>
<path fill="none" stroke="midnightblue" d="M680,-515.4C680,-507.47 680,-497.46 680,-488.86"/>
<polygon fill="midnightblue" stroke="midnightblue" points="683.5,-488.66 680,-478.66 676.5,-488.66 683.5,-488.66"/>
</g>
<!-- Node3 -->
<g id="node3" class="node">
<title>Node3</title>
<g id="a_node3"><a xlink:href="Customer_8h.html" target="_top" xlink:title="Abstract base class for all customer types in the plant shop game.">
<polygon fill="white" stroke="black" points="644,-403.5 644,-422.5 716,-422.5 716,-403.5 644,-403.5"/>
<text text-anchor="middle" x="680" y="-410.5" font-family="Helvetica,sans-Serif" font-size="10.00">Customer.h</text>
</a>
</g>
</g>
<!-- Node2&#45;&gt;Node3 -->
<g id="edge2" class="edge">
<title>Node2&#45;&gt;Node3</title>
<path fill="none" stroke="midnightblue" d="M680,-459.08C680,-452.01 680,-441.86 680,-432.99"/>
<polygon fill="midnightblue" stroke="midnightblue" points="683.5,-432.75 680,-422.75 676.5,-432.75 683.5,-432.75"/>
</g>
<!-- Node8 -->
<g id="node8" class="node">
<title>Node8</title>
<g id="a_node8"><a xlink:href="CustomerVisitor_8h.html" target="_top" xlink:title="Abstract visitor class for plant recommendation strategies for different customer types.">
<polygon fill="white" stroke="black" points="500,-347.5 500,-366.5 604,-366.5 604,-347.5 500,-347.5"/>
<text text-anchor="middle" x="552" y="-354.5" font-family="Helvetica,sans-Serif" font-size="10.00">CustomerVisitor.h</text>
</a>
</g>
</g>
<!-- Node2&#45;&gt;Node8 -->
<g id="edge58" class="edge">
<title>Node2&#45;&gt;Node8</title>
<path fill="none" stroke="midnightblue" d="M669.96,-459.37C648.27,-440.73 596.84,-396.53 569.61,-373.13"/>
<polygon fill="midnightblue" stroke="midnightblue" points="571.86,-370.45 562,-366.59 567.3,-375.76 571.86,-370.45"/>
</g>
<!-- Node32 -->
<g id="node32" class="node">
<title>Node32</title>
<g id="a_node32"><a xlink:title=" ">
<polygon fill="white" stroke="#bfbfbf" points="672,-235.5 672,-254.5 726,-254.5 726,-235.5 672,-235.5"/>
<text text-anchor="middle" x="699" y="-242.5" font-family="Helvetica,sans-Serif" font-size="10.00">random</text>
</a>
</g>
</g>
<!-- Node2&#45;&gt;Node32 -->
<g id="edge67" class="edge">
<title>Node2&#45;&gt;Node32</title>
<path fill="none" stroke="midnightblue" d="M693.06,-459.44C703.91,-451.47 718.57,-438.52 725,-423 747.63,-368.37 722.22,-297.09 707.71,-264.15"/>
<polygon fill="midnightblue" stroke="midnightblue" points="710.8,-262.5 703.45,-254.87 704.44,-265.42 710.8,-262.5"/>
</g>
<!-- Node33 -->
<g id="node33" class="node">
<title>Node33</title>
<g id="a_node33"><a xlink:href="JSONGameConfiguration_8h.html" target="_top" xlink:title="JSON&#45;based game configuration implementation.">
<polygon fill="white" stroke="black" points="246,-179.5 246,-198.5 390,-198.5 390,-179.5 246,-179.5"/>
<text text-anchor="middle" x="318" y="-186.5" font-family="Helvetica,sans-Serif" font-size="10.00">JSONGameConfiguration.h</text>
</a>
</g>
</g>
<!-- Node2&#45;&gt;Node33 -->
<g id="edge59" class="edge">
<title>Node2&#45;&gt;Node33</title>
<path fill="none" stroke="midnightblue" d="M659.97,-459.4C624.35,-443.65 548.34,-408.01 491,-367 461.33,-345.78 456.8,-336.79 431,-311 394.61,-274.62 353.86,-229.95 332.64,-206.38"/>
<polygon fill="midnightblue" stroke="midnightblue" points="335.03,-203.8 325.75,-198.7 329.82,-208.48 335.03,-203.8"/>
</g>
<!-- Node36 -->
<g id="node36" class="node">
<title>Node36</title>
<g id="a_node36"><a xlink:title=" ">
<polygon fill="white" stroke="#bfbfbf" points="772,-403.5 772,-422.5 822,-422.5 822,-403.5 772,-403.5"/>
<text text-anchor="middle" x="797" y="-410.5" font-family="Helvetica,sans-Serif" font-size="10.00">chrono</text>
</a>
</g>
</g>
<!-- Node2&#45;&gt;Node36 -->
<g id="edge68" class="edge">
<title>Node2&#45;&gt;Node36</title>
<path fill="none" stroke="midnightblue" d="M698.54,-459.44C717.62,-450.64 747.57,-436.81 769.44,-426.72"/>
<polygon fill="midnightblue" stroke="midnightblue" points="770.93,-429.88 778.55,-422.52 768,-423.53 770.93,-429.88"/>
</g>
<!-- Node4 -->
<g id="node4" class="node">
<title>Node4</title>
<g id="a_node4"><a xlink:title=" ">
<polygon fill="white" stroke="#bfbfbf" points="180.5,-67.5 180.5,-86.5 227.5,-86.5 227.5,-67.5 180.5,-67.5"/>
<text text-anchor="middle" x="204" y="-74.5" font-family="Helvetica,sans-Serif" font-size="10.00">vector</text>
</a>
</g>
</g>
<!-- Node3&#45;&gt;Node4 -->
<g id="edge3" class="edge">
<title>Node3&#45;&gt;Node4</title>
<path fill="none" stroke="midnightblue" d="M643.64,-410.5C507.83,-403.92 38,-372.06 38,-246 38,-246 38,-246 38,-188 38,-125.06 121.95,-96.01 170.45,-84.48"/>
<polygon fill="midnightblue" stroke="midnightblue" points="171.23,-87.89 180.22,-82.28 169.69,-81.06 171.23,-87.89"/>
</g>
<!-- Node5 -->
<g id="node5" class="node">
<title>Node5</title>
<g id="a_node5"><a xlink:title=" ">
<polygon fill="white" stroke="#bfbfbf" points="634,-6 634,-25 678,-25 678,-6 634,-6"/>
<text text-anchor="middle" x="656" y="-13" font-family="Helvetica,sans-Serif" font-size="10.00">string</text>
</a>
</g>
</g>
<!-- Node3&#45;&gt;Node5 -->
<g id="edge4" class="edge">
<title>Node3&#45;&gt;Node5</title>
<path fill="none" stroke="midnightblue" d="M716.34,-407.88C730.85,-406.29 747.71,-404.49 763,-403 859.75,-393.59 1632,-399.21 1632,-302 1632,-302 1632,-302 1632,-132 1632,-101.9 1636.6,-85.68 1613,-67 1575.98,-37.7 851.94,-20.65 688.56,-17.17"/>
<polygon fill="midnightblue" stroke="midnightblue" points="688.28,-13.66 678.2,-16.95 688.13,-20.66 688.28,-13.66"/>
</g>
<!-- Node6 -->
<g id="node6" class="node">
<title>Node6</title>
<g id="a_node6"><a xlink:title=" ">
<polygon fill="white" stroke="#bfbfbf" points="1498,-6 1498,-25 1558,-25 1558,-6 1498,-6"/>
<text text-anchor="middle" x="1528" y="-13" font-family="Helvetica,sans-Serif" font-size="10.00">iostream</text>
</a>
</g>
</g>
<!-- Node3&#45;&gt;Node6 -->
<g id="edge5" class="edge">
<title>Node3&#45;&gt;Node6</title>
<path fill="none" stroke="midnightblue" d="M716.32,-407.58C730.82,-405.94 747.68,-404.19 763,-403 1098.81,-376.83 1189.25,-430.68 1520,-367 1606.81,-350.29 1708,-390.41 1708,-302 1708,-302 1708,-302 1708,-132 1708,-96.94 1610.07,-50.76 1558.67,-28.94"/>
<polygon fill="midnightblue" stroke="midnightblue" points="1559.93,-25.67 1549.36,-25.04 1557.22,-32.13 1559.93,-25.67"/>
</g>
<!-- Node7 -->
<g id="node7" class="node">
<title>Node7</title>
<g id="a_node7"><a xlink:title=" ">
<polygon fill="white" stroke="#bfbfbf" points="660,-347.5 660,-366.5 716,-366.5 716,-347.5 660,-347.5"/>
<text text-anchor="middle" x="688" y="-354.5" font-family="Helvetica,sans-Serif" font-size="10.00">sstream</text>
</a>
</g>
</g>
<!-- Node3&#45;&gt;Node7 -->
<g id="edge6" class="edge">
<title>Node3&#45;&gt;Node7</title>
<path fill="none" stroke="midnightblue" d="M681.32,-403.08C682.38,-395.93 683.91,-385.64 685.23,-376.69"/>
<polygon fill="midnightblue" stroke="midnightblue" points="688.7,-377.16 686.7,-366.75 681.78,-376.13 688.7,-377.16"/>
</g>
<!-- Node3&#45;&gt;Node8 -->
<g id="edge7" class="edge">
<title>Node3&#45;&gt;Node8</title>
<path fill="none" stroke="midnightblue" d="M659.72,-403.44C638.65,-394.56 605.48,-380.56 581.51,-370.45"/>
<polygon fill="midnightblue" stroke="midnightblue" points="582.76,-367.18 572.19,-366.52 580.04,-373.63 582.76,-367.18"/>
</g>
<!-- Node13 -->
<g id="node13" class="node">
<title>Node13</title>
<g id="a_node13"><a xlink:href="Plant_8h.html" target="_top" xlink:title="Defines the abstract base class for all Plant objects used in the system.">
<polygon fill="white" stroke="black" points="860,-123.5 860,-142.5 910,-142.5 910,-123.5 860,-123.5"/>
<text text-anchor="middle" x="885" y="-130.5" font-family="Helvetica,sans-Serif" font-size="10.00">Plant.h</text>
</a>
</g>
</g>
<!-- Node3&#45;&gt;Node13 -->
<g id="edge56" class="edge">
<title>Node3&#45;&gt;Node13</title>
<path fill="none" stroke="midnightblue" d="M716.15,-408.02C880.33,-389.93 1548.78,-316.1 1570,-311 1581.08,-308.34 1594,-313.39 1594,-302 1594,-302 1594,-302 1594,-244 1594,-175.04 1063.42,-143.07 920.24,-135.7"/>
<polygon fill="midnightblue" stroke="midnightblue" points="920.4,-132.2 910.23,-135.19 920.04,-139.2 920.4,-132.2"/>
</g>
<!-- Node18 -->
<g id="node18" class="node">
<title>Node18</title>
<g id="a_node18"><a xlink:title=" ">
<polygon fill="white" stroke="#bfbfbf" points="480,-67.5 480,-86.5 590,-86.5 590,-67.5 480,-67.5"/>
<text text-anchor="middle" x="535" y="-74.5" font-family="Helvetica,sans-Serif" font-size="10.00">nlohmann/json.hpp</text>
</a>
</g>
</g>
<!-- Node3&#45;&gt;Node18 -->
<g id="edge57" class="edge">
<title>Node3&#45;&gt;Node18</title>
<path fill="none" stroke="midnightblue" d="M671.35,-403.29C660.17,-390.92 643.05,-367.51 651,-347 673.5,-288.99 766.93,-288.4 735,-235 717.65,-205.99 695.45,-218.73 668,-199 627.92,-170.18 623.67,-156.05 587,-123 575.78,-112.88 562.94,-101.77 552.83,-93.12"/>
<polygon fill="midnightblue" stroke="midnightblue" points="554.95,-90.33 545.07,-86.51 550.41,-95.66 554.95,-90.33"/>
</g>
<!-- Node8&#45;&gt;Node4 -->
<g id="edge8" class="edge">
<title>Node8&#45;&gt;Node4</title>
<path fill="none" stroke="midnightblue" d="M499.98,-349.46C420.48,-336.44 270.58,-299.27 200,-199 178.4,-168.32 188.87,-121.6 197.18,-96.12"/>
<polygon fill="midnightblue" stroke="midnightblue" points="200.51,-97.2 200.52,-86.61 193.91,-94.89 200.51,-97.2"/>
</g>
<!-- Node9 -->
<g id="node9" class="node">
<title>Node9</title>
<g id="a_node9"><a xlink:title=" ">
<polygon fill="white" stroke="#bfbfbf" points="1540,-67.5 1540,-86.5 1604,-86.5 1604,-67.5 1540,-67.5"/>
<text text-anchor="middle" x="1572" y="-74.5" font-family="Helvetica,sans-Serif" font-size="10.00">algorithm</text>
</a>
</g>
</g>
<!-- Node8&#45;&gt;Node9 -->
<g id="edge9" class="edge">
<title>Node8&#45;&gt;Node9</title>
<path fill="none" stroke="midnightblue" d="M604.21,-350.97C810.3,-331.04 1556,-258.09 1556,-246 1556,-246 1556,-246 1556,-188 1556,-155.63 1562.87,-118.44 1567.61,-96.66"/>
<polygon fill="midnightblue" stroke="midnightblue" points="1571.05,-97.3 1569.84,-86.78 1564.22,-95.76 1571.05,-97.3"/>
</g>
<!-- Node10 -->
<g id="node10" class="node">
<title>Node10</title>
<g id="a_node10"><a xlink:title=" ">
<polygon fill="white" stroke="#bfbfbf" points="440.5,-291.5 440.5,-310.5 493.5,-310.5 493.5,-291.5 440.5,-291.5"/>
<text text-anchor="middle" x="467" y="-298.5" font-family="Helvetica,sans-Serif" font-size="10.00">cstddef</text>
</a>
</g>
</g>
<!-- Node8&#45;&gt;Node10 -->
<g id="edge10" class="edge">
<title>Node8&#45;&gt;Node10</title>
<path fill="none" stroke="midnightblue" d="M538.34,-347.32C525.08,-338.9 504.73,-325.97 489.15,-316.07"/>
<polygon fill="midnightblue" stroke="midnightblue" points="490.94,-313.06 480.62,-310.65 487.19,-318.97 490.94,-313.06"/>
</g>
<!-- Node11 -->
<g id="node11" class="node">
<title>Node11</title>
<g id="a_node11"><a xlink:href="SalesFloor_8h.html" target="_top" xlink:title="Sales floor management for customer interactions and plant sales.">
<polygon fill="white" stroke="black" points="512,-291.5 512,-310.5 588,-310.5 588,-291.5 512,-291.5"/>
<text text-anchor="middle" x="550" y="-298.5" font-family="Helvetica,sans-Serif" font-size="10.00">SalesFloor.h</text>
</a>
</g>
</g>
<!-- Node8&#45;&gt;Node11 -->
<g id="edge11" class="edge">
<title>Node8&#45;&gt;Node11</title>
<path fill="none" stroke="midnightblue" d="M551.67,-347.08C551.41,-340.01 551.03,-329.86 550.7,-320.99"/>
<polygon fill="midnightblue" stroke="midnightblue" points="554.19,-320.61 550.32,-310.75 547.2,-320.87 554.19,-320.61"/>
</g>
<!-- Node8&#45;&gt;Node13 -->
<g id="edge55" class="edge">
<title>Node8&#45;&gt;Node13</title>
<path fill="none" stroke="midnightblue" d="M561.15,-347.22C570.38,-338.28 584.95,-323.93 597,-311 627.5,-278.27 625.19,-258.91 663,-235 713.31,-203.18 738.17,-224.41 792,-199 820.32,-185.63 849.33,-163.8 867.26,-149.17"/>
<polygon fill="midnightblue" stroke="midnightblue" points="869.66,-151.72 875.11,-142.64 865.19,-146.34 869.66,-151.72"/>
</g>
<!-- Node11&#45;&gt;Node4 -->
<g id="edge52" class="edge">
<title>Node11&#45;&gt;Node4</title>
<path fill="none" stroke="midnightblue" d="M515.15,-291.47C433.98,-271.33 237.52,-220.85 216,-199 189.43,-172.02 194.2,-123.44 199.44,-96.78"/>
<polygon fill="midnightblue" stroke="midnightblue" points="202.9,-97.34 201.62,-86.82 196.06,-95.84 202.9,-97.34"/>
</g>
<!-- Node12 -->
<g id="node12" class="node">
<title>Node12</title>
<g id="a_node12"><a xlink:href="Inventory_8h.html" target="_top" xlink:title="Inventory management for plants in greenhouse and sales floor.">
<polygon fill="white" stroke="black" points="435.5,-179.5 435.5,-198.5 506.5,-198.5 506.5,-179.5 435.5,-179.5"/>
<text text-anchor="middle" x="471" y="-186.5" font-family="Helvetica,sans-Serif" font-size="10.00">Inventory.h</text>
</a>
</g>
</g>
<!-- Node11&#45;&gt;Node12 -->
<g id="edge12" class="edge">
<title>Node11&#45;&gt;Node12</title>
<path fill="none" stroke="midnightblue" d="M511.58,-292.67C490.42,-286.45 465.89,-275.18 453,-255 443.68,-240.41 451.13,-220.98 459.09,-207.18"/>
<polygon fill="midnightblue" stroke="midnightblue" points="462.1,-208.97 464.48,-198.65 456.18,-205.23 462.1,-208.97"/>
</g>
<!-- Node26 -->
<g id="node26" class="node">
<title>Node26</title>
<g id="a_node26"><a xlink:title=" ">
<polygon fill="white" stroke="#bfbfbf" points="193.5,-6 193.5,-25 258.5,-25 258.5,-6 193.5,-6"/>
<text text-anchor="middle" x="226" y="-13" font-family="Helvetica,sans-Serif" font-size="10.00">stdexcept</text>
</a>
</g>
</g>
<!-- Node11&#45;&gt;Node26 -->
<g id="edge54" class="edge">
<title>Node11&#45;&gt;Node26</title>
<path fill="none" stroke="midnightblue" d="M511.75,-292.81C508.45,-292.2 505.17,-291.59 502,-291 390.12,-270.24 0,-303.79 0,-190 0,-190 0,-190 0,-132 0,-50.65 117.54,-26.56 183.09,-19.46"/>
<polygon fill="midnightblue" stroke="midnightblue" points="183.53,-22.93 193.14,-18.46 182.84,-15.96 183.53,-22.93"/>
</g>
<!-- Node29 -->
<g id="node29" class="node">
<title>Node29</title>
<g id="a_node29"><a xlink:href="TransactionHistory_8h.html" target="_top" xlink:title="Maintains history of financial transactions.">
<polygon fill="white" stroke="black" points="462.5,-235.5 462.5,-254.5 577.5,-254.5 577.5,-235.5 462.5,-235.5"/>
<text text-anchor="middle" x="520" y="-242.5" font-family="Helvetica,sans-Serif" font-size="10.00">TransactionHistory.h</text>
</a>
</g>
</g>
<!-- Node11&#45;&gt;Node29 -->
<g id="edge40" class="edge">
<title>Node11&#45;&gt;Node29</title>
<path fill="none" stroke="midnightblue" d="M545.05,-291.08C540.9,-283.61 534.85,-272.72 529.73,-263.52"/>
<polygon fill="midnightblue" stroke="midnightblue" points="532.78,-261.79 524.86,-254.75 526.66,-265.19 532.78,-261.79"/>
</g>
<!-- Node31 -->
<g id="node31" class="node">
<title>Node31</title>
<g id="a_node31"><a xlink:href="Ledger_8h.html" target="_top" xlink:title="Financial ledger for tracking game balance.">
<polygon fill="white" stroke="black" points="563,-179.5 563,-198.5 621,-198.5 621,-179.5 563,-179.5"/>
<text text-anchor="middle" x="592" y="-186.5" font-family="Helvetica,sans-Serif" font-size="10.00">Ledger.h</text>
</a>
</g>
</g>
<!-- Node11&#45;&gt;Node31 -->
<g id="edge51" class="edge">
<title>Node11&#45;&gt;Node31</title>
<path fill="none" stroke="midnightblue" d="M559.52,-291.39C568.07,-283.02 580.16,-269.47 586,-255 591.9,-240.37 593.16,-222.43 593.08,-209.1"/>
<polygon fill="midnightblue" stroke="midnightblue" points="596.57,-208.66 592.75,-198.78 589.57,-208.89 596.57,-208.66"/>
</g>
<!-- Node11&#45;&gt;Node32 -->
<g id="edge53" class="edge">
<title>Node11&#45;&gt;Node32</title>
<path fill="none" stroke="midnightblue" d="M573.61,-291.44C598.46,-282.44 637.77,-268.19 665.75,-258.05"/>
<polygon fill="midnightblue" stroke="midnightblue" points="667.29,-261.21 675.5,-254.52 664.91,-254.63 667.29,-261.21"/>
</g>
<!-- Node12&#45;&gt;Node4 -->
<g id="edge38" class="edge">
<title>Node12&#45;&gt;Node4</title>
<path fill="none" stroke="midnightblue" d="M435.39,-179.63C404.52,-171.83 358.95,-159.01 321,-143 302.53,-135.21 255.83,-108.4 227.33,-91.75"/>
<polygon fill="midnightblue" stroke="midnightblue" points="228.82,-88.57 218.43,-86.53 225.28,-94.61 228.82,-88.57"/>
</g>
<!-- Node12&#45;&gt;Node5 -->
<g id="edge39" class="edge">
<title>Node12&#45;&gt;Node5</title>
<path fill="none" stroke="midnightblue" d="M471.24,-179.35C471.21,-166.25 469.63,-140.98 459,-123 442.89,-95.75 395.05,-91.57 415,-67 440.93,-35.07 564.07,-22.61 623.61,-18.39"/>
<polygon fill="midnightblue" stroke="midnightblue" points="623.87,-21.88 633.61,-17.71 623.4,-14.89 623.87,-21.88"/>
</g>
<!-- Node12&#45;&gt;Node13 -->
<g id="edge13" class="edge">
<title>Node12&#45;&gt;Node13</title>
<path fill="none" stroke="midnightblue" d="M506.66,-183.35C585.05,-173.12 771.62,-148.79 849.69,-138.61"/>
<polygon fill="midnightblue" stroke="midnightblue" points="850.5,-142.03 859.97,-137.27 849.6,-135.09 850.5,-142.03"/>
</g>
<!-- Node13&#45;&gt;Node4 -->
<g id="edge16" class="edge">
<title>Node13&#45;&gt;Node4</title>
<path fill="none" stroke="midnightblue" d="M859.96,-130.01C755.83,-121.76 357.08,-90.14 237.86,-80.68"/>
<polygon fill="midnightblue" stroke="midnightblue" points="238.09,-77.19 227.85,-79.89 237.54,-84.17 238.09,-77.19"/>
</g>
<!-- Node13&#45;&gt;Node5 -->
<g id="edge14" class="edge">
<title>Node13&#45;&gt;Node5</title>
<path fill="none" stroke="midnightblue" d="M859.79,-129.85C809.97,-125.1 701.44,-112.09 675,-87 661.09,-73.8 656.99,-51.58 655.95,-35.61"/>
<polygon fill="midnightblue" stroke="midnightblue" points="659.44,-35.2 655.65,-25.31 652.45,-35.41 659.44,-35.2"/>
</g>
<!-- Node13&#45;&gt;Node6 -->
<g id="edge18" class="edge">
<title>Node13&#45;&gt;Node6</title>
<path fill="none" stroke="midnightblue" d="M910.26,-131.59C1019.02,-129.63 1444.03,-119.92 1493,-87 1510.51,-75.23 1519.63,-52.02 1524.11,-35.44"/>
<polygon fill="midnightblue" stroke="midnightblue" points="1527.62,-35.79 1526.52,-25.25 1520.81,-34.18 1527.62,-35.79"/>
</g>
<!-- Node13&#45;&gt;Node9 -->
<g id="edge17" class="edge">
<title>Node13&#45;&gt;Node9</title>
<path fill="none" stroke="midnightblue" d="M910.16,-131.35C996.36,-128.87 1287.67,-118.56 1526,-87 1527.27,-86.83 1528.56,-86.65 1529.86,-86.46"/>
<polygon fill="midnightblue" stroke="midnightblue" points="1530.61,-89.88 1539.91,-84.8 1529.48,-82.97 1530.61,-89.88"/>
</g>
<!-- Node14 -->
<g id="node14" class="node">
<title>Node14</title>
<g id="a_node14"><a xlink:title=" ">
<polygon fill="white" stroke="#bfbfbf" points="424,-67.5 424,-86.5 462,-86.5 462,-67.5 424,-67.5"/>
<text text-anchor="middle" x="443" y="-74.5" font-family="Helvetica,sans-Serif" font-size="10.00">map</text>
</a>
</g>
</g>
<!-- Node13&#45;&gt;Node14 -->
<g id="edge15" class="edge">
<title>Node13&#45;&gt;Node14</title>
<path fill="none" stroke="midnightblue" d="M859.99,-131.05C796.5,-128.26 623.95,-118.36 472.11,-86.83"/>
<polygon fill="midnightblue" stroke="midnightblue" points="472.65,-83.36 462.14,-84.72 471.2,-90.21 472.65,-83.36"/>
</g>
<!-- Node15 -->
<g id="node15" class="node">
<title>Node15</title>
<g id="a_node15"><a xlink:title=" ">
<polygon fill="white" stroke="#bfbfbf" points="1036.5,-67.5 1036.5,-86.5 1149.5,-86.5 1149.5,-67.5 1036.5,-67.5"/>
<text text-anchor="middle" x="1093" y="-74.5" font-family="Helvetica,sans-Serif" font-size="10.00">boost/uuid/uuid.hpp</text>
</a>
</g>
</g>
<!-- Node13&#45;&gt;Node15 -->
<g id="edge19" class="edge">
<title>Node13&#45;&gt;Node15</title>
<path fill="none" stroke="midnightblue" d="M910.09,-125.49C944.8,-116.47 1007.96,-100.08 1050.21,-89.11"/>
<polygon fill="midnightblue" stroke="midnightblue" points="1051.14,-92.48 1059.94,-86.58 1049.38,-85.71 1051.14,-92.48"/>
</g>
<!-- Node16 -->
<g id="node16" class="node">
<title>Node16</title>
<g id="a_node16"><a xlink:title=" ">
<polygon fill="white" stroke="#bfbfbf" points="1168,-67.5 1168,-86.5 1338,-86.5 1338,-67.5 1168,-67.5"/>
<text text-anchor="middle" x="1253" y="-74.5" font-family="Helvetica,sans-Serif" font-size="10.00">boost/uuid/uuid_generators.hpp</text>
</a>
</g>
</g>
<!-- Node13&#45;&gt;Node16 -->
<g id="edge20" class="edge">
<title>Node13&#45;&gt;Node16</title>
<path fill="none" stroke="midnightblue" d="M910,-128.33C965.76,-120.15 1101.85,-100.18 1184.88,-88"/>
<polygon fill="midnightblue" stroke="midnightblue" points="1185.59,-91.43 1194.98,-86.51 1184.57,-84.5 1185.59,-91.43"/>
</g>
<!-- Node17 -->
<g id="node17" class="node">
<title>Node17</title>
<g id="a_node17"><a xlink:title=" ">
<polygon fill="white" stroke="#bfbfbf" points="1356.5,-67.5 1356.5,-86.5 1483.5,-86.5 1483.5,-67.5 1356.5,-67.5"/>
<text text-anchor="middle" x="1420" y="-74.5" font-family="Helvetica,sans-Serif" font-size="10.00">boost/uuid/uuid_io.hpp</text>
</a>
</g>
</g>
<!-- Node13&#45;&gt;Node17 -->
<g id="edge21" class="edge">
<title>Node13&#45;&gt;Node17</title>
<path fill="none" stroke="midnightblue" d="M910.06,-129.79C978.21,-123.72 1172.79,-106.07 1346.23,-87.06"/>
<polygon fill="midnightblue" stroke="midnightblue" points="1346.75,-90.52 1356.31,-85.95 1345.99,-83.56 1346.75,-90.52"/>
</g>
<!-- Node13&#45;&gt;Node18 -->
<g id="edge22" class="edge">
<title>Node13&#45;&gt;Node18</title>
<path fill="none" stroke="midnightblue" d="M859.83,-128.12C806.13,-119.83 678.84,-100.19 600.5,-88.11"/>
<polygon fill="midnightblue" stroke="midnightblue" points="600.67,-84.59 590.25,-86.52 599.6,-91.51 600.67,-84.59"/>
</g>
<!-- Node19 -->
<g id="node19" class="node">
<title>Node19</title>
<g id="a_node19"><a xlink:title=" ">
<polygon fill="white" stroke="#bfbfbf" points="760,-67.5 760,-86.5 808,-86.5 808,-67.5 760,-67.5"/>
<text text-anchor="middle" x="784" y="-74.5" font-family="Helvetica,sans-Serif" font-size="10.00">thread</text>
</a>
</g>
</g>
<!-- Node13&#45;&gt;Node19 -->
<g id="edge23" class="edge">
<title>Node13&#45;&gt;Node19</title>
<path fill="none" stroke="midnightblue" d="M868.77,-123.32C852.65,-114.7 827.7,-101.36 809.04,-91.39"/>
<polygon fill="midnightblue" stroke="midnightblue" points="810.66,-88.28 800.19,-86.65 807.36,-94.46 810.66,-88.28"/>
</g>
<!-- Node20 -->
<g id="node20" class="node">
<title>Node20</title>
<g id="a_node20"><a xlink:title=" ">
<polygon fill="white" stroke="#bfbfbf" points="826,-67.5 826,-86.5 876,-86.5 876,-67.5 826,-67.5"/>
<text text-anchor="middle" x="851" y="-74.5" font-family="Helvetica,sans-Serif" font-size="10.00">atomic</text>
</a>
</g>
</g>
<!-- Node13&#45;&gt;Node20 -->
<g id="edge24" class="edge">
<title>Node13&#45;&gt;Node20</title>
<path fill="none" stroke="midnightblue" d="M879.39,-123.08C874.63,-115.53 867.68,-104.49 861.85,-95.23"/>
<polygon fill="midnightblue" stroke="midnightblue" points="864.8,-93.35 856.51,-86.75 858.88,-97.08 864.8,-93.35"/>
</g>
<!-- Node21 -->
<g id="node21" class="node">
<title>Node21</title>
<g id="a_node21"><a xlink:href="GreenSock_8h.html" target="_top" xlink:title=" ">
<polygon fill="white" stroke="black" points="1736,-67.5 1736,-86.5 1814,-86.5 1814,-67.5 1736,-67.5"/>
<text text-anchor="middle" x="1775" y="-74.5" font-family="Helvetica,sans-Serif" font-size="10.00">GreenSock.h</text>
</a>
</g>
</g>
<!-- Node13&#45;&gt;Node21 -->
<g id="edge25" class="edge">
<title>Node13&#45;&gt;Node21</title>
<path fill="none" stroke="midnightblue" d="M910.2,-130.47C1032,-123.08 1560.48,-91.02 1725.55,-81"/>
<polygon fill="midnightblue" stroke="midnightblue" points="1726.12,-84.47 1735.89,-80.37 1725.7,-77.49 1726.12,-84.47"/>
</g>
<!-- Node24 -->
<g id="node24" class="node">
<title>Node24</title>
<g id="a_node24"><a xlink:title=" ">
<polygon fill="white" stroke="#bfbfbf" points="1860,-6 1860,-25 1908,-25 1908,-6 1860,-6"/>
<text text-anchor="middle" x="1884" y="-13" font-family="Helvetica,sans-Serif" font-size="10.00">mutex</text>
</a>
</g>
</g>
<!-- Node13&#45;&gt;Node24 -->
<g id="edge37" class="edge">
<title>Node13&#45;&gt;Node24</title>
<path fill="none" stroke="midnightblue" d="M910.37,-131.97C1051.73,-131.64 1738.88,-127.92 1823,-87 1846.24,-75.7 1864.22,-51.07 1874.46,-34.13"/>
<polygon fill="midnightblue" stroke="midnightblue" points="1877.64,-35.63 1879.58,-25.21 1871.57,-32.15 1877.64,-35.63"/>
</g>
<!-- Node25 -->
<g id="node25" class="node">
<title>Node25</title>
<g id="a_node25"><a xlink:href="Logger_8h.html" target="_top" xlink:title="Header for Strategy Logger interface.">
<polygon fill="white" stroke="black" points="684,-67.5 684,-86.5 742,-86.5 742,-67.5 684,-67.5"/>
<text text-anchor="middle" x="713" y="-74.5" font-family="Helvetica,sans-Serif" font-size="10.00">Logger.h</text>
</a>
</g>
</g>
<!-- Node13&#45;&gt;Node25 -->
<g id="edge31" class="edge">
<title>Node13&#45;&gt;Node25</title>
<path fill="none" stroke="midnightblue" d="M859.99,-124.15C831.11,-115.08 783.33,-100.08 750.12,-89.65"/>
<polygon fill="midnightblue" stroke="midnightblue" points="750.9,-86.23 740.31,-86.58 748.81,-92.91 750.9,-86.23"/>
</g>
<!-- Node27 -->
<g id="node27" class="node">
<title>Node27</title>
<g id="a_node27"><a xlink:title=" ">
<polygon fill="white" stroke="#bfbfbf" points="894.5,-67.5 894.5,-86.5 941.5,-86.5 941.5,-67.5 894.5,-67.5"/>
<text text-anchor="middle" x="918" y="-74.5" font-family="Helvetica,sans-Serif" font-size="10.00">queue</text>
</a>
</g>
</g>
<!-- Node13&#45;&gt;Node27 -->
<g id="edge35" class="edge">
<title>Node13&#45;&gt;Node27</title>
<path fill="none" stroke="midnightblue" d="M890.45,-123.08C895.01,-115.61 901.67,-104.72 907.29,-95.52"/>
<polygon fill="midnightblue" stroke="midnightblue" points="910.42,-97.11 912.65,-86.75 904.45,-93.46 910.42,-97.11"/>
</g>
<!-- Node28 -->
<g id="node28" class="node">
<title>Node28</title>
<g id="a_node28"><a xlink:title=" ">
<polygon fill="white" stroke="#bfbfbf" points="960,-67.5 960,-86.5 1018,-86.5 1018,-67.5 960,-67.5"/>
<text text-anchor="middle" x="989" y="-74.5" font-family="Helvetica,sans-Serif" font-size="10.00">memory</text>
</a>
</g>
</g>
<!-- Node13&#45;&gt;Node28 -->
<g id="edge36" class="edge">
<title>Node13&#45;&gt;Node28</title>
<path fill="none" stroke="midnightblue" d="M901.71,-123.32C918.31,-114.7 944,-101.36 963.22,-91.39"/>
<polygon fill="midnightblue" stroke="midnightblue" points="965.07,-94.37 972.33,-86.65 961.84,-88.16 965.07,-94.37"/>
</g>
<!-- Node21&#45;&gt;Node5 -->
<g id="edge29" class="edge">
<title>Node21&#45;&gt;Node5</title>
<path fill="none" stroke="midnightblue" d="M1735.78,-73.07C1710.22,-71.21 1676.14,-68.82 1646,-67 1269.97,-44.29 813.19,-23.5 688.67,-17.94"/>
<polygon fill="midnightblue" stroke="midnightblue" points="688.46,-14.43 678.31,-17.48 688.15,-21.42 688.46,-14.43"/>
</g>
<!-- Node21&#45;&gt;Node6 -->
<g id="edge28" class="edge">
<title>Node21&#45;&gt;Node6</title>
<path fill="none" stroke="midnightblue" d="M1735.7,-69.08C1693.77,-61.32 1625.6,-47.62 1568,-31 1565.21,-30.19 1562.32,-29.29 1559.45,-28.34"/>
<polygon fill="midnightblue" stroke="midnightblue" points="1560.43,-24.98 1549.83,-25.01 1558.14,-31.59 1560.43,-24.98"/>
</g>
<!-- Node22 -->
<g id="node22" class="node">
<title>Node22</title>
<g id="a_node22"><a xlink:title=" ">
<polygon fill="white" stroke="#bfbfbf" points="1576.5,-0.5 1576.5,-30.5 1689.5,-30.5 1689.5,-0.5 1576.5,-0.5"/>
<text text-anchor="start" x="1584.5" y="-18.5" font-family="Helvetica,sans-Serif" font-size="10.00">websocketpp/config</text>
<text text-anchor="middle" x="1633" y="-7.5" font-family="Helvetica,sans-Serif" font-size="10.00">/asio_no_tls.hpp</text>
</a>
</g>
</g>
<!-- Node21&#45;&gt;Node22 -->
<g id="edge26" class="edge">
<title>Node21&#45;&gt;Node22</title>
<path fill="none" stroke="midnightblue" d="M1754.65,-67.48C1734.16,-58.89 1701.93,-45.38 1675.79,-34.43"/>
<polygon fill="midnightblue" stroke="midnightblue" points="1677.04,-31.16 1666.47,-30.52 1674.34,-37.62 1677.04,-31.16"/>
</g>
<!-- Node23 -->
<g id="node23" class="node">
<title>Node23</title>
<g id="a_node23"><a xlink:title=" ">
<polygon fill="white" stroke="#bfbfbf" points="1708,-6 1708,-25 1842,-25 1842,-6 1708,-6"/>
<text text-anchor="middle" x="1775" y="-13" font-family="Helvetica,sans-Serif" font-size="10.00">websocketpp/server.hpp</text>
</a>
</g>
</g>
<!-- Node21&#45;&gt;Node23 -->
<g id="edge27" class="edge">
<title>Node21&#45;&gt;Node23</title>
<path fill="none" stroke="midnightblue" d="M1775,-67.48C1775,-59.08 1775,-45.98 1775,-35.16"/>
<polygon fill="midnightblue" stroke="midnightblue" points="1778.5,-35.01 1775,-25.01 1771.5,-35.01 1778.5,-35.01"/>
</g>
<!-- Node21&#45;&gt;Node24 -->
<g id="edge30" class="edge">
<title>Node21&#45;&gt;Node24</title>
<path fill="none" stroke="midnightblue" d="M1790.62,-67.48C1808.59,-57.67 1838.32,-41.43 1859.41,-29.92"/>
<polygon fill="midnightblue" stroke="midnightblue" points="1861.31,-32.87 1868.41,-25.01 1857.96,-26.73 1861.31,-32.87"/>
</g>
<!-- Node25&#45;&gt;Node5 -->
<g id="edge32" class="edge">
<title>Node25&#45;&gt;Node5</title>
<path fill="none" stroke="midnightblue" d="M704.83,-67.48C696.11,-58.37 682.1,-43.74 671.31,-32.48"/>
<polygon fill="midnightblue" stroke="midnightblue" points="673.6,-29.81 664.15,-25.01 668.54,-34.65 673.6,-29.81"/>
</g>
<!-- Node25&#45;&gt;Node6 -->
<g id="edge33" class="edge">
<title>Node25&#45;&gt;Node6</title>
<path fill="none" stroke="midnightblue" d="M742.36,-68.53C745.27,-67.95 748.18,-67.42 751,-67 1030.7,-25.09 1372.19,-17.95 1487.66,-16.74"/>
<polygon fill="midnightblue" stroke="midnightblue" points="1487.84,-20.24 1497.81,-16.65 1487.77,-13.24 1487.84,-20.24"/>
</g>
<!-- Node25&#45;&gt;Node26 -->
<g id="edge34" class="edge">
<title>Node25&#45;&gt;Node26</title>
<path fill="none" stroke="midnightblue" d="M683.99,-72.46C601.61,-62.39 365.89,-33.59 268.69,-21.72"/>
<polygon fill="midnightblue" stroke="midnightblue" points="268.98,-18.23 258.63,-20.49 268.13,-25.17 268.98,-18.23"/>
</g>
<!-- Node29&#45;&gt;Node4 -->
<g id="edge48" class="edge">
<title>Node29&#45;&gt;Node4</title>
<path fill="none" stroke="midnightblue" d="M462.24,-240.98C390.1,-236.18 271.91,-224.58 237,-199 205.19,-175.69 201.87,-124.79 202.65,-97.02"/>
<polygon fill="midnightblue" stroke="midnightblue" points="206.17,-96.84 203.17,-86.67 199.18,-96.49 206.17,-96.84"/>
</g>
<!-- Node29&#45;&gt;Node6 -->
<g id="edge47" class="edge">
<title>Node29&#45;&gt;Node6</title>
<path fill="none" stroke="midnightblue" d="M577.59,-240.08C793.24,-224.82 1544.26,-166.32 1613,-87 1633.2,-63.69 1594.45,-41.84 1562.86,-28.82"/>
<polygon fill="midnightblue" stroke="midnightblue" points="1563.95,-25.48 1553.36,-25.07 1561.38,-31.99 1563.95,-25.48"/>
</g>
<!-- Node29&#45;&gt;Node12 -->
<g id="edge46" class="edge">
<title>Node29&#45;&gt;Node12</title>
<path fill="none" stroke="midnightblue" d="M511.91,-235.08C504.84,-227.3 494.41,-215.8 485.85,-206.37"/>
<polygon fill="midnightblue" stroke="midnightblue" points="488.25,-203.8 478.94,-198.75 483.07,-208.51 488.25,-203.8"/>
</g>
<!-- Node29&#45;&gt;Node18 -->
<g id="edge50" class="edge">
<title>Node29&#45;&gt;Node18</title>
<path fill="none" stroke="midnightblue" d="M520.81,-235.08C523.17,-208.95 530.1,-132.21 533.32,-96.58"/>
<polygon fill="midnightblue" stroke="midnightblue" points="536.81,-96.84 534.23,-86.57 529.84,-96.21 536.81,-96.84"/>
</g>
<!-- Node29&#45;&gt;Node26 -->
<g id="edge49" class="edge">
<title>Node29&#45;&gt;Node26</title>
<path fill="none" stroke="midnightblue" d="M462.26,-242.17C384.95,-238.62 253.18,-228.32 216,-199 167.33,-160.61 146.07,-123.75 171,-67 177.55,-52.1 190.9,-39.67 202.81,-30.87"/>
<polygon fill="midnightblue" stroke="midnightblue" points="204.88,-33.69 211.1,-25.12 200.89,-27.94 204.88,-33.69"/>
</g>
<!-- Node30 -->
<g id="node30" class="node">
<title>Node30</title>
<g id="a_node30"><a xlink:href="TransactionMem_8h.html" target="_top" xlink:title=" ">
<polygon fill="white" stroke="black" points="677,-179.5 677,-198.5 783,-198.5 783,-179.5 677,-179.5"/>
<text text-anchor="middle" x="730" y="-186.5" font-family="Helvetica,sans-Serif" font-size="10.00">TransactionMem.h</text>
</a>
</g>
</g>
<!-- Node29&#45;&gt;Node30 -->
<g id="edge41" class="edge">
<title>Node29&#45;&gt;Node30</title>
<path fill="none" stroke="midnightblue" d="M553.28,-235.44C589.45,-226.14 647.38,-211.25 686.98,-201.06"/>
<polygon fill="midnightblue" stroke="midnightblue" points="688.07,-204.4 696.88,-198.52 686.32,-197.62 688.07,-204.4"/>
</g>
<!-- Node29&#45;&gt;Node31 -->
<g id="edge44" class="edge">
<title>Node29&#45;&gt;Node31</title>
<path fill="none" stroke="midnightblue" d="M531.57,-235.32C542.42,-227.18 558.88,-214.84 571.88,-205.09"/>
<polygon fill="midnightblue" stroke="midnightblue" points="574.32,-207.63 580.22,-198.83 570.12,-202.03 574.32,-207.63"/>
</g>
<!-- Node30&#45;&gt;Node5 -->
<g id="edge43" class="edge">
<title>Node30&#45;&gt;Node5</title>
<path fill="none" stroke="midnightblue" d="M721.14,-179.27C705.21,-162.91 672.17,-125.76 659,-87 653.28,-70.16 653.08,-49.74 653.98,-35.23"/>
<polygon fill="midnightblue" stroke="midnightblue" points="657.49,-35.29 654.86,-25.03 650.52,-34.69 657.49,-35.29"/>
</g>
<!-- Node30&#45;&gt;Node13 -->
<g id="edge42" class="edge">
<title>Node30&#45;&gt;Node13</title>
<path fill="none" stroke="midnightblue" d="M754.56,-179.44C780.52,-170.4 821.67,-156.06 850.8,-145.92"/>
<polygon fill="midnightblue" stroke="midnightblue" points="852.26,-149.11 860.55,-142.52 849.96,-142.5 852.26,-149.11"/>
</g>
<!-- Node31&#45;&gt;Node18 -->
<g id="edge45" class="edge">
<title>Node31&#45;&gt;Node18</title>
<path fill="none" stroke="midnightblue" d="M589.62,-179.26C585.95,-166.46 578.25,-142.07 568,-123 562.68,-113.1 555.4,-102.93 549.03,-94.77"/>
<polygon fill="midnightblue" stroke="midnightblue" points="551.62,-92.4 542.62,-86.81 546.17,-96.79 551.62,-92.4"/>
</g>
<!-- Node33&#45;&gt;Node18 -->
<g id="edge61" class="edge">
<title>Node33&#45;&gt;Node18</title>
<path fill="none" stroke="midnightblue" d="M359.26,-179.44C388.35,-172.32 427.57,-160.51 459,-143 482.55,-129.88 505.49,-108.77 519.89,-94.18"/>
<polygon fill="midnightblue" stroke="midnightblue" points="522.55,-96.47 526.97,-86.84 517.51,-91.61 522.55,-96.47"/>
</g>
<!-- Node34 -->
<g id="node34" class="node">
<title>Node34</title>
<g id="a_node34"><a xlink:title=" ">
<polygon fill="white" stroke="#bfbfbf" points="218.5,-123.5 218.5,-142.5 273.5,-142.5 273.5,-123.5 218.5,-123.5"/>
<text text-anchor="middle" x="246" y="-130.5" font-family="Helvetica,sans-Serif" font-size="10.00">fstream</text>
</a>
</g>
</g>
<!-- Node33&#45;&gt;Node34 -->
<g id="edge60" class="edge">
<title>Node33&#45;&gt;Node34</title>
<path fill="none" stroke="midnightblue" d="M306.43,-179.32C295.58,-171.18 279.12,-158.84 266.12,-149.09"/>
<polygon fill="midnightblue" stroke="midnightblue" points="267.88,-146.03 257.78,-142.83 263.68,-151.63 267.88,-146.03"/>
</g>
<!-- Node35 -->
<g id="node35" class="node">
<title>Node35</title>
<g id="a_node35"><a xlink:href="GameConfiguration_8h.html" target="_top" xlink:title="Interface for obtaining game configuration.">
<polygon fill="white" stroke="black" points="330,-123.5 330,-142.5 450,-142.5 450,-123.5 330,-123.5"/>
<text text-anchor="middle" x="390" y="-130.5" font-family="Helvetica,sans-Serif" font-size="10.00">GameConfiguration.h</text>
</a>
</g>
</g>
<!-- Node33&#45;&gt;Node35 -->
<g id="edge62" class="edge">
<title>Node33&#45;&gt;Node35</title>
<path fill="none" stroke="midnightblue" d="M329.57,-179.32C340.42,-171.18 356.88,-158.84 369.88,-149.09"/>
<polygon fill="midnightblue" stroke="midnightblue" points="372.32,-151.63 378.22,-142.83 368.12,-146.03 372.32,-151.63"/>
</g>
<!-- Node35&#45;&gt;Node4 -->
<g id="edge63" class="edge">
<title>Node35&#45;&gt;Node4</title>
<path fill="none" stroke="midnightblue" d="M360.53,-123.44C327.06,-113.73 272.56,-97.9 237.5,-87.73"/>
<polygon fill="midnightblue" stroke="midnightblue" points="238.31,-84.32 227.73,-84.89 236.36,-91.04 238.31,-84.32"/>
</g>
<!-- Node35&#45;&gt;Node5 -->
<g id="edge64" class="edge">
<title>Node35&#45;&gt;Node5</title>
<path fill="none" stroke="midnightblue" d="M385.28,-123.28C378.6,-109.62 368.61,-83.08 382,-67 412.42,-30.47 557.65,-20.26 623.46,-17.49"/>
<polygon fill="midnightblue" stroke="midnightblue" points="623.82,-20.98 633.68,-17.1 623.55,-13.99 623.82,-20.98"/>
</g>
<!-- Node35&#45;&gt;Node14 -->
<g id="edge66" class="edge">
<title>Node35&#45;&gt;Node14</title>
<path fill="none" stroke="midnightblue" d="M398.75,-123.08C406.47,-115.22 417.9,-103.57 427.22,-94.08"/>
<polygon fill="midnightblue" stroke="midnightblue" points="429.9,-96.34 434.41,-86.75 424.91,-91.44 429.9,-96.34"/>
</g>
<!-- Node35&#45;&gt;Node26 -->
<g id="edge65" class="edge">
<title>Node35&#45;&gt;Node26</title>
<path fill="none" stroke="midnightblue" d="M377.67,-123.32C349.77,-103.67 281.53,-55.61 246.9,-31.22"/>
<polygon fill="midnightblue" stroke="midnightblue" points="248.66,-28.18 238.47,-25.28 244.63,-33.9 248.66,-28.18"/>
</g>
</g>
</svg>
        <g id="navigator" transform="translate(0 0)" fill="#404254">
                <rect fill="#f2f5e9" fill-opacity="0.5" stroke="#606060" stroke-width=".5" x="0" y="0" width="60" height="60"/>
                <use id="zoomplus" xlink:href="#zoomPlus" x="17" y="9" onmousedown="handleZoom(evt,'in')"/>
                <use id="zoomminus" xlink:href="#zoomMin" x="42" y="9" onmousedown="handleZoom(evt,'out')"/>
                <use id="reset" xlink:href="#resetDef" x="30" y="36" onmousedown="handleReset()"/>
                <g id="arrowUp" xlink:href="#dirArrow" transform="translate(30 24)" onmousedown="handlePan(0,-1)">
                  <use xlink:href="#rim" fill="#404040">
                        <set attributeName="fill" to="#808080" begin="arrowUp.mouseover" end="arrowUp.mouseout"/>
                  </use>
                  <path fill="none" stroke="white" stroke-width="1.5" d="M0,-3.0v7 M-2.5,-0.5L0,-3.0L2.5,-0.5"/>
                </g>
                <g id="arrowRight" xlink:href="#dirArrow" transform="rotate(90) translate(36 -43)" onmousedown="handlePan(1,0)">
                  <use xlink:href="#rim" fill="#404040">
                        <set attributeName="fill" to="#808080" begin="arrowRight.mouseover" end="arrowRight.mouseout"/>
                  </use>
                  <path fill="none" stroke="white" stroke-width="1.5" d="M0,-3.0v7 M-2.5,-0.5L0,-3.0L2.5,-0.5"/>
                </g>
                <g id="arrowDown" xlink:href="#dirArrow" transform="rotate(180) translate(-30 -48)" onmousedown="handlePan(0,1)">
                  <use xlink:href="#rim" fill="#404040">
                        <set attributeName="fill" to="#808080" begin="arrowDown.mouseover" end="arrowDown.mouseout"/>
                  </use>
                  <path fill="none" stroke="white" stroke-width="1.5" d="M0,-3.0v7 M-2.5,-0.5L0,-3.0L2.5,-0.5"/>
                </g>
                <g id="arrowLeft" xlink:href="#dirArrow" transform="rotate(270) translate(-36 17)" onmousedown="handlePan(-1,0)">
                  <use xlink:href="#rim" fill="#404040">
                        <set attributeName="fill" to="#808080" begin="arrowLeft.mouseover" end="arrowLeft.mouseout"/>
                  </use>
                  <path fill="none" stroke="white" stroke-width="1.5" d="M0,-3.0v7 M-2.5,-0.5L0,-3.0L2.5,-0.5"/>
                </g>
        </g>
        <svg viewBox="0 0 15 15" width="100%" height="30px" preserveAspectRatio="xMaxYMin meet">
         <g id="arrow_out" transform="scale(0.3 0.3)">
          <a xlink:href="CustomerBuilder_8cpp__incl_org.svg" target="_base">
           <rect id="button" ry="5" rx="5" y="6" x="6" height="38" width="38"
                fill="#f2f5e9" fill-opacity="0.5" stroke="#606060" stroke-width="1.0"/>
           <path id="arrow"
             d="M 11.500037,31.436501 C 11.940474,20.09759 22.043105,11.32322 32.158766,21.979434 L 37.068811,17.246167 C 37.068811,17.246167 37.088388,32 37.088388,32 L 22.160133,31.978069 C 22.160133,31.978069 26.997745,27.140456 26.997745,27.140456 C 18.528582,18.264221 13.291696,25.230495 11.500037,31.436501 z"
             style="fill:#404040;"/>
          </a>
         </g>
        </svg>
</svg>
