<?xml version="1.0" encoding="UTF-8" standalone="no"?>
<!DOCTYPE svg PUBLIC "-//W3C//DTD SVG 1.1//EN"
 "http://www.w3.org/Graphics/SVG/1.1/DTD/svg11.dtd">
<!-- Generated by graphviz version 2.43.0 (0)
 -->
<!-- Title: backend/customer/CustomerBuilder.h Pages: 1 -->
<!--zoomable 498 -->
<svg id="main" version="1.1" xmlns="http://www.w3.org/2000/svg" xmlns:xlink="http://www.w3.org/1999/xlink" xml:space="preserve" onload="init(evt)">
<style type="text/css"><![CDATA[
.edge:hover path { stroke: red; }
.edge:hover polygon { stroke: red; fill: red; }
]]></style>
<script type="text/javascript"><![CDATA[
var edges = document.getElementsByTagName('g');
if (edges && edges.length) {
  for (var i=0;i<edges.length;i++) {
    if (edges[i].id.substr(0,4)=='edge') {
      edges[i].setAttribute('class','edge');
    }
  }
}
]]></script>
        <defs>
                <circle id="rim" cx="0" cy="0" r="7"/>
                <circle id="rim2" cx="0" cy="0" r="3.5"/>
                <g id="zoomPlus">
                        <use xlink:href="#rim" fill="#404040">
                                <set attributeName="fill" to="#808080" begin="zoomplus.mouseover" end="zoomplus.mouseout"/>
                        </use>
                        <path d="M-4,0h8M0,-4v8" fill="none" stroke="white" stroke-width="1.5" pointer-events="none"/>
                </g>
                <g id="zoomMin">
                        <use xlink:href="#rim" fill="#404040">
                                <set attributeName="fill" to="#808080" begin="zoomminus.mouseover" end="zoomminus.mouseout"/>
                        </use>
                        <path d="M-4,0h8" fill="none" stroke="white" stroke-width="1.5" pointer-events="none"/>
                </g>
                <g id="dirArrow">
                        <path fill="none" stroke="white" stroke-width="1.5" d="M0,-3.0v7 M-2.5,-0.5L0,-3.0L2.5,-0.5"/>
                </g>
               <g id="resetDef">
                       <use xlink:href="#rim2" fill="#404040">
                               <set attributeName="fill" to="#808080" begin="reset.mouseover" end="reset.mouseout"/>
                       </use>
               </g>
        </defs>

<script type="text/javascript">
var viewWidth = 1977;
var viewHeight = 498;
var sectionId = 'dynsection-0';
</script>
<script xlink:href="svgpan.js"/>
<svg id="graph" class="graph">
<g id="viewport">
<title>backend/customer/CustomerBuilder.h</title>
<polygon fill="white" stroke="transparent" points="-4,4 -4,-494 1973.1,-494 1973.1,4 -4,4"/>
<!-- Node1 -->
<g id="node1" class="node">
<title>Node1</title>
<g id="a_node1"><a xlink:title="Abstract builder interface for creating Customer objects.">
<polygon fill="#bfbfbf" stroke="black" points="1606.5,-459.5 1606.5,-489.5 1762.5,-489.5 1762.5,-459.5 1606.5,-459.5"/>
<text text-anchor="start" x="1614.5" y="-477.5" font-family="Helvetica,sans-Serif" font-size="10.00">backend/customer/Customer</text>
<text text-anchor="middle" x="1684.5" y="-466.5" font-family="Helvetica,sans-Serif" font-size="10.00">Builder.h</text>
</a>
</g>
</g>
<!-- Node2 -->
<g id="node2" class="node">
<title>Node2</title>
<g id="a_node2"><a xlink:href="Customer_8h.html" target="_top" xlink:title="Abstract base class for all customer types in the plant shop game.">
<polygon fill="white" stroke="black" points="1073.5,-403.5 1073.5,-422.5 1145.5,-422.5 1145.5,-403.5 1073.5,-403.5"/>
<text text-anchor="middle" x="1109.5" y="-410.5" font-family="Helvetica,sans-Serif" font-size="10.00">Customer.h</text>
</a>
</g>
</g>
<!-- Node1&#45;&gt;Node2 -->
<g id="edge1" class="edge">
<title>Node1&#45;&gt;Node2</title>
<path fill="none" stroke="midnightblue" d="M1606.35,-465.41C1484.89,-452.84 1254.52,-429.01 1156.04,-418.82"/>
<polygon fill="midnightblue" stroke="midnightblue" points="1156.12,-415.31 1145.81,-417.76 1155.4,-422.27 1156.12,-415.31"/>
</g>
<!-- Node7 -->
<g id="node7" class="node">
<title>Node7</title>
<g id="a_node7"><a xlink:href="CustomerVisitor_8h_source.html" target="_top" xlink:title=" ">
<polygon fill="white" stroke="black" points="1285.5,-347.5 1285.5,-366.5 1389.5,-366.5 1389.5,-347.5 1285.5,-347.5"/>
<text text-anchor="middle" x="1337.5" y="-354.5" font-family="Helvetica,sans-Serif" font-size="10.00">CustomerVisitor.h</text>
</a>
</g>
</g>
<!-- Node1&#45;&gt;Node7 -->
<g id="edge65" class="edge">
<title>Node1&#45;&gt;Node7</title>
<path fill="none" stroke="midnightblue" d="M1642.3,-459.45C1573.21,-436.46 1437.21,-391.19 1372.86,-369.77"/>
<polygon fill="midnightblue" stroke="midnightblue" points="1373.76,-366.38 1363.16,-366.54 1371.55,-373.02 1373.76,-366.38"/>
</g>
<!-- Node33 -->
<g id="node33" class="node">
<title>Node33</title>
<g id="a_node33"><a xlink:title=" ">
<polygon fill="white" stroke="#bfbfbf" points="1602.5,-235.5 1602.5,-254.5 1656.5,-254.5 1656.5,-235.5 1602.5,-235.5"/>
<text text-anchor="middle" x="1629.5" y="-242.5" font-family="Helvetica,sans-Serif" font-size="10.00">random</text>
</a>
</g>
</g>
<!-- Node1&#45;&gt;Node33 -->
<g id="edge74" class="edge">
<title>Node1&#45;&gt;Node33</title>
<path fill="none" stroke="midnightblue" d="M1681.06,-459.27C1671.52,-419.81 1644.73,-309.02 1634.02,-264.68"/>
<polygon fill="midnightblue" stroke="midnightblue" points="1637.41,-263.82 1631.66,-254.93 1630.61,-265.47 1637.41,-263.82"/>
</g>
<!-- Node34 -->
<g id="node34" class="node">
<title>Node34</title>
<g id="a_node34"><a xlink:href="JSONGameConfiguration_8h.html" target="_top" xlink:title=" ">
<polygon fill="white" stroke="black" points="1750.5,-179.5 1750.5,-198.5 1894.5,-198.5 1894.5,-179.5 1750.5,-179.5"/>
<text text-anchor="middle" x="1822.5" y="-186.5" font-family="Helvetica,sans-Serif" font-size="10.00">JSONGameConfiguration.h</text>
</a>
</g>
</g>
<!-- Node1&#45;&gt;Node34 -->
<g id="edge66" class="edge">
<title>Node1&#45;&gt;Node34</title>
<path fill="none" stroke="midnightblue" d="M1701.75,-459.43C1724.17,-439.44 1760.5,-400.49 1760.5,-358 1760.5,-358 1760.5,-358 1760.5,-300 1760.5,-262.62 1788,-226.24 1806.37,-206.1"/>
<polygon fill="midnightblue" stroke="midnightblue" points="1809.01,-208.41 1813.35,-198.75 1803.93,-203.59 1809.01,-208.41"/>
</g>
<!-- Node37 -->
<g id="node37" class="node">
<title>Node37</title>
<g id="a_node37"><a xlink:title=" ">
<polygon fill="white" stroke="#bfbfbf" points="1788.5,-403.5 1788.5,-422.5 1838.5,-422.5 1838.5,-403.5 1788.5,-403.5"/>
<text text-anchor="middle" x="1813.5" y="-410.5" font-family="Helvetica,sans-Serif" font-size="10.00">chrono</text>
</a>
</g>
</g>
<!-- Node1&#45;&gt;Node37 -->
<g id="edge75" class="edge">
<title>Node1&#45;&gt;Node37</title>
<path fill="none" stroke="midnightblue" d="M1715.07,-459.4C1736.43,-449.55 1764.72,-436.5 1785.48,-426.92"/>
<polygon fill="midnightblue" stroke="midnightblue" points="1787.11,-430.02 1794.73,-422.66 1784.18,-423.67 1787.11,-430.02"/>
</g>
<!-- Node3 -->
<g id="node3" class="node">
<title>Node3</title>
<g id="a_node3"><a xlink:title=" ">
<polygon fill="white" stroke="#bfbfbf" points="1623,-67.5 1623,-86.5 1670,-86.5 1670,-67.5 1623,-67.5"/>
<text text-anchor="middle" x="1646.5" y="-74.5" font-family="Helvetica,sans-Serif" font-size="10.00">vector</text>
</a>
</g>
</g>
<!-- Node2&#45;&gt;Node3 -->
<g id="edge2" class="edge">
<title>Node2&#45;&gt;Node3</title>
<path fill="none" stroke="midnightblue" d="M1145.56,-410.08C1276.96,-402.14 1722.5,-366.32 1722.5,-246 1722.5,-246 1722.5,-246 1722.5,-188 1722.5,-148.28 1688.54,-112.5 1666.02,-93.15"/>
<polygon fill="midnightblue" stroke="midnightblue" points="1667.98,-90.24 1658.04,-86.57 1663.52,-95.63 1667.98,-90.24"/>
</g>
<!-- Node4 -->
<g id="node4" class="node">
<title>Node4</title>
<g id="a_node4"><a xlink:title=" ">
<polygon fill="white" stroke="#bfbfbf" points="1199.5,-6 1199.5,-25 1243.5,-25 1243.5,-6 1199.5,-6"/>
<text text-anchor="middle" x="1221.5" y="-13" font-family="Helvetica,sans-Serif" font-size="10.00">string</text>
</a>
</g>
</g>
<!-- Node2&#45;&gt;Node4 -->
<g id="edge3" class="edge">
<title>Node2&#45;&gt;Node4</title>
<path fill="none" stroke="midnightblue" d="M1106.94,-403.25C1101.75,-384.74 1090.5,-340.18 1090.5,-302 1090.5,-302 1090.5,-302 1090.5,-244 1090.5,-137.51 1227.29,-183.88 1271.5,-87 1281.08,-66 1261.1,-44.78 1243.62,-31.19"/>
<polygon fill="midnightblue" stroke="midnightblue" points="1245.51,-28.24 1235.38,-25.17 1241.38,-33.89 1245.51,-28.24"/>
</g>
<!-- Node5 -->
<g id="node5" class="node">
<title>Node5</title>
<g id="a_node5"><a xlink:title=" ">
<polygon fill="white" stroke="#bfbfbf" points="391.5,-6 391.5,-25 451.5,-25 451.5,-6 391.5,-6"/>
<text text-anchor="middle" x="421.5" y="-13" font-family="Helvetica,sans-Serif" font-size="10.00">iostream</text>
</a>
</g>
</g>
<!-- Node2&#45;&gt;Node5 -->
<g id="edge4" class="edge">
<title>Node2&#45;&gt;Node5</title>
<path fill="none" stroke="midnightblue" d="M1073.35,-410.93C916.71,-405.8 304.5,-380.73 304.5,-302 304.5,-302 304.5,-302 304.5,-132 304.5,-82.69 357.78,-47.33 392.43,-29.55"/>
<polygon fill="midnightblue" stroke="midnightblue" points="394.23,-32.57 401.65,-25.01 391.14,-26.29 394.23,-32.57"/>
</g>
<!-- Node6 -->
<g id="node6" class="node">
<title>Node6</title>
<g id="a_node6"><a xlink:title=" ">
<polygon fill="white" stroke="#bfbfbf" points="220.5,-347.5 220.5,-366.5 276.5,-366.5 276.5,-347.5 220.5,-347.5"/>
<text text-anchor="middle" x="248.5" y="-354.5" font-family="Helvetica,sans-Serif" font-size="10.00">sstream</text>
</a>
</g>
</g>
<!-- Node2&#45;&gt;Node6 -->
<g id="edge5" class="edge">
<title>Node2&#45;&gt;Node6</title>
<path fill="none" stroke="midnightblue" d="M1073.39,-412.02C958.47,-411.66 591.14,-407.22 290.5,-367 289.25,-366.83 287.99,-366.65 286.71,-366.45"/>
<polygon fill="midnightblue" stroke="midnightblue" points="287.32,-363 276.86,-364.71 286.1,-369.9 287.32,-363"/>
</g>
<!-- Node2&#45;&gt;Node7 -->
<g id="edge6" class="edge">
<title>Node2&#45;&gt;Node7</title>
<path fill="none" stroke="midnightblue" d="M1145.63,-403.44C1185.15,-394.08 1248.6,-379.06 1291.61,-368.87"/>
<polygon fill="midnightblue" stroke="midnightblue" points="1292.62,-372.23 1301.54,-366.52 1291,-365.42 1292.62,-372.23"/>
</g>
<!-- Node12 -->
<g id="node12" class="node">
<title>Node12</title>
<g id="a_node12"><a xlink:href="Plant_8h.html" target="_top" xlink:title="Defines the abstract base class for all Plant objects used in the system.">
<polygon fill="white" stroke="black" points="977.5,-123.5 977.5,-142.5 1027.5,-142.5 1027.5,-123.5 977.5,-123.5"/>
<text text-anchor="middle" x="1002.5" y="-130.5" font-family="Helvetica,sans-Serif" font-size="10.00">Plant.h</text>
</a>
</g>
</g>
<!-- Node2&#45;&gt;Node12 -->
<g id="edge63" class="edge">
<title>Node2&#45;&gt;Node12</title>
<path fill="none" stroke="midnightblue" d="M1096.69,-403.39C1073.62,-386.74 1027.5,-347.73 1027.5,-302 1027.5,-302 1027.5,-302 1027.5,-244 1027.5,-211 1016.67,-173.77 1009.26,-152.19"/>
<polygon fill="midnightblue" stroke="midnightblue" points="1012.53,-150.93 1005.87,-142.69 1005.93,-153.28 1012.53,-150.93"/>
</g>
<!-- Node17 -->
<g id="node17" class="node">
<title>Node17</title>
<g id="a_node17"><a xlink:title=" ">
<polygon fill="white" stroke="#bfbfbf" points="1318.5,-67.5 1318.5,-86.5 1428.5,-86.5 1428.5,-67.5 1318.5,-67.5"/>
<text text-anchor="middle" x="1373.5" y="-74.5" font-family="Helvetica,sans-Serif" font-size="10.00">nlohmann/json.hpp</text>
</a>
</g>
</g>
<!-- Node2&#45;&gt;Node17 -->
<g id="edge64" class="edge">
<title>Node2&#45;&gt;Node17</title>
<path fill="none" stroke="midnightblue" d="M1112.07,-403.05C1121.89,-370.11 1159.69,-253.61 1223.5,-179 1258.04,-138.61 1312.5,-107.47 1345.42,-91.01"/>
<polygon fill="midnightblue" stroke="midnightblue" points="1347.05,-94.11 1354.5,-86.57 1343.98,-87.82 1347.05,-94.11"/>
</g>
<!-- Node7&#45;&gt;Node3 -->
<g id="edge7" class="edge">
<title>Node7&#45;&gt;Node3</title>
<path fill="none" stroke="midnightblue" d="M1389.62,-348.18C1474.35,-334.22 1635.57,-301.99 1665.5,-255 1697.55,-204.68 1670.46,-129.61 1655.2,-95.73"/>
<polygon fill="midnightblue" stroke="midnightblue" points="1658.34,-94.17 1650.92,-86.6 1652,-97.14 1658.34,-94.17"/>
</g>
<!-- Node8 -->
<g id="node8" class="node">
<title>Node8</title>
<g id="a_node8"><a xlink:title=" ">
<polygon fill="white" stroke="#bfbfbf" points="1198.5,-67.5 1198.5,-86.5 1262.5,-86.5 1262.5,-67.5 1198.5,-67.5"/>
<text text-anchor="middle" x="1230.5" y="-74.5" font-family="Helvetica,sans-Serif" font-size="10.00">algorithm</text>
</a>
</g>
</g>
<!-- Node7&#45;&gt;Node8 -->
<g id="edge8" class="edge">
<title>Node7&#45;&gt;Node8</title>
<path fill="none" stroke="midnightblue" d="M1327.85,-347.31C1304.25,-325.33 1244.08,-264.56 1223.5,-199 1212.56,-164.16 1219.67,-120.96 1225.38,-96.74"/>
<polygon fill="midnightblue" stroke="midnightblue" points="1228.85,-97.32 1227.92,-86.77 1222.06,-95.6 1228.85,-97.32"/>
</g>
<!-- Node9 -->
<g id="node9" class="node">
<title>Node9</title>
<g id="a_node9"><a xlink:title=" ">
<polygon fill="white" stroke="#bfbfbf" points="1311,-291.5 1311,-310.5 1364,-310.5 1364,-291.5 1311,-291.5"/>
<text text-anchor="middle" x="1337.5" y="-298.5" font-family="Helvetica,sans-Serif" font-size="10.00">cstddef</text>
</a>
</g>
</g>
<!-- Node7&#45;&gt;Node9 -->
<g id="edge9" class="edge">
<title>Node7&#45;&gt;Node9</title>
<path fill="none" stroke="midnightblue" d="M1337.5,-347.08C1337.5,-340.01 1337.5,-329.86 1337.5,-320.99"/>
<polygon fill="midnightblue" stroke="midnightblue" points="1341,-320.75 1337.5,-310.75 1334,-320.75 1341,-320.75"/>
</g>
<!-- Node10 -->
<g id="node10" class="node">
<title>Node10</title>
<g id="a_node10"><a xlink:href="SalesFloor_8h.html" target="_top" xlink:title=" ">
<polygon fill="white" stroke="black" points="1460.5,-291.5 1460.5,-310.5 1536.5,-310.5 1536.5,-291.5 1460.5,-291.5"/>
<text text-anchor="middle" x="1498.5" y="-298.5" font-family="Helvetica,sans-Serif" font-size="10.00">SalesFloor.h</text>
</a>
</g>
</g>
<!-- Node7&#45;&gt;Node10 -->
<g id="edge10" class="edge">
<title>Node7&#45;&gt;Node10</title>
<path fill="none" stroke="midnightblue" d="M1363.01,-347.44C1390.1,-338.36 1433.09,-323.94 1463.37,-313.78"/>
<polygon fill="midnightblue" stroke="midnightblue" points="1464.74,-317.01 1473.11,-310.52 1462.51,-310.38 1464.74,-317.01"/>
</g>
<!-- Node7&#45;&gt;Node12 -->
<g id="edge62" class="edge">
<title>Node7&#45;&gt;Node12</title>
<path fill="none" stroke="midnightblue" d="M1290.91,-347.47C1260.83,-340.62 1221.66,-329.1 1190.5,-311 1151.05,-288.09 1055.5,-189.74 1017.99,-150.38"/>
<polygon fill="midnightblue" stroke="midnightblue" points="1020.33,-147.76 1010.9,-142.92 1015.25,-152.58 1020.33,-147.76"/>
</g>
<!-- Node10&#45;&gt;Node3 -->
<g id="edge59" class="edge">
<title>Node10&#45;&gt;Node3</title>
<path fill="none" stroke="midnightblue" d="M1506.05,-291.09C1517.28,-278.08 1539.33,-253.44 1560.5,-235 1581.15,-217.02 1593.7,-220.62 1610.5,-199 1634.29,-168.38 1642.39,-122.3 1645.13,-96.75"/>
<polygon fill="midnightblue" stroke="midnightblue" points="1648.63,-96.85 1646.04,-86.58 1641.66,-96.22 1648.63,-96.85"/>
</g>
<!-- Node11 -->
<g id="node11" class="node">
<title>Node11</title>
<g id="a_node11"><a xlink:href="Inventory_8h_source.html" target="_top" xlink:title=" ">
<polygon fill="white" stroke="black" points="1509,-179.5 1509,-198.5 1580,-198.5 1580,-179.5 1509,-179.5"/>
<text text-anchor="middle" x="1544.5" y="-186.5" font-family="Helvetica,sans-Serif" font-size="10.00">Inventory.h</text>
</a>
</g>
</g>
<!-- Node10&#45;&gt;Node11 -->
<g id="edge11" class="edge">
<title>Node10&#45;&gt;Node11</title>
<path fill="none" stroke="midnightblue" d="M1501.34,-291.48C1505.58,-278.96 1513.98,-254.91 1522.5,-235 1526.44,-225.79 1531.29,-215.76 1535.43,-207.51"/>
<polygon fill="midnightblue" stroke="midnightblue" points="1538.59,-209.01 1540.02,-198.51 1532.36,-205.82 1538.59,-209.01"/>
</g>
<!-- Node25 -->
<g id="node25" class="node">
<title>Node25</title>
<g id="a_node25"><a xlink:title=" ">
<polygon fill="white" stroke="#bfbfbf" points="1877,-6 1877,-25 1942,-25 1942,-6 1877,-6"/>
<text text-anchor="middle" x="1909.5" y="-13" font-family="Helvetica,sans-Serif" font-size="10.00">stdexcept</text>
</a>
</g>
</g>
<!-- Node10&#45;&gt;Node25 -->
<g id="edge61" class="edge">
<title>Node10&#45;&gt;Node25</title>
<path fill="none" stroke="midnightblue" d="M1510.55,-291.26C1534.02,-274.32 1584.36,-238.37 1593.5,-235 1735.68,-182.63 1804.05,-279.35 1932.5,-199 1964.03,-179.28 1972.35,-159.87 1967.5,-123 1964.14,-97.45 1964.48,-89.81 1952.5,-67 1945.79,-54.23 1935.35,-41.86 1926.44,-32.56"/>
<polygon fill="midnightblue" stroke="midnightblue" points="1928.67,-29.85 1919.13,-25.25 1923.72,-34.79 1928.67,-29.85"/>
</g>
<!-- Node30 -->
<g id="node30" class="node">
<title>Node30</title>
<g id="a_node30"><a xlink:href="TransactionHistory_8h.html" target="_top" xlink:title=" ">
<polygon fill="white" stroke="black" points="1355,-235.5 1355,-254.5 1470,-254.5 1470,-235.5 1355,-235.5"/>
<text text-anchor="middle" x="1412.5" y="-242.5" font-family="Helvetica,sans-Serif" font-size="10.00">TransactionHistory.h</text>
</a>
</g>
</g>
<!-- Node10&#45;&gt;Node30 -->
<g id="edge47" class="edge">
<title>Node10&#45;&gt;Node30</title>
<path fill="none" stroke="midnightblue" d="M1484.68,-291.32C1471.27,-282.9 1450.68,-269.97 1434.91,-260.07"/>
<polygon fill="midnightblue" stroke="midnightblue" points="1436.61,-257.01 1426.28,-254.65 1432.89,-262.94 1436.61,-257.01"/>
</g>
<!-- Node32 -->
<g id="node32" class="node">
<title>Node32</title>
<g id="a_node32"><a xlink:href="Ledger_8h_source.html" target="_top" xlink:title=" ">
<polygon fill="white" stroke="black" points="1232.5,-179.5 1232.5,-198.5 1290.5,-198.5 1290.5,-179.5 1232.5,-179.5"/>
<text text-anchor="middle" x="1261.5" y="-186.5" font-family="Helvetica,sans-Serif" font-size="10.00">Ledger.h</text>
</a>
</g>
</g>
<!-- Node10&#45;&gt;Node32 -->
<g id="edge58" class="edge">
<title>Node10&#45;&gt;Node32</title>
<path fill="none" stroke="midnightblue" d="M1460.23,-292.89C1428.35,-286.02 1382.36,-273.83 1345.5,-255 1319.77,-241.86 1294.07,-220.45 1278,-205.82"/>
<polygon fill="midnightblue" stroke="midnightblue" points="1280.23,-203.12 1270.53,-198.87 1275.46,-208.24 1280.23,-203.12"/>
</g>
<!-- Node10&#45;&gt;Node33 -->
<g id="edge60" class="edge">
<title>Node10&#45;&gt;Node33</title>
<path fill="none" stroke="midnightblue" d="M1519.26,-291.44C1540.82,-282.56 1574.76,-268.56 1599.29,-258.45"/>
<polygon fill="midnightblue" stroke="midnightblue" points="1600.93,-261.56 1608.84,-254.52 1598.26,-255.09 1600.93,-261.56"/>
</g>
<!-- Node11&#45;&gt;Node3 -->
<g id="edge45" class="edge">
<title>Node11&#45;&gt;Node3</title>
<path fill="none" stroke="midnightblue" d="M1550.45,-179.14C1559.34,-166.2 1576.91,-141.64 1594.5,-123 1604.62,-112.28 1617.07,-101.44 1627.25,-93.08"/>
<polygon fill="midnightblue" stroke="midnightblue" points="1629.57,-95.7 1635.17,-86.7 1625.18,-90.25 1629.57,-95.7"/>
</g>
<!-- Node11&#45;&gt;Node4 -->
<g id="edge46" class="edge">
<title>Node11&#45;&gt;Node4</title>
<path fill="none" stroke="midnightblue" d="M1546.7,-179.25C1551.7,-157.12 1561.28,-98.45 1531.5,-67 1493.96,-27.36 1325.51,-18.84 1253.89,-17"/>
<polygon fill="midnightblue" stroke="midnightblue" points="1253.73,-13.5 1243.66,-16.77 1253.58,-20.5 1253.73,-13.5"/>
</g>
<!-- Node11&#45;&gt;Node12 -->
<g id="edge12" class="edge">
<title>Node11&#45;&gt;Node12</title>
<path fill="none" stroke="midnightblue" d="M1508.7,-180.48C1505.59,-179.94 1502.5,-179.43 1499.5,-179 1327.38,-154.07 1119.6,-140.57 1037.92,-135.9"/>
<polygon fill="midnightblue" stroke="midnightblue" points="1037.87,-132.39 1027.69,-135.32 1037.48,-139.38 1037.87,-132.39"/>
</g>
<!-- Node12&#45;&gt;Node3 -->
<g id="edge15" class="edge">
<title>Node12&#45;&gt;Node3</title>
<path fill="none" stroke="midnightblue" d="M1027.75,-129.88C1128,-121.48 1498.08,-90.44 1612.54,-80.85"/>
<polygon fill="midnightblue" stroke="midnightblue" points="1613.13,-84.31 1622.8,-79.99 1612.54,-77.33 1613.13,-84.31"/>
</g>
<!-- Node12&#45;&gt;Node4 -->
<g id="edge13" class="edge">
<title>Node12&#45;&gt;Node4</title>
<path fill="none" stroke="midnightblue" d="M1016.28,-123.37C1037.04,-110.5 1077.71,-85.79 1113.5,-67 1139.72,-53.23 1170.37,-39.08 1192.31,-29.27"/>
<polygon fill="midnightblue" stroke="midnightblue" points="1194.01,-32.35 1201.72,-25.09 1191.16,-25.95 1194.01,-32.35"/>
</g>
<!-- Node12&#45;&gt;Node5 -->
<g id="edge17" class="edge">
<title>Node12&#45;&gt;Node5</title>
<path fill="none" stroke="midnightblue" d="M977.43,-131.72C873.36,-130.34 478.79,-122.75 437.5,-87 422.99,-74.44 420.11,-51.74 420.14,-35.49"/>
<polygon fill="midnightblue" stroke="midnightblue" points="423.65,-35.16 420.55,-25.03 416.66,-34.88 423.65,-35.16"/>
</g>
<!-- Node12&#45;&gt;Node8 -->
<g id="edge16" class="edge">
<title>Node12&#45;&gt;Node8</title>
<path fill="none" stroke="midnightblue" d="M1027.77,-126.01C1066.55,-116.83 1141.17,-99.16 1188.26,-88"/>
<polygon fill="midnightblue" stroke="midnightblue" points="1189.24,-91.37 1198.16,-85.66 1187.62,-84.56 1189.24,-91.37"/>
</g>
<!-- Node13 -->
<g id="node13" class="node">
<title>Node13</title>
<g id="a_node13"><a xlink:title=" ">
<polygon fill="white" stroke="#bfbfbf" points="1484.5,-67.5 1484.5,-86.5 1522.5,-86.5 1522.5,-67.5 1484.5,-67.5"/>
<text text-anchor="middle" x="1503.5" y="-74.5" font-family="Helvetica,sans-Serif" font-size="10.00">map</text>
</a>
</g>
</g>
<!-- Node12&#45;&gt;Node13 -->
<g id="edge14" class="edge">
<title>Node12&#45;&gt;Node13</title>
<path fill="none" stroke="midnightblue" d="M1027.54,-129.7C1094.26,-123.5 1281.83,-105.66 1437.5,-87 1449.63,-85.55 1462.99,-83.76 1474.5,-82.16"/>
<polygon fill="midnightblue" stroke="midnightblue" points="1475.04,-85.62 1484.46,-80.76 1474.07,-78.69 1475.04,-85.62"/>
</g>
<!-- Node14 -->
<g id="node14" class="node">
<title>Node14</title>
<g id="a_node14"><a xlink:title=" ">
<polygon fill="white" stroke="#bfbfbf" points="619,-67.5 619,-86.5 732,-86.5 732,-67.5 619,-67.5"/>
<text text-anchor="middle" x="675.5" y="-74.5" font-family="Helvetica,sans-Serif" font-size="10.00">boost/uuid/uuid.hpp</text>
</a>
</g>
</g>
<!-- Node12&#45;&gt;Node14 -->
<g id="edge18" class="edge">
<title>Node12&#45;&gt;Node14</title>
<path fill="none" stroke="midnightblue" d="M977.38,-127.85C926.39,-119.43 809.44,-100.12 736.99,-88.15"/>
<polygon fill="midnightblue" stroke="midnightblue" points="737.51,-84.69 727.07,-86.52 736.37,-91.6 737.51,-84.69"/>
</g>
<!-- Node15 -->
<g id="node15" class="node">
<title>Node15</title>
<g id="a_node15"><a xlink:title=" ">
<polygon fill="white" stroke="#bfbfbf" points="750.5,-67.5 750.5,-86.5 920.5,-86.5 920.5,-67.5 750.5,-67.5"/>
<text text-anchor="middle" x="835.5" y="-74.5" font-family="Helvetica,sans-Serif" font-size="10.00">boost/uuid/uuid_generators.hpp</text>
</a>
</g>
</g>
<!-- Node12&#45;&gt;Node15 -->
<g id="edge19" class="edge">
<title>Node12&#45;&gt;Node15</title>
<path fill="none" stroke="midnightblue" d="M977.5,-123.92C949.5,-114.86 903.87,-100.11 871.91,-89.77"/>
<polygon fill="midnightblue" stroke="midnightblue" points="872.65,-86.33 862.05,-86.59 870.49,-92.99 872.65,-86.33"/>
</g>
<!-- Node16 -->
<g id="node16" class="node">
<title>Node16</title>
<g id="a_node16"><a xlink:title=" ">
<polygon fill="white" stroke="#bfbfbf" points="939,-67.5 939,-86.5 1066,-86.5 1066,-67.5 939,-67.5"/>
<text text-anchor="middle" x="1002.5" y="-74.5" font-family="Helvetica,sans-Serif" font-size="10.00">boost/uuid/uuid_io.hpp</text>
</a>
</g>
</g>
<!-- Node12&#45;&gt;Node16 -->
<g id="edge20" class="edge">
<title>Node12&#45;&gt;Node16</title>
<path fill="none" stroke="midnightblue" d="M1002.5,-123.08C1002.5,-116.01 1002.5,-105.86 1002.5,-96.99"/>
<polygon fill="midnightblue" stroke="midnightblue" points="1006,-96.75 1002.5,-86.75 999,-96.75 1006,-96.75"/>
</g>
<!-- Node12&#45;&gt;Node17 -->
<g id="edge21" class="edge">
<title>Node12&#45;&gt;Node17</title>
<path fill="none" stroke="midnightblue" d="M1027.71,-128.33C1084.7,-120.04 1224.96,-99.62 1308.29,-87.49"/>
<polygon fill="midnightblue" stroke="midnightblue" points="1309.01,-90.92 1318.41,-86.02 1308.01,-84 1309.01,-90.92"/>
</g>
<!-- Node18 -->
<g id="node18" class="node">
<title>Node18</title>
<g id="a_node18"><a xlink:title=" ">
<polygon fill="white" stroke="#bfbfbf" points="65.5,-6 65.5,-25 113.5,-25 113.5,-6 65.5,-6"/>
<text text-anchor="middle" x="89.5" y="-13" font-family="Helvetica,sans-Serif" font-size="10.00">thread</text>
</a>
</g>
</g>
<!-- Node12&#45;&gt;Node18 -->
<g id="edge22" class="edge">
<title>Node12&#45;&gt;Node18</title>
<path fill="none" stroke="midnightblue" d="M977.43,-131.96C843.63,-131.56 216.79,-127.52 141.5,-87 120.32,-75.6 105.46,-51.37 97.2,-34.52"/>
<polygon fill="midnightblue" stroke="midnightblue" points="100.26,-32.8 92.91,-25.16 93.89,-35.71 100.26,-32.8"/>
</g>
<!-- Node19 -->
<g id="node19" class="node">
<title>Node19</title>
<g id="a_node19"><a xlink:title=" ">
<polygon fill="white" stroke="#bfbfbf" points="131.5,-6 131.5,-25 181.5,-25 181.5,-6 131.5,-6"/>
<text text-anchor="middle" x="156.5" y="-13" font-family="Helvetica,sans-Serif" font-size="10.00">atomic</text>
</a>
</g>
</g>
<!-- Node12&#45;&gt;Node19 -->
<g id="edge23" class="edge">
<title>Node12&#45;&gt;Node19</title>
<path fill="none" stroke="midnightblue" d="M977.13,-131.63C838.99,-129.48 182.57,-117.66 153.5,-87 140.62,-73.42 144.18,-50.95 149.15,-35.03"/>
<polygon fill="midnightblue" stroke="midnightblue" points="152.57,-35.84 152.62,-25.24 145.98,-33.49 152.57,-35.84"/>
</g>
<!-- Node20 -->
<g id="node20" class="node">
<title>Node20</title>
<g id="a_node20"><a xlink:href="GreenSock_8h.html" target="_top" xlink:title=" ">
<polygon fill="white" stroke="black" points="522.5,-67.5 522.5,-86.5 600.5,-86.5 600.5,-67.5 522.5,-67.5"/>
<text text-anchor="middle" x="561.5" y="-74.5" font-family="Helvetica,sans-Serif" font-size="10.00">GreenSock.h</text>
</a>
</g>
</g>
<!-- Node12&#45;&gt;Node20 -->
<g id="edge24" class="edge">
<title>Node12&#45;&gt;Node20</title>
<path fill="none" stroke="midnightblue" d="M977.13,-129.73C915.92,-124.11 755.13,-108.56 610.68,-87.09"/>
<polygon fill="midnightblue" stroke="midnightblue" points="611.16,-83.62 600.75,-85.6 610.12,-90.54 611.16,-83.62"/>
</g>
<!-- Node23 -->
<g id="node23" class="node">
<title>Node23</title>
<g id="a_node23"><a xlink:title=" ">
<polygon fill="white" stroke="#bfbfbf" points="325.5,-6 325.5,-25 373.5,-25 373.5,-6 325.5,-6"/>
<text text-anchor="middle" x="349.5" y="-13" font-family="Helvetica,sans-Serif" font-size="10.00">mutex</text>
</a>
</g>
</g>
<!-- Node12&#45;&gt;Node23 -->
<g id="edge44" class="edge">
<title>Node12&#45;&gt;Node23</title>
<path fill="none" stroke="midnightblue" d="M977.27,-132.31C879.08,-133.17 522.84,-133 421.5,-87 395.83,-75.35 373.94,-50.43 361.25,-33.56"/>
<polygon fill="midnightblue" stroke="midnightblue" points="363.88,-31.21 355.18,-25.16 358.2,-35.31 363.88,-31.21"/>
</g>
<!-- Node24 -->
<g id="node24" class="node">
<title>Node24</title>
<g id="a_node24"><a xlink:href="Logger_8h.html" target="_top" xlink:title="Header for Strategy Logger.">
<polygon fill="white" stroke="black" points="1122.5,-67.5 1122.5,-86.5 1180.5,-86.5 1180.5,-67.5 1122.5,-67.5"/>
<text text-anchor="middle" x="1151.5" y="-74.5" font-family="Helvetica,sans-Serif" font-size="10.00">Logger.h</text>
</a>
</g>
</g>
<!-- Node12&#45;&gt;Node24 -->
<g id="edge30" class="edge">
<title>Node12&#45;&gt;Node24</title>
<path fill="none" stroke="midnightblue" d="M1026.11,-123.44C1050.96,-114.44 1090.27,-100.19 1118.25,-90.05"/>
<polygon fill="midnightblue" stroke="midnightblue" points="1119.79,-93.21 1128,-86.52 1117.41,-86.63 1119.79,-93.21"/>
</g>
<!-- Node26 -->
<g id="node26" class="node">
<title>Node26</title>
<g id="a_node26"><a xlink:href="ThreadSafeQueue_8h_source.html" target="_top" xlink:title=" ">
<polygon fill="white" stroke="black" points="163,-67.5 163,-86.5 276,-86.5 276,-67.5 163,-67.5"/>
<text text-anchor="middle" x="219.5" y="-74.5" font-family="Helvetica,sans-Serif" font-size="10.00">ThreadSafeQueue.h</text>
</a>
</g>
</g>
<!-- Node12&#45;&gt;Node26 -->
<g id="edge34" class="edge">
<title>Node12&#45;&gt;Node26</title>
<path fill="none" stroke="midnightblue" d="M977.4,-130.47C888.69,-125.02 581.69,-105.9 328.5,-87 314.79,-85.98 300.11,-84.81 286.11,-83.67"/>
<polygon fill="midnightblue" stroke="midnightblue" points="286.31,-80.17 276.06,-82.84 285.74,-87.15 286.31,-80.17"/>
</g>
<!-- Node27 -->
<g id="node27" class="node">
<title>Node27</title>
<g id="a_node27"><a xlink:title=" ">
<polygon fill="white" stroke="#bfbfbf" points="0,-6 0,-25 47,-25 47,-6 0,-6"/>
<text text-anchor="middle" x="23.5" y="-13" font-family="Helvetica,sans-Serif" font-size="10.00">queue</text>
</a>
</g>
</g>
<!-- Node12&#45;&gt;Node27 -->
<g id="edge42" class="edge">
<title>Node12&#45;&gt;Node27</title>
<path fill="none" stroke="midnightblue" d="M977.27,-131.62C841.14,-129.46 197.28,-117.67 114.5,-87 83.58,-75.54 54.71,-49.57 38.1,-32.55"/>
<polygon fill="midnightblue" stroke="midnightblue" points="40.39,-29.87 30.97,-25.02 35.3,-34.68 40.39,-29.87"/>
</g>
<!-- Node29 -->
<g id="node29" class="node">
<title>Node29</title>
<g id="a_node29"><a xlink:title=" ">
<polygon fill="white" stroke="#bfbfbf" points="446.5,-67.5 446.5,-86.5 504.5,-86.5 504.5,-67.5 446.5,-67.5"/>
<text text-anchor="middle" x="475.5" y="-74.5" font-family="Helvetica,sans-Serif" font-size="10.00">memory</text>
</a>
</g>
</g>
<!-- Node12&#45;&gt;Node29 -->
<g id="edge43" class="edge">
<title>Node12&#45;&gt;Node29</title>
<path fill="none" stroke="midnightblue" d="M977.41,-130.94C906.33,-127.67 697.5,-116.26 514.93,-87.02"/>
<polygon fill="midnightblue" stroke="midnightblue" points="515.31,-83.54 504.88,-85.39 514.19,-90.45 515.31,-83.54"/>
</g>
<!-- Node20&#45;&gt;Node4 -->
<g id="edge28" class="edge">
<title>Node20&#45;&gt;Node4</title>
<path fill="none" stroke="midnightblue" d="M600.74,-68.3C603.7,-67.83 606.64,-67.38 609.5,-67 830.07,-37.3 1097.89,-22.46 1189.21,-17.99"/>
<polygon fill="midnightblue" stroke="midnightblue" points="1189.64,-21.47 1199.46,-17.5 1189.3,-14.48 1189.64,-21.47"/>
</g>
<!-- Node20&#45;&gt;Node5 -->
<g id="edge27" class="edge">
<title>Node20&#45;&gt;Node5</title>
<path fill="none" stroke="midnightblue" d="M541.44,-67.48C517.74,-57.4 478.09,-40.55 450.92,-29"/>
<polygon fill="midnightblue" stroke="midnightblue" points="452.09,-25.7 441.52,-25.01 449.36,-32.14 452.09,-25.7"/>
</g>
<!-- Node21 -->
<g id="node21" class="node">
<title>Node21</title>
<g id="a_node21"><a xlink:title=" ">
<polygon fill="white" stroke="#bfbfbf" points="486,-0.5 486,-30.5 599,-30.5 599,-0.5 486,-0.5"/>
<text text-anchor="start" x="494" y="-18.5" font-family="Helvetica,sans-Serif" font-size="10.00">websocketpp/config</text>
<text text-anchor="middle" x="542.5" y="-7.5" font-family="Helvetica,sans-Serif" font-size="10.00">/asio_no_tls.hpp</text>
</a>
</g>
</g>
<!-- Node20&#45;&gt;Node21 -->
<g id="edge25" class="edge">
<title>Node20&#45;&gt;Node21</title>
<path fill="none" stroke="midnightblue" d="M558.78,-67.48C556.49,-60.32 553.12,-49.75 550.03,-40.08"/>
<polygon fill="midnightblue" stroke="midnightblue" points="553.35,-38.98 546.98,-30.52 546.69,-41.11 553.35,-38.98"/>
</g>
<!-- Node22 -->
<g id="node22" class="node">
<title>Node22</title>
<g id="a_node22"><a xlink:title=" ">
<polygon fill="white" stroke="#bfbfbf" points="617.5,-6 617.5,-25 751.5,-25 751.5,-6 617.5,-6"/>
<text text-anchor="middle" x="684.5" y="-13" font-family="Helvetica,sans-Serif" font-size="10.00">websocketpp/server.hpp</text>
</a>
</g>
</g>
<!-- Node20&#45;&gt;Node22 -->
<g id="edge26" class="edge">
<title>Node20&#45;&gt;Node22</title>
<path fill="none" stroke="midnightblue" d="M579.12,-67.48C599.67,-57.53 633.86,-40.99 657.71,-29.46"/>
<polygon fill="midnightblue" stroke="midnightblue" points="659.43,-32.51 666.91,-25.01 656.38,-26.21 659.43,-32.51"/>
</g>
<!-- Node20&#45;&gt;Node23 -->
<g id="edge29" class="edge">
<title>Node20&#45;&gt;Node23</title>
<path fill="none" stroke="midnightblue" d="M522.19,-68.11C485.55,-60.29 429.64,-47.15 382.5,-31 380.64,-30.36 378.73,-29.66 376.82,-28.92"/>
<polygon fill="midnightblue" stroke="midnightblue" points="378.02,-25.63 367.44,-25.03 375.34,-32.09 378.02,-25.63"/>
</g>
<!-- Node24&#45;&gt;Node4 -->
<g id="edge31" class="edge">
<title>Node24&#45;&gt;Node4</title>
<path fill="none" stroke="midnightblue" d="M1161.53,-67.48C1172.55,-58.11 1190.46,-42.88 1203.84,-31.51"/>
<polygon fill="midnightblue" stroke="midnightblue" points="1206.14,-34.15 1211.49,-25.01 1201.6,-28.82 1206.14,-34.15"/>
</g>
<!-- Node24&#45;&gt;Node5 -->
<g id="edge32" class="edge">
<title>Node24&#45;&gt;Node5</title>
<path fill="none" stroke="midnightblue" d="M1122.29,-72.19C1107.92,-70.42 1090.32,-68.4 1074.5,-67 809.28,-43.54 739.4,-73.14 476.5,-31 470.95,-30.11 465.16,-28.9 459.5,-27.56"/>
<polygon fill="midnightblue" stroke="midnightblue" points="460.09,-24.1 449.53,-25.03 458.37,-30.88 460.09,-24.1"/>
</g>
<!-- Node24&#45;&gt;Node25 -->
<g id="edge33" class="edge">
<title>Node24&#45;&gt;Node25</title>
<path fill="none" stroke="midnightblue" d="M1180.87,-68.55C1183.77,-67.96 1186.69,-67.43 1189.5,-67 1444.51,-28.12 1754.97,-19.12 1866.81,-17.08"/>
<polygon fill="midnightblue" stroke="midnightblue" points="1867.06,-20.57 1877,-16.9 1866.94,-13.58 1867.06,-20.57"/>
</g>
<!-- Node26&#45;&gt;Node4 -->
<g id="edge40" class="edge">
<title>Node26&#45;&gt;Node4</title>
<path fill="none" stroke="midnightblue" d="M276.24,-72.63C461.44,-61.63 1044.62,-27 1188.95,-18.43"/>
<polygon fill="midnightblue" stroke="midnightblue" points="1189.54,-21.9 1199.32,-17.82 1189.13,-14.92 1189.54,-21.9"/>
</g>
<!-- Node26&#45;&gt;Node5 -->
<g id="edge35" class="edge">
<title>Node26&#45;&gt;Node5</title>
<path fill="none" stroke="midnightblue" d="M253.78,-67.46C286.95,-58.98 338.5,-45.22 382.5,-31 384.91,-30.22 387.38,-29.39 389.87,-28.52"/>
<polygon fill="midnightblue" stroke="midnightblue" points="391.12,-31.79 399.34,-25.12 388.75,-25.21 391.12,-31.79"/>
</g>
<!-- Node26&#45;&gt;Node18 -->
<g id="edge36" class="edge">
<title>Node26&#45;&gt;Node18</title>
<path fill="none" stroke="midnightblue" d="M200.87,-67.48C179.06,-57.49 142.7,-40.85 117.48,-29.31"/>
<polygon fill="midnightblue" stroke="midnightblue" points="118.64,-25.99 108.09,-25.01 115.73,-32.35 118.64,-25.99"/>
</g>
<!-- Node26&#45;&gt;Node19 -->
<g id="edge41" class="edge">
<title>Node26&#45;&gt;Node19</title>
<path fill="none" stroke="midnightblue" d="M210.47,-67.48C200.74,-58.28 185.04,-43.46 173.08,-32.16"/>
<polygon fill="midnightblue" stroke="midnightblue" points="175.18,-29.33 165.51,-25.01 170.38,-34.42 175.18,-29.33"/>
</g>
<!-- Node26&#45;&gt;Node23 -->
<g id="edge38" class="edge">
<title>Node26&#45;&gt;Node23</title>
<path fill="none" stroke="midnightblue" d="M238.13,-67.48C259.94,-57.49 296.3,-40.85 321.52,-29.31"/>
<polygon fill="midnightblue" stroke="midnightblue" points="323.27,-32.35 330.91,-25.01 320.36,-25.99 323.27,-32.35"/>
</g>
<!-- Node26&#45;&gt;Node27 -->
<g id="edge37" class="edge">
<title>Node26&#45;&gt;Node27</title>
<path fill="none" stroke="midnightblue" d="M182.78,-67.48C149.43,-59.36 99.1,-46.15 56.5,-31 54.84,-30.41 53.14,-29.77 51.44,-29.11"/>
<polygon fill="midnightblue" stroke="midnightblue" points="52.39,-25.71 41.81,-25.11 49.7,-32.18 52.39,-25.71"/>
</g>
<!-- Node28 -->
<g id="node28" class="node">
<title>Node28</title>
<g id="a_node28"><a xlink:title=" ">
<polygon fill="white" stroke="#bfbfbf" points="200,-6 200,-25 307,-25 307,-6 200,-6"/>
<text text-anchor="middle" x="253.5" y="-13" font-family="Helvetica,sans-Serif" font-size="10.00">condition_variable</text>
</a>
</g>
</g>
<!-- Node26&#45;&gt;Node28 -->
<g id="edge39" class="edge">
<title>Node26&#45;&gt;Node28</title>
<path fill="none" stroke="midnightblue" d="M224.37,-67.48C229.37,-58.73 237.29,-44.87 243.61,-33.81"/>
<polygon fill="midnightblue" stroke="midnightblue" points="246.72,-35.43 248.64,-25.01 240.64,-31.96 246.72,-35.43"/>
</g>
<!-- Node30&#45;&gt;Node3 -->
<g id="edge55" class="edge">
<title>Node30&#45;&gt;Node3</title>
<path fill="none" stroke="midnightblue" d="M1470.37,-241.74C1508.01,-237.51 1556.11,-226.54 1589.5,-199 1606.25,-185.18 1628.95,-126.97 1639.97,-96.61"/>
<polygon fill="midnightblue" stroke="midnightblue" points="1643.4,-97.41 1643.46,-86.81 1636.8,-95.05 1643.4,-97.41"/>
</g>
<!-- Node30&#45;&gt;Node5 -->
<g id="edge54" class="edge">
<title>Node30&#45;&gt;Node5</title>
<path fill="none" stroke="midnightblue" d="M1401.38,-235.45C1381.95,-221.02 1339.98,-192.11 1299.5,-179 1112.86,-118.56 552.79,-232.77 421.5,-87 408.99,-73.11 411.41,-50.69 415.39,-34.87"/>
<polygon fill="midnightblue" stroke="midnightblue" points="418.79,-35.74 418.24,-25.16 412.07,-33.77 418.79,-35.74"/>
</g>
<!-- Node30&#45;&gt;Node11 -->
<g id="edge53" class="edge">
<title>Node30&#45;&gt;Node11</title>
<path fill="none" stroke="midnightblue" d="M1433.42,-235.44C1455.24,-226.52 1489.65,-212.44 1514.39,-202.32"/>
<polygon fill="midnightblue" stroke="midnightblue" points="1515.75,-205.54 1523.68,-198.52 1513.1,-199.06 1515.75,-205.54"/>
</g>
<!-- Node30&#45;&gt;Node17 -->
<g id="edge57" class="edge">
<title>Node30&#45;&gt;Node17</title>
<path fill="none" stroke="midnightblue" d="M1402.12,-235.22C1393.17,-226.93 1380.88,-213.62 1375.5,-199 1362.86,-164.61 1366.51,-120.93 1370.12,-96.57"/>
<polygon fill="midnightblue" stroke="midnightblue" points="1373.6,-97 1371.77,-86.56 1366.69,-95.86 1373.6,-97"/>
</g>
<!-- Node30&#45;&gt;Node25 -->
<g id="edge56" class="edge">
<title>Node30&#45;&gt;Node25</title>
<path fill="none" stroke="midnightblue" d="M1470.43,-239.83C1596.18,-230.62 1884.41,-208.62 1903.5,-199 1939.61,-180.81 1961.37,-162.66 1953.5,-123 1946.97,-90.12 1930.14,-54.65 1919.29,-34.07"/>
<polygon fill="midnightblue" stroke="midnightblue" points="1922.35,-32.37 1914.51,-25.24 1916.19,-35.7 1922.35,-32.37"/>
</g>
<!-- Node31 -->
<g id="node31" class="node">
<title>Node31</title>
<g id="a_node31"><a xlink:href="TransactionMem_8h.html" target="_top" xlink:title=" ">
<polygon fill="white" stroke="black" points="1384.5,-179.5 1384.5,-198.5 1490.5,-198.5 1490.5,-179.5 1384.5,-179.5"/>
<text text-anchor="middle" x="1437.5" y="-186.5" font-family="Helvetica,sans-Serif" font-size="10.00">TransactionMem.h</text>
</a>
</g>
</g>
<!-- Node30&#45;&gt;Node31 -->
<g id="edge48" class="edge">
<title>Node30&#45;&gt;Node31</title>
<path fill="none" stroke="midnightblue" d="M1416.63,-235.08C1420.01,-227.77 1424.92,-217.18 1429.12,-208.1"/>
<polygon fill="midnightblue" stroke="midnightblue" points="1432.42,-209.3 1433.45,-198.75 1426.07,-206.36 1432.42,-209.3"/>
</g>
<!-- Node30&#45;&gt;Node32 -->
<g id="edge51" class="edge">
<title>Node30&#45;&gt;Node32</title>
<path fill="none" stroke="midnightblue" d="M1388.57,-235.44C1363.28,-226.4 1323.2,-212.06 1294.82,-201.92"/>
<polygon fill="midnightblue" stroke="midnightblue" points="1295.91,-198.59 1285.31,-198.52 1293.55,-205.18 1295.91,-198.59"/>
</g>
<!-- Node31&#45;&gt;Node4 -->
<g id="edge50" class="edge">
<title>Node31&#45;&gt;Node4</title>
<path fill="none" stroke="midnightblue" d="M1440.8,-179.21C1448.32,-157.48 1464.13,-100.58 1437.5,-67 1414.95,-38.57 1308.57,-24.63 1253.98,-19.26"/>
<polygon fill="midnightblue" stroke="midnightblue" points="1254.08,-15.75 1243.8,-18.29 1253.42,-22.72 1254.08,-15.75"/>
</g>
<!-- Node31&#45;&gt;Node12 -->
<g id="edge49" class="edge">
<title>Node31&#45;&gt;Node12</title>
<path fill="none" stroke="midnightblue" d="M1384.16,-181.38C1294.02,-170.19 1113.95,-147.84 1037.8,-138.38"/>
<polygon fill="midnightblue" stroke="midnightblue" points="1038.12,-134.9 1027.77,-137.14 1037.26,-141.84 1038.12,-134.9"/>
</g>
<!-- Node32&#45;&gt;Node17 -->
<g id="edge52" class="edge">
<title>Node32&#45;&gt;Node17</title>
<path fill="none" stroke="midnightblue" d="M1270.29,-179.37C1289.1,-160.89 1333.49,-117.29 1357.47,-93.74"/>
<polygon fill="midnightblue" stroke="midnightblue" points="1360.07,-96.1 1364.75,-86.59 1355.17,-91.1 1360.07,-96.1"/>
</g>
<!-- Node34&#45;&gt;Node17 -->
<g id="edge68" class="edge">
<title>Node34&#45;&gt;Node17</title>
<path fill="none" stroke="midnightblue" d="M1787.64,-179.46C1706.99,-159.7 1507.61,-110.86 1418.17,-88.94"/>
<polygon fill="midnightblue" stroke="midnightblue" points="1418.88,-85.51 1408.34,-86.53 1417.22,-92.31 1418.88,-85.51"/>
</g>
<!-- Node35 -->
<g id="node35" class="node">
<title>Node35</title>
<g id="a_node35"><a xlink:title=" ">
<polygon fill="white" stroke="#bfbfbf" points="1889,-123.5 1889,-142.5 1944,-142.5 1944,-123.5 1889,-123.5"/>
<text text-anchor="middle" x="1916.5" y="-130.5" font-family="Helvetica,sans-Serif" font-size="10.00">fstream</text>
</a>
</g>
</g>
<!-- Node34&#45;&gt;Node35 -->
<g id="edge67" class="edge">
<title>Node34&#45;&gt;Node35</title>
<path fill="none" stroke="midnightblue" d="M1837.6,-179.32C1852.4,-170.82 1875.19,-157.73 1892.48,-147.8"/>
<polygon fill="midnightblue" stroke="midnightblue" points="1894.51,-150.67 1901.43,-142.65 1891.02,-144.6 1894.51,-150.67"/>
</g>
<!-- Node36 -->
<g id="node36" class="node">
<title>Node36</title>
<g id="a_node36"><a xlink:href="GameConfiguration_8h.html" target="_top" xlink:title="Interface for obtaining game configuration.">
<polygon fill="white" stroke="black" points="1750.5,-123.5 1750.5,-142.5 1870.5,-142.5 1870.5,-123.5 1750.5,-123.5"/>
<text text-anchor="middle" x="1810.5" y="-130.5" font-family="Helvetica,sans-Serif" font-size="10.00">GameConfiguration.h</text>
</a>
</g>
</g>
<!-- Node34&#45;&gt;Node36 -->
<g id="edge69" class="edge">
<title>Node34&#45;&gt;Node36</title>
<path fill="none" stroke="midnightblue" d="M1820.52,-179.08C1818.93,-171.93 1816.64,-161.64 1814.65,-152.69"/>
<polygon fill="midnightblue" stroke="midnightblue" points="1818.03,-151.75 1812.44,-142.75 1811.2,-153.27 1818.03,-151.75"/>
</g>
<!-- Node36&#45;&gt;Node3 -->
<g id="edge70" class="edge">
<title>Node36&#45;&gt;Node3</title>
<path fill="none" stroke="midnightblue" d="M1784.51,-123.44C1756.27,-114.15 1711.06,-99.26 1680.13,-89.07"/>
<polygon fill="midnightblue" stroke="midnightblue" points="1680.83,-85.62 1670.23,-85.82 1678.64,-92.27 1680.83,-85.62"/>
</g>
<!-- Node36&#45;&gt;Node4 -->
<g id="edge71" class="edge">
<title>Node36&#45;&gt;Node4</title>
<path fill="none" stroke="midnightblue" d="M1797.01,-123.29C1773.96,-108.88 1725.06,-80.36 1679.5,-67 1525.12,-21.74 1330.65,-16.42 1254.35,-16.23"/>
<polygon fill="midnightblue" stroke="midnightblue" points="1253.96,-12.73 1243.97,-16.23 1253.97,-19.73 1253.96,-12.73"/>
</g>
<!-- Node36&#45;&gt;Node13 -->
<g id="edge73" class="edge">
<title>Node36&#45;&gt;Node13</title>
<path fill="none" stroke="midnightblue" d="M1761.85,-123.44C1697.32,-112.09 1585.42,-92.41 1532.64,-83.13"/>
<polygon fill="midnightblue" stroke="midnightblue" points="1533.07,-79.65 1522.61,-81.36 1531.85,-86.54 1533.07,-79.65"/>
</g>
<!-- Node36&#45;&gt;Node25 -->
<g id="edge72" class="edge">
<title>Node36&#45;&gt;Node25</title>
<path fill="none" stroke="midnightblue" d="M1817.94,-123.32C1834.35,-104.17 1873.89,-58.04 1895.25,-33.13"/>
<polygon fill="midnightblue" stroke="midnightblue" points="1898.12,-35.15 1901.97,-25.28 1892.81,-30.6 1898.12,-35.15"/>
</g>
</g>
</svg>
        <g id="navigator" transform="translate(0 0)" fill="#404254">
                <rect fill="#f2f5e9" fill-opacity="0.5" stroke="#606060" stroke-width=".5" x="0" y="0" width="60" height="60"/>
                <use id="zoomplus" xlink:href="#zoomPlus" x="17" y="9" onmousedown="handleZoom(evt,'in')"/>
                <use id="zoomminus" xlink:href="#zoomMin" x="42" y="9" onmousedown="handleZoom(evt,'out')"/>
                <use id="reset" xlink:href="#resetDef" x="30" y="36" onmousedown="handleReset()"/>
                <g id="arrowUp" xlink:href="#dirArrow" transform="translate(30 24)" onmousedown="handlePan(0,-1)">
                  <use xlink:href="#rim" fill="#404040">
                        <set attributeName="fill" to="#808080" begin="arrowUp.mouseover" end="arrowUp.mouseout"/>
                  </use>
                  <path fill="none" stroke="white" stroke-width="1.5" d="M0,-3.0v7 M-2.5,-0.5L0,-3.0L2.5,-0.5"/>
                </g>
                <g id="arrowRight" xlink:href="#dirArrow" transform="rotate(90) translate(36 -43)" onmousedown="handlePan(1,0)">
                  <use xlink:href="#rim" fill="#404040">
                        <set attributeName="fill" to="#808080" begin="arrowRight.mouseover" end="arrowRight.mouseout"/>
                  </use>
                  <path fill="none" stroke="white" stroke-width="1.5" d="M0,-3.0v7 M-2.5,-0.5L0,-3.0L2.5,-0.5"/>
                </g>
                <g id="arrowDown" xlink:href="#dirArrow" transform="rotate(180) translate(-30 -48)" onmousedown="handlePan(0,1)">
                  <use xlink:href="#rim" fill="#404040">
                        <set attributeName="fill" to="#808080" begin="arrowDown.mouseover" end="arrowDown.mouseout"/>
                  </use>
                  <path fill="none" stroke="white" stroke-width="1.5" d="M0,-3.0v7 M-2.5,-0.5L0,-3.0L2.5,-0.5"/>
                </g>
                <g id="arrowLeft" xlink:href="#dirArrow" transform="rotate(270) translate(-36 17)" onmousedown="handlePan(-1,0)">
                  <use xlink:href="#rim" fill="#404040">
                        <set attributeName="fill" to="#808080" begin="arrowLeft.mouseover" end="arrowLeft.mouseout"/>
                  </use>
                  <path fill="none" stroke="white" stroke-width="1.5" d="M0,-3.0v7 M-2.5,-0.5L0,-3.0L2.5,-0.5"/>
                </g>
        </g>
        <svg viewBox="0 0 15 15" width="100%" height="30px" preserveAspectRatio="xMaxYMin meet">
         <g id="arrow_out" transform="scale(0.3 0.3)">
          <a xlink:href="CustomerBuilder_8h__incl_org.svg" target="_base">
           <rect id="button" ry="5" rx="5" y="6" x="6" height="38" width="38"
                fill="#f2f5e9" fill-opacity="0.5" stroke="#606060" stroke-width="1.0"/>
           <path id="arrow"
             d="M 11.500037,31.436501 C 11.940474,20.09759 22.043105,11.32322 32.158766,21.979434 L 37.068811,17.246167 C 37.068811,17.246167 37.088388,32 37.088388,32 L 22.160133,31.978069 C 22.160133,31.978069 26.997745,27.140456 26.997745,27.140456 C 18.528582,18.264221 13.291696,25.230495 11.500037,31.436501 z"
             style="fill:#404040;"/>
          </a>
         </g>
        </svg>
</svg>
