<?xml version="1.0" encoding="UTF-8" standalone="no"?>
<!DOCTYPE svg PUBLIC "-//W3C//DTD SVG 1.1//EN"
 "http://www.w3.org/Graphics/SVG/1.1/DTD/svg11.dtd">
<!-- Generated by graphviz version 2.43.0 (0)
 -->
<!-- Title: backend/customer/CustomerVisitor.cpp Pages: 1 -->
<svg width="1511pt" height="442pt"
 viewBox="0.00 0.00 1510.67 442.00" xmlns="http://www.w3.org/2000/svg" xmlns:xlink="http://www.w3.org/1999/xlink">
<g id="graph0" class="graph" transform="scale(1 1) rotate(0) translate(4 438)">
<title>backend/customer/CustomerVisitor.cpp</title>
<polygon fill="white" stroke="transparent" points="-4,4 -4,-438 1506.67,-438 1506.67,4 -4,4"/>
<!-- Node1 -->
<g id="node1" class="node">
<title>Node1</title>
<g id="a_node1"><a xlink:title="Implements the CustomerVisitor base class functionality.">
<polygon fill="#bfbfbf" stroke="black" points="1309,-403.5 1309,-433.5 1465,-433.5 1465,-403.5 1309,-403.5"/>
<text text-anchor="start" x="1317" y="-421.5" font-family="Helvetica,sans-Serif" font-size="10.00">backend/customer/Customer</text>
<text text-anchor="middle" x="1387" y="-410.5" font-family="Helvetica,sans-Serif" font-size="10.00">Visitor.cpp</text>
</a>
</g>
</g>
<!-- Node2 -->
<g id="node2" class="node">
<title>Node2</title>
<g id="a_node2"><a xlink:href="CustomerVisitor_8h.html" target="_top" xlink:title="Abstract visitor class for plant recommendation strategies for different customer types.">
<polygon fill="white" stroke="black" points="1295,-347.5 1295,-366.5 1399,-366.5 1399,-347.5 1295,-347.5"/>
<text text-anchor="middle" x="1347" y="-354.5" font-family="Helvetica,sans-Serif" font-size="10.00">CustomerVisitor.h</text>
</a>
</g>
</g>
<!-- Node1&#45;&gt;Node2 -->
<g id="edge1" class="edge">
<title>Node1&#45;&gt;Node2</title>
<path fill="none" stroke="midnightblue" d="M1377.52,-403.4C1371.83,-394.93 1364.55,-384.1 1358.52,-375.14"/>
<polygon fill="midnightblue" stroke="midnightblue" points="1361.3,-373 1352.82,-366.66 1355.49,-376.91 1361.3,-373"/>
</g>
<!-- Node7 -->
<g id="node7" class="node">
<title>Node7</title>
<g id="a_node7"><a xlink:href="Inventory_8h.html" target="_top" xlink:title="Inventory management for plants in greenhouse and sales floor.">
<polygon fill="white" stroke="black" points="1277.5,-179.5 1277.5,-198.5 1348.5,-198.5 1348.5,-179.5 1277.5,-179.5"/>
<text text-anchor="middle" x="1313" y="-186.5" font-family="Helvetica,sans-Serif" font-size="10.00">Inventory.h</text>
</a>
</g>
</g>
<!-- Node1&#45;&gt;Node7 -->
<g id="edge50" class="edge">
<title>Node1&#45;&gt;Node7</title>
<path fill="none" stroke="midnightblue" d="M1395.96,-403.5C1403.92,-389.3 1413.49,-366.68 1408,-347 1392.16,-290.24 1349.61,-233.53 1327.22,-206.44"/>
<polygon fill="midnightblue" stroke="midnightblue" points="1329.84,-204.11 1320.72,-198.72 1324.48,-208.62 1329.84,-204.11"/>
</g>
<!-- Node3 -->
<g id="node3" class="node">
<title>Node3</title>
<g id="a_node3"><a xlink:title=" ">
<polygon fill="white" stroke="#bfbfbf" points="1354.5,-67.5 1354.5,-86.5 1401.5,-86.5 1401.5,-67.5 1354.5,-67.5"/>
<text text-anchor="middle" x="1378" y="-74.5" font-family="Helvetica,sans-Serif" font-size="10.00">vector</text>
</a>
</g>
</g>
<!-- Node2&#45;&gt;Node3 -->
<g id="edge2" class="edge">
<title>Node2&#45;&gt;Node3</title>
<path fill="none" stroke="midnightblue" d="M1348.99,-347.42C1351.02,-338.4 1354.13,-323.77 1356,-311 1367.66,-231.6 1374.42,-136.03 1376.9,-96.5"/>
<polygon fill="midnightblue" stroke="midnightblue" points="1380.4,-96.7 1377.52,-86.5 1373.41,-96.27 1380.4,-96.7"/>
</g>
<!-- Node4 -->
<g id="node4" class="node">
<title>Node4</title>
<g id="a_node4"><a xlink:title=" ">
<polygon fill="white" stroke="#bfbfbf" points="1420,-67.5 1420,-86.5 1484,-86.5 1484,-67.5 1420,-67.5"/>
<text text-anchor="middle" x="1452" y="-74.5" font-family="Helvetica,sans-Serif" font-size="10.00">algorithm</text>
</a>
</g>
</g>
<!-- Node2&#45;&gt;Node4 -->
<g id="edge3" class="edge">
<title>Node2&#45;&gt;Node4</title>
<path fill="none" stroke="midnightblue" d="M1352.46,-347.27C1357.87,-338.38 1366.18,-324.06 1372,-311 1406.51,-233.5 1435.57,-136.22 1446.91,-96.34"/>
<polygon fill="midnightblue" stroke="midnightblue" points="1450.29,-97.25 1449.62,-86.67 1443.55,-95.35 1450.29,-97.25"/>
</g>
<!-- Node5 -->
<g id="node5" class="node">
<title>Node5</title>
<g id="a_node5"><a xlink:title=" ">
<polygon fill="white" stroke="#bfbfbf" points="1294.5,-291.5 1294.5,-310.5 1347.5,-310.5 1347.5,-291.5 1294.5,-291.5"/>
<text text-anchor="middle" x="1321" y="-298.5" font-family="Helvetica,sans-Serif" font-size="10.00">cstddef</text>
</a>
</g>
</g>
<!-- Node2&#45;&gt;Node5 -->
<g id="edge4" class="edge">
<title>Node2&#45;&gt;Node5</title>
<path fill="none" stroke="midnightblue" d="M1342.71,-347.08C1339.15,-339.69 1333.98,-328.95 1329.58,-319.81"/>
<polygon fill="midnightblue" stroke="midnightblue" points="1332.71,-318.24 1325.21,-310.75 1326.4,-321.28 1332.71,-318.24"/>
</g>
<!-- Node6 -->
<g id="node6" class="node">
<title>Node6</title>
<g id="a_node6"><a xlink:href="SalesFloor_8h.html" target="_top" xlink:title="Sales floor management for customer interactions and plant sales.">
<polygon fill="white" stroke="black" points="454,-291.5 454,-310.5 530,-310.5 530,-291.5 454,-291.5"/>
<text text-anchor="middle" x="492" y="-298.5" font-family="Helvetica,sans-Serif" font-size="10.00">SalesFloor.h</text>
</a>
</g>
</g>
<!-- Node2&#45;&gt;Node6 -->
<g id="edge5" class="edge">
<title>Node2&#45;&gt;Node6</title>
<path fill="none" stroke="midnightblue" d="M1294.8,-352.7C1140.78,-342.98 689.7,-314.49 540.52,-305.06"/>
<polygon fill="midnightblue" stroke="midnightblue" points="540.51,-301.56 530.31,-304.42 540.07,-308.54 540.51,-301.56"/>
</g>
<!-- Node8 -->
<g id="node8" class="node">
<title>Node8</title>
<g id="a_node8"><a xlink:href="Plant_8h.html" target="_top" xlink:title="Defines the abstract base class for all Plant objects used in the system.">
<polygon fill="white" stroke="black" points="787,-123.5 787,-142.5 837,-142.5 837,-123.5 787,-123.5"/>
<text text-anchor="middle" x="812" y="-130.5" font-family="Helvetica,sans-Serif" font-size="10.00">Plant.h</text>
</a>
</g>
</g>
<!-- Node2&#45;&gt;Node8 -->
<g id="edge49" class="edge">
<title>Node2&#45;&gt;Node8</title>
<path fill="none" stroke="midnightblue" d="M1326.36,-347.43C1244.02,-313.27 938.86,-186.64 841.83,-146.38"/>
<polygon fill="midnightblue" stroke="midnightblue" points="843.16,-143.14 832.58,-142.54 840.48,-149.61 843.16,-143.14"/>
</g>
<!-- Node6&#45;&gt;Node3 -->
<g id="edge46" class="edge">
<title>Node6&#45;&gt;Node3</title>
<path fill="none" stroke="midnightblue" d="M530.24,-292.57C634.79,-271.97 933.82,-211.16 1178,-143 1237.36,-126.43 1305.4,-103.45 1344.86,-89.72"/>
<polygon fill="midnightblue" stroke="midnightblue" points="1346.2,-92.96 1354.49,-86.35 1343.89,-86.35 1346.2,-92.96"/>
</g>
<!-- Node6&#45;&gt;Node7 -->
<g id="edge6" class="edge">
<title>Node6&#45;&gt;Node7</title>
<path fill="none" stroke="midnightblue" d="M530.19,-299.92C658.87,-299.29 1075.62,-294.19 1203,-255 1237.88,-244.27 1273.35,-220.49 1294.25,-204.86"/>
<polygon fill="midnightblue" stroke="midnightblue" points="1296.46,-207.58 1302.28,-198.73 1292.21,-202.02 1296.46,-207.58"/>
</g>
<!-- Node23 -->
<g id="node23" class="node">
<title>Node23</title>
<g id="a_node23"><a xlink:title=" ">
<polygon fill="white" stroke="#bfbfbf" points="5.5,-6 5.5,-25 70.5,-25 70.5,-6 5.5,-6"/>
<text text-anchor="middle" x="38" y="-13" font-family="Helvetica,sans-Serif" font-size="10.00">stdexcept</text>
</a>
</g>
</g>
<!-- Node6&#45;&gt;Node23 -->
<g id="edge48" class="edge">
<title>Node6&#45;&gt;Node23</title>
<path fill="none" stroke="midnightblue" d="M453.8,-299.6C338.21,-297.36 0,-282.89 0,-190 0,-190 0,-190 0,-132 0,-95.75 17.09,-56.17 28.35,-34.03"/>
<polygon fill="midnightblue" stroke="midnightblue" points="31.46,-35.64 33.03,-25.16 25.27,-32.37 31.46,-35.64"/>
</g>
<!-- Node26 -->
<g id="node26" class="node">
<title>Node26</title>
<g id="a_node26"><a xlink:href="TransactionHistory_8h.html" target="_top" xlink:title="Maintains history of financial transactions.">
<polygon fill="white" stroke="black" points="434.5,-235.5 434.5,-254.5 549.5,-254.5 549.5,-235.5 434.5,-235.5"/>
<text text-anchor="middle" x="492" y="-242.5" font-family="Helvetica,sans-Serif" font-size="10.00">TransactionHistory.h</text>
</a>
</g>
</g>
<!-- Node6&#45;&gt;Node26 -->
<g id="edge34" class="edge">
<title>Node6&#45;&gt;Node26</title>
<path fill="none" stroke="midnightblue" d="M492,-291.08C492,-284.01 492,-273.86 492,-264.99"/>
<polygon fill="midnightblue" stroke="midnightblue" points="495.5,-264.75 492,-254.75 488.5,-264.75 495.5,-264.75"/>
</g>
<!-- Node28 -->
<g id="node28" class="node">
<title>Node28</title>
<g id="a_node28"><a xlink:href="Ledger_8h.html" target="_top" xlink:title="Financial ledger for tracking game balance.">
<polygon fill="white" stroke="black" points="32,-179.5 32,-198.5 90,-198.5 90,-179.5 32,-179.5"/>
<text text-anchor="middle" x="61" y="-186.5" font-family="Helvetica,sans-Serif" font-size="10.00">Ledger.h</text>
</a>
</g>
</g>
<!-- Node6&#45;&gt;Node28 -->
<g id="edge45" class="edge">
<title>Node6&#45;&gt;Node28</title>
<path fill="none" stroke="midnightblue" d="M479.6,-291.38C456.28,-275.34 406.5,-241.91 387,-235 267.48,-192.67 229.04,-220 104,-199 102.73,-198.79 101.44,-198.56 100.14,-198.33"/>
<polygon fill="midnightblue" stroke="midnightblue" points="100.56,-194.85 90.08,-196.42 99.25,-201.72 100.56,-194.85"/>
</g>
<!-- Node29 -->
<g id="node29" class="node">
<title>Node29</title>
<g id="a_node29"><a xlink:title=" ">
<polygon fill="white" stroke="#bfbfbf" points="324,-235.5 324,-254.5 378,-254.5 378,-235.5 324,-235.5"/>
<text text-anchor="middle" x="351" y="-242.5" font-family="Helvetica,sans-Serif" font-size="10.00">random</text>
</a>
</g>
</g>
<!-- Node6&#45;&gt;Node29 -->
<g id="edge47" class="edge">
<title>Node6&#45;&gt;Node29</title>
<path fill="none" stroke="midnightblue" d="M469.66,-291.44C446.25,-282.48 409.26,-268.31 382.81,-258.18"/>
<polygon fill="midnightblue" stroke="midnightblue" points="383.83,-254.82 373.24,-254.52 381.32,-261.36 383.83,-254.82"/>
</g>
<!-- Node7&#45;&gt;Node3 -->
<g id="edge32" class="edge">
<title>Node7&#45;&gt;Node3</title>
<path fill="none" stroke="midnightblue" d="M1318.1,-179.37C1328.78,-161.3 1353.67,-119.18 1367.77,-95.31"/>
<polygon fill="midnightblue" stroke="midnightblue" points="1370.85,-96.98 1372.92,-86.59 1364.82,-93.42 1370.85,-96.98"/>
</g>
<!-- Node7&#45;&gt;Node8 -->
<g id="edge7" class="edge">
<title>Node7&#45;&gt;Node8</title>
<path fill="none" stroke="midnightblue" d="M1277.37,-184.16C1185.12,-174.22 939.27,-147.72 847.34,-137.81"/>
<polygon fill="midnightblue" stroke="midnightblue" points="847.48,-134.3 837.16,-136.71 846.73,-141.26 847.48,-134.3"/>
</g>
<!-- Node9 -->
<g id="node9" class="node">
<title>Node9</title>
<g id="a_node9"><a xlink:title=" ">
<polygon fill="white" stroke="#bfbfbf" points="1266,-6 1266,-25 1310,-25 1310,-6 1266,-6"/>
<text text-anchor="middle" x="1288" y="-13" font-family="Helvetica,sans-Serif" font-size="10.00">string</text>
</a>
</g>
</g>
<!-- Node7&#45;&gt;Node9 -->
<g id="edge33" class="edge">
<title>Node7&#45;&gt;Node9</title>
<path fill="none" stroke="midnightblue" d="M1348.73,-179.95C1413.08,-163.83 1537.76,-124.13 1493,-67 1471.9,-40.07 1372.6,-25.57 1320.34,-19.68"/>
<polygon fill="midnightblue" stroke="midnightblue" points="1320.57,-16.19 1310.25,-18.59 1319.82,-23.15 1320.57,-16.19"/>
</g>
<!-- Node8&#45;&gt;Node3 -->
<g id="edge10" class="edge">
<title>Node8&#45;&gt;Node3</title>
<path fill="none" stroke="midnightblue" d="M837.01,-129.94C909.18,-123.93 1124.01,-105.71 1302,-87 1315.87,-85.54 1331.14,-83.77 1344.33,-82.18"/>
<polygon fill="midnightblue" stroke="midnightblue" points="1344.89,-85.64 1354.4,-80.96 1344.05,-78.69 1344.89,-85.64"/>
</g>
<!-- Node8&#45;&gt;Node4 -->
<g id="edge11" class="edge">
<title>Node8&#45;&gt;Node4</title>
<path fill="none" stroke="midnightblue" d="M837.2,-131.33C919.76,-128.87 1189.48,-118.77 1410,-87 1410.1,-86.99 1410.2,-86.97 1410.3,-86.96"/>
<polygon fill="midnightblue" stroke="midnightblue" points="1410.7,-90.44 1419.98,-85.33 1409.54,-83.54 1410.7,-90.44"/>
</g>
<!-- Node8&#45;&gt;Node9 -->
<g id="edge8" class="edge">
<title>Node8&#45;&gt;Node9</title>
<path fill="none" stroke="midnightblue" d="M837.03,-131.18C927.76,-127.97 1235.85,-115.09 1269,-87 1283.79,-74.47 1287.69,-51.76 1288.43,-35.5"/>
<polygon fill="midnightblue" stroke="midnightblue" points="1291.94,-35.07 1288.53,-25.04 1284.94,-35.01 1291.94,-35.07"/>
</g>
<!-- Node10 -->
<g id="node10" class="node">
<title>Node10</title>
<g id="a_node10"><a xlink:title=" ">
<polygon fill="white" stroke="#bfbfbf" points="902,-67.5 902,-86.5 940,-86.5 940,-67.5 902,-67.5"/>
<text text-anchor="middle" x="921" y="-74.5" font-family="Helvetica,sans-Serif" font-size="10.00">map</text>
</a>
</g>
</g>
<!-- Node8&#45;&gt;Node10 -->
<g id="edge9" class="edge">
<title>Node8&#45;&gt;Node10</title>
<path fill="none" stroke="midnightblue" d="M829.51,-123.32C847.07,-114.62 874.33,-101.12 894.53,-91.11"/>
<polygon fill="midnightblue" stroke="midnightblue" points="896.12,-94.23 903.53,-86.65 893.02,-87.96 896.12,-94.23"/>
</g>
<!-- Node11 -->
<g id="node11" class="node">
<title>Node11</title>
<g id="a_node11"><a xlink:title=" ">
<polygon fill="white" stroke="#bfbfbf" points="443,-6 443,-25 503,-25 503,-6 443,-6"/>
<text text-anchor="middle" x="473" y="-13" font-family="Helvetica,sans-Serif" font-size="10.00">iostream</text>
</a>
</g>
</g>
<!-- Node8&#45;&gt;Node11 -->
<g id="edge12" class="edge">
<title>Node8&#45;&gt;Node11</title>
<path fill="none" stroke="midnightblue" d="M802.74,-123.31C787.15,-109.2 754.11,-81.41 721,-67 651.79,-36.87 563.8,-24.44 513.39,-19.52"/>
<polygon fill="midnightblue" stroke="midnightblue" points="513.51,-16.01 503.23,-18.58 512.86,-22.99 513.51,-16.01"/>
</g>
<!-- Node12 -->
<g id="node12" class="node">
<title>Node12</title>
<g id="a_node12"><a xlink:title=" ">
<polygon fill="white" stroke="#bfbfbf" points="958.5,-67.5 958.5,-86.5 1071.5,-86.5 1071.5,-67.5 958.5,-67.5"/>
<text text-anchor="middle" x="1015" y="-74.5" font-family="Helvetica,sans-Serif" font-size="10.00">boost/uuid/uuid.hpp</text>
</a>
</g>
</g>
<!-- Node8&#45;&gt;Node12 -->
<g id="edge13" class="edge">
<title>Node8&#45;&gt;Node12</title>
<path fill="none" stroke="midnightblue" d="M837.3,-125.27C871.37,-116.21 932.44,-99.96 973.34,-89.08"/>
<polygon fill="midnightblue" stroke="midnightblue" points="974.26,-92.46 983.02,-86.51 972.46,-85.7 974.26,-92.46"/>
</g>
<!-- Node13 -->
<g id="node13" class="node">
<title>Node13</title>
<g id="a_node13"><a xlink:title=" ">
<polygon fill="white" stroke="#bfbfbf" points="1090,-67.5 1090,-86.5 1260,-86.5 1260,-67.5 1090,-67.5"/>
<text text-anchor="middle" x="1175" y="-74.5" font-family="Helvetica,sans-Serif" font-size="10.00">boost/uuid/uuid_generators.hpp</text>
</a>
</g>
</g>
<!-- Node8&#45;&gt;Node13 -->
<g id="edge14" class="edge">
<title>Node8&#45;&gt;Node13</title>
<path fill="none" stroke="midnightblue" d="M837.24,-128.25C892.51,-120.02 1025.85,-100.19 1107.49,-88.04"/>
<polygon fill="midnightblue" stroke="midnightblue" points="1108.29,-91.46 1117.67,-86.53 1107.26,-84.54 1108.29,-91.46"/>
</g>
<!-- Node14 -->
<g id="node14" class="node">
<title>Node14</title>
<g id="a_node14"><a xlink:title=" ">
<polygon fill="white" stroke="#bfbfbf" points="308.5,-67.5 308.5,-86.5 435.5,-86.5 435.5,-67.5 308.5,-67.5"/>
<text text-anchor="middle" x="372" y="-74.5" font-family="Helvetica,sans-Serif" font-size="10.00">boost/uuid/uuid_io.hpp</text>
</a>
</g>
</g>
<!-- Node8&#45;&gt;Node14 -->
<g id="edge15" class="edge">
<title>Node8&#45;&gt;Node14</title>
<path fill="none" stroke="midnightblue" d="M786.64,-128.9C728.49,-121.78 580.83,-103.7 445.81,-87.1"/>
<polygon fill="midnightblue" stroke="midnightblue" points="446.05,-83.6 435.7,-85.86 445.2,-90.55 446.05,-83.6"/>
</g>
<!-- Node15 -->
<g id="node15" class="node">
<title>Node15</title>
<g id="a_node15"><a xlink:title=" ">
<polygon fill="white" stroke="#bfbfbf" points="66,-67.5 66,-86.5 176,-86.5 176,-67.5 66,-67.5"/>
<text text-anchor="middle" x="121" y="-74.5" font-family="Helvetica,sans-Serif" font-size="10.00">nlohmann/json.hpp</text>
</a>
</g>
</g>
<!-- Node8&#45;&gt;Node15 -->
<g id="edge16" class="edge">
<title>Node8&#45;&gt;Node15</title>
<path fill="none" stroke="midnightblue" d="M786.73,-130.18C705.12,-124.26 441.22,-104.96 223,-87 211.1,-86.02 198.41,-84.93 186.18,-83.87"/>
<polygon fill="midnightblue" stroke="midnightblue" points="186.31,-80.36 176.04,-82.98 185.7,-87.34 186.31,-80.36"/>
</g>
<!-- Node16 -->
<g id="node16" class="node">
<title>Node16</title>
<g id="a_node16"><a xlink:title=" ">
<polygon fill="white" stroke="#bfbfbf" points="454,-67.5 454,-86.5 502,-86.5 502,-67.5 454,-67.5"/>
<text text-anchor="middle" x="478" y="-74.5" font-family="Helvetica,sans-Serif" font-size="10.00">thread</text>
</a>
</g>
</g>
<!-- Node8&#45;&gt;Node16 -->
<g id="edge17" class="edge">
<title>Node8&#45;&gt;Node16</title>
<path fill="none" stroke="midnightblue" d="M786.85,-129.26C736.52,-123.55 619.7,-109.22 512.12,-87.02"/>
<polygon fill="midnightblue" stroke="midnightblue" points="512.58,-83.54 502.07,-84.92 511.14,-90.39 512.58,-83.54"/>
</g>
<!-- Node17 -->
<g id="node17" class="node">
<title>Node17</title>
<g id="a_node17"><a xlink:title=" ">
<polygon fill="white" stroke="#bfbfbf" points="520,-67.5 520,-86.5 570,-86.5 570,-67.5 520,-67.5"/>
<text text-anchor="middle" x="545" y="-74.5" font-family="Helvetica,sans-Serif" font-size="10.00">atomic</text>
</a>
</g>
</g>
<!-- Node8&#45;&gt;Node17 -->
<g id="edge18" class="edge">
<title>Node8&#45;&gt;Node17</title>
<path fill="none" stroke="midnightblue" d="M786.71,-127.7C745.49,-120.56 661.04,-105.42 580.06,-87.12"/>
<polygon fill="midnightblue" stroke="midnightblue" points="580.73,-83.69 570.2,-84.88 579.18,-90.51 580.73,-83.69"/>
</g>
<!-- Node18 -->
<g id="node18" class="node">
<title>Node18</title>
<g id="a_node18"><a xlink:href="GreenSock_8h.html" target="_top" xlink:title=" ">
<polygon fill="white" stroke="black" points="806,-67.5 806,-86.5 884,-86.5 884,-67.5 806,-67.5"/>
<text text-anchor="middle" x="845" y="-74.5" font-family="Helvetica,sans-Serif" font-size="10.00">GreenSock.h</text>
</a>
</g>
</g>
<!-- Node8&#45;&gt;Node18 -->
<g id="edge19" class="edge">
<title>Node8&#45;&gt;Node18</title>
<path fill="none" stroke="midnightblue" d="M817.45,-123.08C822.01,-115.61 828.67,-104.72 834.29,-95.52"/>
<polygon fill="midnightblue" stroke="midnightblue" points="837.42,-97.11 839.65,-86.75 831.45,-93.46 837.42,-97.11"/>
</g>
<!-- Node21 -->
<g id="node21" class="node">
<title>Node21</title>
<g id="a_node21"><a xlink:title=" ">
<polygon fill="white" stroke="#bfbfbf" points="733,-6 733,-25 781,-25 781,-6 733,-6"/>
<text text-anchor="middle" x="757" y="-13" font-family="Helvetica,sans-Serif" font-size="10.00">mutex</text>
</a>
</g>
</g>
<!-- Node8&#45;&gt;Node21 -->
<g id="edge31" class="edge">
<title>Node8&#45;&gt;Node21</title>
<path fill="none" stroke="midnightblue" d="M807.87,-123.32C798.91,-104.51 777.55,-59.65 765.55,-34.46"/>
<polygon fill="midnightblue" stroke="midnightblue" points="768.64,-32.81 761.18,-25.28 762.32,-35.82 768.64,-32.81"/>
</g>
<!-- Node22 -->
<g id="node22" class="node">
<title>Node22</title>
<g id="a_node22"><a xlink:href="Logger_8h.html" target="_top" xlink:title="Header for Strategy Logger interface.">
<polygon fill="white" stroke="black" points="232,-67.5 232,-86.5 290,-86.5 290,-67.5 232,-67.5"/>
<text text-anchor="middle" x="261" y="-74.5" font-family="Helvetica,sans-Serif" font-size="10.00">Logger.h</text>
</a>
</g>
</g>
<!-- Node8&#45;&gt;Node22 -->
<g id="edge25" class="edge">
<title>Node8&#45;&gt;Node22</title>
<path fill="none" stroke="midnightblue" d="M786.75,-131.08C713.17,-128.14 492.51,-117.36 300.37,-87"/>
<polygon fill="midnightblue" stroke="midnightblue" points="300.8,-83.53 290.37,-85.4 299.69,-90.44 300.8,-83.53"/>
</g>
<!-- Node24 -->
<g id="node24" class="node">
<title>Node24</title>
<g id="a_node24"><a xlink:title=" ">
<polygon fill="white" stroke="#bfbfbf" points="588.5,-67.5 588.5,-86.5 635.5,-86.5 635.5,-67.5 588.5,-67.5"/>
<text text-anchor="middle" x="612" y="-74.5" font-family="Helvetica,sans-Serif" font-size="10.00">queue</text>
</a>
</g>
</g>
<!-- Node8&#45;&gt;Node24 -->
<g id="edge29" class="edge">
<title>Node8&#45;&gt;Node24</title>
<path fill="none" stroke="midnightblue" d="M786.81,-125.24C755.9,-116.94 701.64,-102.34 645.54,-87.14"/>
<polygon fill="midnightblue" stroke="midnightblue" points="646.36,-83.74 635.79,-84.5 644.53,-90.49 646.36,-83.74"/>
</g>
<!-- Node25 -->
<g id="node25" class="node">
<title>Node25</title>
<g id="a_node25"><a xlink:title=" ">
<polygon fill="white" stroke="#bfbfbf" points="654,-67.5 654,-86.5 712,-86.5 712,-67.5 654,-67.5"/>
<text text-anchor="middle" x="683" y="-74.5" font-family="Helvetica,sans-Serif" font-size="10.00">memory</text>
</a>
</g>
</g>
<!-- Node8&#45;&gt;Node25 -->
<g id="edge30" class="edge">
<title>Node8&#45;&gt;Node25</title>
<path fill="none" stroke="midnightblue" d="M791.56,-123.44C770.33,-114.56 736.9,-100.56 712.75,-90.45"/>
<polygon fill="midnightblue" stroke="midnightblue" points="713.92,-87.15 703.34,-86.52 711.22,-93.61 713.92,-87.15"/>
</g>
<!-- Node18&#45;&gt;Node9 -->
<g id="edge23" class="edge">
<title>Node18&#45;&gt;Node9</title>
<path fill="none" stroke="midnightblue" d="M884.26,-68.45C887.21,-67.94 890.15,-67.45 893,-67 1027.19,-45.86 1188.08,-27.42 1255.64,-19.99"/>
<polygon fill="midnightblue" stroke="midnightblue" points="1256.1,-23.46 1265.66,-18.89 1255.34,-16.5 1256.1,-23.46"/>
</g>
<!-- Node18&#45;&gt;Node11 -->
<g id="edge22" class="edge">
<title>Node18&#45;&gt;Node11</title>
<path fill="none" stroke="midnightblue" d="M805.89,-69.74C734.77,-58.37 584.99,-34.41 513.13,-22.92"/>
<polygon fill="midnightblue" stroke="midnightblue" points="513.53,-19.44 503.11,-21.32 512.43,-26.35 513.53,-19.44"/>
</g>
<!-- Node19 -->
<g id="node19" class="node">
<title>Node19</title>
<g id="a_node19"><a xlink:title=" ">
<polygon fill="white" stroke="#bfbfbf" points="951.5,-0.5 951.5,-30.5 1064.5,-30.5 1064.5,-0.5 951.5,-0.5"/>
<text text-anchor="start" x="959.5" y="-18.5" font-family="Helvetica,sans-Serif" font-size="10.00">websocketpp/config</text>
<text text-anchor="middle" x="1008" y="-7.5" font-family="Helvetica,sans-Serif" font-size="10.00">/asio_no_tls.hpp</text>
</a>
</g>
</g>
<!-- Node18&#45;&gt;Node19 -->
<g id="edge20" class="edge">
<title>Node18&#45;&gt;Node19</title>
<path fill="none" stroke="midnightblue" d="M868.35,-67.48C892.18,-58.78 929.85,-45.03 960.06,-34"/>
<polygon fill="midnightblue" stroke="midnightblue" points="961.39,-37.24 969.58,-30.52 958.99,-30.66 961.39,-37.24"/>
</g>
<!-- Node20 -->
<g id="node20" class="node">
<title>Node20</title>
<g id="a_node20"><a xlink:title=" ">
<polygon fill="white" stroke="#bfbfbf" points="799,-6 799,-25 933,-25 933,-6 799,-6"/>
<text text-anchor="middle" x="866" y="-13" font-family="Helvetica,sans-Serif" font-size="10.00">websocketpp/server.hpp</text>
</a>
</g>
</g>
<!-- Node18&#45;&gt;Node20 -->
<g id="edge21" class="edge">
<title>Node18&#45;&gt;Node20</title>
<path fill="none" stroke="midnightblue" d="M848.01,-67.48C851.03,-58.9 855.79,-45.43 859.65,-34.48"/>
<polygon fill="midnightblue" stroke="midnightblue" points="862.97,-35.6 863,-25.01 856.37,-33.27 862.97,-35.6"/>
</g>
<!-- Node18&#45;&gt;Node21 -->
<g id="edge24" class="edge">
<title>Node18&#45;&gt;Node21</title>
<path fill="none" stroke="midnightblue" d="M832.39,-67.48C818.28,-57.93 795.17,-42.31 778.25,-30.87"/>
<polygon fill="midnightblue" stroke="midnightblue" points="779.83,-27.71 769.58,-25.01 775.91,-33.51 779.83,-27.71"/>
</g>
<!-- Node22&#45;&gt;Node9 -->
<g id="edge26" class="edge">
<title>Node22&#45;&gt;Node9</title>
<path fill="none" stroke="midnightblue" d="M290.36,-68.48C293.26,-67.9 296.18,-67.4 299,-67 640.03,-19.11 729.19,-50.59 1073,-31 1137.77,-27.31 1213.44,-21.97 1255.53,-18.9"/>
<polygon fill="midnightblue" stroke="midnightblue" points="1256.01,-22.38 1265.72,-18.16 1255.5,-15.39 1256.01,-22.38"/>
</g>
<!-- Node22&#45;&gt;Node11 -->
<g id="edge27" class="edge">
<title>Node22&#45;&gt;Node11</title>
<path fill="none" stroke="midnightblue" d="M290.03,-67.85C327.12,-57.44 391.48,-39.38 433.14,-27.69"/>
<polygon fill="midnightblue" stroke="midnightblue" points="434.27,-31.01 442.95,-24.93 432.38,-24.27 434.27,-31.01"/>
</g>
<!-- Node22&#45;&gt;Node23 -->
<g id="edge28" class="edge">
<title>Node22&#45;&gt;Node23</title>
<path fill="none" stroke="midnightblue" d="M231.85,-68.22C193.07,-57.88 124.28,-39.52 79.94,-27.69"/>
<polygon fill="midnightblue" stroke="midnightblue" points="80.61,-24.25 70.05,-25.05 78.81,-31.01 80.61,-24.25"/>
</g>
<!-- Node26&#45;&gt;Node3 -->
<g id="edge42" class="edge">
<title>Node26&#45;&gt;Node3</title>
<path fill="none" stroke="midnightblue" d="M549.54,-239.1C624.54,-232.29 759.63,-218.54 874,-199 985.81,-179.89 1012.7,-169.46 1123,-143 1202.63,-123.9 1295.77,-99.68 1344.46,-86.87"/>
<polygon fill="midnightblue" stroke="midnightblue" points="1345.37,-90.25 1354.15,-84.32 1343.59,-83.48 1345.37,-90.25"/>
</g>
<!-- Node26&#45;&gt;Node7 -->
<g id="edge40" class="edge">
<title>Node26&#45;&gt;Node7</title>
<path fill="none" stroke="midnightblue" d="M549.67,-240.4C668.77,-232.92 950.56,-215.1 1187,-199 1213.59,-197.19 1243.32,-195.07 1267.23,-193.34"/>
<polygon fill="midnightblue" stroke="midnightblue" points="1267.71,-196.82 1277.43,-192.6 1267.2,-189.84 1267.71,-196.82"/>
</g>
<!-- Node26&#45;&gt;Node11 -->
<g id="edge41" class="edge">
<title>Node26&#45;&gt;Node11</title>
<path fill="none" stroke="midnightblue" d="M451.94,-235.44C360.83,-214.22 151.4,-154.51 223,-67 249.03,-35.19 368.8,-22.96 432.65,-18.64"/>
<polygon fill="midnightblue" stroke="midnightblue" points="433.01,-22.12 442.77,-17.99 432.56,-15.14 433.01,-22.12"/>
</g>
<!-- Node26&#45;&gt;Node15 -->
<g id="edge44" class="edge">
<title>Node26&#45;&gt;Node15</title>
<path fill="none" stroke="midnightblue" d="M434.43,-236.74C349.62,-225.85 199.99,-205.84 190,-199 153.87,-174.27 134.33,-124 125.99,-96.68"/>
<polygon fill="midnightblue" stroke="midnightblue" points="129.28,-95.47 123.16,-86.82 122.55,-97.4 129.28,-95.47"/>
</g>
<!-- Node26&#45;&gt;Node23 -->
<g id="edge43" class="edge">
<title>Node26&#45;&gt;Node23</title>
<path fill="none" stroke="midnightblue" d="M434.47,-236.57C342.24,-224.59 170.96,-202.03 165,-199 103.35,-167.67 91.07,-147.17 57,-87 47.84,-70.83 42.94,-50.05 40.43,-35.25"/>
<polygon fill="midnightblue" stroke="midnightblue" points="43.87,-34.65 38.94,-25.28 36.95,-35.68 43.87,-34.65"/>
</g>
<!-- Node27 -->
<g id="node27" class="node">
<title>Node27</title>
<g id="a_node27"><a xlink:href="TransactionMem_8h.html" target="_top" xlink:title=" ">
<polygon fill="white" stroke="black" points="759,-179.5 759,-198.5 865,-198.5 865,-179.5 759,-179.5"/>
<text text-anchor="middle" x="812" y="-186.5" font-family="Helvetica,sans-Serif" font-size="10.00">TransactionMem.h</text>
</a>
</g>
</g>
<!-- Node26&#45;&gt;Node27 -->
<g id="edge35" class="edge">
<title>Node26&#45;&gt;Node27</title>
<path fill="none" stroke="midnightblue" d="M542.7,-235.44C599.35,-225.89 691,-210.42 751.38,-200.23"/>
<polygon fill="midnightblue" stroke="midnightblue" points="752.25,-203.63 761.53,-198.52 751.09,-196.73 752.25,-203.63"/>
</g>
<!-- Node26&#45;&gt;Node28 -->
<g id="edge38" class="edge">
<title>Node26&#45;&gt;Node28</title>
<path fill="none" stroke="midnightblue" d="M434.24,-236.72C429.42,-236.13 424.63,-235.55 420,-235 279.65,-218.23 243.55,-221.5 104,-199 102.73,-198.8 101.44,-198.58 100.14,-198.35"/>
<polygon fill="midnightblue" stroke="midnightblue" points="100.55,-194.87 90.08,-196.47 99.26,-201.75 100.55,-194.87"/>
</g>
<!-- Node27&#45;&gt;Node8 -->
<g id="edge36" class="edge">
<title>Node27&#45;&gt;Node8</title>
<path fill="none" stroke="midnightblue" d="M812,-179.08C812,-172.01 812,-161.86 812,-152.99"/>
<polygon fill="midnightblue" stroke="midnightblue" points="815.5,-152.75 812,-142.75 808.5,-152.75 815.5,-152.75"/>
</g>
<!-- Node27&#45;&gt;Node9 -->
<g id="edge37" class="edge">
<title>Node27&#45;&gt;Node9</title>
<path fill="none" stroke="midnightblue" d="M860.59,-179.43C979.48,-158.23 1276.35,-103.84 1290,-87 1301.65,-72.63 1298.85,-50.65 1294.6,-35.06"/>
<polygon fill="midnightblue" stroke="midnightblue" points="1297.92,-33.95 1291.58,-25.46 1291.24,-36.05 1297.92,-33.95"/>
</g>
<!-- Node28&#45;&gt;Node15 -->
<g id="edge39" class="edge">
<title>Node28&#45;&gt;Node15</title>
<path fill="none" stroke="midnightblue" d="M65.71,-179.37C75.52,-161.38 98.34,-119.55 111.39,-95.63"/>
<polygon fill="midnightblue" stroke="midnightblue" points="114.6,-97.05 116.31,-86.59 108.45,-93.69 114.6,-97.05"/>
</g>
</g>
</svg>
