<?xml version="1.0" encoding="UTF-8" standalone="no"?>
<!DOCTYPE svg PUBLIC "-//W3C//DTD SVG 1.1//EN"
 "http://www.w3.org/Graphics/SVG/1.1/DTD/svg11.dtd">
<!-- Generated by graphviz version 2.43.0 (0)
 -->
<!-- Title: backend/customer/CustomerVisitor.cpp Pages: 1 -->
<!--zoomable 442 -->
<svg id="main" version="1.1" xmlns="http://www.w3.org/2000/svg" xmlns:xlink="http://www.w3.org/1999/xlink" xml:space="preserve" onload="init(evt)">
<style type="text/css"><![CDATA[
.edge:hover path { stroke: red; }
.edge:hover polygon { stroke: red; fill: red; }
]]></style>
<script type="text/javascript"><![CDATA[
var edges = document.getElementsByTagName('g');
if (edges && edges.length) {
  for (var i=0;i<edges.length;i++) {
    if (edges[i].id.substr(0,4)=='edge') {
      edges[i].setAttribute('class','edge');
    }
  }
}
]]></script>
        <defs>
                <circle id="rim" cx="0" cy="0" r="7"/>
                <circle id="rim2" cx="0" cy="0" r="3.5"/>
                <g id="zoomPlus">
                        <use xlink:href="#rim" fill="#404040">
                                <set attributeName="fill" to="#808080" begin="zoomplus.mouseover" end="zoomplus.mouseout"/>
                        </use>
                        <path d="M-4,0h8M0,-4v8" fill="none" stroke="white" stroke-width="1.5" pointer-events="none"/>
                </g>
                <g id="zoomMin">
                        <use xlink:href="#rim" fill="#404040">
                                <set attributeName="fill" to="#808080" begin="zoomminus.mouseover" end="zoomminus.mouseout"/>
                        </use>
                        <path d="M-4,0h8" fill="none" stroke="white" stroke-width="1.5" pointer-events="none"/>
                </g>
                <g id="dirArrow">
                        <path fill="none" stroke="white" stroke-width="1.5" d="M0,-3.0v7 M-2.5,-0.5L0,-3.0L2.5,-0.5"/>
                </g>
               <g id="resetDef">
                       <use xlink:href="#rim2" fill="#404040">
                               <set attributeName="fill" to="#808080" begin="reset.mouseover" end="reset.mouseout"/>
                       </use>
               </g>
        </defs>

<script type="text/javascript">
var viewWidth = 1615;
var viewHeight = 442;
var sectionId = 'dynsection-0';
</script>
<script xlink:href="svgpan.js"/>
<svg id="graph" class="graph">
<g id="viewport">
<title>backend/customer/CustomerVisitor.cpp</title>
<polygon fill="white" stroke="transparent" points="-4,4 -4,-438 1611,-438 1611,4 -4,4"/>
<!-- Node1 -->
<g id="node1" class="node">
<title>Node1</title>
<g id="a_node1"><a xlink:title="Implements the CustomerVisitor base class functionality.">
<polygon fill="#bfbfbf" stroke="black" points="450,-403.5 450,-433.5 606,-433.5 606,-403.5 450,-403.5"/>
<text text-anchor="start" x="458" y="-421.5" font-family="Helvetica,sans-Serif" font-size="10.00">backend/customer/Customer</text>
<text text-anchor="middle" x="528" y="-410.5" font-family="Helvetica,sans-Serif" font-size="10.00">Visitor.cpp</text>
</a>
</g>
</g>
<!-- Node2 -->
<g id="node2" class="node">
<title>Node2</title>
<g id="a_node2"><a xlink:href="CustomerVisitor_8h_source.html" target="_top" xlink:title=" ">
<polygon fill="white" stroke="black" points="331,-347.5 331,-366.5 435,-366.5 435,-347.5 331,-347.5"/>
<text text-anchor="middle" x="383" y="-354.5" font-family="Helvetica,sans-Serif" font-size="10.00">CustomerVisitor.h</text>
</a>
</g>
</g>
<!-- Node1&#45;&gt;Node2 -->
<g id="edge1" class="edge">
<title>Node1&#45;&gt;Node2</title>
<path fill="none" stroke="midnightblue" d="M493.64,-403.4C469.31,-393.42 436.97,-380.15 413.54,-370.53"/>
<polygon fill="midnightblue" stroke="midnightblue" points="414.68,-367.22 404.1,-366.66 412.02,-373.69 414.68,-367.22"/>
</g>
<!-- Node7 -->
<g id="node7" class="node">
<title>Node7</title>
<g id="a_node7"><a xlink:href="Inventory_8h_source.html" target="_top" xlink:title=" ">
<polygon fill="white" stroke="black" points="573.5,-179.5 573.5,-198.5 644.5,-198.5 644.5,-179.5 573.5,-179.5"/>
<text text-anchor="middle" x="609" y="-186.5" font-family="Helvetica,sans-Serif" font-size="10.00">Inventory.h</text>
</a>
</g>
</g>
<!-- Node1&#45;&gt;Node7 -->
<g id="edge58" class="edge">
<title>Node1&#45;&gt;Node7</title>
<path fill="none" stroke="midnightblue" d="M533.07,-403.27C547.15,-363.73 586.73,-252.55 602.45,-208.4"/>
<polygon fill="midnightblue" stroke="midnightblue" points="605.76,-209.52 605.82,-198.93 599.17,-207.17 605.76,-209.52"/>
</g>
<!-- Node3 -->
<g id="node3" class="node">
<title>Node3</title>
<g id="a_node3"><a xlink:title=" ">
<polygon fill="white" stroke="#bfbfbf" points="235.5,-67.5 235.5,-86.5 282.5,-86.5 282.5,-67.5 235.5,-67.5"/>
<text text-anchor="middle" x="259" y="-74.5" font-family="Helvetica,sans-Serif" font-size="10.00">vector</text>
</a>
</g>
</g>
<!-- Node2&#45;&gt;Node3 -->
<g id="edge2" class="edge">
<title>Node2&#45;&gt;Node3</title>
<path fill="none" stroke="midnightblue" d="M377.72,-347.23C367.27,-329.04 345,-285.6 345,-246 345,-246 345,-246 345,-188 345,-146.58 306.69,-111.45 281.21,-92.67"/>
<polygon fill="midnightblue" stroke="midnightblue" points="283,-89.64 272.82,-86.72 278.95,-95.36 283,-89.64"/>
</g>
<!-- Node4 -->
<g id="node4" class="node">
<title>Node4</title>
<g id="a_node4"><a xlink:title=" ">
<polygon fill="white" stroke="#bfbfbf" points="301,-67.5 301,-86.5 365,-86.5 365,-67.5 301,-67.5"/>
<text text-anchor="middle" x="333" y="-74.5" font-family="Helvetica,sans-Serif" font-size="10.00">algorithm</text>
</a>
</g>
</g>
<!-- Node2&#45;&gt;Node4 -->
<g id="edge3" class="edge">
<title>Node2&#45;&gt;Node4</title>
<path fill="none" stroke="midnightblue" d="M388.28,-347.23C398.73,-329.04 421,-285.6 421,-246 421,-246 421,-246 421,-188 421,-146.03 381.46,-110.9 355.39,-92.3"/>
<polygon fill="midnightblue" stroke="midnightblue" points="357.36,-89.41 347.14,-86.64 353.4,-95.18 357.36,-89.41"/>
</g>
<!-- Node5 -->
<g id="node5" class="node">
<title>Node5</title>
<g id="a_node5"><a xlink:title=" ">
<polygon fill="white" stroke="#bfbfbf" points="263.5,-291.5 263.5,-310.5 316.5,-310.5 316.5,-291.5 263.5,-291.5"/>
<text text-anchor="middle" x="290" y="-298.5" font-family="Helvetica,sans-Serif" font-size="10.00">cstddef</text>
</a>
</g>
</g>
<!-- Node2&#45;&gt;Node5 -->
<g id="edge4" class="edge">
<title>Node2&#45;&gt;Node5</title>
<path fill="none" stroke="midnightblue" d="M368.06,-347.32C353.41,-338.82 330.87,-325.73 313.76,-315.8"/>
<polygon fill="midnightblue" stroke="midnightblue" points="315.31,-312.65 304.9,-310.65 311.8,-318.7 315.31,-312.65"/>
</g>
<!-- Node6 -->
<g id="node6" class="node">
<title>Node6</title>
<g id="a_node6"><a xlink:href="SalesFloor_8h.html" target="_top" xlink:title=" ">
<polygon fill="white" stroke="black" points="169,-291.5 169,-310.5 245,-310.5 245,-291.5 169,-291.5"/>
<text text-anchor="middle" x="207" y="-298.5" font-family="Helvetica,sans-Serif" font-size="10.00">SalesFloor.h</text>
</a>
</g>
</g>
<!-- Node2&#45;&gt;Node6 -->
<g id="edge5" class="edge">
<title>Node2&#45;&gt;Node6</title>
<path fill="none" stroke="midnightblue" d="M355.11,-347.44C325.25,-338.28 277.69,-323.69 244.54,-313.52"/>
<polygon fill="midnightblue" stroke="midnightblue" points="245.34,-310.1 234.76,-310.52 243.29,-316.8 245.34,-310.1"/>
</g>
<!-- Node8 -->
<g id="node8" class="node">
<title>Node8</title>
<g id="a_node8"><a xlink:href="Plant_8h.html" target="_top" xlink:title="Defines the abstract base class for all Plant objects used in the system.">
<polygon fill="white" stroke="black" points="690,-123.5 690,-142.5 740,-142.5 740,-123.5 690,-123.5"/>
<text text-anchor="middle" x="715" y="-130.5" font-family="Helvetica,sans-Serif" font-size="10.00">Plant.h</text>
</a>
</g>
</g>
<!-- Node2&#45;&gt;Node8 -->
<g id="edge57" class="edge">
<title>Node2&#45;&gt;Node8</title>
<path fill="none" stroke="midnightblue" d="M401.81,-347.36C447.44,-325.95 566.58,-267.17 653,-199 671.45,-184.44 689.67,-164.5 701.53,-150.55"/>
<polygon fill="midnightblue" stroke="midnightblue" points="704.32,-152.67 708.04,-142.75 698.95,-148.19 704.32,-152.67"/>
</g>
<!-- Node6&#45;&gt;Node3 -->
<g id="edge54" class="edge">
<title>Node6&#45;&gt;Node3</title>
<path fill="none" stroke="midnightblue" d="M238.02,-291.44C256.03,-284.69 277.23,-273.3 288,-255 318.34,-203.44 286.81,-129.58 269.18,-95.93"/>
<polygon fill="midnightblue" stroke="midnightblue" points="272.09,-93.96 264.24,-86.85 265.95,-97.3 272.09,-93.96"/>
</g>
<!-- Node6&#45;&gt;Node7 -->
<g id="edge6" class="edge">
<title>Node6&#45;&gt;Node7</title>
<path fill="none" stroke="midnightblue" d="M238.21,-291.46C310.12,-271.78 487.48,-223.25 568.02,-201.21"/>
<polygon fill="midnightblue" stroke="midnightblue" points="569.09,-204.55 577.81,-198.53 567.24,-197.8 569.09,-204.55"/>
</g>
<!-- Node23 -->
<g id="node23" class="node">
<title>Node23</title>
<g id="a_node23"><a xlink:title=" ">
<polygon fill="white" stroke="#bfbfbf" points="8.5,-6 8.5,-25 73.5,-25 73.5,-6 8.5,-6"/>
<text text-anchor="middle" x="41" y="-13" font-family="Helvetica,sans-Serif" font-size="10.00">stdexcept</text>
</a>
</g>
</g>
<!-- Node6&#45;&gt;Node23 -->
<g id="edge56" class="edge">
<title>Node6&#45;&gt;Node23</title>
<path fill="none" stroke="midnightblue" d="M168.55,-296.74C108.69,-289.34 0,-265.49 0,-190 0,-190 0,-190 0,-132 0,-95.47 18.44,-55.98 30.59,-33.94"/>
<polygon fill="midnightblue" stroke="midnightblue" points="33.71,-35.53 35.64,-25.11 27.64,-32.05 33.71,-35.53"/>
</g>
<!-- Node28 -->
<g id="node28" class="node">
<title>Node28</title>
<g id="a_node28"><a xlink:href="TransactionHistory_8h.html" target="_top" xlink:title=" ">
<polygon fill="white" stroke="black" points="91.5,-235.5 91.5,-254.5 206.5,-254.5 206.5,-235.5 91.5,-235.5"/>
<text text-anchor="middle" x="149" y="-242.5" font-family="Helvetica,sans-Serif" font-size="10.00">TransactionHistory.h</text>
</a>
</g>
</g>
<!-- Node6&#45;&gt;Node28 -->
<g id="edge42" class="edge">
<title>Node6&#45;&gt;Node28</title>
<path fill="none" stroke="midnightblue" d="M197.68,-291.32C189.11,-283.34 176.19,-271.31 165.81,-261.65"/>
<polygon fill="midnightblue" stroke="midnightblue" points="168.19,-259.09 158.49,-254.83 163.42,-264.21 168.19,-259.09"/>
</g>
<!-- Node30 -->
<g id="node30" class="node">
<title>Node30</title>
<g id="a_node30"><a xlink:href="Ledger_8h_source.html" target="_top" xlink:title=" ">
<polygon fill="white" stroke="black" points="28,-179.5 28,-198.5 86,-198.5 86,-179.5 28,-179.5"/>
<text text-anchor="middle" x="57" y="-186.5" font-family="Helvetica,sans-Serif" font-size="10.00">Ledger.h</text>
</a>
</g>
</g>
<!-- Node6&#45;&gt;Node30 -->
<g id="edge53" class="edge">
<title>Node6&#45;&gt;Node30</title>
<path fill="none" stroke="midnightblue" d="M168.93,-294.86C141.56,-289.33 105.49,-277.99 82,-255 69.45,-242.72 63.1,-223.46 59.95,-209.09"/>
<polygon fill="midnightblue" stroke="midnightblue" points="63.31,-208.04 58.05,-198.84 56.43,-209.31 63.31,-208.04"/>
</g>
<!-- Node31 -->
<g id="node31" class="node">
<title>Node31</title>
<g id="a_node31"><a xlink:title=" ">
<polygon fill="white" stroke="#bfbfbf" points="225,-235.5 225,-254.5 279,-254.5 279,-235.5 225,-235.5"/>
<text text-anchor="middle" x="252" y="-242.5" font-family="Helvetica,sans-Serif" font-size="10.00">random</text>
</a>
</g>
</g>
<!-- Node6&#45;&gt;Node31 -->
<g id="edge55" class="edge">
<title>Node6&#45;&gt;Node31</title>
<path fill="none" stroke="midnightblue" d="M214.43,-291.08C220.85,-283.38 230.31,-272.03 238.12,-262.65"/>
<polygon fill="midnightblue" stroke="midnightblue" points="240.99,-264.67 244.71,-254.75 235.62,-260.19 240.99,-264.67"/>
</g>
<!-- Node7&#45;&gt;Node3 -->
<g id="edge40" class="edge">
<title>Node7&#45;&gt;Node3</title>
<path fill="none" stroke="midnightblue" d="M581.83,-179.46C518.58,-159.58 361.66,-110.26 292.57,-88.55"/>
<polygon fill="midnightblue" stroke="midnightblue" points="293.24,-85.09 282.65,-85.43 291.14,-91.77 293.24,-85.09"/>
</g>
<!-- Node7&#45;&gt;Node8 -->
<g id="edge7" class="edge">
<title>Node7&#45;&gt;Node8</title>
<path fill="none" stroke="midnightblue" d="M626.03,-179.32C643.03,-170.66 669.38,-157.24 688.99,-147.25"/>
<polygon fill="midnightblue" stroke="midnightblue" points="690.69,-150.31 698.01,-142.65 687.51,-144.08 690.69,-150.31"/>
</g>
<!-- Node9 -->
<g id="node9" class="node">
<title>Node9</title>
<g id="a_node9"><a xlink:title=" ">
<polygon fill="white" stroke="#bfbfbf" points="657,-6 657,-25 701,-25 701,-6 657,-6"/>
<text text-anchor="middle" x="679" y="-13" font-family="Helvetica,sans-Serif" font-size="10.00">string</text>
</a>
</g>
</g>
<!-- Node7&#45;&gt;Node9 -->
<g id="edge41" class="edge">
<title>Node7&#45;&gt;Node9</title>
<path fill="none" stroke="midnightblue" d="M612.57,-179.26C623.52,-152.42 656.83,-70.82 671.7,-34.39"/>
<polygon fill="midnightblue" stroke="midnightblue" points="674.98,-35.6 675.52,-25.02 668.5,-32.96 674.98,-35.6"/>
</g>
<!-- Node8&#45;&gt;Node3 -->
<g id="edge10" class="edge">
<title>Node8&#45;&gt;Node3</title>
<path fill="none" stroke="midnightblue" d="M689.82,-129.56C609.4,-121.73 360.51,-97.26 292.59,-86.65"/>
<polygon fill="midnightblue" stroke="midnightblue" points="293.13,-83.19 282.69,-84.95 291.95,-90.09 293.13,-83.19"/>
</g>
<!-- Node8&#45;&gt;Node4 -->
<g id="edge11" class="edge">
<title>Node8&#45;&gt;Node4</title>
<path fill="none" stroke="midnightblue" d="M689.63,-129.13C633.49,-122.66 494.56,-106.03 379,-87 377.74,-86.79 376.45,-86.58 375.16,-86.35"/>
<polygon fill="midnightblue" stroke="midnightblue" points="375.59,-82.87 365.13,-84.54 374.35,-89.76 375.59,-82.87"/>
</g>
<!-- Node8&#45;&gt;Node9 -->
<g id="edge8" class="edge">
<title>Node8&#45;&gt;Node9</title>
<path fill="none" stroke="midnightblue" d="M711.49,-123.46C707.86,-114.48 702.16,-99.88 698,-87 692.41,-69.68 687.11,-49.6 683.54,-35.32"/>
<polygon fill="midnightblue" stroke="midnightblue" points="686.85,-34.14 681.07,-25.26 680.05,-35.81 686.85,-34.14"/>
</g>
<!-- Node10 -->
<g id="node10" class="node">
<title>Node10</title>
<g id="a_node10"><a xlink:title=" ">
<polygon fill="white" stroke="#bfbfbf" points="783,-67.5 783,-86.5 821,-86.5 821,-67.5 783,-67.5"/>
<text text-anchor="middle" x="802" y="-74.5" font-family="Helvetica,sans-Serif" font-size="10.00">map</text>
</a>
</g>
</g>
<!-- Node8&#45;&gt;Node10 -->
<g id="edge9" class="edge">
<title>Node8&#45;&gt;Node10</title>
<path fill="none" stroke="midnightblue" d="M728.98,-123.32C742.55,-114.9 763.38,-101.97 779.32,-92.07"/>
<polygon fill="midnightblue" stroke="midnightblue" points="781.41,-94.9 788.06,-86.65 777.71,-88.95 781.41,-94.9"/>
</g>
<!-- Node11 -->
<g id="node11" class="node">
<title>Node11</title>
<g id="a_node11"><a xlink:title=" ">
<polygon fill="white" stroke="#bfbfbf" points="295,-6 295,-25 355,-25 355,-6 295,-6"/>
<text text-anchor="middle" x="325" y="-13" font-family="Helvetica,sans-Serif" font-size="10.00">iostream</text>
</a>
</g>
</g>
<!-- Node8&#45;&gt;Node11 -->
<g id="edge12" class="edge">
<title>Node8&#45;&gt;Node11</title>
<path fill="none" stroke="midnightblue" d="M689.83,-132.65C636.29,-133.1 508.15,-129.27 412,-87 382.94,-74.22 355.56,-49.07 339.53,-32.52"/>
<polygon fill="midnightblue" stroke="midnightblue" points="342.03,-30.06 332.62,-25.18 336.93,-34.86 342.03,-30.06"/>
</g>
<!-- Node12 -->
<g id="node12" class="node">
<title>Node12</title>
<g id="a_node12"><a xlink:title=" ">
<polygon fill="white" stroke="#bfbfbf" points="839.5,-67.5 839.5,-86.5 952.5,-86.5 952.5,-67.5 839.5,-67.5"/>
<text text-anchor="middle" x="896" y="-74.5" font-family="Helvetica,sans-Serif" font-size="10.00">boost/uuid/uuid.hpp</text>
</a>
</g>
</g>
<!-- Node8&#45;&gt;Node12 -->
<g id="edge13" class="edge">
<title>Node8&#45;&gt;Node12</title>
<path fill="none" stroke="midnightblue" d="M740.17,-124.49C770.58,-115.42 822.07,-100.06 857.49,-89.49"/>
<polygon fill="midnightblue" stroke="midnightblue" points="858.89,-92.72 867.47,-86.51 856.89,-86.02 858.89,-92.72"/>
</g>
<!-- Node13 -->
<g id="node13" class="node">
<title>Node13</title>
<g id="a_node13"><a xlink:title=" ">
<polygon fill="white" stroke="#bfbfbf" points="971,-67.5 971,-86.5 1141,-86.5 1141,-67.5 971,-67.5"/>
<text text-anchor="middle" x="1056" y="-74.5" font-family="Helvetica,sans-Serif" font-size="10.00">boost/uuid/uuid_generators.hpp</text>
</a>
</g>
</g>
<!-- Node8&#45;&gt;Node13 -->
<g id="edge14" class="edge">
<title>Node8&#45;&gt;Node13</title>
<path fill="none" stroke="midnightblue" d="M740.07,-128.03C792.7,-119.7 916.07,-100.16 992.13,-88.11"/>
<polygon fill="midnightblue" stroke="midnightblue" points="992.75,-91.56 1002.08,-86.54 991.66,-84.65 992.75,-91.56"/>
</g>
<!-- Node14 -->
<g id="node14" class="node">
<title>Node14</title>
<g id="a_node14"><a xlink:title=" ">
<polygon fill="white" stroke="#bfbfbf" points="1159.5,-67.5 1159.5,-86.5 1286.5,-86.5 1286.5,-67.5 1159.5,-67.5"/>
<text text-anchor="middle" x="1223" y="-74.5" font-family="Helvetica,sans-Serif" font-size="10.00">boost/uuid/uuid_io.hpp</text>
</a>
</g>
</g>
<!-- Node8&#45;&gt;Node14 -->
<g id="edge15" class="edge">
<title>Node8&#45;&gt;Node14</title>
<path fill="none" stroke="midnightblue" d="M740.03,-129.58C805.35,-123.24 986.58,-105.41 1149.12,-87.08"/>
<polygon fill="midnightblue" stroke="midnightblue" points="1149.76,-90.53 1159.31,-85.93 1148.98,-83.57 1149.76,-90.53"/>
</g>
<!-- Node15 -->
<g id="node15" class="node">
<title>Node15</title>
<g id="a_node15"><a xlink:title=" ">
<polygon fill="white" stroke="#bfbfbf" points="69,-67.5 69,-86.5 179,-86.5 179,-67.5 69,-67.5"/>
<text text-anchor="middle" x="124" y="-74.5" font-family="Helvetica,sans-Serif" font-size="10.00">nlohmann/json.hpp</text>
</a>
</g>
</g>
<!-- Node8&#45;&gt;Node15 -->
<g id="edge16" class="edge">
<title>Node8&#45;&gt;Node15</title>
<path fill="none" stroke="midnightblue" d="M689.98,-129.71C604.1,-121.87 319.43,-95.86 189.58,-83.99"/>
<polygon fill="midnightblue" stroke="midnightblue" points="189.66,-80.48 179.38,-83.06 189.02,-87.46 189.66,-80.48"/>
</g>
<!-- Node16 -->
<g id="node16" class="node">
<title>Node16</title>
<g id="a_node16"><a xlink:title=" ">
<polygon fill="white" stroke="#bfbfbf" points="1491,-6 1491,-25 1539,-25 1539,-6 1491,-6"/>
<text text-anchor="middle" x="1515" y="-13" font-family="Helvetica,sans-Serif" font-size="10.00">thread</text>
</a>
</g>
</g>
<!-- Node8&#45;&gt;Node16 -->
<g id="edge17" class="edge">
<title>Node8&#45;&gt;Node16</title>
<path fill="none" stroke="midnightblue" d="M740.34,-132.05C866.21,-132.1 1420.58,-129.85 1483,-87 1500.11,-75.26 1508.22,-52.04 1511.96,-35.46"/>
<polygon fill="midnightblue" stroke="midnightblue" points="1515.47,-35.74 1513.91,-25.26 1508.6,-34.42 1515.47,-35.74"/>
</g>
<!-- Node17 -->
<g id="node17" class="node">
<title>Node17</title>
<g id="a_node17"><a xlink:title=" ">
<polygon fill="white" stroke="#bfbfbf" points="1557,-6 1557,-25 1607,-25 1607,-6 1557,-6"/>
<text text-anchor="middle" x="1582" y="-13" font-family="Helvetica,sans-Serif" font-size="10.00">atomic</text>
</a>
</g>
</g>
<!-- Node8&#45;&gt;Node17 -->
<g id="edge18" class="edge">
<title>Node8&#45;&gt;Node17</title>
<path fill="none" stroke="midnightblue" d="M740.35,-131.56C867.57,-129.25 1433.17,-117.3 1505,-87 1532.16,-75.54 1555.89,-50.19 1569.59,-33.22"/>
<polygon fill="midnightblue" stroke="midnightblue" points="1572.42,-35.27 1575.8,-25.23 1566.9,-30.97 1572.42,-35.27"/>
</g>
<!-- Node18 -->
<g id="node18" class="node">
<title>Node18</title>
<g id="a_node18"><a xlink:href="GreenSock_8h.html" target="_top" xlink:title=" ">
<polygon fill="white" stroke="black" points="497,-67.5 497,-86.5 575,-86.5 575,-67.5 497,-67.5"/>
<text text-anchor="middle" x="536" y="-74.5" font-family="Helvetica,sans-Serif" font-size="10.00">GreenSock.h</text>
</a>
</g>
</g>
<!-- Node8&#45;&gt;Node18 -->
<g id="edge19" class="edge">
<title>Node8&#45;&gt;Node18</title>
<path fill="none" stroke="midnightblue" d="M689.73,-124.38C659.65,-115.3 609.1,-100.05 574.22,-89.53"/>
<polygon fill="midnightblue" stroke="midnightblue" points="574.97,-86.1 564.39,-86.56 572.95,-92.8 574.97,-86.1"/>
</g>
<!-- Node21 -->
<g id="node21" class="node">
<title>Node21</title>
<g id="a_node21"><a xlink:title=" ">
<polygon fill="white" stroke="#bfbfbf" points="1234,-6 1234,-25 1282,-25 1282,-6 1234,-6"/>
<text text-anchor="middle" x="1258" y="-13" font-family="Helvetica,sans-Serif" font-size="10.00">mutex</text>
</a>
</g>
</g>
<!-- Node8&#45;&gt;Node21 -->
<g id="edge39" class="edge">
<title>Node8&#45;&gt;Node21</title>
<path fill="none" stroke="midnightblue" d="M740.28,-132.01C847.11,-131.8 1257.77,-128.3 1296,-87 1311.1,-70.69 1292.53,-47.26 1276.45,-31.96"/>
<polygon fill="midnightblue" stroke="midnightblue" points="1278.68,-29.27 1268.91,-25.17 1274,-34.47 1278.68,-29.27"/>
</g>
<!-- Node22 -->
<g id="node22" class="node">
<title>Node22</title>
<g id="a_node22"><a xlink:href="Logger_8h.html" target="_top" xlink:title="Header for Strategy Logger.">
<polygon fill="white" stroke="black" points="421,-67.5 421,-86.5 479,-86.5 479,-67.5 421,-67.5"/>
<text text-anchor="middle" x="450" y="-74.5" font-family="Helvetica,sans-Serif" font-size="10.00">Logger.h</text>
</a>
</g>
</g>
<!-- Node8&#45;&gt;Node22 -->
<g id="edge25" class="edge">
<title>Node8&#45;&gt;Node22</title>
<path fill="none" stroke="midnightblue" d="M689.74,-127.31C649.49,-119.76 568.06,-104.22 489.13,-87.18"/>
<polygon fill="midnightblue" stroke="midnightblue" points="489.54,-83.69 479.02,-84.99 488.05,-90.53 489.54,-83.69"/>
</g>
<!-- Node24 -->
<g id="node24" class="node">
<title>Node24</title>
<g id="a_node24"><a xlink:href="ThreadSafeQueue_8h_source.html" target="_top" xlink:title=" ">
<polygon fill="white" stroke="black" points="1343.5,-67.5 1343.5,-86.5 1456.5,-86.5 1456.5,-67.5 1343.5,-67.5"/>
<text text-anchor="middle" x="1400" y="-74.5" font-family="Helvetica,sans-Serif" font-size="10.00">ThreadSafeQueue.h</text>
</a>
</g>
</g>
<!-- Node8&#45;&gt;Node24 -->
<g id="edge29" class="edge">
<title>Node8&#45;&gt;Node24</title>
<path fill="none" stroke="midnightblue" d="M740.19,-130.63C823.97,-125.99 1100.87,-109.8 1329,-87 1330.47,-86.85 1331.95,-86.7 1333.45,-86.54"/>
<polygon fill="midnightblue" stroke="midnightblue" points="1333.89,-90.02 1343.45,-85.44 1333.13,-83.06 1333.89,-90.02"/>
</g>
<!-- Node25 -->
<g id="node25" class="node">
<title>Node25</title>
<g id="a_node25"><a xlink:title=" ">
<polygon fill="white" stroke="#bfbfbf" points="1425.5,-6 1425.5,-25 1472.5,-25 1472.5,-6 1425.5,-6"/>
<text text-anchor="middle" x="1449" y="-13" font-family="Helvetica,sans-Serif" font-size="10.00">queue</text>
</a>
</g>
</g>
<!-- Node8&#45;&gt;Node25 -->
<g id="edge37" class="edge">
<title>Node8&#45;&gt;Node25</title>
<path fill="none" stroke="midnightblue" d="M740.33,-131.45C868.5,-128.53 1440.56,-114.01 1466,-87 1479.44,-72.73 1470.24,-49.74 1460.98,-33.92"/>
<polygon fill="midnightblue" stroke="midnightblue" points="1463.71,-31.7 1455.4,-25.13 1457.8,-35.45 1463.71,-31.7"/>
</g>
<!-- Node27 -->
<g id="node27" class="node">
<title>Node27</title>
<g id="a_node27"><a xlink:title=" ">
<polygon fill="white" stroke="#bfbfbf" points="707,-67.5 707,-86.5 765,-86.5 765,-67.5 707,-67.5"/>
<text text-anchor="middle" x="736" y="-74.5" font-family="Helvetica,sans-Serif" font-size="10.00">memory</text>
</a>
</g>
</g>
<!-- Node8&#45;&gt;Node27 -->
<g id="edge38" class="edge">
<title>Node8&#45;&gt;Node27</title>
<path fill="none" stroke="midnightblue" d="M718.47,-123.08C721.31,-115.77 725.43,-105.18 728.96,-96.1"/>
<polygon fill="midnightblue" stroke="midnightblue" points="732.23,-97.34 732.6,-86.75 725.71,-94.8 732.23,-97.34"/>
</g>
<!-- Node18&#45;&gt;Node9 -->
<g id="edge23" class="edge">
<title>Node18&#45;&gt;Node9</title>
<path fill="none" stroke="midnightblue" d="M558.46,-67.4C581.19,-58.6 617.25,-44.36 648,-31 649.2,-30.48 650.41,-29.94 651.64,-29.4"/>
<polygon fill="midnightblue" stroke="midnightblue" points="653.4,-32.44 661.05,-25.1 650.49,-26.07 653.4,-32.44"/>
</g>
<!-- Node18&#45;&gt;Node11 -->
<g id="edge22" class="edge">
<title>Node18&#45;&gt;Node11</title>
<path fill="none" stroke="midnightblue" d="M499.12,-67.48C464.09,-59.13 410.06,-45.55 364,-31 361.44,-30.19 358.8,-29.31 356.16,-28.4"/>
<polygon fill="midnightblue" stroke="midnightblue" points="357.33,-25.1 346.73,-25.02 354.96,-31.69 357.33,-25.1"/>
</g>
<!-- Node19 -->
<g id="node19" class="node">
<title>Node19</title>
<g id="a_node19"><a xlink:title=" ">
<polygon fill="white" stroke="#bfbfbf" points="373.5,-0.5 373.5,-30.5 486.5,-30.5 486.5,-0.5 373.5,-0.5"/>
<text text-anchor="start" x="381.5" y="-18.5" font-family="Helvetica,sans-Serif" font-size="10.00">websocketpp/config</text>
<text text-anchor="middle" x="430" y="-7.5" font-family="Helvetica,sans-Serif" font-size="10.00">/asio_no_tls.hpp</text>
</a>
</g>
</g>
<!-- Node18&#45;&gt;Node19 -->
<g id="edge20" class="edge">
<title>Node18&#45;&gt;Node19</title>
<path fill="none" stroke="midnightblue" d="M520.81,-67.48C505.99,-59.15 482.92,-46.21 463.75,-35.45"/>
<polygon fill="midnightblue" stroke="midnightblue" points="465.42,-32.37 454.98,-30.52 461.99,-38.47 465.42,-32.37"/>
</g>
<!-- Node20 -->
<g id="node20" class="node">
<title>Node20</title>
<g id="a_node20"><a xlink:title=" ">
<polygon fill="white" stroke="#bfbfbf" points="505,-6 505,-25 639,-25 639,-6 505,-6"/>
<text text-anchor="middle" x="572" y="-13" font-family="Helvetica,sans-Serif" font-size="10.00">websocketpp/server.hpp</text>
</a>
</g>
</g>
<!-- Node18&#45;&gt;Node20 -->
<g id="edge21" class="edge">
<title>Node18&#45;&gt;Node20</title>
<path fill="none" stroke="midnightblue" d="M541.16,-67.48C546.45,-58.73 554.84,-44.87 561.53,-33.81"/>
<polygon fill="midnightblue" stroke="midnightblue" points="564.67,-35.38 566.85,-25.01 558.68,-31.75 564.67,-35.38"/>
</g>
<!-- Node18&#45;&gt;Node21 -->
<g id="edge24" class="edge">
<title>Node18&#45;&gt;Node21</title>
<path fill="none" stroke="midnightblue" d="M575.07,-72.78C702.32,-62.29 1103.52,-29.23 1223.67,-19.33"/>
<polygon fill="midnightblue" stroke="midnightblue" points="1224.09,-22.81 1233.77,-18.5 1223.51,-15.83 1224.09,-22.81"/>
</g>
<!-- Node22&#45;&gt;Node9 -->
<g id="edge26" class="edge">
<title>Node22&#45;&gt;Node9</title>
<path fill="none" stroke="midnightblue" d="M479.04,-69.09C482.06,-68.38 485.09,-67.67 488,-67 559.02,-50.6 579.03,-54.58 648,-31 649.66,-30.43 651.35,-29.8 653.05,-29.13"/>
<polygon fill="midnightblue" stroke="midnightblue" points="654.77,-32.2 662.54,-25 651.97,-25.78 654.77,-32.2"/>
</g>
<!-- Node22&#45;&gt;Node11 -->
<g id="edge27" class="edge">
<title>Node22&#45;&gt;Node11</title>
<path fill="none" stroke="midnightblue" d="M432.09,-67.48C411.11,-57.49 376.15,-40.85 351.91,-29.31"/>
<polygon fill="midnightblue" stroke="midnightblue" points="353.41,-26.15 342.88,-25.01 350.4,-32.47 353.41,-26.15"/>
</g>
<!-- Node22&#45;&gt;Node23 -->
<g id="edge28" class="edge">
<title>Node22&#45;&gt;Node23</title>
<path fill="none" stroke="midnightblue" d="M420.91,-71.77C349.86,-61.43 167.18,-34.86 83.73,-22.72"/>
<polygon fill="midnightblue" stroke="midnightblue" points="83.98,-19.22 73.58,-21.24 82.97,-26.14 83.98,-19.22"/>
</g>
<!-- Node24&#45;&gt;Node9 -->
<g id="edge35" class="edge">
<title>Node24&#45;&gt;Node9</title>
<path fill="none" stroke="midnightblue" d="M1343.33,-71.05C1327.97,-69.72 1311.35,-68.29 1296,-67 1072.19,-48.16 802.63,-26.43 711.15,-19.08"/>
<polygon fill="midnightblue" stroke="midnightblue" points="711.39,-15.59 701.14,-18.27 710.83,-22.56 711.39,-15.59"/>
</g>
<!-- Node24&#45;&gt;Node11 -->
<g id="edge30" class="edge">
<title>Node24&#45;&gt;Node11</title>
<path fill="none" stroke="midnightblue" d="M1343.36,-70.6C1328,-69.28 1311.37,-67.96 1296,-67 1089.14,-54.06 567.25,-71.63 364,-31 360.74,-30.35 357.39,-29.46 354.1,-28.45"/>
<polygon fill="midnightblue" stroke="midnightblue" points="355.08,-25.09 344.49,-25.12 352.79,-31.7 355.08,-25.09"/>
</g>
<!-- Node24&#45;&gt;Node16 -->
<g id="edge31" class="edge">
<title>Node24&#45;&gt;Node16</title>
<path fill="none" stroke="midnightblue" d="M1416.48,-67.48C1435.61,-57.58 1467.37,-41.14 1489.65,-29.62"/>
<polygon fill="midnightblue" stroke="midnightblue" points="1491.28,-32.71 1498.55,-25.01 1488.06,-26.5 1491.28,-32.71"/>
</g>
<!-- Node24&#45;&gt;Node17 -->
<g id="edge36" class="edge">
<title>Node24&#45;&gt;Node17</title>
<path fill="none" stroke="midnightblue" d="M1431.51,-67.49C1461.69,-59.08 1508.38,-45.42 1548,-31 1549.66,-30.4 1551.35,-29.75 1553.06,-29.09"/>
<polygon fill="midnightblue" stroke="midnightblue" points="1554.79,-32.16 1562.73,-25.15 1552.14,-25.68 1554.79,-32.16"/>
</g>
<!-- Node24&#45;&gt;Node21 -->
<g id="edge33" class="edge">
<title>Node24&#45;&gt;Node21</title>
<path fill="none" stroke="midnightblue" d="M1379.27,-67.42C1357.52,-58.41 1322.32,-43.78 1292,-31 1290.6,-30.41 1289.16,-29.8 1287.71,-29.19"/>
<polygon fill="midnightblue" stroke="midnightblue" points="1288.7,-25.8 1278.12,-25.12 1285.96,-32.25 1288.7,-25.8"/>
</g>
<!-- Node24&#45;&gt;Node25 -->
<g id="edge32" class="edge">
<title>Node24&#45;&gt;Node25</title>
<path fill="none" stroke="midnightblue" d="M1407.02,-67.48C1414.44,-58.46 1426.33,-44.02 1435.57,-32.81"/>
<polygon fill="midnightblue" stroke="midnightblue" points="1438.34,-34.95 1441.99,-25.01 1432.93,-30.5 1438.34,-34.95"/>
</g>
<!-- Node26 -->
<g id="node26" class="node">
<title>Node26</title>
<g id="a_node26"><a xlink:title=" ">
<polygon fill="white" stroke="#bfbfbf" points="1300.5,-6 1300.5,-25 1407.5,-25 1407.5,-6 1300.5,-6"/>
<text text-anchor="middle" x="1354" y="-13" font-family="Helvetica,sans-Serif" font-size="10.00">condition_variable</text>
</a>
</g>
</g>
<!-- Node24&#45;&gt;Node26 -->
<g id="edge34" class="edge">
<title>Node24&#45;&gt;Node26</title>
<path fill="none" stroke="midnightblue" d="M1393.41,-67.48C1386.51,-58.55 1375.5,-44.31 1366.87,-33.14"/>
<polygon fill="midnightblue" stroke="midnightblue" points="1369.46,-30.78 1360.58,-25.01 1363.93,-35.06 1369.46,-30.78"/>
</g>
<!-- Node28&#45;&gt;Node3 -->
<g id="edge50" class="edge">
<title>Node28&#45;&gt;Node3</title>
<path fill="none" stroke="midnightblue" d="M170.5,-235.49C186.56,-228.1 207.92,-215.91 221,-199 244.83,-168.19 253.87,-122.18 257.18,-96.69"/>
<polygon fill="midnightblue" stroke="midnightblue" points="260.68,-96.88 258.33,-86.55 253.73,-96.09 260.68,-96.88"/>
</g>
<!-- Node28&#45;&gt;Node7 -->
<g id="edge48" class="edge">
<title>Node28&#45;&gt;Node7</title>
<path fill="none" stroke="midnightblue" d="M206.73,-236.13C209.86,-235.74 212.97,-235.36 216,-235 367.09,-217.04 408.49,-222.04 562.86,-199.03"/>
<polygon fill="midnightblue" stroke="midnightblue" points="563.83,-202.43 573.19,-197.48 562.78,-195.51 563.83,-202.43"/>
</g>
<!-- Node28&#45;&gt;Node11 -->
<g id="edge49" class="edge">
<title>Node28&#45;&gt;Node11</title>
<path fill="none" stroke="midnightblue" d="M150.57,-235.49C156.07,-207.83 176.87,-119.24 226,-67 242.58,-49.36 266.69,-36.89 286.97,-28.74"/>
<polygon fill="midnightblue" stroke="midnightblue" points="288.46,-31.92 296.56,-25.09 285.97,-25.38 288.46,-31.92"/>
</g>
<!-- Node28&#45;&gt;Node15 -->
<g id="edge52" class="edge">
<title>Node28&#45;&gt;Node15</title>
<path fill="none" stroke="midnightblue" d="M147.66,-235.08C143.72,-208.95 132.16,-132.21 126.8,-96.58"/>
<polygon fill="midnightblue" stroke="midnightblue" points="130.24,-95.94 125.29,-86.57 123.32,-96.98 130.24,-95.94"/>
</g>
<!-- Node28&#45;&gt;Node23 -->
<g id="edge51" class="edge">
<title>Node28&#45;&gt;Node23</title>
<path fill="none" stroke="midnightblue" d="M142.95,-235.21C127.2,-211.99 84.51,-146.71 60,-87 53.09,-70.16 47.95,-50.03 44.77,-35.6"/>
<polygon fill="midnightblue" stroke="midnightblue" points="48.12,-34.49 42.65,-25.42 41.27,-35.92 48.12,-34.49"/>
</g>
<!-- Node29 -->
<g id="node29" class="node">
<title>Node29</title>
<g id="a_node29"><a xlink:href="TransactionMem_8h.html" target="_top" xlink:title=" ">
<polygon fill="white" stroke="black" points="449,-179.5 449,-198.5 555,-198.5 555,-179.5 449,-179.5"/>
<text text-anchor="middle" x="502" y="-186.5" font-family="Helvetica,sans-Serif" font-size="10.00">TransactionMem.h</text>
</a>
</g>
</g>
<!-- Node28&#45;&gt;Node29 -->
<g id="edge43" class="edge">
<title>Node28&#45;&gt;Node29</title>
<path fill="none" stroke="midnightblue" d="M204.93,-235.44C268.64,-225.7 372.48,-209.81 438.99,-199.64"/>
<polygon fill="midnightblue" stroke="midnightblue" points="439.57,-203.09 448.92,-198.12 438.51,-196.17 439.57,-203.09"/>
</g>
<!-- Node28&#45;&gt;Node30 -->
<g id="edge46" class="edge">
<title>Node28&#45;&gt;Node30</title>
<path fill="none" stroke="midnightblue" d="M134.22,-235.32C119.73,-226.82 97.43,-213.73 80.51,-203.8"/>
<polygon fill="midnightblue" stroke="midnightblue" points="82.14,-200.7 71.74,-198.65 78.6,-206.74 82.14,-200.7"/>
</g>
<!-- Node29&#45;&gt;Node8 -->
<g id="edge44" class="edge">
<title>Node29&#45;&gt;Node8</title>
<path fill="none" stroke="midnightblue" d="M535.75,-179.44C575.14,-169.46 639.96,-153.03 679.91,-142.9"/>
<polygon fill="midnightblue" stroke="midnightblue" points="680.91,-146.25 689.75,-140.4 679.19,-139.47 680.91,-146.25"/>
</g>
<!-- Node29&#45;&gt;Node9 -->
<g id="edge45" class="edge">
<title>Node29&#45;&gt;Node9</title>
<path fill="none" stroke="midnightblue" d="M511.02,-179.26C539.31,-151.85 626.58,-67.29 662.89,-32.11"/>
<polygon fill="midnightblue" stroke="midnightblue" points="665.46,-34.49 670.21,-25.02 660.59,-29.46 665.46,-34.49"/>
</g>
<!-- Node30&#45;&gt;Node15 -->
<g id="edge47" class="edge">
<title>Node30&#45;&gt;Node15</title>
<path fill="none" stroke="midnightblue" d="M62.26,-179.37C73.27,-161.3 98.92,-119.18 113.46,-95.31"/>
<polygon fill="midnightblue" stroke="midnightblue" points="116.55,-96.95 118.77,-86.59 110.58,-93.31 116.55,-96.95"/>
</g>
</g>
</svg>
        <g id="navigator" transform="translate(0 0)" fill="#404254">
                <rect fill="#f2f5e9" fill-opacity="0.5" stroke="#606060" stroke-width=".5" x="0" y="0" width="60" height="60"/>
                <use id="zoomplus" xlink:href="#zoomPlus" x="17" y="9" onmousedown="handleZoom(evt,'in')"/>
                <use id="zoomminus" xlink:href="#zoomMin" x="42" y="9" onmousedown="handleZoom(evt,'out')"/>
                <use id="reset" xlink:href="#resetDef" x="30" y="36" onmousedown="handleReset()"/>
                <g id="arrowUp" xlink:href="#dirArrow" transform="translate(30 24)" onmousedown="handlePan(0,-1)">
                  <use xlink:href="#rim" fill="#404040">
                        <set attributeName="fill" to="#808080" begin="arrowUp.mouseover" end="arrowUp.mouseout"/>
                  </use>
                  <path fill="none" stroke="white" stroke-width="1.5" d="M0,-3.0v7 M-2.5,-0.5L0,-3.0L2.5,-0.5"/>
                </g>
                <g id="arrowRight" xlink:href="#dirArrow" transform="rotate(90) translate(36 -43)" onmousedown="handlePan(1,0)">
                  <use xlink:href="#rim" fill="#404040">
                        <set attributeName="fill" to="#808080" begin="arrowRight.mouseover" end="arrowRight.mouseout"/>
                  </use>
                  <path fill="none" stroke="white" stroke-width="1.5" d="M0,-3.0v7 M-2.5,-0.5L0,-3.0L2.5,-0.5"/>
                </g>
                <g id="arrowDown" xlink:href="#dirArrow" transform="rotate(180) translate(-30 -48)" onmousedown="handlePan(0,1)">
                  <use xlink:href="#rim" fill="#404040">
                        <set attributeName="fill" to="#808080" begin="arrowDown.mouseover" end="arrowDown.mouseout"/>
                  </use>
                  <path fill="none" stroke="white" stroke-width="1.5" d="M0,-3.0v7 M-2.5,-0.5L0,-3.0L2.5,-0.5"/>
                </g>
                <g id="arrowLeft" xlink:href="#dirArrow" transform="rotate(270) translate(-36 17)" onmousedown="handlePan(-1,0)">
                  <use xlink:href="#rim" fill="#404040">
                        <set attributeName="fill" to="#808080" begin="arrowLeft.mouseover" end="arrowLeft.mouseout"/>
                  </use>
                  <path fill="none" stroke="white" stroke-width="1.5" d="M0,-3.0v7 M-2.5,-0.5L0,-3.0L2.5,-0.5"/>
                </g>
        </g>
        <svg viewBox="0 0 15 15" width="100%" height="30px" preserveAspectRatio="xMaxYMin meet">
         <g id="arrow_out" transform="scale(0.3 0.3)">
          <a xlink:href="CustomerVisitor_8cpp__incl_org.svg" target="_base">
           <rect id="button" ry="5" rx="5" y="6" x="6" height="38" width="38"
                fill="#f2f5e9" fill-opacity="0.5" stroke="#606060" stroke-width="1.0"/>
           <path id="arrow"
             d="M 11.500037,31.436501 C 11.940474,20.09759 22.043105,11.32322 32.158766,21.979434 L 37.068811,17.246167 C 37.068811,17.246167 37.088388,32 37.088388,32 L 22.160133,31.978069 C 22.160133,31.978069 26.997745,27.140456 26.997745,27.140456 C 18.528582,18.264221 13.291696,25.230495 11.500037,31.436501 z"
             style="fill:#404040;"/>
          </a>
         </g>
        </svg>
</svg>
