<?xml version="1.0" encoding="UTF-8" standalone="no"?>
<!DOCTYPE svg PUBLIC "-//W3C//DTD SVG 1.1//EN"
 "http://www.w3.org/Graphics/SVG/1.1/DTD/svg11.dtd">
<!-- Generated by graphviz version 2.43.0 (0)
 -->
<!-- Title: backend Pages: 1 -->
<!--zoomable 508 -->
<svg id="main" version="1.1" xmlns="http://www.w3.org/2000/svg" xmlns:xlink="http://www.w3.org/1999/xlink" xml:space="preserve" onload="init(evt)">
<style type="text/css"><![CDATA[
.edge:hover path { stroke: red; }
.edge:hover polygon { stroke: red; fill: red; }
]]></style>
<script type="text/javascript"><![CDATA[
var edges = document.getElementsByTagName('g');
if (edges && edges.length) {
  for (var i=0;i<edges.length;i++) {
    if (edges[i].id.substr(0,4)=='edge') {
      edges[i].setAttribute('class','edge');
    }
  }
}
]]></script>
        <defs>
                <circle id="rim" cx="0" cy="0" r="7"/>
                <circle id="rim2" cx="0" cy="0" r="3.5"/>
                <g id="zoomPlus">
                        <use xlink:href="#rim" fill="#404040">
                                <set attributeName="fill" to="#808080" begin="zoomplus.mouseover" end="zoomplus.mouseout"/>
                        </use>
                        <path d="M-4,0h8M0,-4v8" fill="none" stroke="white" stroke-width="1.5" pointer-events="none"/>
                </g>
                <g id="zoomMin">
                        <use xlink:href="#rim" fill="#404040">
                                <set attributeName="fill" to="#808080" begin="zoomminus.mouseover" end="zoomminus.mouseout"/>
                        </use>
                        <path d="M-4,0h8" fill="none" stroke="white" stroke-width="1.5" pointer-events="none"/>
                </g>
                <g id="dirArrow">
                        <path fill="none" stroke="white" stroke-width="1.5" d="M0,-3.0v7 M-2.5,-0.5L0,-3.0L2.5,-0.5"/>
                </g>
               <g id="resetDef">
                       <use xlink:href="#rim2" fill="#404040">
                               <set attributeName="fill" to="#808080" begin="reset.mouseover" end="reset.mouseout"/>
                       </use>
               </g>
        </defs>

<script type="text/javascript">
var viewWidth = 222;
var viewHeight = 508;
var sectionId = 'dynsection-0';
</script>
<script xlink:href="svgpan.js"/>
<svg id="graph" class="graph">
<g id="viewport">
<title>backend</title>
<polygon fill="white" stroke="transparent" points="-4,4 -4,-504 218,-504 218,4 -4,4"/>
<g id="clust1" class="cluster">
<title>clusterdir_8c739bbef76d64b22d6b0911c526dd76</title>
<g id="a_clust1"><a xlink:href="dir_8c739bbef76d64b22d6b0911c526dd76.html" target="_top">
<polygon fill="#eeeeff" stroke="black" points="8,-8 8,-492 206,-492 206,-8 8,-8"/>
</a>
</g>
</g>
<!-- dir_8c739bbef76d64b22d6b0911c526dd76 -->
<g id="node1" class="node">
<title>dir_8c739bbef76d64b22d6b0911c526dd76</title>
<text text-anchor="middle" x="119" y="-463.5" font-family="Helvetica,sans-Serif" font-size="10.00">backend</text>
</g>
<!-- dir_b4b9d1695e1b5cc04b5c840ac9298700 -->
<g id="node2" class="node">
<title>dir_b4b9d1695e1b5cc04b5c840ac9298700</title>
<g id="a_node2"><a xlink:href="dir_b4b9d1695e1b5cc04b5c840ac9298700.html" target="_top" xlink:title="API">
<polygon fill="white" stroke="black" points="146,-412 92,-412 92,-376 146,-376 146,-412"/>
<text text-anchor="middle" x="119" y="-391.5" font-family="Helvetica,sans-Serif" font-size="10.00">API</text>
</a>
</g>
</g>
<!-- dir_8c739bbef76d64b22d6b0911c526dd76&#45;&gt;dir_b4b9d1695e1b5cc04b5c840ac9298700 -->
<g id="edge11" class="edge">
<title>dir_8c739bbef76d64b22d6b0911c526dd76&#45;&gt;dir_b4b9d1695e1b5cc04b5c840ac9298700</title>
<path fill="none" stroke="black" d="M119,-447.7C119,-439.98 119,-430.71 119,-422.11"/>
<polygon fill="black" stroke="black" points="122.5,-422.1 119,-412.1 115.5,-422.1 122.5,-422.1"/>
<g id="a_edge11&#45;headlabel"><a xlink:href="dir_000000_000001.html" target="_top" xlink:title="1">
<text text-anchor="middle" x="125.34" y="-423.2" font-family="Helvetica,sans-Serif" font-size="10.00">1</text>
</a>
</g>
</g>
<!-- dir_b7c6a6a0c4a8b329beeb4b467429a08c -->
<g id="node5" class="node">
<title>dir_b7c6a6a0c4a8b329beeb4b467429a08c</title>
<g id="a_node5"><a xlink:href="dir_b7c6a6a0c4a8b329beeb4b467429a08c.html" target="_top" xlink:title="greenhouse">
<polygon fill="white" stroke="black" points="137,-124 63,-124 63,-88 137,-88 137,-124"/>
<text text-anchor="middle" x="100" y="-103.5" font-family="Helvetica,sans-Serif" font-size="10.00">greenhouse</text>
</a>
</g>
</g>
<!-- dir_8c739bbef76d64b22d6b0911c526dd76&#45;&gt;dir_b7c6a6a0c4a8b329beeb4b467429a08c -->
<g id="edge12" class="edge">
<title>dir_8c739bbef76d64b22d6b0911c526dd76&#45;&gt;dir_b7c6a6a0c4a8b329beeb4b467429a08c</title>
<path fill="none" stroke="black" d="M104.68,-447.92C97.1,-438.02 88.3,-424.98 83,-412 52.45,-337.17 54.76,-312.8 57,-232 57.89,-199.96 50.16,-190.16 61,-160 64.59,-150 70.72,-140.27 77.07,-131.94"/>
<polygon fill="black" stroke="black" points="79.84,-134.08 83.41,-124.11 74.4,-129.68 79.84,-134.08"/>
<g id="a_edge12&#45;headlabel"><a xlink:href="dir_000000_000004.html" target="_top" xlink:title="11">
<text text-anchor="middle" x="79.78" y="-136.16" font-family="Helvetica,sans-Serif" font-size="10.00">11</text>
</a>
</g>
</g>
<!-- dir_b083e5c802875a066f56759a428a2bfc -->
<g id="node6" class="node">
<title>dir_b083e5c802875a066f56759a428a2bfc</title>
<g id="a_node6"><a xlink:href="dir_b083e5c802875a066f56759a428a2bfc.html" target="_top" xlink:title="plant">
<polygon fill="white" stroke="black" points="178,-196 124,-196 124,-160 178,-160 178,-196"/>
<text text-anchor="middle" x="151" y="-175.5" font-family="Helvetica,sans-Serif" font-size="10.00">plant</text>
</a>
</g>
</g>
<!-- dir_8c739bbef76d64b22d6b0911c526dd76&#45;&gt;dir_b083e5c802875a066f56759a428a2bfc -->
<g id="edge10" class="edge">
<title>dir_8c739bbef76d64b22d6b0911c526dd76&#45;&gt;dir_b083e5c802875a066f56759a428a2bfc</title>
<path fill="none" stroke="black" d="M134.61,-447.77C142.37,-438.03 150.95,-425.18 155,-412 177.03,-340.37 165.08,-250.42 156.8,-206.15"/>
<polygon fill="black" stroke="black" points="160.2,-205.31 154.84,-196.17 153.33,-206.66 160.2,-205.31"/>
<g id="a_edge10&#45;headlabel"><a xlink:href="dir_000000_000005.html" target="_top" xlink:title="23">
<text text-anchor="middle" x="163.68" y="-205.8" font-family="Helvetica,sans-Serif" font-size="10.00">23</text>
</a>
</g>
</g>
<!-- dir_647fdf71efa30ed59cefff82a1f3b59b -->
<g id="node4" class="node">
<title>dir_647fdf71efa30ed59cefff82a1f3b59b</title>
<g id="a_node4"><a xlink:href="dir_647fdf71efa30ed59cefff82a1f3b59b.html" target="_top" xlink:title="game">
<polygon fill="white" stroke="black" points="134,-340 80,-340 80,-304 134,-304 134,-340"/>
<text text-anchor="middle" x="107" y="-319.5" font-family="Helvetica,sans-Serif" font-size="10.00">game</text>
</a>
</g>
</g>
<!-- dir_b4b9d1695e1b5cc04b5c840ac9298700&#45;&gt;dir_647fdf71efa30ed59cefff82a1f3b59b -->
<g id="edge4" class="edge">
<title>dir_b4b9d1695e1b5cc04b5c840ac9298700&#45;&gt;dir_647fdf71efa30ed59cefff82a1f3b59b</title>
<path fill="none" stroke="black" d="M116.03,-375.7C114.71,-367.98 113.12,-358.71 111.65,-350.11"/>
<polygon fill="black" stroke="black" points="115.07,-349.37 109.93,-340.1 108.17,-350.55 115.07,-349.37"/>
<g id="a_edge4&#45;headlabel"><a xlink:href="dir_000001_000003.html" target="_top" xlink:title="6">
<text text-anchor="middle" x="118.48" y="-349.93" font-family="Helvetica,sans-Serif" font-size="10.00">6</text>
</a>
</g>
</g>
<!-- dir_e48d580525ce20fb628b28246bca6fb4 -->
<g id="node7" class="node">
<title>dir_e48d580525ce20fb628b28246bca6fb4</title>
<g id="a_node7"><a xlink:href="dir_e48d580525ce20fb628b28246bca6fb4.html" target="_top" xlink:title="WS">
<polygon fill="white" stroke="black" points="155,-52 101,-52 101,-16 155,-16 155,-52"/>
<text text-anchor="middle" x="128" y="-31.5" font-family="Helvetica,sans-Serif" font-size="10.00">WS</text>
</a>
</g>
</g>
<!-- dir_b4b9d1695e1b5cc04b5c840ac9298700&#45;&gt;dir_e48d580525ce20fb628b28246bca6fb4 -->
<g id="edge5" class="edge">
<title>dir_b4b9d1695e1b5cc04b5c840ac9298700&#45;&gt;dir_e48d580525ce20fb628b28246bca6fb4</title>
<path fill="none" stroke="black" d="M130.16,-375.95C153.82,-337.71 205.39,-242.03 187,-160 178.86,-123.66 158.91,-85.45 144.46,-60.99"/>
<polygon fill="black" stroke="black" points="147.39,-59.07 139.22,-52.32 141.39,-62.69 147.39,-59.07"/>
<g id="a_edge5&#45;headlabel"><a xlink:href="dir_000001_000006.html" target="_top" xlink:title="1">
<text text-anchor="middle" x="151.68" y="-58.18" font-family="Helvetica,sans-Serif" font-size="10.00">1</text>
</a>
</g>
</g>
<!-- dir_14cc84e954c974a37d2b5f3c3004d168 -->
<g id="node3" class="node">
<title>dir_14cc84e954c974a37d2b5f3c3004d168</title>
<g id="a_node3"><a xlink:href="dir_14cc84e954c974a37d2b5f3c3004d168.html" target="_top" xlink:title="customer">
<polygon fill="white" stroke="black" points="138,-268 76,-268 76,-232 138,-232 138,-268"/>
<text text-anchor="middle" x="107" y="-247.5" font-family="Helvetica,sans-Serif" font-size="10.00">customer</text>
</a>
</g>
</g>
<!-- dir_14cc84e954c974a37d2b5f3c3004d168&#45;&gt;dir_647fdf71efa30ed59cefff82a1f3b59b -->
<g id="edge1" class="edge">
<title>dir_14cc84e954c974a37d2b5f3c3004d168&#45;&gt;dir_647fdf71efa30ed59cefff82a1f3b59b</title>
<path fill="none" stroke="black" d="M112.9,-268.1C113.7,-275.79 113.94,-285.05 113.6,-293.67"/>
<polygon fill="black" stroke="black" points="110.11,-293.48 112.92,-303.7 117.09,-293.96 110.11,-293.48"/>
<g id="a_edge1&#45;headlabel"><a xlink:href="dir_000002_000003.html" target="_top" xlink:title="1">
<text text-anchor="middle" x="107.52" y="-287.2" font-family="Helvetica,sans-Serif" font-size="10.00">1</text>
</a>
</g>
</g>
<!-- dir_14cc84e954c974a37d2b5f3c3004d168&#45;&gt;dir_b7c6a6a0c4a8b329beeb4b467429a08c -->
<g id="edge3" class="edge">
<title>dir_14cc84e954c974a37d2b5f3c3004d168&#45;&gt;dir_b7c6a6a0c4a8b329beeb4b467429a08c</title>
<path fill="none" stroke="black" d="M101.57,-231.87C97.82,-207.67 95.34,-163.21 95.89,-134.39"/>
<polygon fill="black" stroke="black" points="99.4,-134.31 96.26,-124.19 92.4,-134.06 99.4,-134.31"/>
<g id="a_edge3&#45;headlabel"><a xlink:href="dir_000002_000004.html" target="_top" xlink:title="5">
<text text-anchor="middle" x="102.11" y="-135.5" font-family="Helvetica,sans-Serif" font-size="10.00">5</text>
</a>
</g>
</g>
<!-- dir_14cc84e954c974a37d2b5f3c3004d168&#45;&gt;dir_b083e5c802875a066f56759a428a2bfc -->
<g id="edge2" class="edge">
<title>dir_14cc84e954c974a37d2b5f3c3004d168&#45;&gt;dir_b083e5c802875a066f56759a428a2bfc</title>
<path fill="none" stroke="black" d="M117.88,-231.7C122.99,-223.56 129.2,-213.69 134.84,-204.7"/>
<polygon fill="black" stroke="black" points="137.89,-206.43 140.25,-196.1 131.96,-202.71 137.89,-206.43"/>
<g id="a_edge2&#45;headlabel"><a xlink:href="dir_000002_000005.html" target="_top" xlink:title="2">
<text text-anchor="middle" x="138.38" y="-208.49" font-family="Helvetica,sans-Serif" font-size="10.00">2</text>
</a>
</g>
</g>
<!-- dir_647fdf71efa30ed59cefff82a1f3b59b&#45;&gt;dir_14cc84e954c974a37d2b5f3c3004d168 -->
<g id="edge13" class="edge">
<title>dir_647fdf71efa30ed59cefff82a1f3b59b&#45;&gt;dir_14cc84e954c974a37d2b5f3c3004d168</title>
<path fill="none" stroke="black" d="M101.08,-303.7C100.29,-295.98 100.06,-286.71 100.4,-278.11"/>
<polygon fill="black" stroke="black" points="103.9,-278.32 101.1,-268.1 96.92,-277.84 103.9,-278.32"/>
<g id="a_edge13&#45;headlabel"><a xlink:href="dir_000003_000002.html" target="_top" xlink:title="8">
<text text-anchor="middle" x="106.48" y="-279.61" font-family="Helvetica,sans-Serif" font-size="10.00">8</text>
</a>
</g>
</g>
<!-- dir_647fdf71efa30ed59cefff82a1f3b59b&#45;&gt;dir_b7c6a6a0c4a8b329beeb4b467429a08c -->
<g id="edge15" class="edge">
<title>dir_647fdf71efa30ed59cefff82a1f3b59b&#45;&gt;dir_b7c6a6a0c4a8b329beeb4b467429a08c</title>
<path fill="none" stroke="black" d="M81.24,-303.6C71.76,-294 62.47,-281.34 58,-268 42.49,-221.71 62.46,-165.37 80.09,-133.1"/>
<polygon fill="black" stroke="black" points="83.22,-134.68 85.21,-124.28 77.16,-131.17 83.22,-134.68"/>
<g id="a_edge15&#45;headlabel"><a xlink:href="dir_000003_000004.html" target="_top" xlink:title="4">
<text text-anchor="middle" x="83.87" y="-136.72" font-family="Helvetica,sans-Serif" font-size="10.00">4</text>
</a>
</g>
</g>
<!-- dir_647fdf71efa30ed59cefff82a1f3b59b&#45;&gt;dir_b083e5c802875a066f56759a428a2bfc -->
<g id="edge14" class="edge">
<title>dir_647fdf71efa30ed59cefff82a1f3b59b&#45;&gt;dir_b083e5c802875a066f56759a428a2bfc</title>
<path fill="none" stroke="black" d="M116.1,-303.99C123.62,-294.3 133.16,-281.45 138,-268 145.11,-248.26 145.81,-224.46 146.23,-206.44"/>
<polygon fill="black" stroke="black" points="149.73,-206.4 146.51,-196.31 142.74,-206.21 149.73,-206.4"/>
<g id="a_edge14&#45;headlabel"><a xlink:href="dir_000003_000005.html" target="_top" xlink:title="4">
<text text-anchor="middle" x="152.48" y="-207.57" font-family="Helvetica,sans-Serif" font-size="10.00">4</text>
</a>
</g>
</g>
<!-- dir_647fdf71efa30ed59cefff82a1f3b59b&#45;&gt;dir_e48d580525ce20fb628b28246bca6fb4 -->
<g id="edge16" class="edge">
<title>dir_647fdf71efa30ed59cefff82a1f3b59b&#45;&gt;dir_e48d580525ce20fb628b28246bca6fb4</title>
<path fill="none" stroke="black" d="M84.53,-303.91C74.1,-294.57 62.75,-282.05 57,-268 26.69,-193.95 17.43,-159.17 54,-88 62.13,-72.17 77.43,-60.01 92.02,-51.36"/>
<polygon fill="black" stroke="black" points="93.88,-54.32 100.94,-46.42 90.49,-48.2 93.88,-54.32"/>
<g id="a_edge16&#45;headlabel"><a xlink:href="dir_000003_000006.html" target="_top" xlink:title="1">
<text text-anchor="middle" x="92.11" y="-56.05" font-family="Helvetica,sans-Serif" font-size="10.00">1</text>
</a>
</g>
</g>
<!-- dir_b7c6a6a0c4a8b329beeb4b467429a08c&#45;&gt;dir_14cc84e954c974a37d2b5f3c3004d168 -->
<g id="edge6" class="edge">
<title>dir_b7c6a6a0c4a8b329beeb4b467429a08c&#45;&gt;dir_14cc84e954c974a37d2b5f3c3004d168</title>
<path fill="none" stroke="black" d="M105.44,-124.19C109.19,-148.42 111.67,-192.89 111.11,-221.68"/>
<polygon fill="black" stroke="black" points="107.6,-221.75 110.74,-231.87 114.6,-222 107.6,-221.75"/>
<g id="a_edge6&#45;headlabel"><a xlink:href="dir_000004_000002.html" target="_top" xlink:title="6">
<text text-anchor="middle" x="104.89" y="-215.56" font-family="Helvetica,sans-Serif" font-size="10.00">6</text>
</a>
</g>
</g>
<!-- dir_b7c6a6a0c4a8b329beeb4b467429a08c&#45;&gt;dir_647fdf71efa30ed59cefff82a1f3b59b -->
<g id="edge7" class="edge">
<title>dir_b7c6a6a0c4a8b329beeb4b467429a08c&#45;&gt;dir_647fdf71efa30ed59cefff82a1f3b59b</title>
<path fill="none" stroke="black" d="M96.08,-124.28C84.74,-154.15 58.96,-217.14 76,-268 79.32,-277.9 85.29,-287.42 91.23,-295.6"/>
<polygon fill="black" stroke="black" points="88.46,-297.75 97.29,-303.6 94.04,-293.52 88.46,-297.75"/>
<g id="a_edge7&#45;headlabel"><a xlink:href="dir_000004_000003.html" target="_top" xlink:title="10">
<text text-anchor="middle" x="84.03" y="-294.1" font-family="Helvetica,sans-Serif" font-size="10.00">10</text>
</a>
</g>
</g>
<!-- dir_b7c6a6a0c4a8b329beeb4b467429a08c&#45;&gt;dir_b083e5c802875a066f56759a428a2bfc -->
<g id="edge8" class="edge">
<title>dir_b7c6a6a0c4a8b329beeb4b467429a08c&#45;&gt;dir_b083e5c802875a066f56759a428a2bfc</title>
<path fill="none" stroke="black" d="M118.36,-124.1C125.11,-132.21 132.52,-142.08 138.66,-151.08"/>
<polygon fill="black" stroke="black" points="135.9,-153.25 144.31,-159.7 141.75,-149.41 135.9,-153.25"/>
<g id="a_edge8&#45;headlabel"><a xlink:href="dir_000004_000005.html" target="_top" xlink:title="8">
<text text-anchor="middle" x="131.55" y="-149.3" font-family="Helvetica,sans-Serif" font-size="10.00">8</text>
</a>
</g>
</g>
<!-- dir_b7c6a6a0c4a8b329beeb4b467429a08c&#45;&gt;dir_e48d580525ce20fb628b28246bca6fb4 -->
<g id="edge9" class="edge">
<title>dir_b7c6a6a0c4a8b329beeb4b467429a08c&#45;&gt;dir_e48d580525ce20fb628b28246bca6fb4</title>
<path fill="none" stroke="black" d="M106.92,-87.7C110.07,-79.81 113.88,-70.3 117.38,-61.55"/>
<polygon fill="black" stroke="black" points="120.69,-62.69 121.16,-52.1 114.19,-60.09 120.69,-62.69"/>
<g id="a_edge9&#45;headlabel"><a xlink:href="dir_000004_000006.html" target="_top" xlink:title="1">
<text text-anchor="middle" x="122" y="-64.58" font-family="Helvetica,sans-Serif" font-size="10.00">1</text>
</a>
</g>
</g>
<!-- dir_b083e5c802875a066f56759a428a2bfc&#45;&gt;dir_647fdf71efa30ed59cefff82a1f3b59b -->
<g id="edge17" class="edge">
<title>dir_b083e5c802875a066f56759a428a2bfc&#45;&gt;dir_647fdf71efa30ed59cefff82a1f3b59b</title>
<path fill="none" stroke="black" d="M159.86,-196.31C163.83,-214.68 164.54,-244.28 156,-268 152.33,-278.19 145.96,-288.04 138.93,-296.43"/>
<polygon fill="black" stroke="black" points="136.2,-294.23 132.05,-303.99 141.37,-298.95 136.2,-294.23"/>
<g id="a_edge17&#45;headlabel"><a xlink:href="dir_000005_000003.html" target="_top" xlink:title="1">
<text text-anchor="middle" x="136.52" y="-287.17" font-family="Helvetica,sans-Serif" font-size="10.00">1</text>
</a>
</g>
</g>
<!-- dir_b083e5c802875a066f56759a428a2bfc&#45;&gt;dir_b7c6a6a0c4a8b329beeb4b467429a08c -->
<g id="edge18" class="edge">
<title>dir_b083e5c802875a066f56759a428a2bfc&#45;&gt;dir_b7c6a6a0c4a8b329beeb4b467429a08c</title>
<path fill="none" stroke="black" d="M132.48,-159.7C125.71,-151.56 118.31,-141.69 112.19,-132.7"/>
<polygon fill="black" stroke="black" points="114.97,-130.56 106.57,-124.1 109.11,-134.39 114.97,-130.56"/>
<g id="a_edge18&#45;headlabel"><a xlink:href="dir_000005_000004.html" target="_top" xlink:title="1">
<text text-anchor="middle" x="119.31" y="-129.51" font-family="Helvetica,sans-Serif" font-size="10.00">1</text>
</a>
</g>
</g>
<!-- dir_b083e5c802875a066f56759a428a2bfc&#45;&gt;dir_e48d580525ce20fb628b28246bca6fb4 -->
<g id="edge19" class="edge">
<title>dir_b083e5c802875a066f56759a428a2bfc&#45;&gt;dir_e48d580525ce20fb628b28246bca6fb4</title>
<path fill="none" stroke="black" d="M151.41,-159.77C151.51,-141.71 150.78,-112.61 146,-88 144.31,-79.32 141.55,-70.11 138.69,-61.85"/>
<polygon fill="black" stroke="black" points="141.94,-60.54 135.22,-52.34 135.36,-62.94 141.94,-60.54"/>
<g id="a_edge19&#45;headlabel"><a xlink:href="dir_000005_000006.html" target="_top" xlink:title="2">
<text text-anchor="middle" x="145.84" y="-60.44" font-family="Helvetica,sans-Serif" font-size="10.00">2</text>
</a>
</g>
</g>
</g>
</svg>
        <g id="navigator" transform="translate(0 0)" fill="#404254">
                <rect fill="#f2f5e9" fill-opacity="0.5" stroke="#606060" stroke-width=".5" x="0" y="0" width="60" height="60"/>
                <use id="zoomplus" xlink:href="#zoomPlus" x="17" y="9" onmousedown="handleZoom(evt,'in')"/>
                <use id="zoomminus" xlink:href="#zoomMin" x="42" y="9" onmousedown="handleZoom(evt,'out')"/>
                <use id="reset" xlink:href="#resetDef" x="30" y="36" onmousedown="handleReset()"/>
                <g id="arrowUp" xlink:href="#dirArrow" transform="translate(30 24)" onmousedown="handlePan(0,-1)">
                  <use xlink:href="#rim" fill="#404040">
                        <set attributeName="fill" to="#808080" begin="arrowUp.mouseover" end="arrowUp.mouseout"/>
                  </use>
                  <path fill="none" stroke="white" stroke-width="1.5" d="M0,-3.0v7 M-2.5,-0.5L0,-3.0L2.5,-0.5"/>
                </g>
                <g id="arrowRight" xlink:href="#dirArrow" transform="rotate(90) translate(36 -43)" onmousedown="handlePan(1,0)">
                  <use xlink:href="#rim" fill="#404040">
                        <set attributeName="fill" to="#808080" begin="arrowRight.mouseover" end="arrowRight.mouseout"/>
                  </use>
                  <path fill="none" stroke="white" stroke-width="1.5" d="M0,-3.0v7 M-2.5,-0.5L0,-3.0L2.5,-0.5"/>
                </g>
                <g id="arrowDown" xlink:href="#dirArrow" transform="rotate(180) translate(-30 -48)" onmousedown="handlePan(0,1)">
                  <use xlink:href="#rim" fill="#404040">
                        <set attributeName="fill" to="#808080" begin="arrowDown.mouseover" end="arrowDown.mouseout"/>
                  </use>
                  <path fill="none" stroke="white" stroke-width="1.5" d="M0,-3.0v7 M-2.5,-0.5L0,-3.0L2.5,-0.5"/>
                </g>
                <g id="arrowLeft" xlink:href="#dirArrow" transform="rotate(270) translate(-36 17)" onmousedown="handlePan(-1,0)">
                  <use xlink:href="#rim" fill="#404040">
                        <set attributeName="fill" to="#808080" begin="arrowLeft.mouseover" end="arrowLeft.mouseout"/>
                  </use>
                  <path fill="none" stroke="white" stroke-width="1.5" d="M0,-3.0v7 M-2.5,-0.5L0,-3.0L2.5,-0.5"/>
                </g>
        </g>
        <svg viewBox="0 0 15 15" width="100%" height="30px" preserveAspectRatio="xMaxYMin meet">
         <g id="arrow_out" transform="scale(0.3 0.3)">
          <a xlink:href="dir_8c739bbef76d64b22d6b0911c526dd76_dep_org.svg" target="_base">
           <rect id="button" ry="5" rx="5" y="6" x="6" height="38" width="38"
                fill="#f2f5e9" fill-opacity="0.5" stroke="#606060" stroke-width="1.0"/>
           <path id="arrow"
             d="M 11.500037,31.436501 C 11.940474,20.09759 22.043105,11.32322 32.158766,21.979434 L 37.068811,17.246167 C 37.068811,17.246167 37.088388,32 37.088388,32 L 22.160133,31.978069 C 22.160133,31.978069 26.997745,27.140456 26.997745,27.140456 C 18.528582,18.264221 13.291696,25.230495 11.500037,31.436501 z"
             style="fill:#404040;"/>
          </a>
         </g>
        </svg>
</svg>
