<?xml version="1.0" encoding="UTF-8" standalone="no"?>
<!DOCTYPE svg PUBLIC "-//W3C//DTD SVG 1.1//EN"
 "http://www.w3.org/Graphics/SVG/1.1/DTD/svg11.dtd">
<!-- Generated by graphviz version 2.43.0 (0)
 -->
<!-- Title: backend/customer Pages: 1 -->
<svg width="154pt" height="311pt"
 viewBox="0.00 0.00 154.00 311.00" xmlns="http://www.w3.org/2000/svg" xmlns:xlink="http://www.w3.org/1999/xlink">
<g id="graph0" class="graph" transform="scale(1 1) rotate(0) translate(4 307)">
<title>backend/customer</title>
<polygon fill="white" stroke="transparent" points="-4,4 -4,-307 150,-307 150,4 -4,4"/>
<g id="clust1" class="cluster">
<title>clusterdir_8c739bbef76d64b22d6b0911c526dd76</title>
<g id="a_clust1"><a xlink:href="dir_8c739bbef76d64b22d6b0911c526dd76.html" target="_top" xlink:title="backend">
<polygon fill="#ddddee" stroke="black" points="8,-8 8,-295 138,-295 138,-8 8,-8"/>
<text text-anchor="middle" x="73" y="-283" font-family="Helvetica,sans-Serif" font-size="10.00">backend</text>
</a>
</g>
</g>
<!-- dir_647fdf71efa30ed59cefff82a1f3b59b -->
<g id="node1" class="node">
<title>dir_647fdf71efa30ed59cefff82a1f3b59b</title>
<g id="a_node1"><a xlink:href="dir_647fdf71efa30ed59cefff82a1f3b59b.html" target="_top" xlink:title="game">
<polygon fill="none" stroke="black" points="130,-268 76,-268 76,-232 130,-232 130,-268"/>
<text text-anchor="middle" x="103" y="-247.5" font-family="Helvetica,sans-Serif" font-size="10.00">game</text>
</a>
</g>
</g>
<!-- dir_b083e5c802875a066f56759a428a2bfc -->
<g id="node2" class="node">
<title>dir_b083e5c802875a066f56759a428a2bfc</title>
<g id="a_node2"><a xlink:href="dir_b083e5c802875a066f56759a428a2bfc.html" target="_top" xlink:title="plant">
<polygon fill="none" stroke="black" points="84,-196 30,-196 30,-160 84,-160 84,-196"/>
<text text-anchor="middle" x="57" y="-175.5" font-family="Helvetica,sans-Serif" font-size="10.00">plant</text>
</a>
</g>
</g>
<!-- dir_647fdf71efa30ed59cefff82a1f3b59b&#45;&gt;dir_b083e5c802875a066f56759a428a2bfc -->
<g id="edge8" class="edge">
<title>dir_647fdf71efa30ed59cefff82a1f3b59b&#45;&gt;dir_b083e5c802875a066f56759a428a2bfc</title>
<path fill="none" stroke="black" d="M85.71,-231.7C79.59,-223.64 72.97,-213.89 67.53,-204.98"/>
<polygon fill="black" stroke="black" points="70.41,-202.98 62.34,-196.1 64.36,-206.51 70.41,-202.98"/>
<g id="a_edge8&#45;headlabel"><a xlink:href="dir_000003_000005.html" target="_top" xlink:title="4">
<text text-anchor="middle" x="74.67" y="-202.15" font-family="Helvetica,sans-Serif" font-size="10.00">4</text>
</a>
</g>
</g>
<!-- dir_b7c6a6a0c4a8b329beeb4b467429a08c -->
<g id="node3" class="node">
<title>dir_b7c6a6a0c4a8b329beeb4b467429a08c</title>
<g id="a_node3"><a xlink:href="dir_b7c6a6a0c4a8b329beeb4b467429a08c.html" target="_top" xlink:title="greenhouse">
<polygon fill="none" stroke="black" points="110,-124 36,-124 36,-88 110,-88 110,-124"/>
<text text-anchor="middle" x="73" y="-103.5" font-family="Helvetica,sans-Serif" font-size="10.00">greenhouse</text>
</a>
</g>
</g>
<!-- dir_647fdf71efa30ed59cefff82a1f3b59b&#45;&gt;dir_b7c6a6a0c4a8b329beeb4b467429a08c -->
<g id="edge9" class="edge">
<title>dir_647fdf71efa30ed59cefff82a1f3b59b&#45;&gt;dir_b7c6a6a0c4a8b329beeb4b467429a08c</title>
<path fill="none" stroke="black" d="M95.61,-231.72C92.34,-213.62 89.9,-184.49 84,-160 81.93,-151.39 78.84,-142.29 76.1,-134.1"/>
<polygon fill="black" stroke="black" points="79.34,-132.75 72.91,-124.32 72.68,-134.91 79.34,-132.75"/>
<g id="a_edge9&#45;headlabel"><a xlink:href="dir_000003_000004.html" target="_top" xlink:title="4">
<text text-anchor="middle" x="83.15" y="-132.78" font-family="Helvetica,sans-Serif" font-size="10.00">4</text>
</a>
</g>
</g>
<!-- dir_14cc84e954c974a37d2b5f3c3004d168 -->
<g id="node4" class="node">
<title>dir_14cc84e954c974a37d2b5f3c3004d168</title>
<g id="a_node4"><a xlink:href="dir_14cc84e954c974a37d2b5f3c3004d168.html" target="_top" xlink:title="customer">
<polygon fill="#eeeeff" stroke="black" points="104,-52 42,-52 42,-16 104,-16 104,-52"/>
<text text-anchor="middle" x="73" y="-31.5" font-family="Helvetica,sans-Serif" font-size="10.00">customer</text>
</a>
</g>
</g>
<!-- dir_647fdf71efa30ed59cefff82a1f3b59b&#45;&gt;dir_14cc84e954c974a37d2b5f3c3004d168 -->
<g id="edge7" class="edge">
<title>dir_647fdf71efa30ed59cefff82a1f3b59b&#45;&gt;dir_14cc84e954c974a37d2b5f3c3004d168</title>
<path fill="none" stroke="black" d="M104.15,-231.91C111,-201.79 128.57,-137.73 110,-88 106.16,-77.73 99.34,-68.13 92.49,-60"/>
<polygon fill="black" stroke="black" points="95,-57.55 85.75,-52.38 89.76,-62.19 95,-57.55"/>
<g id="a_edge7&#45;headlabel"><a xlink:href="dir_000003_000002.html" target="_top" xlink:title="8">
<text text-anchor="middle" x="99.51" y="-55.86" font-family="Helvetica,sans-Serif" font-size="10.00">8</text>
</a>
</g>
</g>
<!-- dir_b083e5c802875a066f56759a428a2bfc&#45;&gt;dir_647fdf71efa30ed59cefff82a1f3b59b -->
<g id="edge10" class="edge">
<title>dir_b083e5c802875a066f56759a428a2bfc&#45;&gt;dir_647fdf71efa30ed59cefff82a1f3b59b</title>
<path fill="none" stroke="black" d="M74.14,-196.1C80.25,-204.13 86.87,-213.87 92.34,-222.8"/>
<polygon fill="black" stroke="black" points="89.47,-224.83 97.54,-231.7 95.52,-221.3 89.47,-224.83"/>
<g id="a_edge10&#45;headlabel"><a xlink:href="dir_000005_000003.html" target="_top" xlink:title="1">
<text text-anchor="middle" x="85.21" y="-220.66" font-family="Helvetica,sans-Serif" font-size="10.00">1</text>
</a>
</g>
</g>
<!-- dir_b083e5c802875a066f56759a428a2bfc&#45;&gt;dir_b7c6a6a0c4a8b329beeb4b467429a08c -->
<g id="edge11" class="edge">
<title>dir_b083e5c802875a066f56759a428a2bfc&#45;&gt;dir_b7c6a6a0c4a8b329beeb4b467429a08c</title>
<path fill="none" stroke="black" d="M55.04,-159.7C56.02,-151.9 57.94,-142.51 60.28,-133.83"/>
<polygon fill="black" stroke="black" points="63.68,-134.69 63.2,-124.1 56.97,-132.68 63.68,-134.69"/>
<g id="a_edge11&#45;headlabel"><a xlink:href="dir_000005_000004.html" target="_top" xlink:title="1">
<text text-anchor="middle" x="65.37" y="-136.45" font-family="Helvetica,sans-Serif" font-size="10.00">1</text>
</a>
</g>
</g>
<!-- dir_b7c6a6a0c4a8b329beeb4b467429a08c&#45;&gt;dir_647fdf71efa30ed59cefff82a1f3b59b -->
<g id="edge5" class="edge">
<title>dir_b7c6a6a0c4a8b329beeb4b467429a08c&#45;&gt;dir_647fdf71efa30ed59cefff82a1f3b59b</title>
<path fill="none" stroke="black" d="M88.66,-124.32C94.05,-134.51 99.05,-147.76 102,-160 106.88,-180.28 109.4,-203.75 109.38,-221.49"/>
<polygon fill="black" stroke="black" points="105.88,-221.61 109.05,-231.72 112.88,-221.84 105.88,-221.61"/>
<g id="a_edge5&#45;headlabel"><a xlink:href="dir_000004_000003.html" target="_top" xlink:title="10">
<text text-anchor="middle" x="103.16" y="-215.42" font-family="Helvetica,sans-Serif" font-size="10.00">10</text>
</a>
</g>
</g>
<!-- dir_b7c6a6a0c4a8b329beeb4b467429a08c&#45;&gt;dir_b083e5c802875a066f56759a428a2bfc -->
<g id="edge6" class="edge">
<title>dir_b7c6a6a0c4a8b329beeb4b467429a08c&#45;&gt;dir_b083e5c802875a066f56759a428a2bfc</title>
<path fill="none" stroke="black" d="M74.99,-124.1C74.02,-131.88 72.11,-141.26 69.78,-149.95"/>
<polygon fill="black" stroke="black" points="66.37,-149.11 66.87,-159.7 73.08,-151.11 66.37,-149.11"/>
<g id="a_edge6&#45;headlabel"><a xlink:href="dir_000004_000005.html" target="_top" xlink:title="8">
<text text-anchor="middle" x="64.68" y="-142.36" font-family="Helvetica,sans-Serif" font-size="10.00">8</text>
</a>
</g>
</g>
<!-- dir_b7c6a6a0c4a8b329beeb4b467429a08c&#45;&gt;dir_14cc84e954c974a37d2b5f3c3004d168 -->
<g id="edge4" class="edge">
<title>dir_b7c6a6a0c4a8b329beeb4b467429a08c&#45;&gt;dir_14cc84e954c974a37d2b5f3c3004d168</title>
<path fill="none" stroke="black" d="M67.08,-87.7C66.29,-79.98 66.06,-70.71 66.4,-62.11"/>
<polygon fill="black" stroke="black" points="69.9,-62.32 67.1,-52.1 62.92,-61.84 69.9,-62.32"/>
<g id="a_edge4&#45;headlabel"><a xlink:href="dir_000004_000002.html" target="_top" xlink:title="6">
<text text-anchor="middle" x="72.48" y="-63.61" font-family="Helvetica,sans-Serif" font-size="10.00">6</text>
</a>
</g>
</g>
<!-- dir_14cc84e954c974a37d2b5f3c3004d168&#45;&gt;dir_647fdf71efa30ed59cefff82a1f3b59b -->
<g id="edge1" class="edge">
<title>dir_14cc84e954c974a37d2b5f3c3004d168&#45;&gt;dir_647fdf71efa30ed59cefff82a1f3b59b</title>
<path fill="none" stroke="black" d="M101.63,-52.15C112.28,-61.59 122.84,-74.19 128,-88 144.83,-133.07 131.98,-189.9 118.93,-222.58"/>
<polygon fill="black" stroke="black" points="115.66,-221.34 114.91,-231.91 122.08,-224.11 115.66,-221.34"/>
<g id="a_edge1&#45;headlabel"><a xlink:href="dir_000002_000003.html" target="_top" xlink:title="1">
<text text-anchor="middle" x="114.47" y="-214.41" font-family="Helvetica,sans-Serif" font-size="10.00">1</text>
</a>
</g>
</g>
<!-- dir_14cc84e954c974a37d2b5f3c3004d168&#45;&gt;dir_b083e5c802875a066f56759a428a2bfc -->
<g id="edge2" class="edge">
<title>dir_14cc84e954c974a37d2b5f3c3004d168&#45;&gt;dir_b083e5c802875a066f56759a428a2bfc</title>
<path fill="none" stroke="black" d="M52.18,-52.38C42.54,-61.8 32.11,-74.3 27,-88 19.13,-109.07 28.45,-133.28 38.73,-151.12"/>
<polygon fill="black" stroke="black" points="35.87,-153.15 44.1,-159.82 41.82,-149.48 35.87,-153.15"/>
<g id="a_edge2&#45;headlabel"><a xlink:href="dir_000002_000005.html" target="_top" xlink:title="2">
<text text-anchor="middle" x="31.56" y="-149.09" font-family="Helvetica,sans-Serif" font-size="10.00">2</text>
</a>
</g>
</g>
<!-- dir_14cc84e954c974a37d2b5f3c3004d168&#45;&gt;dir_b7c6a6a0c4a8b329beeb4b467429a08c -->
<g id="edge3" class="edge">
<title>dir_14cc84e954c974a37d2b5f3c3004d168&#45;&gt;dir_b7c6a6a0c4a8b329beeb4b467429a08c</title>
<path fill="none" stroke="black" d="M78.9,-52.1C79.7,-59.79 79.94,-69.05 79.6,-77.67"/>
<polygon fill="black" stroke="black" points="76.11,-77.48 78.92,-87.7 83.09,-77.96 76.11,-77.48"/>
<g id="a_edge3&#45;headlabel"><a xlink:href="dir_000002_000004.html" target="_top" xlink:title="5">
<text text-anchor="middle" x="73.52" y="-71.2" font-family="Helvetica,sans-Serif" font-size="10.00">5</text>
</a>
</g>
</g>
</g>
</svg>
