<?xml version="1.0" encoding="UTF-8" standalone="no"?>
<!DOCTYPE svg PUBLIC "-//W3C//DTD SVG 1.1//EN"
 "http://www.w3.org/Graphics/SVG/1.1/DTD/svg11.dtd">
<!-- Generated by graphviz version 2.43.0 (0)
 -->
<!-- Title: backend/plant Pages: 1 -->
<svg width="154pt" height="311pt"
 viewBox="0.00 0.00 154.00 311.00" xmlns="http://www.w3.org/2000/svg" xmlns:xlink="http://www.w3.org/1999/xlink">
<g id="graph0" class="graph" transform="scale(1 1) rotate(0) translate(4 307)">
<title>backend/plant</title>
<polygon fill="white" stroke="transparent" points="-4,4 -4,-307 150,-307 150,4 -4,4"/>
<g id="clust1" class="cluster">
<title>clusterdir_8c739bbef76d64b22d6b0911c526dd76</title>
<g id="a_clust1"><a xlink:href="dir_8c739bbef76d64b22d6b0911c526dd76.html" target="_top" xlink:title="backend">
<polygon fill="#ddddee" stroke="black" points="8,-8 8,-295 138,-295 138,-8 8,-8"/>
<text text-anchor="middle" x="73" y="-283" font-family="Helvetica,sans-Serif" font-size="10.00">backend</text>
</a>
</g>
</g>
<!-- dir_647fdf71efa30ed59cefff82a1f3b59b -->
<g id="node1" class="node">
<title>dir_647fdf71efa30ed59cefff82a1f3b59b</title>
<g id="a_node1"><a xlink:href="dir_647fdf71efa30ed59cefff82a1f3b59b.html" target="_top" xlink:title="game">
<polygon fill="none" stroke="black" points="100,-268 46,-268 46,-232 100,-232 100,-268"/>
<text text-anchor="middle" x="73" y="-247.5" font-family="Helvetica,sans-Serif" font-size="10.00">game</text>
</a>
</g>
</g>
<!-- dir_b7c6a6a0c4a8b329beeb4b467429a08c -->
<g id="node2" class="node">
<title>dir_b7c6a6a0c4a8b329beeb4b467429a08c</title>
<g id="a_node2"><a xlink:href="dir_b7c6a6a0c4a8b329beeb4b467429a08c.html" target="_top" xlink:title="greenhouse">
<polygon fill="none" stroke="black" points="110,-196 36,-196 36,-160 110,-160 110,-196"/>
<text text-anchor="middle" x="73" y="-175.5" font-family="Helvetica,sans-Serif" font-size="10.00">greenhouse</text>
</a>
</g>
</g>
<!-- dir_647fdf71efa30ed59cefff82a1f3b59b&#45;&gt;dir_b7c6a6a0c4a8b329beeb4b467429a08c -->
<g id="edge5" class="edge">
<title>dir_647fdf71efa30ed59cefff82a1f3b59b&#45;&gt;dir_b7c6a6a0c4a8b329beeb4b467429a08c</title>
<path fill="none" stroke="black" d="M67.08,-231.7C66.29,-223.98 66.06,-214.71 66.4,-206.11"/>
<polygon fill="black" stroke="black" points="69.9,-206.32 67.1,-196.1 62.92,-205.84 69.9,-206.32"/>
<g id="a_edge5&#45;headlabel"><a xlink:href="dir_000003_000004.html" target="_top" xlink:title="4">
<text text-anchor="middle" x="72.48" y="-207.61" font-family="Helvetica,sans-Serif" font-size="10.00">4</text>
</a>
</g>
</g>
<!-- dir_e48d580525ce20fb628b28246bca6fb4 -->
<g id="node3" class="node">
<title>dir_e48d580525ce20fb628b28246bca6fb4</title>
<g id="a_node3"><a xlink:href="dir_e48d580525ce20fb628b28246bca6fb4.html" target="_top" xlink:title="WS">
<polygon fill="none" stroke="black" points="77,-52 23,-52 23,-16 77,-16 77,-52"/>
<text text-anchor="middle" x="50" y="-31.5" font-family="Helvetica,sans-Serif" font-size="10.00">WS</text>
</a>
</g>
</g>
<!-- dir_647fdf71efa30ed59cefff82a1f3b59b&#45;&gt;dir_e48d580525ce20fb628b28246bca6fb4 -->
<g id="edge6" class="edge">
<title>dir_647fdf71efa30ed59cefff82a1f3b59b&#45;&gt;dir_e48d580525ce20fb628b28246bca6fb4</title>
<path fill="none" stroke="black" d="M52.18,-231.62C42.54,-222.2 32.11,-209.7 27,-196 10.08,-150.69 26.1,-93.94 38.55,-61.34"/>
<polygon fill="black" stroke="black" points="41.81,-62.62 42.26,-52.04 35.31,-60.03 41.81,-62.62"/>
<g id="a_edge6&#45;headlabel"><a xlink:href="dir_000003_000006.html" target="_top" xlink:title="1">
<text text-anchor="middle" x="43.11" y="-64.51" font-family="Helvetica,sans-Serif" font-size="10.00">1</text>
</a>
</g>
</g>
<!-- dir_b083e5c802875a066f56759a428a2bfc -->
<g id="node4" class="node">
<title>dir_b083e5c802875a066f56759a428a2bfc</title>
<g id="a_node4"><a xlink:href="dir_b083e5c802875a066f56759a428a2bfc.html" target="_top" xlink:title="plant">
<polygon fill="#eeeeff" stroke="black" points="123,-124 69,-124 69,-88 123,-88 123,-124"/>
<text text-anchor="middle" x="96" y="-103.5" font-family="Helvetica,sans-Serif" font-size="10.00">plant</text>
</a>
</g>
</g>
<!-- dir_647fdf71efa30ed59cefff82a1f3b59b&#45;&gt;dir_b083e5c802875a066f56759a428a2bfc -->
<g id="edge4" class="edge">
<title>dir_647fdf71efa30ed59cefff82a1f3b59b&#45;&gt;dir_b083e5c802875a066f56759a428a2bfc</title>
<path fill="none" stroke="black" d="M85.75,-231.62C94.46,-222.2 104.89,-209.7 110,-196 117.64,-175.53 110.54,-151.51 103.64,-133.58"/>
<polygon fill="black" stroke="black" points="106.8,-132.04 99.83,-124.05 100.3,-134.64 106.8,-132.04"/>
<g id="a_edge4&#45;headlabel"><a xlink:href="dir_000003_000005.html" target="_top" xlink:title="4">
<text text-anchor="middle" x="110.77" y="-131.82" font-family="Helvetica,sans-Serif" font-size="10.00">4</text>
</a>
</g>
</g>
<!-- dir_b7c6a6a0c4a8b329beeb4b467429a08c&#45;&gt;dir_647fdf71efa30ed59cefff82a1f3b59b -->
<g id="edge1" class="edge">
<title>dir_b7c6a6a0c4a8b329beeb4b467429a08c&#45;&gt;dir_647fdf71efa30ed59cefff82a1f3b59b</title>
<path fill="none" stroke="black" d="M78.9,-196.1C79.7,-203.79 79.94,-213.05 79.6,-221.67"/>
<polygon fill="black" stroke="black" points="76.11,-221.48 78.92,-231.7 83.09,-221.96 76.11,-221.48"/>
<g id="a_edge1&#45;headlabel"><a xlink:href="dir_000004_000003.html" target="_top" xlink:title="10">
<text text-anchor="middle" x="73.52" y="-215.2" font-family="Helvetica,sans-Serif" font-size="10.00">10</text>
</a>
</g>
</g>
<!-- dir_b7c6a6a0c4a8b329beeb4b467429a08c&#45;&gt;dir_e48d580525ce20fb628b28246bca6fb4 -->
<g id="edge3" class="edge">
<title>dir_b7c6a6a0c4a8b329beeb4b467429a08c&#45;&gt;dir_e48d580525ce20fb628b28246bca6fb4</title>
<path fill="none" stroke="black" d="M68.22,-159.93C65.48,-149.6 62.16,-136.13 60,-124 56.34,-103.46 53.77,-80.01 52.15,-62.34"/>
<polygon fill="black" stroke="black" points="55.62,-61.81 51.27,-52.16 48.65,-62.42 55.62,-61.81"/>
<g id="a_edge3&#45;headlabel"><a xlink:href="dir_000004_000006.html" target="_top" xlink:title="1">
<text text-anchor="middle" x="58.76" y="-62.65" font-family="Helvetica,sans-Serif" font-size="10.00">1</text>
</a>
</g>
</g>
<!-- dir_b7c6a6a0c4a8b329beeb4b467429a08c&#45;&gt;dir_b083e5c802875a066f56759a428a2bfc -->
<g id="edge2" class="edge">
<title>dir_b7c6a6a0c4a8b329beeb4b467429a08c&#45;&gt;dir_b083e5c802875a066f56759a428a2bfc</title>
<path fill="none" stroke="black" d="M72.77,-159.7C74.55,-151.81 77.45,-142.3 80.71,-133.55"/>
<polygon fill="black" stroke="black" points="84.02,-134.69 84.48,-124.1 77.52,-132.09 84.02,-134.69"/>
<g id="a_edge2&#45;headlabel"><a xlink:href="dir_000004_000005.html" target="_top" xlink:title="8">
<text text-anchor="middle" x="85.32" y="-136.58" font-family="Helvetica,sans-Serif" font-size="10.00">8</text>
</a>
</g>
</g>
<!-- dir_b083e5c802875a066f56759a428a2bfc&#45;&gt;dir_647fdf71efa30ed59cefff82a1f3b59b -->
<g id="edge7" class="edge">
<title>dir_b083e5c802875a066f56759a428a2bfc&#45;&gt;dir_647fdf71efa30ed59cefff82a1f3b59b</title>
<path fill="none" stroke="black" d="M113.18,-124.05C125.29,-142.21 137.1,-171.63 128,-196 123.81,-207.21 116.07,-217.62 107.6,-226.2"/>
<polygon fill="black" stroke="black" points="104.98,-223.85 100.05,-233.23 109.75,-228.98 104.98,-223.85"/>
<g id="a_edge7&#45;headlabel"><a xlink:href="dir_000005_000003.html" target="_top" xlink:title="1">
<text text-anchor="middle" x="105.67" y="-216.83" font-family="Helvetica,sans-Serif" font-size="10.00">1</text>
</a>
</g>
</g>
<!-- dir_b083e5c802875a066f56759a428a2bfc&#45;&gt;dir_b7c6a6a0c4a8b329beeb4b467429a08c -->
<g id="edge8" class="edge">
<title>dir_b083e5c802875a066f56759a428a2bfc&#45;&gt;dir_b7c6a6a0c4a8b329beeb4b467429a08c</title>
<path fill="none" stroke="black" d="M96.28,-124.1C94.52,-131.96 91.62,-141.46 88.38,-150.23"/>
<polygon fill="black" stroke="black" points="85.06,-149.11 84.6,-159.7 91.56,-151.71 85.06,-149.11"/>
<g id="a_edge8&#45;headlabel"><a xlink:href="dir_000005_000004.html" target="_top" xlink:title="1">
<text text-anchor="middle" x="83.75" y="-142.22" font-family="Helvetica,sans-Serif" font-size="10.00">1</text>
</a>
</g>
</g>
<!-- dir_b083e5c802875a066f56759a428a2bfc&#45;&gt;dir_e48d580525ce20fb628b28246bca6fb4 -->
<g id="edge9" class="edge">
<title>dir_b083e5c802875a066f56759a428a2bfc&#45;&gt;dir_e48d580525ce20fb628b28246bca6fb4</title>
<path fill="none" stroke="black" d="M84.63,-87.7C79.28,-79.56 72.8,-69.69 66.89,-60.7"/>
<polygon fill="black" stroke="black" points="69.66,-58.54 61.24,-52.1 63.81,-62.38 69.66,-58.54"/>
<g id="a_edge9&#45;headlabel"><a xlink:href="dir_000005_000006.html" target="_top" xlink:title="2">
<text text-anchor="middle" x="74" y="-57.48" font-family="Helvetica,sans-Serif" font-size="10.00">2</text>
</a>
</g>
</g>
</g>
</svg>
