<?xml version="1.0" encoding="UTF-8" standalone="no"?>
<!DOCTYPE svg PUBLIC "-//W3C//DTD SVG 1.1//EN"
 "http://www.w3.org/Graphics/SVG/1.1/DTD/svg11.dtd">
<!-- Generated by graphviz version 2.43.0 (0)
 -->
<!-- Title: backend/game Pages: 1 -->
<svg width="174pt" height="383pt"
 viewBox="0.00 0.00 174.00 383.00" xmlns="http://www.w3.org/2000/svg" xmlns:xlink="http://www.w3.org/1999/xlink">
<g id="graph0" class="graph" transform="scale(1 1) rotate(0) translate(4 379)">
<title>backend/game</title>
<polygon fill="white" stroke="transparent" points="-4,4 -4,-379 170,-379 170,4 -4,4"/>
<g id="clust1" class="cluster">
<title>clusterdir_8c739bbef76d64b22d6b0911c526dd76</title>
<g id="a_clust1"><a xlink:href="dir_8c739bbef76d64b22d6b0911c526dd76.html" target="_top" xlink:title="backend">
<polygon fill="#ddddee" stroke="black" points="8,-8 8,-367 158,-367 158,-8 8,-8"/>
<text text-anchor="middle" x="83" y="-355" font-family="Helvetica,sans-Serif" font-size="10.00">backend</text>
</a>
</g>
</g>
<!-- dir_14cc84e954c974a37d2b5f3c3004d168 -->
<g id="node1" class="node">
<title>dir_14cc84e954c974a37d2b5f3c3004d168</title>
<g id="a_node1"><a xlink:href="dir_14cc84e954c974a37d2b5f3c3004d168.html" target="_top" xlink:title="customer">
<polygon fill="none" stroke="black" points="94,-340 32,-340 32,-304 94,-304 94,-340"/>
<text text-anchor="middle" x="63" y="-319.5" font-family="Helvetica,sans-Serif" font-size="10.00">customer</text>
</a>
</g>
</g>
<!-- dir_b083e5c802875a066f56759a428a2bfc -->
<g id="node2" class="node">
<title>dir_b083e5c802875a066f56759a428a2bfc</title>
<g id="a_node2"><a xlink:href="dir_b083e5c802875a066f56759a428a2bfc.html" target="_top" xlink:title="plant">
<polygon fill="none" stroke="black" points="90,-268 36,-268 36,-232 90,-232 90,-268"/>
<text text-anchor="middle" x="63" y="-247.5" font-family="Helvetica,sans-Serif" font-size="10.00">plant</text>
</a>
</g>
</g>
<!-- dir_14cc84e954c974a37d2b5f3c3004d168&#45;&gt;dir_b083e5c802875a066f56759a428a2bfc -->
<g id="edge2" class="edge">
<title>dir_14cc84e954c974a37d2b5f3c3004d168&#45;&gt;dir_b083e5c802875a066f56759a428a2bfc</title>
<path fill="none" stroke="black" d="M63,-303.7C63,-295.98 63,-286.71 63,-278.11"/>
<polygon fill="black" stroke="black" points="66.5,-278.1 63,-268.1 59.5,-278.1 66.5,-278.1"/>
<g id="a_edge2&#45;headlabel"><a xlink:href="dir_000002_000005.html" target="_top" xlink:title="2">
<text text-anchor="middle" x="69.34" y="-279.2" font-family="Helvetica,sans-Serif" font-size="10.00">2</text>
</a>
</g>
</g>
<!-- dir_b7c6a6a0c4a8b329beeb4b467429a08c -->
<g id="node3" class="node">
<title>dir_b7c6a6a0c4a8b329beeb4b467429a08c</title>
<g id="a_node3"><a xlink:href="dir_b7c6a6a0c4a8b329beeb4b467429a08c.html" target="_top" xlink:title="greenhouse">
<polygon fill="none" stroke="black" points="150,-196 76,-196 76,-160 150,-160 150,-196"/>
<text text-anchor="middle" x="113" y="-175.5" font-family="Helvetica,sans-Serif" font-size="10.00">greenhouse</text>
</a>
</g>
</g>
<!-- dir_14cc84e954c974a37d2b5f3c3004d168&#45;&gt;dir_b7c6a6a0c4a8b329beeb4b467429a08c -->
<g id="edge3" class="edge">
<title>dir_14cc84e954c974a37d2b5f3c3004d168&#45;&gt;dir_b7c6a6a0c4a8b329beeb4b467429a08c</title>
<path fill="none" stroke="black" d="M69.51,-303.96C76.05,-294.08 84.85,-281.03 90,-268 97.83,-248.18 101.29,-224.24 104.17,-206.19"/>
<polygon fill="black" stroke="black" points="107.63,-206.76 105.83,-196.32 100.73,-205.6 107.63,-206.76"/>
<g id="a_edge3&#45;headlabel"><a xlink:href="dir_000002_000004.html" target="_top" xlink:title="5">
<text text-anchor="middle" x="109.83" y="-208.27" font-family="Helvetica,sans-Serif" font-size="10.00">5</text>
</a>
</g>
</g>
<!-- dir_647fdf71efa30ed59cefff82a1f3b59b -->
<g id="node5" class="node">
<title>dir_647fdf71efa30ed59cefff82a1f3b59b</title>
<g id="a_node5"><a xlink:href="dir_647fdf71efa30ed59cefff82a1f3b59b.html" target="_top" xlink:title="game">
<polygon fill="#eeeeff" stroke="black" points="110,-124 56,-124 56,-88 110,-88 110,-124"/>
<text text-anchor="middle" x="83" y="-103.5" font-family="Helvetica,sans-Serif" font-size="10.00">game</text>
</a>
</g>
</g>
<!-- dir_14cc84e954c974a37d2b5f3c3004d168&#45;&gt;dir_647fdf71efa30ed59cefff82a1f3b59b -->
<g id="edge1" class="edge">
<title>dir_14cc84e954c974a37d2b5f3c3004d168&#45;&gt;dir_647fdf71efa30ed59cefff82a1f3b59b</title>
<path fill="none" stroke="black" d="M39.41,-303.77C30.63,-294.03 22.05,-281.18 18,-268 13.3,-252.71 14.68,-247.65 18,-232 25.69,-195.74 44.78,-157.3 60.56,-132.77"/>
<polygon fill="black" stroke="black" points="63.52,-134.65 66.2,-124.4 57.71,-130.74 63.52,-134.65"/>
<g id="a_edge1&#45;headlabel"><a xlink:href="dir_000002_000003.html" target="_top" xlink:title="1">
<text text-anchor="middle" x="63.87" y="-136.71" font-family="Helvetica,sans-Serif" font-size="10.00">1</text>
</a>
</g>
</g>
<!-- dir_b083e5c802875a066f56759a428a2bfc&#45;&gt;dir_b7c6a6a0c4a8b329beeb4b467429a08c -->
<g id="edge13" class="edge">
<title>dir_b083e5c802875a066f56759a428a2bfc&#45;&gt;dir_b7c6a6a0c4a8b329beeb4b467429a08c</title>
<path fill="none" stroke="black" d="M69.44,-231.7C74.52,-223.39 81.55,-213.28 88.54,-204.14"/>
<polygon fill="black" stroke="black" points="91.43,-206.12 94.89,-196.1 85.94,-201.78 91.43,-206.12"/>
<g id="a_edge13&#45;headlabel"><a xlink:href="dir_000005_000004.html" target="_top" xlink:title="1">
<text text-anchor="middle" x="91.43" y="-208.2" font-family="Helvetica,sans-Serif" font-size="10.00">1</text>
</a>
</g>
</g>
<!-- dir_e48d580525ce20fb628b28246bca6fb4 -->
<g id="node4" class="node">
<title>dir_e48d580525ce20fb628b28246bca6fb4</title>
<g id="a_node4"><a xlink:href="dir_e48d580525ce20fb628b28246bca6fb4.html" target="_top" xlink:title="WS">
<polygon fill="none" stroke="black" points="110,-52 56,-52 56,-16 110,-16 110,-52"/>
<text text-anchor="middle" x="83" y="-31.5" font-family="Helvetica,sans-Serif" font-size="10.00">WS</text>
</a>
</g>
</g>
<!-- dir_b083e5c802875a066f56759a428a2bfc&#45;&gt;dir_e48d580525ce20fb628b28246bca6fb4 -->
<g id="edge14" class="edge">
<title>dir_b083e5c802875a066f56759a428a2bfc&#45;&gt;dir_e48d580525ce20fb628b28246bca6fb4</title>
<path fill="none" stroke="black" d="M56.93,-231.64C47.38,-201.64 31.48,-138.47 47,-88 50.01,-78.22 55.51,-68.62 61.32,-60.33"/>
<polygon fill="black" stroke="black" points="64.19,-62.33 67.39,-52.23 58.59,-58.13 64.19,-62.33"/>
<g id="a_edge14&#45;headlabel"><a xlink:href="dir_000005_000006.html" target="_top" xlink:title="2">
<text text-anchor="middle" x="64.31" y="-64.41" font-family="Helvetica,sans-Serif" font-size="10.00">2</text>
</a>
</g>
</g>
<!-- dir_b083e5c802875a066f56759a428a2bfc&#45;&gt;dir_647fdf71efa30ed59cefff82a1f3b59b -->
<g id="edge12" class="edge">
<title>dir_b083e5c802875a066f56759a428a2bfc&#45;&gt;dir_647fdf71efa30ed59cefff82a1f3b59b</title>
<path fill="none" stroke="black" d="M55.8,-231.8C53.3,-213.78 53.78,-184.7 58,-160 59.47,-151.38 61.92,-142.19 64.87,-133.93"/>
<polygon fill="black" stroke="black" points="68.21,-134.99 68.68,-124.4 61.71,-132.39 68.21,-134.99"/>
<g id="a_edge12&#45;headlabel"><a xlink:href="dir_000005_000003.html" target="_top" xlink:title="1">
<text text-anchor="middle" x="69.51" y="-136.88" font-family="Helvetica,sans-Serif" font-size="10.00">1</text>
</a>
</g>
</g>
<!-- dir_b7c6a6a0c4a8b329beeb4b467429a08c&#45;&gt;dir_14cc84e954c974a37d2b5f3c3004d168 -->
<g id="edge4" class="edge">
<title>dir_b7c6a6a0c4a8b329beeb4b467429a08c&#45;&gt;dir_14cc84e954c974a37d2b5f3c3004d168</title>
<path fill="none" stroke="black" d="M119.19,-196.32C120.48,-214.69 117.37,-244.29 108,-268 104.14,-277.78 98.22,-287.56 91.84,-296.01"/>
<polygon fill="black" stroke="black" points="88.96,-294 85.36,-303.96 94.39,-298.42 88.96,-294"/>
<g id="a_edge4&#45;headlabel"><a xlink:href="dir_000004_000002.html" target="_top" xlink:title="6">
<text text-anchor="middle" x="89.03" y="-286.92" font-family="Helvetica,sans-Serif" font-size="10.00">6</text>
</a>
</g>
</g>
<!-- dir_b7c6a6a0c4a8b329beeb4b467429a08c&#45;&gt;dir_b083e5c802875a066f56759a428a2bfc -->
<g id="edge6" class="edge">
<title>dir_b7c6a6a0c4a8b329beeb4b467429a08c&#45;&gt;dir_b083e5c802875a066f56759a428a2bfc</title>
<path fill="none" stroke="black" d="M106.68,-196.1C101.63,-204.38 94.62,-214.49 87.63,-223.64"/>
<polygon fill="black" stroke="black" points="84.72,-221.68 81.28,-231.7 90.22,-226.01 84.72,-221.68"/>
<g id="a_edge6&#45;headlabel"><a xlink:href="dir_000004_000005.html" target="_top" xlink:title="8">
<text text-anchor="middle" x="84.72" y="-214.6" font-family="Helvetica,sans-Serif" font-size="10.00">8</text>
</a>
</g>
</g>
<!-- dir_b7c6a6a0c4a8b329beeb4b467429a08c&#45;&gt;dir_e48d580525ce20fb628b28246bca6fb4 -->
<g id="edge7" class="edge">
<title>dir_b7c6a6a0c4a8b329beeb4b467429a08c&#45;&gt;dir_e48d580525ce20fb628b28246bca6fb4</title>
<path fill="none" stroke="black" d="M117.74,-159.85C121.96,-141.61 126.42,-112.13 119,-88 115.99,-78.22 110.49,-68.62 104.68,-60.33"/>
<polygon fill="black" stroke="black" points="107.41,-58.13 98.61,-52.23 101.81,-62.33 107.41,-58.13"/>
<g id="a_edge7&#45;headlabel"><a xlink:href="dir_000004_000006.html" target="_top" xlink:title="1">
<text text-anchor="middle" x="111.83" y="-56.8" font-family="Helvetica,sans-Serif" font-size="10.00">1</text>
</a>
</g>
</g>
<!-- dir_b7c6a6a0c4a8b329beeb4b467429a08c&#45;&gt;dir_647fdf71efa30ed59cefff82a1f3b59b -->
<g id="edge5" class="edge">
<title>dir_b7c6a6a0c4a8b329beeb4b467429a08c&#45;&gt;dir_647fdf71efa30ed59cefff82a1f3b59b</title>
<path fill="none" stroke="black" d="M99.67,-159.7C95.48,-151.81 91.18,-142.3 87.81,-133.55"/>
<polygon fill="black" stroke="black" points="91.09,-132.35 84.44,-124.1 84.5,-134.7 91.09,-132.35"/>
<g id="a_edge5&#45;headlabel"><a xlink:href="dir_000004_000003.html" target="_top" xlink:title="10">
<text text-anchor="middle" x="94.98" y="-132.28" font-family="Helvetica,sans-Serif" font-size="10.00">10</text>
</a>
</g>
</g>
<!-- dir_647fdf71efa30ed59cefff82a1f3b59b&#45;&gt;dir_14cc84e954c974a37d2b5f3c3004d168 -->
<g id="edge8" class="edge">
<title>dir_647fdf71efa30ed59cefff82a1f3b59b&#45;&gt;dir_14cc84e954c974a37d2b5f3c3004d168</title>
<path fill="none" stroke="black" d="M78.45,-124.4C67.64,-147.83 44.64,-191.29 36,-232 32.68,-247.65 31.3,-252.71 36,-268 38.98,-277.68 44.39,-287.18 49.73,-295.4"/>
<polygon fill="black" stroke="black" points="46.88,-297.44 55.37,-303.77 52.68,-293.52 46.88,-297.44"/>
<g id="a_edge8&#45;headlabel"><a xlink:href="dir_000003_000002.html" target="_top" xlink:title="8">
<text text-anchor="middle" x="42.51" y="-293.54" font-family="Helvetica,sans-Serif" font-size="10.00">8</text>
</a>
</g>
</g>
<!-- dir_647fdf71efa30ed59cefff82a1f3b59b&#45;&gt;dir_b083e5c802875a066f56759a428a2bfc -->
<g id="edge9" class="edge">
<title>dir_647fdf71efa30ed59cefff82a1f3b59b&#45;&gt;dir_b083e5c802875a066f56759a428a2bfc</title>
<path fill="none" stroke="black" d="M84.43,-124.4C82.07,-134.62 78.07,-147.87 76,-160 72.51,-180.45 71.58,-203.91 70.19,-221.61"/>
<polygon fill="black" stroke="black" points="66.68,-221.52 69.24,-231.8 73.65,-222.17 66.68,-221.52"/>
<g id="a_edge9&#45;headlabel"><a xlink:href="dir_000003_000005.html" target="_top" xlink:title="4">
<text text-anchor="middle" x="64.19" y="-215.18" font-family="Helvetica,sans-Serif" font-size="10.00">4</text>
</a>
</g>
</g>
<!-- dir_647fdf71efa30ed59cefff82a1f3b59b&#45;&gt;dir_b7c6a6a0c4a8b329beeb4b467429a08c -->
<g id="edge10" class="edge">
<title>dir_647fdf71efa30ed59cefff82a1f3b59b&#45;&gt;dir_b7c6a6a0c4a8b329beeb4b467429a08c</title>
<path fill="none" stroke="black" d="M96.23,-124.1C100.42,-131.96 104.72,-141.46 108.11,-150.23"/>
<polygon fill="black" stroke="black" points="104.83,-151.46 111.5,-159.7 111.42,-149.1 104.83,-151.46"/>
<g id="a_edge10&#45;headlabel"><a xlink:href="dir_000003_000004.html" target="_top" xlink:title="4">
<text text-anchor="middle" x="100.95" y="-146.54" font-family="Helvetica,sans-Serif" font-size="10.00">4</text>
</a>
</g>
</g>
<!-- dir_647fdf71efa30ed59cefff82a1f3b59b&#45;&gt;dir_e48d580525ce20fb628b28246bca6fb4 -->
<g id="edge11" class="edge">
<title>dir_647fdf71efa30ed59cefff82a1f3b59b&#45;&gt;dir_e48d580525ce20fb628b28246bca6fb4</title>
<path fill="none" stroke="black" d="M83,-87.7C83,-79.98 83,-70.71 83,-62.11"/>
<polygon fill="black" stroke="black" points="86.5,-62.1 83,-52.1 79.5,-62.1 86.5,-62.1"/>
<g id="a_edge11&#45;headlabel"><a xlink:href="dir_000003_000006.html" target="_top" xlink:title="1">
<text text-anchor="middle" x="89.34" y="-63.2" font-family="Helvetica,sans-Serif" font-size="10.00">1</text>
</a>
</g>
</g>
</g>
</svg>
