<?xml version="1.0" encoding="UTF-8" standalone="no"?>
<!DOCTYPE svg PUBLIC "-//W3C//DTD SVG 1.1//EN"
 "http://www.w3.org/Graphics/SVG/1.1/DTD/svg11.dtd">
<!-- Generated by graphviz version 2.43.0 (0)
 -->
<!-- Title: backend Pages: 1 -->
<svg width="214pt" height="508pt"
 viewBox="0.00 0.00 214.00 508.00" xmlns="http://www.w3.org/2000/svg" xmlns:xlink="http://www.w3.org/1999/xlink">
<g id="graph0" class="graph" transform="scale(1 1) rotate(0) translate(4 504)">
<title>backend</title>
<polygon fill="white" stroke="transparent" points="-4,4 -4,-504 210,-504 210,4 -4,4"/>
<g id="clust1" class="cluster">
<title>clusterdir_8c739bbef76d64b22d6b0911c526dd76</title>
<g id="a_clust1"><a xlink:href="dir_8c739bbef76d64b22d6b0911c526dd76.html" target="_top">
<polygon fill="#eeeeff" stroke="black" points="8,-8 8,-492 198,-492 198,-8 8,-8"/>
</a>
</g>
</g>
<!-- dir_8c739bbef76d64b22d6b0911c526dd76 -->
<g id="node1" class="node">
<title>dir_8c739bbef76d64b22d6b0911c526dd76</title>
<text text-anchor="middle" x="140" y="-463.5" font-family="Helvetica,sans-Serif" font-size="10.00">backend</text>
</g>
<!-- dir_b4b9d1695e1b5cc04b5c840ac9298700 -->
<g id="node2" class="node">
<title>dir_b4b9d1695e1b5cc04b5c840ac9298700</title>
<g id="a_node2"><a xlink:href="dir_b4b9d1695e1b5cc04b5c840ac9298700.html" target="_top" xlink:title="API">
<polygon fill="white" stroke="black" points="146,-412 92,-412 92,-376 146,-376 146,-412"/>
<text text-anchor="middle" x="119" y="-391.5" font-family="Helvetica,sans-Serif" font-size="10.00">API</text>
</a>
</g>
</g>
<!-- dir_8c739bbef76d64b22d6b0911c526dd76&#45;&gt;dir_b4b9d1695e1b5cc04b5c840ac9298700 -->
<g id="edge11" class="edge">
<title>dir_8c739bbef76d64b22d6b0911c526dd76&#45;&gt;dir_b4b9d1695e1b5cc04b5c840ac9298700</title>
<path fill="none" stroke="black" d="M134.81,-447.7C132.47,-439.9 129.65,-430.51 127.05,-421.83"/>
<polygon fill="black" stroke="black" points="130.36,-420.68 124.13,-412.1 123.65,-422.69 130.36,-420.68"/>
<g id="a_edge11&#45;headlabel"><a xlink:href="dir_000000_000001.html" target="_top" xlink:title="1">
<text text-anchor="middle" x="134.11" y="-420.8" font-family="Helvetica,sans-Serif" font-size="10.00">1</text>
</a>
</g>
</g>
<!-- dir_b083e5c802875a066f56759a428a2bfc -->
<g id="node6" class="node">
<title>dir_b083e5c802875a066f56759a428a2bfc</title>
<g id="a_node6"><a xlink:href="dir_b083e5c802875a066f56759a428a2bfc.html" target="_top" xlink:title="plant">
<polygon fill="white" stroke="black" points="183,-124 129,-124 129,-88 183,-88 183,-124"/>
<text text-anchor="middle" x="156" y="-103.5" font-family="Helvetica,sans-Serif" font-size="10.00">plant</text>
</a>
</g>
</g>
<!-- dir_8c739bbef76d64b22d6b0911c526dd76&#45;&gt;dir_b083e5c802875a066f56759a428a2bfc -->
<g id="edge10" class="edge">
<title>dir_8c739bbef76d64b22d6b0911c526dd76&#45;&gt;dir_b083e5c802875a066f56759a428a2bfc</title>
<path fill="none" stroke="black" d="M150.15,-447.73C164.51,-421.64 189,-370.2 189,-323 189,-323 189,-323 189,-249 189,-207.97 175.77,-161.97 166.06,-133.74"/>
<polygon fill="black" stroke="black" points="169.32,-132.45 162.68,-124.19 162.72,-134.78 169.32,-132.45"/>
<g id="a_edge10&#45;headlabel"><a xlink:href="dir_000000_000005.html" target="_top" xlink:title="18">
<text text-anchor="middle" x="173.19" y="-132.39" font-family="Helvetica,sans-Serif" font-size="10.00">18</text>
</a>
</g>
</g>
<!-- dir_647fdf71efa30ed59cefff82a1f3b59b -->
<g id="node4" class="node">
<title>dir_647fdf71efa30ed59cefff82a1f3b59b</title>
<g id="a_node4"><a xlink:href="dir_647fdf71efa30ed59cefff82a1f3b59b.html" target="_top" xlink:title="game">
<polygon fill="white" stroke="black" points="146,-340 92,-340 92,-304 146,-304 146,-340"/>
<text text-anchor="middle" x="119" y="-319.5" font-family="Helvetica,sans-Serif" font-size="10.00">game</text>
</a>
</g>
</g>
<!-- dir_b4b9d1695e1b5cc04b5c840ac9298700&#45;&gt;dir_647fdf71efa30ed59cefff82a1f3b59b -->
<g id="edge4" class="edge">
<title>dir_b4b9d1695e1b5cc04b5c840ac9298700&#45;&gt;dir_647fdf71efa30ed59cefff82a1f3b59b</title>
<path fill="none" stroke="black" d="M119,-375.7C119,-367.98 119,-358.71 119,-350.11"/>
<polygon fill="black" stroke="black" points="122.5,-350.1 119,-340.1 115.5,-350.1 122.5,-350.1"/>
<g id="a_edge4&#45;headlabel"><a xlink:href="dir_000001_000003.html" target="_top" xlink:title="7">
<text text-anchor="middle" x="125.34" y="-351.2" font-family="Helvetica,sans-Serif" font-size="10.00">7</text>
</a>
</g>
</g>
<!-- dir_e48d580525ce20fb628b28246bca6fb4 -->
<g id="node7" class="node">
<title>dir_e48d580525ce20fb628b28246bca6fb4</title>
<g id="a_node7"><a xlink:href="dir_e48d580525ce20fb628b28246bca6fb4.html" target="_top" xlink:title="WS">
<polygon fill="white" stroke="black" points="86,-52 32,-52 32,-16 86,-16 86,-52"/>
<text text-anchor="middle" x="59" y="-31.5" font-family="Helvetica,sans-Serif" font-size="10.00">WS</text>
</a>
</g>
</g>
<!-- dir_b4b9d1695e1b5cc04b5c840ac9298700&#45;&gt;dir_e48d580525ce20fb628b28246bca6fb4 -->
<g id="edge5" class="edge">
<title>dir_b4b9d1695e1b5cc04b5c840ac9298700&#45;&gt;dir_e48d580525ce20fb628b28246bca6fb4</title>
<path fill="none" stroke="black" d="M95.6,-375.92C65.49,-351.77 17,-304.57 17,-251 17,-251 17,-251 17,-177 17,-135.15 33.99,-89.1 46.35,-61.11"/>
<polygon fill="black" stroke="black" points="49.54,-62.56 50.5,-52.01 43.17,-59.66 49.54,-62.56"/>
<g id="a_edge5&#45;headlabel"><a xlink:href="dir_000001_000006.html" target="_top" xlink:title="1">
<text text-anchor="middle" x="50.64" y="-64.51" font-family="Helvetica,sans-Serif" font-size="10.00">1</text>
</a>
</g>
</g>
<!-- dir_14cc84e954c974a37d2b5f3c3004d168 -->
<g id="node3" class="node">
<title>dir_14cc84e954c974a37d2b5f3c3004d168</title>
<g id="a_node3"><a xlink:href="dir_14cc84e954c974a37d2b5f3c3004d168.html" target="_top" xlink:title="customer">
<polygon fill="white" stroke="black" points="150,-268 88,-268 88,-232 150,-232 150,-268"/>
<text text-anchor="middle" x="119" y="-247.5" font-family="Helvetica,sans-Serif" font-size="10.00">customer</text>
</a>
</g>
</g>
<!-- dir_14cc84e954c974a37d2b5f3c3004d168&#45;&gt;dir_647fdf71efa30ed59cefff82a1f3b59b -->
<g id="edge1" class="edge">
<title>dir_14cc84e954c974a37d2b5f3c3004d168&#45;&gt;dir_647fdf71efa30ed59cefff82a1f3b59b</title>
<path fill="none" stroke="black" d="M124.9,-268.1C125.7,-275.79 125.94,-285.05 125.6,-293.67"/>
<polygon fill="black" stroke="black" points="122.11,-293.48 124.92,-303.7 129.09,-293.96 122.11,-293.48"/>
<g id="a_edge1&#45;headlabel"><a xlink:href="dir_000002_000003.html" target="_top" xlink:title="1">
<text text-anchor="middle" x="119.52" y="-287.2" font-family="Helvetica,sans-Serif" font-size="10.00">1</text>
</a>
</g>
</g>
<!-- dir_b7c6a6a0c4a8b329beeb4b467429a08c -->
<g id="node5" class="node">
<title>dir_b7c6a6a0c4a8b329beeb4b467429a08c</title>
<g id="a_node5"><a xlink:href="dir_b7c6a6a0c4a8b329beeb4b467429a08c.html" target="_top" xlink:title="greenhouse">
<polygon fill="white" stroke="black" points="130,-196 56,-196 56,-160 130,-160 130,-196"/>
<text text-anchor="middle" x="93" y="-175.5" font-family="Helvetica,sans-Serif" font-size="10.00">greenhouse</text>
</a>
</g>
</g>
<!-- dir_14cc84e954c974a37d2b5f3c3004d168&#45;&gt;dir_b7c6a6a0c4a8b329beeb4b467429a08c -->
<g id="edge3" class="edge">
<title>dir_14cc84e954c974a37d2b5f3c3004d168&#45;&gt;dir_b7c6a6a0c4a8b329beeb4b467429a08c</title>
<path fill="none" stroke="black" d="M106.66,-231.7C102.96,-223.9 99.25,-214.51 96.38,-205.83"/>
<polygon fill="black" stroke="black" points="99.69,-204.67 93.46,-196.1 92.99,-206.69 99.69,-204.67"/>
<g id="a_edge3&#45;headlabel"><a xlink:href="dir_000002_000004.html" target="_top" xlink:title="1">
<text text-anchor="middle" x="103.44" y="-204.8" font-family="Helvetica,sans-Serif" font-size="10.00">1</text>
</a>
</g>
</g>
<!-- dir_14cc84e954c974a37d2b5f3c3004d168&#45;&gt;dir_b083e5c802875a066f56759a428a2bfc -->
<g id="edge2" class="edge">
<title>dir_14cc84e954c974a37d2b5f3c3004d168&#45;&gt;dir_b083e5c802875a066f56759a428a2bfc</title>
<path fill="none" stroke="black" d="M126.44,-231.59C130.58,-221.37 135.58,-208.12 139,-196 144.75,-175.59 149.16,-152 152.05,-134.24"/>
<polygon fill="black" stroke="black" points="155.52,-134.69 153.6,-124.27 148.6,-133.6 155.52,-134.69"/>
<g id="a_edge2&#45;headlabel"><a xlink:href="dir_000002_000005.html" target="_top" xlink:title="2">
<text text-anchor="middle" x="157.77" y="-136.18" font-family="Helvetica,sans-Serif" font-size="10.00">2</text>
</a>
</g>
</g>
<!-- dir_647fdf71efa30ed59cefff82a1f3b59b&#45;&gt;dir_14cc84e954c974a37d2b5f3c3004d168 -->
<g id="edge12" class="edge">
<title>dir_647fdf71efa30ed59cefff82a1f3b59b&#45;&gt;dir_14cc84e954c974a37d2b5f3c3004d168</title>
<path fill="none" stroke="black" d="M113.08,-303.7C112.29,-295.98 112.06,-286.71 112.4,-278.11"/>
<polygon fill="black" stroke="black" points="115.9,-278.32 113.1,-268.1 108.92,-277.84 115.9,-278.32"/>
<g id="a_edge12&#45;headlabel"><a xlink:href="dir_000003_000002.html" target="_top" xlink:title="8">
<text text-anchor="middle" x="118.48" y="-279.61" font-family="Helvetica,sans-Serif" font-size="10.00">8</text>
</a>
</g>
</g>
<!-- dir_647fdf71efa30ed59cefff82a1f3b59b&#45;&gt;dir_b083e5c802875a066f56759a428a2bfc -->
<g id="edge13" class="edge">
<title>dir_647fdf71efa30ed59cefff82a1f3b59b&#45;&gt;dir_b083e5c802875a066f56759a428a2bfc</title>
<path fill="none" stroke="black" d="M128.71,-303.6C136.24,-294 145.53,-281.34 150,-268 165.08,-222.99 158.83,-166.85 155.55,-134.16"/>
<polygon fill="black" stroke="black" points="159.01,-133.64 154.58,-124.02 152.04,-134.3 159.01,-133.64"/>
<g id="a_edge13&#45;headlabel"><a xlink:href="dir_000003_000005.html" target="_top" xlink:title="4">
<text text-anchor="middle" x="162.18" y="-134.45" font-family="Helvetica,sans-Serif" font-size="10.00">4</text>
</a>
</g>
</g>
<!-- dir_647fdf71efa30ed59cefff82a1f3b59b&#45;&gt;dir_e48d580525ce20fb628b28246bca6fb4 -->
<g id="edge14" class="edge">
<title>dir_647fdf71efa30ed59cefff82a1f3b59b&#45;&gt;dir_e48d580525ce20fb628b28246bca6fb4</title>
<path fill="none" stroke="black" d="M100.07,-303.86C90.27,-294.14 78.77,-281.29 71,-268 53.98,-238.88 52.4,-229.3 47,-196 39.42,-149.27 47.06,-94.12 53.15,-62"/>
<polygon fill="black" stroke="black" points="56.61,-62.52 55.12,-52.03 49.74,-61.16 56.61,-62.52"/>
<g id="a_edge14&#45;headlabel"><a xlink:href="dir_000003_000006.html" target="_top" xlink:title="1">
<text text-anchor="middle" x="58.69" y="-64.1" font-family="Helvetica,sans-Serif" font-size="10.00">1</text>
</a>
</g>
</g>
<!-- dir_b7c6a6a0c4a8b329beeb4b467429a08c&#45;&gt;dir_14cc84e954c974a37d2b5f3c3004d168 -->
<g id="edge6" class="edge">
<title>dir_b7c6a6a0c4a8b329beeb4b467429a08c&#45;&gt;dir_14cc84e954c974a37d2b5f3c3004d168</title>
<path fill="none" stroke="black" d="M105.25,-196.1C108.95,-203.88 112.67,-213.26 115.55,-221.95"/>
<polygon fill="black" stroke="black" points="112.25,-223.14 118.49,-231.7 118.95,-221.11 112.25,-223.14"/>
<g id="a_edge6&#45;headlabel"><a xlink:href="dir_000004_000002.html" target="_top" xlink:title="6">
<text text-anchor="middle" x="108.49" y="-218.01" font-family="Helvetica,sans-Serif" font-size="10.00">6</text>
</a>
</g>
</g>
<!-- dir_b7c6a6a0c4a8b329beeb4b467429a08c&#45;&gt;dir_647fdf71efa30ed59cefff82a1f3b59b -->
<g id="edge7" class="edge">
<title>dir_b7c6a6a0c4a8b329beeb4b467429a08c&#45;&gt;dir_647fdf71efa30ed59cefff82a1f3b59b</title>
<path fill="none" stroke="black" d="M85.59,-196.13C78.79,-214.35 70.9,-243.83 79,-268 82.35,-278 88.42,-287.62 94.83,-295.86"/>
<polygon fill="black" stroke="black" points="92.18,-298.15 101.27,-303.6 97.56,-293.67 92.18,-298.15"/>
<g id="a_edge7&#45;headlabel"><a xlink:href="dir_000004_000003.html" target="_top" xlink:title="8">
<text text-anchor="middle" x="87.7" y="-294.7" font-family="Helvetica,sans-Serif" font-size="10.00">8</text>
</a>
</g>
</g>
<!-- dir_b7c6a6a0c4a8b329beeb4b467429a08c&#45;&gt;dir_b083e5c802875a066f56759a428a2bfc -->
<g id="edge8" class="edge">
<title>dir_b7c6a6a0c4a8b329beeb4b467429a08c&#45;&gt;dir_b083e5c802875a066f56759a428a2bfc</title>
<path fill="none" stroke="black" d="M108.57,-159.7C116.2,-151.22 125.52,-140.86 133.88,-131.58"/>
<polygon fill="black" stroke="black" points="136.52,-133.88 140.61,-124.1 131.31,-129.2 136.52,-133.88"/>
<g id="a_edge8&#45;headlabel"><a xlink:href="dir_000004_000005.html" target="_top" xlink:title="4">
<text text-anchor="middle" x="136.22" y="-135.95" font-family="Helvetica,sans-Serif" font-size="10.00">4</text>
</a>
</g>
</g>
<!-- dir_b7c6a6a0c4a8b329beeb4b467429a08c&#45;&gt;dir_e48d580525ce20fb628b28246bca6fb4 -->
<g id="edge9" class="edge">
<title>dir_b7c6a6a0c4a8b329beeb4b467429a08c&#45;&gt;dir_e48d580525ce20fb628b28246bca6fb4</title>
<path fill="none" stroke="black" d="M88.9,-159.87C83.08,-135.56 72.37,-90.82 65.47,-62.01"/>
<polygon fill="black" stroke="black" points="68.85,-61.1 63.12,-52.19 62.04,-62.73 68.85,-61.1"/>
<g id="a_edge9&#45;headlabel"><a xlink:href="dir_000004_000006.html" target="_top" xlink:title="1">
<text text-anchor="middle" x="72.45" y="-61.43" font-family="Helvetica,sans-Serif" font-size="10.00">1</text>
</a>
</g>
</g>
<!-- dir_b083e5c802875a066f56759a428a2bfc&#45;&gt;dir_647fdf71efa30ed59cefff82a1f3b59b -->
<g id="edge15" class="edge">
<title>dir_b083e5c802875a066f56759a428a2bfc&#45;&gt;dir_647fdf71efa30ed59cefff82a1f3b59b</title>
<path fill="none" stroke="black" d="M165.34,-124.02C175.15,-154.02 184.78,-217.9 168,-268 164.61,-278.11 158.46,-287.82 151.55,-296.12"/>
<polygon fill="black" stroke="black" points="148.89,-293.84 144.76,-303.6 154.07,-298.55 148.89,-293.84"/>
<g id="a_edge15&#45;headlabel"><a xlink:href="dir_000005_000003.html" target="_top" xlink:title="1">
<text text-anchor="middle" x="149.2" y="-286.77" font-family="Helvetica,sans-Serif" font-size="10.00">1</text>
</a>
</g>
</g>
<!-- dir_b083e5c802875a066f56759a428a2bfc&#45;&gt;dir_e48d580525ce20fb628b28246bca6fb4 -->
<g id="edge16" class="edge">
<title>dir_b083e5c802875a066f56759a428a2bfc&#45;&gt;dir_e48d580525ce20fb628b28246bca6fb4</title>
<path fill="none" stroke="black" d="M132.02,-87.7C119.69,-78.8 104.48,-67.82 91.15,-58.2"/>
<polygon fill="black" stroke="black" points="92.86,-55.12 82.7,-52.1 88.76,-60.79 92.86,-55.12"/>
<g id="a_edge16&#45;headlabel"><a xlink:href="dir_000005_000006.html" target="_top" xlink:title="2">
<text text-anchor="middle" x="97.44" y="-52.42" font-family="Helvetica,sans-Serif" font-size="10.00">2</text>
</a>
</g>
</g>
</g>
</svg>
