<?xml version="1.0" encoding="UTF-8" standalone="no"?>
<!DOCTYPE svg PUBLIC "-//W3C//DTD SVG 1.1//EN"
 "http://www.w3.org/Graphics/SVG/1.1/DTD/svg11.dtd">
<!-- Generated by graphviz version 2.43.0 (0)
 -->
<!-- Title: backend/greenhouse Pages: 1 -->
<svg width="154pt" height="383pt"
 viewBox="0.00 0.00 154.00 383.00" xmlns="http://www.w3.org/2000/svg" xmlns:xlink="http://www.w3.org/1999/xlink">
<g id="graph0" class="graph" transform="scale(1 1) rotate(0) translate(4 379)">
<title>backend/greenhouse</title>
<polygon fill="white" stroke="transparent" points="-4,4 -4,-379 150,-379 150,4 -4,4"/>
<g id="clust1" class="cluster">
<title>clusterdir_8c739bbef76d64b22d6b0911c526dd76</title>
<g id="a_clust1"><a xlink:href="dir_8c739bbef76d64b22d6b0911c526dd76.html" target="_top" xlink:title="backend">
<polygon fill="#ddddee" stroke="black" points="8,-8 8,-367 138,-367 138,-8 8,-8"/>
<text text-anchor="middle" x="73" y="-355" font-family="Helvetica,sans-Serif" font-size="10.00">backend</text>
</a>
</g>
</g>
<!-- dir_14cc84e954c974a37d2b5f3c3004d168 -->
<g id="node1" class="node">
<title>dir_14cc84e954c974a37d2b5f3c3004d168</title>
<g id="a_node1"><a xlink:href="dir_14cc84e954c974a37d2b5f3c3004d168.html" target="_top" xlink:title="customer">
<polygon fill="none" stroke="black" points="78,-340 16,-340 16,-304 78,-304 78,-340"/>
<text text-anchor="middle" x="47" y="-319.5" font-family="Helvetica,sans-Serif" font-size="10.00">customer</text>
</a>
</g>
</g>
<!-- dir_647fdf71efa30ed59cefff82a1f3b59b -->
<g id="node2" class="node">
<title>dir_647fdf71efa30ed59cefff82a1f3b59b</title>
<g id="a_node2"><a xlink:href="dir_647fdf71efa30ed59cefff82a1f3b59b.html" target="_top" xlink:title="game">
<polygon fill="none" stroke="black" points="70,-196 16,-196 16,-160 70,-160 70,-196"/>
<text text-anchor="middle" x="43" y="-175.5" font-family="Helvetica,sans-Serif" font-size="10.00">game</text>
</a>
</g>
</g>
<!-- dir_14cc84e954c974a37d2b5f3c3004d168&#45;&gt;dir_647fdf71efa30ed59cefff82a1f3b59b -->
<g id="edge1" class="edge">
<title>dir_14cc84e954c974a37d2b5f3c3004d168&#45;&gt;dir_647fdf71efa30ed59cefff82a1f3b59b</title>
<path fill="none" stroke="black" d="M32.89,-303.59C28.43,-293.37 24.68,-280.12 23,-268 20.1,-247.12 23.35,-223.42 28.38,-205.73"/>
<polygon fill="black" stroke="black" points="31.76,-206.67 31.52,-196.08 25.1,-204.51 31.76,-206.67"/>
<g id="a_edge1&#45;headlabel"><a xlink:href="dir_000002_000003.html" target="_top" xlink:title="1">
<text text-anchor="middle" x="33.35" y="-208.47" font-family="Helvetica,sans-Serif" font-size="10.00">1</text>
</a>
</g>
</g>
<!-- dir_b083e5c802875a066f56759a428a2bfc -->
<g id="node3" class="node">
<title>dir_b083e5c802875a066f56759a428a2bfc</title>
<g id="a_node3"><a xlink:href="dir_b083e5c802875a066f56759a428a2bfc.html" target="_top" xlink:title="plant">
<polygon fill="none" stroke="black" points="110,-124 56,-124 56,-88 110,-88 110,-124"/>
<text text-anchor="middle" x="83" y="-103.5" font-family="Helvetica,sans-Serif" font-size="10.00">plant</text>
</a>
</g>
</g>
<!-- dir_14cc84e954c974a37d2b5f3c3004d168&#45;&gt;dir_b083e5c802875a066f56759a428a2bfc -->
<g id="edge2" class="edge">
<title>dir_14cc84e954c974a37d2b5f3c3004d168&#45;&gt;dir_b083e5c802875a066f56759a428a2bfc</title>
<path fill="none" stroke="black" d="M43.51,-303.96C40.53,-285.55 37.99,-255.69 47,-232 54.61,-211.99 70.94,-215.83 79,-196 86.94,-176.45 87.55,-152.45 86.39,-134.31"/>
<polygon fill="black" stroke="black" points="89.86,-133.78 85.52,-124.12 82.89,-134.38 89.86,-133.78"/>
<g id="a_edge2&#45;headlabel"><a xlink:href="dir_000002_000005.html" target="_top" xlink:title="2">
<text text-anchor="middle" x="93" y="-134.62" font-family="Helvetica,sans-Serif" font-size="10.00">2</text>
</a>
</g>
</g>
<!-- dir_b7c6a6a0c4a8b329beeb4b467429a08c -->
<g id="node5" class="node">
<title>dir_b7c6a6a0c4a8b329beeb4b467429a08c</title>
<g id="a_node5"><a xlink:href="dir_b7c6a6a0c4a8b329beeb4b467429a08c.html" target="_top" xlink:title="greenhouse">
<polygon fill="#eeeeff" stroke="black" points="130,-268 56,-268 56,-232 130,-232 130,-268"/>
<text text-anchor="middle" x="93" y="-247.5" font-family="Helvetica,sans-Serif" font-size="10.00">greenhouse</text>
</a>
</g>
</g>
<!-- dir_14cc84e954c974a37d2b5f3c3004d168&#45;&gt;dir_b7c6a6a0c4a8b329beeb4b467429a08c -->
<g id="edge3" class="edge">
<title>dir_14cc84e954c974a37d2b5f3c3004d168&#45;&gt;dir_b7c6a6a0c4a8b329beeb4b467429a08c</title>
<path fill="none" stroke="black" d="M52.46,-303.7C57.01,-295.47 63.37,-285.48 69.77,-276.42"/>
<polygon fill="black" stroke="black" points="72.78,-278.24 75.86,-268.1 67.13,-274.1 72.78,-278.24"/>
<g id="a_edge3&#45;headlabel"><a xlink:href="dir_000002_000004.html" target="_top" xlink:title="1">
<text text-anchor="middle" x="72.95" y="-280.32" font-family="Helvetica,sans-Serif" font-size="10.00">1</text>
</a>
</g>
</g>
<!-- dir_647fdf71efa30ed59cefff82a1f3b59b&#45;&gt;dir_14cc84e954c974a37d2b5f3c3004d168 -->
<g id="edge8" class="edge">
<title>dir_647fdf71efa30ed59cefff82a1f3b59b&#45;&gt;dir_14cc84e954c974a37d2b5f3c3004d168</title>
<path fill="none" stroke="black" d="M44.96,-196.08C42.86,-214.01 37.53,-243.02 41,-268 42.18,-276.52 44.39,-285.61 46.36,-293.8"/>
<polygon fill="black" stroke="black" points="42.96,-294.65 48.64,-303.59 49.78,-293.06 42.96,-294.65"/>
<g id="a_edge8&#45;headlabel"><a xlink:href="dir_000003_000002.html" target="_top" xlink:title="8">
<text text-anchor="middle" x="39.38" y="-289.29" font-family="Helvetica,sans-Serif" font-size="10.00">8</text>
</a>
</g>
</g>
<!-- dir_647fdf71efa30ed59cefff82a1f3b59b&#45;&gt;dir_b083e5c802875a066f56759a428a2bfc -->
<g id="edge9" class="edge">
<title>dir_647fdf71efa30ed59cefff82a1f3b59b&#45;&gt;dir_b083e5c802875a066f56759a428a2bfc</title>
<path fill="none" stroke="black" d="M46.97,-159.7C50.78,-151.56 56.22,-141.69 61.78,-132.7"/>
<polygon fill="black" stroke="black" points="64.85,-134.4 67.33,-124.1 58.97,-130.61 64.85,-134.4"/>
<g id="a_edge9&#45;headlabel"><a xlink:href="dir_000003_000005.html" target="_top" xlink:title="4">
<text text-anchor="middle" x="65.28" y="-136.46" font-family="Helvetica,sans-Serif" font-size="10.00">4</text>
</a>
</g>
</g>
<!-- dir_e48d580525ce20fb628b28246bca6fb4 -->
<g id="node4" class="node">
<title>dir_e48d580525ce20fb628b28246bca6fb4</title>
<g id="a_node4"><a xlink:href="dir_e48d580525ce20fb628b28246bca6fb4.html" target="_top" xlink:title="WS">
<polygon fill="none" stroke="black" points="110,-52 56,-52 56,-16 110,-16 110,-52"/>
<text text-anchor="middle" x="83" y="-31.5" font-family="Helvetica,sans-Serif" font-size="10.00">WS</text>
</a>
</g>
</g>
<!-- dir_647fdf71efa30ed59cefff82a1f3b59b&#45;&gt;dir_e48d580525ce20fb628b28246bca6fb4 -->
<g id="edge10" class="edge">
<title>dir_647fdf71efa30ed59cefff82a1f3b59b&#45;&gt;dir_e48d580525ce20fb628b28246bca6fb4</title>
<path fill="none" stroke="black" d="M41.05,-159.77C39.6,-141.46 39.05,-111.93 47,-88 50.23,-78.29 55.79,-68.71 61.59,-60.42"/>
<polygon fill="black" stroke="black" points="64.46,-62.41 67.63,-52.3 58.85,-58.24 64.46,-62.41"/>
<g id="a_edge10&#45;headlabel"><a xlink:href="dir_000003_000006.html" target="_top" xlink:title="1">
<text text-anchor="middle" x="64.6" y="-64.49" font-family="Helvetica,sans-Serif" font-size="10.00">1</text>
</a>
</g>
</g>
<!-- dir_b083e5c802875a066f56759a428a2bfc&#45;&gt;dir_647fdf71efa30ed59cefff82a1f3b59b -->
<g id="edge11" class="edge">
<title>dir_b083e5c802875a066f56759a428a2bfc&#45;&gt;dir_647fdf71efa30ed59cefff82a1f3b59b</title>
<path fill="none" stroke="black" d="M79.12,-124.1C75.34,-132.21 69.92,-142.08 64.36,-151.08"/>
<polygon fill="black" stroke="black" points="61.28,-149.39 58.8,-159.7 67.16,-153.19 61.28,-149.39"/>
<g id="a_edge11&#45;headlabel"><a xlink:href="dir_000005_000003.html" target="_top" xlink:title="1">
<text text-anchor="middle" x="60.84" y="-142.34" font-family="Helvetica,sans-Serif" font-size="10.00">1</text>
</a>
</g>
</g>
<!-- dir_b083e5c802875a066f56759a428a2bfc&#45;&gt;dir_e48d580525ce20fb628b28246bca6fb4 -->
<g id="edge12" class="edge">
<title>dir_b083e5c802875a066f56759a428a2bfc&#45;&gt;dir_e48d580525ce20fb628b28246bca6fb4</title>
<path fill="none" stroke="black" d="M83,-87.7C83,-79.98 83,-70.71 83,-62.11"/>
<polygon fill="black" stroke="black" points="86.5,-62.1 83,-52.1 79.5,-62.1 86.5,-62.1"/>
<g id="a_edge12&#45;headlabel"><a xlink:href="dir_000005_000006.html" target="_top" xlink:title="2">
<text text-anchor="middle" x="89.34" y="-63.2" font-family="Helvetica,sans-Serif" font-size="10.00">2</text>
</a>
</g>
</g>
<!-- dir_b7c6a6a0c4a8b329beeb4b467429a08c&#45;&gt;dir_14cc84e954c974a37d2b5f3c3004d168 -->
<g id="edge4" class="edge">
<title>dir_b7c6a6a0c4a8b329beeb4b467429a08c&#45;&gt;dir_14cc84e954c974a37d2b5f3c3004d168</title>
<path fill="none" stroke="black" d="M87.66,-268.1C83.13,-276.3 76.78,-286.28 70.38,-295.36"/>
<polygon fill="black" stroke="black" points="67.36,-293.56 64.29,-303.7 73.01,-297.69 67.36,-293.56"/>
<g id="a_edge4&#45;headlabel"><a xlink:href="dir_000004_000002.html" target="_top" xlink:title="6">
<text text-anchor="middle" x="67.19" y="-286.48" font-family="Helvetica,sans-Serif" font-size="10.00">6</text>
</a>
</g>
</g>
<!-- dir_b7c6a6a0c4a8b329beeb4b467429a08c&#45;&gt;dir_647fdf71efa30ed59cefff82a1f3b59b -->
<g id="edge5" class="edge">
<title>dir_b7c6a6a0c4a8b329beeb4b467429a08c&#45;&gt;dir_647fdf71efa30ed59cefff82a1f3b59b</title>
<path fill="none" stroke="black" d="M80.64,-231.7C74.77,-223.47 67.63,-213.48 61.16,-204.42"/>
<polygon fill="black" stroke="black" points="63.88,-202.21 55.22,-196.1 58.18,-206.28 63.88,-202.21"/>
<g id="a_edge5&#45;headlabel"><a xlink:href="dir_000004_000003.html" target="_top" xlink:title="8">
<text text-anchor="middle" x="68.28" y="-200.98" font-family="Helvetica,sans-Serif" font-size="10.00">8</text>
</a>
</g>
</g>
<!-- dir_b7c6a6a0c4a8b329beeb4b467429a08c&#45;&gt;dir_b083e5c802875a066f56759a428a2bfc -->
<g id="edge6" class="edge">
<title>dir_b7c6a6a0c4a8b329beeb4b467429a08c&#45;&gt;dir_b083e5c802875a066f56759a428a2bfc</title>
<path fill="none" stroke="black" d="M94.34,-231.89C95.48,-213.93 96.56,-184.9 94,-160 93.12,-151.46 91.47,-142.26 89.71,-133.96"/>
<polygon fill="black" stroke="black" points="93.08,-133.03 87.46,-124.05 86.26,-134.57 93.08,-133.03"/>
<g id="a_edge6&#45;headlabel"><a xlink:href="dir_000004_000005.html" target="_top" xlink:title="4">
<text text-anchor="middle" x="96.65" y="-133.41" font-family="Helvetica,sans-Serif" font-size="10.00">4</text>
</a>
</g>
</g>
<!-- dir_b7c6a6a0c4a8b329beeb4b467429a08c&#45;&gt;dir_e48d580525ce20fb628b28246bca6fb4 -->
<g id="edge7" class="edge">
<title>dir_b7c6a6a0c4a8b329beeb4b467429a08c&#45;&gt;dir_e48d580525ce20fb628b28246bca6fb4</title>
<path fill="none" stroke="black" d="M100.84,-231.73C113.29,-201.86 134.65,-138.88 119,-88 115.99,-78.22 110.49,-68.62 104.68,-60.33"/>
<polygon fill="black" stroke="black" points="107.41,-58.13 98.61,-52.23 101.81,-62.33 107.41,-58.13"/>
<g id="a_edge7&#45;headlabel"><a xlink:href="dir_000004_000006.html" target="_top" xlink:title="1">
<text text-anchor="middle" x="111.83" y="-56.8" font-family="Helvetica,sans-Serif" font-size="10.00">1</text>
</a>
</g>
</g>
</g>
</svg>
