<?xml version="1.0" encoding="UTF-8" standalone="no"?>
<!DOCTYPE svg PUBLIC "-//W3C//DTD SVG 1.1//EN"
 "http://www.w3.org/Graphics/SVG/1.1/DTD/svg11.dtd">
<!-- Generated by graphviz version 2.43.0 (0)
 -->
<!-- Title: backend/customer/Director.h Pages: 1 -->
<!--zoomable 543 -->
<svg id="main" version="1.1" xmlns="http://www.w3.org/2000/svg" xmlns:xlink="http://www.w3.org/1999/xlink" xml:space="preserve" onload="init(evt)">
<style type="text/css"><![CDATA[
.edge:hover path { stroke: red; }
.edge:hover polygon { stroke: red; fill: red; }
]]></style>
<script type="text/javascript"><![CDATA[
var edges = document.getElementsByTagName('g');
if (edges && edges.length) {
  for (var i=0;i<edges.length;i++) {
    if (edges[i].id.substr(0,4)=='edge') {
      edges[i].setAttribute('class','edge');
    }
  }
}
]]></script>
        <defs>
                <circle id="rim" cx="0" cy="0" r="7"/>
                <circle id="rim2" cx="0" cy="0" r="3.5"/>
                <g id="zoomPlus">
                        <use xlink:href="#rim" fill="#404040">
                                <set attributeName="fill" to="#808080" begin="zoomplus.mouseover" end="zoomplus.mouseout"/>
                        </use>
                        <path d="M-4,0h8M0,-4v8" fill="none" stroke="white" stroke-width="1.5" pointer-events="none"/>
                </g>
                <g id="zoomMin">
                        <use xlink:href="#rim" fill="#404040">
                                <set attributeName="fill" to="#808080" begin="zoomminus.mouseover" end="zoomminus.mouseout"/>
                        </use>
                        <path d="M-4,0h8" fill="none" stroke="white" stroke-width="1.5" pointer-events="none"/>
                </g>
                <g id="dirArrow">
                        <path fill="none" stroke="white" stroke-width="1.5" d="M0,-3.0v7 M-2.5,-0.5L0,-3.0L2.5,-0.5"/>
                </g>
               <g id="resetDef">
                       <use xlink:href="#rim2" fill="#404040">
                               <set attributeName="fill" to="#808080" begin="reset.mouseover" end="reset.mouseout"/>
                       </use>
               </g>
        </defs>

<script type="text/javascript">
var viewWidth = 1897;
var viewHeight = 543;
var sectionId = 'dynsection-0';
</script>
<script xlink:href="svgpan.js"/>
<svg id="graph" class="graph">
<g id="viewport">
<title>backend/customer/Director.h</title>
<polygon fill="white" stroke="transparent" points="-4,4 -4,-539 1893,-539 1893,4 -4,4"/>
<!-- Node1 -->
<g id="node1" class="node">
<title>Node1</title>
<g id="a_node1"><a xlink:title="Director class for coordinating customer construction using builders and visitors.">
<polygon fill="#bfbfbf" stroke="black" points="245,-515.5 245,-534.5 401,-534.5 401,-515.5 245,-515.5"/>
<text text-anchor="middle" x="323" y="-522.5" font-family="Helvetica,sans-Serif" font-size="10.00">backend/customer/Director.h</text>
</a>
</g>
</g>
<!-- Node2 -->
<g id="node2" class="node">
<title>Node2</title>
<g id="a_node2"><a xlink:href="CustomerBuilder_8h.html" target="_top" xlink:title="Abstract builder interface for creating Customer objects.">
<polygon fill="white" stroke="black" points="630.5,-459.5 630.5,-478.5 737.5,-478.5 737.5,-459.5 630.5,-459.5"/>
<text text-anchor="middle" x="684" y="-466.5" font-family="Helvetica,sans-Serif" font-size="10.00">CustomerBuilder.h</text>
</a>
</g>
</g>
<!-- Node1&#45;&gt;Node2 -->
<g id="edge1" class="edge">
<title>Node1&#45;&gt;Node2</title>
<path fill="none" stroke="midnightblue" d="M380.2,-515.44C445.54,-505.67 552.16,-489.72 620.15,-479.55"/>
<polygon fill="midnightblue" stroke="midnightblue" points="620.93,-482.97 630.31,-478.03 619.9,-476.05 620.93,-482.97"/>
</g>
<!-- Node8 -->
<g id="node8" class="node">
<title>Node8</title>
<g id="a_node8"><a xlink:href="CustomerVisitor_8h.html" target="_top" xlink:title="Abstract visitor class for plant recommendation strategies for different customer types.">
<polygon fill="white" stroke="black" points="523,-347.5 523,-366.5 627,-366.5 627,-347.5 523,-347.5"/>
<text text-anchor="middle" x="575" y="-354.5" font-family="Helvetica,sans-Serif" font-size="10.00">CustomerVisitor.h</text>
</a>
</g>
</g>
<!-- Node1&#45;&gt;Node8 -->
<g id="edge69" class="edge">
<title>Node1&#45;&gt;Node8</title>
<path fill="none" stroke="midnightblue" d="M336.19,-515.31C377.19,-488.3 502.64,-405.67 553.37,-372.25"/>
<polygon fill="midnightblue" stroke="midnightblue" points="555.51,-375.03 561.94,-366.61 551.66,-369.18 555.51,-375.03"/>
</g>
<!-- Node3 -->
<g id="node3" class="node">
<title>Node3</title>
<g id="a_node3"><a xlink:href="Customer_8h.html" target="_top" xlink:title="Abstract base class for all customer types in the plant shop game.">
<polygon fill="white" stroke="black" points="802,-403.5 802,-422.5 874,-422.5 874,-403.5 802,-403.5"/>
<text text-anchor="middle" x="838" y="-410.5" font-family="Helvetica,sans-Serif" font-size="10.00">Customer.h</text>
</a>
</g>
</g>
<!-- Node2&#45;&gt;Node3 -->
<g id="edge2" class="edge">
<title>Node2&#45;&gt;Node3</title>
<path fill="none" stroke="midnightblue" d="M708.4,-459.44C734.2,-450.4 775.08,-436.06 804.02,-425.92"/>
<polygon fill="midnightblue" stroke="midnightblue" points="805.43,-429.13 813.71,-422.52 803.12,-422.52 805.43,-429.13"/>
</g>
<!-- Node2&#45;&gt;Node8 -->
<g id="edge58" class="edge">
<title>Node2&#45;&gt;Node8</title>
<path fill="none" stroke="midnightblue" d="M675.45,-459.37C657.14,-440.89 613.94,-397.29 590.6,-373.74"/>
<polygon fill="midnightblue" stroke="midnightblue" points="593.04,-371.23 583.51,-366.59 588.07,-376.16 593.04,-371.23"/>
</g>
<!-- Node32 -->
<g id="node32" class="node">
<title>Node32</title>
<g id="a_node32"><a xlink:title=" ">
<polygon fill="white" stroke="#bfbfbf" points="682,-235.5 682,-254.5 736,-254.5 736,-235.5 682,-235.5"/>
<text text-anchor="middle" x="709" y="-242.5" font-family="Helvetica,sans-Serif" font-size="10.00">random</text>
</a>
</g>
</g>
<!-- Node2&#45;&gt;Node32 -->
<g id="edge67" class="edge">
<title>Node2&#45;&gt;Node32</title>
<path fill="none" stroke="midnightblue" d="M684.98,-459.3C688.66,-426.63 701.7,-310.87 706.87,-264.96"/>
<polygon fill="midnightblue" stroke="midnightblue" points="710.36,-265.21 708,-254.88 703.4,-264.43 710.36,-265.21"/>
</g>
<!-- Node33 -->
<g id="node33" class="node">
<title>Node33</title>
<g id="a_node33"><a xlink:href="JSONGameConfiguration_8h.html" target="_top" xlink:title="JSON&#45;based game configuration implementation.">
<polygon fill="white" stroke="black" points="246,-179.5 246,-198.5 390,-198.5 390,-179.5 246,-179.5"/>
<text text-anchor="middle" x="318" y="-186.5" font-family="Helvetica,sans-Serif" font-size="10.00">JSONGameConfiguration.h</text>
</a>
</g>
</g>
<!-- Node2&#45;&gt;Node33 -->
<g id="edge59" class="edge">
<title>Node2&#45;&gt;Node33</title>
<path fill="none" stroke="midnightblue" d="M630.06,-468.16C494.81,-467.12 152,-454.91 152,-358 152,-358 152,-358 152,-300 152,-244.37 217.59,-215.21 266.31,-201.23"/>
<polygon fill="midnightblue" stroke="midnightblue" points="267.39,-204.56 276.11,-198.55 265.54,-197.81 267.39,-204.56"/>
</g>
<!-- Node36 -->
<g id="node36" class="node">
<title>Node36</title>
<g id="a_node36"><a xlink:title=" ">
<polygon fill="white" stroke="#bfbfbf" points="734,-403.5 734,-422.5 784,-422.5 784,-403.5 734,-403.5"/>
<text text-anchor="middle" x="759" y="-410.5" font-family="Helvetica,sans-Serif" font-size="10.00">chrono</text>
</a>
</g>
</g>
<!-- Node2&#45;&gt;Node36 -->
<g id="edge68" class="edge">
<title>Node2&#45;&gt;Node36</title>
<path fill="none" stroke="midnightblue" d="M696.05,-459.32C707.46,-451.11 724.83,-438.6 738.43,-428.81"/>
<polygon fill="midnightblue" stroke="midnightblue" points="740.66,-431.52 746.73,-422.83 736.57,-425.84 740.66,-431.52"/>
</g>
<!-- Node4 -->
<g id="node4" class="node">
<title>Node4</title>
<g id="a_node4"><a xlink:title=" ">
<polygon fill="white" stroke="#bfbfbf" points="180.5,-67.5 180.5,-86.5 227.5,-86.5 227.5,-67.5 180.5,-67.5"/>
<text text-anchor="middle" x="204" y="-74.5" font-family="Helvetica,sans-Serif" font-size="10.00">vector</text>
</a>
</g>
</g>
<!-- Node3&#45;&gt;Node4 -->
<g id="edge3" class="edge">
<title>Node3&#45;&gt;Node4</title>
<path fill="none" stroke="midnightblue" d="M801.69,-404.51C798.75,-403.98 795.83,-403.47 793,-403 577.37,-367.57 508.05,-403.37 310,-311 243,-279.75 212.25,-268.49 187,-199 175.46,-167.23 176.98,-156.07 184,-123 186,-113.59 190.1,-103.76 194.07,-95.7"/>
<polygon fill="midnightblue" stroke="midnightblue" points="197.31,-97.07 198.87,-86.59 191.11,-93.81 197.31,-97.07"/>
</g>
<!-- Node5 -->
<g id="node5" class="node">
<title>Node5</title>
<g id="a_node5"><a xlink:title=" ">
<polygon fill="white" stroke="#bfbfbf" points="615,-6 615,-25 659,-25 659,-6 615,-6"/>
<text text-anchor="middle" x="637" y="-13" font-family="Helvetica,sans-Serif" font-size="10.00">string</text>
</a>
</g>
</g>
<!-- Node3&#45;&gt;Node5 -->
<g id="edge4" class="edge">
<title>Node3&#45;&gt;Node5</title>
<path fill="none" stroke="midnightblue" d="M874.25,-410.97C1032.02,-406.02 1651,-381.54 1651,-302 1651,-302 1651,-302 1651,-132 1651,-101.9 1655.62,-85.66 1632,-67 1593.36,-36.48 835.96,-20.29 669.27,-17.09"/>
<polygon fill="midnightblue" stroke="midnightblue" points="669.22,-13.59 659.15,-16.9 669.09,-20.59 669.22,-13.59"/>
</g>
<!-- Node6 -->
<g id="node6" class="node">
<title>Node6</title>
<g id="a_node6"><a xlink:title=" ">
<polygon fill="white" stroke="#bfbfbf" points="1479,-6 1479,-25 1539,-25 1539,-6 1479,-6"/>
<text text-anchor="middle" x="1509" y="-13" font-family="Helvetica,sans-Serif" font-size="10.00">iostream</text>
</a>
</g>
</g>
<!-- Node3&#45;&gt;Node6 -->
<g id="edge5" class="edge">
<title>Node3&#45;&gt;Node6</title>
<path fill="none" stroke="midnightblue" d="M874.34,-411.24C998.73,-408.39 1406.7,-396.92 1534,-367 1606.72,-349.91 1689,-376.7 1689,-302 1689,-302 1689,-302 1689,-132 1689,-99.19 1679.02,-88.23 1654,-67 1616.38,-35.08 1595.53,-47.41 1549,-31 1546.62,-30.16 1544.17,-29.29 1541.7,-28.41"/>
<polygon fill="midnightblue" stroke="midnightblue" points="1542.84,-25.1 1532.24,-25 1540.47,-31.68 1542.84,-25.1"/>
</g>
<!-- Node7 -->
<g id="node7" class="node">
<title>Node7</title>
<g id="a_node7"><a xlink:title=" ">
<polygon fill="white" stroke="#bfbfbf" points="802,-347.5 802,-366.5 858,-366.5 858,-347.5 802,-347.5"/>
<text text-anchor="middle" x="830" y="-354.5" font-family="Helvetica,sans-Serif" font-size="10.00">sstream</text>
</a>
</g>
</g>
<!-- Node3&#45;&gt;Node7 -->
<g id="edge6" class="edge">
<title>Node3&#45;&gt;Node7</title>
<path fill="none" stroke="midnightblue" d="M836.68,-403.08C835.62,-395.93 834.09,-385.64 832.77,-376.69"/>
<polygon fill="midnightblue" stroke="midnightblue" points="836.22,-376.13 831.3,-366.75 829.3,-377.16 836.22,-376.13"/>
</g>
<!-- Node3&#45;&gt;Node8 -->
<g id="edge7" class="edge">
<title>Node3&#45;&gt;Node8</title>
<path fill="none" stroke="midnightblue" d="M801.98,-404.6C756.61,-395.29 678.34,-379.22 626.62,-368.6"/>
<polygon fill="midnightblue" stroke="midnightblue" points="627.15,-365.13 616.65,-366.55 625.74,-371.99 627.15,-365.13"/>
</g>
<!-- Node13 -->
<g id="node13" class="node">
<title>Node13</title>
<g id="a_node13"><a xlink:href="Plant_8h.html" target="_top" xlink:title="Defines the abstract base class for all Plant objects used in the system.">
<polygon fill="white" stroke="black" points="807,-123.5 807,-142.5 857,-142.5 857,-123.5 807,-123.5"/>
<text text-anchor="middle" x="832" y="-130.5" font-family="Helvetica,sans-Serif" font-size="10.00">Plant.h</text>
</a>
</g>
</g>
<!-- Node3&#45;&gt;Node13 -->
<g id="edge56" class="edge">
<title>Node3&#45;&gt;Node13</title>
<path fill="none" stroke="midnightblue" d="M844.67,-403.44C857.86,-385.62 886,-342.84 886,-302 886,-302 886,-302 886,-244 886,-207.86 862.23,-171.25 846.23,-150.71"/>
<polygon fill="midnightblue" stroke="midnightblue" points="848.75,-148.26 839.74,-142.69 843.31,-152.67 848.75,-148.26"/>
</g>
<!-- Node18 -->
<g id="node18" class="node">
<title>Node18</title>
<g id="a_node18"><a xlink:title=" ">
<polygon fill="white" stroke="#bfbfbf" points="461,-67.5 461,-86.5 571,-86.5 571,-67.5 461,-67.5"/>
<text text-anchor="middle" x="516" y="-74.5" font-family="Helvetica,sans-Serif" font-size="10.00">nlohmann/json.hpp</text>
</a>
</g>
</g>
<!-- Node3&#45;&gt;Node18 -->
<g id="edge57" class="edge">
<title>Node3&#45;&gt;Node18</title>
<path fill="none" stroke="midnightblue" d="M827,-403.42C816.94,-395.07 802.26,-381.54 793,-367 759.47,-314.35 787.26,-280.95 745,-235 719.15,-206.9 698.6,-220.44 667,-199 626.42,-171.47 625.67,-153.16 587,-123 572.08,-111.37 554.07,-99.98 539.92,-91.57"/>
<polygon fill="midnightblue" stroke="midnightblue" points="541.65,-88.53 531.25,-86.5 538.12,-94.57 541.65,-88.53"/>
</g>
<!-- Node8&#45;&gt;Node4 -->
<g id="edge8" class="edge">
<title>Node8&#45;&gt;Node4</title>
<path fill="none" stroke="midnightblue" d="M522.92,-351.17C439.07,-340.34 275.87,-305.92 200,-199 178.29,-168.4 188.8,-121.65 197.15,-96.14"/>
<polygon fill="midnightblue" stroke="midnightblue" points="200.48,-97.22 200.5,-86.62 193.88,-94.89 200.48,-97.22"/>
</g>
<!-- Node9 -->
<g id="node9" class="node">
<title>Node9</title>
<g id="a_node9"><a xlink:title=" ">
<polygon fill="white" stroke="#bfbfbf" points="1559,-67.5 1559,-86.5 1623,-86.5 1623,-67.5 1559,-67.5"/>
<text text-anchor="middle" x="1591" y="-74.5" font-family="Helvetica,sans-Serif" font-size="10.00">algorithm</text>
</a>
</g>
</g>
<!-- Node8&#45;&gt;Node9 -->
<g id="edge9" class="edge">
<title>Node8&#45;&gt;Node9</title>
<path fill="none" stroke="midnightblue" d="M606.24,-347.45C754.08,-307 1383.17,-134.87 1550.17,-89.17"/>
<polygon fill="midnightblue" stroke="midnightblue" points="1551.09,-92.55 1559.81,-86.53 1549.24,-85.8 1551.09,-92.55"/>
</g>
<!-- Node10 -->
<g id="node10" class="node">
<title>Node10</title>
<g id="a_node10"><a xlink:title=" ">
<polygon fill="white" stroke="#bfbfbf" points="447.5,-291.5 447.5,-310.5 500.5,-310.5 500.5,-291.5 447.5,-291.5"/>
<text text-anchor="middle" x="474" y="-298.5" font-family="Helvetica,sans-Serif" font-size="10.00">cstddef</text>
</a>
</g>
</g>
<!-- Node8&#45;&gt;Node10 -->
<g id="edge10" class="edge">
<title>Node8&#45;&gt;Node10</title>
<path fill="none" stroke="midnightblue" d="M558.77,-347.32C542.65,-338.7 517.7,-325.36 499.04,-315.39"/>
<polygon fill="midnightblue" stroke="midnightblue" points="500.66,-312.28 490.19,-310.65 497.36,-318.46 500.66,-312.28"/>
</g>
<!-- Node11 -->
<g id="node11" class="node">
<title>Node11</title>
<g id="a_node11"><a xlink:href="SalesFloor_8h.html" target="_top" xlink:title="Sales floor management for customer interactions and plant sales.">
<polygon fill="white" stroke="black" points="519,-291.5 519,-310.5 595,-310.5 595,-291.5 519,-291.5"/>
<text text-anchor="middle" x="557" y="-298.5" font-family="Helvetica,sans-Serif" font-size="10.00">SalesFloor.h</text>
</a>
</g>
</g>
<!-- Node8&#45;&gt;Node11 -->
<g id="edge11" class="edge">
<title>Node8&#45;&gt;Node11</title>
<path fill="none" stroke="midnightblue" d="M572.03,-347.08C569.62,-339.85 566.14,-329.41 563.13,-320.4"/>
<polygon fill="midnightblue" stroke="midnightblue" points="566.4,-319.13 559.92,-310.75 559.76,-321.34 566.4,-319.13"/>
</g>
<!-- Node8&#45;&gt;Node13 -->
<g id="edge55" class="edge">
<title>Node8&#45;&gt;Node13</title>
<path fill="none" stroke="midnightblue" d="M581.08,-347.22C598.6,-322.12 649.46,-250.86 673,-235 718.47,-204.35 747.42,-232.27 791,-199 806.87,-186.88 818.2,-166.71 824.87,-152.05"/>
<polygon fill="midnightblue" stroke="midnightblue" points="828.22,-153.12 828.9,-142.54 821.78,-150.38 828.22,-153.12"/>
</g>
<!-- Node11&#45;&gt;Node4 -->
<g id="edge52" class="edge">
<title>Node11&#45;&gt;Node4</title>
<path fill="none" stroke="midnightblue" d="M521.12,-291.45C438.06,-271.35 237.97,-221.18 216,-199 189.22,-171.96 194.21,-123.01 199.5,-96.41"/>
<polygon fill="midnightblue" stroke="midnightblue" points="202.95,-97.03 201.69,-86.51 196.11,-95.51 202.95,-97.03"/>
</g>
<!-- Node12 -->
<g id="node12" class="node">
<title>Node12</title>
<g id="a_node12"><a xlink:href="Inventory_8h.html" target="_top" xlink:title="Inventory management for plants in greenhouse and sales floor.">
<polygon fill="white" stroke="black" points="434.5,-179.5 434.5,-198.5 505.5,-198.5 505.5,-179.5 434.5,-179.5"/>
<text text-anchor="middle" x="470" y="-186.5" font-family="Helvetica,sans-Serif" font-size="10.00">Inventory.h</text>
</a>
</g>
</g>
<!-- Node11&#45;&gt;Node12 -->
<g id="edge12" class="edge">
<title>Node11&#45;&gt;Node12</title>
<path fill="none" stroke="midnightblue" d="M518.7,-291.79C498.72,-285.35 476.01,-274.15 464,-255 455.27,-241.08 458.36,-222.07 462.67,-208.2"/>
<polygon fill="midnightblue" stroke="midnightblue" points="465.97,-209.37 466.04,-198.77 459.38,-207.01 465.97,-209.37"/>
</g>
<!-- Node26 -->
<g id="node26" class="node">
<title>Node26</title>
<g id="a_node26"><a xlink:title=" ">
<polygon fill="white" stroke="#bfbfbf" points="183.5,-6 183.5,-25 248.5,-25 248.5,-6 183.5,-6"/>
<text text-anchor="middle" x="216" y="-13" font-family="Helvetica,sans-Serif" font-size="10.00">stdexcept</text>
</a>
</g>
</g>
<!-- Node11&#45;&gt;Node26 -->
<g id="edge54" class="edge">
<title>Node11&#45;&gt;Node26</title>
<path fill="none" stroke="midnightblue" d="M518.75,-292.8C515.45,-292.19 512.17,-291.58 509,-291 395.57,-270.21 0,-305.32 0,-190 0,-190 0,-190 0,-132 0,-54.26 110.16,-28.65 173.14,-20.36"/>
<polygon fill="midnightblue" stroke="midnightblue" points="173.69,-23.82 183.19,-19.13 172.84,-16.87 173.69,-23.82"/>
</g>
<!-- Node29 -->
<g id="node29" class="node">
<title>Node29</title>
<g id="a_node29"><a xlink:href="TransactionHistory_8h.html" target="_top" xlink:title="Maintains history of financial transactions.">
<polygon fill="white" stroke="black" points="472.5,-235.5 472.5,-254.5 587.5,-254.5 587.5,-235.5 472.5,-235.5"/>
<text text-anchor="middle" x="530" y="-242.5" font-family="Helvetica,sans-Serif" font-size="10.00">TransactionHistory.h</text>
</a>
</g>
</g>
<!-- Node11&#45;&gt;Node29 -->
<g id="edge40" class="edge">
<title>Node11&#45;&gt;Node29</title>
<path fill="none" stroke="midnightblue" d="M552.54,-291.08C548.85,-283.69 543.48,-272.95 538.91,-263.81"/>
<polygon fill="midnightblue" stroke="midnightblue" points="541.98,-262.13 534.38,-254.75 535.72,-265.26 541.98,-262.13"/>
</g>
<!-- Node31 -->
<g id="node31" class="node">
<title>Node31</title>
<g id="a_node31"><a xlink:href="Ledger_8h.html" target="_top" xlink:title="Financial ledger for tracking game balance.">
<polygon fill="white" stroke="black" points="562,-179.5 562,-198.5 620,-198.5 620,-179.5 562,-179.5"/>
<text text-anchor="middle" x="591" y="-186.5" font-family="Helvetica,sans-Serif" font-size="10.00">Ledger.h</text>
</a>
</g>
</g>
<!-- Node11&#45;&gt;Node31 -->
<g id="edge51" class="edge">
<title>Node11&#45;&gt;Node31</title>
<path fill="none" stroke="midnightblue" d="M568.27,-291.43C577.97,-283.27 591.28,-270.05 597,-255 602.66,-240.1 600.29,-221.96 597.01,-208.63"/>
<polygon fill="midnightblue" stroke="midnightblue" points="600.3,-207.4 594.19,-198.74 593.57,-209.32 600.3,-207.4"/>
</g>
<!-- Node11&#45;&gt;Node32 -->
<g id="edge53" class="edge">
<title>Node11&#45;&gt;Node32</title>
<path fill="none" stroke="midnightblue" d="M581.08,-291.44C606.54,-282.4 646.89,-268.06 675.46,-257.92"/>
<polygon fill="midnightblue" stroke="midnightblue" points="676.78,-261.16 685.03,-254.52 674.43,-254.57 676.78,-261.16"/>
</g>
<!-- Node12&#45;&gt;Node4 -->
<g id="edge38" class="edge">
<title>Node12&#45;&gt;Node4</title>
<path fill="none" stroke="midnightblue" d="M434.33,-179.52C403.67,-171.7 358.58,-158.9 321,-143 302.54,-135.19 255.84,-108.39 227.33,-91.74"/>
<polygon fill="midnightblue" stroke="midnightblue" points="228.83,-88.56 218.43,-86.53 225.29,-94.6 228.83,-88.56"/>
</g>
<!-- Node12&#45;&gt;Node5 -->
<g id="edge39" class="edge">
<title>Node12&#45;&gt;Node5</title>
<path fill="none" stroke="midnightblue" d="M470.76,-179.13C471.46,-165.73 470.93,-140.08 459,-123 440.53,-96.56 412.19,-114.89 396,-87 391.54,-79.31 390.4,-73.9 396,-67 421.93,-35.07 545.07,-22.61 604.61,-18.39"/>
<polygon fill="midnightblue" stroke="midnightblue" points="604.87,-21.88 614.61,-17.71 604.4,-14.89 604.87,-21.88"/>
</g>
<!-- Node12&#45;&gt;Node13 -->
<g id="edge13" class="edge">
<title>Node12&#45;&gt;Node13</title>
<path fill="none" stroke="midnightblue" d="M505.7,-182.67C575.09,-172.32 727.42,-149.6 796.58,-139.28"/>
<polygon fill="midnightblue" stroke="midnightblue" points="797.18,-142.73 806.55,-137.8 796.15,-135.81 797.18,-142.73"/>
</g>
<!-- Node13&#45;&gt;Node4 -->
<g id="edge16" class="edge">
<title>Node13&#45;&gt;Node4</title>
<path fill="none" stroke="midnightblue" d="M806.99,-129.85C708.87,-121.41 350.05,-90.56 237.8,-80.91"/>
<polygon fill="midnightblue" stroke="midnightblue" points="237.99,-77.41 227.72,-80.04 237.39,-84.38 237.99,-77.41"/>
</g>
<!-- Node13&#45;&gt;Node5 -->
<g id="edge14" class="edge">
<title>Node13&#45;&gt;Node5</title>
<path fill="none" stroke="midnightblue" d="M806.85,-128.72C763.49,-122.56 677.27,-107.99 656,-87 642.35,-73.53 638.2,-51.36 637.09,-35.48"/>
<polygon fill="midnightblue" stroke="midnightblue" points="640.57,-35.1 636.72,-25.24 633.58,-35.36 640.57,-35.1"/>
</g>
<!-- Node13&#45;&gt;Node6 -->
<g id="edge18" class="edge">
<title>Node13&#45;&gt;Node6</title>
<path fill="none" stroke="midnightblue" d="M857.06,-125.57C861.67,-124.57 866.46,-123.65 871,-123 937.43,-113.42 1418.03,-124.05 1474,-87 1491.76,-75.24 1500.87,-51.67 1505.28,-35.03"/>
<polygon fill="midnightblue" stroke="midnightblue" points="1508.68,-35.82 1507.54,-25.28 1501.87,-34.23 1508.68,-35.82"/>
</g>
<!-- Node13&#45;&gt;Node9 -->
<g id="edge17" class="edge">
<title>Node13&#45;&gt;Node9</title>
<path fill="none" stroke="midnightblue" d="M857.26,-128.73C872.51,-126.85 892.35,-124.55 910,-123 1174.8,-99.76 1242.11,-109.17 1507,-87 1520.49,-85.87 1535.18,-84.39 1548.44,-82.95"/>
<polygon fill="midnightblue" stroke="midnightblue" points="1549.17,-86.39 1558.72,-81.81 1548.4,-79.43 1549.17,-86.39"/>
</g>
<!-- Node14 -->
<g id="node14" class="node">
<title>Node14</title>
<g id="a_node14"><a xlink:title=" ">
<polygon fill="white" stroke="#bfbfbf" points="405,-67.5 405,-86.5 443,-86.5 443,-67.5 405,-67.5"/>
<text text-anchor="middle" x="424" y="-74.5" font-family="Helvetica,sans-Serif" font-size="10.00">map</text>
</a>
</g>
</g>
<!-- Node13&#45;&gt;Node14 -->
<g id="edge15" class="edge">
<title>Node13&#45;&gt;Node14</title>
<path fill="none" stroke="midnightblue" d="M806.83,-130.7C746.94,-127.26 591.3,-116.23 453.07,-86.84"/>
<polygon fill="midnightblue" stroke="midnightblue" points="453.66,-83.39 443.15,-84.69 452.18,-90.23 453.66,-83.39"/>
</g>
<!-- Node15 -->
<g id="node15" class="node">
<title>Node15</title>
<g id="a_node15"><a xlink:title=" ">
<polygon fill="white" stroke="#bfbfbf" points="1017.5,-67.5 1017.5,-86.5 1130.5,-86.5 1130.5,-67.5 1017.5,-67.5"/>
<text text-anchor="middle" x="1074" y="-74.5" font-family="Helvetica,sans-Serif" font-size="10.00">boost/uuid/uuid.hpp</text>
</a>
</g>
</g>
<!-- Node13&#45;&gt;Node15 -->
<g id="edge19" class="edge">
<title>Node13&#45;&gt;Node15</title>
<path fill="none" stroke="midnightblue" d="M857.17,-126.16C861.77,-125.1 866.53,-124.01 871,-123 923.58,-111.1 983.9,-97.77 1025.03,-88.73"/>
<polygon fill="midnightblue" stroke="midnightblue" points="1026.05,-92.09 1035.06,-86.53 1024.54,-85.25 1026.05,-92.09"/>
</g>
<!-- Node16 -->
<g id="node16" class="node">
<title>Node16</title>
<g id="a_node16"><a xlink:title=" ">
<polygon fill="white" stroke="#bfbfbf" points="1149,-67.5 1149,-86.5 1319,-86.5 1319,-67.5 1149,-67.5"/>
<text text-anchor="middle" x="1234" y="-74.5" font-family="Helvetica,sans-Serif" font-size="10.00">boost/uuid/uuid_generators.hpp</text>
</a>
</g>
</g>
<!-- Node13&#45;&gt;Node16 -->
<g id="edge20" class="edge">
<title>Node13&#45;&gt;Node16</title>
<path fill="none" stroke="midnightblue" d="M857.1,-125.81C861.7,-124.78 866.48,-123.8 871,-123 922.41,-113.91 1057.51,-97.93 1147.6,-87.67"/>
<polygon fill="midnightblue" stroke="midnightblue" points="1148.27,-91.11 1157.81,-86.51 1147.48,-84.16 1148.27,-91.11"/>
</g>
<!-- Node17 -->
<g id="node17" class="node">
<title>Node17</title>
<g id="a_node17"><a xlink:title=" ">
<polygon fill="white" stroke="#bfbfbf" points="1337.5,-67.5 1337.5,-86.5 1464.5,-86.5 1464.5,-67.5 1337.5,-67.5"/>
<text text-anchor="middle" x="1401" y="-74.5" font-family="Helvetica,sans-Serif" font-size="10.00">boost/uuid/uuid_io.hpp</text>
</a>
</g>
</g>
<!-- Node13&#45;&gt;Node17 -->
<g id="edge21" class="edge">
<title>Node13&#45;&gt;Node17</title>
<path fill="none" stroke="midnightblue" d="M857.07,-125.64C861.68,-124.63 866.47,-123.7 871,-123 1069.12,-92.51 1123.55,-106.98 1327.19,-87.03"/>
<polygon fill="midnightblue" stroke="midnightblue" points="1327.71,-90.49 1337.32,-86.02 1327.02,-83.53 1327.71,-90.49"/>
</g>
<!-- Node13&#45;&gt;Node18 -->
<g id="edge22" class="edge">
<title>Node13&#45;&gt;Node18</title>
<path fill="none" stroke="midnightblue" d="M806.94,-127.72C757.34,-119.24 645.43,-100.12 575.77,-88.21"/>
<polygon fill="midnightblue" stroke="midnightblue" points="576.25,-84.75 565.81,-86.51 575.07,-91.65 576.25,-84.75"/>
</g>
<!-- Node19 -->
<g id="node19" class="node">
<title>Node19</title>
<g id="a_node19"><a xlink:title=" ">
<polygon fill="white" stroke="#bfbfbf" points="741,-67.5 741,-86.5 789,-86.5 789,-67.5 741,-67.5"/>
<text text-anchor="middle" x="765" y="-74.5" font-family="Helvetica,sans-Serif" font-size="10.00">thread</text>
</a>
</g>
</g>
<!-- Node13&#45;&gt;Node19 -->
<g id="edge23" class="edge">
<title>Node13&#45;&gt;Node19</title>
<path fill="none" stroke="midnightblue" d="M821.24,-123.32C811.23,-115.26 796.11,-103.08 784.07,-93.37"/>
<polygon fill="midnightblue" stroke="midnightblue" points="785.94,-90.38 775.96,-86.83 781.55,-95.83 785.94,-90.38"/>
</g>
<!-- Node20 -->
<g id="node20" class="node">
<title>Node20</title>
<g id="a_node20"><a xlink:title=" ">
<polygon fill="white" stroke="#bfbfbf" points="807,-67.5 807,-86.5 857,-86.5 857,-67.5 807,-67.5"/>
<text text-anchor="middle" x="832" y="-74.5" font-family="Helvetica,sans-Serif" font-size="10.00">atomic</text>
</a>
</g>
</g>
<!-- Node13&#45;&gt;Node20 -->
<g id="edge24" class="edge">
<title>Node13&#45;&gt;Node20</title>
<path fill="none" stroke="midnightblue" d="M832,-123.08C832,-116.01 832,-105.86 832,-96.99"/>
<polygon fill="midnightblue" stroke="midnightblue" points="835.5,-96.75 832,-86.75 828.5,-96.75 835.5,-96.75"/>
</g>
<!-- Node21 -->
<g id="node21" class="node">
<title>Node21</title>
<g id="a_node21"><a xlink:href="GreenSock_8h.html" target="_top" xlink:title=" ">
<polygon fill="white" stroke="black" points="1717,-67.5 1717,-86.5 1795,-86.5 1795,-67.5 1717,-67.5"/>
<text text-anchor="middle" x="1756" y="-74.5" font-family="Helvetica,sans-Serif" font-size="10.00">GreenSock.h</text>
</a>
</g>
</g>
<!-- Node13&#45;&gt;Node21 -->
<g id="edge25" class="edge">
<title>Node13&#45;&gt;Node21</title>
<path fill="none" stroke="midnightblue" d="M857.23,-130.73C956.13,-125.72 1326.94,-106.65 1632,-87 1656.66,-85.41 1684.06,-83.44 1706.81,-81.75"/>
<polygon fill="midnightblue" stroke="midnightblue" points="1707.21,-85.24 1716.92,-81 1706.68,-78.25 1707.21,-85.24"/>
</g>
<!-- Node24 -->
<g id="node24" class="node">
<title>Node24</title>
<g id="a_node24"><a xlink:title=" ">
<polygon fill="white" stroke="#bfbfbf" points="1841,-6 1841,-25 1889,-25 1889,-6 1841,-6"/>
<text text-anchor="middle" x="1865" y="-13" font-family="Helvetica,sans-Serif" font-size="10.00">mutex</text>
</a>
</g>
</g>
<!-- Node13&#45;&gt;Node24 -->
<g id="edge37" class="edge">
<title>Node13&#45;&gt;Node24</title>
<path fill="none" stroke="midnightblue" d="M857.34,-132.01C1001.66,-131.94 1716.61,-129.42 1804,-87 1827.25,-75.72 1845.23,-51.08 1855.46,-34.14"/>
<polygon fill="midnightblue" stroke="midnightblue" points="1858.64,-35.63 1860.58,-25.22 1852.57,-32.15 1858.64,-35.63"/>
</g>
<!-- Node25 -->
<g id="node25" class="node">
<title>Node25</title>
<g id="a_node25"><a xlink:href="Logger_8h.html" target="_top" xlink:title="Header for Strategy Logger interface.">
<polygon fill="white" stroke="black" points="665,-67.5 665,-86.5 723,-86.5 723,-67.5 665,-67.5"/>
<text text-anchor="middle" x="694" y="-74.5" font-family="Helvetica,sans-Serif" font-size="10.00">Logger.h</text>
</a>
</g>
</g>
<!-- Node13&#45;&gt;Node25 -->
<g id="edge31" class="edge">
<title>Node13&#45;&gt;Node25</title>
<path fill="none" stroke="midnightblue" d="M810.13,-123.44C787.22,-114.48 751.02,-100.31 725.13,-90.18"/>
<polygon fill="midnightblue" stroke="midnightblue" points="726.35,-86.9 715.76,-86.52 723.8,-93.42 726.35,-86.9"/>
</g>
<!-- Node27 -->
<g id="node27" class="node">
<title>Node27</title>
<g id="a_node27"><a xlink:title=" ">
<polygon fill="white" stroke="#bfbfbf" points="875.5,-67.5 875.5,-86.5 922.5,-86.5 922.5,-67.5 875.5,-67.5"/>
<text text-anchor="middle" x="899" y="-74.5" font-family="Helvetica,sans-Serif" font-size="10.00">queue</text>
</a>
</g>
</g>
<!-- Node13&#45;&gt;Node27 -->
<g id="edge35" class="edge">
<title>Node13&#45;&gt;Node27</title>
<path fill="none" stroke="midnightblue" d="M842.76,-123.32C852.77,-115.26 867.89,-103.08 879.93,-93.37"/>
<polygon fill="midnightblue" stroke="midnightblue" points="882.45,-95.83 888.04,-86.83 878.06,-90.38 882.45,-95.83"/>
</g>
<!-- Node28 -->
<g id="node28" class="node">
<title>Node28</title>
<g id="a_node28"><a xlink:title=" ">
<polygon fill="white" stroke="#bfbfbf" points="941,-67.5 941,-86.5 999,-86.5 999,-67.5 941,-67.5"/>
<text text-anchor="middle" x="970" y="-74.5" font-family="Helvetica,sans-Serif" font-size="10.00">memory</text>
</a>
</g>
</g>
<!-- Node13&#45;&gt;Node28 -->
<g id="edge36" class="edge">
<title>Node13&#45;&gt;Node28</title>
<path fill="none" stroke="midnightblue" d="M853.87,-123.44C876.78,-114.48 912.98,-100.31 938.87,-90.18"/>
<polygon fill="midnightblue" stroke="midnightblue" points="940.2,-93.42 948.24,-86.52 937.65,-86.9 940.2,-93.42"/>
</g>
<!-- Node21&#45;&gt;Node5 -->
<g id="edge29" class="edge">
<title>Node21&#45;&gt;Node5</title>
<path fill="none" stroke="midnightblue" d="M1716.62,-71.68C1700.62,-70.03 1681.94,-68.25 1665,-67 1273.24,-38.02 796.22,-21.57 669.28,-17.5"/>
<polygon fill="midnightblue" stroke="midnightblue" points="669.19,-14 659.09,-17.18 668.97,-21 669.19,-14"/>
</g>
<!-- Node21&#45;&gt;Node6 -->
<g id="edge28" class="edge">
<title>Node21&#45;&gt;Node6</title>
<path fill="none" stroke="midnightblue" d="M1716.7,-69.08C1674.77,-61.32 1606.6,-47.62 1549,-31 1546.21,-30.19 1543.32,-29.29 1540.45,-28.34"/>
<polygon fill="midnightblue" stroke="midnightblue" points="1541.43,-24.98 1530.83,-25.01 1539.14,-31.59 1541.43,-24.98"/>
</g>
<!-- Node22 -->
<g id="node22" class="node">
<title>Node22</title>
<g id="a_node22"><a xlink:title=" ">
<polygon fill="white" stroke="#bfbfbf" points="1557.5,-0.5 1557.5,-30.5 1670.5,-30.5 1670.5,-0.5 1557.5,-0.5"/>
<text text-anchor="start" x="1565.5" y="-18.5" font-family="Helvetica,sans-Serif" font-size="10.00">websocketpp/config</text>
<text text-anchor="middle" x="1614" y="-7.5" font-family="Helvetica,sans-Serif" font-size="10.00">/asio_no_tls.hpp</text>
</a>
</g>
</g>
<!-- Node21&#45;&gt;Node22 -->
<g id="edge26" class="edge">
<title>Node21&#45;&gt;Node22</title>
<path fill="none" stroke="midnightblue" d="M1735.65,-67.48C1715.16,-58.89 1682.93,-45.38 1656.79,-34.43"/>
<polygon fill="midnightblue" stroke="midnightblue" points="1658.04,-31.16 1647.47,-30.52 1655.34,-37.62 1658.04,-31.16"/>
</g>
<!-- Node23 -->
<g id="node23" class="node">
<title>Node23</title>
<g id="a_node23"><a xlink:title=" ">
<polygon fill="white" stroke="#bfbfbf" points="1689,-6 1689,-25 1823,-25 1823,-6 1689,-6"/>
<text text-anchor="middle" x="1756" y="-13" font-family="Helvetica,sans-Serif" font-size="10.00">websocketpp/server.hpp</text>
</a>
</g>
</g>
<!-- Node21&#45;&gt;Node23 -->
<g id="edge27" class="edge">
<title>Node21&#45;&gt;Node23</title>
<path fill="none" stroke="midnightblue" d="M1756,-67.48C1756,-59.08 1756,-45.98 1756,-35.16"/>
<polygon fill="midnightblue" stroke="midnightblue" points="1759.5,-35.01 1756,-25.01 1752.5,-35.01 1759.5,-35.01"/>
</g>
<!-- Node21&#45;&gt;Node24 -->
<g id="edge30" class="edge">
<title>Node21&#45;&gt;Node24</title>
<path fill="none" stroke="midnightblue" d="M1771.62,-67.48C1789.59,-57.67 1819.32,-41.43 1840.41,-29.92"/>
<polygon fill="midnightblue" stroke="midnightblue" points="1842.31,-32.87 1849.41,-25.01 1838.96,-26.73 1842.31,-32.87"/>
</g>
<!-- Node25&#45;&gt;Node5 -->
<g id="edge32" class="edge">
<title>Node25&#45;&gt;Node5</title>
<path fill="none" stroke="midnightblue" d="M685.83,-67.48C677.11,-58.37 663.1,-43.74 652.31,-32.48"/>
<polygon fill="midnightblue" stroke="midnightblue" points="654.6,-29.81 645.15,-25.01 649.54,-34.65 654.6,-29.81"/>
</g>
<!-- Node25&#45;&gt;Node6 -->
<g id="edge33" class="edge">
<title>Node25&#45;&gt;Node6</title>
<path fill="none" stroke="midnightblue" d="M723.36,-68.53C726.27,-67.95 729.18,-67.42 732,-67 1011.7,-25.09 1353.19,-17.95 1468.66,-16.74"/>
<polygon fill="midnightblue" stroke="midnightblue" points="1468.84,-20.24 1478.81,-16.65 1468.77,-13.24 1468.84,-20.24"/>
</g>
<!-- Node25&#45;&gt;Node26 -->
<g id="edge34" class="edge">
<title>Node25&#45;&gt;Node26</title>
<path fill="none" stroke="midnightblue" d="M664.82,-72.37C583.54,-62.25 354.3,-33.72 258.7,-21.82"/>
<polygon fill="midnightblue" stroke="midnightblue" points="258.88,-18.31 248.53,-20.55 258.02,-25.26 258.88,-18.31"/>
</g>
<!-- Node29&#45;&gt;Node4 -->
<g id="edge48" class="edge">
<title>Node29&#45;&gt;Node4</title>
<path fill="none" stroke="midnightblue" d="M472.45,-241.36C398.01,-236.91 273.55,-225.64 237,-199 205.13,-175.77 201.84,-124.84 202.64,-97.04"/>
<polygon fill="midnightblue" stroke="midnightblue" points="206.15,-96.85 203.16,-86.68 199.16,-96.5 206.15,-96.85"/>
</g>
<!-- Node29&#45;&gt;Node6 -->
<g id="edge47" class="edge">
<title>Node29&#45;&gt;Node6</title>
<path fill="none" stroke="midnightblue" d="M587.74,-240.63C641.82,-235.95 724.11,-224.91 791,-199 849.52,-176.33 850.33,-142.43 910,-123 972.03,-102.8 1447.17,-130.25 1496,-87 1510.38,-74.26 1512.15,-51.25 1511.28,-34.99"/>
<polygon fill="midnightblue" stroke="midnightblue" points="1514.77,-34.66 1510.38,-25.02 1507.79,-35.29 1514.77,-34.66"/>
</g>
<!-- Node29&#45;&gt;Node12 -->
<g id="edge46" class="edge">
<title>Node29&#45;&gt;Node12</title>
<path fill="none" stroke="midnightblue" d="M520.36,-235.32C511.49,-227.34 498.13,-215.31 487.39,-205.65"/>
<polygon fill="midnightblue" stroke="midnightblue" points="489.59,-202.92 479.82,-198.83 484.91,-208.13 489.59,-202.92"/>
</g>
<!-- Node29&#45;&gt;Node18 -->
<g id="edge50" class="edge">
<title>Node29&#45;&gt;Node18</title>
<path fill="none" stroke="midnightblue" d="M529.25,-235.08C527.04,-208.95 520.57,-132.21 517.57,-96.58"/>
<polygon fill="midnightblue" stroke="midnightblue" points="521.05,-96.24 516.72,-86.57 514.08,-96.83 521.05,-96.24"/>
</g>
<!-- Node29&#45;&gt;Node26 -->
<g id="edge49" class="edge">
<title>Node29&#45;&gt;Node26</title>
<path fill="none" stroke="midnightblue" d="M472.39,-242.5C392.84,-239.31 254.77,-229.44 216,-199 167.25,-160.73 148.94,-124.92 171,-67 176.23,-53.28 187.08,-40.92 196.81,-31.86"/>
<polygon fill="midnightblue" stroke="midnightblue" points="199.36,-34.29 204.58,-25.07 194.75,-29.02 199.36,-34.29"/>
</g>
<!-- Node30 -->
<g id="node30" class="node">
<title>Node30</title>
<g id="a_node30"><a xlink:href="TransactionMem_8h.html" target="_top" xlink:title=" ">
<polygon fill="white" stroke="black" points="676,-179.5 676,-198.5 782,-198.5 782,-179.5 676,-179.5"/>
<text text-anchor="middle" x="729" y="-186.5" font-family="Helvetica,sans-Serif" font-size="10.00">TransactionMem.h</text>
</a>
</g>
</g>
<!-- Node29&#45;&gt;Node30 -->
<g id="edge41" class="edge">
<title>Node29&#45;&gt;Node30</title>
<path fill="none" stroke="midnightblue" d="M561.53,-235.44C595.59,-226.2 650.01,-211.44 687.52,-201.26"/>
<polygon fill="midnightblue" stroke="midnightblue" points="688.88,-204.51 697.62,-198.52 687.05,-197.76 688.88,-204.51"/>
</g>
<!-- Node29&#45;&gt;Node31 -->
<g id="edge44" class="edge">
<title>Node29&#45;&gt;Node31</title>
<path fill="none" stroke="midnightblue" d="M539.8,-235.32C548.82,-227.34 562.41,-215.31 573.32,-205.65"/>
<polygon fill="midnightblue" stroke="midnightblue" points="575.85,-208.08 581.02,-198.83 571.21,-202.84 575.85,-208.08"/>
</g>
<!-- Node30&#45;&gt;Node5 -->
<g id="edge43" class="edge">
<title>Node30&#45;&gt;Node5</title>
<path fill="none" stroke="midnightblue" d="M717.1,-179.34C696.63,-163.64 655.39,-128.25 639,-87 632.44,-70.48 632.68,-50.02 634.11,-35.41"/>
<polygon fill="midnightblue" stroke="midnightblue" points="637.63,-35.48 635.41,-25.12 630.68,-34.61 637.63,-35.48"/>
</g>
<!-- Node30&#45;&gt;Node13 -->
<g id="edge42" class="edge">
<title>Node30&#45;&gt;Node13</title>
<path fill="none" stroke="midnightblue" d="M745.55,-179.32C761.99,-170.7 787.43,-157.36 806.47,-147.39"/>
<polygon fill="midnightblue" stroke="midnightblue" points="808.26,-150.4 815.49,-142.65 805.01,-144.2 808.26,-150.4"/>
</g>
<!-- Node31&#45;&gt;Node18 -->
<g id="edge45" class="edge">
<title>Node31&#45;&gt;Node18</title>
<path fill="none" stroke="midnightblue" d="M589.42,-179.36C586.72,-166.26 580.28,-141 568,-123 559.9,-111.13 547.93,-100.48 537.52,-92.52"/>
<polygon fill="midnightblue" stroke="midnightblue" points="539.4,-89.56 529.25,-86.51 535.27,-95.22 539.4,-89.56"/>
</g>
<!-- Node33&#45;&gt;Node18 -->
<g id="edge61" class="edge">
<title>Node33&#45;&gt;Node18</title>
<path fill="none" stroke="midnightblue" d="M365.88,-179.48C394.58,-172.8 430.84,-161.44 459,-143 477.95,-130.59 494.37,-110.22 504.65,-95.59"/>
<polygon fill="midnightblue" stroke="midnightblue" points="507.8,-97.19 510.49,-86.94 501.99,-93.27 507.8,-97.19"/>
</g>
<!-- Node34 -->
<g id="node34" class="node">
<title>Node34</title>
<g id="a_node34"><a xlink:title=" ">
<polygon fill="white" stroke="#bfbfbf" points="218.5,-123.5 218.5,-142.5 273.5,-142.5 273.5,-123.5 218.5,-123.5"/>
<text text-anchor="middle" x="246" y="-130.5" font-family="Helvetica,sans-Serif" font-size="10.00">fstream</text>
</a>
</g>
</g>
<!-- Node33&#45;&gt;Node34 -->
<g id="edge60" class="edge">
<title>Node33&#45;&gt;Node34</title>
<path fill="none" stroke="midnightblue" d="M306.43,-179.32C295.58,-171.18 279.12,-158.84 266.12,-149.09"/>
<polygon fill="midnightblue" stroke="midnightblue" points="267.88,-146.03 257.78,-142.83 263.68,-151.63 267.88,-146.03"/>
</g>
<!-- Node35 -->
<g id="node35" class="node">
<title>Node35</title>
<g id="a_node35"><a xlink:href="GameConfiguration_8h.html" target="_top" xlink:title="Interface for obtaining game configuration.">
<polygon fill="white" stroke="black" points="330,-123.5 330,-142.5 450,-142.5 450,-123.5 330,-123.5"/>
<text text-anchor="middle" x="390" y="-130.5" font-family="Helvetica,sans-Serif" font-size="10.00">GameConfiguration.h</text>
</a>
</g>
</g>
<!-- Node33&#45;&gt;Node35 -->
<g id="edge62" class="edge">
<title>Node33&#45;&gt;Node35</title>
<path fill="none" stroke="midnightblue" d="M329.57,-179.32C340.42,-171.18 356.88,-158.84 369.88,-149.09"/>
<polygon fill="midnightblue" stroke="midnightblue" points="372.32,-151.63 378.22,-142.83 368.12,-146.03 372.32,-151.63"/>
</g>
<!-- Node35&#45;&gt;Node4 -->
<g id="edge63" class="edge">
<title>Node35&#45;&gt;Node4</title>
<path fill="none" stroke="midnightblue" d="M360.53,-123.44C327.06,-113.73 272.56,-97.9 237.5,-87.73"/>
<polygon fill="midnightblue" stroke="midnightblue" points="238.31,-84.32 227.73,-84.89 236.36,-91.04 238.31,-84.32"/>
</g>
<!-- Node35&#45;&gt;Node5 -->
<g id="edge64" class="edge">
<title>Node35&#45;&gt;Node5</title>
<path fill="none" stroke="midnightblue" d="M380.97,-123.13C368.42,-109.73 348.77,-84.09 363,-67 393.42,-30.47 538.65,-20.26 604.46,-17.49"/>
<polygon fill="midnightblue" stroke="midnightblue" points="604.82,-20.98 614.68,-17.1 604.55,-13.99 604.82,-20.98"/>
</g>
<!-- Node35&#45;&gt;Node14 -->
<g id="edge66" class="edge">
<title>Node35&#45;&gt;Node14</title>
<path fill="none" stroke="midnightblue" d="M395.61,-123.08C400.37,-115.53 407.32,-104.49 413.15,-95.23"/>
<polygon fill="midnightblue" stroke="midnightblue" points="416.12,-97.08 418.49,-86.75 410.2,-93.35 416.12,-97.08"/>
</g>
<!-- Node35&#45;&gt;Node26 -->
<g id="edge65" class="edge">
<title>Node35&#45;&gt;Node26</title>
<path fill="none" stroke="midnightblue" d="M376.92,-123.32C347.19,-103.59 274.3,-55.2 237.7,-30.91"/>
<polygon fill="midnightblue" stroke="midnightblue" points="239.5,-27.9 229.23,-25.28 235.63,-33.73 239.5,-27.9"/>
</g>
</g>
</svg>
        <g id="navigator" transform="translate(0 0)" fill="#404254">
                <rect fill="#f2f5e9" fill-opacity="0.5" stroke="#606060" stroke-width=".5" x="0" y="0" width="60" height="60"/>
                <use id="zoomplus" xlink:href="#zoomPlus" x="17" y="9" onmousedown="handleZoom(evt,'in')"/>
                <use id="zoomminus" xlink:href="#zoomMin" x="42" y="9" onmousedown="handleZoom(evt,'out')"/>
                <use id="reset" xlink:href="#resetDef" x="30" y="36" onmousedown="handleReset()"/>
                <g id="arrowUp" xlink:href="#dirArrow" transform="translate(30 24)" onmousedown="handlePan(0,-1)">
                  <use xlink:href="#rim" fill="#404040">
                        <set attributeName="fill" to="#808080" begin="arrowUp.mouseover" end="arrowUp.mouseout"/>
                  </use>
                  <path fill="none" stroke="white" stroke-width="1.5" d="M0,-3.0v7 M-2.5,-0.5L0,-3.0L2.5,-0.5"/>
                </g>
                <g id="arrowRight" xlink:href="#dirArrow" transform="rotate(90) translate(36 -43)" onmousedown="handlePan(1,0)">
                  <use xlink:href="#rim" fill="#404040">
                        <set attributeName="fill" to="#808080" begin="arrowRight.mouseover" end="arrowRight.mouseout"/>
                  </use>
                  <path fill="none" stroke="white" stroke-width="1.5" d="M0,-3.0v7 M-2.5,-0.5L0,-3.0L2.5,-0.5"/>
                </g>
                <g id="arrowDown" xlink:href="#dirArrow" transform="rotate(180) translate(-30 -48)" onmousedown="handlePan(0,1)">
                  <use xlink:href="#rim" fill="#404040">
                        <set attributeName="fill" to="#808080" begin="arrowDown.mouseover" end="arrowDown.mouseout"/>
                  </use>
                  <path fill="none" stroke="white" stroke-width="1.5" d="M0,-3.0v7 M-2.5,-0.5L0,-3.0L2.5,-0.5"/>
                </g>
                <g id="arrowLeft" xlink:href="#dirArrow" transform="rotate(270) translate(-36 17)" onmousedown="handlePan(-1,0)">
                  <use xlink:href="#rim" fill="#404040">
                        <set attributeName="fill" to="#808080" begin="arrowLeft.mouseover" end="arrowLeft.mouseout"/>
                  </use>
                  <path fill="none" stroke="white" stroke-width="1.5" d="M0,-3.0v7 M-2.5,-0.5L0,-3.0L2.5,-0.5"/>
                </g>
        </g>
        <svg viewBox="0 0 15 15" width="100%" height="30px" preserveAspectRatio="xMaxYMin meet">
         <g id="arrow_out" transform="scale(0.3 0.3)">
          <a xlink:href="Director_8h__incl_org.svg" target="_base">
           <rect id="button" ry="5" rx="5" y="6" x="6" height="38" width="38"
                fill="#f2f5e9" fill-opacity="0.5" stroke="#606060" stroke-width="1.0"/>
           <path id="arrow"
             d="M 11.500037,31.436501 C 11.940474,20.09759 22.043105,11.32322 32.158766,21.979434 L 37.068811,17.246167 C 37.068811,17.246167 37.088388,32 37.088388,32 L 22.160133,31.978069 C 22.160133,31.978069 26.997745,27.140456 26.997745,27.140456 C 18.528582,18.264221 13.291696,25.230495 11.500037,31.436501 z"
             style="fill:#404040;"/>
          </a>
         </g>
        </svg>
</svg>
