<?xml version="1.0" encoding="UTF-8" standalone="no"?>
<!DOCTYPE svg PUBLIC "-//W3C//DTD SVG 1.1//EN"
 "http://www.w3.org/Graphics/SVG/1.1/DTD/svg11.dtd">
<!-- Generated by graphviz version 2.43.0 (0)
 -->
<!-- Title: backend/customer/Director.cpp Pages: 1 -->
<!--zoomable 599 -->
<svg id="main" version="1.1" xmlns="http://www.w3.org/2000/svg" xmlns:xlink="http://www.w3.org/1999/xlink" xml:space="preserve" onload="init(evt)">
<style type="text/css"><![CDATA[
.edge:hover path { stroke: red; }
.edge:hover polygon { stroke: red; fill: red; }
]]></style>
<script type="text/javascript"><![CDATA[
var edges = document.getElementsByTagName('g');
if (edges && edges.length) {
  for (var i=0;i<edges.length;i++) {
    if (edges[i].id.substr(0,4)=='edge') {
      edges[i].setAttribute('class','edge');
    }
  }
}
]]></script>
        <defs>
                <circle id="rim" cx="0" cy="0" r="7"/>
                <circle id="rim2" cx="0" cy="0" r="3.5"/>
                <g id="zoomPlus">
                        <use xlink:href="#rim" fill="#404040">
                                <set attributeName="fill" to="#808080" begin="zoomplus.mouseover" end="zoomplus.mouseout"/>
                        </use>
                        <path d="M-4,0h8M0,-4v8" fill="none" stroke="white" stroke-width="1.5" pointer-events="none"/>
                </g>
                <g id="zoomMin">
                        <use xlink:href="#rim" fill="#404040">
                                <set attributeName="fill" to="#808080" begin="zoomminus.mouseover" end="zoomminus.mouseout"/>
                        </use>
                        <path d="M-4,0h8" fill="none" stroke="white" stroke-width="1.5" pointer-events="none"/>
                </g>
                <g id="dirArrow">
                        <path fill="none" stroke="white" stroke-width="1.5" d="M0,-3.0v7 M-2.5,-0.5L0,-3.0L2.5,-0.5"/>
                </g>
               <g id="resetDef">
                       <use xlink:href="#rim2" fill="#404040">
                               <set attributeName="fill" to="#808080" begin="reset.mouseover" end="reset.mouseout"/>
                       </use>
               </g>
        </defs>

<script type="text/javascript">
var viewWidth = 1819;
var viewHeight = 599;
var sectionId = 'dynsection-0';
</script>
<script xlink:href="svgpan.js"/>
<svg id="graph" class="graph">
<g id="viewport">
<title>backend/customer/Director.cpp</title>
<polygon fill="white" stroke="transparent" points="-4,4 -4,-595 1814.97,-595 1814.97,4 -4,4"/>
<!-- Node1 -->
<g id="node1" class="node">
<title>Node1</title>
<g id="a_node1"><a xlink:title="Implements the Director class functionality.">
<polygon fill="#bfbfbf" stroke="black" points="348.47,-571.5 348.47,-590.5 515.47,-590.5 515.47,-571.5 348.47,-571.5"/>
<text text-anchor="middle" x="431.97" y="-578.5" font-family="Helvetica,sans-Serif" font-size="10.00">backend/customer/Director.cpp</text>
</a>
</g>
</g>
<!-- Node2 -->
<g id="node2" class="node">
<title>Node2</title>
<g id="a_node2"><a xlink:href="Director_8h.html" target="_top" xlink:title="Director class for coordinating customer construction using builders and visitors.">
<polygon fill="white" stroke="black" points="399.97,-515.5 399.97,-534.5 463.97,-534.5 463.97,-515.5 399.97,-515.5"/>
<text text-anchor="middle" x="431.97" y="-522.5" font-family="Helvetica,sans-Serif" font-size="10.00">Director.h</text>
</a>
</g>
</g>
<!-- Node1&#45;&gt;Node2 -->
<g id="edge1" class="edge">
<title>Node1&#45;&gt;Node2</title>
<path fill="none" stroke="midnightblue" d="M431.97,-571.08C431.97,-564.01 431.97,-553.86 431.97,-544.99"/>
<polygon fill="midnightblue" stroke="midnightblue" points="435.47,-544.75 431.97,-534.75 428.47,-544.75 435.47,-544.75"/>
</g>
<!-- Node3 -->
<g id="node3" class="node">
<title>Node3</title>
<g id="a_node3"><a xlink:href="CustomerBuilder_8h.html" target="_top" xlink:title="Abstract builder interface for creating Customer objects.">
<polygon fill="white" stroke="black" points="327.47,-459.5 327.47,-478.5 434.47,-478.5 434.47,-459.5 327.47,-459.5"/>
<text text-anchor="middle" x="380.97" y="-466.5" font-family="Helvetica,sans-Serif" font-size="10.00">CustomerBuilder.h</text>
</a>
</g>
</g>
<!-- Node2&#45;&gt;Node3 -->
<g id="edge2" class="edge">
<title>Node2&#45;&gt;Node3</title>
<path fill="none" stroke="midnightblue" d="M423.55,-515.08C416.12,-507.22 405.12,-495.57 396.15,-486.08"/>
<polygon fill="midnightblue" stroke="midnightblue" points="398.64,-483.62 389.23,-478.75 393.55,-488.42 398.64,-483.62"/>
</g>
<!-- Node9 -->
<g id="node9" class="node">
<title>Node9</title>
<g id="a_node9"><a xlink:href="CustomerVisitor_8h_source.html" target="_top" xlink:title=" ">
<polygon fill="white" stroke="black" points="906.97,-347.5 906.97,-366.5 1010.97,-366.5 1010.97,-347.5 906.97,-347.5"/>
<text text-anchor="middle" x="958.97" y="-354.5" font-family="Helvetica,sans-Serif" font-size="10.00">CustomerVisitor.h</text>
</a>
</g>
</g>
<!-- Node2&#45;&gt;Node9 -->
<g id="edge78" class="edge">
<title>Node2&#45;&gt;Node9</title>
<path fill="none" stroke="midnightblue" d="M459.19,-515.42C546.92,-487.79 822.27,-401.06 922.24,-369.57"/>
<polygon fill="midnightblue" stroke="midnightblue" points="923.42,-372.87 931.91,-366.52 921.32,-366.19 923.42,-372.87"/>
</g>
<!-- Node4 -->
<g id="node4" class="node">
<title>Node4</title>
<g id="a_node4"><a xlink:href="Customer_8h.html" target="_top" xlink:title="Abstract base class for all customer types in the plant shop game.">
<polygon fill="white" stroke="black" points="376.97,-403.5 376.97,-422.5 448.97,-422.5 448.97,-403.5 376.97,-403.5"/>
<text text-anchor="middle" x="412.97" y="-410.5" font-family="Helvetica,sans-Serif" font-size="10.00">Customer.h</text>
</a>
</g>
</g>
<!-- Node3&#45;&gt;Node4 -->
<g id="edge3" class="edge">
<title>Node3&#45;&gt;Node4</title>
<path fill="none" stroke="midnightblue" d="M386.25,-459.08C390.68,-451.61 397.13,-440.72 402.58,-431.52"/>
<polygon fill="midnightblue" stroke="midnightblue" points="405.69,-433.14 407.78,-422.75 399.67,-429.57 405.69,-433.14"/>
</g>
<!-- Node3&#45;&gt;Node9 -->
<g id="edge67" class="edge">
<title>Node3&#45;&gt;Node9</title>
<path fill="none" stroke="midnightblue" d="M425.84,-459.46C530.5,-439.54 790.49,-390.06 904.23,-368.42"/>
<polygon fill="midnightblue" stroke="midnightblue" points="904.95,-371.84 914.12,-366.53 903.64,-364.97 904.95,-371.84"/>
</g>
<!-- Node35 -->
<g id="node35" class="node">
<title>Node35</title>
<g id="a_node35"><a xlink:title=" ">
<polygon fill="white" stroke="#bfbfbf" points="314.97,-235.5 314.97,-254.5 368.97,-254.5 368.97,-235.5 314.97,-235.5"/>
<text text-anchor="middle" x="341.97" y="-242.5" font-family="Helvetica,sans-Serif" font-size="10.00">random</text>
</a>
</g>
</g>
<!-- Node3&#45;&gt;Node35 -->
<g id="edge76" class="edge">
<title>Node3&#45;&gt;Node35</title>
<path fill="none" stroke="midnightblue" d="M376.67,-459.36C368.42,-442.25 350.59,-402.62 343.97,-367 337.33,-331.32 338.74,-288.7 340.36,-264.75"/>
<polygon fill="midnightblue" stroke="midnightblue" points="343.86,-264.84 341.14,-254.61 336.88,-264.31 343.86,-264.84"/>
</g>
<!-- Node36 -->
<g id="node36" class="node">
<title>Node36</title>
<g id="a_node36"><a xlink:href="JSONGameConfiguration_8h.html" target="_top" xlink:title=" ">
<polygon fill="white" stroke="black" points="78.97,-179.5 78.97,-198.5 222.97,-198.5 222.97,-179.5 78.97,-179.5"/>
<text text-anchor="middle" x="150.97" y="-186.5" font-family="Helvetica,sans-Serif" font-size="10.00">JSONGameConfiguration.h</text>
</a>
</g>
</g>
<!-- Node3&#45;&gt;Node36 -->
<g id="edge68" class="edge">
<title>Node3&#45;&gt;Node36</title>
<path fill="none" stroke="midnightblue" d="M327.37,-461.73C268.13,-451.46 180.97,-424.97 180.97,-358 180.97,-358 180.97,-358 180.97,-300 180.97,-266.64 167.97,-229.53 159.08,-208.07"/>
<polygon fill="midnightblue" stroke="midnightblue" points="162.18,-206.42 155.01,-198.62 155.75,-209.19 162.18,-206.42"/>
</g>
<!-- Node39 -->
<g id="node39" class="node">
<title>Node39</title>
<g id="a_node39"><a xlink:title=" ">
<polygon fill="white" stroke="#bfbfbf" points="246.97,-403.5 246.97,-422.5 296.97,-422.5 296.97,-403.5 246.97,-403.5"/>
<text text-anchor="middle" x="271.97" y="-410.5" font-family="Helvetica,sans-Serif" font-size="10.00">chrono</text>
</a>
</g>
</g>
<!-- Node3&#45;&gt;Node39 -->
<g id="edge77" class="edge">
<title>Node3&#45;&gt;Node39</title>
<path fill="none" stroke="midnightblue" d="M363.45,-459.32C345.89,-450.62 318.64,-437.12 298.44,-427.11"/>
<polygon fill="midnightblue" stroke="midnightblue" points="299.95,-423.96 289.44,-422.65 296.84,-430.23 299.95,-423.96"/>
</g>
<!-- Node5 -->
<g id="node5" class="node">
<title>Node5</title>
<g id="a_node5"><a xlink:title=" ">
<polygon fill="white" stroke="#bfbfbf" points="493.47,-67.5 493.47,-86.5 540.47,-86.5 540.47,-67.5 493.47,-67.5"/>
<text text-anchor="middle" x="516.97" y="-74.5" font-family="Helvetica,sans-Serif" font-size="10.00">vector</text>
</a>
</g>
</g>
<!-- Node4&#45;&gt;Node5 -->
<g id="edge4" class="edge">
<title>Node4&#45;&gt;Node5</title>
<path fill="none" stroke="midnightblue" d="M414.71,-403.15C416.93,-390.62 420.24,-367.02 417.97,-347 413.68,-309.15 367.03,-213.12 383.97,-179 405.22,-136.16 454.3,-106.6 486.52,-90.99"/>
<polygon fill="midnightblue" stroke="midnightblue" points="488.35,-93.99 495.93,-86.59 485.39,-87.65 488.35,-93.99"/>
</g>
<!-- Node6 -->
<g id="node6" class="node">
<title>Node6</title>
<g id="a_node6"><a xlink:title=" ">
<polygon fill="white" stroke="#bfbfbf" points="502.97,-6 502.97,-25 546.97,-25 546.97,-6 502.97,-6"/>
<text text-anchor="middle" x="524.97" y="-13" font-family="Helvetica,sans-Serif" font-size="10.00">string</text>
</a>
</g>
</g>
<!-- Node4&#45;&gt;Node6 -->
<g id="edge5" class="edge">
<title>Node4&#45;&gt;Node6</title>
<path fill="none" stroke="midnightblue" d="M384.63,-403.39C365.9,-396.36 342.09,-384.67 326.97,-367 239.94,-265.32 217.38,-171.52 300.97,-67 324.59,-37.46 436.28,-23.96 492.49,-18.96"/>
<polygon fill="midnightblue" stroke="midnightblue" points="492.96,-22.43 502.63,-18.1 492.37,-15.46 492.96,-22.43"/>
</g>
<!-- Node7 -->
<g id="node7" class="node">
<title>Node7</title>
<g id="a_node7"><a xlink:title=" ">
<polygon fill="white" stroke="#bfbfbf" points="848.97,-6 848.97,-25 908.97,-25 908.97,-6 848.97,-6"/>
<text text-anchor="middle" x="878.97" y="-13" font-family="Helvetica,sans-Serif" font-size="10.00">iostream</text>
</a>
</g>
</g>
<!-- Node4&#45;&gt;Node7 -->
<g id="edge6" class="edge">
<title>Node4&#45;&gt;Node7</title>
<path fill="none" stroke="midnightblue" d="M449.11,-407.13C537.27,-393.13 763.51,-344.04 863.97,-199 898.92,-148.54 889.68,-70.36 883.03,-35"/>
<polygon fill="midnightblue" stroke="midnightblue" points="886.44,-34.21 881.02,-25.11 879.58,-35.61 886.44,-34.21"/>
</g>
<!-- Node8 -->
<g id="node8" class="node">
<title>Node8</title>
<g id="a_node8"><a xlink:title=" ">
<polygon fill="white" stroke="#bfbfbf" points="352.97,-347.5 352.97,-366.5 408.97,-366.5 408.97,-347.5 352.97,-347.5"/>
<text text-anchor="middle" x="380.97" y="-354.5" font-family="Helvetica,sans-Serif" font-size="10.00">sstream</text>
</a>
</g>
</g>
<!-- Node4&#45;&gt;Node8 -->
<g id="edge7" class="edge">
<title>Node4&#45;&gt;Node8</title>
<path fill="none" stroke="midnightblue" d="M407.68,-403.08C403.26,-395.61 396.8,-384.72 391.35,-375.52"/>
<polygon fill="midnightblue" stroke="midnightblue" points="394.26,-373.57 386.15,-366.75 388.24,-377.14 394.26,-373.57"/>
</g>
<!-- Node4&#45;&gt;Node9 -->
<g id="edge8" class="edge">
<title>Node4&#45;&gt;Node9</title>
<path fill="none" stroke="midnightblue" d="M449.15,-409.13C529.23,-402.67 727.5,-386.03 892.97,-367 894.23,-366.86 895.5,-366.71 896.78,-366.55"/>
<polygon fill="midnightblue" stroke="midnightblue" points="897.26,-370.02 906.75,-365.33 896.4,-363.07 897.26,-370.02"/>
</g>
<!-- Node14 -->
<g id="node14" class="node">
<title>Node14</title>
<g id="a_node14"><a xlink:href="Plant_8h.html" target="_top" xlink:title="Defines the abstract base class for all Plant objects used in the system.">
<polygon fill="white" stroke="black" points="921.97,-123.5 921.97,-142.5 971.97,-142.5 971.97,-123.5 921.97,-123.5"/>
<text text-anchor="middle" x="946.97" y="-130.5" font-family="Helvetica,sans-Serif" font-size="10.00">Plant.h</text>
</a>
</g>
</g>
<!-- Node4&#45;&gt;Node14 -->
<g id="edge65" class="edge">
<title>Node4&#45;&gt;Node14</title>
<path fill="none" stroke="midnightblue" d="M449.3,-410.45C549.22,-405.89 822.88,-391.3 854.97,-367 925.46,-313.62 942.01,-198.08 945.84,-152.77"/>
<polygon fill="midnightblue" stroke="midnightblue" points="949.34,-152.85 946.57,-142.62 942.36,-152.34 949.34,-152.85"/>
</g>
<!-- Node19 -->
<g id="node19" class="node">
<title>Node19</title>
<g id="a_node19"><a xlink:title=" ">
<polygon fill="white" stroke="#bfbfbf" points="309.97,-67.5 309.97,-86.5 419.97,-86.5 419.97,-67.5 309.97,-67.5"/>
<text text-anchor="middle" x="364.97" y="-74.5" font-family="Helvetica,sans-Serif" font-size="10.00">nlohmann/json.hpp</text>
</a>
</g>
</g>
<!-- Node4&#45;&gt;Node19 -->
<g id="edge66" class="edge">
<title>Node4&#45;&gt;Node19</title>
<path fill="none" stroke="midnightblue" d="M392.79,-403.35C377.41,-395.81 356.77,-383.5 343.97,-367 311.74,-325.47 314.53,-306.86 305.97,-255 295.93,-194.18 333.42,-125.97 353.32,-94.97"/>
<polygon fill="midnightblue" stroke="midnightblue" points="356.27,-96.86 358.86,-86.59 350.43,-93 356.27,-96.86"/>
</g>
<!-- Node9&#45;&gt;Node5 -->
<g id="edge9" class="edge">
<title>Node9&#45;&gt;Node5</title>
<path fill="none" stroke="midnightblue" d="M946.58,-347.21C913.13,-323.46 818.28,-255.96 739.97,-199 693.96,-165.54 686.97,-150.14 636.97,-123 609.12,-107.89 575.13,-95.67 550.44,-87.79"/>
<polygon fill="midnightblue" stroke="midnightblue" points="551.4,-84.43 540.81,-84.79 549.31,-91.11 551.4,-84.43"/>
</g>
<!-- Node10 -->
<g id="node10" class="node">
<title>Node10</title>
<g id="a_node10"><a xlink:title=" ">
<polygon fill="white" stroke="#bfbfbf" points="1746.97,-67.5 1746.97,-86.5 1810.97,-86.5 1810.97,-67.5 1746.97,-67.5"/>
<text text-anchor="middle" x="1778.97" y="-74.5" font-family="Helvetica,sans-Serif" font-size="10.00">algorithm</text>
</a>
</g>
</g>
<!-- Node9&#45;&gt;Node10 -->
<g id="edge10" class="edge">
<title>Node9&#45;&gt;Node10</title>
<path fill="none" stroke="midnightblue" d="M964.67,-347.29C975.93,-329.2 999.97,-285.95 999.97,-246 999.97,-246 999.97,-246 999.97,-188 999.97,-169.25 1573.59,-101.68 1736.37,-82.88"/>
<polygon fill="midnightblue" stroke="midnightblue" points="1736.95,-86.34 1746.49,-81.72 1736.15,-79.38 1736.95,-86.34"/>
</g>
<!-- Node11 -->
<g id="node11" class="node">
<title>Node11</title>
<g id="a_node11"><a xlink:title=" ">
<polygon fill="white" stroke="#bfbfbf" points="1028.47,-291.5 1028.47,-310.5 1081.47,-310.5 1081.47,-291.5 1028.47,-291.5"/>
<text text-anchor="middle" x="1054.97" y="-298.5" font-family="Helvetica,sans-Serif" font-size="10.00">cstddef</text>
</a>
</g>
</g>
<!-- Node9&#45;&gt;Node11 -->
<g id="edge11" class="edge">
<title>Node9&#45;&gt;Node11</title>
<path fill="none" stroke="midnightblue" d="M974.39,-347.32C989.51,-338.82 1012.78,-325.73 1030.44,-315.8"/>
<polygon fill="midnightblue" stroke="midnightblue" points="1032.58,-318.61 1039.58,-310.65 1029.15,-312.51 1032.58,-318.61"/>
</g>
<!-- Node12 -->
<g id="node12" class="node">
<title>Node12</title>
<g id="a_node12"><a xlink:href="SalesFloor_8h.html" target="_top" xlink:title=" ">
<polygon fill="white" stroke="black" points="520.97,-291.5 520.97,-310.5 596.97,-310.5 596.97,-291.5 520.97,-291.5"/>
<text text-anchor="middle" x="558.97" y="-298.5" font-family="Helvetica,sans-Serif" font-size="10.00">SalesFloor.h</text>
</a>
</g>
</g>
<!-- Node9&#45;&gt;Node12 -->
<g id="edge12" class="edge">
<title>Node9&#45;&gt;Node12</title>
<path fill="none" stroke="midnightblue" d="M906.67,-348.94C828.7,-338.41 683.07,-318.75 607.4,-308.54"/>
<polygon fill="midnightblue" stroke="midnightblue" points="607.58,-305.03 597.2,-307.16 606.65,-311.97 607.58,-305.03"/>
</g>
<!-- Node9&#45;&gt;Node14 -->
<g id="edge64" class="edge">
<title>Node9&#45;&gt;Node14</title>
<path fill="none" stroke="midnightblue" d="M958.5,-347.3C956.73,-314.63 950.47,-198.87 947.99,-152.96"/>
<polygon fill="midnightblue" stroke="midnightblue" points="951.48,-152.68 947.45,-142.88 944.49,-153.06 951.48,-152.68"/>
</g>
<!-- Node12&#45;&gt;Node5 -->
<g id="edge61" class="edge">
<title>Node12&#45;&gt;Node5</title>
<path fill="none" stroke="midnightblue" d="M584.9,-291.4C603.03,-284.2 626.66,-272.31 641.97,-255 665.26,-228.66 680.34,-210.12 663.97,-179 640.11,-133.66 585.69,-104.74 550.18,-89.95"/>
<polygon fill="midnightblue" stroke="midnightblue" points="551.29,-86.63 540.71,-86.16 548.68,-93.13 551.29,-86.63"/>
</g>
<!-- Node13 -->
<g id="node13" class="node">
<title>Node13</title>
<g id="a_node13"><a xlink:href="Inventory_8h_source.html" target="_top" xlink:title=" ">
<polygon fill="white" stroke="black" points="583.47,-179.5 583.47,-198.5 654.47,-198.5 654.47,-179.5 583.47,-179.5"/>
<text text-anchor="middle" x="618.97" y="-186.5" font-family="Helvetica,sans-Serif" font-size="10.00">Inventory.h</text>
</a>
</g>
</g>
<!-- Node12&#45;&gt;Node13 -->
<g id="edge13" class="edge">
<title>Node12&#45;&gt;Node13</title>
<path fill="none" stroke="midnightblue" d="M581.76,-291.47C597.29,-284.32 616.67,-272.44 625.97,-255 633.63,-240.62 630.5,-221.91 626.26,-208.27"/>
<polygon fill="midnightblue" stroke="midnightblue" points="629.47,-206.83 622.82,-198.58 622.87,-209.18 629.47,-206.83"/>
</g>
<!-- Node27 -->
<g id="node27" class="node">
<title>Node27</title>
<g id="a_node27"><a xlink:title=" ">
<polygon fill="white" stroke="#bfbfbf" points="27.47,-6 27.47,-25 92.47,-25 92.47,-6 27.47,-6"/>
<text text-anchor="middle" x="59.97" y="-13" font-family="Helvetica,sans-Serif" font-size="10.00">stdexcept</text>
</a>
</g>
</g>
<!-- Node12&#45;&gt;Node27 -->
<g id="edge63" class="edge">
<title>Node12&#45;&gt;Node27</title>
<path fill="none" stroke="midnightblue" d="M539.87,-291.41C507.35,-277.19 438.83,-248.93 377.97,-235 303.69,-218 98.63,-243.77 36.97,-199 -10.99,-164.17 -5.13,-121.59 17.97,-67 23.53,-53.84 33.71,-41.47 42.66,-32.26"/>
<polygon fill="midnightblue" stroke="midnightblue" points="45.34,-34.53 50.05,-25.04 40.45,-29.52 45.34,-34.53"/>
</g>
<!-- Node32 -->
<g id="node32" class="node">
<title>Node32</title>
<g id="a_node32"><a xlink:href="TransactionHistory_8h.html" target="_top" xlink:title=" ">
<polygon fill="white" stroke="black" points="501.47,-235.5 501.47,-254.5 616.47,-254.5 616.47,-235.5 501.47,-235.5"/>
<text text-anchor="middle" x="558.97" y="-242.5" font-family="Helvetica,sans-Serif" font-size="10.00">TransactionHistory.h</text>
</a>
</g>
</g>
<!-- Node12&#45;&gt;Node32 -->
<g id="edge49" class="edge">
<title>Node12&#45;&gt;Node32</title>
<path fill="none" stroke="midnightblue" d="M558.97,-291.08C558.97,-284.01 558.97,-273.86 558.97,-264.99"/>
<polygon fill="midnightblue" stroke="midnightblue" points="562.47,-264.75 558.97,-254.75 555.47,-264.75 562.47,-264.75"/>
</g>
<!-- Node34 -->
<g id="node34" class="node">
<title>Node34</title>
<g id="a_node34"><a xlink:href="Ledger_8h_source.html" target="_top" xlink:title=" ">
<polygon fill="white" stroke="black" points="392.97,-179.5 392.97,-198.5 450.97,-198.5 450.97,-179.5 392.97,-179.5"/>
<text text-anchor="middle" x="421.97" y="-186.5" font-family="Helvetica,sans-Serif" font-size="10.00">Ledger.h</text>
</a>
</g>
</g>
<!-- Node12&#45;&gt;Node34 -->
<g id="edge60" class="edge">
<title>Node12&#45;&gt;Node34</title>
<path fill="none" stroke="midnightblue" d="M545.17,-291.41C531.53,-282.73 510.25,-268.69 492.97,-255 473.25,-239.39 452.19,-219.67 438.17,-206.07"/>
<polygon fill="midnightblue" stroke="midnightblue" points="440.38,-203.34 430.79,-198.85 435.48,-208.34 440.38,-203.34"/>
</g>
<!-- Node12&#45;&gt;Node35 -->
<g id="edge62" class="edge">
<title>Node12&#45;&gt;Node35</title>
<path fill="none" stroke="midnightblue" d="M524.58,-291.44C484.81,-281.55 419.59,-265.32 378.8,-255.17"/>
<polygon fill="midnightblue" stroke="midnightblue" points="379.54,-251.74 368.99,-252.73 377.85,-258.54 379.54,-251.74"/>
</g>
<!-- Node13&#45;&gt;Node5 -->
<g id="edge47" class="edge">
<title>Node13&#45;&gt;Node5</title>
<path fill="none" stroke="midnightblue" d="M610.96,-179.37C593.91,-160.97 553.75,-117.67 531.85,-94.05"/>
<polygon fill="midnightblue" stroke="midnightblue" points="534.3,-91.54 524.93,-86.59 529.17,-96.3 534.3,-91.54"/>
</g>
<!-- Node13&#45;&gt;Node6 -->
<g id="edge48" class="edge">
<title>Node13&#45;&gt;Node6</title>
<path fill="none" stroke="midnightblue" d="M597.17,-179.48C565.22,-165.64 506.98,-134.88 483.97,-87 474.6,-67.51 491,-46.18 505.76,-32.15"/>
<polygon fill="midnightblue" stroke="midnightblue" points="508.47,-34.42 513.61,-25.16 503.82,-29.19 508.47,-34.42"/>
</g>
<!-- Node13&#45;&gt;Node14 -->
<g id="edge14" class="edge">
<title>Node13&#45;&gt;Node14</title>
<path fill="none" stroke="midnightblue" d="M654.69,-182.12C717.95,-171.7 848.88,-150.15 911.76,-139.8"/>
<polygon fill="midnightblue" stroke="midnightblue" points="912.67,-143.19 921.97,-138.12 911.53,-136.29 912.67,-143.19"/>
</g>
<!-- Node14&#45;&gt;Node5 -->
<g id="edge17" class="edge">
<title>Node14&#45;&gt;Node5</title>
<path fill="none" stroke="midnightblue" d="M921.72,-128.85C863.1,-121.53 713.23,-102.79 587.97,-87 575.76,-85.46 562.38,-83.77 550.55,-82.27"/>
<polygon fill="midnightblue" stroke="midnightblue" points="550.99,-78.8 540.63,-81.01 550.11,-85.74 550.99,-78.8"/>
</g>
<!-- Node14&#45;&gt;Node6 -->
<g id="edge15" class="edge">
<title>Node14&#45;&gt;Node6</title>
<path fill="none" stroke="midnightblue" d="M921.64,-129.89C876.45,-125.58 779.41,-113.79 701.97,-87 683.93,-80.76 681.51,-74.51 663.97,-67 617.84,-47.25 603.66,-49.38 556.97,-31 555.55,-30.44 554.1,-29.85 552.65,-29.25"/>
<polygon fill="midnightblue" stroke="midnightblue" points="553.67,-25.88 543.11,-25.1 550.88,-32.3 553.67,-25.88"/>
</g>
<!-- Node14&#45;&gt;Node7 -->
<g id="edge19" class="edge">
<title>Node14&#45;&gt;Node7</title>
<path fill="none" stroke="midnightblue" d="M939.38,-123.46C931.84,-114.71 920.24,-100.51 911.97,-87 901.52,-69.94 892.12,-49.03 886.05,-34.43"/>
<polygon fill="midnightblue" stroke="midnightblue" points="889.25,-33.01 882.25,-25.06 882.76,-35.64 889.25,-33.01"/>
</g>
<!-- Node14&#45;&gt;Node10 -->
<g id="edge18" class="edge">
<title>Node14&#45;&gt;Node10</title>
<path fill="none" stroke="midnightblue" d="M972.02,-125.52C976.63,-124.53 981.42,-123.63 985.97,-123 1315.22,-77.45 1403,-127.02 1732.97,-87 1734.24,-86.85 1735.53,-86.68 1736.83,-86.49"/>
<polygon fill="midnightblue" stroke="midnightblue" points="1737.57,-89.92 1746.89,-84.89 1736.46,-83.01 1737.57,-89.92"/>
</g>
<!-- Node15 -->
<g id="node15" class="node">
<title>Node15</title>
<g id="a_node15"><a xlink:title=" ">
<polygon fill="white" stroke="#bfbfbf" points="184.97,-67.5 184.97,-86.5 222.97,-86.5 222.97,-67.5 184.97,-67.5"/>
<text text-anchor="middle" x="203.97" y="-74.5" font-family="Helvetica,sans-Serif" font-size="10.00">map</text>
</a>
</g>
</g>
<!-- Node14&#45;&gt;Node15 -->
<g id="edge16" class="edge">
<title>Node14&#45;&gt;Node15</title>
<path fill="none" stroke="midnightblue" d="M921.71,-130.45C835.14,-125.09 542.45,-106.61 300.97,-87 278.21,-85.15 252.48,-82.75 233.24,-80.89"/>
<polygon fill="midnightblue" stroke="midnightblue" points="233.57,-77.41 223.28,-79.92 232.89,-84.38 233.57,-77.41"/>
</g>
<!-- Node16 -->
<g id="node16" class="node">
<title>Node16</title>
<g id="a_node16"><a xlink:title=" ">
<polygon fill="white" stroke="#bfbfbf" points="997.47,-67.5 997.47,-86.5 1110.47,-86.5 1110.47,-67.5 997.47,-67.5"/>
<text text-anchor="middle" x="1053.97" y="-74.5" font-family="Helvetica,sans-Serif" font-size="10.00">boost/uuid/uuid.hpp</text>
</a>
</g>
</g>
<!-- Node14&#45;&gt;Node16 -->
<g id="edge20" class="edge">
<title>Node14&#45;&gt;Node16</title>
<path fill="none" stroke="midnightblue" d="M964.16,-123.32C981.32,-114.66 1007.91,-101.24 1027.71,-91.25"/>
<polygon fill="midnightblue" stroke="midnightblue" points="1029.47,-94.28 1036.82,-86.65 1026.31,-88.04 1029.47,-94.28"/>
</g>
<!-- Node17 -->
<g id="node17" class="node">
<title>Node17</title>
<g id="a_node17"><a xlink:title=" ">
<polygon fill="white" stroke="#bfbfbf" points="1128.97,-67.5 1128.97,-86.5 1298.97,-86.5 1298.97,-67.5 1128.97,-67.5"/>
<text text-anchor="middle" x="1213.97" y="-74.5" font-family="Helvetica,sans-Serif" font-size="10.00">boost/uuid/uuid_generators.hpp</text>
</a>
</g>
</g>
<!-- Node14&#45;&gt;Node17 -->
<g id="edge21" class="edge">
<title>Node14&#45;&gt;Node17</title>
<path fill="none" stroke="midnightblue" d="M972.12,-126.07C976.72,-125.02 981.48,-123.96 985.97,-123 1044.65,-110.44 1112.12,-97.28 1158.35,-88.46"/>
<polygon fill="midnightblue" stroke="midnightblue" points="1159.29,-91.85 1168.46,-86.54 1157.98,-84.97 1159.29,-91.85"/>
</g>
<!-- Node18 -->
<g id="node18" class="node">
<title>Node18</title>
<g id="a_node18"><a xlink:title=" ">
<polygon fill="white" stroke="#bfbfbf" points="1317.47,-67.5 1317.47,-86.5 1444.47,-86.5 1444.47,-67.5 1317.47,-67.5"/>
<text text-anchor="middle" x="1380.97" y="-74.5" font-family="Helvetica,sans-Serif" font-size="10.00">boost/uuid/uuid_io.hpp</text>
</a>
</g>
</g>
<!-- Node14&#45;&gt;Node18 -->
<g id="edge22" class="edge">
<title>Node14&#45;&gt;Node18</title>
<path fill="none" stroke="midnightblue" d="M972.06,-125.76C976.66,-124.74 981.45,-123.77 985.97,-123 1124.73,-99.31 1163.23,-103.6 1307.18,-87.07"/>
<polygon fill="midnightblue" stroke="midnightblue" points="1307.74,-90.53 1317.27,-85.9 1306.93,-83.57 1307.74,-90.53"/>
</g>
<!-- Node14&#45;&gt;Node19 -->
<g id="edge23" class="edge">
<title>Node14&#45;&gt;Node19</title>
<path fill="none" stroke="midnightblue" d="M921.96,-129.68C837.12,-121.81 558.43,-95.95 430.38,-84.07"/>
<polygon fill="midnightblue" stroke="midnightblue" points="430.59,-80.57 420.31,-83.13 429.94,-87.54 430.59,-80.57"/>
</g>
<!-- Node20 -->
<g id="node20" class="node">
<title>Node20</title>
<g id="a_node20"><a xlink:title=" ">
<polygon fill="white" stroke="#bfbfbf" points="1708.97,-6 1708.97,-25 1756.97,-25 1756.97,-6 1708.97,-6"/>
<text text-anchor="middle" x="1732.97" y="-13" font-family="Helvetica,sans-Serif" font-size="10.00">thread</text>
</a>
</g>
</g>
<!-- Node14&#45;&gt;Node20 -->
<g id="edge24" class="edge">
<title>Node14&#45;&gt;Node20</title>
<path fill="none" stroke="midnightblue" d="M972.02,-125.54C976.63,-124.55 981.43,-123.64 985.97,-123 1134.93,-102.01 1524.46,-148 1661.97,-87 1687.56,-75.65 1709.06,-50.65 1721.49,-33.69"/>
<polygon fill="midnightblue" stroke="midnightblue" points="1724.55,-35.42 1727.43,-25.22 1718.82,-31.4 1724.55,-35.42"/>
</g>
<!-- Node21 -->
<g id="node21" class="node">
<title>Node21</title>
<g id="a_node21"><a xlink:title=" ">
<polygon fill="white" stroke="#bfbfbf" points="1574.97,-6 1574.97,-25 1624.97,-25 1624.97,-6 1574.97,-6"/>
<text text-anchor="middle" x="1599.97" y="-13" font-family="Helvetica,sans-Serif" font-size="10.00">atomic</text>
</a>
</g>
</g>
<!-- Node14&#45;&gt;Node21 -->
<g id="edge25" class="edge">
<title>Node14&#45;&gt;Node21</title>
<path fill="none" stroke="midnightblue" d="M972.02,-125.56C976.64,-124.56 981.43,-123.65 985.97,-123 1056.26,-112.98 1575.2,-138.6 1623.97,-87 1637.92,-72.23 1625.7,-49.03 1614.18,-33.31"/>
<polygon fill="midnightblue" stroke="midnightblue" points="1616.61,-30.74 1607.68,-25.04 1611.11,-35.07 1616.61,-30.74"/>
</g>
<!-- Node22 -->
<g id="node22" class="node">
<title>Node22</title>
<g id="a_node22"><a xlink:href="GreenSock_8h.html" target="_top" xlink:title=" ">
<polygon fill="white" stroke="black" points="710.97,-67.5 710.97,-86.5 788.97,-86.5 788.97,-67.5 710.97,-67.5"/>
<text text-anchor="middle" x="749.97" y="-74.5" font-family="Helvetica,sans-Serif" font-size="10.00">GreenSock.h</text>
</a>
</g>
</g>
<!-- Node14&#45;&gt;Node22 -->
<g id="edge26" class="edge">
<title>Node14&#45;&gt;Node22</title>
<path fill="none" stroke="midnightblue" d="M921.62,-125.05C888.54,-115.98 830.25,-100.01 790.88,-89.21"/>
<polygon fill="midnightblue" stroke="midnightblue" points="791.63,-85.79 781.06,-86.52 789.78,-92.54 791.63,-85.79"/>
</g>
<!-- Node25 -->
<g id="node25" class="node">
<title>Node25</title>
<g id="a_node25"><a xlink:title=" ">
<polygon fill="white" stroke="#bfbfbf" points="1382.97,-6 1382.97,-25 1430.97,-25 1430.97,-6 1382.97,-6"/>
<text text-anchor="middle" x="1406.97" y="-13" font-family="Helvetica,sans-Serif" font-size="10.00">mutex</text>
</a>
</g>
</g>
<!-- Node14&#45;&gt;Node25 -->
<g id="edge46" class="edge">
<title>Node14&#45;&gt;Node25</title>
<path fill="none" stroke="midnightblue" d="M972.04,-125.63C976.65,-124.63 981.43,-123.69 985.97,-123 1037.52,-115.11 1418.53,-125.27 1453.97,-87 1470.07,-69.61 1447.28,-46.17 1428.17,-31.2"/>
<polygon fill="midnightblue" stroke="midnightblue" points="1430.18,-28.33 1420.07,-25.15 1425.99,-33.94 1430.18,-28.33"/>
</g>
<!-- Node26 -->
<g id="node26" class="node">
<title>Node26</title>
<g id="a_node26"><a xlink:href="Logger_8h.html" target="_top" xlink:title="Header for Strategy Logger.">
<polygon fill="white" stroke="black" points="596.97,-67.5 596.97,-86.5 654.97,-86.5 654.97,-67.5 596.97,-67.5"/>
<text text-anchor="middle" x="625.97" y="-74.5" font-family="Helvetica,sans-Serif" font-size="10.00">Logger.h</text>
</a>
</g>
</g>
<!-- Node14&#45;&gt;Node26 -->
<g id="edge32" class="edge">
<title>Node14&#45;&gt;Node26</title>
<path fill="none" stroke="midnightblue" d="M921.6,-128.29C872.64,-121.05 761.75,-104.21 668.97,-87 667.7,-86.77 666.42,-86.52 665.12,-86.27"/>
<polygon fill="midnightblue" stroke="midnightblue" points="665.57,-82.79 655.08,-84.28 664.2,-89.66 665.57,-82.79"/>
</g>
<!-- Node28 -->
<g id="node28" class="node">
<title>Node28</title>
<g id="a_node28"><a xlink:href="ThreadSafeQueue_8h_source.html" target="_top" xlink:title=" ">
<polygon fill="white" stroke="black" points="1501.47,-67.5 1501.47,-86.5 1614.47,-86.5 1614.47,-67.5 1501.47,-67.5"/>
<text text-anchor="middle" x="1557.97" y="-74.5" font-family="Helvetica,sans-Serif" font-size="10.00">ThreadSafeQueue.h</text>
</a>
</g>
</g>
<!-- Node14&#45;&gt;Node28 -->
<g id="edge36" class="edge">
<title>Node14&#45;&gt;Node28</title>
<path fill="none" stroke="midnightblue" d="M972.03,-125.61C976.64,-124.61 981.43,-123.68 985.97,-123 1206.73,-89.8 1264.82,-109.04 1486.97,-87 1488.44,-86.85 1489.92,-86.7 1491.42,-86.55"/>
<polygon fill="midnightblue" stroke="midnightblue" points="1491.86,-90.02 1501.42,-85.45 1491.09,-83.06 1491.86,-90.02"/>
</g>
<!-- Node29 -->
<g id="node29" class="node">
<title>Node29</title>
<g id="a_node29"><a xlink:title=" ">
<polygon fill="white" stroke="#bfbfbf" points="1643.47,-6 1643.47,-25 1690.47,-25 1690.47,-6 1643.47,-6"/>
<text text-anchor="middle" x="1666.97" y="-13" font-family="Helvetica,sans-Serif" font-size="10.00">queue</text>
</a>
</g>
</g>
<!-- Node14&#45;&gt;Node29 -->
<g id="edge44" class="edge">
<title>Node14&#45;&gt;Node29</title>
<path fill="none" stroke="midnightblue" d="M972.02,-125.55C976.63,-124.55 981.43,-123.64 985.97,-123 1058.13,-112.77 1582.34,-130.31 1640.97,-87 1657.17,-75.03 1663.28,-51.86 1665.59,-35.35"/>
<polygon fill="midnightblue" stroke="midnightblue" points="1669.09,-35.52 1666.65,-25.21 1662.13,-34.79 1669.09,-35.52"/>
</g>
<!-- Node31 -->
<g id="node31" class="node">
<title>Node31</title>
<g id="a_node31"><a xlink:title=" ">
<polygon fill="white" stroke="#bfbfbf" points="920.97,-67.5 920.97,-86.5 978.97,-86.5 978.97,-67.5 920.97,-67.5"/>
<text text-anchor="middle" x="949.97" y="-74.5" font-family="Helvetica,sans-Serif" font-size="10.00">memory</text>
</a>
</g>
</g>
<!-- Node14&#45;&gt;Node31 -->
<g id="edge45" class="edge">
<title>Node14&#45;&gt;Node31</title>
<path fill="none" stroke="midnightblue" d="M947.46,-123.08C947.86,-116.01 948.42,-105.86 948.91,-96.99"/>
<polygon fill="midnightblue" stroke="midnightblue" points="952.42,-96.93 949.48,-86.75 945.43,-96.54 952.42,-96.93"/>
</g>
<!-- Node22&#45;&gt;Node6 -->
<g id="edge30" class="edge">
<title>Node22&#45;&gt;Node6</title>
<path fill="none" stroke="midnightblue" d="M710.89,-69.23C671.45,-61.85 609.09,-48.7 556.97,-31 555.3,-30.43 553.6,-29.81 551.9,-29.15"/>
<polygon fill="midnightblue" stroke="midnightblue" points="552.9,-25.77 542.32,-25.11 550.17,-32.22 552.9,-25.77"/>
</g>
<!-- Node22&#45;&gt;Node7 -->
<g id="edge29" class="edge">
<title>Node22&#45;&gt;Node7</title>
<path fill="none" stroke="midnightblue" d="M768.45,-67.48C790.1,-57.49 826.18,-40.85 851.2,-29.31"/>
<polygon fill="midnightblue" stroke="midnightblue" points="852.9,-32.38 860.52,-25.01 849.97,-26.02 852.9,-32.38"/>
</g>
<!-- Node23 -->
<g id="node23" class="node">
<title>Node23</title>
<g id="a_node23"><a xlink:title=" ">
<polygon fill="white" stroke="#bfbfbf" points="565.47,-0.5 565.47,-30.5 678.47,-30.5 678.47,-0.5 565.47,-0.5"/>
<text text-anchor="start" x="573.47" y="-18.5" font-family="Helvetica,sans-Serif" font-size="10.00">websocketpp/config</text>
<text text-anchor="middle" x="621.97" y="-7.5" font-family="Helvetica,sans-Serif" font-size="10.00">/asio_no_tls.hpp</text>
</a>
</g>
</g>
<!-- Node22&#45;&gt;Node23 -->
<g id="edge27" class="edge">
<title>Node22&#45;&gt;Node23</title>
<path fill="none" stroke="midnightblue" d="M731.63,-67.48C713.4,-59 684.86,-45.74 661.47,-34.86"/>
<polygon fill="midnightblue" stroke="midnightblue" points="662.68,-31.56 652.13,-30.52 659.73,-37.91 662.68,-31.56"/>
</g>
<!-- Node24 -->
<g id="node24" class="node">
<title>Node24</title>
<g id="a_node24"><a xlink:title=" ">
<polygon fill="white" stroke="#bfbfbf" points="696.97,-6 696.97,-25 830.97,-25 830.97,-6 696.97,-6"/>
<text text-anchor="middle" x="763.97" y="-13" font-family="Helvetica,sans-Serif" font-size="10.00">websocketpp/server.hpp</text>
</a>
</g>
</g>
<!-- Node22&#45;&gt;Node24 -->
<g id="edge28" class="edge">
<title>Node22&#45;&gt;Node24</title>
<path fill="none" stroke="midnightblue" d="M751.97,-67.48C753.97,-58.99 757.1,-45.7 759.66,-34.82"/>
<polygon fill="midnightblue" stroke="midnightblue" points="763.08,-35.54 761.96,-25.01 756.27,-33.94 763.08,-35.54"/>
</g>
<!-- Node22&#45;&gt;Node25 -->
<g id="edge31" class="edge">
<title>Node22&#45;&gt;Node25</title>
<path fill="none" stroke="midnightblue" d="M789.1,-72.46C907.52,-61.73 1260.76,-29.74 1372.61,-19.61"/>
<polygon fill="midnightblue" stroke="midnightblue" points="1373.02,-23.09 1382.66,-18.7 1372.39,-16.12 1373.02,-23.09"/>
</g>
<!-- Node26&#45;&gt;Node6 -->
<g id="edge33" class="edge">
<title>Node26&#45;&gt;Node6</title>
<path fill="none" stroke="midnightblue" d="M611.5,-67.48C595,-57.75 567.79,-41.73 548.29,-30.24"/>
<polygon fill="midnightblue" stroke="midnightblue" points="549.8,-27.07 539.41,-25.01 546.25,-33.1 549.8,-27.07"/>
</g>
<!-- Node26&#45;&gt;Node7 -->
<g id="edge34" class="edge">
<title>Node26&#45;&gt;Node7</title>
<path fill="none" stroke="midnightblue" d="M655.03,-71.3C696.51,-64.28 774.87,-49.83 839.97,-31 842.61,-30.24 845.33,-29.38 848.04,-28.47"/>
<polygon fill="midnightblue" stroke="midnightblue" points="849.44,-31.69 857.7,-25.06 847.11,-25.09 849.44,-31.69"/>
</g>
<!-- Node26&#45;&gt;Node27 -->
<g id="edge35" class="edge">
<title>Node26&#45;&gt;Node27</title>
<path fill="none" stroke="midnightblue" d="M596.75,-72.43C582.62,-70.74 565.42,-68.71 549.97,-67 384.73,-48.7 187.9,-29.07 102.73,-20.69"/>
<polygon fill="midnightblue" stroke="midnightblue" points="102.97,-17.19 92.67,-19.7 102.28,-24.16 102.97,-17.19"/>
</g>
<!-- Node28&#45;&gt;Node6 -->
<g id="edge42" class="edge">
<title>Node28&#45;&gt;Node6</title>
<path fill="none" stroke="midnightblue" d="M1501.33,-70.62C1485.97,-69.29 1469.34,-67.97 1453.97,-67 1254.87,-54.4 751.08,-77.02 556.97,-31 554.75,-30.47 552.5,-29.79 550.27,-29.01"/>
<polygon fill="midnightblue" stroke="midnightblue" points="551.4,-25.69 540.82,-25.13 548.74,-32.17 551.4,-25.69"/>
</g>
<!-- Node28&#45;&gt;Node7 -->
<g id="edge37" class="edge">
<title>Node28&#45;&gt;Node7</title>
<path fill="none" stroke="midnightblue" d="M1501.24,-71.03C1367.41,-59.3 1034.57,-30.14 919.14,-20.02"/>
<polygon fill="midnightblue" stroke="midnightblue" points="919.25,-16.52 908.98,-19.13 918.64,-23.49 919.25,-16.52"/>
</g>
<!-- Node28&#45;&gt;Node20 -->
<g id="edge38" class="edge">
<title>Node28&#45;&gt;Node20</title>
<path fill="none" stroke="midnightblue" d="M1588.21,-67.44C1617.17,-59 1661.97,-45.32 1699.97,-31 1701.58,-30.39 1703.22,-29.75 1704.88,-29.08"/>
<polygon fill="midnightblue" stroke="midnightblue" points="1706.4,-32.24 1714.26,-25.13 1703.69,-25.79 1706.4,-32.24"/>
</g>
<!-- Node28&#45;&gt;Node21 -->
<g id="edge43" class="edge">
<title>Node28&#45;&gt;Node21</title>
<path fill="none" stroke="midnightblue" d="M1563.98,-67.48C1570.22,-58.64 1580.14,-44.59 1587.98,-33.48"/>
<polygon fill="midnightblue" stroke="midnightblue" points="1591.05,-35.2 1593.96,-25.01 1585.33,-31.16 1591.05,-35.2"/>
</g>
<!-- Node28&#45;&gt;Node25 -->
<g id="edge40" class="edge">
<title>Node28&#45;&gt;Node25</title>
<path fill="none" stroke="midnightblue" d="M1535,-67.45C1511.34,-58.57 1473.44,-44.16 1440.97,-31 1439.37,-30.35 1437.74,-29.68 1436.09,-29"/>
<polygon fill="midnightblue" stroke="midnightblue" points="1437.27,-25.7 1426.69,-25.05 1434.56,-32.15 1437.27,-25.7"/>
</g>
<!-- Node28&#45;&gt;Node29 -->
<g id="edge39" class="edge">
<title>Node28&#45;&gt;Node29</title>
<path fill="none" stroke="midnightblue" d="M1573.58,-67.48C1591.55,-57.67 1621.29,-41.43 1642.37,-29.92"/>
<polygon fill="midnightblue" stroke="midnightblue" points="1644.28,-32.87 1651.38,-25.01 1640.92,-26.73 1644.28,-32.87"/>
</g>
<!-- Node30 -->
<g id="node30" class="node">
<title>Node30</title>
<g id="a_node30"><a xlink:title=" ">
<polygon fill="white" stroke="#bfbfbf" points="1449.47,-6 1449.47,-25 1556.47,-25 1556.47,-6 1449.47,-6"/>
<text text-anchor="middle" x="1502.97" y="-13" font-family="Helvetica,sans-Serif" font-size="10.00">condition_variable</text>
</a>
</g>
</g>
<!-- Node28&#45;&gt;Node30 -->
<g id="edge41" class="edge">
<title>Node28&#45;&gt;Node30</title>
<path fill="none" stroke="midnightblue" d="M1550.09,-67.48C1541.67,-58.37 1528.15,-43.74 1517.74,-32.48"/>
<polygon fill="midnightblue" stroke="midnightblue" points="1520.19,-29.98 1510.83,-25.01 1515.05,-34.73 1520.19,-29.98"/>
</g>
<!-- Node32&#45;&gt;Node5 -->
<g id="edge57" class="edge">
<title>Node32&#45;&gt;Node5</title>
<path fill="none" stroke="midnightblue" d="M554.89,-235.21C550.87,-226.26 544.79,-211.91 540.97,-199 530.45,-163.53 523.2,-120.84 519.6,-96.82"/>
<polygon fill="midnightblue" stroke="midnightblue" points="523.02,-96.03 518.12,-86.64 516.09,-97.04 523.02,-96.03"/>
</g>
<!-- Node32&#45;&gt;Node7 -->
<g id="edge56" class="edge">
<title>Node32&#45;&gt;Node7</title>
<path fill="none" stroke="midnightblue" d="M558.74,-235.31C558.86,-221.7 561.02,-195.21 574.97,-179 644.89,-97.72 706.77,-143.38 797.97,-87 823.08,-71.47 848.13,-48.17 863.57,-32.66"/>
<polygon fill="midnightblue" stroke="midnightblue" points="866.24,-34.94 870.73,-25.34 861.23,-30.05 866.24,-34.94"/>
</g>
<!-- Node32&#45;&gt;Node13 -->
<g id="edge55" class="edge">
<title>Node32&#45;&gt;Node13</title>
<path fill="none" stroke="midnightblue" d="M568.61,-235.32C577.48,-227.34 590.84,-215.31 601.57,-205.65"/>
<polygon fill="midnightblue" stroke="midnightblue" points="604.06,-208.13 609.15,-198.83 599.38,-202.92 604.06,-208.13"/>
</g>
<!-- Node32&#45;&gt;Node19 -->
<g id="edge59" class="edge">
<title>Node32&#45;&gt;Node19</title>
<path fill="none" stroke="midnightblue" d="M548.81,-235.31C517.58,-208.58 422.67,-127.38 382.85,-93.3"/>
<polygon fill="midnightblue" stroke="midnightblue" points="384.9,-90.45 375.02,-86.61 380.35,-95.77 384.9,-90.45"/>
</g>
<!-- Node32&#45;&gt;Node27 -->
<g id="edge58" class="edge">
<title>Node32&#45;&gt;Node27</title>
<path fill="none" stroke="midnightblue" d="M501.27,-239.82C376.04,-230.61 88.98,-208.58 69.97,-199 40.17,-183.98 31.86,-174.17 19.97,-143 5.26,-104.45 30.72,-57.92 47.33,-33.45"/>
<polygon fill="midnightblue" stroke="midnightblue" points="50.24,-35.39 53.16,-25.21 44.53,-31.35 50.24,-35.39"/>
</g>
<!-- Node33 -->
<g id="node33" class="node">
<title>Node33</title>
<g id="a_node33"><a xlink:href="TransactionMem_8h.html" target="_top" xlink:title=" ">
<polygon fill="white" stroke="black" points="748.97,-179.5 748.97,-198.5 854.97,-198.5 854.97,-179.5 748.97,-179.5"/>
<text text-anchor="middle" x="801.97" y="-186.5" font-family="Helvetica,sans-Serif" font-size="10.00">TransactionMem.h</text>
</a>
</g>
</g>
<!-- Node32&#45;&gt;Node33 -->
<g id="edge50" class="edge">
<title>Node32&#45;&gt;Node33</title>
<path fill="none" stroke="midnightblue" d="M597.47,-235.44C639.77,-226.04 707.79,-210.93 753.64,-200.74"/>
<polygon fill="midnightblue" stroke="midnightblue" points="754.64,-204.1 763.64,-198.52 753.12,-197.27 754.64,-204.1"/>
</g>
<!-- Node32&#45;&gt;Node34 -->
<g id="edge53" class="edge">
<title>Node32&#45;&gt;Node34</title>
<path fill="none" stroke="midnightblue" d="M537.26,-235.44C514.61,-226.52 478.89,-212.44 453.22,-202.32"/>
<polygon fill="midnightblue" stroke="midnightblue" points="454.16,-198.93 443.57,-198.52 451.59,-205.44 454.16,-198.93"/>
</g>
<!-- Node33&#45;&gt;Node6 -->
<g id="edge52" class="edge">
<title>Node33&#45;&gt;Node6</title>
<path fill="none" stroke="midnightblue" d="M795.59,-179.35C784.76,-165.29 761.34,-137.59 734.97,-123 676.11,-90.44 645.63,-121.63 587.97,-87 565.85,-73.72 547.15,-50.17 536,-33.97"/>
<polygon fill="midnightblue" stroke="midnightblue" points="538.78,-31.83 530.34,-25.42 532.94,-35.69 538.78,-31.83"/>
</g>
<!-- Node33&#45;&gt;Node14 -->
<g id="edge51" class="edge">
<title>Node33&#45;&gt;Node14</title>
<path fill="none" stroke="midnightblue" d="M824.94,-179.44C849.12,-170.44 887.38,-156.19 914.61,-146.05"/>
<polygon fill="midnightblue" stroke="midnightblue" points="915.95,-149.29 924.1,-142.52 913.51,-142.73 915.95,-149.29"/>
</g>
<!-- Node34&#45;&gt;Node19 -->
<g id="edge54" class="edge">
<title>Node34&#45;&gt;Node19</title>
<path fill="none" stroke="midnightblue" d="M414.35,-179.19C407.09,-170.46 396.21,-156.48 388.97,-143 380.96,-128.1 374.51,-109.96 370.32,-96.63"/>
<polygon fill="midnightblue" stroke="midnightblue" points="373.58,-95.31 367.35,-86.74 366.87,-97.33 373.58,-95.31"/>
</g>
<!-- Node36&#45;&gt;Node19 -->
<g id="edge70" class="edge">
<title>Node36&#45;&gt;Node19</title>
<path fill="none" stroke="midnightblue" d="M167.76,-179.37C205.03,-160.21 294.86,-114.04 339.25,-91.22"/>
<polygon fill="midnightblue" stroke="midnightblue" points="340.96,-94.28 348.25,-86.59 337.76,-88.05 340.96,-94.28"/>
</g>
<!-- Node37 -->
<g id="node37" class="node">
<title>Node37</title>
<g id="a_node37"><a xlink:title=" ">
<polygon fill="white" stroke="#bfbfbf" points="29.47,-123.5 29.47,-142.5 84.47,-142.5 84.47,-123.5 29.47,-123.5"/>
<text text-anchor="middle" x="56.97" y="-130.5" font-family="Helvetica,sans-Serif" font-size="10.00">fstream</text>
</a>
</g>
</g>
<!-- Node36&#45;&gt;Node37 -->
<g id="edge69" class="edge">
<title>Node36&#45;&gt;Node37</title>
<path fill="none" stroke="midnightblue" d="M135.86,-179.32C121.06,-170.82 98.27,-157.73 80.98,-147.8"/>
<polygon fill="midnightblue" stroke="midnightblue" points="82.45,-144.6 72.03,-142.65 78.96,-150.67 82.45,-144.6"/>
</g>
<!-- Node38 -->
<g id="node38" class="node">
<title>Node38</title>
<g id="a_node38"><a xlink:href="GameConfiguration_8h.html" target="_top" xlink:title="Interface for obtaining game configuration.">
<polygon fill="white" stroke="black" points="102.97,-123.5 102.97,-142.5 222.97,-142.5 222.97,-123.5 102.97,-123.5"/>
<text text-anchor="middle" x="162.97" y="-130.5" font-family="Helvetica,sans-Serif" font-size="10.00">GameConfiguration.h</text>
</a>
</g>
</g>
<!-- Node36&#45;&gt;Node38 -->
<g id="edge71" class="edge">
<title>Node36&#45;&gt;Node38</title>
<path fill="none" stroke="midnightblue" d="M152.95,-179.08C154.54,-171.93 156.83,-161.64 158.81,-152.69"/>
<polygon fill="midnightblue" stroke="midnightblue" points="162.27,-153.27 161.02,-142.75 155.44,-151.75 162.27,-153.27"/>
</g>
<!-- Node38&#45;&gt;Node5 -->
<g id="edge72" class="edge">
<title>Node38&#45;&gt;Node5</title>
<path fill="none" stroke="midnightblue" d="M219.06,-123.44C293.36,-112.11 422.11,-92.47 483.08,-83.17"/>
<polygon fill="midnightblue" stroke="midnightblue" points="483.95,-86.58 493.31,-81.61 482.89,-79.66 483.95,-86.58"/>
</g>
<!-- Node38&#45;&gt;Node6 -->
<g id="edge73" class="edge">
<title>Node38&#45;&gt;Node6</title>
<path fill="none" stroke="midnightblue" d="M161.87,-123.38C160.61,-109.37 160.43,-81.72 175.97,-67 221.17,-24.17 414.91,-17.52 492.58,-16.6"/>
<polygon fill="midnightblue" stroke="midnightblue" points="492.77,-20.09 502.74,-16.5 492.71,-13.09 492.77,-20.09"/>
</g>
<!-- Node38&#45;&gt;Node15 -->
<g id="edge75" class="edge">
<title>Node38&#45;&gt;Node15</title>
<path fill="none" stroke="midnightblue" d="M169.74,-123.08C175.53,-115.46 184.03,-104.26 191.1,-94.94"/>
<polygon fill="midnightblue" stroke="midnightblue" points="194.06,-96.83 197.32,-86.75 188.49,-92.6 194.06,-96.83"/>
</g>
<!-- Node38&#45;&gt;Node27 -->
<g id="edge74" class="edge">
<title>Node38&#45;&gt;Node27</title>
<path fill="none" stroke="midnightblue" d="M155.23,-123.32C138.08,-104.09 96.66,-57.64 74.51,-32.81"/>
<polygon fill="midnightblue" stroke="midnightblue" points="77.07,-30.42 67.8,-25.28 71.84,-35.07 77.07,-30.42"/>
</g>
</g>
</svg>
        <g id="navigator" transform="translate(0 0)" fill="#404254">
                <rect fill="#f2f5e9" fill-opacity="0.5" stroke="#606060" stroke-width=".5" x="0" y="0" width="60" height="60"/>
                <use id="zoomplus" xlink:href="#zoomPlus" x="17" y="9" onmousedown="handleZoom(evt,'in')"/>
                <use id="zoomminus" xlink:href="#zoomMin" x="42" y="9" onmousedown="handleZoom(evt,'out')"/>
                <use id="reset" xlink:href="#resetDef" x="30" y="36" onmousedown="handleReset()"/>
                <g id="arrowUp" xlink:href="#dirArrow" transform="translate(30 24)" onmousedown="handlePan(0,-1)">
                  <use xlink:href="#rim" fill="#404040">
                        <set attributeName="fill" to="#808080" begin="arrowUp.mouseover" end="arrowUp.mouseout"/>
                  </use>
                  <path fill="none" stroke="white" stroke-width="1.5" d="M0,-3.0v7 M-2.5,-0.5L0,-3.0L2.5,-0.5"/>
                </g>
                <g id="arrowRight" xlink:href="#dirArrow" transform="rotate(90) translate(36 -43)" onmousedown="handlePan(1,0)">
                  <use xlink:href="#rim" fill="#404040">
                        <set attributeName="fill" to="#808080" begin="arrowRight.mouseover" end="arrowRight.mouseout"/>
                  </use>
                  <path fill="none" stroke="white" stroke-width="1.5" d="M0,-3.0v7 M-2.5,-0.5L0,-3.0L2.5,-0.5"/>
                </g>
                <g id="arrowDown" xlink:href="#dirArrow" transform="rotate(180) translate(-30 -48)" onmousedown="handlePan(0,1)">
                  <use xlink:href="#rim" fill="#404040">
                        <set attributeName="fill" to="#808080" begin="arrowDown.mouseover" end="arrowDown.mouseout"/>
                  </use>
                  <path fill="none" stroke="white" stroke-width="1.5" d="M0,-3.0v7 M-2.5,-0.5L0,-3.0L2.5,-0.5"/>
                </g>
                <g id="arrowLeft" xlink:href="#dirArrow" transform="rotate(270) translate(-36 17)" onmousedown="handlePan(-1,0)">
                  <use xlink:href="#rim" fill="#404040">
                        <set attributeName="fill" to="#808080" begin="arrowLeft.mouseover" end="arrowLeft.mouseout"/>
                  </use>
                  <path fill="none" stroke="white" stroke-width="1.5" d="M0,-3.0v7 M-2.5,-0.5L0,-3.0L2.5,-0.5"/>
                </g>
        </g>
        <svg viewBox="0 0 15 15" width="100%" height="30px" preserveAspectRatio="xMaxYMin meet">
         <g id="arrow_out" transform="scale(0.3 0.3)">
          <a xlink:href="Director_8cpp__incl_org.svg" target="_base">
           <rect id="button" ry="5" rx="5" y="6" x="6" height="38" width="38"
                fill="#f2f5e9" fill-opacity="0.5" stroke="#606060" stroke-width="1.0"/>
           <path id="arrow"
             d="M 11.500037,31.436501 C 11.940474,20.09759 22.043105,11.32322 32.158766,21.979434 L 37.068811,17.246167 C 37.068811,17.246167 37.088388,32 37.088388,32 L 22.160133,31.978069 C 22.160133,31.978069 26.997745,27.140456 26.997745,27.140456 C 18.528582,18.264221 13.291696,25.230495 11.500037,31.436501 z"
             style="fill:#404040;"/>
          </a>
         </g>
        </svg>
</svg>
