<?xml version="1.0" encoding="UTF-8" standalone="no"?>
<!DOCTYPE svg PUBLIC "-//W3C//DTD SVG 1.1//EN"
 "http://www.w3.org/Graphics/SVG/1.1/DTD/svg11.dtd">
<!-- Generated by graphviz version 2.43.0 (0)
 -->
<!-- Title: backend/greenhouse/FertilizerStaff.h Pages: 1 -->
<!--zoomable 274 -->
<svg id="main" version="1.1" xmlns="http://www.w3.org/2000/svg" xmlns:xlink="http://www.w3.org/1999/xlink" xml:space="preserve" onload="init(evt)">
<style type="text/css"><![CDATA[
.edge:hover path { stroke: red; }
.edge:hover polygon { stroke: red; fill: red; }
]]></style>
<script type="text/javascript"><![CDATA[
var edges = document.getElementsByTagName('g');
if (edges && edges.length) {
  for (var i=0;i<edges.length;i++) {
    if (edges[i].id.substr(0,4)=='edge') {
      edges[i].setAttribute('class','edge');
    }
  }
}
]]></script>
        <defs>
                <circle id="rim" cx="0" cy="0" r="7"/>
                <circle id="rim2" cx="0" cy="0" r="3.5"/>
                <g id="zoomPlus">
                        <use xlink:href="#rim" fill="#404040">
                                <set attributeName="fill" to="#808080" begin="zoomplus.mouseover" end="zoomplus.mouseout"/>
                        </use>
                        <path d="M-4,0h8M0,-4v8" fill="none" stroke="white" stroke-width="1.5" pointer-events="none"/>
                </g>
                <g id="zoomMin">
                        <use xlink:href="#rim" fill="#404040">
                                <set attributeName="fill" to="#808080" begin="zoomminus.mouseover" end="zoomminus.mouseout"/>
                        </use>
                        <path d="M-4,0h8" fill="none" stroke="white" stroke-width="1.5" pointer-events="none"/>
                </g>
                <g id="dirArrow">
                        <path fill="none" stroke="white" stroke-width="1.5" d="M0,-3.0v7 M-2.5,-0.5L0,-3.0L2.5,-0.5"/>
                </g>
               <g id="resetDef">
                       <use xlink:href="#rim2" fill="#404040">
                               <set attributeName="fill" to="#808080" begin="reset.mouseover" end="reset.mouseout"/>
                       </use>
               </g>
        </defs>

<script type="text/javascript">
var viewWidth = 534;
var viewHeight = 274;
var sectionId = 'dynsection-0';
</script>
<script xlink:href="svgpan.js"/>
<svg id="graph" class="graph">
<g id="viewport">
<title>backend/greenhouse/FertilizerStaff.h</title>
<polygon fill="white" stroke="transparent" points="-4,4 -4,-270 529.5,-270 529.5,4 -4,4"/>
<!-- Node1 -->
<g id="node1" class="node">
<title>Node1</title>
<g id="a_node1"><a xlink:title="Concrete observer for fertilizing staff in greenhouse.">
<polygon fill="#bfbfbf" stroke="black" points="408.5,-235.5 408.5,-265.5 525.5,-265.5 525.5,-235.5 408.5,-235.5"/>
<text text-anchor="start" x="416.5" y="-253.5" font-family="Helvetica,sans-Serif" font-size="10.00">backend/greenhouse</text>
<text text-anchor="middle" x="467" y="-242.5" font-family="Helvetica,sans-Serif" font-size="10.00">/FertilizerStaff.h</text>
</a>
</g>
</g>
<!-- Node2 -->
<g id="node2" class="node">
<title>Node2</title>
<g id="a_node2"><a xlink:title=" ">
<polygon fill="white" stroke="#bfbfbf" points="448,-6 448,-25 492,-25 492,-6 448,-6"/>
<text text-anchor="middle" x="470" y="-13" font-family="Helvetica,sans-Serif" font-size="10.00">string</text>
</a>
</g>
</g>
<!-- Node1&#45;&gt;Node2 -->
<g id="edge1" class="edge">
<title>Node1&#45;&gt;Node2</title>
<path fill="none" stroke="midnightblue" d="M475,-235.44C480.13,-225.59 486.31,-211.92 489,-199 501.32,-139.88 484.97,-68.24 475.66,-35.05"/>
<polygon fill="midnightblue" stroke="midnightblue" points="478.99,-33.95 472.83,-25.34 472.27,-35.92 478.99,-33.95"/>
</g>
<!-- Node3 -->
<g id="node3" class="node">
<title>Node3</title>
<g id="a_node3"><a xlink:href="GreenhouseStaff_8h.html" target="_top" xlink:title="Abstract base class for greenhouse staff observers.">
<polygon fill="white" stroke="black" points="372.5,-179.5 372.5,-198.5 479.5,-198.5 479.5,-179.5 372.5,-179.5"/>
<text text-anchor="middle" x="426" y="-186.5" font-family="Helvetica,sans-Serif" font-size="10.00">GreenhouseStaff.h</text>
</a>
</g>
</g>
<!-- Node1&#45;&gt;Node3 -->
<g id="edge2" class="edge">
<title>Node1&#45;&gt;Node3</title>
<path fill="none" stroke="midnightblue" d="M457.28,-235.4C451.45,-226.93 443.98,-216.1 437.81,-207.14"/>
<polygon fill="midnightblue" stroke="midnightblue" points="440.52,-204.91 431.97,-198.66 434.76,-208.88 440.52,-204.91"/>
</g>
<!-- Node3&#45;&gt;Node2 -->
<g id="edge3" class="edge">
<title>Node3&#45;&gt;Node2</title>
<path fill="none" stroke="midnightblue" d="M428.24,-179.26C435.1,-152.54 455.88,-71.52 465.29,-34.86"/>
<polygon fill="midnightblue" stroke="midnightblue" points="468.72,-35.58 467.81,-25.02 461.94,-33.84 468.72,-35.58"/>
</g>
<!-- Node4 -->
<g id="node4" class="node">
<title>Node4</title>
<g id="a_node4"><a xlink:href="PlantHealth_8h.html" target="_top" xlink:title="Health management system for plant lifecycle and care requirements.">
<polygon fill="white" stroke="black" points="213.5,-123.5 213.5,-142.5 296.5,-142.5 296.5,-123.5 213.5,-123.5"/>
<text text-anchor="middle" x="255" y="-130.5" font-family="Helvetica,sans-Serif" font-size="10.00">PlantHealth.h</text>
</a>
</g>
</g>
<!-- Node3&#45;&gt;Node4 -->
<g id="edge4" class="edge">
<title>Node3&#45;&gt;Node4</title>
<path fill="none" stroke="midnightblue" d="M398.9,-179.44C370.01,-170.32 324.08,-155.81 291.89,-145.65"/>
<polygon fill="midnightblue" stroke="midnightblue" points="292.56,-142.19 281.97,-142.52 290.45,-148.87 292.56,-142.19"/>
</g>
<!-- Node5 -->
<g id="node5" class="node">
<title>Node5</title>
<g id="a_node5"><a xlink:title=" ">
<polygon fill="white" stroke="#bfbfbf" points="0,-6 0,-25 60,-25 60,-6 0,-6"/>
<text text-anchor="middle" x="30" y="-13" font-family="Helvetica,sans-Serif" font-size="10.00">iostream</text>
</a>
</g>
</g>
<!-- Node4&#45;&gt;Node5 -->
<g id="edge5" class="edge">
<title>Node4&#45;&gt;Node5</title>
<path fill="none" stroke="midnightblue" d="M213.11,-129.82C154.29,-125.77 51.84,-114.84 29,-87 17.14,-72.55 19.79,-50.24 23.86,-34.6"/>
<polygon fill="midnightblue" stroke="midnightblue" points="27.21,-35.6 26.74,-25.01 20.51,-33.58 27.21,-35.6"/>
</g>
<!-- Node6 -->
<g id="node6" class="node">
<title>Node6</title>
<g id="a_node6"><a xlink:title=" ">
<polygon fill="white" stroke="#bfbfbf" points="382,-6 382,-25 430,-25 430,-6 382,-6"/>
<text text-anchor="middle" x="406" y="-13" font-family="Helvetica,sans-Serif" font-size="10.00">mutex</text>
</a>
</g>
</g>
<!-- Node4&#45;&gt;Node6 -->
<g id="edge6" class="edge">
<title>Node4&#45;&gt;Node6</title>
<path fill="none" stroke="midnightblue" d="M296.86,-125.84C338.77,-118.72 398.99,-105.55 413,-87 424.2,-72.16 419.74,-50.28 414.2,-34.83"/>
<polygon fill="midnightblue" stroke="midnightblue" points="417.36,-33.3 410.38,-25.34 410.87,-35.92 417.36,-33.3"/>
</g>
<!-- Node7 -->
<g id="node7" class="node">
<title>Node7</title>
<g id="a_node7"><a xlink:title=" ">
<polygon fill="white" stroke="#bfbfbf" points="354,-67.5 354,-86.5 404,-86.5 404,-67.5 354,-67.5"/>
<text text-anchor="middle" x="379" y="-74.5" font-family="Helvetica,sans-Serif" font-size="10.00">chrono</text>
</a>
</g>
</g>
<!-- Node4&#45;&gt;Node7 -->
<g id="edge7" class="edge">
<title>Node4&#45;&gt;Node7</title>
<path fill="none" stroke="midnightblue" d="M274.65,-123.44C294.96,-114.6 326.9,-100.69 350.1,-90.59"/>
<polygon fill="midnightblue" stroke="midnightblue" points="351.67,-93.72 359.44,-86.52 348.88,-87.3 351.67,-93.72"/>
</g>
<!-- Node8 -->
<g id="node8" class="node">
<title>Node8</title>
<g id="a_node8"><a xlink:title=" ">
<polygon fill="white" stroke="#bfbfbf" points="38,-67.5 38,-86.5 92,-86.5 92,-67.5 38,-67.5"/>
<text text-anchor="middle" x="65" y="-74.5" font-family="Helvetica,sans-Serif" font-size="10.00">random</text>
</a>
</g>
</g>
<!-- Node4&#45;&gt;Node8 -->
<g id="edge8" class="edge">
<title>Node4&#45;&gt;Node8</title>
<path fill="none" stroke="midnightblue" d="M224.89,-123.44C191.66,-114 138.12,-98.78 102.26,-88.59"/>
<polygon fill="midnightblue" stroke="midnightblue" points="102.77,-85.1 92.19,-85.73 100.86,-91.83 102.77,-85.1"/>
</g>
<!-- Node9 -->
<g id="node9" class="node">
<title>Node9</title>
<g id="a_node9"><a xlink:href="GreenSock_8h.html" target="_top" xlink:title=" ">
<polygon fill="white" stroke="black" points="258,-67.5 258,-86.5 336,-86.5 336,-67.5 258,-67.5"/>
<text text-anchor="middle" x="297" y="-74.5" font-family="Helvetica,sans-Serif" font-size="10.00">GreenSock.h</text>
</a>
</g>
</g>
<!-- Node4&#45;&gt;Node9 -->
<g id="edge9" class="edge">
<title>Node4&#45;&gt;Node9</title>
<path fill="none" stroke="midnightblue" d="M261.94,-123.08C267.93,-115.38 276.75,-104.03 284.05,-94.65"/>
<polygon fill="midnightblue" stroke="midnightblue" points="286.82,-96.79 290.19,-86.75 281.29,-92.5 286.82,-96.79"/>
</g>
<!-- Node12 -->
<g id="node12" class="node">
<title>Node12</title>
<g id="a_node12"><a xlink:title=" ">
<polygon fill="white" stroke="#bfbfbf" points="110,-67.5 110,-86.5 166,-86.5 166,-67.5 110,-67.5"/>
<text text-anchor="middle" x="138" y="-74.5" font-family="Helvetica,sans-Serif" font-size="10.00">sstream</text>
</a>
</g>
</g>
<!-- Node4&#45;&gt;Node12 -->
<g id="edge15" class="edge">
<title>Node4&#45;&gt;Node12</title>
<path fill="none" stroke="midnightblue" d="M236.46,-123.44C217.38,-114.64 187.43,-100.81 165.56,-90.72"/>
<polygon fill="midnightblue" stroke="midnightblue" points="167,-87.53 156.45,-86.52 164.07,-93.88 167,-87.53"/>
</g>
<!-- Node13 -->
<g id="node13" class="node">
<title>Node13</title>
<g id="a_node13"><a xlink:title=" ">
<polygon fill="white" stroke="#bfbfbf" points="184,-67.5 184,-86.5 240,-86.5 240,-67.5 184,-67.5"/>
<text text-anchor="middle" x="212" y="-74.5" font-family="Helvetica,sans-Serif" font-size="10.00">iomanip</text>
</a>
</g>
</g>
<!-- Node4&#45;&gt;Node13 -->
<g id="edge16" class="edge">
<title>Node4&#45;&gt;Node13</title>
<path fill="none" stroke="midnightblue" d="M247.9,-123.08C241.76,-115.38 232.73,-104.03 225.26,-94.65"/>
<polygon fill="midnightblue" stroke="midnightblue" points="227.94,-92.39 218.97,-86.75 222.46,-96.75 227.94,-92.39"/>
</g>
<!-- Node9&#45;&gt;Node2 -->
<g id="edge13" class="edge">
<title>Node9&#45;&gt;Node2</title>
<path fill="none" stroke="midnightblue" d="M327.87,-67.48C356.91,-59.17 401.42,-45.67 439,-31 440.42,-30.45 441.86,-29.86 443.32,-29.25"/>
<polygon fill="midnightblue" stroke="midnightblue" points="445.08,-32.29 452.79,-25.03 442.23,-25.9 445.08,-32.29"/>
</g>
<!-- Node9&#45;&gt;Node5 -->
<g id="edge12" class="edge">
<title>Node9&#45;&gt;Node5</title>
<path fill="none" stroke="midnightblue" d="M257.82,-67.87C215.96,-59.09 147.68,-44.55 89,-31 82.86,-29.58 76.38,-28.04 70.04,-26.5"/>
<polygon fill="midnightblue" stroke="midnightblue" points="70.82,-23.09 60.28,-24.11 69.16,-29.89 70.82,-23.09"/>
</g>
<!-- Node9&#45;&gt;Node6 -->
<g id="edge14" class="edge">
<title>Node9&#45;&gt;Node6</title>
<path fill="none" stroke="midnightblue" d="M312.62,-67.48C330.59,-57.67 360.32,-41.43 381.41,-29.92"/>
<polygon fill="midnightblue" stroke="midnightblue" points="383.31,-32.87 390.41,-25.01 379.96,-26.73 383.31,-32.87"/>
</g>
<!-- Node10 -->
<g id="node10" class="node">
<title>Node10</title>
<g id="a_node10"><a xlink:title=" ">
<polygon fill="white" stroke="#bfbfbf" points="98.5,-0.5 98.5,-30.5 211.5,-30.5 211.5,-0.5 98.5,-0.5"/>
<text text-anchor="start" x="106.5" y="-18.5" font-family="Helvetica,sans-Serif" font-size="10.00">websocketpp/config</text>
<text text-anchor="middle" x="155" y="-7.5" font-family="Helvetica,sans-Serif" font-size="10.00">/asio_no_tls.hpp</text>
</a>
</g>
</g>
<!-- Node9&#45;&gt;Node10 -->
<g id="edge10" class="edge">
<title>Node9&#45;&gt;Node10</title>
<path fill="none" stroke="midnightblue" d="M276.65,-67.48C256.16,-58.89 223.93,-45.38 197.79,-34.43"/>
<polygon fill="midnightblue" stroke="midnightblue" points="199.04,-31.16 188.47,-30.52 196.34,-37.62 199.04,-31.16"/>
</g>
<!-- Node11 -->
<g id="node11" class="node">
<title>Node11</title>
<g id="a_node11"><a xlink:title=" ">
<polygon fill="white" stroke="#bfbfbf" points="230,-6 230,-25 364,-25 364,-6 230,-6"/>
<text text-anchor="middle" x="297" y="-13" font-family="Helvetica,sans-Serif" font-size="10.00">websocketpp/server.hpp</text>
</a>
</g>
</g>
<!-- Node9&#45;&gt;Node11 -->
<g id="edge11" class="edge">
<title>Node9&#45;&gt;Node11</title>
<path fill="none" stroke="midnightblue" d="M297,-67.48C297,-59.08 297,-45.98 297,-35.16"/>
<polygon fill="midnightblue" stroke="midnightblue" points="300.5,-35.01 297,-25.01 293.5,-35.01 300.5,-35.01"/>
</g>
</g>
</svg>
        <g id="navigator" transform="translate(0 0)" fill="#404254">
                <rect fill="#f2f5e9" fill-opacity="0.5" stroke="#606060" stroke-width=".5" x="0" y="0" width="60" height="60"/>
                <use id="zoomplus" xlink:href="#zoomPlus" x="17" y="9" onmousedown="handleZoom(evt,'in')"/>
                <use id="zoomminus" xlink:href="#zoomMin" x="42" y="9" onmousedown="handleZoom(evt,'out')"/>
                <use id="reset" xlink:href="#resetDef" x="30" y="36" onmousedown="handleReset()"/>
                <g id="arrowUp" xlink:href="#dirArrow" transform="translate(30 24)" onmousedown="handlePan(0,-1)">
                  <use xlink:href="#rim" fill="#404040">
                        <set attributeName="fill" to="#808080" begin="arrowUp.mouseover" end="arrowUp.mouseout"/>
                  </use>
                  <path fill="none" stroke="white" stroke-width="1.5" d="M0,-3.0v7 M-2.5,-0.5L0,-3.0L2.5,-0.5"/>
                </g>
                <g id="arrowRight" xlink:href="#dirArrow" transform="rotate(90) translate(36 -43)" onmousedown="handlePan(1,0)">
                  <use xlink:href="#rim" fill="#404040">
                        <set attributeName="fill" to="#808080" begin="arrowRight.mouseover" end="arrowRight.mouseout"/>
                  </use>
                  <path fill="none" stroke="white" stroke-width="1.5" d="M0,-3.0v7 M-2.5,-0.5L0,-3.0L2.5,-0.5"/>
                </g>
                <g id="arrowDown" xlink:href="#dirArrow" transform="rotate(180) translate(-30 -48)" onmousedown="handlePan(0,1)">
                  <use xlink:href="#rim" fill="#404040">
                        <set attributeName="fill" to="#808080" begin="arrowDown.mouseover" end="arrowDown.mouseout"/>
                  </use>
                  <path fill="none" stroke="white" stroke-width="1.5" d="M0,-3.0v7 M-2.5,-0.5L0,-3.0L2.5,-0.5"/>
                </g>
                <g id="arrowLeft" xlink:href="#dirArrow" transform="rotate(270) translate(-36 17)" onmousedown="handlePan(-1,0)">
                  <use xlink:href="#rim" fill="#404040">
                        <set attributeName="fill" to="#808080" begin="arrowLeft.mouseover" end="arrowLeft.mouseout"/>
                  </use>
                  <path fill="none" stroke="white" stroke-width="1.5" d="M0,-3.0v7 M-2.5,-0.5L0,-3.0L2.5,-0.5"/>
                </g>
        </g>
        <svg viewBox="0 0 15 15" width="100%" height="30px" preserveAspectRatio="xMaxYMin meet">
         <g id="arrow_out" transform="scale(0.3 0.3)">
          <a xlink:href="FertilizerStaff_8h__incl_org.svg" target="_base">
           <rect id="button" ry="5" rx="5" y="6" x="6" height="38" width="38"
                fill="#f2f5e9" fill-opacity="0.5" stroke="#606060" stroke-width="1.0"/>
           <path id="arrow"
             d="M 11.500037,31.436501 C 11.940474,20.09759 22.043105,11.32322 32.158766,21.979434 L 37.068811,17.246167 C 37.068811,17.246167 37.088388,32 37.088388,32 L 22.160133,31.978069 C 22.160133,31.978069 26.997745,27.140456 26.997745,27.140456 C 18.528582,18.264221 13.291696,25.230495 11.500037,31.436501 z"
             style="fill:#404040;"/>
          </a>
         </g>
        </svg>
</svg>
