<?xml version="1.0" encoding="UTF-8" standalone="no"?>
<!DOCTYPE svg PUBLIC "-//W3C//DTD SVG 1.1//EN"
 "http://www.w3.org/Graphics/SVG/1.1/DTD/svg11.dtd">
<!-- Generated by graphviz version 2.43.0 (0)
 -->
<!-- Title: backend/plant/Flower.h Pages: 1 -->
<svg width="337pt" height="140pt"
 viewBox="0.00 0.00 337.00 140.00" xmlns="http://www.w3.org/2000/svg" xmlns:xlink="http://www.w3.org/1999/xlink">
<g id="graph0" class="graph" transform="scale(1 1) rotate(0) translate(4 136)">
<title>backend/plant/Flower.h</title>
<polygon fill="white" stroke="transparent" points="-4,4 -4,-136 333,-136 333,4 -4,4"/>
<!-- Node1 -->
<g id="node1" class="node">
<title>Node1</title>
<g id="a_node1"><a xlink:title="Defines the Flower subclass derived from the Plant base class.">
<polygon fill="#bfbfbf" stroke="black" points="90.5,-112.5 90.5,-131.5 219.5,-131.5 219.5,-112.5 90.5,-112.5"/>
<text text-anchor="middle" x="155" y="-119.5" font-family="Helvetica,sans-Serif" font-size="10.00">backend/plant/Flower.h</text>
</a>
</g>
</g>
<!-- Node2 -->
<g id="node2" class="node">
<title>Node2</title>
<g id="a_node2"><a xlink:href="Flower_8cpp.html" target="_top" xlink:title="Implements the functionality defined in the Flower class.">
<polygon fill="white" stroke="black" points="0,-56.5 0,-75.5 140,-75.5 140,-56.5 0,-56.5"/>
<text text-anchor="middle" x="70" y="-63.5" font-family="Helvetica,sans-Serif" font-size="10.00">backend/plant/Flower.cpp</text>
</a>
</g>
</g>
<!-- Node1&#45;&gt;Node2 -->
<g id="edge1" class="edge">
<title>Node1&#45;&gt;Node2</title>
<path fill="none" stroke="midnightblue" d="M132.81,-106.9C117.22,-97 96.87,-84.07 83.62,-75.65"/>
<polygon fill="midnightblue" stroke="midnightblue" points="131.03,-109.92 141.34,-112.32 134.78,-104.01 131.03,-109.92"/>
</g>
<!-- Node3 -->
<g id="node3" class="node">
<title>Node3</title>
<g id="a_node3"><a xlink:href="FlowerCreator_8h.html" target="_top" xlink:title="Defines the FlowerCreator class for creating Flower objects.">
<polygon fill="white" stroke="black" points="158.5,-56.5 158.5,-75.5 323.5,-75.5 323.5,-56.5 158.5,-56.5"/>
<text text-anchor="middle" x="241" y="-63.5" font-family="Helvetica,sans-Serif" font-size="10.00">backend/plant/FlowerCreator.h</text>
</a>
</g>
</g>
<!-- Node1&#45;&gt;Node3 -->
<g id="edge2" class="edge">
<title>Node1&#45;&gt;Node3</title>
<path fill="none" stroke="midnightblue" d="M177.45,-106.9C193.22,-97 213.81,-84.07 227.22,-75.65"/>
<polygon fill="midnightblue" stroke="midnightblue" points="175.43,-104.04 168.82,-112.32 179.15,-109.97 175.43,-104.04"/>
</g>
<!-- Node4 -->
<g id="node4" class="node">
<title>Node4</title>
<g id="a_node4"><a xlink:href="FlowerCreator_8cpp.html" target="_top" xlink:title="Implements the functionality defined in the FlowerCreator class.">
<polygon fill="white" stroke="black" points="153,-0.5 153,-19.5 329,-19.5 329,-0.5 153,-0.5"/>
<text text-anchor="middle" x="241" y="-7.5" font-family="Helvetica,sans-Serif" font-size="10.00">backend/plant/FlowerCreator.cpp</text>
</a>
</g>
</g>
<!-- Node3&#45;&gt;Node4 -->
<g id="edge3" class="edge">
<title>Node3&#45;&gt;Node4</title>
<path fill="none" stroke="midnightblue" d="M241,-45.8C241,-36.91 241,-26.78 241,-19.75"/>
<polygon fill="midnightblue" stroke="midnightblue" points="237.5,-46.08 241,-56.08 244.5,-46.08 237.5,-46.08"/>
</g>
</g>
</svg>
