<?xml version="1.0" encoding="UTF-8" standalone="no"?>
<!DOCTYPE svg PUBLIC "-//W3C//DTD SVG 1.1//EN"
 "http://www.w3.org/Graphics/SVG/1.1/DTD/svg11.dtd">
<!-- Generated by graphviz version 2.43.0 (0)
 -->
<!-- Title: backend/game/GameConfiguration.h Pages: 1 -->
<svg width="1128pt" height="464pt"
 viewBox="0.00 0.00 1127.50 464.00" xmlns="http://www.w3.org/2000/svg" xmlns:xlink="http://www.w3.org/1999/xlink">
<g id="graph0" class="graph" transform="scale(1 1) rotate(0) translate(4 460)">
<title>backend/game/GameConfiguration.h</title>
<polygon fill="white" stroke="transparent" points="-4,4 -4,-460 1123.5,-460 1123.5,4 -4,4"/>
<!-- Node1 -->
<g id="node1" class="node">
<title>Node1</title>
<g id="a_node1"><a xlink:title="Interface for obtaining game configuration.">
<polygon fill="#bfbfbf" stroke="black" points="206,-436.5 206,-455.5 400,-455.5 400,-436.5 206,-436.5"/>
<text text-anchor="middle" x="303" y="-443.5" font-family="Helvetica,sans-Serif" font-size="10.00">backend/game/GameConfiguration.h</text>
</a>
</g>
</g>
<!-- Node2 -->
<g id="node2" class="node">
<title>Node2</title>
<g id="a_node2"><a xlink:href="Game_8h.html" target="_top" xlink:title="Header file for Game class.">
<polygon fill="white" stroke="black" points="122.5,-252 122.5,-271 251.5,-271 251.5,-252 122.5,-252"/>
<text text-anchor="middle" x="187" y="-259" font-family="Helvetica,sans-Serif" font-size="10.00">backend/game/Game.h</text>
</a>
</g>
</g>
<!-- Node1&#45;&gt;Node2 -->
<g id="edge1" class="edge">
<title>Node1&#45;&gt;Node2</title>
<path fill="none" stroke="midnightblue" d="M292,-427.7C267.78,-389.6 210.56,-299.57 192.54,-271.21"/>
<polygon fill="midnightblue" stroke="midnightblue" points="289.09,-429.64 297.41,-436.2 294.99,-425.88 289.09,-429.64"/>
</g>
<!-- Node10 -->
<g id="node10" class="node">
<title>Node10</title>
<g id="a_node10"><a xlink:href="JSONGameConfiguration_8h.html" target="_top" xlink:title=" ">
<polygon fill="white" stroke="black" points="358,-380.5 358,-399.5 576,-399.5 576,-380.5 358,-380.5"/>
<text text-anchor="middle" x="467" y="-387.5" font-family="Helvetica,sans-Serif" font-size="10.00">backend/game/JSONGameConfiguration.h</text>
</a>
</g>
</g>
<!-- Node1&#45;&gt;Node10 -->
<g id="edge13" class="edge">
<title>Node1&#45;&gt;Node10</title>
<path fill="none" stroke="midnightblue" d="M338.52,-433.3C369.42,-423.13 413.47,-408.62 441.14,-399.52"/>
<polygon fill="midnightblue" stroke="midnightblue" points="337.39,-429.99 328.99,-436.44 339.58,-436.64 337.39,-429.99"/>
</g>
<!-- Node3 -->
<g id="node3" class="node">
<title>Node3</title>
<g id="a_node3"><a xlink:href="API_8h.html" target="_top" xlink:title="Bootstrapper for public facing API.">
<polygon fill="white" stroke="black" points="0,-118 0,-137 104,-137 104,-118 0,-118"/>
<text text-anchor="middle" x="52" y="-125" font-family="Helvetica,sans-Serif" font-size="10.00">backend/API/API.h</text>
</a>
</g>
</g>
<!-- Node2&#45;&gt;Node3 -->
<g id="edge2" class="edge">
<title>Node2&#45;&gt;Node3</title>
<path fill="none" stroke="midnightblue" d="M164.65,-246.31C150.56,-236.85 132.37,-223.69 118,-210 92.95,-186.14 68.73,-152.81 57.9,-137.2"/>
<polygon fill="midnightblue" stroke="midnightblue" points="162.96,-249.39 173.24,-251.95 166.8,-243.54 162.96,-249.39"/>
</g>
<!-- Node4 -->
<g id="node4" class="node">
<title>Node4</title>
<g id="a_node4"><a xlink:href="APIController_8h.html" target="_top" xlink:title="Define endpoints.">
<polygon fill="white" stroke="black" points="166.5,-56.5 166.5,-75.5 317.5,-75.5 317.5,-56.5 166.5,-56.5"/>
<text text-anchor="middle" x="242" y="-63.5" font-family="Helvetica,sans-Serif" font-size="10.00">backend/API/APIController.h</text>
</a>
</g>
</g>
<!-- Node2&#45;&gt;Node4 -->
<g id="edge5" class="edge">
<title>Node2&#45;&gt;Node4</title>
<path fill="none" stroke="midnightblue" d="M172.19,-243.74C164.95,-234.47 156.97,-222.35 153,-210 139.66,-168.53 128.02,-149.01 151,-112 162.62,-93.28 184.59,-82.12 204.03,-75.59"/>
<polygon fill="midnightblue" stroke="midnightblue" points="169.67,-246.19 178.73,-251.67 175.06,-241.73 169.67,-246.19"/>
</g>
<!-- Node6 -->
<g id="node6" class="node">
<title>Node6</title>
<g id="a_node6"><a xlink:href="MenuOption_8h_source.html" target="_top" xlink:title=" ">
<polygon fill="white" stroke="black" points="162.5,-185 162.5,-204 321.5,-204 321.5,-185 162.5,-185"/>
<text text-anchor="middle" x="242" y="-192" font-family="Helvetica,sans-Serif" font-size="10.00">backend/game/MenuOption.h</text>
</a>
</g>
</g>
<!-- Node2&#45;&gt;Node6 -->
<g id="edge6" class="edge">
<title>Node2&#45;&gt;Node6</title>
<path fill="none" stroke="midnightblue" d="M201.16,-243.77C211.88,-231.1 226.18,-214.2 234.7,-204.13"/>
<polygon fill="midnightblue" stroke="midnightblue" points="198.21,-241.84 194.42,-251.73 203.55,-246.36 198.21,-241.84"/>
</g>
<!-- Node3&#45;&gt;Node4 -->
<g id="edge3" class="edge">
<title>Node3&#45;&gt;Node4</title>
<path fill="none" stroke="midnightblue" d="M89.1,-114.88C126.04,-103.32 181.84,-85.84 214.83,-75.51"/>
<polygon fill="midnightblue" stroke="midnightblue" points="87.72,-111.65 79.22,-117.98 89.81,-118.33 87.72,-111.65"/>
</g>
<!-- Node5 -->
<g id="node5" class="node">
<title>Node5</title>
<g id="a_node5"><a xlink:href="APIController_8cpp.html" target="_top" xlink:title="Still need to see what going to do here.">
<polygon fill="white" stroke="black" points="161,-0.5 161,-19.5 323,-19.5 323,-0.5 161,-0.5"/>
<text text-anchor="middle" x="242" y="-7.5" font-family="Helvetica,sans-Serif" font-size="10.00">backend/API/APIController.cpp</text>
</a>
</g>
</g>
<!-- Node4&#45;&gt;Node5 -->
<g id="edge4" class="edge">
<title>Node4&#45;&gt;Node5</title>
<path fill="none" stroke="midnightblue" d="M242,-45.8C242,-36.91 242,-26.78 242,-19.75"/>
<polygon fill="midnightblue" stroke="midnightblue" points="238.5,-46.08 242,-56.08 245.5,-46.08 238.5,-46.08"/>
</g>
<!-- Node7 -->
<g id="node7" class="node">
<title>Node7</title>
<g id="a_node7"><a xlink:href="ContinueGameOption_8h.html" target="_top" xlink:title="Header file for ContinueGameOption class.">
<polygon fill="white" stroke="black" points="160,-112.5 160,-142.5 324,-142.5 324,-112.5 160,-112.5"/>
<text text-anchor="start" x="168" y="-130.5" font-family="Helvetica,sans-Serif" font-size="10.00">backend/game/ContinueGame</text>
<text text-anchor="middle" x="242" y="-119.5" font-family="Helvetica,sans-Serif" font-size="10.00">Option.h</text>
</a>
</g>
</g>
<!-- Node6&#45;&gt;Node7 -->
<g id="edge7" class="edge">
<title>Node6&#45;&gt;Node7</title>
<path fill="none" stroke="midnightblue" d="M242,-174.41C242,-164.22 242,-151.9 242,-142.59"/>
<polygon fill="midnightblue" stroke="midnightblue" points="238.5,-174.73 242,-184.73 245.5,-174.73 238.5,-174.73"/>
</g>
<!-- Node8 -->
<g id="node8" class="node">
<title>Node8</title>
<g id="a_node8"><a xlink:href="ExitGameOption_8h.html" target="_top" xlink:title=" ">
<polygon fill="white" stroke="black" points="342,-118 342,-137 522,-137 522,-118 342,-118"/>
<text text-anchor="middle" x="432" y="-125" font-family="Helvetica,sans-Serif" font-size="10.00">backend/game/ExitGameOption.h</text>
</a>
</g>
</g>
<!-- Node6&#45;&gt;Node8 -->
<g id="edge9" class="edge">
<title>Node6&#45;&gt;Node8</title>
<path fill="none" stroke="midnightblue" d="M276.78,-181.6C314.45,-168.71 373.62,-148.47 406.97,-137.06"/>
<polygon fill="midnightblue" stroke="midnightblue" points="275.56,-178.32 267.23,-184.87 277.83,-184.94 275.56,-178.32"/>
</g>
<!-- Node9 -->
<g id="node9" class="node">
<title>Node9</title>
<g id="a_node9"><a xlink:href="NewGameOption_8h.html" target="_top" xlink:title="Header file for NewGameOption class.">
<polygon fill="white" stroke="black" points="540.5,-118 540.5,-137 723.5,-137 723.5,-118 540.5,-118"/>
<text text-anchor="middle" x="632" y="-125" font-family="Helvetica,sans-Serif" font-size="10.00">backend/game/NewGameOption.h</text>
</a>
</g>
</g>
<!-- Node6&#45;&gt;Node9 -->
<g id="edge11" class="edge">
<title>Node6&#45;&gt;Node9</title>
<path fill="none" stroke="midnightblue" d="M303.37,-183.27C379.9,-170.52 509.36,-148.94 580.81,-137.03"/>
<polygon fill="midnightblue" stroke="midnightblue" points="302.68,-179.84 293.39,-184.94 303.83,-186.74 302.68,-179.84"/>
</g>
<!-- Node7&#45;&gt;Node4 -->
<g id="edge8" class="edge">
<title>Node7&#45;&gt;Node4</title>
<path fill="none" stroke="midnightblue" d="M242,-102.29C242,-92.86 242,-82.65 242,-75.66"/>
<polygon fill="midnightblue" stroke="midnightblue" points="238.5,-102.4 242,-112.4 245.5,-102.4 238.5,-102.4"/>
</g>
<!-- Node8&#45;&gt;Node4 -->
<g id="edge10" class="edge">
<title>Node8&#45;&gt;Node4</title>
<path fill="none" stroke="midnightblue" d="M394.9,-114.88C357.96,-103.32 302.16,-85.84 269.17,-75.51"/>
<polygon fill="midnightblue" stroke="midnightblue" points="394.19,-118.33 404.78,-117.98 396.28,-111.65 394.19,-118.33"/>
</g>
<!-- Node9&#45;&gt;Node4 -->
<g id="edge12" class="edge">
<title>Node9&#45;&gt;Node4</title>
<path fill="none" stroke="midnightblue" d="M565.8,-116.4C490.41,-104.9 368.53,-86.3 297.77,-75.51"/>
<polygon fill="midnightblue" stroke="midnightblue" points="565.71,-119.93 576.12,-117.98 566.76,-113.01 565.71,-119.93"/>
</g>
<!-- Node11 -->
<g id="node11" class="node">
<title>Node11</title>
<g id="a_node11"><a xlink:href="CustomerBuilder_8h.html" target="_top" xlink:title="Abstract builder interface for creating Customer objects.">
<polygon fill="white" stroke="black" points="437,-313.5 437,-343.5 593,-343.5 593,-313.5 437,-313.5"/>
<text text-anchor="start" x="445" y="-331.5" font-family="Helvetica,sans-Serif" font-size="10.00">backend/customer/Customer</text>
<text text-anchor="middle" x="515" y="-320.5" font-family="Helvetica,sans-Serif" font-size="10.00">Builder.h</text>
</a>
</g>
</g>
<!-- Node10&#45;&gt;Node11 -->
<g id="edge14" class="edge">
<title>Node10&#45;&gt;Node11</title>
<path fill="none" stroke="midnightblue" d="M480.29,-372.53C487.64,-363.42 496.68,-352.21 503.69,-343.52"/>
<polygon fill="midnightblue" stroke="midnightblue" points="477.43,-370.49 473.88,-380.48 482.88,-374.89 477.43,-370.49"/>
</g>
<!-- Node11&#45;&gt;Node2 -->
<g id="edge24" class="edge">
<title>Node11&#45;&gt;Node2</title>
<path fill="none" stroke="midnightblue" d="M434.28,-311.53C384.12,-301.6 318.31,-288.56 260,-277 250.24,-275.06 239.75,-272.98 229.85,-271.01"/>
<polygon fill="midnightblue" stroke="midnightblue" points="433.61,-314.96 444.1,-313.47 434.97,-308.09 433.61,-314.96"/>
</g>
<!-- Node12 -->
<g id="node12" class="node">
<title>Node12</title>
<g id="a_node12"><a xlink:href="AverageCustomerBuilder_8h.html" target="_top" xlink:title="Builder class for creating AverageCustomer objects with randomized dialogues.">
<polygon fill="white" stroke="black" points="269.5,-246.5 269.5,-276.5 418.5,-276.5 418.5,-246.5 269.5,-246.5"/>
<text text-anchor="start" x="277.5" y="-264.5" font-family="Helvetica,sans-Serif" font-size="10.00">backend/customer/Average</text>
<text text-anchor="middle" x="344" y="-253.5" font-family="Helvetica,sans-Serif" font-size="10.00">CustomerBuilder.h</text>
</a>
</g>
</g>
<!-- Node11&#45;&gt;Node12 -->
<g id="edge15" class="edge">
<title>Node11&#45;&gt;Node12</title>
<path fill="none" stroke="midnightblue" d="M468.48,-309.82C441,-299.37 406.67,-286.32 381.03,-276.58"/>
<polygon fill="midnightblue" stroke="midnightblue" points="467.3,-313.11 477.9,-313.4 469.79,-306.57 467.3,-313.11"/>
</g>
<!-- Node14 -->
<g id="node14" class="node">
<title>Node14</title>
<g id="a_node14"><a xlink:href="CustomerBuilder_8cpp.html" target="_top" xlink:title="Implements the CustomerBuilder base class functionality.">
<polygon fill="white" stroke="black" points="437,-246.5 437,-276.5 593,-276.5 593,-246.5 437,-246.5"/>
<text text-anchor="start" x="445" y="-264.5" font-family="Helvetica,sans-Serif" font-size="10.00">backend/customer/Customer</text>
<text text-anchor="middle" x="515" y="-253.5" font-family="Helvetica,sans-Serif" font-size="10.00">Builder.cpp</text>
</a>
</g>
</g>
<!-- Node11&#45;&gt;Node14 -->
<g id="edge17" class="edge">
<title>Node11&#45;&gt;Node14</title>
<path fill="none" stroke="midnightblue" d="M515,-303.11C515,-294.15 515,-284.32 515,-276.58"/>
<polygon fill="midnightblue" stroke="midnightblue" points="511.5,-303.4 515,-313.4 518.5,-303.4 511.5,-303.4"/>
</g>
<!-- Node15 -->
<g id="node15" class="node">
<title>Node15</title>
<g id="a_node15"><a xlink:href="Director_8h.html" target="_top" xlink:title="Director class for coordinating customer construction using builders and visitors.">
<polygon fill="white" stroke="black" points="611,-252 611,-271 767,-271 767,-252 611,-252"/>
<text text-anchor="middle" x="689" y="-259" font-family="Helvetica,sans-Serif" font-size="10.00">backend/customer/Director.h</text>
</a>
</g>
</g>
<!-- Node11&#45;&gt;Node15 -->
<g id="edge18" class="edge">
<title>Node11&#45;&gt;Node15</title>
<path fill="none" stroke="midnightblue" d="M562.42,-309.78C596.16,-297.18 639.99,-280.81 666.23,-271.01"/>
<polygon fill="midnightblue" stroke="midnightblue" points="560.9,-306.62 552.76,-313.4 563.35,-313.18 560.9,-306.62"/>
</g>
<!-- Node17 -->
<g id="node17" class="node">
<title>Node17</title>
<g id="a_node17"><a xlink:href="GreenFingerCustomerBuilder_8h.html" target="_top" xlink:title="Builder class for creating GreenFingerCustomer objects with randomized dialogues.">
<polygon fill="white" stroke="black" points="785,-246.5 785,-276.5 953,-276.5 953,-246.5 785,-246.5"/>
<text text-anchor="start" x="793" y="-264.5" font-family="Helvetica,sans-Serif" font-size="10.00">backend/customer/GreenFinger</text>
<text text-anchor="middle" x="869" y="-253.5" font-family="Helvetica,sans-Serif" font-size="10.00">CustomerBuilder.h</text>
</a>
</g>
</g>
<!-- Node11&#45;&gt;Node17 -->
<g id="edge20" class="edge">
<title>Node11&#45;&gt;Node17</title>
<path fill="none" stroke="midnightblue" d="M601.33,-311.65C659.74,-300.92 736.21,-286.88 792.46,-276.55"/>
<polygon fill="midnightblue" stroke="midnightblue" points="600.58,-308.23 591.38,-313.48 601.84,-315.11 600.58,-308.23"/>
</g>
<!-- Node19 -->
<g id="node19" class="node">
<title>Node19</title>
<g id="a_node19"><a xlink:href="IgnorantCustomerBuilder_8h.html" target="_top" xlink:title="Builder class for creating IgnorantCustomer objects with randomized dialogues.">
<polygon fill="white" stroke="black" points="970.5,-246.5 970.5,-276.5 1119.5,-276.5 1119.5,-246.5 970.5,-246.5"/>
<text text-anchor="start" x="978.5" y="-264.5" font-family="Helvetica,sans-Serif" font-size="10.00">backend/customer/Ignorant</text>
<text text-anchor="middle" x="1045" y="-253.5" font-family="Helvetica,sans-Serif" font-size="10.00">CustomerBuilder.h</text>
</a>
</g>
</g>
<!-- Node11&#45;&gt;Node19 -->
<g id="edge22" class="edge">
<title>Node11&#45;&gt;Node19</title>
<path fill="none" stroke="midnightblue" d="M603.3,-319.11C693.62,-310.16 837.88,-294.84 962,-277 964.75,-276.6 967.55,-276.19 970.38,-275.76"/>
<polygon fill="midnightblue" stroke="midnightblue" points="602.71,-315.66 593.11,-320.12 603.4,-322.62 602.71,-315.66"/>
</g>
<!-- Node13 -->
<g id="node13" class="node">
<title>Node13</title>
<g id="a_node13"><a xlink:href="AverageCustomerBuilder_8cpp.html" target="_top" xlink:title="Implements the AverageCustomerBuilder class functionality.">
<polygon fill="white" stroke="black" points="339.5,-179.5 339.5,-209.5 488.5,-209.5 488.5,-179.5 339.5,-179.5"/>
<text text-anchor="start" x="347.5" y="-197.5" font-family="Helvetica,sans-Serif" font-size="10.00">backend/customer/Average</text>
<text text-anchor="middle" x="414" y="-186.5" font-family="Helvetica,sans-Serif" font-size="10.00">CustomerBuilder.cpp</text>
</a>
</g>
</g>
<!-- Node12&#45;&gt;Node13 -->
<g id="edge16" class="edge">
<title>Node12&#45;&gt;Node13</title>
<path fill="none" stroke="midnightblue" d="M366.82,-239.31C377.32,-229.56 389.49,-218.26 398.84,-209.58"/>
<polygon fill="midnightblue" stroke="midnightblue" points="364.14,-237.03 359.19,-246.4 368.9,-242.16 364.14,-237.03"/>
</g>
<!-- Node16 -->
<g id="node16" class="node">
<title>Node16</title>
<g id="a_node16"><a xlink:href="Director_8cpp.html" target="_top" xlink:title="Implements the Director class functionality.">
<polygon fill="white" stroke="black" points="600.5,-185 600.5,-204 767.5,-204 767.5,-185 600.5,-185"/>
<text text-anchor="middle" x="684" y="-192" font-family="Helvetica,sans-Serif" font-size="10.00">backend/customer/Director.cpp</text>
</a>
</g>
</g>
<!-- Node15&#45;&gt;Node16 -->
<g id="edge19" class="edge">
<title>Node15&#45;&gt;Node16</title>
<path fill="none" stroke="midnightblue" d="M687.54,-241.54C686.59,-229.17 685.39,-213.62 684.66,-204.13"/>
<polygon fill="midnightblue" stroke="midnightblue" points="684.07,-242.03 688.33,-251.73 691.05,-241.49 684.07,-242.03"/>
</g>
<!-- Node18 -->
<g id="node18" class="node">
<title>Node18</title>
<g id="a_node18"><a xlink:href="GreenFingerCustomerBuilder_8cpp.html" target="_top" xlink:title="Implements the GreenFingerCustomerBuilder class functionality.">
<polygon fill="white" stroke="black" points="785,-179.5 785,-209.5 953,-209.5 953,-179.5 785,-179.5"/>
<text text-anchor="start" x="793" y="-197.5" font-family="Helvetica,sans-Serif" font-size="10.00">backend/customer/GreenFinger</text>
<text text-anchor="middle" x="869" y="-186.5" font-family="Helvetica,sans-Serif" font-size="10.00">CustomerBuilder.cpp</text>
</a>
</g>
</g>
<!-- Node17&#45;&gt;Node18 -->
<g id="edge21" class="edge">
<title>Node17&#45;&gt;Node18</title>
<path fill="none" stroke="midnightblue" d="M869,-236.11C869,-227.15 869,-217.32 869,-209.58"/>
<polygon fill="midnightblue" stroke="midnightblue" points="865.5,-236.4 869,-246.4 872.5,-236.4 865.5,-236.4"/>
</g>
<!-- Node20 -->
<g id="node20" class="node">
<title>Node20</title>
<g id="a_node20"><a xlink:href="IgnorantCustomerBuilder_8cpp.html" target="_top" xlink:title="Implements the IgnorantCustomerBuilder class functionality.">
<polygon fill="white" stroke="black" points="970.5,-179.5 970.5,-209.5 1119.5,-209.5 1119.5,-179.5 970.5,-179.5"/>
<text text-anchor="start" x="978.5" y="-197.5" font-family="Helvetica,sans-Serif" font-size="10.00">backend/customer/Ignorant</text>
<text text-anchor="middle" x="1045" y="-186.5" font-family="Helvetica,sans-Serif" font-size="10.00">CustomerBuilder.cpp</text>
</a>
</g>
</g>
<!-- Node19&#45;&gt;Node20 -->
<g id="edge23" class="edge">
<title>Node19&#45;&gt;Node20</title>
<path fill="none" stroke="midnightblue" d="M1045,-236.11C1045,-227.15 1045,-217.32 1045,-209.58"/>
<polygon fill="midnightblue" stroke="midnightblue" points="1041.5,-236.4 1045,-246.4 1048.5,-236.4 1041.5,-236.4"/>
</g>
</g>
</svg>
