<?xml version="1.0" encoding="UTF-8" standalone="no"?>
<!DOCTYPE svg PUBLIC "-//W3C//DTD SVG 1.1//EN"
 "http://www.w3.org/Graphics/SVG/1.1/DTD/svg11.dtd">
<!-- Generated by graphviz version 2.43.0 (0)
 -->
<!-- Title: backend/game/GameConfiguration.h Pages: 1 -->
<svg width="258pt" height="84pt"
 viewBox="0.00 0.00 257.50 84.00" xmlns="http://www.w3.org/2000/svg" xmlns:xlink="http://www.w3.org/1999/xlink">
<g id="graph0" class="graph" transform="scale(1 1) rotate(0) translate(4 80)">
<title>backend/game/GameConfiguration.h</title>
<polygon fill="white" stroke="transparent" points="-4,4 -4,-80 253.5,-80 253.5,4 -4,4"/>
<!-- Node1 -->
<g id="node1" class="node">
<title>Node1</title>
<g id="a_node1"><a xlink:title="Interface for obtaining game configuration.">
<polygon fill="#bfbfbf" stroke="black" points="26.5,-56.5 26.5,-75.5 220.5,-75.5 220.5,-56.5 26.5,-56.5"/>
<text text-anchor="middle" x="123.5" y="-63.5" font-family="Helvetica,sans-Serif" font-size="10.00">backend/game/GameConfiguration.h</text>
</a>
</g>
</g>
<!-- Node2 -->
<g id="node2" class="node">
<title>Node2</title>
<g id="a_node2"><a xlink:title=" ">
<polygon fill="white" stroke="#bfbfbf" points="0,-0.5 0,-19.5 47,-19.5 47,-0.5 0,-0.5"/>
<text text-anchor="middle" x="23.5" y="-7.5" font-family="Helvetica,sans-Serif" font-size="10.00">vector</text>
</a>
</g>
</g>
<!-- Node1&#45;&gt;Node2 -->
<g id="edge1" class="edge">
<title>Node1&#45;&gt;Node2</title>
<path fill="none" stroke="midnightblue" d="M107.43,-56.32C91.54,-47.74 66.99,-34.49 48.54,-24.52"/>
<polygon fill="midnightblue" stroke="midnightblue" points="49.99,-21.33 39.53,-19.65 46.66,-27.49 49.99,-21.33"/>
</g>
<!-- Node3 -->
<g id="node3" class="node">
<title>Node3</title>
<g id="a_node3"><a xlink:title=" ">
<polygon fill="white" stroke="#bfbfbf" points="65.5,-0.5 65.5,-19.5 109.5,-19.5 109.5,-0.5 65.5,-0.5"/>
<text text-anchor="middle" x="87.5" y="-7.5" font-family="Helvetica,sans-Serif" font-size="10.00">string</text>
</a>
</g>
</g>
<!-- Node1&#45;&gt;Node3 -->
<g id="edge2" class="edge">
<title>Node1&#45;&gt;Node3</title>
<path fill="none" stroke="midnightblue" d="M117.56,-56.08C112.52,-48.53 105.16,-37.49 98.99,-28.23"/>
<polygon fill="midnightblue" stroke="midnightblue" points="101.79,-26.13 93.33,-19.75 95.97,-30.01 101.79,-26.13"/>
</g>
<!-- Node4 -->
<g id="node4" class="node">
<title>Node4</title>
<g id="a_node4"><a xlink:title=" ">
<polygon fill="white" stroke="#bfbfbf" points="128,-0.5 128,-19.5 193,-19.5 193,-0.5 128,-0.5"/>
<text text-anchor="middle" x="160.5" y="-7.5" font-family="Helvetica,sans-Serif" font-size="10.00">stdexcept</text>
</a>
</g>
</g>
<!-- Node1&#45;&gt;Node4 -->
<g id="edge3" class="edge">
<title>Node1&#45;&gt;Node4</title>
<path fill="none" stroke="midnightblue" d="M129.61,-56.08C134.78,-48.53 142.35,-37.49 148.69,-28.23"/>
<polygon fill="midnightblue" stroke="midnightblue" points="151.74,-29.98 154.5,-19.75 145.96,-26.02 151.74,-29.98"/>
</g>
<!-- Node5 -->
<g id="node5" class="node">
<title>Node5</title>
<g id="a_node5"><a xlink:title=" ">
<polygon fill="white" stroke="#bfbfbf" points="211.5,-0.5 211.5,-19.5 249.5,-19.5 249.5,-0.5 211.5,-0.5"/>
<text text-anchor="middle" x="230.5" y="-7.5" font-family="Helvetica,sans-Serif" font-size="10.00">map</text>
</a>
</g>
</g>
<!-- Node1&#45;&gt;Node5 -->
<g id="edge4" class="edge">
<title>Node1&#45;&gt;Node5</title>
<path fill="none" stroke="midnightblue" d="M140.69,-56.32C157.85,-47.66 184.45,-34.24 204.25,-24.25"/>
<polygon fill="midnightblue" stroke="midnightblue" points="206,-27.28 213.35,-19.65 202.85,-21.04 206,-27.28"/>
</g>
</g>
</svg>
