<?xml version="1.0" encoding="UTF-8" standalone="no"?>
<!DOCTYPE svg PUBLIC "-//W3C//DTD SVG 1.1//EN"
 "http://www.w3.org/Graphics/SVG/1.1/DTD/svg11.dtd">
<!-- Generated by graphviz version 2.43.0 (0)
 -->
<!-- Title: backend/greenhouse/GreenhouseStaff.h Pages: 1 -->
<svg width="611pt" height="520pt"
 viewBox="0.00 0.00 611.00 520.00" xmlns="http://www.w3.org/2000/svg" xmlns:xlink="http://www.w3.org/1999/xlink">
<g id="graph0" class="graph" transform="scale(1 1) rotate(0) translate(4 516)">
<title>backend/greenhouse/GreenhouseStaff.h</title>
<polygon fill="white" stroke="transparent" points="-4,4 -4,-516 607,-516 607,4 -4,4"/>
<!-- Node1 -->
<g id="node1" class="node">
<title>Node1</title>
<g id="a_node1"><a xlink:title="Abstract base class for greenhouse staff observers.">
<polygon fill="#bfbfbf" stroke="black" points="202,-481.5 202,-511.5 319,-511.5 319,-481.5 202,-481.5"/>
<text text-anchor="start" x="210" y="-499.5" font-family="Helvetica,sans-Serif" font-size="10.00">backend/greenhouse</text>
<text text-anchor="middle" x="260.5" y="-488.5" font-family="Helvetica,sans-Serif" font-size="10.00">/GreenhouseStaff.h</text>
</a>
</g>
</g>
<!-- Node2 -->
<g id="node2" class="node">
<title>Node2</title>
<g id="a_node2"><a xlink:href="FertilizerStaff_8h.html" target="_top" xlink:title="Concrete observer for fertilizing staff in greenhouse.">
<polygon fill="white" stroke="black" points="0,-414.5 0,-444.5 117,-444.5 117,-414.5 0,-414.5"/>
<text text-anchor="start" x="8" y="-432.5" font-family="Helvetica,sans-Serif" font-size="10.00">backend/greenhouse</text>
<text text-anchor="middle" x="58.5" y="-421.5" font-family="Helvetica,sans-Serif" font-size="10.00">/FertilizerStaff.h</text>
</a>
</g>
</g>
<!-- Node1&#45;&gt;Node2 -->
<g id="edge1" class="edge">
<title>Node1&#45;&gt;Node2</title>
<path fill="none" stroke="midnightblue" d="M206.82,-478.23C174.15,-467.71 132.93,-454.45 102.25,-444.58"/>
<polygon fill="midnightblue" stroke="midnightblue" points="206.08,-481.66 216.67,-481.4 208.22,-475 206.08,-481.66"/>
</g>
<!-- Node3 -->
<g id="node3" class="node">
<title>Node3</title>
<g id="a_node3"><a xlink:href="PruningStaff_8h.html" target="_top" xlink:title="Concrete observer for pruning staff in greenhouse.">
<polygon fill="white" stroke="black" points="135,-414.5 135,-444.5 252,-444.5 252,-414.5 135,-414.5"/>
<text text-anchor="start" x="143" y="-432.5" font-family="Helvetica,sans-Serif" font-size="10.00">backend/greenhouse</text>
<text text-anchor="middle" x="193.5" y="-421.5" font-family="Helvetica,sans-Serif" font-size="10.00">/PruningStaff.h</text>
</a>
</g>
</g>
<!-- Node1&#45;&gt;Node3 -->
<g id="edge2" class="edge">
<title>Node1&#45;&gt;Node3</title>
<path fill="none" stroke="midnightblue" d="M238.66,-474.31C228.61,-464.56 216.96,-453.26 208.01,-444.58"/>
<polygon fill="midnightblue" stroke="midnightblue" points="236.35,-476.94 245.96,-481.4 241.22,-471.92 236.35,-476.94"/>
</g>
<!-- Node13 -->
<g id="node13" class="node">
<title>Node13</title>
<g id="a_node13"><a xlink:href="WaterStaff_8h.html" target="_top" xlink:title="Concrete observer for watering staff in greenhouse.">
<polygon fill="white" stroke="black" points="270,-414.5 270,-444.5 387,-444.5 387,-414.5 270,-414.5"/>
<text text-anchor="start" x="278" y="-432.5" font-family="Helvetica,sans-Serif" font-size="10.00">backend/greenhouse</text>
<text text-anchor="middle" x="328.5" y="-421.5" font-family="Helvetica,sans-Serif" font-size="10.00">/WaterStaff.h</text>
</a>
</g>
</g>
<!-- Node1&#45;&gt;Node13 -->
<g id="edge15" class="edge">
<title>Node1&#45;&gt;Node13</title>
<path fill="none" stroke="midnightblue" d="M282.67,-474.31C292.87,-464.56 304.69,-453.26 313.77,-444.58"/>
<polygon fill="midnightblue" stroke="midnightblue" points="280.07,-471.96 275.25,-481.4 284.9,-477.02 280.07,-471.96"/>
</g>
<!-- Node14 -->
<g id="node14" class="node">
<title>Node14</title>
<g id="a_node14"><a xlink:href="Plant_8cpp.html" target="_top" xlink:title="Implements the functionality defined in the Plant class.">
<polygon fill="white" stroke="black" points="405,-420 405,-439 538,-439 538,-420 405,-420"/>
<text text-anchor="middle" x="471.5" y="-427" font-family="Helvetica,sans-Serif" font-size="10.00">backend/plant/Plant.cpp</text>
</a>
</g>
</g>
<!-- Node1&#45;&gt;Node14 -->
<g id="edge16" class="edge">
<title>Node1&#45;&gt;Node14</title>
<path fill="none" stroke="midnightblue" d="M315.65,-478.51C356.83,-465.83 411.38,-449.02 443.81,-439.03"/>
<polygon fill="midnightblue" stroke="midnightblue" points="314.55,-475.19 306.02,-481.48 316.61,-481.88 314.55,-475.19"/>
</g>
<!-- Node4 -->
<g id="node4" class="node">
<title>Node4</title>
<g id="a_node4"><a xlink:href="Greenhouse_8h.html" target="_top" xlink:title="Main greenhouse class managing plant inventory and staff.">
<polygon fill="white" stroke="black" points="135,-347.5 135,-377.5 252,-377.5 252,-347.5 135,-347.5"/>
<text text-anchor="start" x="143" y="-365.5" font-family="Helvetica,sans-Serif" font-size="10.00">backend/greenhouse</text>
<text text-anchor="middle" x="193.5" y="-354.5" font-family="Helvetica,sans-Serif" font-size="10.00">/Greenhouse.h</text>
</a>
</g>
</g>
<!-- Node3&#45;&gt;Node4 -->
<g id="edge3" class="edge">
<title>Node3&#45;&gt;Node4</title>
<path fill="none" stroke="midnightblue" d="M193.5,-404.11C193.5,-395.15 193.5,-385.32 193.5,-377.58"/>
<polygon fill="midnightblue" stroke="midnightblue" points="190,-404.4 193.5,-414.4 197,-404.4 190,-404.4"/>
</g>
<!-- Node5 -->
<g id="node5" class="node">
<title>Node5</title>
<g id="a_node5"><a xlink:href="Manager_8h.html" target="_top" xlink:title="Manager class for coordinating plant sales and customer interactions.">
<polygon fill="white" stroke="black" points="135,-280.5 135,-310.5 252,-310.5 252,-280.5 135,-280.5"/>
<text text-anchor="start" x="143" y="-298.5" font-family="Helvetica,sans-Serif" font-size="10.00">backend/greenhouse</text>
<text text-anchor="middle" x="193.5" y="-287.5" font-family="Helvetica,sans-Serif" font-size="10.00">/Manager.h</text>
</a>
</g>
</g>
<!-- Node4&#45;&gt;Node5 -->
<g id="edge4" class="edge">
<title>Node4&#45;&gt;Node5</title>
<path fill="none" stroke="midnightblue" d="M193.5,-337.11C193.5,-328.15 193.5,-318.32 193.5,-310.58"/>
<polygon fill="midnightblue" stroke="midnightblue" points="190,-337.4 193.5,-347.4 197,-337.4 190,-337.4"/>
</g>
<!-- Node6 -->
<g id="node6" class="node">
<title>Node6</title>
<g id="a_node6"><a xlink:href="Game_8h.html" target="_top" xlink:title="Header file for Game class &#45; Main game facade.">
<polygon fill="white" stroke="black" points="129,-224.5 129,-243.5 258,-243.5 258,-224.5 129,-224.5"/>
<text text-anchor="middle" x="193.5" y="-231.5" font-family="Helvetica,sans-Serif" font-size="10.00">backend/game/Game.h</text>
</a>
</g>
</g>
<!-- Node5&#45;&gt;Node6 -->
<g id="edge5" class="edge">
<title>Node5&#45;&gt;Node6</title>
<path fill="none" stroke="midnightblue" d="M193.5,-270.29C193.5,-260.86 193.5,-250.65 193.5,-243.66"/>
<polygon fill="midnightblue" stroke="midnightblue" points="190,-270.4 193.5,-280.4 197,-270.4 190,-270.4"/>
</g>
<!-- Node7 -->
<g id="node7" class="node">
<title>Node7</title>
<g id="a_node7"><a xlink:href="API_8h.html" target="_top" xlink:title="Bootstrapper for public facing API.">
<polygon fill="white" stroke="black" points="61.5,-168.5 61.5,-187.5 165.5,-187.5 165.5,-168.5 61.5,-168.5"/>
<text text-anchor="middle" x="113.5" y="-175.5" font-family="Helvetica,sans-Serif" font-size="10.00">backend/API/API.h</text>
</a>
</g>
</g>
<!-- Node6&#45;&gt;Node7 -->
<g id="edge6" class="edge">
<title>Node6&#45;&gt;Node7</title>
<path fill="none" stroke="midnightblue" d="M172.2,-218.62C157.58,-208.76 138.67,-195.99 126.32,-187.65"/>
<polygon fill="midnightblue" stroke="midnightblue" points="170.4,-221.63 180.65,-224.32 174.32,-215.83 170.4,-221.63"/>
</g>
<!-- Node8 -->
<g id="node8" class="node">
<title>Node8</title>
<g id="a_node8"><a xlink:href="APIController_8h.html" target="_top" xlink:title="Define endpoints.">
<polygon fill="white" stroke="black" points="177,-56.5 177,-75.5 328,-75.5 328,-56.5 177,-56.5"/>
<text text-anchor="middle" x="252.5" y="-63.5" font-family="Helvetica,sans-Serif" font-size="10.00">backend/API/APIController.h</text>
</a>
</g>
</g>
<!-- Node6&#45;&gt;Node8 -->
<g id="edge9" class="edge">
<title>Node6&#45;&gt;Node8</title>
<path fill="none" stroke="midnightblue" d="M193.23,-214.17C193.59,-189.53 196.67,-145.53 212.5,-112 219.37,-97.44 232.45,-84.12 241.78,-75.81"/>
<polygon fill="midnightblue" stroke="midnightblue" points="189.73,-214.3 193.23,-224.3 196.73,-214.31 189.73,-214.3"/>
</g>
<!-- Node10 -->
<g id="node10" class="node">
<title>Node10</title>
<g id="a_node10"><a xlink:href="MenuOption_8h.html" target="_top" xlink:title="Base class for menu command options.">
<polygon fill="white" stroke="black" points="232,-168.5 232,-187.5 391,-187.5 391,-168.5 232,-168.5"/>
<text text-anchor="middle" x="311.5" y="-175.5" font-family="Helvetica,sans-Serif" font-size="10.00">backend/game/MenuOption.h</text>
</a>
</g>
</g>
<!-- Node6&#45;&gt;Node10 -->
<g id="edge10" class="edge">
<title>Node6&#45;&gt;Node10</title>
<path fill="none" stroke="midnightblue" d="M221.4,-220.23C243.47,-210.13 273.68,-196.31 292.89,-187.52"/>
<polygon fill="midnightblue" stroke="midnightblue" points="219.83,-217.1 212.2,-224.44 222.75,-223.46 219.83,-217.1"/>
</g>
<!-- Node7&#45;&gt;Node8 -->
<g id="edge7" class="edge">
<title>Node7&#45;&gt;Node8</title>
<path fill="none" stroke="midnightblue" d="M128.13,-160.65C140.94,-146.83 160.43,-126.96 179.5,-112 197.89,-97.57 221.18,-83.92 236.44,-75.51"/>
<polygon fill="midnightblue" stroke="midnightblue" points="125.24,-158.63 121.08,-168.37 130.41,-163.35 125.24,-158.63"/>
</g>
<!-- Node9 -->
<g id="node9" class="node">
<title>Node9</title>
<g id="a_node9"><a xlink:href="APIController_8cpp.html" target="_top" xlink:title="Still need to see what going to do here.">
<polygon fill="white" stroke="black" points="171.5,-0.5 171.5,-19.5 333.5,-19.5 333.5,-0.5 171.5,-0.5"/>
<text text-anchor="middle" x="252.5" y="-7.5" font-family="Helvetica,sans-Serif" font-size="10.00">backend/API/APIController.cpp</text>
</a>
</g>
</g>
<!-- Node8&#45;&gt;Node9 -->
<g id="edge8" class="edge">
<title>Node8&#45;&gt;Node9</title>
<path fill="none" stroke="midnightblue" d="M252.5,-45.8C252.5,-36.91 252.5,-26.78 252.5,-19.75"/>
<polygon fill="midnightblue" stroke="midnightblue" points="249,-46.08 252.5,-56.08 256,-46.08 249,-46.08"/>
</g>
<!-- Node11 -->
<g id="node11" class="node">
<title>Node11</title>
<g id="a_node11"><a xlink:href="ExitGameOption_8h.html" target="_top" xlink:title="Command for exiting the game with logging capabilities.">
<polygon fill="white" stroke="black" points="221.5,-112.5 221.5,-131.5 401.5,-131.5 401.5,-112.5 221.5,-112.5"/>
<text text-anchor="middle" x="311.5" y="-119.5" font-family="Helvetica,sans-Serif" font-size="10.00">backend/game/ExitGameOption.h</text>
</a>
</g>
</g>
<!-- Node10&#45;&gt;Node11 -->
<g id="edge11" class="edge">
<title>Node10&#45;&gt;Node11</title>
<path fill="none" stroke="midnightblue" d="M311.5,-157.8C311.5,-148.91 311.5,-138.78 311.5,-131.75"/>
<polygon fill="midnightblue" stroke="midnightblue" points="308,-158.08 311.5,-168.08 315,-158.08 308,-158.08"/>
</g>
<!-- Node12 -->
<g id="node12" class="node">
<title>Node12</title>
<g id="a_node12"><a xlink:href="NewGameOption_8h.html" target="_top" xlink:title="Header file for NewGameOption class.">
<polygon fill="white" stroke="black" points="420,-112.5 420,-131.5 603,-131.5 603,-112.5 420,-112.5"/>
<text text-anchor="middle" x="511.5" y="-119.5" font-family="Helvetica,sans-Serif" font-size="10.00">backend/game/NewGameOption.h</text>
</a>
</g>
</g>
<!-- Node10&#45;&gt;Node12 -->
<g id="edge13" class="edge">
<title>Node10&#45;&gt;Node12</title>
<path fill="none" stroke="midnightblue" d="M352.87,-165.83C390.64,-155.63 445.64,-140.78 479.96,-131.52"/>
<polygon fill="midnightblue" stroke="midnightblue" points="351.93,-162.46 343.19,-168.44 353.76,-169.22 351.93,-162.46"/>
</g>
<!-- Node11&#45;&gt;Node8 -->
<g id="edge12" class="edge">
<title>Node11&#45;&gt;Node8</title>
<path fill="none" stroke="midnightblue" d="M294.61,-105.54C284.09,-95.91 270.93,-83.87 262.15,-75.83"/>
<polygon fill="midnightblue" stroke="midnightblue" points="292.28,-108.15 302.02,-112.32 297.01,-102.99 292.28,-108.15"/>
</g>
<!-- Node12&#45;&gt;Node8 -->
<g id="edge14" class="edge">
<title>Node12&#45;&gt;Node8</title>
<path fill="none" stroke="midnightblue" d="M460.4,-110.35C411.45,-100.14 338.55,-84.94 293.35,-75.52"/>
<polygon fill="midnightblue" stroke="midnightblue" points="459.96,-113.83 470.46,-112.44 461.39,-106.98 459.96,-113.83"/>
</g>
</g>
</svg>
