<?xml version="1.0" encoding="UTF-8" standalone="no"?>
<!DOCTYPE svg PUBLIC "-//W3C//DTD SVG 1.1//EN"
 "http://www.w3.org/Graphics/SVG/1.1/DTD/svg11.dtd">
<!-- Generated by graphviz version 2.43.0 (0)
 -->
<!-- Title: backend/customer/GreenFingerCustomerBuilder.cpp Pages: 1 -->
<!--zoomable 610 -->
<svg id="main" version="1.1" xmlns="http://www.w3.org/2000/svg" xmlns:xlink="http://www.w3.org/1999/xlink" xml:space="preserve" onload="init(evt)">
<style type="text/css"><![CDATA[
.edge:hover path { stroke: red; }
.edge:hover polygon { stroke: red; fill: red; }
]]></style>
<script type="text/javascript"><![CDATA[
var edges = document.getElementsByTagName('g');
if (edges && edges.length) {
  for (var i=0;i<edges.length;i++) {
    if (edges[i].id.substr(0,4)=='edge') {
      edges[i].setAttribute('class','edge');
    }
  }
}
]]></script>
        <defs>
                <circle id="rim" cx="0" cy="0" r="7"/>
                <circle id="rim2" cx="0" cy="0" r="3.5"/>
                <g id="zoomPlus">
                        <use xlink:href="#rim" fill="#404040">
                                <set attributeName="fill" to="#808080" begin="zoomplus.mouseover" end="zoomplus.mouseout"/>
                        </use>
                        <path d="M-4,0h8M0,-4v8" fill="none" stroke="white" stroke-width="1.5" pointer-events="none"/>
                </g>
                <g id="zoomMin">
                        <use xlink:href="#rim" fill="#404040">
                                <set attributeName="fill" to="#808080" begin="zoomminus.mouseover" end="zoomminus.mouseout"/>
                        </use>
                        <path d="M-4,0h8" fill="none" stroke="white" stroke-width="1.5" pointer-events="none"/>
                </g>
                <g id="dirArrow">
                        <path fill="none" stroke="white" stroke-width="1.5" d="M0,-3.0v7 M-2.5,-0.5L0,-3.0L2.5,-0.5"/>
                </g>
               <g id="resetDef">
                       <use xlink:href="#rim2" fill="#404040">
                               <set attributeName="fill" to="#808080" begin="reset.mouseover" end="reset.mouseout"/>
                       </use>
               </g>
        </defs>

<script type="text/javascript">
var viewWidth = 1929;
var viewHeight = 610;
var sectionId = 'dynsection-0';
</script>
<script xlink:href="svgpan.js"/>
<svg id="graph" class="graph">
<g id="viewport">
<title>backend/customer/GreenFingerCustomerBuilder.cpp</title>
<polygon fill="white" stroke="transparent" points="-4,4 -4,-606 1925.48,-606 1925.48,4 -4,4"/>
<!-- Node1 -->
<g id="node1" class="node">
<title>Node1</title>
<g id="a_node1"><a xlink:title="Implements the GreenFingerCustomerBuilder class functionality.">
<polygon fill="#bfbfbf" stroke="black" points="590.48,-571.5 590.48,-601.5 758.48,-601.5 758.48,-571.5 590.48,-571.5"/>
<text text-anchor="start" x="598.48" y="-589.5" font-family="Helvetica,sans-Serif" font-size="10.00">backend/customer/GreenFinger</text>
<text text-anchor="middle" x="674.48" y="-578.5" font-family="Helvetica,sans-Serif" font-size="10.00">CustomerBuilder.cpp</text>
</a>
</g>
</g>
<!-- Node2 -->
<g id="node2" class="node">
<title>Node2</title>
<g id="a_node2"><a xlink:href="GreenFingerCustomerBuilder_8h.html" target="_top" xlink:title="Builder class for creating GreenFingerCustomer objects with randomized dialogues.">
<polygon fill="white" stroke="black" points="591.48,-515.5 591.48,-534.5 757.48,-534.5 757.48,-515.5 591.48,-515.5"/>
<text text-anchor="middle" x="674.48" y="-522.5" font-family="Helvetica,sans-Serif" font-size="10.00">GreenFingerCustomerBuilder.h</text>
</a>
</g>
</g>
<!-- Node1&#45;&gt;Node2 -->
<g id="edge1" class="edge">
<title>Node1&#45;&gt;Node2</title>
<path fill="none" stroke="midnightblue" d="M674.48,-571.4C674.48,-563.47 674.48,-553.46 674.48,-544.86"/>
<polygon fill="midnightblue" stroke="midnightblue" points="677.98,-544.66 674.48,-534.66 670.98,-544.66 677.98,-544.66"/>
</g>
<!-- Node3 -->
<g id="node3" class="node">
<title>Node3</title>
<g id="a_node3"><a xlink:href="GreenFingerCustomer_8h.html" target="_top" xlink:title="Concrete customer class representing expert plant enthusiasts.">
<polygon fill="white" stroke="black" points="677.98,-459.5 677.98,-478.5 808.98,-478.5 808.98,-459.5 677.98,-459.5"/>
<text text-anchor="middle" x="743.48" y="-466.5" font-family="Helvetica,sans-Serif" font-size="10.00">GreenFingerCustomer.h</text>
</a>
</g>
</g>
<!-- Node2&#45;&gt;Node3 -->
<g id="edge2" class="edge">
<title>Node2&#45;&gt;Node3</title>
<path fill="none" stroke="midnightblue" d="M685.56,-515.32C695.96,-507.18 711.74,-494.84 724.2,-485.09"/>
<polygon fill="midnightblue" stroke="midnightblue" points="726.47,-487.75 732.19,-478.83 722.16,-482.24 726.47,-487.75"/>
</g>
<!-- Node36 -->
<g id="node36" class="node">
<title>Node36</title>
<g id="a_node36"><a xlink:href="CustomerBuilder_8h.html" target="_top" xlink:title="Abstract builder interface for creating Customer objects.">
<polygon fill="white" stroke="black" points="552.98,-459.5 552.98,-478.5 659.98,-478.5 659.98,-459.5 552.98,-459.5"/>
<text text-anchor="middle" x="606.48" y="-466.5" font-family="Helvetica,sans-Serif" font-size="10.00">CustomerBuilder.h</text>
</a>
</g>
</g>
<!-- Node2&#45;&gt;Node36 -->
<g id="edge67" class="edge">
<title>Node2&#45;&gt;Node36</title>
<path fill="none" stroke="midnightblue" d="M663.55,-515.32C653.3,-507.18 637.76,-494.84 625.48,-485.09"/>
<polygon fill="midnightblue" stroke="midnightblue" points="627.61,-482.31 617.6,-478.83 623.26,-487.79 627.61,-482.31"/>
</g>
<!-- Node4 -->
<g id="node4" class="node">
<title>Node4</title>
<g id="a_node4"><a xlink:href="Customer_8h.html" target="_top" xlink:title="Abstract base class for all customer types in the plant shop game.">
<polygon fill="white" stroke="black" points="707.48,-403.5 707.48,-422.5 779.48,-422.5 779.48,-403.5 707.48,-403.5"/>
<text text-anchor="middle" x="743.48" y="-410.5" font-family="Helvetica,sans-Serif" font-size="10.00">Customer.h</text>
</a>
</g>
</g>
<!-- Node3&#45;&gt;Node4 -->
<g id="edge3" class="edge">
<title>Node3&#45;&gt;Node4</title>
<path fill="none" stroke="midnightblue" d="M743.48,-459.08C743.48,-452.01 743.48,-441.86 743.48,-432.99"/>
<polygon fill="midnightblue" stroke="midnightblue" points="746.98,-432.75 743.48,-422.75 739.98,-432.75 746.98,-432.75"/>
</g>
<!-- Node5 -->
<g id="node5" class="node">
<title>Node5</title>
<g id="a_node5"><a xlink:title=" ">
<polygon fill="white" stroke="#bfbfbf" points="337.98,-67.5 337.98,-86.5 384.98,-86.5 384.98,-67.5 337.98,-67.5"/>
<text text-anchor="middle" x="361.48" y="-74.5" font-family="Helvetica,sans-Serif" font-size="10.00">vector</text>
</a>
</g>
</g>
<!-- Node4&#45;&gt;Node5 -->
<g id="edge4" class="edge">
<title>Node4&#45;&gt;Node5</title>
<path fill="none" stroke="midnightblue" d="M707.41,-404.96C593.27,-382.58 247.48,-313.78 247.48,-302 247.48,-302 247.48,-302 247.48,-188 247.48,-141.11 298.03,-107.89 331.81,-90.93"/>
<polygon fill="midnightblue" stroke="midnightblue" points="333.34,-94.07 340.83,-86.58 330.3,-87.77 333.34,-94.07"/>
</g>
<!-- Node6 -->
<g id="node6" class="node">
<title>Node6</title>
<g id="a_node6"><a xlink:title=" ">
<polygon fill="white" stroke="#bfbfbf" points="686.48,-6 686.48,-25 730.48,-25 730.48,-6 686.48,-6"/>
<text text-anchor="middle" x="708.48" y="-13" font-family="Helvetica,sans-Serif" font-size="10.00">string</text>
</a>
</g>
</g>
<!-- Node4&#45;&gt;Node6 -->
<g id="edge5" class="edge">
<title>Node4&#45;&gt;Node6</title>
<path fill="none" stroke="midnightblue" d="M768.63,-403.49C786.11,-396.34 808.68,-384.46 822.48,-367 841.14,-343.38 841.48,-332.1 841.48,-302 841.48,-302 841.48,-302 841.48,-188 841.48,-140.44 795.62,-150.02 756.48,-123 731.51,-105.76 713.23,-113.51 698.48,-87 689.58,-71 694.32,-49.93 699.9,-35"/>
<polygon fill="midnightblue" stroke="midnightblue" points="703.29,-35.95 703.92,-25.38 696.84,-33.25 703.29,-35.95"/>
</g>
<!-- Node7 -->
<g id="node7" class="node">
<title>Node7</title>
<g id="a_node7"><a xlink:title=" ">
<polygon fill="white" stroke="#bfbfbf" points="1449.48,-6 1449.48,-25 1509.48,-25 1509.48,-6 1449.48,-6"/>
<text text-anchor="middle" x="1479.48" y="-13" font-family="Helvetica,sans-Serif" font-size="10.00">iostream</text>
</a>
</g>
</g>
<!-- Node4&#45;&gt;Node7 -->
<g id="edge6" class="edge">
<title>Node4&#45;&gt;Node7</title>
<path fill="none" stroke="midnightblue" d="M779.49,-410.91C935.55,-405.73 1545.48,-380.44 1545.48,-302 1545.48,-302 1545.48,-302 1545.48,-132 1545.48,-92.04 1515.32,-53.33 1495.78,-32.44"/>
<polygon fill="midnightblue" stroke="midnightblue" points="1498.13,-29.84 1488.65,-25.1 1493.11,-34.71 1498.13,-29.84"/>
</g>
<!-- Node8 -->
<g id="node8" class="node">
<title>Node8</title>
<g id="a_node8"><a xlink:title=" ">
<polygon fill="white" stroke="#bfbfbf" points="757.48,-347.5 757.48,-366.5 813.48,-366.5 813.48,-347.5 757.48,-347.5"/>
<text text-anchor="middle" x="785.48" y="-354.5" font-family="Helvetica,sans-Serif" font-size="10.00">sstream</text>
</a>
</g>
</g>
<!-- Node4&#45;&gt;Node8 -->
<g id="edge7" class="edge">
<title>Node4&#45;&gt;Node8</title>
<path fill="none" stroke="midnightblue" d="M750.41,-403.08C756.41,-395.38 765.23,-384.03 772.52,-374.65"/>
<polygon fill="midnightblue" stroke="midnightblue" points="775.29,-376.79 778.67,-366.75 769.77,-372.5 775.29,-376.79"/>
</g>
<!-- Node9 -->
<g id="node9" class="node">
<title>Node9</title>
<g id="a_node9"><a xlink:href="CustomerVisitor_8h_source.html" target="_top" xlink:title=" ">
<polygon fill="white" stroke="black" points="569.48,-347.5 569.48,-366.5 673.48,-366.5 673.48,-347.5 569.48,-347.5"/>
<text text-anchor="middle" x="621.48" y="-354.5" font-family="Helvetica,sans-Serif" font-size="10.00">CustomerVisitor.h</text>
</a>
</g>
</g>
<!-- Node4&#45;&gt;Node9 -->
<g id="edge8" class="edge">
<title>Node4&#45;&gt;Node9</title>
<path fill="none" stroke="midnightblue" d="M724.15,-403.44C704.16,-394.6 672.73,-380.69 649.91,-370.59"/>
<polygon fill="midnightblue" stroke="midnightblue" points="651.28,-367.36 640.72,-366.52 648.44,-373.76 651.28,-367.36"/>
</g>
<!-- Node14 -->
<g id="node14" class="node">
<title>Node14</title>
<g id="a_node14"><a xlink:href="Plant_8h.html" target="_top" xlink:title="Defines the abstract base class for all Plant objects used in the system.">
<polygon fill="white" stroke="black" points="1013.48,-123.5 1013.48,-142.5 1063.48,-142.5 1063.48,-123.5 1013.48,-123.5"/>
<text text-anchor="middle" x="1038.48" y="-130.5" font-family="Helvetica,sans-Serif" font-size="10.00">Plant.h</text>
</a>
</g>
</g>
<!-- Node4&#45;&gt;Node14 -->
<g id="edge65" class="edge">
<title>Node4&#45;&gt;Node14</title>
<path fill="none" stroke="midnightblue" d="M779.63,-409.73C841.12,-403.71 959.48,-381.75 959.48,-302 959.48,-302 959.48,-302 959.48,-244 959.48,-203.79 994.72,-168.22 1018.13,-149.03"/>
<polygon fill="midnightblue" stroke="midnightblue" points="1020.45,-151.66 1026.13,-142.72 1016.11,-146.17 1020.45,-151.66"/>
</g>
<!-- Node19 -->
<g id="node19" class="node">
<title>Node19</title>
<g id="a_node19"><a xlink:title=" ">
<polygon fill="white" stroke="#bfbfbf" points="541.48,-67.5 541.48,-86.5 651.48,-86.5 651.48,-67.5 541.48,-67.5"/>
<text text-anchor="middle" x="596.48" y="-74.5" font-family="Helvetica,sans-Serif" font-size="10.00">nlohmann/json.hpp</text>
</a>
</g>
</g>
<!-- Node4&#45;&gt;Node19 -->
<g id="edge66" class="edge">
<title>Node4&#45;&gt;Node19</title>
<path fill="none" stroke="midnightblue" d="M743.01,-403.38C742.57,-390.73 742.7,-366.54 748.48,-347 762.98,-297.99 803.48,-297.11 803.48,-246 803.48,-246 803.48,-246 803.48,-188 803.48,-150.2 694.49,-109.34 634.68,-89.76"/>
<polygon fill="midnightblue" stroke="midnightblue" points="635.42,-86.32 624.82,-86.58 633.27,-92.99 635.42,-86.32"/>
</g>
<!-- Node9&#45;&gt;Node5 -->
<g id="edge9" class="edge">
<title>Node9&#45;&gt;Node5</title>
<path fill="none" stroke="midnightblue" d="M569.47,-347.58C487.18,-333.01 333.29,-300.25 304.48,-255 270.73,-202.01 321.23,-127.3 347.39,-94.51"/>
<polygon fill="midnightblue" stroke="midnightblue" points="350.11,-96.72 353.75,-86.77 344.7,-92.28 350.11,-96.72"/>
</g>
<!-- Node10 -->
<g id="node10" class="node">
<title>Node10</title>
<g id="a_node10"><a xlink:title=" ">
<polygon fill="white" stroke="#bfbfbf" points="1857.48,-67.5 1857.48,-86.5 1921.48,-86.5 1921.48,-67.5 1857.48,-67.5"/>
<text text-anchor="middle" x="1889.48" y="-74.5" font-family="Helvetica,sans-Serif" font-size="10.00">algorithm</text>
</a>
</g>
</g>
<!-- Node9&#45;&gt;Node10 -->
<g id="edge10" class="edge">
<title>Node9&#45;&gt;Node10</title>
<path fill="none" stroke="midnightblue" d="M673.59,-352.29C863.51,-338.42 1507.48,-288.29 1507.48,-246 1507.48,-246 1507.48,-246 1507.48,-188 1507.48,-152.96 1747.83,-104.3 1847.23,-85.67"/>
<polygon fill="midnightblue" stroke="midnightblue" points="1848.05,-89.08 1857.24,-83.81 1846.76,-82.2 1848.05,-89.08"/>
</g>
<!-- Node11 -->
<g id="node11" class="node">
<title>Node11</title>
<g id="a_node11"><a xlink:title=" ">
<polygon fill="white" stroke="#bfbfbf" points="594.98,-291.5 594.98,-310.5 647.98,-310.5 647.98,-291.5 594.98,-291.5"/>
<text text-anchor="middle" x="621.48" y="-298.5" font-family="Helvetica,sans-Serif" font-size="10.00">cstddef</text>
</a>
</g>
</g>
<!-- Node9&#45;&gt;Node11 -->
<g id="edge11" class="edge">
<title>Node9&#45;&gt;Node11</title>
<path fill="none" stroke="midnightblue" d="M621.48,-347.08C621.48,-340.01 621.48,-329.86 621.48,-320.99"/>
<polygon fill="midnightblue" stroke="midnightblue" points="624.98,-320.75 621.48,-310.75 617.98,-320.75 624.98,-320.75"/>
</g>
<!-- Node12 -->
<g id="node12" class="node">
<title>Node12</title>
<g id="a_node12"><a xlink:href="SalesFloor_8h.html" target="_top" xlink:title=" ">
<polygon fill="white" stroke="black" points="433.48,-291.5 433.48,-310.5 509.48,-310.5 509.48,-291.5 433.48,-291.5"/>
<text text-anchor="middle" x="471.48" y="-298.5" font-family="Helvetica,sans-Serif" font-size="10.00">SalesFloor.h</text>
</a>
</g>
</g>
<!-- Node9&#45;&gt;Node12 -->
<g id="edge12" class="edge">
<title>Node9&#45;&gt;Node12</title>
<path fill="none" stroke="midnightblue" d="M597.71,-347.44C572.58,-338.4 532.77,-324.06 504.58,-313.92"/>
<polygon fill="midnightblue" stroke="midnightblue" points="505.73,-310.61 495.13,-310.52 503.36,-317.2 505.73,-310.61"/>
</g>
<!-- Node9&#45;&gt;Node14 -->
<g id="edge64" class="edge">
<title>Node9&#45;&gt;Node14</title>
<path fill="none" stroke="midnightblue" d="M636.52,-347.44C682.42,-321.38 824.94,-241.04 945.48,-179 967.34,-167.75 992.46,-155.64 1011.08,-146.82"/>
<polygon fill="midnightblue" stroke="midnightblue" points="1012.62,-149.96 1020.17,-142.53 1009.63,-143.63 1012.62,-149.96"/>
</g>
<!-- Node12&#45;&gt;Node5 -->
<g id="edge61" class="edge">
<title>Node12&#45;&gt;Node5</title>
<path fill="none" stroke="midnightblue" d="M464.04,-291.18C445.33,-268.42 396.29,-205.1 375.48,-143 370.37,-127.76 366.68,-109.87 364.37,-96.73"/>
<polygon fill="midnightblue" stroke="midnightblue" points="367.78,-95.87 362.7,-86.58 360.87,-97.01 367.78,-95.87"/>
</g>
<!-- Node13 -->
<g id="node13" class="node">
<title>Node13</title>
<g id="a_node13"><a xlink:href="Inventory_8h_source.html" target="_top" xlink:title=" ">
<polygon fill="white" stroke="black" points="427.98,-179.5 427.98,-198.5 498.98,-198.5 498.98,-179.5 427.98,-179.5"/>
<text text-anchor="middle" x="463.48" y="-186.5" font-family="Helvetica,sans-Serif" font-size="10.00">Inventory.h</text>
</a>
</g>
</g>
<!-- Node12&#45;&gt;Node13 -->
<g id="edge13" class="edge">
<title>Node12&#45;&gt;Node13</title>
<path fill="none" stroke="midnightblue" d="M470.85,-291.37C469.56,-273.62 466.58,-232.67 464.83,-208.6"/>
<polygon fill="midnightblue" stroke="midnightblue" points="468.32,-208.31 464.1,-198.59 461.34,-208.82 468.32,-208.31"/>
</g>
<!-- Node27 -->
<g id="node27" class="node">
<title>Node27</title>
<g id="a_node27"><a xlink:title=" ">
<polygon fill="white" stroke="#bfbfbf" points="45.98,-6 45.98,-25 110.98,-25 110.98,-6 45.98,-6"/>
<text text-anchor="middle" x="78.48" y="-13" font-family="Helvetica,sans-Serif" font-size="10.00">stdexcept</text>
</a>
</g>
</g>
<!-- Node12&#45;&gt;Node27 -->
<g id="edge63" class="edge">
<title>Node12&#45;&gt;Node27</title>
<path fill="none" stroke="midnightblue" d="M462.39,-291.42C446.45,-276.93 411.74,-247.95 376.48,-235 303.91,-208.36 91.27,-246.75 30.48,-199 -15.68,-162.76 -2.82,-117.26 27.48,-67 35.6,-53.53 48.11,-41.06 58.71,-31.89"/>
<polygon fill="midnightblue" stroke="midnightblue" points="61.22,-34.35 66.68,-25.28 56.75,-28.97 61.22,-34.35"/>
</g>
<!-- Node32 -->
<g id="node32" class="node">
<title>Node32</title>
<g id="a_node32"><a xlink:href="TransactionHistory_8h.html" target="_top" xlink:title=" ">
<polygon fill="white" stroke="black" points="499.98,-235.5 499.98,-254.5 614.98,-254.5 614.98,-235.5 499.98,-235.5"/>
<text text-anchor="middle" x="557.48" y="-242.5" font-family="Helvetica,sans-Serif" font-size="10.00">TransactionHistory.h</text>
</a>
</g>
</g>
<!-- Node12&#45;&gt;Node32 -->
<g id="edge49" class="edge">
<title>Node12&#45;&gt;Node32</title>
<path fill="none" stroke="midnightblue" d="M485.29,-291.32C498.71,-282.9 519.3,-269.97 535.06,-260.07"/>
<polygon fill="midnightblue" stroke="midnightblue" points="537.09,-262.94 543.69,-254.65 533.36,-257.01 537.09,-262.94"/>
</g>
<!-- Node34 -->
<g id="node34" class="node">
<title>Node34</title>
<g id="a_node34"><a xlink:href="Ledger_8h_source.html" target="_top" xlink:title=" ">
<polygon fill="white" stroke="black" points="679.48,-179.5 679.48,-198.5 737.48,-198.5 737.48,-179.5 679.48,-179.5"/>
<text text-anchor="middle" x="708.48" y="-186.5" font-family="Helvetica,sans-Serif" font-size="10.00">Ledger.h</text>
</a>
</g>
</g>
<!-- Node12&#45;&gt;Node34 -->
<g id="edge60" class="edge">
<title>Node12&#45;&gt;Node34</title>
<path fill="none" stroke="midnightblue" d="M509.78,-292.73C541.43,-285.78 586.92,-273.58 623.48,-255 649.42,-241.81 675.45,-220.41 691.74,-205.8"/>
<polygon fill="midnightblue" stroke="midnightblue" points="694.31,-208.19 699.32,-198.86 689.58,-203.03 694.31,-208.19"/>
</g>
<!-- Node35 -->
<g id="node35" class="node">
<title>Node35</title>
<g id="a_node35"><a xlink:title=" ">
<polygon fill="white" stroke="#bfbfbf" points="313.48,-235.5 313.48,-254.5 367.48,-254.5 367.48,-235.5 313.48,-235.5"/>
<text text-anchor="middle" x="340.48" y="-242.5" font-family="Helvetica,sans-Serif" font-size="10.00">random</text>
</a>
</g>
</g>
<!-- Node12&#45;&gt;Node35 -->
<g id="edge62" class="edge">
<title>Node12&#45;&gt;Node35</title>
<path fill="none" stroke="midnightblue" d="M450.72,-291.44C429.16,-282.56 395.21,-268.56 370.68,-258.45"/>
<polygon fill="midnightblue" stroke="midnightblue" points="371.72,-255.09 361.14,-254.52 369.05,-261.56 371.72,-255.09"/>
</g>
<!-- Node13&#45;&gt;Node5 -->
<g id="edge47" class="edge">
<title>Node13&#45;&gt;Node5</title>
<path fill="none" stroke="midnightblue" d="M457.52,-179.14C448.64,-166.2 431.07,-141.64 413.48,-123 403.36,-112.28 390.91,-101.44 380.73,-93.08"/>
<polygon fill="midnightblue" stroke="midnightblue" points="382.79,-90.25 372.81,-86.7 378.4,-95.7 382.79,-90.25"/>
</g>
<!-- Node13&#45;&gt;Node6 -->
<g id="edge48" class="edge">
<title>Node13&#45;&gt;Node6</title>
<path fill="none" stroke="midnightblue" d="M465.03,-179.47C469.51,-157.34 484.58,-97.69 521.48,-67 566.1,-29.89 635.54,-19.86 676.06,-17.27"/>
<polygon fill="midnightblue" stroke="midnightblue" points="676.39,-20.76 686.19,-16.74 676.02,-13.77 676.39,-20.76"/>
</g>
<!-- Node13&#45;&gt;Node14 -->
<g id="edge14" class="edge">
<title>Node13&#45;&gt;Node14</title>
<path fill="none" stroke="midnightblue" d="M499.01,-184.01C513.69,-182.4 530.9,-180.56 546.48,-179 717.6,-161.9 922.47,-143.98 1003.26,-137.02"/>
<polygon fill="midnightblue" stroke="midnightblue" points="1003.71,-140.49 1013.37,-136.15 1003.11,-133.52 1003.71,-140.49"/>
</g>
<!-- Node14&#45;&gt;Node5 -->
<g id="edge17" class="edge">
<title>Node14&#45;&gt;Node5</title>
<path fill="none" stroke="midnightblue" d="M1013.25,-131.81C926.83,-130.82 634.91,-124.72 397.48,-87 396.59,-86.86 395.68,-86.71 394.78,-86.54"/>
<polygon fill="midnightblue" stroke="midnightblue" points="395.48,-83.11 384.98,-84.5 394.06,-89.97 395.48,-83.11"/>
</g>
<!-- Node14&#45;&gt;Node6 -->
<g id="edge15" class="edge">
<title>Node14&#45;&gt;Node6</title>
<path fill="none" stroke="midnightblue" d="M1013.46,-130.28C970.75,-126.63 881.68,-115.94 812.48,-87 779.35,-73.14 745.81,-47.95 726.1,-31.73"/>
<polygon fill="midnightblue" stroke="midnightblue" points="728.21,-28.94 718.3,-25.19 723.71,-34.3 728.21,-28.94"/>
</g>
<!-- Node14&#45;&gt;Node7 -->
<g id="edge19" class="edge">
<title>Node14&#45;&gt;Node7</title>
<path fill="none" stroke="midnightblue" d="M1063.7,-132.51C1143.53,-133.62 1389.08,-133.16 1450.48,-87 1466.81,-74.72 1473.99,-51.62 1477.12,-35.2"/>
<polygon fill="midnightblue" stroke="midnightblue" points="1480.6,-35.55 1478.7,-25.13 1473.69,-34.47 1480.6,-35.55"/>
</g>
<!-- Node14&#45;&gt;Node10 -->
<g id="edge18" class="edge">
<title>Node14&#45;&gt;Node10</title>
<path fill="none" stroke="midnightblue" d="M1063.63,-131.85C1163.02,-130.99 1537.92,-125.25 1843.48,-87 1844.75,-86.84 1846.04,-86.67 1847.34,-86.48"/>
<polygon fill="midnightblue" stroke="midnightblue" points="1848.08,-89.91 1857.4,-84.86 1846.97,-83 1848.08,-89.91"/>
</g>
<!-- Node15 -->
<g id="node15" class="node">
<title>Node15</title>
<g id="a_node15"><a xlink:title=" ">
<polygon fill="white" stroke="#bfbfbf" points="406.48,-67.5 406.48,-86.5 444.48,-86.5 444.48,-67.5 406.48,-67.5"/>
<text text-anchor="middle" x="425.48" y="-74.5" font-family="Helvetica,sans-Serif" font-size="10.00">map</text>
</a>
</g>
</g>
<!-- Node14&#45;&gt;Node15 -->
<g id="edge16" class="edge">
<title>Node14&#45;&gt;Node15</title>
<path fill="none" stroke="midnightblue" d="M1013.3,-129.78C915.28,-121.15 559.34,-89.79 454.64,-80.57"/>
<polygon fill="midnightblue" stroke="midnightblue" points="454.76,-77.07 444.49,-79.67 454.14,-84.04 454.76,-77.07"/>
</g>
<!-- Node16 -->
<g id="node16" class="node">
<title>Node16</title>
<g id="a_node16"><a xlink:title=" ">
<polygon fill="white" stroke="#bfbfbf" points="821.98,-67.5 821.98,-86.5 934.98,-86.5 934.98,-67.5 821.98,-67.5"/>
<text text-anchor="middle" x="878.48" y="-74.5" font-family="Helvetica,sans-Serif" font-size="10.00">boost/uuid/uuid.hpp</text>
</a>
</g>
</g>
<!-- Node14&#45;&gt;Node16 -->
<g id="edge20" class="edge">
<title>Node14&#45;&gt;Node16</title>
<path fill="none" stroke="midnightblue" d="M1013.12,-123.44C986.21,-114.36 943.48,-99.94 913.39,-89.78"/>
<polygon fill="midnightblue" stroke="midnightblue" points="914.3,-86.4 903.71,-86.52 912.07,-93.03 914.3,-86.4"/>
</g>
<!-- Node17 -->
<g id="node17" class="node">
<title>Node17</title>
<g id="a_node17"><a xlink:title=" ">
<polygon fill="white" stroke="#bfbfbf" points="953.48,-67.5 953.48,-86.5 1123.48,-86.5 1123.48,-67.5 953.48,-67.5"/>
<text text-anchor="middle" x="1038.48" y="-74.5" font-family="Helvetica,sans-Serif" font-size="10.00">boost/uuid/uuid_generators.hpp</text>
</a>
</g>
</g>
<!-- Node14&#45;&gt;Node17 -->
<g id="edge21" class="edge">
<title>Node14&#45;&gt;Node17</title>
<path fill="none" stroke="midnightblue" d="M1038.48,-123.08C1038.48,-116.01 1038.48,-105.86 1038.48,-96.99"/>
<polygon fill="midnightblue" stroke="midnightblue" points="1041.98,-96.75 1038.48,-86.75 1034.98,-96.75 1041.98,-96.75"/>
</g>
<!-- Node18 -->
<g id="node18" class="node">
<title>Node18</title>
<g id="a_node18"><a xlink:title=" ">
<polygon fill="white" stroke="#bfbfbf" points="1141.98,-67.5 1141.98,-86.5 1268.98,-86.5 1268.98,-67.5 1141.98,-67.5"/>
<text text-anchor="middle" x="1205.48" y="-74.5" font-family="Helvetica,sans-Serif" font-size="10.00">boost/uuid/uuid_io.hpp</text>
</a>
</g>
</g>
<!-- Node14&#45;&gt;Node18 -->
<g id="edge22" class="edge">
<title>Node14&#45;&gt;Node18</title>
<path fill="none" stroke="midnightblue" d="M1063.48,-123.92C1091.48,-114.86 1137.11,-100.11 1169.07,-89.77"/>
<polygon fill="midnightblue" stroke="midnightblue" points="1170.48,-92.99 1178.92,-86.59 1168.33,-86.33 1170.48,-92.99"/>
</g>
<!-- Node14&#45;&gt;Node19 -->
<g id="edge23" class="edge">
<title>Node14&#45;&gt;Node19</title>
<path fill="none" stroke="midnightblue" d="M1013.45,-128.94C946.35,-120.75 760.86,-98.08 661.42,-85.93"/>
<polygon fill="midnightblue" stroke="midnightblue" points="661.84,-82.46 651.49,-84.72 660.99,-89.41 661.84,-82.46"/>
</g>
<!-- Node20 -->
<g id="node20" class="node">
<title>Node20</title>
<g id="a_node20"><a xlink:title=" ">
<polygon fill="white" stroke="#bfbfbf" points="1719.48,-6 1719.48,-25 1767.48,-25 1767.48,-6 1719.48,-6"/>
<text text-anchor="middle" x="1743.48" y="-13" font-family="Helvetica,sans-Serif" font-size="10.00">thread</text>
</a>
</g>
</g>
<!-- Node14&#45;&gt;Node20 -->
<g id="edge24" class="edge">
<title>Node14&#45;&gt;Node20</title>
<path fill="none" stroke="midnightblue" d="M1063.48,-131.27C1185.04,-127.6 1709.52,-110.45 1734.48,-87 1748.21,-74.09 1748.76,-51.49 1746.97,-35.36"/>
<polygon fill="midnightblue" stroke="midnightblue" points="1750.42,-34.79 1745.49,-25.42 1743.5,-35.82 1750.42,-34.79"/>
</g>
<!-- Node21 -->
<g id="node21" class="node">
<title>Node21</title>
<g id="a_node21"><a xlink:title=" ">
<polygon fill="white" stroke="#bfbfbf" points="1785.48,-6 1785.48,-25 1835.48,-25 1835.48,-6 1785.48,-6"/>
<text text-anchor="middle" x="1810.48" y="-13" font-family="Helvetica,sans-Serif" font-size="10.00">atomic</text>
</a>
</g>
</g>
<!-- Node14&#45;&gt;Node21 -->
<g id="edge25" class="edge">
<title>Node14&#45;&gt;Node21</title>
<path fill="none" stroke="midnightblue" d="M1063.85,-131.61C1183.85,-129.58 1691.18,-119.18 1753.48,-87 1775.8,-75.47 1792.45,-50.89 1801.82,-34.04"/>
<polygon fill="midnightblue" stroke="midnightblue" points="1804.93,-35.64 1806.48,-25.16 1798.74,-32.38 1804.93,-35.64"/>
</g>
<!-- Node22 -->
<g id="node22" class="node">
<title>Node22</title>
<g id="a_node22"><a xlink:href="GreenSock_8h.html" target="_top" xlink:title=" ">
<polygon fill="white" stroke="black" points="1363.48,-67.5 1363.48,-86.5 1441.48,-86.5 1441.48,-67.5 1363.48,-67.5"/>
<text text-anchor="middle" x="1402.48" y="-74.5" font-family="Helvetica,sans-Serif" font-size="10.00">GreenSock.h</text>
</a>
</g>
</g>
<!-- Node14&#45;&gt;Node22 -->
<g id="edge26" class="edge">
<title>Node14&#45;&gt;Node22</title>
<path fill="none" stroke="midnightblue" d="M1063.52,-128.81C1115.53,-122.12 1239.22,-105.77 1353.5,-87.1"/>
<polygon fill="midnightblue" stroke="midnightblue" points="1354.17,-90.54 1363.47,-85.46 1353.03,-83.63 1354.17,-90.54"/>
</g>
<!-- Node25 -->
<g id="node25" class="node">
<title>Node25</title>
<g id="a_node25"><a xlink:title=" ">
<polygon fill="white" stroke="#bfbfbf" points="1527.48,-6 1527.48,-25 1575.48,-25 1575.48,-6 1527.48,-6"/>
<text text-anchor="middle" x="1551.48" y="-13" font-family="Helvetica,sans-Serif" font-size="10.00">mutex</text>
</a>
</g>
</g>
<!-- Node14&#45;&gt;Node25 -->
<g id="edge46" class="edge">
<title>Node14&#45;&gt;Node25</title>
<path fill="none" stroke="midnightblue" d="M1063.64,-131.38C1144.6,-129.09 1397.41,-119.45 1471.48,-87 1498.91,-74.98 1523.62,-49.99 1538.1,-33.23"/>
<polygon fill="midnightblue" stroke="midnightblue" points="1540.97,-35.25 1544.69,-25.33 1535.6,-30.76 1540.97,-35.25"/>
</g>
<!-- Node26 -->
<g id="node26" class="node">
<title>Node26</title>
<g id="a_node26"><a xlink:href="Logger_8h.html" target="_top" xlink:title="Header for Strategy Logger.">
<polygon fill="white" stroke="black" points="707.48,-67.5 707.48,-86.5 765.48,-86.5 765.48,-67.5 707.48,-67.5"/>
<text text-anchor="middle" x="736.48" y="-74.5" font-family="Helvetica,sans-Serif" font-size="10.00">Logger.h</text>
</a>
</g>
</g>
<!-- Node14&#45;&gt;Node26 -->
<g id="edge32" class="edge">
<title>Node14&#45;&gt;Node26</title>
<path fill="none" stroke="midnightblue" d="M1013.42,-127.94C967.13,-120.37 865.09,-103.39 779.48,-87 778.21,-86.76 776.93,-86.51 775.63,-86.25"/>
<polygon fill="midnightblue" stroke="midnightblue" points="776.09,-82.78 765.59,-84.24 774.71,-89.64 776.09,-82.78"/>
</g>
<!-- Node28 -->
<g id="node28" class="node">
<title>Node28</title>
<g id="a_node28"><a xlink:href="ThreadSafeQueue_8h_source.html" target="_top" xlink:title=" ">
<polygon fill="white" stroke="black" points="1611.98,-67.5 1611.98,-86.5 1724.98,-86.5 1724.98,-67.5 1611.98,-67.5"/>
<text text-anchor="middle" x="1668.48" y="-74.5" font-family="Helvetica,sans-Serif" font-size="10.00">ThreadSafeQueue.h</text>
</a>
</g>
</g>
<!-- Node14&#45;&gt;Node28 -->
<g id="edge36" class="edge">
<title>Node14&#45;&gt;Node28</title>
<path fill="none" stroke="midnightblue" d="M1063.59,-130.39C1142.37,-125.25 1391.68,-108.32 1597.48,-87 1598.94,-86.85 1600.43,-86.69 1601.92,-86.53"/>
<polygon fill="midnightblue" stroke="midnightblue" points="1602.38,-90 1611.92,-85.41 1601.59,-83.04 1602.38,-90"/>
</g>
<!-- Node29 -->
<g id="node29" class="node">
<title>Node29</title>
<g id="a_node29"><a xlink:title=" ">
<polygon fill="white" stroke="#bfbfbf" points="1853.98,-6 1853.98,-25 1900.98,-25 1900.98,-6 1853.98,-6"/>
<text text-anchor="middle" x="1877.48" y="-13" font-family="Helvetica,sans-Serif" font-size="10.00">queue</text>
</a>
</g>
</g>
<!-- Node14&#45;&gt;Node29 -->
<g id="edge44" class="edge">
<title>Node14&#45;&gt;Node29</title>
<path fill="none" stroke="midnightblue" d="M1063.79,-131.3C1185.89,-127.8 1710.88,-111.43 1779.48,-87 1812.18,-75.35 1843.59,-49.27 1861.69,-32.3"/>
<polygon fill="midnightblue" stroke="midnightblue" points="1864.25,-34.69 1869.02,-25.23 1859.39,-29.65 1864.25,-34.69"/>
</g>
<!-- Node31 -->
<g id="node31" class="node">
<title>Node31</title>
<g id="a_node31"><a xlink:title=" ">
<polygon fill="white" stroke="#bfbfbf" points="1287.48,-67.5 1287.48,-86.5 1345.48,-86.5 1345.48,-67.5 1287.48,-67.5"/>
<text text-anchor="middle" x="1316.48" y="-74.5" font-family="Helvetica,sans-Serif" font-size="10.00">memory</text>
</a>
</g>
</g>
<!-- Node14&#45;&gt;Node31 -->
<g id="edge45" class="edge">
<title>Node14&#45;&gt;Node31</title>
<path fill="none" stroke="midnightblue" d="M1063.78,-127.66C1105.95,-120.34 1193.51,-104.78 1277.5,-87.13"/>
<polygon fill="midnightblue" stroke="midnightblue" points="1278.4,-90.51 1287.46,-85.02 1276.95,-83.67 1278.4,-90.51"/>
</g>
<!-- Node22&#45;&gt;Node6 -->
<g id="edge30" class="edge">
<title>Node22&#45;&gt;Node6</title>
<path fill="none" stroke="midnightblue" d="M1363.24,-68.29C1360.28,-67.82 1357.33,-67.38 1354.48,-67 1120.11,-35.96 835.2,-21.85 740.67,-17.79"/>
<polygon fill="midnightblue" stroke="midnightblue" points="740.74,-14.29 730.6,-17.37 740.44,-21.29 740.74,-14.29"/>
</g>
<!-- Node22&#45;&gt;Node7 -->
<g id="edge29" class="edge">
<title>Node22&#45;&gt;Node7</title>
<path fill="none" stroke="midnightblue" d="M1413.51,-67.48C1425.74,-58.02 1445.7,-42.6 1460.47,-31.19"/>
<polygon fill="midnightblue" stroke="midnightblue" points="1462.69,-33.89 1468.46,-25.01 1458.41,-28.35 1462.69,-33.89"/>
</g>
<!-- Node23 -->
<g id="node23" class="node">
<title>Node23</title>
<g id="a_node23"><a xlink:title=" ">
<polygon fill="white" stroke="#bfbfbf" points="1165.98,-0.5 1165.98,-30.5 1278.98,-30.5 1278.98,-0.5 1165.98,-0.5"/>
<text text-anchor="start" x="1173.98" y="-18.5" font-family="Helvetica,sans-Serif" font-size="10.00">websocketpp/config</text>
<text text-anchor="middle" x="1222.48" y="-7.5" font-family="Helvetica,sans-Serif" font-size="10.00">/asio_no_tls.hpp</text>
</a>
</g>
</g>
<!-- Node22&#45;&gt;Node23 -->
<g id="edge27" class="edge">
<title>Node22&#45;&gt;Node23</title>
<path fill="none" stroke="midnightblue" d="M1376.69,-67.48C1350.14,-58.7 1308.05,-44.79 1274.55,-33.71"/>
<polygon fill="midnightblue" stroke="midnightblue" points="1275.49,-30.34 1264.9,-30.52 1273.29,-36.98 1275.49,-30.34"/>
</g>
<!-- Node24 -->
<g id="node24" class="node">
<title>Node24</title>
<g id="a_node24"><a xlink:title=" ">
<polygon fill="white" stroke="#bfbfbf" points="1297.48,-6 1297.48,-25 1431.48,-25 1431.48,-6 1297.48,-6"/>
<text text-anchor="middle" x="1364.48" y="-13" font-family="Helvetica,sans-Serif" font-size="10.00">websocketpp/server.hpp</text>
</a>
</g>
</g>
<!-- Node22&#45;&gt;Node24 -->
<g id="edge28" class="edge">
<title>Node22&#45;&gt;Node24</title>
<path fill="none" stroke="midnightblue" d="M1397.03,-67.48C1391.39,-58.64 1382.42,-44.59 1375.32,-33.48"/>
<polygon fill="midnightblue" stroke="midnightblue" points="1378.24,-31.55 1369.91,-25.01 1372.34,-35.32 1378.24,-31.55"/>
</g>
<!-- Node22&#45;&gt;Node25 -->
<g id="edge31" class="edge">
<title>Node22&#45;&gt;Node25</title>
<path fill="none" stroke="midnightblue" d="M1425.27,-67.5C1448.74,-58.66 1486.34,-44.29 1518.48,-31 1519.89,-30.42 1521.33,-29.81 1522.78,-29.2"/>
<polygon fill="midnightblue" stroke="midnightblue" points="1524.54,-32.25 1532.34,-25.08 1521.77,-25.82 1524.54,-32.25"/>
</g>
<!-- Node26&#45;&gt;Node6 -->
<g id="edge33" class="edge">
<title>Node26&#45;&gt;Node6</title>
<path fill="none" stroke="midnightblue" d="M732.46,-67.48C728.39,-58.82 721.96,-45.15 716.78,-34.15"/>
<polygon fill="midnightblue" stroke="midnightblue" points="719.91,-32.57 712.48,-25.01 713.57,-35.55 719.91,-32.57"/>
</g>
<!-- Node26&#45;&gt;Node7 -->
<g id="edge34" class="edge">
<title>Node26&#45;&gt;Node7</title>
<path fill="none" stroke="midnightblue" d="M765.67,-72.12C779.79,-70.36 796.99,-68.36 812.48,-67 1090.97,-42.55 1166.85,-88.35 1440.48,-31 1443.73,-30.32 1447.07,-29.41 1450.37,-28.39"/>
<polygon fill="midnightblue" stroke="midnightblue" points="1451.68,-31.64 1459.97,-25.05 1449.38,-25.03 1451.68,-31.64"/>
</g>
<!-- Node26&#45;&gt;Node27 -->
<g id="edge35" class="edge">
<title>Node26&#45;&gt;Node27</title>
<path fill="none" stroke="midnightblue" d="M707.27,-72.32C693.14,-70.6 675.94,-68.59 660.48,-67 458.93,-46.33 217.55,-27.17 121.22,-19.75"/>
<polygon fill="midnightblue" stroke="midnightblue" points="121.24,-16.24 111.01,-18.96 120.71,-23.22 121.24,-16.24"/>
</g>
<!-- Node28&#45;&gt;Node6 -->
<g id="edge42" class="edge">
<title>Node28&#45;&gt;Node6</title>
<path fill="none" stroke="midnightblue" d="M1611.65,-72.48C1432.06,-61.35 880.29,-27.15 740.78,-18.5"/>
<polygon fill="midnightblue" stroke="midnightblue" points="740.93,-15 730.73,-17.88 740.5,-21.99 740.93,-15"/>
</g>
<!-- Node28&#45;&gt;Node7 -->
<g id="edge37" class="edge">
<title>Node28&#45;&gt;Node7</title>
<path fill="none" stroke="midnightblue" d="M1637.84,-67.44C1607.4,-58.78 1559.46,-44.75 1518.48,-31 1516.08,-30.2 1513.61,-29.34 1511.13,-28.46"/>
<polygon fill="midnightblue" stroke="midnightblue" points="1512.26,-25.15 1501.66,-25.03 1509.87,-31.73 1512.26,-25.15"/>
</g>
<!-- Node28&#45;&gt;Node20 -->
<g id="edge38" class="edge">
<title>Node28&#45;&gt;Node20</title>
<path fill="none" stroke="midnightblue" d="M1679.22,-67.48C1691.03,-58.11 1710.22,-42.88 1724.56,-31.51"/>
<polygon fill="midnightblue" stroke="midnightblue" points="1727.09,-33.97 1732.75,-25.01 1722.74,-28.48 1727.09,-33.97"/>
</g>
<!-- Node28&#45;&gt;Node21 -->
<g id="edge43" class="edge">
<title>Node28&#45;&gt;Node21</title>
<path fill="none" stroke="midnightblue" d="M1689.2,-67.42C1710.96,-58.41 1746.15,-43.78 1776.48,-31 1777.88,-30.41 1779.32,-29.8 1780.77,-29.19"/>
<polygon fill="midnightblue" stroke="midnightblue" points="1782.52,-32.25 1790.35,-25.12 1779.78,-25.8 1782.52,-32.25"/>
</g>
<!-- Node28&#45;&gt;Node25 -->
<g id="edge40" class="edge">
<title>Node28&#45;&gt;Node25</title>
<path fill="none" stroke="midnightblue" d="M1651.71,-67.48C1632.25,-57.58 1599.93,-41.14 1577.27,-29.62"/>
<polygon fill="midnightblue" stroke="midnightblue" points="1578.71,-26.42 1568.21,-25.01 1575.54,-32.66 1578.71,-26.42"/>
</g>
<!-- Node28&#45;&gt;Node29 -->
<g id="edge39" class="edge">
<title>Node28&#45;&gt;Node29</title>
<path fill="none" stroke="midnightblue" d="M1709.58,-67.49C1745.61,-59.57 1799.16,-46.63 1844.48,-31 1846.34,-30.36 1848.24,-29.65 1850.15,-28.91"/>
<polygon fill="midnightblue" stroke="midnightblue" points="1851.64,-32.09 1859.53,-25.02 1848.96,-25.62 1851.64,-32.09"/>
</g>
<!-- Node30 -->
<g id="node30" class="node">
<title>Node30</title>
<g id="a_node30"><a xlink:title=" ">
<polygon fill="white" stroke="#bfbfbf" points="1593.98,-6 1593.98,-25 1700.98,-25 1700.98,-6 1593.98,-6"/>
<text text-anchor="middle" x="1647.48" y="-13" font-family="Helvetica,sans-Serif" font-size="10.00">condition_variable</text>
</a>
</g>
</g>
<!-- Node28&#45;&gt;Node30 -->
<g id="edge41" class="edge">
<title>Node28&#45;&gt;Node30</title>
<path fill="none" stroke="midnightblue" d="M1665.47,-67.48C1662.44,-58.9 1657.69,-45.43 1653.82,-34.48"/>
<polygon fill="midnightblue" stroke="midnightblue" points="1657.11,-33.27 1650.48,-25.01 1650.51,-35.6 1657.11,-33.27"/>
</g>
<!-- Node32&#45;&gt;Node5 -->
<g id="edge57" class="edge">
<title>Node32&#45;&gt;Node5</title>
<path fill="none" stroke="midnightblue" d="M499.78,-236.19C472.5,-229.98 441.04,-218.86 418.48,-199 402.18,-184.65 379.27,-126.68 368.11,-96.49"/>
<polygon fill="midnightblue" stroke="midnightblue" points="371.27,-94.95 364.56,-86.76 364.7,-97.35 371.27,-94.95"/>
</g>
<!-- Node32&#45;&gt;Node7 -->
<g id="edge56" class="edge">
<title>Node32&#45;&gt;Node7</title>
<path fill="none" stroke="midnightblue" d="M615.25,-242.78C797.23,-237.66 1353.53,-211.88 1471.48,-87 1484.27,-73.45 1484.74,-51.3 1482.98,-35.44"/>
<polygon fill="midnightblue" stroke="midnightblue" points="1486.39,-34.59 1481.45,-25.22 1479.47,-35.62 1486.39,-34.59"/>
</g>
<!-- Node32&#45;&gt;Node13 -->
<g id="edge55" class="edge">
<title>Node32&#45;&gt;Node13</title>
<path fill="none" stroke="midnightblue" d="M542.37,-235.32C527.57,-226.82 504.78,-213.73 487.49,-203.8"/>
<polygon fill="midnightblue" stroke="midnightblue" points="488.96,-200.6 478.54,-198.65 485.47,-206.67 488.96,-200.6"/>
</g>
<!-- Node32&#45;&gt;Node19 -->
<g id="edge59" class="edge">
<title>Node32&#45;&gt;Node19</title>
<path fill="none" stroke="midnightblue" d="M553.74,-235.1C548.97,-222.51 541.84,-198.84 546.48,-179 553.84,-147.55 572.5,-114.65 584.83,-95.26"/>
<polygon fill="midnightblue" stroke="midnightblue" points="587.91,-96.95 590.45,-86.66 582.05,-93.12 587.91,-96.95"/>
</g>
<!-- Node32&#45;&gt;Node27 -->
<g id="edge58" class="edge">
<title>Node32&#45;&gt;Node27</title>
<path fill="none" stroke="midnightblue" d="M499.54,-239.83C373.8,-230.62 85.56,-208.62 66.48,-199 30.37,-180.81 5.94,-162.04 16.48,-123 25.85,-88.25 49.68,-53.18 64.92,-33.22"/>
<polygon fill="midnightblue" stroke="midnightblue" points="67.82,-35.19 71.23,-25.16 62.31,-30.87 67.82,-35.19"/>
</g>
<!-- Node33 -->
<g id="node33" class="node">
<title>Node33</title>
<g id="a_node33"><a xlink:href="TransactionMem_8h.html" target="_top" xlink:title=" ">
<polygon fill="white" stroke="black" points="555.48,-179.5 555.48,-198.5 661.48,-198.5 661.48,-179.5 555.48,-179.5"/>
<text text-anchor="middle" x="608.48" y="-186.5" font-family="Helvetica,sans-Serif" font-size="10.00">TransactionMem.h</text>
</a>
</g>
</g>
<!-- Node32&#45;&gt;Node33 -->
<g id="edge50" class="edge">
<title>Node32&#45;&gt;Node33</title>
<path fill="none" stroke="midnightblue" d="M565.9,-235.08C573.32,-227.22 584.33,-215.57 593.29,-206.08"/>
<polygon fill="midnightblue" stroke="midnightblue" points="595.89,-208.42 600.21,-198.75 590.8,-203.62 595.89,-208.42"/>
</g>
<!-- Node32&#45;&gt;Node34 -->
<g id="edge53" class="edge">
<title>Node32&#45;&gt;Node34</title>
<path fill="none" stroke="midnightblue" d="M581.4,-235.44C606.7,-226.4 646.78,-212.06 675.16,-201.92"/>
<polygon fill="midnightblue" stroke="midnightblue" points="676.42,-205.18 684.66,-198.52 674.07,-198.59 676.42,-205.18"/>
</g>
<!-- Node33&#45;&gt;Node6 -->
<g id="edge52" class="edge">
<title>Node33&#45;&gt;Node6</title>
<path fill="none" stroke="midnightblue" d="M595.73,-179.46C567.07,-159.22 502.32,-107.02 532.48,-67 549.78,-44.03 630.52,-28.31 676.4,-21.06"/>
<polygon fill="midnightblue" stroke="midnightblue" points="677.08,-24.49 686.44,-19.52 676.02,-17.57 677.08,-24.49"/>
</g>
<!-- Node33&#45;&gt;Node14 -->
<g id="edge51" class="edge">
<title>Node33&#45;&gt;Node14</title>
<path fill="none" stroke="midnightblue" d="M661.57,-180.21C664.58,-179.8 667.57,-179.39 670.48,-179 792.55,-162.68 937.73,-145.62 1003.28,-138.04"/>
<polygon fill="midnightblue" stroke="midnightblue" points="1003.93,-141.49 1013.46,-136.86 1003.13,-134.53 1003.93,-141.49"/>
</g>
<!-- Node34&#45;&gt;Node19 -->
<g id="edge54" class="edge">
<title>Node34&#45;&gt;Node19</title>
<path fill="none" stroke="midnightblue" d="M699.69,-179.37C680.88,-160.89 636.48,-117.29 612.51,-93.74"/>
<polygon fill="midnightblue" stroke="midnightblue" points="614.81,-91.1 605.22,-86.59 609.91,-96.1 614.81,-91.1"/>
</g>
<!-- Node36&#45;&gt;Node4 -->
<g id="edge68" class="edge">
<title>Node36&#45;&gt;Node4</title>
<path fill="none" stroke="midnightblue" d="M628.18,-459.44C650.83,-450.52 686.55,-436.44 712.23,-426.32"/>
<polygon fill="midnightblue" stroke="midnightblue" points="713.85,-429.44 721.87,-422.52 711.28,-422.93 713.85,-429.44"/>
</g>
<!-- Node36&#45;&gt;Node9 -->
<g id="edge69" class="edge">
<title>Node36&#45;&gt;Node9</title>
<path fill="none" stroke="midnightblue" d="M607.65,-459.37C610.07,-441.62 615.66,-400.67 618.94,-376.6"/>
<polygon fill="midnightblue" stroke="midnightblue" points="622.42,-376.97 620.3,-366.59 615.49,-376.03 622.42,-376.97"/>
</g>
<!-- Node36&#45;&gt;Node35 -->
<g id="edge78" class="edge">
<title>Node36&#45;&gt;Node35</title>
<path fill="none" stroke="midnightblue" d="M596.05,-459.3C555.82,-425.73 410.43,-304.38 358.81,-261.3"/>
<polygon fill="midnightblue" stroke="midnightblue" points="360.75,-258.36 350.83,-254.64 356.27,-263.74 360.75,-258.36"/>
</g>
<!-- Node37 -->
<g id="node37" class="node">
<title>Node37</title>
<g id="a_node37"><a xlink:href="JSONGameConfiguration_8h.html" target="_top" xlink:title=" ">
<polygon fill="white" stroke="black" points="75.48,-179.5 75.48,-198.5 219.48,-198.5 219.48,-179.5 75.48,-179.5"/>
<text text-anchor="middle" x="147.48" y="-186.5" font-family="Helvetica,sans-Serif" font-size="10.00">JSONGameConfiguration.h</text>
</a>
</g>
</g>
<!-- Node36&#45;&gt;Node37 -->
<g id="edge70" class="edge">
<title>Node36&#45;&gt;Node37</title>
<path fill="none" stroke="midnightblue" d="M552.7,-465.45C437.75,-458.52 178.48,-434.43 178.48,-358 178.48,-358 178.48,-358 178.48,-300 178.48,-266.41 164.92,-229.14 155.74,-207.75"/>
<polygon fill="midnightblue" stroke="midnightblue" points="158.93,-206.31 151.66,-198.61 152.54,-209.17 158.93,-206.31"/>
</g>
<!-- Node40 -->
<g id="node40" class="node">
<title>Node40</title>
<g id="a_node40"><a xlink:title=" ">
<polygon fill="white" stroke="#bfbfbf" points="634.48,-403.5 634.48,-422.5 684.48,-422.5 684.48,-403.5 634.48,-403.5"/>
<text text-anchor="middle" x="659.48" y="-410.5" font-family="Helvetica,sans-Serif" font-size="10.00">chrono</text>
</a>
</g>
</g>
<!-- Node36&#45;&gt;Node40 -->
<g id="edge79" class="edge">
<title>Node36&#45;&gt;Node40</title>
<path fill="none" stroke="midnightblue" d="M615.23,-459.08C622.95,-451.22 634.38,-439.57 643.69,-430.08"/>
<polygon fill="midnightblue" stroke="midnightblue" points="646.38,-432.34 650.89,-422.75 641.38,-427.44 646.38,-432.34"/>
</g>
<!-- Node37&#45;&gt;Node19 -->
<g id="edge72" class="edge">
<title>Node37&#45;&gt;Node19</title>
<path fill="none" stroke="midnightblue" d="M182.33,-179.46C262.98,-159.7 462.36,-110.86 551.8,-88.94"/>
<polygon fill="midnightblue" stroke="midnightblue" points="552.76,-92.31 561.64,-86.53 551.09,-85.51 552.76,-92.31"/>
</g>
<!-- Node38 -->
<g id="node38" class="node">
<title>Node38</title>
<g id="a_node38"><a xlink:title=" ">
<polygon fill="white" stroke="#bfbfbf" points="25.98,-123.5 25.98,-142.5 80.98,-142.5 80.98,-123.5 25.98,-123.5"/>
<text text-anchor="middle" x="53.48" y="-130.5" font-family="Helvetica,sans-Serif" font-size="10.00">fstream</text>
</a>
</g>
</g>
<!-- Node37&#45;&gt;Node38 -->
<g id="edge71" class="edge">
<title>Node37&#45;&gt;Node38</title>
<path fill="none" stroke="midnightblue" d="M132.37,-179.32C117.57,-170.82 94.78,-157.73 77.49,-147.8"/>
<polygon fill="midnightblue" stroke="midnightblue" points="78.96,-144.6 68.54,-142.65 75.47,-150.67 78.96,-144.6"/>
</g>
<!-- Node39 -->
<g id="node39" class="node">
<title>Node39</title>
<g id="a_node39"><a xlink:href="GameConfiguration_8h.html" target="_top" xlink:title="Interface for obtaining game configuration.">
<polygon fill="white" stroke="black" points="99.48,-123.5 99.48,-142.5 219.48,-142.5 219.48,-123.5 99.48,-123.5"/>
<text text-anchor="middle" x="159.48" y="-130.5" font-family="Helvetica,sans-Serif" font-size="10.00">GameConfiguration.h</text>
</a>
</g>
</g>
<!-- Node37&#45;&gt;Node39 -->
<g id="edge73" class="edge">
<title>Node37&#45;&gt;Node39</title>
<path fill="none" stroke="midnightblue" d="M149.46,-179.08C151.05,-171.93 153.34,-161.64 155.32,-152.69"/>
<polygon fill="midnightblue" stroke="midnightblue" points="158.78,-153.27 157.53,-142.75 151.95,-151.75 158.78,-153.27"/>
</g>
<!-- Node39&#45;&gt;Node5 -->
<g id="edge74" class="edge">
<title>Node39&#45;&gt;Node5</title>
<path fill="none" stroke="midnightblue" d="M191.48,-123.44C228.7,-113.49 289.86,-97.15 327.78,-87.01"/>
<polygon fill="midnightblue" stroke="midnightblue" points="329.07,-90.29 337.82,-84.32 327.26,-83.52 329.07,-90.29"/>
</g>
<!-- Node39&#45;&gt;Node6 -->
<g id="edge75" class="edge">
<title>Node39&#45;&gt;Node6</title>
<path fill="none" stroke="midnightblue" d="M177.76,-123.32C208.28,-109.21 271.82,-81.45 328.48,-67 454.62,-34.84 609.86,-22.34 676.07,-18.24"/>
<polygon fill="midnightblue" stroke="midnightblue" points="676.51,-21.72 686.29,-17.63 676.09,-14.73 676.51,-21.72"/>
</g>
<!-- Node39&#45;&gt;Node15 -->
<g id="edge77" class="edge">
<title>Node39&#45;&gt;Node15</title>
<path fill="none" stroke="midnightblue" d="M210.41,-123.48C257.98,-115.22 330.87,-101.8 393.48,-87 394.39,-86.79 395.31,-86.56 396.24,-86.33"/>
<polygon fill="midnightblue" stroke="midnightblue" points="397.48,-89.62 406.25,-83.69 395.69,-82.86 397.48,-89.62"/>
</g>
<!-- Node39&#45;&gt;Node27 -->
<g id="edge76" class="edge">
<title>Node39&#45;&gt;Node27</title>
<path fill="none" stroke="midnightblue" d="M153.39,-123.32C140.08,-104.34 108.17,-58.85 90.6,-33.79"/>
<polygon fill="midnightblue" stroke="midnightblue" points="93.24,-31.46 84.64,-25.28 87.51,-35.48 93.24,-31.46"/>
</g>
</g>
</svg>
        <g id="navigator" transform="translate(0 0)" fill="#404254">
                <rect fill="#f2f5e9" fill-opacity="0.5" stroke="#606060" stroke-width=".5" x="0" y="0" width="60" height="60"/>
                <use id="zoomplus" xlink:href="#zoomPlus" x="17" y="9" onmousedown="handleZoom(evt,'in')"/>
                <use id="zoomminus" xlink:href="#zoomMin" x="42" y="9" onmousedown="handleZoom(evt,'out')"/>
                <use id="reset" xlink:href="#resetDef" x="30" y="36" onmousedown="handleReset()"/>
                <g id="arrowUp" xlink:href="#dirArrow" transform="translate(30 24)" onmousedown="handlePan(0,-1)">
                  <use xlink:href="#rim" fill="#404040">
                        <set attributeName="fill" to="#808080" begin="arrowUp.mouseover" end="arrowUp.mouseout"/>
                  </use>
                  <path fill="none" stroke="white" stroke-width="1.5" d="M0,-3.0v7 M-2.5,-0.5L0,-3.0L2.5,-0.5"/>
                </g>
                <g id="arrowRight" xlink:href="#dirArrow" transform="rotate(90) translate(36 -43)" onmousedown="handlePan(1,0)">
                  <use xlink:href="#rim" fill="#404040">
                        <set attributeName="fill" to="#808080" begin="arrowRight.mouseover" end="arrowRight.mouseout"/>
                  </use>
                  <path fill="none" stroke="white" stroke-width="1.5" d="M0,-3.0v7 M-2.5,-0.5L0,-3.0L2.5,-0.5"/>
                </g>
                <g id="arrowDown" xlink:href="#dirArrow" transform="rotate(180) translate(-30 -48)" onmousedown="handlePan(0,1)">
                  <use xlink:href="#rim" fill="#404040">
                        <set attributeName="fill" to="#808080" begin="arrowDown.mouseover" end="arrowDown.mouseout"/>
                  </use>
                  <path fill="none" stroke="white" stroke-width="1.5" d="M0,-3.0v7 M-2.5,-0.5L0,-3.0L2.5,-0.5"/>
                </g>
                <g id="arrowLeft" xlink:href="#dirArrow" transform="rotate(270) translate(-36 17)" onmousedown="handlePan(-1,0)">
                  <use xlink:href="#rim" fill="#404040">
                        <set attributeName="fill" to="#808080" begin="arrowLeft.mouseover" end="arrowLeft.mouseout"/>
                  </use>
                  <path fill="none" stroke="white" stroke-width="1.5" d="M0,-3.0v7 M-2.5,-0.5L0,-3.0L2.5,-0.5"/>
                </g>
        </g>
        <svg viewBox="0 0 15 15" width="100%" height="30px" preserveAspectRatio="xMaxYMin meet">
         <g id="arrow_out" transform="scale(0.3 0.3)">
          <a xlink:href="GreenFingerCustomerBuilder_8cpp__incl_org.svg" target="_base">
           <rect id="button" ry="5" rx="5" y="6" x="6" height="38" width="38"
                fill="#f2f5e9" fill-opacity="0.5" stroke="#606060" stroke-width="1.0"/>
           <path id="arrow"
             d="M 11.500037,31.436501 C 11.940474,20.09759 22.043105,11.32322 32.158766,21.979434 L 37.068811,17.246167 C 37.068811,17.246167 37.088388,32 37.088388,32 L 22.160133,31.978069 C 22.160133,31.978069 26.997745,27.140456 26.997745,27.140456 C 18.528582,18.264221 13.291696,25.230495 11.500037,31.436501 z"
             style="fill:#404040;"/>
          </a>
         </g>
        </svg>
</svg>
