<?xml version="1.0" encoding="UTF-8" standalone="no"?>
<!DOCTYPE svg PUBLIC "-//W3C//DTD SVG 1.1//EN"
 "http://www.w3.org/Graphics/SVG/1.1/DTD/svg11.dtd">
<!-- Generated by graphviz version 2.43.0 (0)
 -->
<!-- Title: backend/customer/GreenFingerCustomer.cpp Pages: 1 -->
<!--zoomable 554 -->
<svg id="main" version="1.1" xmlns="http://www.w3.org/2000/svg" xmlns:xlink="http://www.w3.org/1999/xlink" xml:space="preserve" onload="init(evt)">
<style type="text/css"><![CDATA[
.edge:hover path { stroke: red; }
.edge:hover polygon { stroke: red; fill: red; }
]]></style>
<script type="text/javascript"><![CDATA[
var edges = document.getElementsByTagName('g');
if (edges && edges.length) {
  for (var i=0;i<edges.length;i++) {
    if (edges[i].id.substr(0,4)=='edge') {
      edges[i].setAttribute('class','edge');
    }
  }
}
]]></script>
        <defs>
                <circle id="rim" cx="0" cy="0" r="7"/>
                <circle id="rim2" cx="0" cy="0" r="3.5"/>
                <g id="zoomPlus">
                        <use xlink:href="#rim" fill="#404040">
                                <set attributeName="fill" to="#808080" begin="zoomplus.mouseover" end="zoomplus.mouseout"/>
                        </use>
                        <path d="M-4,0h8M0,-4v8" fill="none" stroke="white" stroke-width="1.5" pointer-events="none"/>
                </g>
                <g id="zoomMin">
                        <use xlink:href="#rim" fill="#404040">
                                <set attributeName="fill" to="#808080" begin="zoomminus.mouseover" end="zoomminus.mouseout"/>
                        </use>
                        <path d="M-4,0h8" fill="none" stroke="white" stroke-width="1.5" pointer-events="none"/>
                </g>
                <g id="dirArrow">
                        <path fill="none" stroke="white" stroke-width="1.5" d="M0,-3.0v7 M-2.5,-0.5L0,-3.0L2.5,-0.5"/>
                </g>
               <g id="resetDef">
                       <use xlink:href="#rim2" fill="#404040">
                               <set attributeName="fill" to="#808080" begin="reset.mouseover" end="reset.mouseout"/>
                       </use>
               </g>
        </defs>

<script type="text/javascript">
var viewWidth = 1661;
var viewHeight = 554;
var sectionId = 'dynsection-0';
</script>
<script xlink:href="svgpan.js"/>
<svg id="graph" class="graph">
<g id="viewport">
<title>backend/customer/GreenFingerCustomer.cpp</title>
<polygon fill="white" stroke="transparent" points="-4,4 -4,-550 1657.18,-550 1657.18,4 -4,4"/>
<!-- Node1 -->
<g id="node1" class="node">
<title>Node1</title>
<g id="a_node1"><a xlink:title="Implements the functionality defined in the GreenFingerCustomer class.">
<polygon fill="#bfbfbf" stroke="black" points="249,-515.5 249,-545.5 417,-545.5 417,-515.5 249,-515.5"/>
<text text-anchor="start" x="257" y="-533.5" font-family="Helvetica,sans-Serif" font-size="10.00">backend/customer/GreenFinger</text>
<text text-anchor="middle" x="333" y="-522.5" font-family="Helvetica,sans-Serif" font-size="10.00">Customer.cpp</text>
</a>
</g>
</g>
<!-- Node2 -->
<g id="node2" class="node">
<title>Node2</title>
<g id="a_node2"><a xlink:href="GreenFingerCustomer_8h.html" target="_top" xlink:title="Concrete customer class representing expert plant enthusiasts.">
<polygon fill="white" stroke="black" points="267.5,-459.5 267.5,-478.5 398.5,-478.5 398.5,-459.5 267.5,-459.5"/>
<text text-anchor="middle" x="333" y="-466.5" font-family="Helvetica,sans-Serif" font-size="10.00">GreenFingerCustomer.h</text>
</a>
</g>
</g>
<!-- Node1&#45;&gt;Node2 -->
<g id="edge1" class="edge">
<title>Node1&#45;&gt;Node2</title>
<path fill="none" stroke="midnightblue" d="M333,-515.4C333,-507.47 333,-497.46 333,-488.86"/>
<polygon fill="midnightblue" stroke="midnightblue" points="336.5,-488.66 333,-478.66 329.5,-488.66 336.5,-488.66"/>
</g>
<!-- Node3 -->
<g id="node3" class="node">
<title>Node3</title>
<g id="a_node3"><a xlink:href="Customer_8h.html" target="_top" xlink:title="Abstract base class for all customer types in the plant shop game.">
<polygon fill="white" stroke="black" points="297,-403.5 297,-422.5 369,-422.5 369,-403.5 297,-403.5"/>
<text text-anchor="middle" x="333" y="-410.5" font-family="Helvetica,sans-Serif" font-size="10.00">Customer.h</text>
</a>
</g>
</g>
<!-- Node2&#45;&gt;Node3 -->
<g id="edge2" class="edge">
<title>Node2&#45;&gt;Node3</title>
<path fill="none" stroke="midnightblue" d="M333,-459.08C333,-452.01 333,-441.86 333,-432.99"/>
<polygon fill="midnightblue" stroke="midnightblue" points="336.5,-432.75 333,-422.75 329.5,-432.75 336.5,-432.75"/>
</g>
<!-- Node4 -->
<g id="node4" class="node">
<title>Node4</title>
<g id="a_node4"><a xlink:title=" ">
<polygon fill="white" stroke="#bfbfbf" points="410.5,-67.5 410.5,-86.5 457.5,-86.5 457.5,-67.5 410.5,-67.5"/>
<text text-anchor="middle" x="434" y="-74.5" font-family="Helvetica,sans-Serif" font-size="10.00">vector</text>
</a>
</g>
</g>
<!-- Node3&#45;&gt;Node4 -->
<g id="edge3" class="edge">
<title>Node3&#45;&gt;Node4</title>
<path fill="none" stroke="midnightblue" d="M296.99,-412.38C226.26,-411.03 76,-397 76,-302 76,-302 76,-302 76,-244 76,-101.96 310.8,-81.11 400.09,-78.32"/>
<polygon fill="midnightblue" stroke="midnightblue" points="400.33,-81.81 410.23,-78.06 400.15,-74.81 400.33,-81.81"/>
</g>
<!-- Node5 -->
<g id="node5" class="node">
<title>Node5</title>
<g id="a_node5"><a xlink:title=" ">
<polygon fill="white" stroke="#bfbfbf" points="393,-6 393,-25 437,-25 437,-6 393,-6"/>
<text text-anchor="middle" x="415" y="-13" font-family="Helvetica,sans-Serif" font-size="10.00">string</text>
</a>
</g>
</g>
<!-- Node3&#45;&gt;Node5 -->
<g id="edge4" class="edge">
<title>Node3&#45;&gt;Node5</title>
<path fill="none" stroke="midnightblue" d="M296.86,-409.21C231.51,-403.66 96.71,-389.79 56,-367 22.73,-348.37 0,-340.13 0,-302 0,-302 0,-302 0,-188 0,-116.21 44.16,-101.71 107,-67 119.06,-60.34 306.45,-32.37 382.9,-21.17"/>
<polygon fill="midnightblue" stroke="midnightblue" points="383.53,-24.62 392.92,-19.71 382.52,-17.69 383.53,-24.62"/>
</g>
<!-- Node6 -->
<g id="node6" class="node">
<title>Node6</title>
<g id="a_node6"><a xlink:title=" ">
<polygon fill="white" stroke="#bfbfbf" points="636,-6 636,-25 696,-25 696,-6 636,-6"/>
<text text-anchor="middle" x="666" y="-13" font-family="Helvetica,sans-Serif" font-size="10.00">iostream</text>
</a>
</g>
</g>
<!-- Node3&#45;&gt;Node6 -->
<g id="edge5" class="edge">
<title>Node3&#45;&gt;Node6</title>
<path fill="none" stroke="midnightblue" d="M369.31,-410.92C581.52,-404.41 1652,-368.24 1652,-302 1652,-302 1652,-302 1652,-132 1652,-101.9 1656.72,-85.52 1633,-67 1552.98,-4.52 820.37,-46.26 720,-31 714.48,-30.16 708.72,-28.97 703.1,-27.62"/>
<polygon fill="midnightblue" stroke="midnightblue" points="703.78,-24.18 693.22,-25.08 702.03,-30.96 703.78,-24.18"/>
</g>
<!-- Node7 -->
<g id="node7" class="node">
<title>Node7</title>
<g id="a_node7"><a xlink:title=" ">
<polygon fill="white" stroke="#bfbfbf" points="305,-347.5 305,-366.5 361,-366.5 361,-347.5 305,-347.5"/>
<text text-anchor="middle" x="333" y="-354.5" font-family="Helvetica,sans-Serif" font-size="10.00">sstream</text>
</a>
</g>
</g>
<!-- Node3&#45;&gt;Node7 -->
<g id="edge6" class="edge">
<title>Node3&#45;&gt;Node7</title>
<path fill="none" stroke="midnightblue" d="M333,-403.08C333,-396.01 333,-385.86 333,-376.99"/>
<polygon fill="midnightblue" stroke="midnightblue" points="336.5,-376.75 333,-366.75 329.5,-376.75 336.5,-376.75"/>
</g>
<!-- Node8 -->
<g id="node8" class="node">
<title>Node8</title>
<g id="a_node8"><a xlink:href="CustomerVisitor_8h.html" target="_top" xlink:title="Abstract visitor class for plant recommendation strategies for different customer types.">
<polygon fill="white" stroke="black" points="607,-347.5 607,-366.5 711,-366.5 711,-347.5 607,-347.5"/>
<text text-anchor="middle" x="659" y="-354.5" font-family="Helvetica,sans-Serif" font-size="10.00">CustomerVisitor.h</text>
</a>
</g>
</g>
<!-- Node3&#45;&gt;Node8 -->
<g id="edge7" class="edge">
<title>Node3&#45;&gt;Node8</title>
<path fill="none" stroke="midnightblue" d="M369.13,-406.01C424.24,-396.89 529.99,-379.37 597.38,-368.21"/>
<polygon fill="midnightblue" stroke="midnightblue" points="598.15,-371.63 607.45,-366.54 597.01,-364.72 598.15,-371.63"/>
</g>
<!-- Node13 -->
<g id="node13" class="node">
<title>Node13</title>
<g id="a_node13"><a xlink:href="Plant_8h.html" target="_top" xlink:title="Defines the abstract base class for all Plant objects used in the system.">
<polygon fill="white" stroke="black" points="747,-123.5 747,-142.5 797,-142.5 797,-123.5 747,-123.5"/>
<text text-anchor="middle" x="772" y="-130.5" font-family="Helvetica,sans-Serif" font-size="10.00">Plant.h</text>
</a>
</g>
</g>
<!-- Node3&#45;&gt;Node13 -->
<g id="edge56" class="edge">
<title>Node3&#45;&gt;Node13</title>
<path fill="none" stroke="midnightblue" d="M369.15,-412.32C454.45,-412.37 665.19,-408.2 720,-367 783.5,-319.27 771.29,-277.84 781,-199 782.92,-183.43 780.17,-165.81 777.22,-152.85"/>
<polygon fill="midnightblue" stroke="midnightblue" points="780.53,-151.66 774.69,-142.82 773.74,-153.37 780.53,-151.66"/>
</g>
<!-- Node18 -->
<g id="node18" class="node">
<title>Node18</title>
<g id="a_node18"><a xlink:title=" ">
<polygon fill="white" stroke="#bfbfbf" points="116,-67.5 116,-86.5 226,-86.5 226,-67.5 116,-67.5"/>
<text text-anchor="middle" x="171" y="-74.5" font-family="Helvetica,sans-Serif" font-size="10.00">nlohmann/json.hpp</text>
</a>
</g>
</g>
<!-- Node3&#45;&gt;Node18 -->
<g id="edge57" class="edge">
<title>Node3&#45;&gt;Node18</title>
<path fill="none" stroke="midnightblue" d="M296.9,-412.94C246.89,-412.63 155.34,-406.13 90,-367 58.26,-347.99 38,-339 38,-302 38,-302 38,-302 38,-244 38,-174.43 110.03,-117.35 148.07,-92.06"/>
<polygon fill="midnightblue" stroke="midnightblue" points="150.02,-94.97 156.51,-86.6 146.22,-89.09 150.02,-94.97"/>
</g>
<!-- Node8&#45;&gt;Node4 -->
<g id="edge8" class="edge">
<title>Node8&#45;&gt;Node4</title>
<path fill="none" stroke="midnightblue" d="M655.36,-347.34C647.99,-329 632,-284.74 632,-246 632,-246 632,-246 632,-188 632,-149.58 607.14,-144.05 575,-123 565.82,-116.99 506.17,-98.98 467.45,-87.65"/>
<polygon fill="midnightblue" stroke="midnightblue" points="468.2,-84.22 457.62,-84.79 466.24,-90.94 468.2,-84.22"/>
</g>
<!-- Node9 -->
<g id="node9" class="node">
<title>Node9</title>
<g id="a_node9"><a xlink:title=" ">
<polygon fill="white" stroke="#bfbfbf" points="1560,-67.5 1560,-86.5 1624,-86.5 1624,-67.5 1560,-67.5"/>
<text text-anchor="middle" x="1592" y="-74.5" font-family="Helvetica,sans-Serif" font-size="10.00">algorithm</text>
</a>
</g>
</g>
<!-- Node8&#45;&gt;Node9 -->
<g id="edge9" class="edge">
<title>Node8&#45;&gt;Node9</title>
<path fill="none" stroke="midnightblue" d="M687.69,-347.45C823.11,-307.1 1398.28,-135.72 1553.35,-89.52"/>
<polygon fill="midnightblue" stroke="midnightblue" points="1554.78,-92.74 1563.36,-86.53 1552.78,-86.03 1554.78,-92.74"/>
</g>
<!-- Node10 -->
<g id="node10" class="node">
<title>Node10</title>
<g id="a_node10"><a xlink:title=" ">
<polygon fill="white" stroke="#bfbfbf" points="660.5,-291.5 660.5,-310.5 713.5,-310.5 713.5,-291.5 660.5,-291.5"/>
<text text-anchor="middle" x="687" y="-298.5" font-family="Helvetica,sans-Serif" font-size="10.00">cstddef</text>
</a>
</g>
</g>
<!-- Node8&#45;&gt;Node10 -->
<g id="edge10" class="edge">
<title>Node8&#45;&gt;Node10</title>
<path fill="none" stroke="midnightblue" d="M663.62,-347.08C667.46,-339.69 673.02,-328.95 677.76,-319.81"/>
<polygon fill="midnightblue" stroke="midnightblue" points="680.97,-321.24 682.46,-310.75 674.75,-318.02 680.97,-321.24"/>
</g>
<!-- Node11 -->
<g id="node11" class="node">
<title>Node11</title>
<g id="a_node11"><a xlink:href="SalesFloor_8h.html" target="_top" xlink:title="Sales floor management for customer interactions and plant sales.">
<polygon fill="white" stroke="black" points="446,-291.5 446,-310.5 522,-310.5 522,-291.5 446,-291.5"/>
<text text-anchor="middle" x="484" y="-298.5" font-family="Helvetica,sans-Serif" font-size="10.00">SalesFloor.h</text>
</a>
</g>
</g>
<!-- Node8&#45;&gt;Node11 -->
<g id="edge11" class="edge">
<title>Node8&#45;&gt;Node11</title>
<path fill="none" stroke="midnightblue" d="M631.27,-347.44C601.57,-338.28 554.28,-323.69 521.33,-313.52"/>
<polygon fill="midnightblue" stroke="midnightblue" points="522.19,-310.12 511.6,-310.52 520.12,-316.81 522.19,-310.12"/>
</g>
<!-- Node8&#45;&gt;Node13 -->
<g id="edge55" class="edge">
<title>Node8&#45;&gt;Node13</title>
<path fill="none" stroke="midnightblue" d="M677.07,-347.42C691.29,-339.77 710.56,-327.27 722,-311 757.15,-261.02 767.69,-186.85 770.77,-152.59"/>
<polygon fill="midnightblue" stroke="midnightblue" points="774.26,-152.84 771.55,-142.59 767.28,-152.29 774.26,-152.84"/>
</g>
<!-- Node11&#45;&gt;Node4 -->
<g id="edge52" class="edge">
<title>Node11&#45;&gt;Node4</title>
<path fill="none" stroke="midnightblue" d="M484.87,-291.14C487.12,-264.59 491.46,-183.73 468,-123 463.92,-112.42 456.57,-102.21 449.75,-94.19"/>
<polygon fill="midnightblue" stroke="midnightblue" points="452.29,-91.79 442.99,-86.71 447.1,-96.48 452.29,-91.79"/>
</g>
<!-- Node12 -->
<g id="node12" class="node">
<title>Node12</title>
<g id="a_node12"><a xlink:href="Inventory_8h.html" target="_top" xlink:title="Inventory management for plants in greenhouse and sales floor.">
<polygon fill="white" stroke="black" points="532.5,-179.5 532.5,-198.5 603.5,-198.5 603.5,-179.5 532.5,-179.5"/>
<text text-anchor="middle" x="568" y="-186.5" font-family="Helvetica,sans-Serif" font-size="10.00">Inventory.h</text>
</a>
</g>
</g>
<!-- Node11&#45;&gt;Node12 -->
<g id="edge12" class="edge">
<title>Node11&#45;&gt;Node12</title>
<path fill="none" stroke="midnightblue" d="M521.97,-291.41C541.41,-284.88 563.38,-273.72 575,-255 583.68,-241.02 580.28,-222.02 575.7,-208.17"/>
<polygon fill="midnightblue" stroke="midnightblue" points="578.95,-206.88 572.15,-198.75 572.4,-209.35 578.95,-206.88"/>
</g>
<!-- Node26 -->
<g id="node26" class="node">
<title>Node26</title>
<g id="a_node26"><a xlink:title=" ">
<polygon fill="white" stroke="#bfbfbf" points="233.5,-6 233.5,-25 298.5,-25 298.5,-6 233.5,-6"/>
<text text-anchor="middle" x="266" y="-13" font-family="Helvetica,sans-Serif" font-size="10.00">stdexcept</text>
</a>
</g>
</g>
<!-- Node11&#45;&gt;Node26 -->
<g id="edge54" class="edge">
<title>Node11&#45;&gt;Node26</title>
<path fill="none" stroke="midnightblue" d="M445.9,-296.54C397.11,-291.31 310.44,-279.31 240,-255 189.26,-237.49 165.84,-241.46 133,-199 96.42,-151.7 71.69,-115.26 107,-67 133.42,-30.89 185.85,-19.97 223.28,-16.99"/>
<polygon fill="midnightblue" stroke="midnightblue" points="223.65,-20.47 233.4,-16.35 223.2,-13.49 223.65,-20.47"/>
</g>
<!-- Node29 -->
<g id="node29" class="node">
<title>Node29</title>
<g id="a_node29"><a xlink:href="TransactionHistory_8h.html" target="_top" xlink:title="Maintains history of financial transactions.">
<polygon fill="white" stroke="black" points="295.5,-235.5 295.5,-254.5 410.5,-254.5 410.5,-235.5 295.5,-235.5"/>
<text text-anchor="middle" x="353" y="-242.5" font-family="Helvetica,sans-Serif" font-size="10.00">TransactionHistory.h</text>
</a>
</g>
</g>
<!-- Node11&#45;&gt;Node29 -->
<g id="edge40" class="edge">
<title>Node11&#45;&gt;Node29</title>
<path fill="none" stroke="midnightblue" d="M463.24,-291.44C441.68,-282.56 407.74,-268.56 383.21,-258.45"/>
<polygon fill="midnightblue" stroke="midnightblue" points="384.24,-255.09 373.66,-254.52 381.57,-261.56 384.24,-255.09"/>
</g>
<!-- Node31 -->
<g id="node31" class="node">
<title>Node31</title>
<g id="a_node31"><a xlink:href="Ledger_8h.html" target="_top" xlink:title="Financial ledger for tracking game balance.">
<polygon fill="white" stroke="black" points="142,-179.5 142,-198.5 200,-198.5 200,-179.5 142,-179.5"/>
<text text-anchor="middle" x="171" y="-186.5" font-family="Helvetica,sans-Serif" font-size="10.00">Ledger.h</text>
</a>
</g>
</g>
<!-- Node11&#45;&gt;Node31 -->
<g id="edge51" class="edge">
<title>Node11&#45;&gt;Node31</title>
<path fill="none" stroke="midnightblue" d="M445.81,-294.7C405.21,-288.3 339.59,-275.72 286,-255 251.22,-241.55 214.23,-218.96 191.87,-204.27"/>
<polygon fill="midnightblue" stroke="midnightblue" points="193.76,-201.33 183.5,-198.7 189.88,-207.15 193.76,-201.33"/>
</g>
<!-- Node32 -->
<g id="node32" class="node">
<title>Node32</title>
<g id="a_node32"><a xlink:title=" ">
<polygon fill="white" stroke="#bfbfbf" points="512,-235.5 512,-254.5 566,-254.5 566,-235.5 512,-235.5"/>
<text text-anchor="middle" x="539" y="-242.5" font-family="Helvetica,sans-Serif" font-size="10.00">random</text>
</a>
</g>
</g>
<!-- Node11&#45;&gt;Node32 -->
<g id="edge53" class="edge">
<title>Node11&#45;&gt;Node32</title>
<path fill="none" stroke="midnightblue" d="M493.08,-291.08C501.17,-283.14 513.2,-271.34 522.91,-261.8"/>
<polygon fill="midnightblue" stroke="midnightblue" points="525.4,-264.25 530.09,-254.75 520.5,-259.26 525.4,-264.25"/>
</g>
<!-- Node12&#45;&gt;Node4 -->
<g id="edge38" class="edge">
<title>Node12&#45;&gt;Node4</title>
<path fill="none" stroke="midnightblue" d="M568.91,-179.3C569.85,-165.66 569.6,-139.15 556,-123 544.35,-109.17 499.52,-95.03 467.59,-86.38"/>
<polygon fill="midnightblue" stroke="midnightblue" points="468.3,-82.95 457.74,-83.78 466.51,-89.72 468.3,-82.95"/>
</g>
<!-- Node12&#45;&gt;Node5 -->
<g id="edge39" class="edge">
<title>Node12&#45;&gt;Node5</title>
<path fill="none" stroke="midnightblue" d="M536.83,-179.47C497.08,-166.72 430.04,-138.5 401,-87 391.84,-70.75 398.15,-49.44 404.99,-34.51"/>
<polygon fill="midnightblue" stroke="midnightblue" points="408.24,-35.85 409.62,-25.35 401.99,-32.69 408.24,-35.85"/>
</g>
<!-- Node12&#45;&gt;Node13 -->
<g id="edge13" class="edge">
<title>Node12&#45;&gt;Node13</title>
<path fill="none" stroke="midnightblue" d="M600.32,-179.44C637.66,-169.56 698.85,-153.36 737.2,-143.21"/>
<polygon fill="midnightblue" stroke="midnightblue" points="738.13,-146.59 746.9,-140.64 736.34,-139.82 738.13,-146.59"/>
</g>
<!-- Node13&#45;&gt;Node4 -->
<g id="edge16" class="edge">
<title>Node13&#45;&gt;Node4</title>
<path fill="none" stroke="midnightblue" d="M746.99,-128.97C695.36,-122.55 573.35,-106.57 472,-87 470.54,-86.72 469.06,-86.42 467.56,-86.11"/>
<polygon fill="midnightblue" stroke="midnightblue" points="468.17,-82.66 457.65,-83.92 466.66,-89.49 468.17,-82.66"/>
</g>
<!-- Node13&#45;&gt;Node5 -->
<g id="edge14" class="edge">
<title>Node13&#45;&gt;Node5</title>
<path fill="none" stroke="midnightblue" d="M746.74,-129.35C688.87,-123.02 548.33,-106.13 505,-87 475.35,-73.91 446.91,-48.84 430.2,-32.39"/>
<polygon fill="midnightblue" stroke="midnightblue" points="432.51,-29.75 422.98,-25.1 427.53,-34.67 432.51,-29.75"/>
</g>
<!-- Node13&#45;&gt;Node6 -->
<g id="edge18" class="edge">
<title>Node13&#45;&gt;Node6</title>
<path fill="none" stroke="midnightblue" d="M746.65,-125.06C727.04,-118.41 700.69,-106.46 685,-87 673.21,-72.37 668.7,-51.05 667,-35.69"/>
<polygon fill="midnightblue" stroke="midnightblue" points="670.45,-35 666.17,-25.31 663.48,-35.56 670.45,-35"/>
</g>
<!-- Node13&#45;&gt;Node9 -->
<g id="edge17" class="edge">
<title>Node13&#45;&gt;Node9</title>
<path fill="none" stroke="midnightblue" d="M797.18,-128.23C810.23,-126.4 826.44,-124.32 841,-123 1153.46,-94.69 1234.59,-125.22 1546,-87 1547.27,-86.84 1548.56,-86.67 1549.86,-86.49"/>
<polygon fill="midnightblue" stroke="midnightblue" points="1550.6,-89.92 1559.92,-84.88 1549.5,-83 1550.6,-89.92"/>
</g>
<!-- Node14 -->
<g id="node14" class="node">
<title>Node14</title>
<g id="a_node14"><a xlink:title=" ">
<polygon fill="white" stroke="#bfbfbf" points="1000,-67.5 1000,-86.5 1038,-86.5 1038,-67.5 1000,-67.5"/>
<text text-anchor="middle" x="1019" y="-74.5" font-family="Helvetica,sans-Serif" font-size="10.00">map</text>
</a>
</g>
</g>
<!-- Node13&#45;&gt;Node14 -->
<g id="edge15" class="edge">
<title>Node13&#45;&gt;Node14</title>
<path fill="none" stroke="midnightblue" d="M797.17,-127.74C836.35,-120.92 914.45,-106.55 989.69,-87.12"/>
<polygon fill="midnightblue" stroke="midnightblue" points="991.01,-90.39 999.8,-84.47 989.24,-83.62 991.01,-90.39"/>
</g>
<!-- Node15 -->
<g id="node15" class="node">
<title>Node15</title>
<g id="a_node15"><a xlink:title=" ">
<polygon fill="white" stroke="#bfbfbf" points="1056.5,-67.5 1056.5,-86.5 1169.5,-86.5 1169.5,-67.5 1056.5,-67.5"/>
<text text-anchor="middle" x="1113" y="-74.5" font-family="Helvetica,sans-Serif" font-size="10.00">boost/uuid/uuid.hpp</text>
</a>
</g>
</g>
<!-- Node13&#45;&gt;Node15 -->
<g id="edge19" class="edge">
<title>Node13&#45;&gt;Node15</title>
<path fill="none" stroke="midnightblue" d="M797.07,-128.03C849.7,-119.7 973.07,-100.16 1049.13,-88.11"/>
<polygon fill="midnightblue" stroke="midnightblue" points="1049.75,-91.56 1059.08,-86.54 1048.66,-84.65 1049.75,-91.56"/>
</g>
<!-- Node16 -->
<g id="node16" class="node">
<title>Node16</title>
<g id="a_node16"><a xlink:title=" ">
<polygon fill="white" stroke="#bfbfbf" points="1188,-67.5 1188,-86.5 1358,-86.5 1358,-67.5 1188,-67.5"/>
<text text-anchor="middle" x="1273" y="-74.5" font-family="Helvetica,sans-Serif" font-size="10.00">boost/uuid/uuid_generators.hpp</text>
</a>
</g>
</g>
<!-- Node13&#45;&gt;Node16 -->
<g id="edge20" class="edge">
<title>Node13&#45;&gt;Node16</title>
<path fill="none" stroke="midnightblue" d="M797.22,-128.55C810.27,-126.81 826.48,-124.7 841,-123 956.62,-109.44 1089.91,-95.87 1177.5,-87.23"/>
<polygon fill="midnightblue" stroke="midnightblue" points="1178.07,-90.69 1187.68,-86.23 1177.39,-83.73 1178.07,-90.69"/>
</g>
<!-- Node17 -->
<g id="node17" class="node">
<title>Node17</title>
<g id="a_node17"><a xlink:title=" ">
<polygon fill="white" stroke="#bfbfbf" points="1376.5,-67.5 1376.5,-86.5 1503.5,-86.5 1503.5,-67.5 1376.5,-67.5"/>
<text text-anchor="middle" x="1440" y="-74.5" font-family="Helvetica,sans-Serif" font-size="10.00">boost/uuid/uuid_io.hpp</text>
</a>
</g>
</g>
<!-- Node13&#45;&gt;Node17 -->
<g id="edge21" class="edge">
<title>Node13&#45;&gt;Node17</title>
<path fill="none" stroke="midnightblue" d="M797.19,-128.34C810.24,-126.53 826.45,-124.45 841,-123 1070.88,-100.16 1132.02,-109.08 1366.13,-87.03"/>
<polygon fill="midnightblue" stroke="midnightblue" points="1366.7,-90.49 1376.32,-86.06 1366.03,-83.52 1366.7,-90.49"/>
</g>
<!-- Node13&#45;&gt;Node18 -->
<g id="edge22" class="edge">
<title>Node13&#45;&gt;Node18</title>
<path fill="none" stroke="midnightblue" d="M746.94,-129.75C659.77,-121.92 367.96,-95.7 236.35,-83.87"/>
<polygon fill="midnightblue" stroke="midnightblue" points="236.3,-80.35 226.02,-82.94 235.67,-87.32 236.3,-80.35"/>
</g>
<!-- Node19 -->
<g id="node19" class="node">
<title>Node19</title>
<g id="a_node19"><a xlink:title=" ">
<polygon fill="white" stroke="#bfbfbf" points="590,-67.5 590,-86.5 638,-86.5 638,-67.5 590,-67.5"/>
<text text-anchor="middle" x="614" y="-74.5" font-family="Helvetica,sans-Serif" font-size="10.00">thread</text>
</a>
</g>
</g>
<!-- Node13&#45;&gt;Node19 -->
<g id="edge23" class="edge">
<title>Node13&#45;&gt;Node19</title>
<path fill="none" stroke="midnightblue" d="M746.96,-123.44C720.15,-114.28 677.45,-99.68 647.69,-89.52"/>
<polygon fill="midnightblue" stroke="midnightblue" points="648.74,-86.17 638.14,-86.25 646.47,-92.8 648.74,-86.17"/>
</g>
<!-- Node20 -->
<g id="node20" class="node">
<title>Node20</title>
<g id="a_node20"><a xlink:title=" ">
<polygon fill="white" stroke="#bfbfbf" points="694,-67.5 694,-86.5 744,-86.5 744,-67.5 694,-67.5"/>
<text text-anchor="middle" x="719" y="-74.5" font-family="Helvetica,sans-Serif" font-size="10.00">atomic</text>
</a>
</g>
</g>
<!-- Node13&#45;&gt;Node20 -->
<g id="edge24" class="edge">
<title>Node13&#45;&gt;Node20</title>
<path fill="none" stroke="midnightblue" d="M763.25,-123.08C755.53,-115.22 744.1,-103.57 734.78,-94.08"/>
<polygon fill="midnightblue" stroke="midnightblue" points="737.09,-91.44 727.59,-86.75 732.1,-96.34 737.09,-91.44"/>
</g>
<!-- Node21 -->
<g id="node21" class="node">
<title>Node21</title>
<g id="a_node21"><a xlink:href="GreenSock_8h.html" target="_top" xlink:title=" ">
<polygon fill="white" stroke="black" points="762,-67.5 762,-86.5 840,-86.5 840,-67.5 762,-67.5"/>
<text text-anchor="middle" x="801" y="-74.5" font-family="Helvetica,sans-Serif" font-size="10.00">GreenSock.h</text>
</a>
</g>
</g>
<!-- Node13&#45;&gt;Node21 -->
<g id="edge25" class="edge">
<title>Node13&#45;&gt;Node21</title>
<path fill="none" stroke="midnightblue" d="M776.79,-123.08C780.76,-115.69 786.53,-104.95 791.43,-95.81"/>
<polygon fill="midnightblue" stroke="midnightblue" points="794.65,-97.22 796.3,-86.75 788.49,-93.91 794.65,-97.22"/>
</g>
<!-- Node24 -->
<g id="node24" class="node">
<title>Node24</title>
<g id="a_node24"><a xlink:title=" ">
<polygon fill="white" stroke="#bfbfbf" points="1260,-6 1260,-25 1308,-25 1308,-6 1260,-6"/>
<text text-anchor="middle" x="1284" y="-13" font-family="Helvetica,sans-Serif" font-size="10.00">mutex</text>
</a>
</g>
</g>
<!-- Node13&#45;&gt;Node24 -->
<g id="edge37" class="edge">
<title>Node13&#45;&gt;Node24</title>
<path fill="none" stroke="midnightblue" d="M797.18,-128.25C810.23,-126.42 826.44,-124.34 841,-123 878.23,-119.58 1487.28,-114.13 1513,-87 1570.67,-26.16 1395.64,-17.42 1318.53,-16.45"/>
<polygon fill="midnightblue" stroke="midnightblue" points="1318.37,-12.95 1308.34,-16.36 1318.31,-19.95 1318.37,-12.95"/>
</g>
<!-- Node25 -->
<g id="node25" class="node">
<title>Node25</title>
<g id="a_node25"><a xlink:href="Logger_8h.html" target="_top" xlink:title="Header for Strategy Logger interface.">
<polygon fill="white" stroke="black" points="514,-67.5 514,-86.5 572,-86.5 572,-67.5 514,-67.5"/>
<text text-anchor="middle" x="543" y="-74.5" font-family="Helvetica,sans-Serif" font-size="10.00">Logger.h</text>
</a>
</g>
</g>
<!-- Node13&#45;&gt;Node25 -->
<g id="edge31" class="edge">
<title>Node13&#45;&gt;Node25</title>
<path fill="none" stroke="midnightblue" d="M746.97,-126.11C712.25,-117.95 647.27,-102.65 582.08,-87.25"/>
<polygon fill="midnightblue" stroke="midnightblue" points="582.58,-83.78 572.05,-84.88 580.97,-90.59 582.58,-83.78"/>
</g>
<!-- Node27 -->
<g id="node27" class="node">
<title>Node27</title>
<g id="a_node27"><a xlink:title=" ">
<polygon fill="white" stroke="#bfbfbf" points="858.5,-67.5 858.5,-86.5 905.5,-86.5 905.5,-67.5 858.5,-67.5"/>
<text text-anchor="middle" x="882" y="-74.5" font-family="Helvetica,sans-Serif" font-size="10.00">queue</text>
</a>
</g>
</g>
<!-- Node13&#45;&gt;Node27 -->
<g id="edge35" class="edge">
<title>Node13&#45;&gt;Node27</title>
<path fill="none" stroke="midnightblue" d="M789.67,-123.32C807.39,-114.62 834.9,-101.12 855.29,-91.11"/>
<polygon fill="midnightblue" stroke="midnightblue" points="856.94,-94.2 864.37,-86.65 853.85,-87.92 856.94,-94.2"/>
</g>
<!-- Node28 -->
<g id="node28" class="node">
<title>Node28</title>
<g id="a_node28"><a xlink:title=" ">
<polygon fill="white" stroke="#bfbfbf" points="924,-67.5 924,-86.5 982,-86.5 982,-67.5 924,-67.5"/>
<text text-anchor="middle" x="953" y="-74.5" font-family="Helvetica,sans-Serif" font-size="10.00">memory</text>
</a>
</g>
</g>
<!-- Node13&#45;&gt;Node28 -->
<g id="edge36" class="edge">
<title>Node13&#45;&gt;Node28</title>
<path fill="none" stroke="midnightblue" d="M797.17,-124.49C827.58,-115.42 879.07,-100.06 914.49,-89.49"/>
<polygon fill="midnightblue" stroke="midnightblue" points="915.89,-92.72 924.47,-86.51 913.89,-86.02 915.89,-92.72"/>
</g>
<!-- Node21&#45;&gt;Node5 -->
<g id="edge29" class="edge">
<title>Node21&#45;&gt;Node5</title>
<path fill="none" stroke="midnightblue" d="M761.99,-68.56C758.95,-68.02 755.93,-67.49 753,-67 640.96,-48.13 507.4,-29.23 447.22,-20.91"/>
<polygon fill="midnightblue" stroke="midnightblue" points="447.58,-17.42 437.19,-19.53 446.62,-24.36 447.58,-17.42"/>
</g>
<!-- Node21&#45;&gt;Node6 -->
<g id="edge28" class="edge">
<title>Node21&#45;&gt;Node6</title>
<path fill="none" stroke="midnightblue" d="M781.66,-67.48C758.9,-57.45 720.91,-40.7 694.71,-29.15"/>
<polygon fill="midnightblue" stroke="midnightblue" points="695.87,-25.84 685.31,-25.01 693.05,-32.24 695.87,-25.84"/>
</g>
<!-- Node22 -->
<g id="node22" class="node">
<title>Node22</title>
<g id="a_node22"><a xlink:title=" ">
<polygon fill="white" stroke="#bfbfbf" points="729.5,-0.5 729.5,-30.5 842.5,-30.5 842.5,-0.5 729.5,-0.5"/>
<text text-anchor="start" x="737.5" y="-18.5" font-family="Helvetica,sans-Serif" font-size="10.00">websocketpp/config</text>
<text text-anchor="middle" x="786" y="-7.5" font-family="Helvetica,sans-Serif" font-size="10.00">/asio_no_tls.hpp</text>
</a>
</g>
</g>
<!-- Node21&#45;&gt;Node22 -->
<g id="edge26" class="edge">
<title>Node21&#45;&gt;Node22</title>
<path fill="none" stroke="midnightblue" d="M798.85,-67.48C797.07,-60.4 794.44,-49.97 792.02,-40.39"/>
<polygon fill="midnightblue" stroke="midnightblue" points="795.37,-39.36 789.54,-30.52 788.59,-41.08 795.37,-39.36"/>
</g>
<!-- Node23 -->
<g id="node23" class="node">
<title>Node23</title>
<g id="a_node23"><a xlink:title=" ">
<polygon fill="white" stroke="#bfbfbf" points="861,-6 861,-25 995,-25 995,-6 861,-6"/>
<text text-anchor="middle" x="928" y="-13" font-family="Helvetica,sans-Serif" font-size="10.00">websocketpp/server.hpp</text>
</a>
</g>
</g>
<!-- Node21&#45;&gt;Node23 -->
<g id="edge27" class="edge">
<title>Node21&#45;&gt;Node23</title>
<path fill="none" stroke="midnightblue" d="M819.2,-67.48C840.51,-57.49 876.03,-40.85 900.66,-29.31"/>
<polygon fill="midnightblue" stroke="midnightblue" points="902.27,-32.42 909.84,-25.01 899.3,-26.08 902.27,-32.42"/>
</g>
<!-- Node21&#45;&gt;Node24 -->
<g id="edge30" class="edge">
<title>Node21&#45;&gt;Node24</title>
<path fill="none" stroke="midnightblue" d="M840.25,-68.41C843.21,-67.91 846.15,-67.43 849,-67 997.66,-44.46 1176.25,-26.61 1249.8,-19.65"/>
<polygon fill="midnightblue" stroke="midnightblue" points="1250.24,-23.12 1259.87,-18.7 1249.59,-16.16 1250.24,-23.12"/>
</g>
<!-- Node25&#45;&gt;Node5 -->
<g id="edge32" class="edge">
<title>Node25&#45;&gt;Node5</title>
<path fill="none" stroke="midnightblue" d="M524.66,-67.48C503.18,-57.49 467.38,-40.85 442.55,-29.31"/>
<polygon fill="midnightblue" stroke="midnightblue" points="443.85,-26.05 433.31,-25.01 440.9,-32.4 443.85,-26.05"/>
</g>
<!-- Node25&#45;&gt;Node6 -->
<g id="edge33" class="edge">
<title>Node25&#45;&gt;Node6</title>
<path fill="none" stroke="midnightblue" d="M560.62,-67.48C581.17,-57.53 615.36,-40.99 639.21,-29.46"/>
<polygon fill="midnightblue" stroke="midnightblue" points="640.93,-32.51 648.41,-25.01 637.88,-26.21 640.93,-32.51"/>
</g>
<!-- Node25&#45;&gt;Node26 -->
<g id="edge34" class="edge">
<title>Node25&#45;&gt;Node26</title>
<path fill="none" stroke="midnightblue" d="M513.88,-69.74C464.84,-59.21 365.58,-37.89 308.67,-25.67"/>
<polygon fill="midnightblue" stroke="midnightblue" points="309.07,-22.17 298.56,-23.49 307.6,-29.02 309.07,-22.17"/>
</g>
<!-- Node29&#45;&gt;Node4 -->
<g id="edge48" class="edge">
<title>Node29&#45;&gt;Node4</title>
<path fill="none" stroke="midnightblue" d="M393.15,-235.43C412.97,-228.95 435.14,-217.83 447,-199 467,-167.25 452.99,-121.31 442.53,-96.15"/>
<polygon fill="midnightblue" stroke="midnightblue" points="445.62,-94.48 438.38,-86.75 439.22,-97.31 445.62,-94.48"/>
</g>
<!-- Node29&#45;&gt;Node6 -->
<g id="edge47" class="edge">
<title>Node29&#45;&gt;Node6</title>
<path fill="none" stroke="midnightblue" d="M344.5,-235.45C333.47,-223.29 316.37,-200.11 323,-179 341.17,-121.12 350.11,-100.01 401,-67 437.57,-43.28 561.06,-27.36 625.74,-20.43"/>
<polygon fill="midnightblue" stroke="midnightblue" points="626.38,-23.88 635.96,-19.36 625.65,-16.92 626.38,-23.88"/>
</g>
<!-- Node29&#45;&gt;Node12 -->
<g id="edge46" class="edge">
<title>Node29&#45;&gt;Node12</title>
<path fill="none" stroke="midnightblue" d="M387.07,-235.44C424.18,-226.12 483.66,-211.18 524.21,-201"/>
<polygon fill="midnightblue" stroke="midnightblue" points="525.25,-204.35 534.09,-198.52 523.54,-197.56 525.25,-204.35"/>
</g>
<!-- Node29&#45;&gt;Node18 -->
<g id="edge50" class="edge">
<title>Node29&#45;&gt;Node18</title>
<path fill="none" stroke="midnightblue" d="M322.7,-235.47C301.24,-228.32 272.7,-216.44 252,-199 217.16,-169.66 191.24,-121.68 178.94,-95.83"/>
<polygon fill="midnightblue" stroke="midnightblue" points="182.01,-94.13 174.64,-86.52 175.65,-97.06 182.01,-94.13"/>
</g>
<!-- Node29&#45;&gt;Node26 -->
<g id="edge49" class="edge">
<title>Node29&#45;&gt;Node26</title>
<path fill="none" stroke="midnightblue" d="M333.4,-235.38C318.91,-227.93 300.03,-215.71 290,-199 258.52,-146.57 260.7,-70.54 263.8,-35.5"/>
<polygon fill="midnightblue" stroke="midnightblue" points="267.31,-35.58 264.84,-25.28 260.34,-34.87 267.31,-35.58"/>
</g>
<!-- Node30 -->
<g id="node30" class="node">
<title>Node30</title>
<g id="a_node30"><a xlink:href="TransactionMem_8h.html" target="_top" xlink:title=" ">
<polygon fill="white" stroke="black" points="332,-179.5 332,-198.5 438,-198.5 438,-179.5 332,-179.5"/>
<text text-anchor="middle" x="385" y="-186.5" font-family="Helvetica,sans-Serif" font-size="10.00">TransactionMem.h</text>
</a>
</g>
</g>
<!-- Node29&#45;&gt;Node30 -->
<g id="edge41" class="edge">
<title>Node29&#45;&gt;Node30</title>
<path fill="none" stroke="midnightblue" d="M358.28,-235.08C362.71,-227.61 369.16,-216.72 374.62,-207.52"/>
<polygon fill="midnightblue" stroke="midnightblue" points="377.73,-209.14 379.81,-198.75 371.71,-205.57 377.73,-209.14"/>
</g>
<!-- Node29&#45;&gt;Node31 -->
<g id="edge44" class="edge">
<title>Node29&#45;&gt;Node31</title>
<path fill="none" stroke="midnightblue" d="M324.16,-235.44C293.14,-226.24 243.67,-211.56 209.38,-201.39"/>
<polygon fill="midnightblue" stroke="midnightblue" points="210.29,-198.01 199.7,-198.52 208.29,-204.72 210.29,-198.01"/>
</g>
<!-- Node30&#45;&gt;Node5 -->
<g id="edge43" class="edge">
<title>Node30&#45;&gt;Node5</title>
<path fill="none" stroke="midnightblue" d="M375.3,-179.23C354.05,-158.91 307.06,-107.31 330,-67 341.35,-47.05 364.03,-34.17 383.11,-26.41"/>
<polygon fill="midnightblue" stroke="midnightblue" points="384.55,-29.61 392.68,-22.81 382.08,-23.05 384.55,-29.61"/>
</g>
<!-- Node30&#45;&gt;Node13 -->
<g id="edge42" class="edge">
<title>Node30&#45;&gt;Node13</title>
<path fill="none" stroke="midnightblue" d="M438.4,-180.55C518.71,-169.34 668.39,-148.46 736.55,-138.95"/>
<polygon fill="midnightblue" stroke="midnightblue" points="737.35,-142.37 746.77,-137.52 736.38,-135.44 737.35,-142.37"/>
</g>
<!-- Node31&#45;&gt;Node18 -->
<g id="edge45" class="edge">
<title>Node31&#45;&gt;Node18</title>
<path fill="none" stroke="midnightblue" d="M171,-179.37C171,-161.62 171,-120.67 171,-96.6"/>
<polygon fill="midnightblue" stroke="midnightblue" points="174.5,-96.59 171,-86.59 167.5,-96.59 174.5,-96.59"/>
</g>
</g>
</svg>
        <g id="navigator" transform="translate(0 0)" fill="#404254">
                <rect fill="#f2f5e9" fill-opacity="0.5" stroke="#606060" stroke-width=".5" x="0" y="0" width="60" height="60"/>
                <use id="zoomplus" xlink:href="#zoomPlus" x="17" y="9" onmousedown="handleZoom(evt,'in')"/>
                <use id="zoomminus" xlink:href="#zoomMin" x="42" y="9" onmousedown="handleZoom(evt,'out')"/>
                <use id="reset" xlink:href="#resetDef" x="30" y="36" onmousedown="handleReset()"/>
                <g id="arrowUp" xlink:href="#dirArrow" transform="translate(30 24)" onmousedown="handlePan(0,-1)">
                  <use xlink:href="#rim" fill="#404040">
                        <set attributeName="fill" to="#808080" begin="arrowUp.mouseover" end="arrowUp.mouseout"/>
                  </use>
                  <path fill="none" stroke="white" stroke-width="1.5" d="M0,-3.0v7 M-2.5,-0.5L0,-3.0L2.5,-0.5"/>
                </g>
                <g id="arrowRight" xlink:href="#dirArrow" transform="rotate(90) translate(36 -43)" onmousedown="handlePan(1,0)">
                  <use xlink:href="#rim" fill="#404040">
                        <set attributeName="fill" to="#808080" begin="arrowRight.mouseover" end="arrowRight.mouseout"/>
                  </use>
                  <path fill="none" stroke="white" stroke-width="1.5" d="M0,-3.0v7 M-2.5,-0.5L0,-3.0L2.5,-0.5"/>
                </g>
                <g id="arrowDown" xlink:href="#dirArrow" transform="rotate(180) translate(-30 -48)" onmousedown="handlePan(0,1)">
                  <use xlink:href="#rim" fill="#404040">
                        <set attributeName="fill" to="#808080" begin="arrowDown.mouseover" end="arrowDown.mouseout"/>
                  </use>
                  <path fill="none" stroke="white" stroke-width="1.5" d="M0,-3.0v7 M-2.5,-0.5L0,-3.0L2.5,-0.5"/>
                </g>
                <g id="arrowLeft" xlink:href="#dirArrow" transform="rotate(270) translate(-36 17)" onmousedown="handlePan(-1,0)">
                  <use xlink:href="#rim" fill="#404040">
                        <set attributeName="fill" to="#808080" begin="arrowLeft.mouseover" end="arrowLeft.mouseout"/>
                  </use>
                  <path fill="none" stroke="white" stroke-width="1.5" d="M0,-3.0v7 M-2.5,-0.5L0,-3.0L2.5,-0.5"/>
                </g>
        </g>
        <svg viewBox="0 0 15 15" width="100%" height="30px" preserveAspectRatio="xMaxYMin meet">
         <g id="arrow_out" transform="scale(0.3 0.3)">
          <a xlink:href="GreenFingerCustomer_8cpp__incl_org.svg" target="_base">
           <rect id="button" ry="5" rx="5" y="6" x="6" height="38" width="38"
                fill="#f2f5e9" fill-opacity="0.5" stroke="#606060" stroke-width="1.0"/>
           <path id="arrow"
             d="M 11.500037,31.436501 C 11.940474,20.09759 22.043105,11.32322 32.158766,21.979434 L 37.068811,17.246167 C 37.068811,17.246167 37.088388,32 37.088388,32 L 22.160133,31.978069 C 22.160133,31.978069 26.997745,27.140456 26.997745,27.140456 C 18.528582,18.264221 13.291696,25.230495 11.500037,31.436501 z"
             style="fill:#404040;"/>
          </a>
         </g>
        </svg>
</svg>
