<?xml version="1.0" encoding="UTF-8" standalone="no"?>
<!DOCTYPE svg PUBLIC "-//W3C//DTD SVG 1.1//EN"
 "http://www.w3.org/Graphics/SVG/1.1/DTD/svg11.dtd">
<!-- Generated by graphviz version 2.43.0 (0)
 -->
<!-- Title: backend/greenhouse/GreenhouseStaff.h Pages: 1 -->
<svg width="505pt" height="218pt"
 viewBox="0.00 0.00 505.00 218.00" xmlns="http://www.w3.org/2000/svg" xmlns:xlink="http://www.w3.org/1999/xlink">
<g id="graph0" class="graph" transform="scale(1 1) rotate(0) translate(4 214)">
<title>backend/greenhouse/GreenhouseStaff.h</title>
<polygon fill="white" stroke="transparent" points="-4,4 -4,-214 501,-214 501,4 -4,4"/>
<!-- Node1 -->
<g id="node1" class="node">
<title>Node1</title>
<g id="a_node1"><a xlink:title="Abstract base class for greenhouse staff observers.">
<polygon fill="#bfbfbf" stroke="black" points="27.5,-179.5 27.5,-209.5 144.5,-209.5 144.5,-179.5 27.5,-179.5"/>
<text text-anchor="start" x="35.5" y="-197.5" font-family="Helvetica,sans-Serif" font-size="10.00">backend/greenhouse</text>
<text text-anchor="middle" x="86" y="-186.5" font-family="Helvetica,sans-Serif" font-size="10.00">/GreenhouseStaff.h</text>
</a>
</g>
</g>
<!-- Node2 -->
<g id="node2" class="node">
<title>Node2</title>
<g id="a_node2"><a xlink:title=" ">
<polygon fill="white" stroke="#bfbfbf" points="0,-6 0,-25 44,-25 44,-6 0,-6"/>
<text text-anchor="middle" x="22" y="-13" font-family="Helvetica,sans-Serif" font-size="10.00">string</text>
</a>
</g>
</g>
<!-- Node1&#45;&gt;Node2 -->
<g id="edge1" class="edge">
<title>Node1&#45;&gt;Node2</title>
<path fill="none" stroke="midnightblue" d="M70.74,-179.43C51.55,-160.57 19.57,-125.03 7,-87 1.25,-69.6 6.99,-49.03 12.95,-34.62"/>
<polygon fill="midnightblue" stroke="midnightblue" points="16.22,-35.9 17.17,-25.35 9.85,-33 16.22,-35.9"/>
</g>
<!-- Node3 -->
<g id="node3" class="node">
<title>Node3</title>
<g id="a_node3"><a xlink:href="PlantHealth_8h.html" target="_top" xlink:title="Health management system for plant lifecycle and care requirements.">
<polygon fill="white" stroke="black" points="179.5,-123.5 179.5,-142.5 262.5,-142.5 262.5,-123.5 179.5,-123.5"/>
<text text-anchor="middle" x="221" y="-130.5" font-family="Helvetica,sans-Serif" font-size="10.00">PlantHealth.h</text>
</a>
</g>
</g>
<!-- Node1&#45;&gt;Node3 -->
<g id="edge2" class="edge">
<title>Node1&#45;&gt;Node3</title>
<path fill="none" stroke="midnightblue" d="M117.99,-179.4C140.44,-169.51 170.21,-156.38 191.98,-146.79"/>
<polygon fill="midnightblue" stroke="midnightblue" points="193.62,-149.89 201.36,-142.66 190.79,-143.49 193.62,-149.89"/>
</g>
<!-- Node4 -->
<g id="node4" class="node">
<title>Node4</title>
<g id="a_node4"><a xlink:title=" ">
<polygon fill="white" stroke="#bfbfbf" points="371,-6 371,-25 431,-25 431,-6 371,-6"/>
<text text-anchor="middle" x="401" y="-13" font-family="Helvetica,sans-Serif" font-size="10.00">iostream</text>
</a>
</g>
</g>
<!-- Node3&#45;&gt;Node4 -->
<g id="edge3" class="edge">
<title>Node3&#45;&gt;Node4</title>
<path fill="none" stroke="midnightblue" d="M262.62,-126.31C307.28,-119.32 374.12,-106 391,-87 403.42,-73.02 404.65,-50.94 403.58,-35.22"/>
<polygon fill="midnightblue" stroke="midnightblue" points="407.05,-34.68 402.53,-25.1 400.09,-35.41 407.05,-34.68"/>
</g>
<!-- Node5 -->
<g id="node5" class="node">
<title>Node5</title>
<g id="a_node5"><a xlink:title=" ">
<polygon fill="white" stroke="#bfbfbf" points="449,-6 449,-25 497,-25 497,-6 449,-6"/>
<text text-anchor="middle" x="473" y="-13" font-family="Helvetica,sans-Serif" font-size="10.00">mutex</text>
</a>
</g>
</g>
<!-- Node3&#45;&gt;Node5 -->
<g id="edge4" class="edge">
<title>Node3&#45;&gt;Node5</title>
<path fill="none" stroke="midnightblue" d="M262.88,-129.1C302.83,-124.75 363.51,-113.92 409,-87 431.36,-73.77 450.38,-50.21 461.74,-34"/>
<polygon fill="midnightblue" stroke="midnightblue" points="464.83,-35.68 467.51,-25.43 459.02,-31.77 464.83,-35.68"/>
</g>
<!-- Node6 -->
<g id="node6" class="node">
<title>Node6</title>
<g id="a_node6"><a xlink:title=" ">
<polygon fill="white" stroke="#bfbfbf" points="16,-67.5 16,-86.5 66,-86.5 66,-67.5 16,-67.5"/>
<text text-anchor="middle" x="41" y="-74.5" font-family="Helvetica,sans-Serif" font-size="10.00">chrono</text>
</a>
</g>
</g>
<!-- Node3&#45;&gt;Node6 -->
<g id="edge5" class="edge">
<title>Node3&#45;&gt;Node6</title>
<path fill="none" stroke="midnightblue" d="M192.48,-123.44C160.95,-113.98 110.13,-98.74 76.15,-88.55"/>
<polygon fill="midnightblue" stroke="midnightblue" points="76.78,-85.08 66.19,-85.56 74.77,-91.78 76.78,-85.08"/>
</g>
<!-- Node7 -->
<g id="node7" class="node">
<title>Node7</title>
<g id="a_node7"><a xlink:title=" ">
<polygon fill="white" stroke="#bfbfbf" points="84,-67.5 84,-86.5 138,-86.5 138,-67.5 84,-67.5"/>
<text text-anchor="middle" x="111" y="-74.5" font-family="Helvetica,sans-Serif" font-size="10.00">random</text>
</a>
</g>
</g>
<!-- Node3&#45;&gt;Node7 -->
<g id="edge6" class="edge">
<title>Node3&#45;&gt;Node7</title>
<path fill="none" stroke="midnightblue" d="M203.33,-123.32C185.61,-114.62 158.1,-101.12 137.71,-91.11"/>
<polygon fill="midnightblue" stroke="midnightblue" points="139.15,-87.92 128.63,-86.65 136.06,-94.2 139.15,-87.92"/>
</g>
<!-- Node8 -->
<g id="node8" class="node">
<title>Node8</title>
<g id="a_node8"><a xlink:href="GreenSock_8h.html" target="_top" xlink:title=" ">
<polygon fill="white" stroke="black" points="304,-67.5 304,-86.5 382,-86.5 382,-67.5 304,-67.5"/>
<text text-anchor="middle" x="343" y="-74.5" font-family="Helvetica,sans-Serif" font-size="10.00">GreenSock.h</text>
</a>
</g>
</g>
<!-- Node3&#45;&gt;Node8 -->
<g id="edge7" class="edge">
<title>Node3&#45;&gt;Node8</title>
<path fill="none" stroke="midnightblue" d="M240.33,-123.44C260.32,-114.6 291.74,-100.69 314.56,-90.59"/>
<polygon fill="midnightblue" stroke="midnightblue" points="316.03,-93.76 323.76,-86.52 313.2,-87.36 316.03,-93.76"/>
</g>
<!-- Node11 -->
<g id="node11" class="node">
<title>Node11</title>
<g id="a_node11"><a xlink:title=" ">
<polygon fill="white" stroke="#bfbfbf" points="156,-67.5 156,-86.5 212,-86.5 212,-67.5 156,-67.5"/>
<text text-anchor="middle" x="184" y="-74.5" font-family="Helvetica,sans-Serif" font-size="10.00">sstream</text>
</a>
</g>
</g>
<!-- Node3&#45;&gt;Node11 -->
<g id="edge13" class="edge">
<title>Node3&#45;&gt;Node11</title>
<path fill="none" stroke="midnightblue" d="M214.89,-123.08C209.72,-115.53 202.15,-104.49 195.81,-95.23"/>
<polygon fill="midnightblue" stroke="midnightblue" points="198.54,-93.02 190,-86.75 192.76,-96.98 198.54,-93.02"/>
</g>
<!-- Node12 -->
<g id="node12" class="node">
<title>Node12</title>
<g id="a_node12"><a xlink:title=" ">
<polygon fill="white" stroke="#bfbfbf" points="230,-67.5 230,-86.5 286,-86.5 286,-67.5 230,-67.5"/>
<text text-anchor="middle" x="258" y="-74.5" font-family="Helvetica,sans-Serif" font-size="10.00">iomanip</text>
</a>
</g>
</g>
<!-- Node3&#45;&gt;Node12 -->
<g id="edge14" class="edge">
<title>Node3&#45;&gt;Node12</title>
<path fill="none" stroke="midnightblue" d="M227.11,-123.08C232.28,-115.53 239.85,-104.49 246.19,-95.23"/>
<polygon fill="midnightblue" stroke="midnightblue" points="249.24,-96.98 252,-86.75 243.46,-93.02 249.24,-96.98"/>
</g>
<!-- Node8&#45;&gt;Node2 -->
<g id="edge11" class="edge">
<title>Node8&#45;&gt;Node2</title>
<path fill="none" stroke="midnightblue" d="M303.98,-68.61C300.94,-68.06 297.92,-67.52 295,-67 198.73,-49.99 173.64,-51.27 78,-31 70.21,-29.35 61.88,-27.33 54.08,-25.33"/>
<polygon fill="midnightblue" stroke="midnightblue" points="54.8,-21.9 44.24,-22.74 53.02,-28.67 54.8,-21.9"/>
</g>
<!-- Node8&#45;&gt;Node4 -->
<g id="edge10" class="edge">
<title>Node8&#45;&gt;Node4</title>
<path fill="none" stroke="midnightblue" d="M351.31,-67.48C360.18,-58.37 374.45,-43.74 385.42,-32.48"/>
<polygon fill="midnightblue" stroke="midnightblue" points="388.23,-34.61 392.71,-25.01 383.22,-29.73 388.23,-34.61"/>
</g>
<!-- Node8&#45;&gt;Node5 -->
<g id="edge12" class="edge">
<title>Node8&#45;&gt;Node5</title>
<path fill="none" stroke="midnightblue" d="M361.63,-67.48C383.44,-57.49 419.8,-40.85 445.02,-29.31"/>
<polygon fill="midnightblue" stroke="midnightblue" points="446.77,-32.35 454.41,-25.01 443.86,-25.99 446.77,-32.35"/>
</g>
<!-- Node9 -->
<g id="node9" class="node">
<title>Node9</title>
<g id="a_node9"><a xlink:title=" ">
<polygon fill="white" stroke="#bfbfbf" points="239.5,-0.5 239.5,-30.5 352.5,-30.5 352.5,-0.5 239.5,-0.5"/>
<text text-anchor="start" x="247.5" y="-18.5" font-family="Helvetica,sans-Serif" font-size="10.00">websocketpp/config</text>
<text text-anchor="middle" x="296" y="-7.5" font-family="Helvetica,sans-Serif" font-size="10.00">/asio_no_tls.hpp</text>
</a>
</g>
</g>
<!-- Node8&#45;&gt;Node9 -->
<g id="edge8" class="edge">
<title>Node8&#45;&gt;Node9</title>
<path fill="none" stroke="midnightblue" d="M336.27,-67.48C330.32,-59.94 321.38,-48.63 313.43,-38.57"/>
<polygon fill="midnightblue" stroke="midnightblue" points="316.02,-36.2 307.08,-30.52 310.53,-40.54 316.02,-36.2"/>
</g>
<!-- Node10 -->
<g id="node10" class="node">
<title>Node10</title>
<g id="a_node10"><a xlink:title=" ">
<polygon fill="white" stroke="#bfbfbf" points="87,-6 87,-25 221,-25 221,-6 87,-6"/>
<text text-anchor="middle" x="154" y="-13" font-family="Helvetica,sans-Serif" font-size="10.00">websocketpp/server.hpp</text>
</a>
</g>
</g>
<!-- Node8&#45;&gt;Node10 -->
<g id="edge9" class="edge">
<title>Node8&#45;&gt;Node10</title>
<path fill="none" stroke="midnightblue" d="M315.92,-67.48C283.08,-57.14 227.57,-39.66 190.85,-28.1"/>
<polygon fill="midnightblue" stroke="midnightblue" points="191.62,-24.67 181.03,-25.01 189.52,-31.35 191.62,-24.67"/>
</g>
</g>
</svg>
