<?xml version="1.0" encoding="UTF-8" standalone="no"?>
<!DOCTYPE svg PUBLIC "-//W3C//DTD SVG 1.1//EN"
 "http://www.w3.org/Graphics/SVG/1.1/DTD/svg11.dtd">
<!-- Generated by graphviz version 2.43.0 (0)
 -->
<!-- Title: backend/WS/GreenSock.h Pages: 1 -->
<svg width="480pt" height="95pt"
 viewBox="0.00 0.00 479.50 95.00" xmlns="http://www.w3.org/2000/svg" xmlns:xlink="http://www.w3.org/1999/xlink">
<g id="graph0" class="graph" transform="scale(1 1) rotate(0) translate(4 91)">
<title>backend/WS/GreenSock.h</title>
<polygon fill="white" stroke="transparent" points="-4,4 -4,-91 475.5,-91 475.5,4 -4,4"/>
<!-- Node1 -->
<g id="node1" class="node">
<title>Node1</title>
<g id="a_node1"><a xlink:title=" ">
<polygon fill="#bfbfbf" stroke="black" points="243.5,-67.5 243.5,-86.5 383.5,-86.5 383.5,-67.5 243.5,-67.5"/>
<text text-anchor="middle" x="313.5" y="-74.5" font-family="Helvetica,sans-Serif" font-size="10.00">backend/WS/GreenSock.h</text>
</a>
</g>
</g>
<!-- Node2 -->
<g id="node2" class="node">
<title>Node2</title>
<g id="a_node2"><a xlink:title=" ">
<polygon fill="white" stroke="#bfbfbf" points="0,-0.5 0,-30.5 113,-30.5 113,-0.5 0,-0.5"/>
<text text-anchor="start" x="8" y="-18.5" font-family="Helvetica,sans-Serif" font-size="10.00">websocketpp/config</text>
<text text-anchor="middle" x="56.5" y="-7.5" font-family="Helvetica,sans-Serif" font-size="10.00">/asio_no_tls.hpp</text>
</a>
</g>
</g>
<!-- Node1&#45;&gt;Node2 -->
<g id="edge1" class="edge">
<title>Node1&#45;&gt;Node2</title>
<path fill="none" stroke="midnightblue" d="M276.68,-67.48C236.68,-58.22 171.97,-43.23 123.03,-31.9"/>
<polygon fill="midnightblue" stroke="midnightblue" points="123.68,-28.46 113.15,-29.62 122.1,-35.28 123.68,-28.46"/>
</g>
<!-- Node3 -->
<g id="node3" class="node">
<title>Node3</title>
<g id="a_node3"><a xlink:title=" ">
<polygon fill="white" stroke="#bfbfbf" points="131.5,-6 131.5,-25 265.5,-25 265.5,-6 131.5,-6"/>
<text text-anchor="middle" x="198.5" y="-13" font-family="Helvetica,sans-Serif" font-size="10.00">websocketpp/server.hpp</text>
</a>
</g>
</g>
<!-- Node1&#45;&gt;Node3 -->
<g id="edge2" class="edge">
<title>Node1&#45;&gt;Node3</title>
<path fill="none" stroke="midnightblue" d="M297.02,-67.48C277.89,-57.58 246.13,-41.14 223.85,-29.62"/>
<polygon fill="midnightblue" stroke="midnightblue" points="225.44,-26.5 214.95,-25.01 222.22,-32.71 225.44,-26.5"/>
</g>
<!-- Node4 -->
<g id="node4" class="node">
<title>Node4</title>
<g id="a_node4"><a xlink:title=" ">
<polygon fill="white" stroke="#bfbfbf" points="283.5,-6 283.5,-25 343.5,-25 343.5,-6 283.5,-6"/>
<text text-anchor="middle" x="313.5" y="-13" font-family="Helvetica,sans-Serif" font-size="10.00">iostream</text>
</a>
</g>
</g>
<!-- Node1&#45;&gt;Node4 -->
<g id="edge3" class="edge">
<title>Node1&#45;&gt;Node4</title>
<path fill="none" stroke="midnightblue" d="M313.5,-67.48C313.5,-59.08 313.5,-45.98 313.5,-35.16"/>
<polygon fill="midnightblue" stroke="midnightblue" points="317,-35.01 313.5,-25.01 310,-35.01 317,-35.01"/>
</g>
<!-- Node5 -->
<g id="node5" class="node">
<title>Node5</title>
<g id="a_node5"><a xlink:title=" ">
<polygon fill="white" stroke="#bfbfbf" points="361.5,-6 361.5,-25 405.5,-25 405.5,-6 361.5,-6"/>
<text text-anchor="middle" x="383.5" y="-13" font-family="Helvetica,sans-Serif" font-size="10.00">string</text>
</a>
</g>
</g>
<!-- Node1&#45;&gt;Node5 -->
<g id="edge4" class="edge">
<title>Node1&#45;&gt;Node5</title>
<path fill="none" stroke="midnightblue" d="M323.53,-67.48C334.55,-58.11 352.46,-42.88 365.84,-31.51"/>
<polygon fill="midnightblue" stroke="midnightblue" points="368.14,-34.15 373.49,-25.01 363.6,-28.82 368.14,-34.15"/>
</g>
<!-- Node6 -->
<g id="node6" class="node">
<title>Node6</title>
<g id="a_node6"><a xlink:title=" ">
<polygon fill="white" stroke="#bfbfbf" points="423.5,-6 423.5,-25 471.5,-25 471.5,-6 423.5,-6"/>
<text text-anchor="middle" x="447.5" y="-13" font-family="Helvetica,sans-Serif" font-size="10.00">mutex</text>
</a>
</g>
</g>
<!-- Node1&#45;&gt;Node6 -->
<g id="edge5" class="edge">
<title>Node1&#45;&gt;Node6</title>
<path fill="none" stroke="midnightblue" d="M332.7,-67.48C355.29,-57.45 393,-40.7 419,-29.15"/>
<polygon fill="midnightblue" stroke="midnightblue" points="420.62,-32.27 428.34,-25.01 417.78,-25.87 420.62,-32.27"/>
</g>
</g>
</svg>
