<?xml version="1.0" encoding="UTF-8" standalone="no"?>
<!DOCTYPE svg PUBLIC "-//W3C//DTD SVG 1.1//EN"
 "http://www.w3.org/Graphics/SVG/1.1/DTD/svg11.dtd">
<!-- Generated by graphviz version 2.43.0 (0)
 -->
<!-- Title: backend/greenhouse/Greenhouse.h Pages: 1 -->
<!--zoomable 386 -->
<svg id="main" version="1.1" xmlns="http://www.w3.org/2000/svg" xmlns:xlink="http://www.w3.org/1999/xlink" xml:space="preserve" onload="init(evt)">
<style type="text/css"><![CDATA[
.edge:hover path { stroke: red; }
.edge:hover polygon { stroke: red; fill: red; }
]]></style>
<script type="text/javascript"><![CDATA[
var edges = document.getElementsByTagName('g');
if (edges && edges.length) {
  for (var i=0;i<edges.length;i++) {
    if (edges[i].id.substr(0,4)=='edge') {
      edges[i].setAttribute('class','edge');
    }
  }
}
]]></script>
        <defs>
                <circle id="rim" cx="0" cy="0" r="7"/>
                <circle id="rim2" cx="0" cy="0" r="3.5"/>
                <g id="zoomPlus">
                        <use xlink:href="#rim" fill="#404040">
                                <set attributeName="fill" to="#808080" begin="zoomplus.mouseover" end="zoomplus.mouseout"/>
                        </use>
                        <path d="M-4,0h8M0,-4v8" fill="none" stroke="white" stroke-width="1.5" pointer-events="none"/>
                </g>
                <g id="zoomMin">
                        <use xlink:href="#rim" fill="#404040">
                                <set attributeName="fill" to="#808080" begin="zoomminus.mouseover" end="zoomminus.mouseout"/>
                        </use>
                        <path d="M-4,0h8" fill="none" stroke="white" stroke-width="1.5" pointer-events="none"/>
                </g>
                <g id="dirArrow">
                        <path fill="none" stroke="white" stroke-width="1.5" d="M0,-3.0v7 M-2.5,-0.5L0,-3.0L2.5,-0.5"/>
                </g>
               <g id="resetDef">
                       <use xlink:href="#rim2" fill="#404040">
                               <set attributeName="fill" to="#808080" begin="reset.mouseover" end="reset.mouseout"/>
                       </use>
               </g>
        </defs>

<script type="text/javascript">
var viewWidth = 1973;
var viewHeight = 386;
var sectionId = 'dynsection-0';
</script>
<script xlink:href="svgpan.js"/>
<svg id="graph" class="graph">
<g id="viewport">
<title>backend/greenhouse/Greenhouse.h</title>
<polygon fill="white" stroke="transparent" points="-4,4 -4,-382 1969.49,-382 1969.49,4 -4,4"/>
<!-- Node1 -->
<g id="node1" class="node">
<title>Node1</title>
<g id="a_node1"><a xlink:title="Main greenhouse class managing plant inventory and staff.">
<polygon fill="#bfbfbf" stroke="black" points="774.99,-347.5 774.99,-377.5 891.99,-377.5 891.99,-347.5 774.99,-347.5"/>
<text text-anchor="start" x="782.99" y="-365.5" font-family="Helvetica,sans-Serif" font-size="10.00">backend/greenhouse</text>
<text text-anchor="middle" x="833.49" y="-354.5" font-family="Helvetica,sans-Serif" font-size="10.00">/Greenhouse.h</text>
</a>
</g>
</g>
<!-- Node2 -->
<g id="node2" class="node">
<title>Node2</title>
<g id="a_node2"><a xlink:href="Inventory_8h.html" target="_top" xlink:title="Inventory management for plants in greenhouse and sales floor.">
<polygon fill="white" stroke="black" points="1321.99,-179.5 1321.99,-198.5 1392.99,-198.5 1392.99,-179.5 1321.99,-179.5"/>
<text text-anchor="middle" x="1357.49" y="-186.5" font-family="Helvetica,sans-Serif" font-size="10.00">Inventory.h</text>
</a>
</g>
</g>
<!-- Node1&#45;&gt;Node2 -->
<g id="edge1" class="edge">
<title>Node1&#45;&gt;Node2</title>
<path fill="none" stroke="midnightblue" d="M876.37,-347.47C977.31,-314.43 1228.4,-232.25 1321.77,-201.69"/>
<polygon fill="midnightblue" stroke="midnightblue" points="1322.92,-205 1331.34,-198.56 1320.74,-198.34 1322.92,-205"/>
</g>
<!-- Node15 -->
<g id="node15" class="node">
<title>Node15</title>
<g id="a_node15"><a xlink:href="GreenSock_8h.html" target="_top" xlink:title=" ">
<polygon fill="white" stroke="black" points="381.49,-67.5 381.49,-86.5 459.49,-86.5 459.49,-67.5 381.49,-67.5"/>
<text text-anchor="middle" x="420.49" y="-74.5" font-family="Helvetica,sans-Serif" font-size="10.00">GreenSock.h</text>
</a>
</g>
</g>
<!-- Node1&#45;&gt;Node15 -->
<g id="edge29" class="edge">
<title>Node1&#45;&gt;Node15</title>
<path fill="none" stroke="midnightblue" d="M774.81,-359.9C678.3,-353.61 489.68,-324.97 418.49,-199 400.21,-166.66 408.14,-121.26 414.79,-96.28"/>
<polygon fill="midnightblue" stroke="midnightblue" points="418.16,-97.22 417.57,-86.64 411.44,-95.28 418.16,-97.22"/>
</g>
<!-- Node23 -->
<g id="node23" class="node">
<title>Node23</title>
<g id="a_node23"><a xlink:href="SalesFloor_8h.html" target="_top" xlink:title="Sales floor management for customer interactions and plant sales.">
<polygon fill="white" stroke="black" points="1575.49,-291.5 1575.49,-310.5 1651.49,-310.5 1651.49,-291.5 1575.49,-291.5"/>
<text text-anchor="middle" x="1613.49" y="-298.5" font-family="Helvetica,sans-Serif" font-size="10.00">SalesFloor.h</text>
</a>
</g>
</g>
<!-- Node1&#45;&gt;Node23 -->
<g id="edge30" class="edge">
<title>Node1&#45;&gt;Node23</title>
<path fill="none" stroke="midnightblue" d="M892.12,-357.03C1040.42,-345.71 1428.4,-316.12 1565.03,-305.7"/>
<polygon fill="midnightblue" stroke="midnightblue" points="1565.48,-309.17 1575.19,-304.92 1564.95,-302.19 1565.48,-309.17"/>
</g>
<!-- Node28 -->
<g id="node28" class="node">
<title>Node28</title>
<g id="a_node28"><a xlink:href="PruningStaff_8h.html" target="_top" xlink:title="Concrete observer for pruning staff in greenhouse.">
<polygon fill="white" stroke="black" points="520.99,-235.5 520.99,-254.5 605.99,-254.5 605.99,-235.5 520.99,-235.5"/>
<text text-anchor="middle" x="563.49" y="-242.5" font-family="Helvetica,sans-Serif" font-size="10.00">PruningStaff.h</text>
</a>
</g>
</g>
<!-- Node1&#45;&gt;Node28 -->
<g id="edge47" class="edge">
<title>Node1&#45;&gt;Node28</title>
<path fill="none" stroke="midnightblue" d="M800.65,-347.45C747.55,-324.74 643.68,-280.3 592.88,-258.57"/>
<polygon fill="midnightblue" stroke="midnightblue" points="594.03,-255.26 583.46,-254.54 591.28,-261.69 594.03,-255.26"/>
</g>
<!-- Node3 -->
<g id="node3" class="node">
<title>Node3</title>
<g id="a_node3"><a xlink:href="Plant_8h.html" target="_top" xlink:title="Defines the abstract base class for all Plant objects used in the system.">
<polygon fill="white" stroke="black" points="1222.49,-123.5 1222.49,-142.5 1272.49,-142.5 1272.49,-123.5 1222.49,-123.5"/>
<text text-anchor="middle" x="1247.49" y="-130.5" font-family="Helvetica,sans-Serif" font-size="10.00">Plant.h</text>
</a>
</g>
</g>
<!-- Node2&#45;&gt;Node3 -->
<g id="edge2" class="edge">
<title>Node2&#45;&gt;Node3</title>
<path fill="none" stroke="midnightblue" d="M1339.82,-179.32C1322.09,-170.62 1294.59,-157.12 1274.2,-147.11"/>
<polygon fill="midnightblue" stroke="midnightblue" points="1275.64,-143.92 1265.12,-142.65 1272.55,-150.2 1275.64,-143.92"/>
</g>
<!-- Node4 -->
<g id="node4" class="node">
<title>Node4</title>
<g id="a_node4"><a xlink:title=" ">
<polygon fill="white" stroke="#bfbfbf" points="617.49,-6 617.49,-25 661.49,-25 661.49,-6 617.49,-6"/>
<text text-anchor="middle" x="639.49" y="-13" font-family="Helvetica,sans-Serif" font-size="10.00">string</text>
</a>
</g>
</g>
<!-- Node2&#45;&gt;Node4 -->
<g id="edge28" class="edge">
<title>Node2&#45;&gt;Node4</title>
<path fill="none" stroke="midnightblue" d="M1321.67,-187.78C1193.47,-186.29 759.68,-174.7 659.49,-87 645.01,-74.32 640.66,-52.01 639.52,-35.88"/>
<polygon fill="midnightblue" stroke="midnightblue" points="643,-35.32 639.16,-25.45 636.01,-35.56 643,-35.32"/>
</g>
<!-- Node6 -->
<g id="node6" class="node">
<title>Node6</title>
<g id="a_node6"><a xlink:title=" ">
<polygon fill="white" stroke="#bfbfbf" points="1661.99,-67.5 1661.99,-86.5 1708.99,-86.5 1708.99,-67.5 1661.99,-67.5"/>
<text text-anchor="middle" x="1685.49" y="-74.5" font-family="Helvetica,sans-Serif" font-size="10.00">vector</text>
</a>
</g>
</g>
<!-- Node2&#45;&gt;Node6 -->
<g id="edge27" class="edge">
<title>Node2&#45;&gt;Node6</title>
<path fill="none" stroke="midnightblue" d="M1382.95,-179.46C1441.53,-159.81 1585.86,-111.41 1651.73,-89.32"/>
<polygon fill="midnightblue" stroke="midnightblue" points="1653.23,-92.51 1661.6,-86.01 1651.01,-85.87 1653.23,-92.51"/>
</g>
<!-- Node3&#45;&gt;Node4 -->
<g id="edge3" class="edge">
<title>Node3&#45;&gt;Node4</title>
<path fill="none" stroke="midnightblue" d="M1272.53,-132.1C1336.67,-131.75 1504.22,-126.98 1538.49,-87 1544.27,-80.25 1544.6,-73.46 1538.49,-67 1508.14,-34.9 830.29,-20.11 672.23,-17.09"/>
<polygon fill="midnightblue" stroke="midnightblue" points="671.82,-13.58 661.76,-16.9 671.69,-20.58 671.82,-13.58"/>
</g>
<!-- Node5 -->
<g id="node5" class="node">
<title>Node5</title>
<g id="a_node5"><a xlink:title=" ">
<polygon fill="white" stroke="#bfbfbf" points="809.49,-67.5 809.49,-86.5 847.49,-86.5 847.49,-67.5 809.49,-67.5"/>
<text text-anchor="middle" x="828.49" y="-74.5" font-family="Helvetica,sans-Serif" font-size="10.00">map</text>
</a>
</g>
</g>
<!-- Node3&#45;&gt;Node5 -->
<g id="edge4" class="edge">
<title>Node3&#45;&gt;Node5</title>
<path fill="none" stroke="midnightblue" d="M1222.05,-130.8C1160.72,-127.55 999.85,-116.86 857.42,-86.8"/>
<polygon fill="midnightblue" stroke="midnightblue" points="858.15,-83.38 847.63,-84.7 856.67,-90.22 858.15,-83.38"/>
</g>
<!-- Node3&#45;&gt;Node6 -->
<g id="edge5" class="edge">
<title>Node3&#45;&gt;Node6</title>
<path fill="none" stroke="midnightblue" d="M1272.81,-130.56C1335.43,-126.71 1502.64,-114.66 1651.56,-86.88"/>
<polygon fill="midnightblue" stroke="midnightblue" points="1652.63,-90.24 1661.8,-84.93 1651.32,-83.36 1652.63,-90.24"/>
</g>
<!-- Node7 -->
<g id="node7" class="node">
<title>Node7</title>
<g id="a_node7"><a xlink:title=" ">
<polygon fill="white" stroke="#bfbfbf" points="865.49,-67.5 865.49,-86.5 929.49,-86.5 929.49,-67.5 865.49,-67.5"/>
<text text-anchor="middle" x="897.49" y="-74.5" font-family="Helvetica,sans-Serif" font-size="10.00">algorithm</text>
</a>
</g>
</g>
<!-- Node3&#45;&gt;Node7 -->
<g id="edge6" class="edge">
<title>Node3&#45;&gt;Node7</title>
<path fill="none" stroke="midnightblue" d="M1222.25,-128.89C1169.54,-122.26 1044,-105.81 939.49,-87 939.39,-86.98 939.29,-86.96 939.19,-86.95"/>
<polygon fill="midnightblue" stroke="midnightblue" points="940.03,-83.54 929.55,-85.1 938.71,-90.42 940.03,-83.54"/>
</g>
<!-- Node8 -->
<g id="node8" class="node">
<title>Node8</title>
<g id="a_node8"><a xlink:title=" ">
<polygon fill="white" stroke="#bfbfbf" points="522.49,-6 522.49,-25 582.49,-25 582.49,-6 522.49,-6"/>
<text text-anchor="middle" x="552.49" y="-13" font-family="Helvetica,sans-Serif" font-size="10.00">iostream</text>
</a>
</g>
</g>
<!-- Node3&#45;&gt;Node8 -->
<g id="edge7" class="edge">
<title>Node3&#45;&gt;Node8</title>
<path fill="none" stroke="midnightblue" d="M1222.2,-131.74C1123.71,-130.48 766.05,-123.44 659.49,-87 624.31,-74.97 589.46,-48.6 569.5,-31.74"/>
<polygon fill="midnightblue" stroke="midnightblue" points="571.76,-29.06 561.9,-25.17 567.18,-34.36 571.76,-29.06"/>
</g>
<!-- Node9 -->
<g id="node9" class="node">
<title>Node9</title>
<g id="a_node9"><a xlink:title=" ">
<polygon fill="white" stroke="#bfbfbf" points="947.99,-67.5 947.99,-86.5 1060.99,-86.5 1060.99,-67.5 947.99,-67.5"/>
<text text-anchor="middle" x="1004.49" y="-74.5" font-family="Helvetica,sans-Serif" font-size="10.00">boost/uuid/uuid.hpp</text>
</a>
</g>
</g>
<!-- Node3&#45;&gt;Node9 -->
<g id="edge8" class="edge">
<title>Node3&#45;&gt;Node9</title>
<path fill="none" stroke="midnightblue" d="M1222.4,-126.42C1182.5,-117.56 1103.87,-100.09 1052.78,-88.73"/>
<polygon fill="midnightblue" stroke="midnightblue" points="1053.47,-85.3 1042.95,-86.55 1051.96,-92.13 1053.47,-85.3"/>
</g>
<!-- Node10 -->
<g id="node10" class="node">
<title>Node10</title>
<g id="a_node10"><a xlink:title=" ">
<polygon fill="white" stroke="#bfbfbf" points="1079.49,-67.5 1079.49,-86.5 1249.49,-86.5 1249.49,-67.5 1079.49,-67.5"/>
<text text-anchor="middle" x="1164.49" y="-74.5" font-family="Helvetica,sans-Serif" font-size="10.00">boost/uuid/uuid_generators.hpp</text>
</a>
</g>
</g>
<!-- Node3&#45;&gt;Node10 -->
<g id="edge9" class="edge">
<title>Node3&#45;&gt;Node10</title>
<path fill="none" stroke="midnightblue" d="M1234.15,-123.32C1221.33,-114.98 1201.7,-102.21 1186.55,-92.35"/>
<polygon fill="midnightblue" stroke="midnightblue" points="1188.08,-89.17 1177.79,-86.65 1184.26,-95.04 1188.08,-89.17"/>
</g>
<!-- Node11 -->
<g id="node11" class="node">
<title>Node11</title>
<g id="a_node11"><a xlink:title=" ">
<polygon fill="white" stroke="#bfbfbf" points="1267.99,-67.5 1267.99,-86.5 1394.99,-86.5 1394.99,-67.5 1267.99,-67.5"/>
<text text-anchor="middle" x="1331.49" y="-74.5" font-family="Helvetica,sans-Serif" font-size="10.00">boost/uuid/uuid_io.hpp</text>
</a>
</g>
</g>
<!-- Node3&#45;&gt;Node11 -->
<g id="edge10" class="edge">
<title>Node3&#45;&gt;Node11</title>
<path fill="none" stroke="midnightblue" d="M1260.98,-123.32C1274.09,-114.9 1294.2,-101.97 1309.6,-92.07"/>
<polygon fill="midnightblue" stroke="midnightblue" points="1311.51,-95.01 1318.03,-86.65 1307.72,-89.12 1311.51,-95.01"/>
</g>
<!-- Node12 -->
<g id="node12" class="node">
<title>Node12</title>
<g id="a_node12"><a xlink:title=" ">
<polygon fill="white" stroke="#bfbfbf" points="1765.49,-67.5 1765.49,-86.5 1875.49,-86.5 1875.49,-67.5 1765.49,-67.5"/>
<text text-anchor="middle" x="1820.49" y="-74.5" font-family="Helvetica,sans-Serif" font-size="10.00">nlohmann/json.hpp</text>
</a>
</g>
</g>
<!-- Node3&#45;&gt;Node12 -->
<g id="edge11" class="edge">
<title>Node3&#45;&gt;Node12</title>
<path fill="none" stroke="midnightblue" d="M1272.85,-129.61C1357.01,-121.68 1628.86,-96.06 1755.03,-84.17"/>
<polygon fill="midnightblue" stroke="midnightblue" points="1755.69,-87.62 1765.32,-83.2 1755.04,-80.65 1755.69,-87.62"/>
</g>
<!-- Node13 -->
<g id="node13" class="node">
<title>Node13</title>
<g id="a_node13"><a xlink:title=" ">
<polygon fill="white" stroke="#bfbfbf" points="1413.49,-67.5 1413.49,-86.5 1461.49,-86.5 1461.49,-67.5 1413.49,-67.5"/>
<text text-anchor="middle" x="1437.49" y="-74.5" font-family="Helvetica,sans-Serif" font-size="10.00">thread</text>
</a>
</g>
</g>
<!-- Node3&#45;&gt;Node13 -->
<g id="edge12" class="edge">
<title>Node3&#45;&gt;Node13</title>
<path fill="none" stroke="midnightblue" d="M1272.72,-124.83C1306.31,-115.28 1365.82,-98.37 1403.38,-87.69"/>
<polygon fill="midnightblue" stroke="midnightblue" points="1404.69,-90.96 1413.36,-84.86 1402.78,-84.23 1404.69,-90.96"/>
</g>
<!-- Node14 -->
<g id="node14" class="node">
<title>Node14</title>
<g id="a_node14"><a xlink:title=" ">
<polygon fill="white" stroke="#bfbfbf" points="1479.49,-67.5 1479.49,-86.5 1529.49,-86.5 1529.49,-67.5 1479.49,-67.5"/>
<text text-anchor="middle" x="1504.49" y="-74.5" font-family="Helvetica,sans-Serif" font-size="10.00">atomic</text>
</a>
</g>
</g>
<!-- Node3&#45;&gt;Node14 -->
<g id="edge13" class="edge">
<title>Node3&#45;&gt;Node14</title>
<path fill="none" stroke="midnightblue" d="M1272.68,-127.42C1312.4,-120.1 1392.23,-104.94 1469.4,-87.15"/>
<polygon fill="midnightblue" stroke="midnightblue" points="1470.33,-90.52 1479.28,-84.85 1468.75,-83.71 1470.33,-90.52"/>
</g>
<!-- Node3&#45;&gt;Node15 -->
<g id="edge14" class="edge">
<title>Node3&#45;&gt;Node15</title>
<path fill="none" stroke="midnightblue" d="M1222.29,-130.35C1106.78,-122.81 626.92,-91.48 470.22,-81.25"/>
<polygon fill="midnightblue" stroke="midnightblue" points="470.15,-77.74 459.94,-80.58 469.69,-84.72 470.15,-77.74"/>
</g>
<!-- Node18 -->
<g id="node18" class="node">
<title>Node18</title>
<g id="a_node18"><a xlink:title=" ">
<polygon fill="white" stroke="#bfbfbf" points="172.49,-6 172.49,-25 220.49,-25 220.49,-6 172.49,-6"/>
<text text-anchor="middle" x="196.49" y="-13" font-family="Helvetica,sans-Serif" font-size="10.00">mutex</text>
</a>
</g>
</g>
<!-- Node3&#45;&gt;Node18 -->
<g id="edge26" class="edge">
<title>Node3&#45;&gt;Node18</title>
<path fill="none" stroke="midnightblue" d="M1222.34,-132.16C1096.96,-132.74 538.79,-132.66 372.49,-87 354.08,-81.95 352.01,-74.56 334.49,-67 289.19,-47.45 275.45,-48.94 229.49,-31 227.89,-30.37 226.25,-29.72 224.6,-29.04"/>
<polygon fill="midnightblue" stroke="midnightblue" points="225.79,-25.74 215.22,-25.06 223.06,-32.19 225.79,-25.74"/>
</g>
<!-- Node19 -->
<g id="node19" class="node">
<title>Node19</title>
<g id="a_node19"><a xlink:href="Logger_8h.html" target="_top" xlink:title="Header for Strategy Logger interface.">
<polygon fill="white" stroke="black" points="1585.49,-67.5 1585.49,-86.5 1643.49,-86.5 1643.49,-67.5 1585.49,-67.5"/>
<text text-anchor="middle" x="1614.49" y="-74.5" font-family="Helvetica,sans-Serif" font-size="10.00">Logger.h</text>
</a>
</g>
</g>
<!-- Node3&#45;&gt;Node19 -->
<g id="edge20" class="edge">
<title>Node3&#45;&gt;Node19</title>
<path fill="none" stroke="midnightblue" d="M1272.79,-129.08C1327.47,-122.65 1460.71,-106.26 1571.49,-87 1572.76,-86.78 1574.04,-86.55 1575.34,-86.31"/>
<polygon fill="midnightblue" stroke="midnightblue" points="1576.24,-89.7 1585.4,-84.37 1574.91,-82.83 1576.24,-89.7"/>
</g>
<!-- Node21 -->
<g id="node21" class="node">
<title>Node21</title>
<g id="a_node21"><a xlink:title=" ">
<polygon fill="white" stroke="#bfbfbf" points="667.99,-67.5 667.99,-86.5 714.99,-86.5 714.99,-67.5 667.99,-67.5"/>
<text text-anchor="middle" x="691.49" y="-74.5" font-family="Helvetica,sans-Serif" font-size="10.00">queue</text>
</a>
</g>
</g>
<!-- Node3&#45;&gt;Node21 -->
<g id="edge24" class="edge">
<title>Node3&#45;&gt;Node21</title>
<path fill="none" stroke="midnightblue" d="M1222.24,-131.44C1147.6,-129.44 921.49,-120.97 725.09,-86.76"/>
<polygon fill="midnightblue" stroke="midnightblue" points="725.62,-83.3 715.17,-85.01 724.4,-90.19 725.62,-83.3"/>
</g>
<!-- Node22 -->
<g id="node22" class="node">
<title>Node22</title>
<g id="a_node22"><a xlink:title=" ">
<polygon fill="white" stroke="#bfbfbf" points="733.49,-67.5 733.49,-86.5 791.49,-86.5 791.49,-67.5 733.49,-67.5"/>
<text text-anchor="middle" x="762.49" y="-74.5" font-family="Helvetica,sans-Serif" font-size="10.00">memory</text>
</a>
</g>
</g>
<!-- Node3&#45;&gt;Node22 -->
<g id="edge25" class="edge">
<title>Node3&#45;&gt;Node22</title>
<path fill="none" stroke="midnightblue" d="M1222.13,-130.63C1155.1,-126.74 967.61,-114.27 802.23,-87.09"/>
<polygon fill="midnightblue" stroke="midnightblue" points="802.31,-83.56 791.87,-85.36 801.16,-90.46 802.31,-83.56"/>
</g>
<!-- Node15&#45;&gt;Node4 -->
<g id="edge18" class="edge">
<title>Node15&#45;&gt;Node4</title>
<path fill="none" stroke="midnightblue" d="M454.33,-67.48C488.9,-58.68 544.07,-44.4 591.49,-31 596.59,-29.56 601.99,-27.98 607.24,-26.41"/>
<polygon fill="midnightblue" stroke="midnightblue" points="608.51,-29.69 617.07,-23.45 606.49,-22.99 608.51,-29.69"/>
</g>
<!-- Node15&#45;&gt;Node8 -->
<g id="edge17" class="edge">
<title>Node15&#45;&gt;Node8</title>
<path fill="none" stroke="midnightblue" d="M439.4,-67.48C461.65,-57.45 498.8,-40.7 524.41,-29.15"/>
<polygon fill="midnightblue" stroke="midnightblue" points="525.93,-32.31 533.61,-25.01 523.06,-25.93 525.93,-32.31"/>
</g>
<!-- Node16 -->
<g id="node16" class="node">
<title>Node16</title>
<g id="a_node16"><a xlink:title=" ">
<polygon fill="white" stroke="#bfbfbf" points="238.99,-0.5 238.99,-30.5 351.99,-30.5 351.99,-0.5 238.99,-0.5"/>
<text text-anchor="start" x="246.99" y="-18.5" font-family="Helvetica,sans-Serif" font-size="10.00">websocketpp/config</text>
<text text-anchor="middle" x="295.49" y="-7.5" font-family="Helvetica,sans-Serif" font-size="10.00">/asio_no_tls.hpp</text>
</a>
</g>
</g>
<!-- Node15&#45;&gt;Node16 -->
<g id="edge15" class="edge">
<title>Node15&#45;&gt;Node16</title>
<path fill="none" stroke="midnightblue" d="M402.58,-67.48C384.78,-59 356.91,-45.74 334.07,-34.86"/>
<polygon fill="midnightblue" stroke="midnightblue" points="335.48,-31.66 324.95,-30.52 332.47,-37.98 335.48,-31.66"/>
</g>
<!-- Node17 -->
<g id="node17" class="node">
<title>Node17</title>
<g id="a_node17"><a xlink:title=" ">
<polygon fill="white" stroke="#bfbfbf" points="370.49,-6 370.49,-25 504.49,-25 504.49,-6 370.49,-6"/>
<text text-anchor="middle" x="437.49" y="-13" font-family="Helvetica,sans-Serif" font-size="10.00">websocketpp/server.hpp</text>
</a>
</g>
</g>
<!-- Node15&#45;&gt;Node17 -->
<g id="edge16" class="edge">
<title>Node15&#45;&gt;Node17</title>
<path fill="none" stroke="midnightblue" d="M422.92,-67.48C425.35,-58.99 429.14,-45.7 432.25,-34.82"/>
<polygon fill="midnightblue" stroke="midnightblue" points="435.68,-35.59 435.06,-25.01 428.94,-33.66 435.68,-35.59"/>
</g>
<!-- Node15&#45;&gt;Node18 -->
<g id="edge19" class="edge">
<title>Node15&#45;&gt;Node18</title>
<path fill="none" stroke="midnightblue" d="M381.13,-68.91C342.1,-61.38 280.86,-48.18 229.49,-31 227.62,-30.37 225.71,-29.68 223.8,-28.95"/>
<polygon fill="midnightblue" stroke="midnightblue" points="224.99,-25.66 214.41,-25.08 222.32,-32.13 224.99,-25.66"/>
</g>
<!-- Node19&#45;&gt;Node4 -->
<g id="edge21" class="edge">
<title>Node19&#45;&gt;Node4</title>
<path fill="none" stroke="midnightblue" d="M1585.45,-69.3C1580.8,-68.4 1576.03,-67.59 1571.49,-67 1221.31,-21.14 791.87,-16.76 671.93,-16.48"/>
<polygon fill="midnightblue" stroke="midnightblue" points="671.62,-12.98 661.62,-16.46 671.61,-19.98 671.62,-12.98"/>
</g>
<!-- Node19&#45;&gt;Node8 -->
<g id="edge22" class="edge">
<title>Node19&#45;&gt;Node8</title>
<path fill="none" stroke="midnightblue" d="M1585.31,-72C1571.19,-70.2 1553.99,-68.22 1538.49,-67 1126.11,-34.65 1017.73,-91.19 608.49,-31 602.63,-30.14 596.5,-28.91 590.54,-27.52"/>
<polygon fill="midnightblue" stroke="midnightblue" points="591.28,-24.1 580.74,-25.07 589.59,-30.89 591.28,-24.1"/>
</g>
<!-- Node20 -->
<g id="node20" class="node">
<title>Node20</title>
<g id="a_node20"><a xlink:title=" ">
<polygon fill="white" stroke="#bfbfbf" points="1870.99,-6 1870.99,-25 1935.99,-25 1935.99,-6 1870.99,-6"/>
<text text-anchor="middle" x="1903.49" y="-13" font-family="Helvetica,sans-Serif" font-size="10.00">stdexcept</text>
</a>
</g>
</g>
<!-- Node19&#45;&gt;Node20 -->
<g id="edge23" class="edge">
<title>Node19&#45;&gt;Node20</title>
<path fill="none" stroke="midnightblue" d="M1643.86,-69.13C1647.1,-68.4 1650.36,-67.68 1653.49,-67 1726.01,-51.31 1810.72,-34.52 1860.58,-24.8"/>
<polygon fill="midnightblue" stroke="midnightblue" points="1861.52,-28.18 1870.67,-22.83 1860.18,-21.31 1861.52,-28.18"/>
</g>
<!-- Node23&#45;&gt;Node2 -->
<g id="edge31" class="edge">
<title>Node23&#45;&gt;Node2</title>
<path fill="none" stroke="midnightblue" d="M1593.4,-291.37C1548.44,-272.05 1439.55,-225.26 1386.92,-202.65"/>
<polygon fill="midnightblue" stroke="midnightblue" points="1388.05,-199.32 1377.48,-198.59 1385.29,-205.76 1388.05,-199.32"/>
</g>
<!-- Node23&#45;&gt;Node6 -->
<g id="edge44" class="edge">
<title>Node23&#45;&gt;Node6</title>
<path fill="none" stroke="midnightblue" d="M1613.88,-291.26C1615.01,-271.03 1619.06,-219.58 1632.49,-179 1642.76,-147.96 1661.83,-114.95 1674.07,-95.42"/>
<polygon fill="midnightblue" stroke="midnightblue" points="1677.18,-97.06 1679.62,-86.75 1671.28,-93.28 1677.18,-97.06"/>
</g>
<!-- Node23&#45;&gt;Node20 -->
<g id="edge46" class="edge">
<title>Node23&#45;&gt;Node20</title>
<path fill="none" stroke="midnightblue" d="M1651.49,-296.28C1742.51,-286.31 1965.49,-255.23 1965.49,-190 1965.49,-190 1965.49,-190 1965.49,-132 1965.49,-92.8 1937.41,-54.05 1919.05,-32.9"/>
<polygon fill="midnightblue" stroke="midnightblue" points="1921.41,-30.29 1912.11,-25.21 1916.21,-34.98 1921.41,-30.29"/>
</g>
<!-- Node24 -->
<g id="node24" class="node">
<title>Node24</title>
<g id="a_node24"><a xlink:href="TransactionHistory_8h.html" target="_top" xlink:title="Maintains history of financial transactions.">
<polygon fill="white" stroke="black" points="1672.99,-235.5 1672.99,-254.5 1787.99,-254.5 1787.99,-235.5 1672.99,-235.5"/>
<text text-anchor="middle" x="1730.49" y="-242.5" font-family="Helvetica,sans-Serif" font-size="10.00">TransactionHistory.h</text>
</a>
</g>
</g>
<!-- Node23&#45;&gt;Node24 -->
<g id="edge32" class="edge">
<title>Node23&#45;&gt;Node24</title>
<path fill="none" stroke="midnightblue" d="M1632.03,-291.44C1651.11,-282.64 1681.06,-268.81 1702.92,-258.72"/>
<polygon fill="midnightblue" stroke="midnightblue" points="1704.42,-261.88 1712.04,-254.52 1701.49,-255.53 1704.42,-261.88"/>
</g>
<!-- Node26 -->
<g id="node26" class="node">
<title>Node26</title>
<g id="a_node26"><a xlink:href="Ledger_8h.html" target="_top" xlink:title="Financial ledger for tracking game balance.">
<polygon fill="white" stroke="black" points="1879.49,-179.5 1879.49,-198.5 1937.49,-198.5 1937.49,-179.5 1879.49,-179.5"/>
<text text-anchor="middle" x="1908.49" y="-186.5" font-family="Helvetica,sans-Serif" font-size="10.00">Ledger.h</text>
</a>
</g>
</g>
<!-- Node23&#45;&gt;Node26 -->
<g id="edge43" class="edge">
<title>Node23&#45;&gt;Node26</title>
<path fill="none" stroke="midnightblue" d="M1651.49,-294.03C1689.41,-287.31 1748.87,-274.69 1797.49,-255 1830.99,-241.43 1866.51,-219.03 1888.09,-204.4"/>
<polygon fill="midnightblue" stroke="midnightblue" points="1890.19,-207.2 1896.45,-198.65 1886.23,-201.43 1890.19,-207.2"/>
</g>
<!-- Node27 -->
<g id="node27" class="node">
<title>Node27</title>
<g id="a_node27"><a xlink:title=" ">
<polygon fill="white" stroke="#bfbfbf" points="271.49,-67.5 271.49,-86.5 325.49,-86.5 325.49,-67.5 271.49,-67.5"/>
<text text-anchor="middle" x="298.49" y="-74.5" font-family="Helvetica,sans-Serif" font-size="10.00">random</text>
</a>
</g>
</g>
<!-- Node23&#45;&gt;Node27 -->
<g id="edge45" class="edge">
<title>Node23&#45;&gt;Node27</title>
<path fill="none" stroke="midnightblue" d="M1575.3,-299.56C1392.9,-297.33 615,-286.05 511.49,-255 418.54,-227.12 339.76,-133.19 310.58,-94.68"/>
<polygon fill="midnightblue" stroke="midnightblue" points="313.31,-92.49 304.54,-86.55 307.7,-96.67 313.31,-92.49"/>
</g>
<!-- Node24&#45;&gt;Node2 -->
<g id="edge38" class="edge">
<title>Node24&#45;&gt;Node2</title>
<path fill="none" stroke="midnightblue" d="M1672.62,-235.62C1598.27,-224.86 1470.74,-206.4 1402.95,-196.58"/>
<polygon fill="midnightblue" stroke="midnightblue" points="1403.4,-193.11 1393,-195.14 1402.4,-200.04 1403.4,-193.11"/>
</g>
<!-- Node24&#45;&gt;Node6 -->
<g id="edge40" class="edge">
<title>Node24&#45;&gt;Node6</title>
<path fill="none" stroke="midnightblue" d="M1738.08,-235.32C1747.89,-222.99 1763.01,-199.63 1756.49,-179 1745.73,-145 1718.97,-112.53 1701.55,-93.97"/>
<polygon fill="midnightblue" stroke="midnightblue" points="1703.97,-91.44 1694.51,-86.68 1698.94,-96.3 1703.97,-91.44"/>
</g>
<!-- Node24&#45;&gt;Node8 -->
<g id="edge39" class="edge">
<title>Node24&#45;&gt;Node8</title>
<path fill="none" stroke="midnightblue" d="M1672.76,-240.81C1487.56,-230.18 910.07,-193.71 730.49,-143 675.39,-127.44 660.08,-121.63 614.49,-87 594.31,-71.67 575.77,-48.96 564.32,-33.48"/>
<polygon fill="midnightblue" stroke="midnightblue" points="567.13,-31.39 558.45,-25.32 561.45,-35.48 567.13,-31.39"/>
</g>
<!-- Node24&#45;&gt;Node12 -->
<g id="edge42" class="edge">
<title>Node24&#45;&gt;Node12</title>
<path fill="none" stroke="midnightblue" d="M1739.73,-235.42C1748.54,-226.86 1761.73,-213 1770.49,-199 1791.61,-165.25 1807.24,-121.03 1815,-96.48"/>
<polygon fill="midnightblue" stroke="midnightblue" points="1818.42,-97.27 1818,-86.69 1811.73,-95.22 1818.42,-97.27"/>
</g>
<!-- Node24&#45;&gt;Node20 -->
<g id="edge41" class="edge">
<title>Node24&#45;&gt;Node20</title>
<path fill="none" stroke="midnightblue" d="M1743.32,-235.43C1755.71,-226.87 1774.73,-213.01 1789.49,-199 1836.82,-154.06 1854.15,-144.8 1884.49,-87 1893.13,-70.54 1898.1,-49.81 1900.78,-35.1"/>
<polygon fill="midnightblue" stroke="midnightblue" points="1904.24,-35.63 1902.4,-25.19 1897.33,-34.5 1904.24,-35.63"/>
</g>
<!-- Node25 -->
<g id="node25" class="node">
<title>Node25</title>
<g id="a_node25"><a xlink:href="TransactionMem_8h.html" target="_top" xlink:title=" ">
<polygon fill="white" stroke="black" points="1641.49,-179.5 1641.49,-198.5 1747.49,-198.5 1747.49,-179.5 1641.49,-179.5"/>
<text text-anchor="middle" x="1694.49" y="-186.5" font-family="Helvetica,sans-Serif" font-size="10.00">TransactionMem.h</text>
</a>
</g>
</g>
<!-- Node24&#45;&gt;Node25 -->
<g id="edge33" class="edge">
<title>Node24&#45;&gt;Node25</title>
<path fill="none" stroke="midnightblue" d="M1724.54,-235.08C1719.51,-227.53 1712.15,-216.49 1705.98,-207.23"/>
<polygon fill="midnightblue" stroke="midnightblue" points="1708.78,-205.13 1700.32,-198.75 1702.96,-209.01 1708.78,-205.13"/>
</g>
<!-- Node24&#45;&gt;Node26 -->
<g id="edge36" class="edge">
<title>Node24&#45;&gt;Node26</title>
<path fill="none" stroke="midnightblue" d="M1758.69,-235.44C1788.9,-226.28 1837,-211.69 1870.52,-201.52"/>
<polygon fill="midnightblue" stroke="midnightblue" points="1871.86,-204.77 1880.42,-198.52 1869.83,-198.07 1871.86,-204.77"/>
</g>
<!-- Node25&#45;&gt;Node3 -->
<g id="edge34" class="edge">
<title>Node25&#45;&gt;Node3</title>
<path fill="none" stroke="midnightblue" d="M1641.46,-181.59C1549.13,-170.44 1361.26,-147.74 1282.97,-138.29"/>
<polygon fill="midnightblue" stroke="midnightblue" points="1283.02,-134.77 1272.68,-137.04 1282.18,-141.72 1283.02,-134.77"/>
</g>
<!-- Node25&#45;&gt;Node4 -->
<g id="edge35" class="edge">
<title>Node25&#45;&gt;Node4</title>
<path fill="none" stroke="midnightblue" d="M1700.58,-179.29C1715.18,-157.25 1748.8,-98.76 1718.49,-67 1681.44,-28.17 847.59,-18.4 671.83,-16.77"/>
<polygon fill="midnightblue" stroke="midnightblue" points="671.7,-13.27 661.67,-16.68 671.63,-20.27 671.7,-13.27"/>
</g>
<!-- Node26&#45;&gt;Node12 -->
<g id="edge37" class="edge">
<title>Node26&#45;&gt;Node12</title>
<path fill="none" stroke="midnightblue" d="M1901.58,-179.37C1887,-161.14 1852.83,-118.43 1833.83,-94.68"/>
<polygon fill="midnightblue" stroke="midnightblue" points="1836.34,-92.21 1827.36,-86.59 1830.88,-96.59 1836.34,-92.21"/>
</g>
<!-- Node28&#45;&gt;Node4 -->
<g id="edge48" class="edge">
<title>Node28&#45;&gt;Node4</title>
<path fill="none" stroke="midnightblue" d="M566.38,-235.36C577.52,-202 617.89,-81.14 633.38,-34.78"/>
<polygon fill="midnightblue" stroke="midnightblue" points="636.75,-35.74 636.6,-25.15 630.11,-33.52 636.75,-35.74"/>
</g>
<!-- Node29 -->
<g id="node29" class="node">
<title>Node29</title>
<g id="a_node29"><a xlink:href="GreenhouseStaff_8h.html" target="_top" xlink:title="Abstract base class for greenhouse staff observers.">
<polygon fill="white" stroke="black" points="427.99,-179.5 427.99,-198.5 534.99,-198.5 534.99,-179.5 427.99,-179.5"/>
<text text-anchor="middle" x="481.49" y="-186.5" font-family="Helvetica,sans-Serif" font-size="10.00">GreenhouseStaff.h</text>
</a>
</g>
</g>
<!-- Node28&#45;&gt;Node29 -->
<g id="edge49" class="edge">
<title>Node28&#45;&gt;Node29</title>
<path fill="none" stroke="midnightblue" d="M550.31,-235.32C537.64,-226.98 518.26,-214.21 503.28,-204.35"/>
<polygon fill="midnightblue" stroke="midnightblue" points="504.91,-201.23 494.63,-198.65 501.06,-207.08 504.91,-201.23"/>
</g>
<!-- Node29&#45;&gt;Node4 -->
<g id="edge50" class="edge">
<title>Node29&#45;&gt;Node4</title>
<path fill="none" stroke="midnightblue" d="M484.46,-179.35C492.18,-157.95 514.72,-101.75 549.49,-67 566.11,-50.39 589.32,-37.55 608.01,-28.97"/>
<polygon fill="midnightblue" stroke="midnightblue" points="609.56,-32.11 617.31,-24.87 606.74,-25.7 609.56,-32.11"/>
</g>
<!-- Node30 -->
<g id="node30" class="node">
<title>Node30</title>
<g id="a_node30"><a xlink:href="PlantHealth_8h.html" target="_top" xlink:title="Health management system for plant lifecycle and care requirements.">
<polygon fill="white" stroke="black" points="173.99,-123.5 173.99,-142.5 256.99,-142.5 256.99,-123.5 173.99,-123.5"/>
<text text-anchor="middle" x="215.49" y="-130.5" font-family="Helvetica,sans-Serif" font-size="10.00">PlantHealth.h</text>
</a>
</g>
</g>
<!-- Node29&#45;&gt;Node30 -->
<g id="edge51" class="edge">
<title>Node29&#45;&gt;Node30</title>
<path fill="none" stroke="midnightblue" d="M439.34,-179.44C392.61,-169.96 317.2,-154.65 267,-144.46"/>
<polygon fill="midnightblue" stroke="midnightblue" points="267.5,-140.99 257,-142.43 266.11,-147.85 267.5,-140.99"/>
</g>
<!-- Node30&#45;&gt;Node8 -->
<g id="edge52" class="edge">
<title>Node30&#45;&gt;Node8</title>
<path fill="none" stroke="midnightblue" d="M219.14,-123.08C225.55,-108.64 240.32,-80.4 262.49,-67 358.94,-8.71 404.27,-58.8 513.49,-31 516.47,-30.24 519.54,-29.33 522.59,-28.35"/>
<polygon fill="midnightblue" stroke="midnightblue" points="523.82,-31.62 532.1,-25.01 521.51,-25.02 523.82,-31.62"/>
</g>
<!-- Node30&#45;&gt;Node15 -->
<g id="edge56" class="edge">
<title>Node30&#45;&gt;Node15</title>
<path fill="none" stroke="midnightblue" d="M247.97,-123.44C283.21,-114.16 339.59,-99.31 378.25,-89.13"/>
<polygon fill="midnightblue" stroke="midnightblue" points="379.38,-92.45 388.16,-86.52 377.6,-85.68 379.38,-92.45"/>
</g>
<!-- Node30&#45;&gt;Node18 -->
<g id="edge53" class="edge">
<title>Node30&#45;&gt;Node18</title>
<path fill="none" stroke="midnightblue" d="M173.89,-128.99C119.53,-124.09 28.86,-112.27 8.49,-87 -34.09,-34.17 96.79,-20.92 161.95,-17.6"/>
<polygon fill="midnightblue" stroke="midnightblue" points="162.35,-21.09 172.18,-17.14 162.03,-14.1 162.35,-21.09"/>
</g>
<!-- Node30&#45;&gt;Node27 -->
<g id="edge55" class="edge">
<title>Node30&#45;&gt;Node27</title>
<path fill="none" stroke="midnightblue" d="M228.82,-123.32C241.65,-114.98 261.27,-102.21 276.43,-92.35"/>
<polygon fill="midnightblue" stroke="midnightblue" points="278.71,-95.04 285.19,-86.65 274.9,-89.17 278.71,-95.04"/>
</g>
<!-- Node31 -->
<g id="node31" class="node">
<title>Node31</title>
<g id="a_node31"><a xlink:title=" ">
<polygon fill="white" stroke="#bfbfbf" points="17.49,-67.5 17.49,-86.5 67.49,-86.5 67.49,-67.5 17.49,-67.5"/>
<text text-anchor="middle" x="42.49" y="-74.5" font-family="Helvetica,sans-Serif" font-size="10.00">chrono</text>
</a>
</g>
</g>
<!-- Node30&#45;&gt;Node31 -->
<g id="edge54" class="edge">
<title>Node30&#45;&gt;Node31</title>
<path fill="none" stroke="midnightblue" d="M188.08,-123.44C158.03,-114.06 109.76,-99 77.12,-88.81"/>
<polygon fill="midnightblue" stroke="midnightblue" points="78.11,-85.45 67.53,-85.82 76.03,-92.14 78.11,-85.45"/>
</g>
<!-- Node32 -->
<g id="node32" class="node">
<title>Node32</title>
<g id="a_node32"><a xlink:title=" ">
<polygon fill="white" stroke="#bfbfbf" points="85.49,-67.5 85.49,-86.5 141.49,-86.5 141.49,-67.5 85.49,-67.5"/>
<text text-anchor="middle" x="113.49" y="-74.5" font-family="Helvetica,sans-Serif" font-size="10.00">sstream</text>
</a>
</g>
</g>
<!-- Node30&#45;&gt;Node32 -->
<g id="edge57" class="edge">
<title>Node30&#45;&gt;Node32</title>
<path fill="none" stroke="midnightblue" d="M199.1,-123.32C182.82,-114.7 157.62,-101.36 138.77,-91.39"/>
<polygon fill="midnightblue" stroke="midnightblue" points="140.31,-88.24 129.84,-86.65 137.04,-94.43 140.31,-88.24"/>
</g>
<!-- Node33 -->
<g id="node33" class="node">
<title>Node33</title>
<g id="a_node33"><a xlink:title=" ">
<polygon fill="white" stroke="#bfbfbf" points="159.49,-67.5 159.49,-86.5 215.49,-86.5 215.49,-67.5 159.49,-67.5"/>
<text text-anchor="middle" x="187.49" y="-74.5" font-family="Helvetica,sans-Serif" font-size="10.00">iomanip</text>
</a>
</g>
</g>
<!-- Node30&#45;&gt;Node33 -->
<g id="edge58" class="edge">
<title>Node30&#45;&gt;Node33</title>
<path fill="none" stroke="midnightblue" d="M210.87,-123.08C207.03,-115.69 201.46,-104.95 196.72,-95.81"/>
<polygon fill="midnightblue" stroke="midnightblue" points="199.74,-94.02 192.03,-86.75 193.52,-97.24 199.74,-94.02"/>
</g>
</g>
</svg>
        <g id="navigator" transform="translate(0 0)" fill="#404254">
                <rect fill="#f2f5e9" fill-opacity="0.5" stroke="#606060" stroke-width=".5" x="0" y="0" width="60" height="60"/>
                <use id="zoomplus" xlink:href="#zoomPlus" x="17" y="9" onmousedown="handleZoom(evt,'in')"/>
                <use id="zoomminus" xlink:href="#zoomMin" x="42" y="9" onmousedown="handleZoom(evt,'out')"/>
                <use id="reset" xlink:href="#resetDef" x="30" y="36" onmousedown="handleReset()"/>
                <g id="arrowUp" xlink:href="#dirArrow" transform="translate(30 24)" onmousedown="handlePan(0,-1)">
                  <use xlink:href="#rim" fill="#404040">
                        <set attributeName="fill" to="#808080" begin="arrowUp.mouseover" end="arrowUp.mouseout"/>
                  </use>
                  <path fill="none" stroke="white" stroke-width="1.5" d="M0,-3.0v7 M-2.5,-0.5L0,-3.0L2.5,-0.5"/>
                </g>
                <g id="arrowRight" xlink:href="#dirArrow" transform="rotate(90) translate(36 -43)" onmousedown="handlePan(1,0)">
                  <use xlink:href="#rim" fill="#404040">
                        <set attributeName="fill" to="#808080" begin="arrowRight.mouseover" end="arrowRight.mouseout"/>
                  </use>
                  <path fill="none" stroke="white" stroke-width="1.5" d="M0,-3.0v7 M-2.5,-0.5L0,-3.0L2.5,-0.5"/>
                </g>
                <g id="arrowDown" xlink:href="#dirArrow" transform="rotate(180) translate(-30 -48)" onmousedown="handlePan(0,1)">
                  <use xlink:href="#rim" fill="#404040">
                        <set attributeName="fill" to="#808080" begin="arrowDown.mouseover" end="arrowDown.mouseout"/>
                  </use>
                  <path fill="none" stroke="white" stroke-width="1.5" d="M0,-3.0v7 M-2.5,-0.5L0,-3.0L2.5,-0.5"/>
                </g>
                <g id="arrowLeft" xlink:href="#dirArrow" transform="rotate(270) translate(-36 17)" onmousedown="handlePan(-1,0)">
                  <use xlink:href="#rim" fill="#404040">
                        <set attributeName="fill" to="#808080" begin="arrowLeft.mouseover" end="arrowLeft.mouseout"/>
                  </use>
                  <path fill="none" stroke="white" stroke-width="1.5" d="M0,-3.0v7 M-2.5,-0.5L0,-3.0L2.5,-0.5"/>
                </g>
        </g>
        <svg viewBox="0 0 15 15" width="100%" height="30px" preserveAspectRatio="xMaxYMin meet">
         <g id="arrow_out" transform="scale(0.3 0.3)">
          <a xlink:href="Greenhouse_8h__incl_org.svg" target="_base">
           <rect id="button" ry="5" rx="5" y="6" x="6" height="38" width="38"
                fill="#f2f5e9" fill-opacity="0.5" stroke="#606060" stroke-width="1.0"/>
           <path id="arrow"
             d="M 11.500037,31.436501 C 11.940474,20.09759 22.043105,11.32322 32.158766,21.979434 L 37.068811,17.246167 C 37.068811,17.246167 37.088388,32 37.088388,32 L 22.160133,31.978069 C 22.160133,31.978069 26.997745,27.140456 26.997745,27.140456 C 18.528582,18.264221 13.291696,25.230495 11.500037,31.436501 z"
             style="fill:#404040;"/>
          </a>
         </g>
        </svg>
</svg>
