<?xml version="1.0" encoding="UTF-8" standalone="no"?>
<!DOCTYPE svg PUBLIC "-//W3C//DTD SVG 1.1//EN"
 "http://www.w3.org/Graphics/SVG/1.1/DTD/svg11.dtd">
<!-- Generated by graphviz version 2.43.0 (0)
 -->
<!-- Title: backend/customer/IgnorantCustomerBuilder.cpp Pages: 1 -->
<!--zoomable 610 -->
<svg id="main" version="1.1" xmlns="http://www.w3.org/2000/svg" xmlns:xlink="http://www.w3.org/1999/xlink" xml:space="preserve" onload="init(evt)">
<style type="text/css"><![CDATA[
.edge:hover path { stroke: red; }
.edge:hover polygon { stroke: red; fill: red; }
]]></style>
<script type="text/javascript"><![CDATA[
var edges = document.getElementsByTagName('g');
if (edges && edges.length) {
  for (var i=0;i<edges.length;i++) {
    if (edges[i].id.substr(0,4)=='edge') {
      edges[i].setAttribute('class','edge');
    }
  }
}
]]></script>
        <defs>
                <circle id="rim" cx="0" cy="0" r="7"/>
                <circle id="rim2" cx="0" cy="0" r="3.5"/>
                <g id="zoomPlus">
                        <use xlink:href="#rim" fill="#404040">
                                <set attributeName="fill" to="#808080" begin="zoomplus.mouseover" end="zoomplus.mouseout"/>
                        </use>
                        <path d="M-4,0h8M0,-4v8" fill="none" stroke="white" stroke-width="1.5" pointer-events="none"/>
                </g>
                <g id="zoomMin">
                        <use xlink:href="#rim" fill="#404040">
                                <set attributeName="fill" to="#808080" begin="zoomminus.mouseover" end="zoomminus.mouseout"/>
                        </use>
                        <path d="M-4,0h8" fill="none" stroke="white" stroke-width="1.5" pointer-events="none"/>
                </g>
                <g id="dirArrow">
                        <path fill="none" stroke="white" stroke-width="1.5" d="M0,-3.0v7 M-2.5,-0.5L0,-3.0L2.5,-0.5"/>
                </g>
               <g id="resetDef">
                       <use xlink:href="#rim2" fill="#404040">
                               <set attributeName="fill" to="#808080" begin="reset.mouseover" end="reset.mouseout"/>
                       </use>
               </g>
        </defs>

<script type="text/javascript">
var viewWidth = 1949;
var viewHeight = 610;
var sectionId = 'dynsection-0';
</script>
<script xlink:href="svgpan.js"/>
<svg id="graph" class="graph">
<g id="viewport">
<title>backend/customer/IgnorantCustomerBuilder.cpp</title>
<polygon fill="white" stroke="transparent" points="-4,4 -4,-606 1945.41,-606 1945.41,4 -4,4"/>
<!-- Node1 -->
<g id="node1" class="node">
<title>Node1</title>
<g id="a_node1"><a xlink:title="Implements the IgnorantCustomerBuilder class functionality.">
<polygon fill="#bfbfbf" stroke="black" points="444.91,-571.5 444.91,-601.5 593.91,-601.5 593.91,-571.5 444.91,-571.5"/>
<text text-anchor="start" x="452.91" y="-589.5" font-family="Helvetica,sans-Serif" font-size="10.00">backend/customer/Ignorant</text>
<text text-anchor="middle" x="519.41" y="-578.5" font-family="Helvetica,sans-Serif" font-size="10.00">CustomerBuilder.cpp</text>
</a>
</g>
</g>
<!-- Node2 -->
<g id="node2" class="node">
<title>Node2</title>
<g id="a_node2"><a xlink:href="IgnorantCustomerBuilder_8h.html" target="_top" xlink:title="Builder class for creating IgnorantCustomer objects with randomized dialogues.">
<polygon fill="white" stroke="black" points="445.91,-515.5 445.91,-534.5 592.91,-534.5 592.91,-515.5 445.91,-515.5"/>
<text text-anchor="middle" x="519.41" y="-522.5" font-family="Helvetica,sans-Serif" font-size="10.00">IgnorantCustomerBuilder.h</text>
</a>
</g>
</g>
<!-- Node1&#45;&gt;Node2 -->
<g id="edge1" class="edge">
<title>Node1&#45;&gt;Node2</title>
<path fill="none" stroke="midnightblue" d="M519.41,-571.4C519.41,-563.47 519.41,-553.46 519.41,-544.86"/>
<polygon fill="midnightblue" stroke="midnightblue" points="522.91,-544.66 519.41,-534.66 515.91,-544.66 522.91,-544.66"/>
</g>
<!-- Node3 -->
<g id="node3" class="node">
<title>Node3</title>
<g id="a_node3"><a xlink:href="CustomerBuilder_8h.html" target="_top" xlink:title="Abstract builder interface for creating Customer objects.">
<polygon fill="white" stroke="black" points="401.91,-459.5 401.91,-478.5 508.91,-478.5 508.91,-459.5 401.91,-459.5"/>
<text text-anchor="middle" x="455.41" y="-466.5" font-family="Helvetica,sans-Serif" font-size="10.00">CustomerBuilder.h</text>
</a>
</g>
</g>
<!-- Node2&#45;&gt;Node3 -->
<g id="edge2" class="edge">
<title>Node2&#45;&gt;Node3</title>
<path fill="none" stroke="midnightblue" d="M509.13,-515.32C499.57,-507.26 485.13,-495.08 473.62,-485.37"/>
<polygon fill="midnightblue" stroke="midnightblue" points="475.78,-482.61 465.88,-478.83 471.26,-487.96 475.78,-482.61"/>
</g>
<!-- Node38 -->
<g id="node38" class="node">
<title>Node38</title>
<g id="a_node38"><a xlink:href="IgnorantCustomer_8h.html" target="_top" xlink:title="Concrete customer class representing inexperienced plant buyers.">
<polygon fill="white" stroke="black" points="611.91,-459.5 611.91,-478.5 724.91,-478.5 724.91,-459.5 611.91,-459.5"/>
<text text-anchor="middle" x="668.41" y="-466.5" font-family="Helvetica,sans-Serif" font-size="10.00">IgnorantCustomer.h</text>
</a>
</g>
</g>
<!-- Node2&#45;&gt;Node38 -->
<g id="edge70" class="edge">
<title>Node2&#45;&gt;Node38</title>
<path fill="none" stroke="midnightblue" d="M543.02,-515.44C567.87,-506.44 607.18,-492.19 635.16,-482.05"/>
<polygon fill="midnightblue" stroke="midnightblue" points="636.7,-485.21 644.91,-478.52 634.32,-478.63 636.7,-485.21"/>
</g>
<!-- Node4 -->
<g id="node4" class="node">
<title>Node4</title>
<g id="a_node4"><a xlink:href="Customer_8h.html" target="_top" xlink:title="Abstract base class for all customer types in the plant shop game.">
<polygon fill="white" stroke="black" points="719.41,-403.5 719.41,-422.5 791.41,-422.5 791.41,-403.5 719.41,-403.5"/>
<text text-anchor="middle" x="755.41" y="-410.5" font-family="Helvetica,sans-Serif" font-size="10.00">Customer.h</text>
</a>
</g>
</g>
<!-- Node3&#45;&gt;Node4 -->
<g id="edge3" class="edge">
<title>Node3&#45;&gt;Node4</title>
<path fill="none" stroke="midnightblue" d="M502.94,-459.44C559.56,-449.25 653.48,-432.35 709.41,-422.28"/>
<polygon fill="midnightblue" stroke="midnightblue" points="710.17,-425.7 719.39,-420.48 708.93,-418.81 710.17,-425.7"/>
</g>
<!-- Node9 -->
<g id="node9" class="node">
<title>Node9</title>
<g id="a_node9"><a xlink:href="CustomerVisitor_8h.html" target="_top" xlink:title="Abstract visitor class for plant recommendation strategies for different customer types.">
<polygon fill="white" stroke="black" points="623.41,-347.5 623.41,-366.5 727.41,-366.5 727.41,-347.5 623.41,-347.5"/>
<text text-anchor="middle" x="675.41" y="-354.5" font-family="Helvetica,sans-Serif" font-size="10.00">CustomerVisitor.h</text>
</a>
</g>
</g>
<!-- Node3&#45;&gt;Node9 -->
<g id="edge59" class="edge">
<title>Node3&#45;&gt;Node9</title>
<path fill="none" stroke="midnightblue" d="M472.67,-459.37C511.07,-440.17 603.73,-393.84 649.26,-371.07"/>
<polygon fill="midnightblue" stroke="midnightblue" points="650.85,-374.19 658.23,-366.59 647.72,-367.93 650.85,-374.19"/>
</g>
<!-- Node33 -->
<g id="node33" class="node">
<title>Node33</title>
<g id="a_node33"><a xlink:title=" ">
<polygon fill="white" stroke="#bfbfbf" points="263.41,-235.5 263.41,-254.5 317.41,-254.5 317.41,-235.5 263.41,-235.5"/>
<text text-anchor="middle" x="290.41" y="-242.5" font-family="Helvetica,sans-Serif" font-size="10.00">random</text>
</a>
</g>
</g>
<!-- Node3&#45;&gt;Node33 -->
<g id="edge68" class="edge">
<title>Node3&#45;&gt;Node33</title>
<path fill="none" stroke="midnightblue" d="M448.94,-459.3C424.3,-426.15 336.05,-307.41 303.01,-262.96"/>
<polygon fill="midnightblue" stroke="midnightblue" points="305.79,-260.82 297.01,-254.88 300.17,-265 305.79,-260.82"/>
</g>
<!-- Node34 -->
<g id="node34" class="node">
<title>Node34</title>
<g id="a_node34"><a xlink:href="JSONGameConfiguration_8h.html" target="_top" xlink:title="JSON&#45;based game configuration implementation.">
<polygon fill="white" stroke="black" points="25.41,-179.5 25.41,-198.5 169.41,-198.5 169.41,-179.5 25.41,-179.5"/>
<text text-anchor="middle" x="97.41" y="-186.5" font-family="Helvetica,sans-Serif" font-size="10.00">JSONGameConfiguration.h</text>
</a>
</g>
</g>
<!-- Node3&#45;&gt;Node34 -->
<g id="edge60" class="edge">
<title>Node3&#45;&gt;Node34</title>
<path fill="none" stroke="midnightblue" d="M401.77,-468.16C347.68,-466.19 263.26,-457.18 199.41,-423 164.21,-404.16 137.41,-397.92 137.41,-358 137.41,-358 137.41,-358 137.41,-300 137.41,-265.62 119.93,-228.63 108.09,-207.5"/>
<polygon fill="midnightblue" stroke="midnightblue" points="111.03,-205.61 102.97,-198.73 104.98,-209.13 111.03,-205.61"/>
</g>
<!-- Node37 -->
<g id="node37" class="node">
<title>Node37</title>
<g id="a_node37"><a xlink:title=" ">
<polygon fill="white" stroke="#bfbfbf" points="208.41,-403.5 208.41,-422.5 258.41,-422.5 258.41,-403.5 208.41,-403.5"/>
<text text-anchor="middle" x="233.41" y="-410.5" font-family="Helvetica,sans-Serif" font-size="10.00">chrono</text>
</a>
</g>
</g>
<!-- Node3&#45;&gt;Node37 -->
<g id="edge69" class="edge">
<title>Node3&#45;&gt;Node37</title>
<path fill="none" stroke="midnightblue" d="M420.23,-459.44C378.64,-449.33 309.85,-432.59 268.36,-422.5"/>
<polygon fill="midnightblue" stroke="midnightblue" points="268.97,-419.05 258.43,-420.09 267.32,-425.85 268.97,-419.05"/>
</g>
<!-- Node5 -->
<g id="node5" class="node">
<title>Node5</title>
<g id="a_node5"><a xlink:title=" ">
<polygon fill="white" stroke="#bfbfbf" points="547.91,-67.5 547.91,-86.5 594.91,-86.5 594.91,-67.5 547.91,-67.5"/>
<text text-anchor="middle" x="571.41" y="-74.5" font-family="Helvetica,sans-Serif" font-size="10.00">vector</text>
</a>
</g>
</g>
<!-- Node4&#45;&gt;Node5 -->
<g id="edge4" class="edge">
<title>Node4&#45;&gt;Node5</title>
<path fill="none" stroke="midnightblue" d="M755.45,-403.28C755.17,-364.67 748.9,-207.26 667.41,-123 658.02,-113.29 627.84,-99.92 603.79,-90.28"/>
<polygon fill="midnightblue" stroke="midnightblue" points="604.86,-86.94 594.28,-86.53 602.29,-93.45 604.86,-86.94"/>
</g>
<!-- Node6 -->
<g id="node6" class="node">
<title>Node6</title>
<g id="a_node6"><a xlink:title=" ">
<polygon fill="white" stroke="#bfbfbf" points="702.41,-6 702.41,-25 746.41,-25 746.41,-6 702.41,-6"/>
<text text-anchor="middle" x="724.41" y="-13" font-family="Helvetica,sans-Serif" font-size="10.00">string</text>
</a>
</g>
</g>
<!-- Node4&#45;&gt;Node6 -->
<g id="edge5" class="edge">
<title>Node4&#45;&gt;Node6</title>
<path fill="none" stroke="midnightblue" d="M791.63,-411.36C957.6,-407.95 1637.41,-388.7 1637.41,-302 1637.41,-302 1637.41,-302 1637.41,-132 1637.41,-80.84 1590.79,-83.62 1542.41,-67 1393.36,-15.8 889.76,-15.4 756.81,-16.22"/>
<polygon fill="midnightblue" stroke="midnightblue" points="756.47,-12.72 746.5,-16.29 756.52,-19.72 756.47,-12.72"/>
</g>
<!-- Node7 -->
<g id="node7" class="node">
<title>Node7</title>
<g id="a_node7"><a xlink:title=" ">
<polygon fill="white" stroke="#bfbfbf" points="1531.41,-6 1531.41,-25 1591.41,-25 1591.41,-6 1531.41,-6"/>
<text text-anchor="middle" x="1561.41" y="-13" font-family="Helvetica,sans-Serif" font-size="10.00">iostream</text>
</a>
</g>
</g>
<!-- Node4&#45;&gt;Node7 -->
<g id="edge6" class="edge">
<title>Node4&#45;&gt;Node7</title>
<path fill="none" stroke="midnightblue" d="M791.58,-411.6C924.52,-409.87 1385.82,-401.48 1528.41,-367 1597.84,-350.21 1675.41,-373.44 1675.41,-302 1675.41,-302 1675.41,-302 1675.41,-132 1675.41,-83.2 1623.22,-47.56 1589.46,-29.61"/>
<polygon fill="midnightblue" stroke="midnightblue" points="1590.99,-26.46 1580.49,-25.02 1587.8,-32.69 1590.99,-26.46"/>
</g>
<!-- Node8 -->
<g id="node8" class="node">
<title>Node8</title>
<g id="a_node8"><a xlink:title=" ">
<polygon fill="white" stroke="#bfbfbf" points="1703.41,-347.5 1703.41,-366.5 1759.41,-366.5 1759.41,-347.5 1703.41,-347.5"/>
<text text-anchor="middle" x="1731.41" y="-354.5" font-family="Helvetica,sans-Serif" font-size="10.00">sstream</text>
</a>
</g>
</g>
<!-- Node4&#45;&gt;Node8 -->
<g id="edge7" class="edge">
<title>Node4&#45;&gt;Node8</title>
<path fill="none" stroke="midnightblue" d="M791.66,-412.37C916.81,-413.2 1342.1,-412.27 1689.41,-367 1690.66,-366.84 1691.92,-366.66 1693.2,-366.46"/>
<polygon fill="midnightblue" stroke="midnightblue" points="1693.81,-369.91 1703.05,-364.73 1692.6,-363.01 1693.81,-369.91"/>
</g>
<!-- Node4&#45;&gt;Node9 -->
<g id="edge8" class="edge">
<title>Node4&#45;&gt;Node9</title>
<path fill="none" stroke="midnightblue" d="M742.56,-403.32C730.19,-394.98 711.28,-382.21 696.67,-372.35"/>
<polygon fill="midnightblue" stroke="midnightblue" points="698.48,-369.35 688.23,-366.65 694.56,-375.15 698.48,-369.35"/>
</g>
<!-- Node14 -->
<g id="node14" class="node">
<title>Node14</title>
<g id="a_node14"><a xlink:href="Plant_8h.html" target="_top" xlink:title="Defines the abstract base class for all Plant objects used in the system.">
<polygon fill="white" stroke="black" points="831.41,-123.5 831.41,-142.5 881.41,-142.5 881.41,-123.5 831.41,-123.5"/>
<text text-anchor="middle" x="856.41" y="-130.5" font-family="Helvetica,sans-Serif" font-size="10.00">Plant.h</text>
</a>
</g>
</g>
<!-- Node4&#45;&gt;Node14 -->
<g id="edge57" class="edge">
<title>Node4&#45;&gt;Node14</title>
<path fill="none" stroke="midnightblue" d="M775.43,-403.44C807.65,-388.17 867.41,-352.97 867.41,-302 867.41,-302 867.41,-302 867.41,-244 867.41,-211.79 862.68,-174.53 859.42,-152.69"/>
<polygon fill="midnightblue" stroke="midnightblue" points="862.84,-151.87 857.85,-142.53 855.92,-152.95 862.84,-151.87"/>
</g>
<!-- Node19 -->
<g id="node19" class="node">
<title>Node19</title>
<g id="a_node19"><a xlink:title=" ">
<polygon fill="white" stroke="#bfbfbf" points="211.41,-67.5 211.41,-86.5 321.41,-86.5 321.41,-67.5 211.41,-67.5"/>
<text text-anchor="middle" x="266.41" y="-74.5" font-family="Helvetica,sans-Serif" font-size="10.00">nlohmann/json.hpp</text>
</a>
</g>
</g>
<!-- Node4&#45;&gt;Node19 -->
<g id="edge58" class="edge">
<title>Node4&#45;&gt;Node19</title>
<path fill="none" stroke="midnightblue" d="M719.25,-406.32C613.8,-388.95 310.57,-332.92 254.41,-255 219.65,-206.77 244.13,-130.64 258.28,-96.1"/>
<polygon fill="midnightblue" stroke="midnightblue" points="261.54,-97.37 262.26,-86.8 255.11,-94.62 261.54,-97.37"/>
</g>
<!-- Node9&#45;&gt;Node5 -->
<g id="edge9" class="edge">
<title>Node9&#45;&gt;Node5</title>
<path fill="none" stroke="midnightblue" d="M675.67,-347.44C676.21,-328.94 677.41,-283.82 677.41,-246 677.41,-246 677.41,-246 677.41,-188 677.41,-142.81 630.46,-109.05 599.05,-91.52"/>
<polygon fill="midnightblue" stroke="midnightblue" points="600.34,-88.24 589.87,-86.61 597.04,-94.41 600.34,-88.24"/>
</g>
<!-- Node10 -->
<g id="node10" class="node">
<title>Node10</title>
<g id="a_node10"><a xlink:title=" ">
<polygon fill="white" stroke="#bfbfbf" points="613.41,-67.5 613.41,-86.5 677.41,-86.5 677.41,-67.5 613.41,-67.5"/>
<text text-anchor="middle" x="645.41" y="-74.5" font-family="Helvetica,sans-Serif" font-size="10.00">algorithm</text>
</a>
</g>
</g>
<!-- Node9&#45;&gt;Node10 -->
<g id="edge10" class="edge">
<title>Node9&#45;&gt;Node10</title>
<path fill="none" stroke="midnightblue" d="M681.7,-347.26C704.05,-315.02 775.91,-200.66 729.41,-123 720.03,-107.34 703.13,-96.82 686.94,-89.91"/>
<polygon fill="midnightblue" stroke="midnightblue" points="688.13,-86.62 677.54,-86.26 685.59,-93.15 688.13,-86.62"/>
</g>
<!-- Node11 -->
<g id="node11" class="node">
<title>Node11</title>
<g id="a_node11"><a xlink:title=" ">
<polygon fill="white" stroke="#bfbfbf" points="595.91,-291.5 595.91,-310.5 648.91,-310.5 648.91,-291.5 595.91,-291.5"/>
<text text-anchor="middle" x="622.41" y="-298.5" font-family="Helvetica,sans-Serif" font-size="10.00">cstddef</text>
</a>
</g>
</g>
<!-- Node9&#45;&gt;Node11 -->
<g id="edge11" class="edge">
<title>Node9&#45;&gt;Node11</title>
<path fill="none" stroke="midnightblue" d="M666.66,-347.08C658.94,-339.22 647.5,-327.57 638.19,-318.08"/>
<polygon fill="midnightblue" stroke="midnightblue" points="640.5,-315.44 631,-310.75 635.5,-320.34 640.5,-315.44"/>
</g>
<!-- Node12 -->
<g id="node12" class="node">
<title>Node12</title>
<g id="a_node12"><a xlink:href="SalesFloor_8h.html" target="_top" xlink:title="Sales floor management for customer interactions and plant sales.">
<polygon fill="white" stroke="black" points="431.41,-291.5 431.41,-310.5 507.41,-310.5 507.41,-291.5 431.41,-291.5"/>
<text text-anchor="middle" x="469.41" y="-298.5" font-family="Helvetica,sans-Serif" font-size="10.00">SalesFloor.h</text>
</a>
</g>
</g>
<!-- Node9&#45;&gt;Node12 -->
<g id="edge12" class="edge">
<title>Node9&#45;&gt;Node12</title>
<path fill="none" stroke="midnightblue" d="M642.77,-347.44C607.36,-338.16 550.7,-323.31 511.86,-313.13"/>
<polygon fill="midnightblue" stroke="midnightblue" points="512.46,-309.67 501.9,-310.52 510.68,-316.44 512.46,-309.67"/>
</g>
<!-- Node9&#45;&gt;Node14 -->
<g id="edge56" class="edge">
<title>Node9&#45;&gt;Node14</title>
<path fill="none" stroke="midnightblue" d="M686.23,-347.48C697.58,-338.51 715.88,-323.92 731.41,-311 760.72,-286.61 773.03,-285.12 796.41,-255 821.83,-222.24 840.76,-177.01 850.04,-152.16"/>
<polygon fill="midnightblue" stroke="midnightblue" points="853.39,-153.17 853.51,-142.58 846.81,-150.78 853.39,-153.17"/>
</g>
<!-- Node12&#45;&gt;Node5 -->
<g id="edge53" class="edge">
<title>Node12&#45;&gt;Node5</title>
<path fill="none" stroke="midnightblue" d="M497.31,-291.48C534.13,-278.46 596.91,-249.64 619.41,-199 635.84,-162.03 605.82,-117.6 586.28,-94.22"/>
<polygon fill="midnightblue" stroke="midnightblue" points="588.86,-91.85 579.66,-86.61 583.58,-96.45 588.86,-91.85"/>
</g>
<!-- Node13 -->
<g id="node13" class="node">
<title>Node13</title>
<g id="a_node13"><a xlink:href="Inventory_8h.html" target="_top" xlink:title="Inventory management for plants in greenhouse and sales floor.">
<polygon fill="white" stroke="black" points="539.91,-179.5 539.91,-198.5 610.91,-198.5 610.91,-179.5 539.91,-179.5"/>
<text text-anchor="middle" x="575.41" y="-186.5" font-family="Helvetica,sans-Serif" font-size="10.00">Inventory.h</text>
</a>
</g>
</g>
<!-- Node12&#45;&gt;Node13 -->
<g id="edge13" class="edge">
<title>Node12&#45;&gt;Node13</title>
<path fill="none" stroke="midnightblue" d="M485.75,-291.46C500.05,-283.43 520.76,-270.35 535.41,-255 548.81,-240.96 559.97,-221.71 567.06,-207.81"/>
<polygon fill="midnightblue" stroke="midnightblue" points="570.23,-209.3 571.49,-198.78 563.94,-206.22 570.23,-209.3"/>
</g>
<!-- Node27 -->
<g id="node27" class="node">
<title>Node27</title>
<g id="a_node27"><a xlink:title=" ">
<polygon fill="white" stroke="#bfbfbf" points="252.91,-6 252.91,-25 317.91,-25 317.91,-6 252.91,-6"/>
<text text-anchor="middle" x="285.41" y="-13" font-family="Helvetica,sans-Serif" font-size="10.00">stdexcept</text>
</a>
</g>
</g>
<!-- Node12&#45;&gt;Node27 -->
<g id="edge55" class="edge">
<title>Node12&#45;&gt;Node27</title>
<path fill="none" stroke="midnightblue" d="M446.71,-291.49C424.6,-282.98 390.21,-269.16 361.41,-255 345.33,-247.09 343.43,-240.59 326.41,-235 260.52,-213.36 62.53,-250.79 16.41,-199 -59.01,-114.32 149.67,-50.14 242.95,-26.45"/>
<polygon fill="midnightblue" stroke="midnightblue" points="243.81,-29.84 252.67,-24.02 242.12,-23.05 243.81,-29.84"/>
</g>
<!-- Node30 -->
<g id="node30" class="node">
<title>Node30</title>
<g id="a_node30"><a xlink:href="TransactionHistory_8h.html" target="_top" xlink:title="Maintains history of financial transactions.">
<polygon fill="white" stroke="black" points="411.91,-235.5 411.91,-254.5 526.91,-254.5 526.91,-235.5 411.91,-235.5"/>
<text text-anchor="middle" x="469.41" y="-242.5" font-family="Helvetica,sans-Serif" font-size="10.00">TransactionHistory.h</text>
</a>
</g>
</g>
<!-- Node12&#45;&gt;Node30 -->
<g id="edge41" class="edge">
<title>Node12&#45;&gt;Node30</title>
<path fill="none" stroke="midnightblue" d="M469.41,-291.08C469.41,-284.01 469.41,-273.86 469.41,-264.99"/>
<polygon fill="midnightblue" stroke="midnightblue" points="472.91,-264.75 469.41,-254.75 465.91,-264.75 472.91,-264.75"/>
</g>
<!-- Node32 -->
<g id="node32" class="node">
<title>Node32</title>
<g id="a_node32"><a xlink:href="Ledger_8h.html" target="_top" xlink:title="Financial ledger for tracking game balance.">
<polygon fill="white" stroke="black" points="263.41,-179.5 263.41,-198.5 321.41,-198.5 321.41,-179.5 263.41,-179.5"/>
<text text-anchor="middle" x="292.41" y="-186.5" font-family="Helvetica,sans-Serif" font-size="10.00">Ledger.h</text>
</a>
</g>
</g>
<!-- Node12&#45;&gt;Node32 -->
<g id="edge52" class="edge">
<title>Node12&#45;&gt;Node32</title>
<path fill="none" stroke="midnightblue" d="M455.52,-291.37C425.02,-272.41 351.95,-227 314.84,-203.94"/>
<polygon fill="midnightblue" stroke="midnightblue" points="316.57,-200.9 306.23,-198.59 312.88,-206.84 316.57,-200.9"/>
</g>
<!-- Node12&#45;&gt;Node33 -->
<g id="edge54" class="edge">
<title>Node12&#45;&gt;Node33</title>
<path fill="none" stroke="midnightblue" d="M441.05,-291.44C410.31,-282.17 361.16,-267.34 327.41,-257.16"/>
<polygon fill="midnightblue" stroke="midnightblue" points="328.05,-253.7 317.47,-254.16 326.03,-260.4 328.05,-253.7"/>
</g>
<!-- Node13&#45;&gt;Node5 -->
<g id="edge39" class="edge">
<title>Node13&#45;&gt;Node5</title>
<path fill="none" stroke="midnightblue" d="M576.22,-179.16C577.25,-166.64 578.74,-143.05 577.41,-123 576.83,-114.34 575.64,-104.81 574.47,-96.75"/>
<polygon fill="midnightblue" stroke="midnightblue" points="577.89,-95.94 572.9,-86.59 570.97,-97.01 577.89,-95.94"/>
</g>
<!-- Node13&#45;&gt;Node6 -->
<g id="edge40" class="edge">
<title>Node13&#45;&gt;Node6</title>
<path fill="none" stroke="midnightblue" d="M565.91,-179.41C544,-159.35 491.16,-109.43 482.41,-87 479.18,-78.72 476.8,-73.9 482.41,-67 508.52,-34.88 632.71,-22.49 692.32,-18.34"/>
<polygon fill="midnightblue" stroke="midnightblue" points="692.58,-21.83 702.33,-17.67 692.12,-14.84 692.58,-21.83"/>
</g>
<!-- Node13&#45;&gt;Node14 -->
<g id="edge14" class="edge">
<title>Node13&#45;&gt;Node14</title>
<path fill="none" stroke="midnightblue" d="M611,-181.16C664.99,-170.78 767.02,-151.18 820.94,-140.82"/>
<polygon fill="midnightblue" stroke="midnightblue" points="821.9,-144.2 831.06,-138.87 820.58,-137.32 821.9,-144.2"/>
</g>
<!-- Node14&#45;&gt;Node5 -->
<g id="edge17" class="edge">
<title>Node14&#45;&gt;Node5</title>
<path fill="none" stroke="midnightblue" d="M831.22,-128.27C787.34,-121.6 693.86,-106.68 605.1,-86.98"/>
<polygon fill="midnightblue" stroke="midnightblue" points="605.66,-83.52 595.14,-84.74 604.13,-90.35 605.66,-83.52"/>
</g>
<!-- Node14&#45;&gt;Node6 -->
<g id="edge15" class="edge">
<title>Node14&#45;&gt;Node6</title>
<path fill="none" stroke="midnightblue" d="M845.06,-123.26C833.61,-114.36 815.51,-100.04 800.41,-87 779.49,-68.94 756.32,-47.18 741.13,-32.65"/>
<polygon fill="midnightblue" stroke="midnightblue" points="743.21,-29.8 733.57,-25.4 738.36,-34.85 743.21,-29.8"/>
</g>
<!-- Node14&#45;&gt;Node7 -->
<g id="edge19" class="edge">
<title>Node14&#45;&gt;Node7</title>
<path fill="none" stroke="midnightblue" d="M881.79,-131.16C1002.79,-127.04 1516.36,-108.35 1542.41,-87 1557.54,-74.6 1561.33,-51.52 1561.96,-35.14"/>
<polygon fill="midnightblue" stroke="midnightblue" points="1565.46,-35.11 1561.99,-25.1 1558.46,-35.09 1565.46,-35.11"/>
</g>
<!-- Node14&#45;&gt;Node10 -->
<g id="edge18" class="edge">
<title>Node14&#45;&gt;Node10</title>
<path fill="none" stroke="midnightblue" d="M831.38,-125.59C795.9,-116.52 730.55,-99.79 687.53,-88.78"/>
<polygon fill="midnightblue" stroke="midnightblue" points="688.2,-85.34 677.64,-86.25 686.46,-92.12 688.2,-85.34"/>
</g>
<!-- Node15 -->
<g id="node15" class="node">
<title>Node15</title>
<g id="a_node15"><a xlink:title=" ">
<polygon fill="white" stroke="#bfbfbf" points="491.41,-67.5 491.41,-86.5 529.41,-86.5 529.41,-67.5 491.41,-67.5"/>
<text text-anchor="middle" x="510.41" y="-74.5" font-family="Helvetica,sans-Serif" font-size="10.00">map</text>
</a>
</g>
</g>
<!-- Node14&#45;&gt;Node15 -->
<g id="edge16" class="edge">
<title>Node14&#45;&gt;Node15</title>
<path fill="none" stroke="midnightblue" d="M831.41,-129.92C778.92,-125.25 653.39,-112.47 539.49,-86.9"/>
<polygon fill="midnightblue" stroke="midnightblue" points="540.1,-83.45 529.57,-84.63 538.54,-90.27 540.1,-83.45"/>
</g>
<!-- Node16 -->
<g id="node16" class="node">
<title>Node16</title>
<g id="a_node16"><a xlink:title=" ">
<polygon fill="white" stroke="#bfbfbf" points="1019.91,-67.5 1019.91,-86.5 1132.91,-86.5 1132.91,-67.5 1019.91,-67.5"/>
<text text-anchor="middle" x="1076.41" y="-74.5" font-family="Helvetica,sans-Serif" font-size="10.00">boost/uuid/uuid.hpp</text>
</a>
</g>
</g>
<!-- Node14&#45;&gt;Node16 -->
<g id="edge20" class="edge">
<title>Node14&#45;&gt;Node16</title>
<path fill="none" stroke="midnightblue" d="M881.65,-125.81C918.27,-116.82 986.69,-100.02 1031.9,-88.93"/>
<polygon fill="midnightblue" stroke="midnightblue" points="1032.86,-92.29 1041.73,-86.51 1031.19,-85.5 1032.86,-92.29"/>
</g>
<!-- Node17 -->
<g id="node17" class="node">
<title>Node17</title>
<g id="a_node17"><a xlink:title=" ">
<polygon fill="white" stroke="#bfbfbf" points="1151.41,-67.5 1151.41,-86.5 1321.41,-86.5 1321.41,-67.5 1151.41,-67.5"/>
<text text-anchor="middle" x="1236.41" y="-74.5" font-family="Helvetica,sans-Serif" font-size="10.00">boost/uuid/uuid_generators.hpp</text>
</a>
</g>
</g>
<!-- Node14&#45;&gt;Node17 -->
<g id="edge21" class="edge">
<title>Node14&#45;&gt;Node17</title>
<path fill="none" stroke="midnightblue" d="M881.64,-128.42C938.88,-120.28 1080.29,-100.18 1166.3,-87.96"/>
<polygon fill="midnightblue" stroke="midnightblue" points="1166.84,-91.42 1176.24,-86.55 1165.85,-84.49 1166.84,-91.42"/>
</g>
<!-- Node18 -->
<g id="node18" class="node">
<title>Node18</title>
<g id="a_node18"><a xlink:title=" ">
<polygon fill="white" stroke="#bfbfbf" points="1339.91,-67.5 1339.91,-86.5 1466.91,-86.5 1466.91,-67.5 1339.91,-67.5"/>
<text text-anchor="middle" x="1403.41" y="-74.5" font-family="Helvetica,sans-Serif" font-size="10.00">boost/uuid/uuid_io.hpp</text>
</a>
</g>
</g>
<!-- Node14&#45;&gt;Node18 -->
<g id="edge22" class="edge">
<title>Node14&#45;&gt;Node18</title>
<path fill="none" stroke="midnightblue" d="M881.61,-129.86C951.09,-123.9 1151.45,-106.36 1329.64,-87.06"/>
<polygon fill="midnightblue" stroke="midnightblue" points="1330.16,-90.52 1339.72,-85.96 1329.4,-83.56 1330.16,-90.52"/>
</g>
<!-- Node14&#45;&gt;Node19 -->
<g id="edge23" class="edge">
<title>Node14&#45;&gt;Node19</title>
<path fill="none" stroke="midnightblue" d="M831.06,-129.68C744.83,-121.79 461.12,-95.82 331.75,-83.98"/>
<polygon fill="midnightblue" stroke="midnightblue" points="331.86,-80.48 321.58,-83.05 331.22,-87.45 331.86,-80.48"/>
</g>
<!-- Node20 -->
<g id="node20" class="node">
<title>Node20</title>
<g id="a_node20"><a xlink:title=" ">
<polygon fill="white" stroke="#bfbfbf" points="1485.41,-67.5 1485.41,-86.5 1533.41,-86.5 1533.41,-67.5 1485.41,-67.5"/>
<text text-anchor="middle" x="1509.41" y="-74.5" font-family="Helvetica,sans-Serif" font-size="10.00">thread</text>
</a>
</g>
</g>
<!-- Node14&#45;&gt;Node20 -->
<g id="edge24" class="edge">
<title>Node14&#45;&gt;Node20</title>
<path fill="none" stroke="midnightblue" d="M881.42,-131.92C964.64,-131.28 1239.75,-126.25 1475.26,-86.85"/>
<polygon fill="midnightblue" stroke="midnightblue" points="1476.11,-90.26 1485.38,-85.13 1474.93,-83.36 1476.11,-90.26"/>
</g>
<!-- Node21 -->
<g id="node21" class="node">
<title>Node21</title>
<g id="a_node21"><a xlink:title=" ">
<polygon fill="white" stroke="#bfbfbf" points="809.41,-67.5 809.41,-86.5 859.41,-86.5 859.41,-67.5 809.41,-67.5"/>
<text text-anchor="middle" x="834.41" y="-74.5" font-family="Helvetica,sans-Serif" font-size="10.00">atomic</text>
</a>
</g>
</g>
<!-- Node14&#45;&gt;Node21 -->
<g id="edge25" class="edge">
<title>Node14&#45;&gt;Node21</title>
<path fill="none" stroke="midnightblue" d="M852.78,-123.08C849.8,-115.77 845.48,-105.18 841.78,-96.1"/>
<polygon fill="midnightblue" stroke="midnightblue" points="844.99,-94.69 837.97,-86.75 838.51,-97.33 844.99,-94.69"/>
</g>
<!-- Node22 -->
<g id="node22" class="node">
<title>Node22</title>
<g id="a_node22"><a xlink:href="GreenSock_8h.html" target="_top" xlink:title=" ">
<polygon fill="white" stroke="black" points="1703.41,-67.5 1703.41,-86.5 1781.41,-86.5 1781.41,-67.5 1703.41,-67.5"/>
<text text-anchor="middle" x="1742.41" y="-74.5" font-family="Helvetica,sans-Serif" font-size="10.00">GreenSock.h</text>
</a>
</g>
</g>
<!-- Node14&#45;&gt;Node22 -->
<g id="edge26" class="edge">
<title>Node14&#45;&gt;Node22</title>
<path fill="none" stroke="midnightblue" d="M881.5,-130.47C1002.68,-123.09 1528.26,-91.05 1692.9,-81.02"/>
<polygon fill="midnightblue" stroke="midnightblue" points="1693.45,-84.49 1703.22,-80.39 1693.02,-77.5 1693.45,-84.49"/>
</g>
<!-- Node25 -->
<g id="node25" class="node">
<title>Node25</title>
<g id="a_node25"><a xlink:title=" ">
<polygon fill="white" stroke="#bfbfbf" points="1893.41,-6 1893.41,-25 1941.41,-25 1941.41,-6 1893.41,-6"/>
<text text-anchor="middle" x="1917.41" y="-13" font-family="Helvetica,sans-Serif" font-size="10.00">mutex</text>
</a>
</g>
</g>
<!-- Node14&#45;&gt;Node25 -->
<g id="edge38" class="edge">
<title>Node14&#45;&gt;Node25</title>
<path fill="none" stroke="midnightblue" d="M881.48,-131.47C1021.22,-128.45 1700.83,-112.51 1790.41,-87 1831.7,-75.24 1874.24,-47.94 1898.11,-30.97"/>
<polygon fill="midnightblue" stroke="midnightblue" points="1900.26,-33.73 1906.3,-25.03 1896.15,-28.07 1900.26,-33.73"/>
</g>
<!-- Node26 -->
<g id="node26" class="node">
<title>Node26</title>
<g id="a_node26"><a xlink:href="Logger_8h.html" target="_top" xlink:title="Header for Strategy Logger interface.">
<polygon fill="white" stroke="black" points="695.41,-67.5 695.41,-86.5 753.41,-86.5 753.41,-67.5 695.41,-67.5"/>
<text text-anchor="middle" x="724.41" y="-74.5" font-family="Helvetica,sans-Serif" font-size="10.00">Logger.h</text>
</a>
</g>
</g>
<!-- Node14&#45;&gt;Node26 -->
<g id="edge32" class="edge">
<title>Node14&#45;&gt;Node26</title>
<path fill="none" stroke="midnightblue" d="M835.49,-123.44C813.67,-114.52 779.26,-100.44 754.52,-90.32"/>
<polygon fill="midnightblue" stroke="midnightblue" points="755.81,-87.06 745.23,-86.52 753.16,-93.54 755.81,-87.06"/>
</g>
<!-- Node28 -->
<g id="node28" class="node">
<title>Node28</title>
<g id="a_node28"><a xlink:title=" ">
<polygon fill="white" stroke="#bfbfbf" points="877.91,-67.5 877.91,-86.5 924.91,-86.5 924.91,-67.5 877.91,-67.5"/>
<text text-anchor="middle" x="901.41" y="-74.5" font-family="Helvetica,sans-Serif" font-size="10.00">queue</text>
</a>
</g>
</g>
<!-- Node14&#45;&gt;Node28 -->
<g id="edge36" class="edge">
<title>Node14&#45;&gt;Node28</title>
<path fill="none" stroke="midnightblue" d="M863.84,-123.08C870.26,-115.38 879.71,-104.03 887.53,-94.65"/>
<polygon fill="midnightblue" stroke="midnightblue" points="890.4,-96.67 894.12,-86.75 885.03,-92.19 890.4,-96.67"/>
</g>
<!-- Node29 -->
<g id="node29" class="node">
<title>Node29</title>
<g id="a_node29"><a xlink:title=" ">
<polygon fill="white" stroke="#bfbfbf" points="943.41,-67.5 943.41,-86.5 1001.41,-86.5 1001.41,-67.5 943.41,-67.5"/>
<text text-anchor="middle" x="972.41" y="-74.5" font-family="Helvetica,sans-Serif" font-size="10.00">memory</text>
</a>
</g>
</g>
<!-- Node14&#45;&gt;Node29 -->
<g id="edge37" class="edge">
<title>Node14&#45;&gt;Node29</title>
<path fill="none" stroke="midnightblue" d="M874.79,-123.44C893.63,-114.68 923.14,-100.94 944.79,-90.86"/>
<polygon fill="midnightblue" stroke="midnightblue" points="946.53,-93.91 954.11,-86.52 943.57,-87.56 946.53,-93.91"/>
</g>
<!-- Node22&#45;&gt;Node6 -->
<g id="edge30" class="edge">
<title>Node22&#45;&gt;Node6</title>
<path fill="none" stroke="midnightblue" d="M1703.02,-71.72C1687.02,-70.08 1668.35,-68.3 1651.41,-67 1301.55,-40.18 876.34,-22.46 756.95,-17.75"/>
<polygon fill="midnightblue" stroke="midnightblue" points="756.8,-14.24 746.67,-17.35 756.53,-21.24 756.8,-14.24"/>
</g>
<!-- Node22&#45;&gt;Node7 -->
<g id="edge29" class="edge">
<title>Node22&#45;&gt;Node7</title>
<path fill="none" stroke="midnightblue" d="M1714.48,-67.44C1685.96,-58.61 1640.45,-44.3 1601.41,-31 1599.02,-30.19 1596.56,-29.33 1594.09,-28.46"/>
<polygon fill="midnightblue" stroke="midnightblue" points="1595.22,-25.15 1584.62,-25.09 1592.86,-31.74 1595.22,-25.15"/>
</g>
<!-- Node23 -->
<g id="node23" class="node">
<title>Node23</title>
<g id="a_node23"><a xlink:title=" ">
<polygon fill="white" stroke="#bfbfbf" points="1609.91,-0.5 1609.91,-30.5 1722.91,-30.5 1722.91,-0.5 1609.91,-0.5"/>
<text text-anchor="start" x="1617.91" y="-18.5" font-family="Helvetica,sans-Serif" font-size="10.00">websocketpp/config</text>
<text text-anchor="middle" x="1666.41" y="-7.5" font-family="Helvetica,sans-Serif" font-size="10.00">/asio_no_tls.hpp</text>
</a>
</g>
</g>
<!-- Node22&#45;&gt;Node23 -->
<g id="edge27" class="edge">
<title>Node22&#45;&gt;Node23</title>
<path fill="none" stroke="midnightblue" d="M1731.52,-67.48C1721.32,-59.49 1705.69,-47.25 1692.3,-36.77"/>
<polygon fill="midnightblue" stroke="midnightblue" points="1694.35,-33.93 1684.32,-30.52 1690.04,-39.44 1694.35,-33.93"/>
</g>
<!-- Node24 -->
<g id="node24" class="node">
<title>Node24</title>
<g id="a_node24"><a xlink:title=" ">
<polygon fill="white" stroke="#bfbfbf" points="1741.41,-6 1741.41,-25 1875.41,-25 1875.41,-6 1741.41,-6"/>
<text text-anchor="middle" x="1808.41" y="-13" font-family="Helvetica,sans-Serif" font-size="10.00">websocketpp/server.hpp</text>
</a>
</g>
</g>
<!-- Node22&#45;&gt;Node24 -->
<g id="edge28" class="edge">
<title>Node22&#45;&gt;Node24</title>
<path fill="none" stroke="midnightblue" d="M1751.86,-67.48C1762.16,-58.2 1778.82,-43.17 1791.4,-31.83"/>
<polygon fill="midnightblue" stroke="midnightblue" points="1793.89,-34.3 1798.97,-25.01 1789.2,-29.11 1793.89,-34.3"/>
</g>
<!-- Node22&#45;&gt;Node25 -->
<g id="edge31" class="edge">
<title>Node22&#45;&gt;Node25</title>
<path fill="none" stroke="midnightblue" d="M1772.65,-67.44C1801.62,-59 1846.42,-45.32 1884.41,-31 1886.02,-30.39 1887.66,-29.75 1889.32,-29.08"/>
<polygon fill="midnightblue" stroke="midnightblue" points="1890.85,-32.24 1898.7,-25.13 1888.13,-25.79 1890.85,-32.24"/>
</g>
<!-- Node26&#45;&gt;Node6 -->
<g id="edge33" class="edge">
<title>Node26&#45;&gt;Node6</title>
<path fill="none" stroke="midnightblue" d="M724.41,-67.48C724.41,-59.08 724.41,-45.98 724.41,-35.16"/>
<polygon fill="midnightblue" stroke="midnightblue" points="727.91,-35.01 724.41,-25.01 720.91,-35.01 727.91,-35.01"/>
</g>
<!-- Node26&#45;&gt;Node7 -->
<g id="edge34" class="edge">
<title>Node26&#45;&gt;Node7</title>
<path fill="none" stroke="midnightblue" d="M753.6,-72.19C767.72,-70.43 784.93,-68.43 800.41,-67 1075.34,-41.62 1407.3,-24.08 1520.96,-18.45"/>
<polygon fill="midnightblue" stroke="midnightblue" points="1521.46,-21.93 1531.27,-17.94 1521.11,-14.94 1521.46,-21.93"/>
</g>
<!-- Node26&#45;&gt;Node27 -->
<g id="edge35" class="edge">
<title>Node26&#45;&gt;Node27</title>
<path fill="none" stroke="midnightblue" d="M695.02,-68.71C692.12,-68.09 689.21,-67.51 686.41,-67 556.92,-43.58 401.97,-27.37 328.34,-20.38"/>
<polygon fill="midnightblue" stroke="midnightblue" points="328.36,-16.87 318.08,-19.41 327.7,-23.84 328.36,-16.87"/>
</g>
<!-- Node30&#45;&gt;Node5 -->
<g id="edge49" class="edge">
<title>Node30&#45;&gt;Node5</title>
<path fill="none" stroke="midnightblue" d="M474.89,-235.08C491.16,-208.61 539.33,-130.21 560.83,-95.21"/>
<polygon fill="midnightblue" stroke="midnightblue" points="563.89,-96.92 566.14,-86.57 557.93,-93.26 563.89,-96.92"/>
</g>
<!-- Node30&#45;&gt;Node7 -->
<g id="edge48" class="edge">
<title>Node30&#45;&gt;Node7</title>
<path fill="none" stroke="midnightblue" d="M527,-240.08C742.65,-224.82 1493.67,-166.32 1562.41,-87 1574.65,-72.87 1571.93,-50.5 1567.74,-34.76"/>
<polygon fill="midnightblue" stroke="midnightblue" points="1571.06,-33.63 1564.77,-25.1 1564.36,-35.69 1571.06,-33.63"/>
</g>
<!-- Node30&#45;&gt;Node13 -->
<g id="edge47" class="edge">
<title>Node30&#45;&gt;Node13</title>
<path fill="none" stroke="midnightblue" d="M486.44,-235.32C503.44,-226.66 529.78,-213.24 549.4,-203.25"/>
<polygon fill="midnightblue" stroke="midnightblue" points="551.1,-206.31 558.42,-198.65 547.92,-200.08 551.1,-206.31"/>
</g>
<!-- Node30&#45;&gt;Node19 -->
<g id="edge51" class="edge">
<title>Node30&#45;&gt;Node19</title>
<path fill="none" stroke="midnightblue" d="M441.46,-235.39C420.1,-227.94 390.66,-215.73 368.41,-199 328.69,-169.13 294.17,-121.06 277.34,-95.42"/>
<polygon fill="midnightblue" stroke="midnightblue" points="280.13,-93.3 271.78,-86.78 274.25,-97.08 280.13,-93.3"/>
</g>
<!-- Node30&#45;&gt;Node27 -->
<g id="edge50" class="edge">
<title>Node30&#45;&gt;Node27</title>
<path fill="none" stroke="midnightblue" d="M411.72,-237.8C356.55,-230.85 278.34,-218 254.41,-199 205.03,-159.78 171.51,-121.97 202.41,-67 212.38,-49.26 231.39,-37.02 248.7,-29.04"/>
<polygon fill="midnightblue" stroke="midnightblue" points="250.26,-32.19 258.08,-25.04 247.51,-25.75 250.26,-32.19"/>
</g>
<!-- Node31 -->
<g id="node31" class="node">
<title>Node31</title>
<g id="a_node31"><a xlink:href="TransactionMem_8h.html" target="_top" xlink:title=" ">
<polygon fill="white" stroke="black" points="377.41,-179.5 377.41,-198.5 483.41,-198.5 483.41,-179.5 377.41,-179.5"/>
<text text-anchor="middle" x="430.41" y="-186.5" font-family="Helvetica,sans-Serif" font-size="10.00">TransactionMem.h</text>
</a>
</g>
</g>
<!-- Node30&#45;&gt;Node31 -->
<g id="edge42" class="edge">
<title>Node30&#45;&gt;Node31</title>
<path fill="none" stroke="midnightblue" d="M462.97,-235.08C457.46,-227.46 449.38,-216.26 442.64,-206.94"/>
<polygon fill="midnightblue" stroke="midnightblue" points="445.42,-204.81 436.73,-198.75 439.75,-208.91 445.42,-204.81"/>
</g>
<!-- Node30&#45;&gt;Node32 -->
<g id="edge45" class="edge">
<title>Node30&#45;&gt;Node32</title>
<path fill="none" stroke="midnightblue" d="M441.36,-235.44C411.33,-226.28 363.5,-211.69 330.17,-201.52"/>
<polygon fill="midnightblue" stroke="midnightblue" points="330.91,-198.09 320.32,-198.52 328.87,-204.78 330.91,-198.09"/>
</g>
<!-- Node31&#45;&gt;Node6 -->
<g id="edge44" class="edge">
<title>Node31&#45;&gt;Node6</title>
<path fill="none" stroke="midnightblue" d="M410.19,-179.49C395.64,-172.17 377.11,-160.06 368.41,-143 344.79,-96.67 428.44,-70.24 435.41,-67 522.03,-26.79 636.8,-18.39 692.01,-16.78"/>
<polygon fill="midnightblue" stroke="midnightblue" points="692.32,-20.27 702.24,-16.54 692.16,-13.27 692.32,-20.27"/>
</g>
<!-- Node31&#45;&gt;Node14 -->
<g id="edge43" class="edge">
<title>Node31&#45;&gt;Node14</title>
<path fill="none" stroke="midnightblue" d="M483.5,-181.27C571.72,-170.09 746.2,-147.97 821,-138.49"/>
<polygon fill="midnightblue" stroke="midnightblue" points="821.81,-141.91 831.29,-137.18 820.93,-134.97 821.81,-141.91"/>
</g>
<!-- Node32&#45;&gt;Node19 -->
<g id="edge46" class="edge">
<title>Node32&#45;&gt;Node19</title>
<path fill="none" stroke="midnightblue" d="M290.37,-179.37C286.17,-161.62 276.49,-120.67 270.8,-96.6"/>
<polygon fill="midnightblue" stroke="midnightblue" points="274.15,-95.52 268.44,-86.59 267.33,-97.13 274.15,-95.52"/>
</g>
<!-- Node34&#45;&gt;Node19 -->
<g id="edge62" class="edge">
<title>Node34&#45;&gt;Node19</title>
<path fill="none" stroke="midnightblue" d="M110.67,-179.37C139.67,-160.49 208.97,-115.38 244.54,-92.24"/>
<polygon fill="midnightblue" stroke="midnightblue" points="246.74,-94.98 253.21,-86.59 242.92,-89.11 246.74,-94.98"/>
</g>
<!-- Node35 -->
<g id="node35" class="node">
<title>Node35</title>
<g id="a_node35"><a xlink:title=" ">
<polygon fill="white" stroke="#bfbfbf" points="69.91,-123.5 69.91,-142.5 124.91,-142.5 124.91,-123.5 69.91,-123.5"/>
<text text-anchor="middle" x="97.41" y="-130.5" font-family="Helvetica,sans-Serif" font-size="10.00">fstream</text>
</a>
</g>
</g>
<!-- Node34&#45;&gt;Node35 -->
<g id="edge61" class="edge">
<title>Node34&#45;&gt;Node35</title>
<path fill="none" stroke="midnightblue" d="M97.41,-179.08C97.41,-172.01 97.41,-161.86 97.41,-152.99"/>
<polygon fill="midnightblue" stroke="midnightblue" points="100.91,-152.75 97.41,-142.75 93.91,-152.75 100.91,-152.75"/>
</g>
<!-- Node36 -->
<g id="node36" class="node">
<title>Node36</title>
<g id="a_node36"><a xlink:href="GameConfiguration_8h.html" target="_top" xlink:title="Interface for obtaining game configuration.">
<polygon fill="white" stroke="black" points="377.41,-123.5 377.41,-142.5 497.41,-142.5 497.41,-123.5 377.41,-123.5"/>
<text text-anchor="middle" x="437.41" y="-130.5" font-family="Helvetica,sans-Serif" font-size="10.00">GameConfiguration.h</text>
</a>
</g>
</g>
<!-- Node34&#45;&gt;Node36 -->
<g id="edge63" class="edge">
<title>Node34&#45;&gt;Node36</title>
<path fill="none" stroke="midnightblue" d="M151.28,-179.44C211.71,-169.85 309.65,-154.29 373.79,-144.1"/>
<polygon fill="midnightblue" stroke="midnightblue" points="374.46,-147.54 383.79,-142.52 373.36,-140.63 374.46,-147.54"/>
</g>
<!-- Node36&#45;&gt;Node5 -->
<g id="edge64" class="edge">
<title>Node36&#45;&gt;Node5</title>
<path fill="none" stroke="midnightblue" d="M458.64,-123.44C480.79,-114.52 515.73,-100.44 540.84,-90.32"/>
<polygon fill="midnightblue" stroke="midnightblue" points="542.31,-93.5 550.28,-86.52 539.69,-87.01 542.31,-93.5"/>
</g>
<!-- Node36&#45;&gt;Node6 -->
<g id="edge65" class="edge">
<title>Node36&#45;&gt;Node6</title>
<path fill="none" stroke="midnightblue" d="M436.22,-123.46C434.82,-109.56 434.31,-82.09 449.41,-67 483.16,-33.28 627.2,-21.57 692.27,-17.95"/>
<polygon fill="midnightblue" stroke="midnightblue" points="692.57,-21.44 702.37,-17.42 692.2,-14.45 692.57,-21.44"/>
</g>
<!-- Node36&#45;&gt;Node15 -->
<g id="edge67" class="edge">
<title>Node36&#45;&gt;Node15</title>
<path fill="none" stroke="midnightblue" d="M449.14,-123.32C460.25,-115.11 477.15,-102.6 490.39,-92.81"/>
<polygon fill="midnightblue" stroke="midnightblue" points="492.51,-95.59 498.47,-86.83 488.35,-89.97 492.51,-95.59"/>
</g>
<!-- Node36&#45;&gt;Node27 -->
<g id="edge66" class="edge">
<title>Node36&#45;&gt;Node27</title>
<path fill="none" stroke="midnightblue" d="M425.98,-123.32C400.24,-103.75 337.41,-56.02 305.19,-31.53"/>
<polygon fill="midnightblue" stroke="midnightblue" points="307.05,-28.55 296.97,-25.28 302.81,-34.12 307.05,-28.55"/>
</g>
<!-- Node38&#45;&gt;Node4 -->
<g id="edge71" class="edge">
<title>Node38&#45;&gt;Node4</title>
<path fill="none" stroke="midnightblue" d="M682.39,-459.32C695.96,-450.9 716.79,-437.97 732.73,-428.07"/>
<polygon fill="midnightblue" stroke="midnightblue" points="734.81,-430.9 741.47,-422.65 731.12,-424.95 734.81,-430.9"/>
</g>
</g>
</svg>
        <g id="navigator" transform="translate(0 0)" fill="#404254">
                <rect fill="#f2f5e9" fill-opacity="0.5" stroke="#606060" stroke-width=".5" x="0" y="0" width="60" height="60"/>
                <use id="zoomplus" xlink:href="#zoomPlus" x="17" y="9" onmousedown="handleZoom(evt,'in')"/>
                <use id="zoomminus" xlink:href="#zoomMin" x="42" y="9" onmousedown="handleZoom(evt,'out')"/>
                <use id="reset" xlink:href="#resetDef" x="30" y="36" onmousedown="handleReset()"/>
                <g id="arrowUp" xlink:href="#dirArrow" transform="translate(30 24)" onmousedown="handlePan(0,-1)">
                  <use xlink:href="#rim" fill="#404040">
                        <set attributeName="fill" to="#808080" begin="arrowUp.mouseover" end="arrowUp.mouseout"/>
                  </use>
                  <path fill="none" stroke="white" stroke-width="1.5" d="M0,-3.0v7 M-2.5,-0.5L0,-3.0L2.5,-0.5"/>
                </g>
                <g id="arrowRight" xlink:href="#dirArrow" transform="rotate(90) translate(36 -43)" onmousedown="handlePan(1,0)">
                  <use xlink:href="#rim" fill="#404040">
                        <set attributeName="fill" to="#808080" begin="arrowRight.mouseover" end="arrowRight.mouseout"/>
                  </use>
                  <path fill="none" stroke="white" stroke-width="1.5" d="M0,-3.0v7 M-2.5,-0.5L0,-3.0L2.5,-0.5"/>
                </g>
                <g id="arrowDown" xlink:href="#dirArrow" transform="rotate(180) translate(-30 -48)" onmousedown="handlePan(0,1)">
                  <use xlink:href="#rim" fill="#404040">
                        <set attributeName="fill" to="#808080" begin="arrowDown.mouseover" end="arrowDown.mouseout"/>
                  </use>
                  <path fill="none" stroke="white" stroke-width="1.5" d="M0,-3.0v7 M-2.5,-0.5L0,-3.0L2.5,-0.5"/>
                </g>
                <g id="arrowLeft" xlink:href="#dirArrow" transform="rotate(270) translate(-36 17)" onmousedown="handlePan(-1,0)">
                  <use xlink:href="#rim" fill="#404040">
                        <set attributeName="fill" to="#808080" begin="arrowLeft.mouseover" end="arrowLeft.mouseout"/>
                  </use>
                  <path fill="none" stroke="white" stroke-width="1.5" d="M0,-3.0v7 M-2.5,-0.5L0,-3.0L2.5,-0.5"/>
                </g>
        </g>
        <svg viewBox="0 0 15 15" width="100%" height="30px" preserveAspectRatio="xMaxYMin meet">
         <g id="arrow_out" transform="scale(0.3 0.3)">
          <a xlink:href="IgnorantCustomerBuilder_8cpp__incl_org.svg" target="_base">
           <rect id="button" ry="5" rx="5" y="6" x="6" height="38" width="38"
                fill="#f2f5e9" fill-opacity="0.5" stroke="#606060" stroke-width="1.0"/>
           <path id="arrow"
             d="M 11.500037,31.436501 C 11.940474,20.09759 22.043105,11.32322 32.158766,21.979434 L 37.068811,17.246167 C 37.068811,17.246167 37.088388,32 37.088388,32 L 22.160133,31.978069 C 22.160133,31.978069 26.997745,27.140456 26.997745,27.140456 C 18.528582,18.264221 13.291696,25.230495 11.500037,31.436501 z"
             style="fill:#404040;"/>
          </a>
         </g>
        </svg>
</svg>
