<?xml version="1.0" encoding="UTF-8" standalone="no"?>
<!DOCTYPE svg PUBLIC "-//W3C//DTD SVG 1.1//EN"
 "http://www.w3.org/Graphics/SVG/1.1/DTD/svg11.dtd">
<!-- Generated by graphviz version 2.43.0 (0)
 -->
<!-- Title: Graphical Class Hierarchy Pages: 1 -->
<svg width="242pt" height="104pt"
 viewBox="0.00 0.00 242.00 104.00" xmlns="http://www.w3.org/2000/svg" xmlns:xlink="http://www.w3.org/1999/xlink">
<g id="graph0" class="graph" transform="scale(1 1) rotate(0) translate(4 100)">
<title>Graphical Class Hierarchy</title>
<polygon fill="white" stroke="transparent" points="-4,4 -4,-100 238,-100 238,4 -4,4"/>
<!-- Node0 -->
<g id="node1" class="node">
<title>Node0</title>
<g id="a_node1"><a xlink:href="classMenuOption.html" target="_top" xlink:title=" ">
<polygon fill="white" stroke="black" points="0,-38.5 0,-57.5 76,-57.5 76,-38.5 0,-38.5"/>
<text text-anchor="middle" x="38" y="-45.5" font-family="Helvetica,sans-Serif" font-size="10.00">MenuOption</text>
</a>
</g>
</g>
<!-- Node1 -->
<g id="node2" class="node">
<title>Node1</title>
<g id="a_node2"><a xlink:href="classContinueGameOption.html" target="_top" xlink:title="Inherits from MenuOption. Represents ConcreteCommand participant in the Command design pattern....">
<polygon fill="white" stroke="black" points="112,-76.5 112,-95.5 234,-95.5 234,-76.5 112,-76.5"/>
<text text-anchor="middle" x="173" y="-83.5" font-family="Helvetica,sans-Serif" font-size="10.00">ContinueGameOption</text>
</a>
</g>
</g>
<!-- Node0&#45;&gt;Node1 -->
<g id="edge1" class="edge">
<title>Node0&#45;&gt;Node1</title>
<path fill="none" stroke="midnightblue" d="M82.37,-60.39C100.58,-65.59 121.44,-71.55 138.45,-76.41"/>
<polygon fill="midnightblue" stroke="midnightblue" points="83.14,-56.97 72.56,-57.59 81.22,-63.7 83.14,-56.97"/>
</g>
<!-- Node2 -->
<g id="node3" class="node">
<title>Node2</title>
<g id="a_node3"><a xlink:href="classExitGameOption.html" target="_top" xlink:title="Command participant for encapsulating the command of exiting the game allows for advanced logging and...">
<polygon fill="white" stroke="black" points="124.5,-38.5 124.5,-57.5 221.5,-57.5 221.5,-38.5 124.5,-38.5"/>
<text text-anchor="middle" x="173" y="-45.5" font-family="Helvetica,sans-Serif" font-size="10.00">ExitGameOption</text>
</a>
</g>
</g>
<!-- Node0&#45;&gt;Node2 -->
<g id="edge2" class="edge">
<title>Node0&#45;&gt;Node2</title>
<path fill="none" stroke="midnightblue" d="M86.15,-48C98.49,-48 111.81,-48 124.19,-48"/>
<polygon fill="midnightblue" stroke="midnightblue" points="86.05,-44.5 76.05,-48 86.05,-51.5 86.05,-44.5"/>
</g>
<!-- Node3 -->
<g id="node4" class="node">
<title>Node3</title>
<g id="a_node4"><a xlink:href="classNewGameOption.html" target="_top" xlink:title="Implements MenuOption interface. NewGameOption invokes and logs the operation to create a new Game.">
<polygon fill="white" stroke="black" points="123,-0.5 123,-19.5 223,-19.5 223,-0.5 123,-0.5"/>
<text text-anchor="middle" x="173" y="-7.5" font-family="Helvetica,sans-Serif" font-size="10.00">NewGameOption</text>
</a>
</g>
</g>
<!-- Node0&#45;&gt;Node3 -->
<g id="edge3" class="edge">
<title>Node0&#45;&gt;Node3</title>
<path fill="none" stroke="midnightblue" d="M82.37,-35.61C100.58,-30.41 121.44,-24.45 138.45,-19.59"/>
<polygon fill="midnightblue" stroke="midnightblue" points="81.22,-32.3 72.56,-38.41 83.14,-39.03 81.22,-32.3"/>
</g>
</g>
</svg>
