<?xml version="1.0" encoding="UTF-8" standalone="no"?>
<!DOCTYPE svg PUBLIC "-//W3C//DTD SVG 1.1//EN"
 "http://www.w3.org/Graphics/SVG/1.1/DTD/svg11.dtd">
<!-- Generated by graphviz version 2.43.0 (0)
 -->
<!-- Title: Graphical Class Hierarchy Pages: 1 -->
<svg width="149pt" height="104pt"
 viewBox="0.00 0.00 149.00 104.00" xmlns="http://www.w3.org/2000/svg" xmlns:xlink="http://www.w3.org/1999/xlink">
<g id="graph0" class="graph" transform="scale(1 1) rotate(0) translate(4 100)">
<title>Graphical Class Hierarchy</title>
<polygon fill="white" stroke="transparent" points="-4,4 -4,-100 145,-100 145,4 -4,4"/>
<!-- Node0 -->
<g id="node1" class="node">
<title>Node0</title>
<g id="a_node1"><a xlink:href="classPlant.html" target="_top" xlink:title="Abstract base class representing a plant entity in the greenhouse simulation.">
<polygon fill="white" stroke="black" points="0,-38.5 0,-57.5 41,-57.5 41,-38.5 0,-38.5"/>
<text text-anchor="middle" x="20.5" y="-45.5" font-family="Helvetica,sans-Serif" font-size="10.00">Plant</text>
</a>
</g>
</g>
<!-- Node1 -->
<g id="node2" class="node">
<title>Node1</title>
<g id="a_node2"><a xlink:href="classFlower.html" target="_top" xlink:title="Represents a Flower plant type within the greenhouse system.">
<polygon fill="white" stroke="black" points="84,-76.5 84,-95.5 134,-95.5 134,-76.5 84,-76.5"/>
<text text-anchor="middle" x="109" y="-83.5" font-family="Helvetica,sans-Serif" font-size="10.00">Flower</text>
</a>
</g>
</g>
<!-- Node0&#45;&gt;Node1 -->
<g id="edge1" class="edge">
<title>Node0&#45;&gt;Node1</title>
<path fill="none" stroke="midnightblue" d="M50.5,-60.74C62.21,-65.88 75.48,-71.71 86.32,-76.48"/>
<polygon fill="midnightblue" stroke="midnightblue" points="51.69,-57.44 41.13,-56.62 48.88,-63.85 51.69,-57.44"/>
</g>
<!-- Node2 -->
<g id="node3" class="node">
<title>Node2</title>
<g id="a_node3"><a xlink:href="classSucculent.html" target="_top" xlink:title="Represents a Succulent plant type within the greenhouse system.">
<polygon fill="white" stroke="black" points="77,-38.5 77,-57.5 141,-57.5 141,-38.5 77,-38.5"/>
<text text-anchor="middle" x="109" y="-45.5" font-family="Helvetica,sans-Serif" font-size="10.00">Succulent</text>
</a>
</g>
</g>
<!-- Node0&#45;&gt;Node2 -->
<g id="edge2" class="edge">
<title>Node0&#45;&gt;Node2</title>
<path fill="none" stroke="midnightblue" d="M51.15,-48C59.46,-48 68.52,-48 76.91,-48"/>
<polygon fill="midnightblue" stroke="midnightblue" points="51.13,-44.5 41.13,-48 51.13,-51.5 51.13,-44.5"/>
</g>
<!-- Node3 -->
<g id="node4" class="node">
<title>Node3</title>
<g id="a_node4"><a xlink:href="classTree.html" target="_top" xlink:title="Represents a Tree plant type within the greenhouse system.">
<polygon fill="white" stroke="black" points="90.5,-0.5 90.5,-19.5 127.5,-19.5 127.5,-0.5 90.5,-0.5"/>
<text text-anchor="middle" x="109" y="-7.5" font-family="Helvetica,sans-Serif" font-size="10.00">Tree</text>
</a>
</g>
</g>
<!-- Node0&#45;&gt;Node3 -->
<g id="edge3" class="edge">
<title>Node0&#45;&gt;Node3</title>
<path fill="none" stroke="midnightblue" d="M50.3,-35.35C63.49,-29.55 78.72,-22.86 90.21,-17.81"/>
<polygon fill="midnightblue" stroke="midnightblue" points="48.88,-32.15 41.13,-39.38 51.69,-38.56 48.88,-32.15"/>
</g>
</g>
</svg>
