<?xml version="1.0" encoding="UTF-8" standalone="no"?>
<!DOCTYPE svg PUBLIC "-//W3C//DTD SVG 1.1//EN"
 "http://www.w3.org/Graphics/SVG/1.1/DTD/svg11.dtd">
<!-- Generated by graphviz version 2.43.0 (0)
 -->
<!-- Title: Graphical Class Hierarchy Pages: 1 -->
<svg width="264pt" height="104pt"
 viewBox="0.00 0.00 264.00 104.00" xmlns="http://www.w3.org/2000/svg" xmlns:xlink="http://www.w3.org/1999/xlink">
<g id="graph0" class="graph" transform="scale(1 1) rotate(0) translate(4 100)">
<title>Graphical Class Hierarchy</title>
<polygon fill="white" stroke="transparent" points="-4,4 -4,-100 260,-100 260,4 -4,4"/>
<!-- Node0 -->
<g id="node1" class="node">
<title>Node0</title>
<g id="a_node1"><a xlink:href="classCustomerVisitor.html" target="_top" xlink:title="Abstract base class for defining operations for the concrete visitors.">
<polygon fill="white" stroke="black" points="0,-38.5 0,-57.5 95,-57.5 95,-38.5 0,-38.5"/>
<text text-anchor="middle" x="47.5" y="-45.5" font-family="Helvetica,sans-Serif" font-size="10.00">CustomerVisitor</text>
</a>
</g>
</g>
<!-- Node1 -->
<g id="node2" class="node">
<title>Node1</title>
<g id="a_node2"><a xlink:href="classVisitEasyCustomer.html" target="_top" xlink:title="Visitor implementation for customers preferring easy&#45;to&#45;maintain plants.">
<polygon fill="white" stroke="black" points="139,-76.5 139,-95.5 248,-95.5 248,-76.5 139,-76.5"/>
<text text-anchor="middle" x="193.5" y="-83.5" font-family="Helvetica,sans-Serif" font-size="10.00">VisitEasyCustomer</text>
</a>
</g>
</g>
<!-- Node0&#45;&gt;Node1 -->
<g id="edge1" class="edge">
<title>Node0&#45;&gt;Node1</title>
<path fill="none" stroke="midnightblue" d="M94.67,-60.18C114.66,-65.46 137.72,-71.54 156.42,-76.48"/>
<polygon fill="midnightblue" stroke="midnightblue" points="95.4,-56.76 84.84,-57.59 93.61,-63.52 95.4,-56.76"/>
</g>
<!-- Node2 -->
<g id="node3" class="node">
<title>Node2</title>
<g id="a_node3"><a xlink:href="classVisitHighCustomer.html" target="_top" xlink:title="Visitor implementation for customers preferring challenging plants.">
<polygon fill="white" stroke="black" points="139.5,-38.5 139.5,-57.5 247.5,-57.5 247.5,-38.5 139.5,-38.5"/>
<text text-anchor="middle" x="193.5" y="-45.5" font-family="Helvetica,sans-Serif" font-size="10.00">VisitHighCustomer</text>
</a>
</g>
</g>
<!-- Node0&#45;&gt;Node2 -->
<g id="edge2" class="edge">
<title>Node0&#45;&gt;Node2</title>
<path fill="none" stroke="midnightblue" d="M105.4,-48C116.63,-48 128.39,-48 139.49,-48"/>
<polygon fill="midnightblue" stroke="midnightblue" points="105.25,-44.5 95.25,-48 105.25,-51.5 105.25,-44.5"/>
</g>
<!-- Node3 -->
<g id="node4" class="node">
<title>Node3</title>
<g id="a_node4"><a xlink:href="classVisitMediumCustomer.html" target="_top" xlink:title="Visitor implementation for balanced plant recommendations.">
<polygon fill="white" stroke="black" points="131,-0.5 131,-19.5 256,-19.5 256,-0.5 131,-0.5"/>
<text text-anchor="middle" x="193.5" y="-7.5" font-family="Helvetica,sans-Serif" font-size="10.00">VisitMediumCustomer</text>
</a>
</g>
</g>
<!-- Node0&#45;&gt;Node3 -->
<g id="edge3" class="edge">
<title>Node0&#45;&gt;Node3</title>
<path fill="none" stroke="midnightblue" d="M94.67,-35.82C114.66,-30.54 137.72,-24.46 156.42,-19.52"/>
<polygon fill="midnightblue" stroke="midnightblue" points="93.61,-32.48 84.84,-38.41 95.4,-39.24 93.61,-32.48"/>
</g>
</g>
</svg>
