<?xml version="1.0" encoding="UTF-8" standalone="no"?>
<!DOCTYPE svg PUBLIC "-//W3C//DTD SVG 1.1//EN"
 "http://www.w3.org/Graphics/SVG/1.1/DTD/svg11.dtd">
<!-- Generated by graphviz version 2.43.0 (0)
 -->
<!-- Title: Graphical Class Hierarchy Pages: 1 -->
<svg width="231pt" height="104pt"
 viewBox="0.00 0.00 231.00 104.00" xmlns="http://www.w3.org/2000/svg" xmlns:xlink="http://www.w3.org/1999/xlink">
<g id="graph0" class="graph" transform="scale(1 1) rotate(0) translate(4 100)">
<title>Graphical Class Hierarchy</title>
<polygon fill="white" stroke="transparent" points="-4,4 -4,-100 227,-100 227,4 -4,4"/>
<!-- Node0 -->
<g id="node1" class="node">
<title>Node0</title>
<g id="a_node1"><a xlink:href="classCustomer.html" target="_top" xlink:title="Abstract base class defining the interface and shared behavior for all customer types.">
<polygon fill="white" stroke="black" points="0,-38.5 0,-57.5 64,-57.5 64,-38.5 0,-38.5"/>
<text text-anchor="middle" x="32" y="-45.5" font-family="Helvetica,sans-Serif" font-size="10.00">Customer</text>
</a>
</g>
</g>
<!-- Node1 -->
<g id="node2" class="node">
<title>Node1</title>
<g id="a_node2"><a xlink:href="classAverageCustomer.html" target="_top" xlink:title="Represents a customer with some plant experience who can handle moderate care requirements.">
<polygon fill="white" stroke="black" points="109.5,-76.5 109.5,-95.5 213.5,-95.5 213.5,-76.5 109.5,-76.5"/>
<text text-anchor="middle" x="161.5" y="-83.5" font-family="Helvetica,sans-Serif" font-size="10.00">AverageCustomer</text>
</a>
</g>
</g>
<!-- Node0&#45;&gt;Node1 -->
<g id="edge1" class="edge">
<title>Node0&#45;&gt;Node1</title>
<path fill="none" stroke="midnightblue" d="M74.17,-60.27C91.71,-65.5 111.87,-71.51 128.3,-76.4"/>
<polygon fill="midnightblue" stroke="midnightblue" points="74.77,-56.8 64.19,-57.3 72.77,-63.51 74.77,-56.8"/>
</g>
<!-- Node2 -->
<g id="node3" class="node">
<title>Node2</title>
<g id="a_node3"><a xlink:href="classGreenFingerCustomer.html" target="_top" xlink:title="Represents an experienced plant enthusiast who seeks challenging specimens.">
<polygon fill="white" stroke="black" points="100,-38.5 100,-57.5 223,-57.5 223,-38.5 100,-38.5"/>
<text text-anchor="middle" x="161.5" y="-45.5" font-family="Helvetica,sans-Serif" font-size="10.00">GreenFingerCustomer</text>
</a>
</g>
</g>
<!-- Node0&#45;&gt;Node2 -->
<g id="edge2" class="edge">
<title>Node0&#45;&gt;Node2</title>
<path fill="none" stroke="midnightblue" d="M74.25,-48C82.47,-48 91.26,-48 99.97,-48"/>
<polygon fill="midnightblue" stroke="midnightblue" points="74.19,-44.5 64.19,-48 74.19,-51.5 74.19,-44.5"/>
</g>
<!-- Node3 -->
<g id="node4" class="node">
<title>Node3</title>
<g id="a_node4"><a xlink:href="classIgnorantCustomer.html" target="_top" xlink:title="Represents a customer with minimal plant knowledge who needs easy&#45;care plants.">
<polygon fill="white" stroke="black" points="109.5,-0.5 109.5,-19.5 213.5,-19.5 213.5,-0.5 109.5,-0.5"/>
<text text-anchor="middle" x="161.5" y="-7.5" font-family="Helvetica,sans-Serif" font-size="10.00">IgnorantCustomer</text>
</a>
</g>
</g>
<!-- Node0&#45;&gt;Node3 -->
<g id="edge3" class="edge">
<title>Node0&#45;&gt;Node3</title>
<path fill="none" stroke="midnightblue" d="M74.17,-35.73C91.71,-30.5 111.87,-24.49 128.3,-19.6"/>
<polygon fill="midnightblue" stroke="midnightblue" points="72.77,-32.49 64.19,-38.7 74.77,-39.2 72.77,-32.49"/>
</g>
</g>
</svg>
