<?xml version="1.0" encoding="UTF-8" standalone="no"?>
<!DOCTYPE svg PUBLIC "-//W3C//DTD SVG 1.1//EN"
 "http://www.w3.org/Graphics/SVG/1.1/DTD/svg11.dtd">
<!-- Generated by graphviz version 2.43.0 (0)
 -->
<!-- Title: Graphical Class Hierarchy Pages: 1 -->
<svg width="287pt" height="66pt"
 viewBox="0.00 0.00 287.00 66.00" xmlns="http://www.w3.org/2000/svg" xmlns:xlink="http://www.w3.org/1999/xlink">
<g id="graph0" class="graph" transform="scale(1 1) rotate(0) translate(4 62)">
<title>Graphical Class Hierarchy</title>
<polygon fill="white" stroke="transparent" points="-4,4 -4,-62 283,-62 283,4 -4,4"/>
<!-- Node0 -->
<g id="node1" class="node">
<title>Node0</title>
<g id="a_node1"><a xlink:href="classLogger.html" target="_top" xlink:title="Interface for concrete Log strategies to implement.">
<polygon fill="white" stroke="black" points="0,-19.5 0,-38.5 50,-38.5 50,-19.5 0,-19.5"/>
<text text-anchor="middle" x="25" y="-26.5" font-family="Helvetica,sans-Serif" font-size="10.00">Logger</text>
</a>
</g>
</g>
<!-- Node1 -->
<g id="node2" class="node">
<title>Node1</title>
<g id="a_node2"><a xlink:href="classBasicLogger.html" target="_top" xlink:title="Implements Logger interface. Reads LOG_FILE (log file path) environment variable, opens and appends l...">
<polygon fill="white" stroke="black" points="89,-38.5 89,-57.5 165,-57.5 165,-38.5 89,-38.5"/>
<text text-anchor="middle" x="127" y="-45.5" font-family="Helvetica,sans-Serif" font-size="10.00">BasicLogger</text>
</a>
</g>
</g>
<!-- Node0&#45;&gt;Node1 -->
<g id="edge1" class="edge">
<title>Node0&#45;&gt;Node1</title>
<path fill="none" stroke="midnightblue" d="M60.18,-35.49C69.39,-37.24 79.38,-39.14 88.75,-40.92"/>
<polygon fill="midnightblue" stroke="midnightblue" points="60.68,-32.03 50.21,-33.6 59.38,-38.9 60.68,-32.03"/>
</g>
<!-- Node2 -->
<g id="node3" class="node">
<title>Node2</title>
<g id="a_node3"><a xlink:href="classLogDecorator.html" target="_top" xlink:title="Allows user to add extended functionality to the log ConcreteStrategies, i.e. can add cout before log...">
<polygon fill="white" stroke="black" points="86,-0.5 86,-19.5 168,-19.5 168,-0.5 86,-0.5"/>
<text text-anchor="middle" x="127" y="-7.5" font-family="Helvetica,sans-Serif" font-size="10.00">LogDecorator</text>
</a>
</g>
</g>
<!-- Node0&#45;&gt;Node2 -->
<g id="edge2" class="edge">
<title>Node0&#45;&gt;Node2</title>
<path fill="none" stroke="midnightblue" d="M60.17,-22.51C68.36,-20.95 77.19,-19.27 85.63,-17.67"/>
<polygon fill="midnightblue" stroke="midnightblue" points="59.38,-19.1 50.21,-24.4 60.68,-25.97 59.38,-19.1"/>
</g>
<!-- Node3 -->
<g id="node4" class="node">
<title>Node3</title>
<g id="a_node4"><a xlink:href="classCoutAndLog.html" target="_top" xlink:title=" ">
<polygon fill="white" stroke="black" points="204,-0.5 204,-19.5 279,-19.5 279,-0.5 204,-0.5"/>
<text text-anchor="middle" x="241.5" y="-7.5" font-family="Helvetica,sans-Serif" font-size="10.00">CoutAndLog</text>
</a>
</g>
</g>
<!-- Node2&#45;&gt;Node3 -->
<g id="edge3" class="edge">
<title>Node2&#45;&gt;Node3</title>
<path fill="none" stroke="midnightblue" d="M178.55,-10C187.07,-10 195.77,-10 203.85,-10"/>
<polygon fill="midnightblue" stroke="midnightblue" points="178.3,-6.5 168.3,-10 178.3,-13.5 178.3,-6.5"/>
</g>
</g>
</svg>
