<?xml version="1.0" encoding="UTF-8" standalone="no"?>
<!DOCTYPE svg PUBLIC "-//W3C//DTD SVG 1.1//EN"
 "http://www.w3.org/Graphics/SVG/1.1/DTD/svg11.dtd">
<!-- Generated by graphviz version 2.43.0 (0)
 -->
<!-- Title: Graphical Class Hierarchy Pages: 1 -->
<svg width="221pt" height="142pt"
 viewBox="0.00 0.00 221.00 142.00" xmlns="http://www.w3.org/2000/svg" xmlns:xlink="http://www.w3.org/1999/xlink">
<g id="graph0" class="graph" transform="scale(1 1) rotate(0) translate(4 138)">
<title>Graphical Class Hierarchy</title>
<polygon fill="white" stroke="transparent" points="-4,4 -4,-138 217,-138 217,4 -4,4"/>
<!-- Node0 -->
<g id="node1" class="node">
<title>Node0</title>
<g id="a_node1"><a xlink:href="classTransactionStrategy.html" target="_top" xlink:title="The TransactionStrategy class an abstract class that will help define how transactions will be handel...">
<polygon fill="white" stroke="black" points="0,-57.5 0,-76.5 113,-76.5 113,-57.5 0,-57.5"/>
<text text-anchor="middle" x="56.5" y="-64.5" font-family="Helvetica,sans-Serif" font-size="10.00">TransactionStrategy</text>
</a>
</g>
</g>
<!-- Node1 -->
<g id="node2" class="node">
<title>Node1</title>
<g id="a_node2"><a xlink:href="classPlantDied.html" target="_top" xlink:title="Will handle the transaction as if a plant died after it was not cared for properly.">
<polygon fill="white" stroke="black" points="149,-114.5 149,-133.5 213,-133.5 213,-114.5 149,-114.5"/>
<text text-anchor="middle" x="181" y="-121.5" font-family="Helvetica,sans-Serif" font-size="10.00">PlantDied</text>
</a>
</g>
</g>
<!-- Node0&#45;&gt;Node1 -->
<g id="edge1" class="edge">
<title>Node0&#45;&gt;Node1</title>
<path fill="none" stroke="midnightblue" d="M87.37,-80.9C109.72,-91.3 139.71,-105.25 159.43,-114.43"/>
<polygon fill="midnightblue" stroke="midnightblue" points="88.55,-77.59 78,-76.54 85.59,-83.93 88.55,-77.59"/>
</g>
<!-- Node2 -->
<g id="node3" class="node">
<title>Node2</title>
<g id="a_node3"><a xlink:href="classRestock.html" target="_top" xlink:title="Will handle the transaction as a refund.">
<polygon fill="white" stroke="black" points="153,-76.5 153,-95.5 209,-95.5 209,-76.5 153,-76.5"/>
<text text-anchor="middle" x="181" y="-83.5" font-family="Helvetica,sans-Serif" font-size="10.00">Restock</text>
</a>
</g>
</g>
<!-- Node0&#45;&gt;Node2 -->
<g id="edge2" class="edge">
<title>Node0&#45;&gt;Node2</title>
<path fill="none" stroke="midnightblue" d="M123.07,-77.17C133.55,-78.79 143.85,-80.39 152.76,-81.77"/>
<polygon fill="midnightblue" stroke="midnightblue" points="123.43,-73.68 113.02,-75.61 122.36,-80.6 123.43,-73.68"/>
</g>
<!-- Node3 -->
<g id="node4" class="node">
<title>Node3</title>
<g id="a_node4"><a xlink:href="classReturn.html" target="_top" xlink:title="Will handle the transaction as a Return.">
<polygon fill="white" stroke="black" points="156.5,-38.5 156.5,-57.5 205.5,-57.5 205.5,-38.5 156.5,-38.5"/>
<text text-anchor="middle" x="181" y="-45.5" font-family="Helvetica,sans-Serif" font-size="10.00">Return</text>
</a>
</g>
</g>
<!-- Node0&#45;&gt;Node3 -->
<g id="edge3" class="edge">
<title>Node0&#45;&gt;Node3</title>
<path fill="none" stroke="midnightblue" d="M123.01,-56.84C134.9,-54.99 146.58,-53.18 156.24,-51.69"/>
<polygon fill="midnightblue" stroke="midnightblue" points="122.36,-53.4 113.02,-58.39 123.43,-60.32 122.36,-53.4"/>
</g>
<!-- Node4 -->
<g id="node5" class="node">
<title>Node4</title>
<g id="a_node5"><a xlink:href="classSale.html" target="_top" xlink:title="Will handle the transaction as a sale.">
<polygon fill="white" stroke="black" points="162,-0.5 162,-19.5 200,-19.5 200,-0.5 162,-0.5"/>
<text text-anchor="middle" x="181" y="-7.5" font-family="Helvetica,sans-Serif" font-size="10.00">Sale</text>
</a>
</g>
</g>
<!-- Node0&#45;&gt;Node4 -->
<g id="edge4" class="edge">
<title>Node0&#45;&gt;Node4</title>
<path fill="none" stroke="midnightblue" d="M87.1,-53.23C110.41,-42.38 142.14,-27.62 161.83,-18.45"/>
<polygon fill="midnightblue" stroke="midnightblue" points="85.59,-50.07 78,-57.46 88.55,-56.41 85.59,-50.07"/>
</g>
</g>
</svg>
