<?xml version="1.0" encoding="UTF-8" standalone="no"?>
<!DOCTYPE svg PUBLIC "-//W3C//DTD SVG 1.1//EN"
 "http://www.w3.org/Graphics/SVG/1.1/DTD/svg11.dtd">
<!-- Generated by graphviz version 2.43.0 (0)
 -->
<!-- Title: Graphical Class Hierarchy Pages: 1 -->
<svg width="224pt" height="104pt"
 viewBox="0.00 0.00 224.00 104.00" xmlns="http://www.w3.org/2000/svg" xmlns:xlink="http://www.w3.org/1999/xlink">
<g id="graph0" class="graph" transform="scale(1 1) rotate(0) translate(4 100)">
<title>Graphical Class Hierarchy</title>
<polygon fill="white" stroke="transparent" points="-4,4 -4,-100 220,-100 220,4 -4,4"/>
<!-- Node0 -->
<g id="node1" class="node">
<title>Node0</title>
<g id="a_node1"><a xlink:href="classGreenhouseStaff.html" target="_top" xlink:title="Abstract base class for greenhouse staff observers.">
<polygon fill="white" stroke="black" points="0,-38.5 0,-57.5 98,-57.5 98,-38.5 0,-38.5"/>
<text text-anchor="middle" x="49" y="-45.5" font-family="Helvetica,sans-Serif" font-size="10.00">GreenhouseStaff</text>
</a>
</g>
</g>
<!-- Node1 -->
<g id="node2" class="node">
<title>Node1</title>
<g id="a_node2"><a xlink:href="classFertilizerStaff.html" target="_top" xlink:title="Concrete observer class for staff responsible for fertilizing plants.">
<polygon fill="white" stroke="black" points="134,-76.5 134,-95.5 216,-95.5 216,-76.5 134,-76.5"/>
<text text-anchor="middle" x="175" y="-83.5" font-family="Helvetica,sans-Serif" font-size="10.00">FertilizerStaff</text>
</a>
</g>
</g>
<!-- Node0&#45;&gt;Node1 -->
<g id="edge1" class="edge">
<title>Node0&#45;&gt;Node1</title>
<path fill="none" stroke="midnightblue" d="M90.9,-60.54C107.77,-65.7 127.01,-71.6 142.72,-76.41"/>
<polygon fill="midnightblue" stroke="midnightblue" points="91.88,-57.17 81.29,-57.59 89.83,-63.87 91.88,-57.17"/>
</g>
<!-- Node2 -->
<g id="node3" class="node">
<title>Node2</title>
<g id="a_node3"><a xlink:href="classPruningStaff.html" target="_top" xlink:title="Concrete observer class for staff responsible for pruning plants.">
<polygon fill="white" stroke="black" points="137,-38.5 137,-57.5 213,-57.5 213,-38.5 137,-38.5"/>
<text text-anchor="middle" x="175" y="-45.5" font-family="Helvetica,sans-Serif" font-size="10.00">PruningStaff</text>
</a>
</g>
</g>
<!-- Node0&#45;&gt;Node2 -->
<g id="edge2" class="edge">
<title>Node0&#45;&gt;Node2</title>
<path fill="none" stroke="midnightblue" d="M108.31,-48C117.99,-48 127.8,-48 136.78,-48"/>
<polygon fill="midnightblue" stroke="midnightblue" points="108.3,-44.5 98.3,-48 108.3,-51.5 108.3,-44.5"/>
</g>
<!-- Node3 -->
<g id="node4" class="node">
<title>Node3</title>
<g id="a_node4"><a xlink:href="classWaterStaff.html" target="_top" xlink:title="Concrete observer class for staff responsible for watering plants.">
<polygon fill="white" stroke="black" points="141,-0.5 141,-19.5 209,-19.5 209,-0.5 141,-0.5"/>
<text text-anchor="middle" x="175" y="-7.5" font-family="Helvetica,sans-Serif" font-size="10.00">WaterStaff</text>
</a>
</g>
</g>
<!-- Node0&#45;&gt;Node3 -->
<g id="edge3" class="edge">
<title>Node0&#45;&gt;Node3</title>
<path fill="none" stroke="midnightblue" d="M90.9,-35.46C107.77,-30.3 127.01,-24.4 142.72,-19.59"/>
<polygon fill="midnightblue" stroke="midnightblue" points="89.83,-32.13 81.29,-38.41 91.88,-38.83 89.83,-32.13"/>
</g>
</g>
</svg>
