<?xml version="1.0" encoding="UTF-8" standalone="no"?>
<!DOCTYPE svg PUBLIC "-//W3C//DTD SVG 1.1//EN"
 "http://www.w3.org/Graphics/SVG/1.1/DTD/svg11.dtd">
<!-- Generated by graphviz version 2.43.0 (0)
 -->
<!-- Title: Graphical Class Hierarchy Pages: 1 -->
<svg width="300pt" height="104pt"
 viewBox="0.00 0.00 300.00 104.00" xmlns="http://www.w3.org/2000/svg" xmlns:xlink="http://www.w3.org/1999/xlink">
<g id="graph0" class="graph" transform="scale(1 1) rotate(0) translate(4 100)">
<title>Graphical Class Hierarchy</title>
<polygon fill="white" stroke="transparent" points="-4,4 -4,-100 296,-100 296,4 -4,4"/>
<!-- Node0 -->
<g id="node1" class="node">
<title>Node0</title>
<g id="a_node1"><a xlink:href="classCustomerBuilder.html" target="_top" xlink:title="Abstract base class for building Customer objects step by step.">
<polygon fill="white" stroke="black" points="0,-38.5 0,-57.5 98,-57.5 98,-38.5 0,-38.5"/>
<text text-anchor="middle" x="49" y="-45.5" font-family="Helvetica,sans-Serif" font-size="10.00">CustomerBuilder</text>
</a>
</g>
</g>
<!-- Node1 -->
<g id="node2" class="node">
<title>Node1</title>
<g id="a_node2"><a xlink:href="classAverageCustomerBuilder.html" target="_top" xlink:title="Concrete builder for constructing AverageCustomer objects with random dialogue selection.">
<polygon fill="white" stroke="black" points="144,-76.5 144,-95.5 282,-95.5 282,-76.5 144,-76.5"/>
<text text-anchor="middle" x="213" y="-83.5" font-family="Helvetica,sans-Serif" font-size="10.00">AverageCustomerBuilder</text>
</a>
</g>
</g>
<!-- Node0&#45;&gt;Node1 -->
<g id="edge1" class="edge">
<title>Node0&#45;&gt;Node1</title>
<path fill="none" stroke="midnightblue" d="M100.71,-59.9C123.49,-65.24 149.99,-71.45 171.41,-76.48"/>
<polygon fill="midnightblue" stroke="midnightblue" points="101.41,-56.47 90.88,-57.59 99.82,-63.28 101.41,-56.47"/>
</g>
<!-- Node2 -->
<g id="node3" class="node">
<title>Node2</title>
<g id="a_node3"><a xlink:href="classGreenFingerCustomerBuilder.html" target="_top" xlink:title="Concrete builder for constructing GreenFingerCustomer objects with random dialogue selection.">
<polygon fill="white" stroke="black" points="134,-38.5 134,-57.5 292,-57.5 292,-38.5 134,-38.5"/>
<text text-anchor="middle" x="213" y="-45.5" font-family="Helvetica,sans-Serif" font-size="10.00">GreenFingerCustomerBuilder</text>
</a>
</g>
</g>
<!-- Node0&#45;&gt;Node2 -->
<g id="edge2" class="edge">
<title>Node0&#45;&gt;Node2</title>
<path fill="none" stroke="midnightblue" d="M108.18,-48C116.56,-48 125.29,-48 133.98,-48"/>
<polygon fill="midnightblue" stroke="midnightblue" points="108.17,-44.5 98.17,-48 108.17,-51.5 108.17,-44.5"/>
</g>
<!-- Node3 -->
<g id="node4" class="node">
<title>Node3</title>
<g id="a_node4"><a xlink:href="classIgnorantCustomerBuilder.html" target="_top" xlink:title="Concrete builder for constructing IgnorantCustomer objects with random dialogue selection.">
<polygon fill="white" stroke="black" points="143.5,-0.5 143.5,-19.5 282.5,-19.5 282.5,-0.5 143.5,-0.5"/>
<text text-anchor="middle" x="213" y="-7.5" font-family="Helvetica,sans-Serif" font-size="10.00">IgnorantCustomerBuilder</text>
</a>
</g>
</g>
<!-- Node0&#45;&gt;Node3 -->
<g id="edge3" class="edge">
<title>Node0&#45;&gt;Node3</title>
<path fill="none" stroke="midnightblue" d="M100.71,-36.1C123.49,-30.76 149.99,-24.55 171.41,-19.52"/>
<polygon fill="midnightblue" stroke="midnightblue" points="99.82,-32.72 90.88,-38.41 101.41,-39.53 99.82,-32.72"/>
</g>
</g>
</svg>
