<?xml version="1.0" encoding="UTF-8" standalone="no"?>
<!DOCTYPE svg PUBLIC "-//W3C//DTD SVG 1.1//EN"
 "http://www.w3.org/Graphics/SVG/1.1/DTD/svg11.dtd">
<!-- Generated by graphviz version 2.43.0 (0)
 -->
<!-- Title: Graphical Class Hierarchy Pages: 1 -->
<svg width="221pt" height="104pt"
 viewBox="0.00 0.00 221.00 104.00" xmlns="http://www.w3.org/2000/svg" xmlns:xlink="http://www.w3.org/1999/xlink">
<g id="graph0" class="graph" transform="scale(1 1) rotate(0) translate(4 100)">
<title>Graphical Class Hierarchy</title>
<polygon fill="white" stroke="transparent" points="-4,4 -4,-100 217,-100 217,4 -4,4"/>
<!-- Node0 -->
<g id="node1" class="node">
<title>Node0</title>
<g id="a_node1"><a xlink:href="classPlantCreator.html" target="_top" xlink:title="Abstract base class responsible for creating and managing Plant objects.">
<polygon fill="white" stroke="black" points="0,-38.5 0,-57.5 77,-57.5 77,-38.5 0,-38.5"/>
<text text-anchor="middle" x="38.5" y="-45.5" font-family="Helvetica,sans-Serif" font-size="10.00">PlantCreator</text>
</a>
</g>
</g>
<!-- Node1 -->
<g id="node2" class="node">
<title>Node1</title>
<g id="a_node2"><a xlink:href="classFlowerCreator.html" target="_top" xlink:title="Concrete creator class responsible for creating Flower objects.">
<polygon fill="white" stroke="black" points="120,-76.5 120,-95.5 206,-95.5 206,-76.5 120,-76.5"/>
<text text-anchor="middle" x="163" y="-83.5" font-family="Helvetica,sans-Serif" font-size="10.00">FlowerCreator</text>
</a>
</g>
</g>
<!-- Node0&#45;&gt;Node1 -->
<g id="edge1" class="edge">
<title>Node0&#45;&gt;Node1</title>
<path fill="none" stroke="midnightblue" d="M80.38,-60.68C96.93,-65.81 115.72,-71.64 131.1,-76.41"/>
<polygon fill="midnightblue" stroke="midnightblue" points="81,-57.21 70.41,-57.59 78.93,-63.89 81,-57.21"/>
</g>
<!-- Node2 -->
<g id="node3" class="node">
<title>Node2</title>
<g id="a_node3"><a xlink:href="classSucculentCreator.html" target="_top" xlink:title="Concrete creator class responsible for creating Succulent objects.">
<polygon fill="white" stroke="black" points="113,-38.5 113,-57.5 213,-57.5 213,-38.5 113,-38.5"/>
<text text-anchor="middle" x="163" y="-45.5" font-family="Helvetica,sans-Serif" font-size="10.00">SucculentCreator</text>
</a>
</g>
</g>
<!-- Node0&#45;&gt;Node2 -->
<g id="edge2" class="edge">
<title>Node0&#45;&gt;Node2</title>
<path fill="none" stroke="midnightblue" d="M87.27,-48C95.67,-48 104.42,-48 112.86,-48"/>
<polygon fill="midnightblue" stroke="midnightblue" points="87.25,-44.5 77.25,-48 87.25,-51.5 87.25,-44.5"/>
</g>
<!-- Node3 -->
<g id="node4" class="node">
<title>Node3</title>
<g id="a_node4"><a xlink:href="classTreeCreator.html" target="_top" xlink:title="Concrete creator class responsible for creating Tree objects.">
<polygon fill="white" stroke="black" points="126.5,-0.5 126.5,-19.5 199.5,-19.5 199.5,-0.5 126.5,-0.5"/>
<text text-anchor="middle" x="163" y="-7.5" font-family="Helvetica,sans-Serif" font-size="10.00">TreeCreator</text>
</a>
</g>
</g>
<!-- Node0&#45;&gt;Node3 -->
<g id="edge3" class="edge">
<title>Node0&#45;&gt;Node3</title>
<path fill="none" stroke="midnightblue" d="M80.38,-35.32C96.93,-30.19 115.72,-24.36 131.1,-19.59"/>
<polygon fill="midnightblue" stroke="midnightblue" points="78.93,-32.11 70.41,-38.41 81,-38.79 78.93,-32.11"/>
</g>
</g>
</svg>
