<?xml version="1.0" encoding="UTF-8" standalone="no"?>
<!DOCTYPE svg PUBLIC "-//W3C//DTD SVG 1.1//EN"
 "http://www.w3.org/Graphics/SVG/1.1/DTD/svg11.dtd">
<!-- Generated by graphviz version 2.43.0 (0)
 -->
<!-- Title: Graphical Class Hierarchy Pages: 1 -->
<svg width="184pt" height="66pt"
 viewBox="0.00 0.00 184.00 66.00" xmlns="http://www.w3.org/2000/svg" xmlns:xlink="http://www.w3.org/1999/xlink">
<g id="graph0" class="graph" transform="scale(1 1) rotate(0) translate(4 62)">
<title>Graphical Class Hierarchy</title>
<polygon fill="white" stroke="transparent" points="-4,4 -4,-62 180,-62 180,4 -4,4"/>
<!-- Node0 -->
<g id="node1" class="node">
<title>Node0</title>
<g id="a_node1"><a xlink:href="classPlantState.html" target="_top" xlink:title="Abstract base class representing different states of a plant.">
<polygon fill="white" stroke="black" points="0,-19.5 0,-38.5 67,-38.5 67,-19.5 0,-19.5"/>
<text text-anchor="middle" x="33.5" y="-26.5" font-family="Helvetica,sans-Serif" font-size="10.00">PlantState</text>
</a>
</g>
</g>
<!-- Node1 -->
<g id="node2" class="node">
<title>Node1</title>
<g id="a_node2"><a xlink:href="classNotSellable.html" target="_top" xlink:title="Concrete state class representing a plant that is not ready for sale.">
<polygon fill="white" stroke="black" points="103,-38.5 103,-57.5 176,-57.5 176,-38.5 103,-38.5"/>
<text text-anchor="middle" x="139.5" y="-45.5" font-family="Helvetica,sans-Serif" font-size="10.00">NotSellable</text>
</a>
</g>
</g>
<!-- Node0&#45;&gt;Node1 -->
<g id="edge1" class="edge">
<title>Node0&#45;&gt;Node1</title>
<path fill="none" stroke="midnightblue" d="M77.23,-36.81C85.71,-38.36 94.53,-39.97 102.74,-41.47"/>
<polygon fill="midnightblue" stroke="midnightblue" points="77.59,-33.31 67.12,-34.96 76.33,-40.2 77.59,-33.31"/>
</g>
<!-- Node2 -->
<g id="node3" class="node">
<title>Node2</title>
<g id="a_node3"><a xlink:href="classSellable.html" target="_top" xlink:title="Concrete state class representing a plant that is ready for sale.">
<polygon fill="white" stroke="black" points="111.5,-0.5 111.5,-19.5 167.5,-19.5 167.5,-0.5 111.5,-0.5"/>
<text text-anchor="middle" x="139.5" y="-7.5" font-family="Helvetica,sans-Serif" font-size="10.00">Sellable</text>
</a>
</g>
</g>
<!-- Node0&#45;&gt;Node2 -->
<g id="edge2" class="edge">
<title>Node0&#45;&gt;Node2</title>
<path fill="none" stroke="midnightblue" d="M77.04,-21.23C88.59,-19.12 100.78,-16.89 111.23,-14.98"/>
<polygon fill="midnightblue" stroke="midnightblue" points="76.33,-17.8 67.12,-23.04 77.59,-24.69 76.33,-17.8"/>
</g>
</g>
</svg>
