<?xml version="1.0" encoding="UTF-8" standalone="no"?>
<!DOCTYPE svg PUBLIC "-//W3C//DTD SVG 1.1//EN"
 "http://www.w3.org/Graphics/SVG/1.1/DTD/svg11.dtd">
<!-- Generated by graphviz version 2.43.0 (0)
 -->
<!-- Title: Graphical Class Hierarchy Pages: 1 -->
<svg width="220pt" height="66pt"
 viewBox="0.00 0.00 220.00 66.00" xmlns="http://www.w3.org/2000/svg" xmlns:xlink="http://www.w3.org/1999/xlink">
<g id="graph0" class="graph" transform="scale(1 1) rotate(0) translate(4 62)">
<title>Graphical Class Hierarchy</title>
<polygon fill="white" stroke="transparent" points="-4,4 -4,-62 216,-62 216,4 -4,4"/>
<!-- Node0 -->
<g id="node1" class="node">
<title>Node0</title>
<g id="a_node1"><a xlink:href="classMenuOption.html" target="_top" xlink:title="Abstract base class for menu command options.">
<polygon fill="white" stroke="black" points="0,-19.5 0,-38.5 76,-38.5 76,-19.5 0,-19.5"/>
<text text-anchor="middle" x="38" y="-26.5" font-family="Helvetica,sans-Serif" font-size="10.00">MenuOption</text>
</a>
</g>
</g>
<!-- Node1 -->
<g id="node2" class="node">
<title>Node1</title>
<g id="a_node2"><a xlink:href="classExitGameOption.html" target="_top" xlink:title="Command participant for encapsulating the command of exiting the game.">
<polygon fill="white" stroke="black" points="113.5,-38.5 113.5,-57.5 210.5,-57.5 210.5,-38.5 113.5,-38.5"/>
<text text-anchor="middle" x="162" y="-45.5" font-family="Helvetica,sans-Serif" font-size="10.00">ExitGameOption</text>
</a>
</g>
</g>
<!-- Node0&#45;&gt;Node1 -->
<g id="edge1" class="edge">
<title>Node0&#45;&gt;Node1</title>
<path fill="none" stroke="midnightblue" d="M86.36,-36.38C95.15,-37.74 104.34,-39.18 113.15,-40.55"/>
<polygon fill="midnightblue" stroke="midnightblue" points="86.69,-32.88 76.27,-34.8 85.61,-39.8 86.69,-32.88"/>
</g>
<!-- Node2 -->
<g id="node3" class="node">
<title>Node2</title>
<g id="a_node3"><a xlink:href="classNewGameOption.html" target="_top" xlink:title="Command for creating a new game instance.">
<polygon fill="white" stroke="black" points="112,-0.5 112,-19.5 212,-19.5 212,-0.5 112,-0.5"/>
<text text-anchor="middle" x="162" y="-7.5" font-family="Helvetica,sans-Serif" font-size="10.00">NewGameOption</text>
</a>
</g>
</g>
<!-- Node0&#45;&gt;Node2 -->
<g id="edge2" class="edge">
<title>Node0&#45;&gt;Node2</title>
<path fill="none" stroke="midnightblue" d="M86.26,-21.64C94.64,-20.33 103.39,-18.97 111.82,-17.66"/>
<polygon fill="midnightblue" stroke="midnightblue" points="85.61,-18.2 76.27,-23.2 86.69,-25.12 85.61,-18.2"/>
</g>
</g>
</svg>
