<?xml version="1.0" encoding="UTF-8" standalone="no"?>
<!DOCTYPE svg PUBLIC "-//W3C//DTD SVG 1.1//EN"
 "http://www.w3.org/Graphics/SVG/1.1/DTD/svg11.dtd">
<!-- Generated by graphviz version 2.43.0 (0)
 -->
<!-- Title: backend/greenhouse/Inventory.h Pages: 1 -->
<svg width="1461pt" height="218pt"
 viewBox="0.00 0.00 1461.30 218.00" xmlns="http://www.w3.org/2000/svg" xmlns:xlink="http://www.w3.org/1999/xlink">
<g id="graph0" class="graph" transform="scale(1 1) rotate(0) translate(4 214)">
<title>backend/greenhouse/Inventory.h</title>
<polygon fill="white" stroke="transparent" points="-4,4 -4,-214 1457.3,-214 1457.3,4 -4,4"/>
<!-- Node1 -->
<g id="node1" class="node">
<title>Node1</title>
<g id="a_node1"><a xlink:title="Inventory management for plants in greenhouse and sales floor.">
<polygon fill="#bfbfbf" stroke="black" points="647.5,-179.5 647.5,-209.5 764.5,-209.5 764.5,-179.5 647.5,-179.5"/>
<text text-anchor="start" x="655.5" y="-197.5" font-family="Helvetica,sans-Serif" font-size="10.00">backend/greenhouse</text>
<text text-anchor="middle" x="706" y="-186.5" font-family="Helvetica,sans-Serif" font-size="10.00">/Inventory.h</text>
</a>
</g>
</g>
<!-- Node2 -->
<g id="node2" class="node">
<title>Node2</title>
<g id="a_node2"><a xlink:href="Plant_8h.html" target="_top" xlink:title="Defines the abstract base class for all Plant objects used in the system.">
<polygon fill="white" stroke="black" points="681,-123.5 681,-142.5 731,-142.5 731,-123.5 681,-123.5"/>
<text text-anchor="middle" x="706" y="-130.5" font-family="Helvetica,sans-Serif" font-size="10.00">Plant.h</text>
</a>
</g>
</g>
<!-- Node1&#45;&gt;Node2 -->
<g id="edge1" class="edge">
<title>Node1&#45;&gt;Node2</title>
<path fill="none" stroke="midnightblue" d="M706,-179.4C706,-171.47 706,-161.46 706,-152.86"/>
<polygon fill="midnightblue" stroke="midnightblue" points="709.5,-152.66 706,-142.66 702.5,-152.66 709.5,-152.66"/>
</g>
<!-- Node3 -->
<g id="node3" class="node">
<title>Node3</title>
<g id="a_node3"><a xlink:title=" ">
<polygon fill="white" stroke="#bfbfbf" points="967,-6 967,-25 1011,-25 1011,-6 967,-6"/>
<text text-anchor="middle" x="989" y="-13" font-family="Helvetica,sans-Serif" font-size="10.00">string</text>
</a>
</g>
</g>
<!-- Node1&#45;&gt;Node3 -->
<g id="edge27" class="edge">
<title>Node1&#45;&gt;Node3</title>
<path fill="none" stroke="midnightblue" d="M764.55,-189.44C931.75,-177.24 1402.29,-138.6 1447,-87 1504.23,-20.96 1134.51,-16.23 1021.25,-16.32"/>
<polygon fill="midnightblue" stroke="midnightblue" points="1021.11,-12.82 1011.11,-16.34 1021.12,-19.82 1021.11,-12.82"/>
</g>
<!-- Node5 -->
<g id="node5" class="node">
<title>Node5</title>
<g id="a_node5"><a xlink:title=" ">
<polygon fill="white" stroke="#bfbfbf" points="117.5,-67.5 117.5,-86.5 164.5,-86.5 164.5,-67.5 117.5,-67.5"/>
<text text-anchor="middle" x="141" y="-74.5" font-family="Helvetica,sans-Serif" font-size="10.00">vector</text>
</a>
</g>
</g>
<!-- Node1&#45;&gt;Node5 -->
<g id="edge26" class="edge">
<title>Node1&#45;&gt;Node5</title>
<path fill="none" stroke="midnightblue" d="M647.38,-182.31C549.94,-163.57 348.58,-124.21 179,-87 177.55,-86.68 176.07,-86.35 174.58,-86.02"/>
<polygon fill="midnightblue" stroke="midnightblue" points="175.22,-82.57 164.69,-83.74 173.65,-89.39 175.22,-82.57"/>
</g>
<!-- Node2&#45;&gt;Node3 -->
<g id="edge2" class="edge">
<title>Node2&#45;&gt;Node3</title>
<path fill="none" stroke="midnightblue" d="M731.24,-131.39C856.41,-128.25 1405.56,-113.01 1430,-87 1487.49,-25.83 1132.2,-17.7 1021.3,-16.65"/>
<polygon fill="midnightblue" stroke="midnightblue" points="1021.09,-13.15 1011.06,-16.57 1021.03,-20.15 1021.09,-13.15"/>
</g>
<!-- Node4 -->
<g id="node4" class="node">
<title>Node4</title>
<g id="a_node4"><a xlink:title=" ">
<polygon fill="white" stroke="#bfbfbf" points="431,-67.5 431,-86.5 469,-86.5 469,-67.5 431,-67.5"/>
<text text-anchor="middle" x="450" y="-74.5" font-family="Helvetica,sans-Serif" font-size="10.00">map</text>
</a>
</g>
</g>
<!-- Node2&#45;&gt;Node4 -->
<g id="edge3" class="edge">
<title>Node2&#45;&gt;Node4</title>
<path fill="none" stroke="midnightblue" d="M680.82,-128.01C640.3,-121.39 557.97,-107.07 479.27,-87.09"/>
<polygon fill="midnightblue" stroke="midnightblue" points="479.75,-83.6 469.19,-84.49 478,-90.38 479.75,-83.6"/>
</g>
<!-- Node2&#45;&gt;Node5 -->
<g id="edge4" class="edge">
<title>Node2&#45;&gt;Node5</title>
<path fill="none" stroke="midnightblue" d="M680.88,-131.17C604.82,-128.37 370.54,-117.69 179,-87 177.54,-86.77 176.04,-86.51 174.54,-86.23"/>
<polygon fill="midnightblue" stroke="midnightblue" points="175.11,-82.77 164.61,-84.16 173.69,-89.62 175.11,-82.77"/>
</g>
<!-- Node6 -->
<g id="node6" class="node">
<title>Node6</title>
<g id="a_node6"><a xlink:title=" ">
<polygon fill="white" stroke="#bfbfbf" points="487,-67.5 487,-86.5 551,-86.5 551,-67.5 487,-67.5"/>
<text text-anchor="middle" x="519" y="-74.5" font-family="Helvetica,sans-Serif" font-size="10.00">algorithm</text>
</a>
</g>
</g>
<!-- Node2&#45;&gt;Node6 -->
<g id="edge5" class="edge">
<title>Node2&#45;&gt;Node6</title>
<path fill="none" stroke="midnightblue" d="M680.78,-124.72C649.43,-115.67 595.57,-100.11 558.67,-89.46"/>
<polygon fill="midnightblue" stroke="midnightblue" points="559.33,-86 548.75,-86.59 557.38,-92.73 559.33,-86"/>
</g>
<!-- Node7 -->
<g id="node7" class="node">
<title>Node7</title>
<g id="a_node7"><a xlink:title=" ">
<polygon fill="white" stroke="#bfbfbf" points="350,-6 350,-25 410,-25 410,-6 350,-6"/>
<text text-anchor="middle" x="380" y="-13" font-family="Helvetica,sans-Serif" font-size="10.00">iostream</text>
</a>
</g>
</g>
<!-- Node2&#45;&gt;Node7 -->
<g id="edge6" class="edge">
<title>Node2&#45;&gt;Node7</title>
<path fill="none" stroke="midnightblue" d="M680.82,-130.75C602.68,-126.6 368.2,-112.14 346,-87 331.76,-70.86 348.15,-47.71 362.73,-32.39"/>
<polygon fill="midnightblue" stroke="midnightblue" points="365.37,-34.7 370.01,-25.18 360.44,-29.73 365.37,-34.7"/>
</g>
<!-- Node8 -->
<g id="node8" class="node">
<title>Node8</title>
<g id="a_node8"><a xlink:title=" ">
<polygon fill="white" stroke="#bfbfbf" points="569.5,-67.5 569.5,-86.5 682.5,-86.5 682.5,-67.5 569.5,-67.5"/>
<text text-anchor="middle" x="626" y="-74.5" font-family="Helvetica,sans-Serif" font-size="10.00">boost/uuid/uuid.hpp</text>
</a>
</g>
</g>
<!-- Node2&#45;&gt;Node8 -->
<g id="edge7" class="edge">
<title>Node2&#45;&gt;Node8</title>
<path fill="none" stroke="midnightblue" d="M693.15,-123.32C680.78,-114.98 661.87,-102.21 647.26,-92.35"/>
<polygon fill="midnightblue" stroke="midnightblue" points="649.07,-89.35 638.82,-86.65 645.15,-95.15 649.07,-89.35"/>
</g>
<!-- Node9 -->
<g id="node9" class="node">
<title>Node9</title>
<g id="a_node9"><a xlink:title=" ">
<polygon fill="white" stroke="#bfbfbf" points="701,-67.5 701,-86.5 871,-86.5 871,-67.5 701,-67.5"/>
<text text-anchor="middle" x="786" y="-74.5" font-family="Helvetica,sans-Serif" font-size="10.00">boost/uuid/uuid_generators.hpp</text>
</a>
</g>
</g>
<!-- Node2&#45;&gt;Node9 -->
<g id="edge8" class="edge">
<title>Node2&#45;&gt;Node9</title>
<path fill="none" stroke="midnightblue" d="M718.85,-123.32C731.22,-114.98 750.13,-102.21 764.74,-92.35"/>
<polygon fill="midnightblue" stroke="midnightblue" points="766.85,-95.15 773.18,-86.65 762.93,-89.35 766.85,-95.15"/>
</g>
<!-- Node10 -->
<g id="node10" class="node">
<title>Node10</title>
<g id="a_node10"><a xlink:title=" ">
<polygon fill="white" stroke="#bfbfbf" points="889.5,-67.5 889.5,-86.5 1016.5,-86.5 1016.5,-67.5 889.5,-67.5"/>
<text text-anchor="middle" x="953" y="-74.5" font-family="Helvetica,sans-Serif" font-size="10.00">boost/uuid/uuid_io.hpp</text>
</a>
</g>
</g>
<!-- Node2&#45;&gt;Node10 -->
<g id="edge9" class="edge">
<title>Node2&#45;&gt;Node10</title>
<path fill="none" stroke="midnightblue" d="M731.04,-126.53C771.4,-117.7 851.57,-100.18 903.7,-88.78"/>
<polygon fill="midnightblue" stroke="midnightblue" points="904.71,-92.14 913.73,-86.59 903.21,-85.3 904.71,-92.14"/>
</g>
<!-- Node11 -->
<g id="node11" class="node">
<title>Node11</title>
<g id="a_node11"><a xlink:title=" ">
<polygon fill="white" stroke="#bfbfbf" points="1035,-67.5 1035,-86.5 1145,-86.5 1145,-67.5 1035,-67.5"/>
<text text-anchor="middle" x="1090" y="-74.5" font-family="Helvetica,sans-Serif" font-size="10.00">nlohmann/json.hpp</text>
</a>
</g>
</g>
<!-- Node2&#45;&gt;Node11 -->
<g id="edge10" class="edge">
<title>Node2&#45;&gt;Node11</title>
<path fill="none" stroke="midnightblue" d="M731.2,-128.46C790.1,-120.17 938.35,-99.33 1024.74,-87.18"/>
<polygon fill="midnightblue" stroke="midnightblue" points="1025.29,-90.63 1034.7,-85.78 1024.31,-83.7 1025.29,-90.63"/>
</g>
<!-- Node12 -->
<g id="node12" class="node">
<title>Node12</title>
<g id="a_node12"><a xlink:title=" ">
<polygon fill="white" stroke="#bfbfbf" points="1163,-67.5 1163,-86.5 1211,-86.5 1211,-67.5 1163,-67.5"/>
<text text-anchor="middle" x="1187" y="-74.5" font-family="Helvetica,sans-Serif" font-size="10.00">thread</text>
</a>
</g>
</g>
<!-- Node2&#45;&gt;Node12 -->
<g id="edge11" class="edge">
<title>Node2&#45;&gt;Node12</title>
<path fill="none" stroke="midnightblue" d="M731.47,-130.92C798.84,-127.77 987.34,-116.91 1153.08,-86.87"/>
<polygon fill="midnightblue" stroke="midnightblue" points="1153.76,-90.31 1162.96,-85.05 1152.49,-83.42 1153.76,-90.31"/>
</g>
<!-- Node13 -->
<g id="node13" class="node">
<title>Node13</title>
<g id="a_node13"><a xlink:title=" ">
<polygon fill="white" stroke="#bfbfbf" points="1229,-67.5 1229,-86.5 1279,-86.5 1279,-67.5 1229,-67.5"/>
<text text-anchor="middle" x="1254" y="-74.5" font-family="Helvetica,sans-Serif" font-size="10.00">atomic</text>
</a>
</g>
</g>
<!-- Node2&#45;&gt;Node13 -->
<g id="edge12" class="edge">
<title>Node2&#45;&gt;Node13</title>
<path fill="none" stroke="midnightblue" d="M731.07,-131.33C804.63,-129.03 1026.28,-119.83 1218.84,-86.91"/>
<polygon fill="midnightblue" stroke="midnightblue" points="1219.6,-90.33 1228.86,-85.17 1218.4,-83.43 1219.6,-90.33"/>
</g>
<!-- Node14 -->
<g id="node14" class="node">
<title>Node14</title>
<g id="a_node14"><a xlink:href="GreenSock_8h.html" target="_top" xlink:title=" ">
<polygon fill="white" stroke="black" points="221,-67.5 221,-86.5 299,-86.5 299,-67.5 221,-67.5"/>
<text text-anchor="middle" x="260" y="-74.5" font-family="Helvetica,sans-Serif" font-size="10.00">GreenSock.h</text>
</a>
</g>
</g>
<!-- Node2&#45;&gt;Node14 -->
<g id="edge13" class="edge">
<title>Node2&#45;&gt;Node14</title>
<path fill="none" stroke="midnightblue" d="M680.65,-129.58C618.09,-123.5 451.36,-106.65 313,-87 311.73,-86.82 310.44,-86.63 309.14,-86.44"/>
<polygon fill="midnightblue" stroke="midnightblue" points="309.45,-82.95 299.04,-84.88 308.38,-89.86 309.45,-82.95"/>
</g>
<!-- Node17 -->
<g id="node17" class="node">
<title>Node17</title>
<g id="a_node17"><a xlink:title=" ">
<polygon fill="white" stroke="#bfbfbf" points="0,-6 0,-25 48,-25 48,-6 0,-6"/>
<text text-anchor="middle" x="24" y="-13" font-family="Helvetica,sans-Serif" font-size="10.00">mutex</text>
</a>
</g>
</g>
<!-- Node2&#45;&gt;Node17 -->
<g id="edge25" class="edge">
<title>Node2&#45;&gt;Node17</title>
<path fill="none" stroke="midnightblue" d="M680.73,-131.01C592.9,-127.35 301.39,-113.45 212,-87 193.7,-81.59 191.64,-74.28 174,-67 123.71,-46.24 107.99,-49.97 57,-31 55.35,-30.38 53.66,-29.73 51.96,-29.05"/>
<polygon fill="midnightblue" stroke="midnightblue" points="52.92,-25.66 42.35,-25.01 50.21,-32.11 52.92,-25.66"/>
</g>
<!-- Node18 -->
<g id="node18" class="node">
<title>Node18</title>
<g id="a_node18"><a xlink:href="Logger_8h.html" target="_top" xlink:title="Header for Strategy Logger interface.">
<polygon fill="white" stroke="black" points="355,-67.5 355,-86.5 413,-86.5 413,-67.5 355,-67.5"/>
<text text-anchor="middle" x="384" y="-74.5" font-family="Helvetica,sans-Serif" font-size="10.00">Logger.h</text>
</a>
</g>
</g>
<!-- Node2&#45;&gt;Node18 -->
<g id="edge19" class="edge">
<title>Node2&#45;&gt;Node18</title>
<path fill="none" stroke="midnightblue" d="M680.81,-128.66C632.72,-122.14 524.3,-106.78 423.46,-87.17"/>
<polygon fill="midnightblue" stroke="midnightblue" points="423.9,-83.69 413.41,-85.2 422.55,-90.56 423.9,-83.69"/>
</g>
<!-- Node20 -->
<g id="node20" class="node">
<title>Node20</title>
<g id="a_node20"><a xlink:title=" ">
<polygon fill="white" stroke="#bfbfbf" points="1297.5,-67.5 1297.5,-86.5 1344.5,-86.5 1344.5,-67.5 1297.5,-67.5"/>
<text text-anchor="middle" x="1321" y="-74.5" font-family="Helvetica,sans-Serif" font-size="10.00">queue</text>
</a>
</g>
</g>
<!-- Node2&#45;&gt;Node20 -->
<g id="edge23" class="edge">
<title>Node2&#45;&gt;Node20</title>
<path fill="none" stroke="midnightblue" d="M731.17,-131.75C811.19,-130.59 1066.91,-124.17 1287.2,-86.78"/>
<polygon fill="midnightblue" stroke="midnightblue" points="1288.07,-90.18 1297.33,-85.03 1286.88,-83.28 1288.07,-90.18"/>
</g>
<!-- Node21 -->
<g id="node21" class="node">
<title>Node21</title>
<g id="a_node21"><a xlink:title=" ">
<polygon fill="white" stroke="#bfbfbf" points="1363,-67.5 1363,-86.5 1421,-86.5 1421,-67.5 1363,-67.5"/>
<text text-anchor="middle" x="1392" y="-74.5" font-family="Helvetica,sans-Serif" font-size="10.00">memory</text>
</a>
</g>
</g>
<!-- Node2&#45;&gt;Node21 -->
<g id="edge24" class="edge">
<title>Node2&#45;&gt;Node21</title>
<path fill="none" stroke="midnightblue" d="M731.18,-131.73C816.92,-130.48 1105.43,-123.77 1352.39,-87"/>
<polygon fill="midnightblue" stroke="midnightblue" points="1353.27,-90.41 1362.63,-85.46 1352.22,-83.49 1353.27,-90.41"/>
</g>
<!-- Node14&#45;&gt;Node3 -->
<g id="edge17" class="edge">
<title>Node14&#45;&gt;Node3</title>
<path fill="none" stroke="midnightblue" d="M299.37,-71.66C314,-70.11 330.75,-68.4 346,-67 580.07,-45.56 862.6,-25.33 956.74,-18.74"/>
<polygon fill="midnightblue" stroke="midnightblue" points="957.04,-22.22 966.77,-18.04 956.55,-15.24 957.04,-22.22"/>
</g>
<!-- Node14&#45;&gt;Node7 -->
<g id="edge16" class="edge">
<title>Node14&#45;&gt;Node7</title>
<path fill="none" stroke="midnightblue" d="M277.19,-67.48C297.24,-57.53 330.6,-40.99 353.86,-29.46"/>
<polygon fill="midnightblue" stroke="midnightblue" points="355.43,-32.59 362.84,-25.01 352.32,-26.32 355.43,-32.59"/>
</g>
<!-- Node15 -->
<g id="node15" class="node">
<title>Node15</title>
<g id="a_node15"><a xlink:title=" ">
<polygon fill="white" stroke="#bfbfbf" points="66.5,-0.5 66.5,-30.5 179.5,-30.5 179.5,-0.5 66.5,-0.5"/>
<text text-anchor="start" x="74.5" y="-18.5" font-family="Helvetica,sans-Serif" font-size="10.00">websocketpp/config</text>
<text text-anchor="middle" x="123" y="-7.5" font-family="Helvetica,sans-Serif" font-size="10.00">/asio_no_tls.hpp</text>
</a>
</g>
</g>
<!-- Node14&#45;&gt;Node15 -->
<g id="edge14" class="edge">
<title>Node14&#45;&gt;Node15</title>
<path fill="none" stroke="midnightblue" d="M240.37,-67.48C220.69,-58.93 189.78,-45.5 164.61,-34.57"/>
<polygon fill="midnightblue" stroke="midnightblue" points="165.85,-31.3 155.29,-30.52 163.07,-37.72 165.85,-31.3"/>
</g>
<!-- Node16 -->
<g id="node16" class="node">
<title>Node16</title>
<g id="a_node16"><a xlink:title=" ">
<polygon fill="white" stroke="#bfbfbf" points="198,-6 198,-25 332,-25 332,-6 198,-6"/>
<text text-anchor="middle" x="265" y="-13" font-family="Helvetica,sans-Serif" font-size="10.00">websocketpp/server.hpp</text>
</a>
</g>
</g>
<!-- Node14&#45;&gt;Node16 -->
<g id="edge15" class="edge">
<title>Node14&#45;&gt;Node16</title>
<path fill="none" stroke="midnightblue" d="M260.72,-67.48C261.42,-59.08 262.52,-45.98 263.43,-35.16"/>
<polygon fill="midnightblue" stroke="midnightblue" points="266.94,-35.27 264.28,-25.01 259.96,-34.68 266.94,-35.27"/>
</g>
<!-- Node14&#45;&gt;Node17 -->
<g id="edge18" class="edge">
<title>Node14&#45;&gt;Node17</title>
<path fill="none" stroke="midnightblue" d="M220.91,-68.28C170.86,-58.24 87.02,-40.82 57,-31 55.13,-30.39 53.21,-29.71 51.3,-28.98"/>
<polygon fill="midnightblue" stroke="midnightblue" points="52.49,-25.69 41.91,-25.13 49.83,-32.16 52.49,-25.69"/>
</g>
<!-- Node18&#45;&gt;Node3 -->
<g id="edge20" class="edge">
<title>Node18&#45;&gt;Node3</title>
<path fill="none" stroke="midnightblue" d="M413.37,-68.6C416.28,-68 419.19,-67.46 422,-67 624.05,-34.25 870.29,-21.44 956.97,-17.74"/>
<polygon fill="midnightblue" stroke="midnightblue" points="957.12,-21.24 966.97,-17.32 956.83,-14.24 957.12,-21.24"/>
</g>
<!-- Node18&#45;&gt;Node7 -->
<g id="edge21" class="edge">
<title>Node18&#45;&gt;Node7</title>
<path fill="none" stroke="midnightblue" d="M383.43,-67.48C382.86,-59.08 381.98,-45.98 381.25,-35.16"/>
<polygon fill="midnightblue" stroke="midnightblue" points="384.74,-34.75 380.57,-25.01 377.75,-35.22 384.74,-34.75"/>
</g>
<!-- Node19 -->
<g id="node19" class="node">
<title>Node19</title>
<g id="a_node19"><a xlink:title=" ">
<polygon fill="white" stroke="#bfbfbf" points="428.5,-6 428.5,-25 493.5,-25 493.5,-6 428.5,-6"/>
<text text-anchor="middle" x="461" y="-13" font-family="Helvetica,sans-Serif" font-size="10.00">stdexcept</text>
</a>
</g>
</g>
<!-- Node18&#45;&gt;Node19 -->
<g id="edge22" class="edge">
<title>Node18&#45;&gt;Node19</title>
<path fill="none" stroke="midnightblue" d="M395.03,-67.48C407.27,-58.02 427.23,-42.6 441.99,-31.19"/>
<polygon fill="midnightblue" stroke="midnightblue" points="444.22,-33.89 449.99,-25.01 439.94,-28.35 444.22,-33.89"/>
</g>
</g>
</svg>
