<?xml version="1.0" encoding="UTF-8" standalone="no"?>
<!DOCTYPE svg PUBLIC "-//W3C//DTD SVG 1.1//EN"
 "http://www.w3.org/Graphics/SVG/1.1/DTD/svg11.dtd">
<!-- Generated by graphviz version 2.43.0 (0)
 -->
<!-- Title: backend/greenhouse/Inventory.h Pages: 1 -->
<!--zoomable 676 -->
<svg id="main" version="1.1" xmlns="http://www.w3.org/2000/svg" xmlns:xlink="http://www.w3.org/1999/xlink" xml:space="preserve" onload="init(evt)">
<style type="text/css"><![CDATA[
.edge:hover path { stroke: red; }
.edge:hover polygon { stroke: red; fill: red; }
]]></style>
<script type="text/javascript"><![CDATA[
var edges = document.getElementsByTagName('g');
if (edges && edges.length) {
  for (var i=0;i<edges.length;i++) {
    if (edges[i].id.substr(0,4)=='edge') {
      edges[i].setAttribute('class','edge');
    }
  }
}
]]></script>
        <defs>
                <circle id="rim" cx="0" cy="0" r="7"/>
                <circle id="rim2" cx="0" cy="0" r="3.5"/>
                <g id="zoomPlus">
                        <use xlink:href="#rim" fill="#404040">
                                <set attributeName="fill" to="#808080" begin="zoomplus.mouseover" end="zoomplus.mouseout"/>
                        </use>
                        <path d="M-4,0h8M0,-4v8" fill="none" stroke="white" stroke-width="1.5" pointer-events="none"/>
                </g>
                <g id="zoomMin">
                        <use xlink:href="#rim" fill="#404040">
                                <set attributeName="fill" to="#808080" begin="zoomminus.mouseover" end="zoomminus.mouseout"/>
                        </use>
                        <path d="M-4,0h8" fill="none" stroke="white" stroke-width="1.5" pointer-events="none"/>
                </g>
                <g id="dirArrow">
                        <path fill="none" stroke="white" stroke-width="1.5" d="M0,-3.0v7 M-2.5,-0.5L0,-3.0L2.5,-0.5"/>
                </g>
               <g id="resetDef">
                       <use xlink:href="#rim2" fill="#404040">
                               <set attributeName="fill" to="#808080" begin="reset.mouseover" end="reset.mouseout"/>
                       </use>
               </g>
        </defs>

<script type="text/javascript">
var viewWidth = 1912;
var viewHeight = 676;
var sectionId = 'dynsection-1';
</script>
<script xlink:href="svgpan.js"/>
<svg id="graph" class="graph">
<g id="viewport">
<title>backend/greenhouse/Inventory.h</title>
<polygon fill="white" stroke="transparent" points="-4,4 -4,-672 1908,-672 1908,4 -4,4"/>
<!-- Node1 -->
<g id="node1" class="node">
<title>Node1</title>
<g id="a_node1"><a xlink:title="Inventory management for plants in greenhouse and sales floor.">
<polygon fill="#bfbfbf" stroke="black" points="1119,-637.5 1119,-667.5 1236,-667.5 1236,-637.5 1119,-637.5"/>
<text text-anchor="start" x="1127" y="-655.5" font-family="Helvetica,sans-Serif" font-size="10.00">backend/greenhouse</text>
<text text-anchor="middle" x="1177.5" y="-644.5" font-family="Helvetica,sans-Serif" font-size="10.00">/Inventory.h</text>
</a>
</g>
</g>
<!-- Node2 -->
<g id="node2" class="node">
<title>Node2</title>
<g id="a_node2"><a xlink:href="CustomerVisitor_8cpp.html" target="_top" xlink:title="Implements the CustomerVisitor base class functionality.">
<polygon fill="white" stroke="black" points="460.5,-369.5 460.5,-399.5 616.5,-399.5 616.5,-369.5 460.5,-369.5"/>
<text text-anchor="start" x="468.5" y="-387.5" font-family="Helvetica,sans-Serif" font-size="10.00">backend/customer/Customer</text>
<text text-anchor="middle" x="538.5" y="-376.5" font-family="Helvetica,sans-Serif" font-size="10.00">Visitor.cpp</text>
</a>
</g>
</g>
<!-- Node1&#45;&gt;Node2 -->
<g id="edge1" class="edge">
<title>Node1&#45;&gt;Node2</title>
<path fill="none" stroke="midnightblue" d="M1134.35,-633.54C1014.62,-583.7 679.98,-444.39 572.32,-399.58"/>
<polygon fill="midnightblue" stroke="midnightblue" points="1133.02,-636.77 1143.6,-637.39 1135.71,-630.31 1133.02,-636.77"/>
</g>
<!-- Node3 -->
<g id="node3" class="node">
<title>Node3</title>
<g id="a_node3"><a xlink:href="TransactionHistory_8h.html" target="_top" xlink:title="Maintains history of financial transactions.">
<polygon fill="white" stroke="black" points="1155.5,-570.5 1155.5,-600.5 1301.5,-600.5 1301.5,-570.5 1155.5,-570.5"/>
<text text-anchor="start" x="1163.5" y="-588.5" font-family="Helvetica,sans-Serif" font-size="10.00">backend/game/Transaction</text>
<text text-anchor="middle" x="1228.5" y="-577.5" font-family="Helvetica,sans-Serif" font-size="10.00">History.h</text>
</a>
</g>
</g>
<!-- Node1&#45;&gt;Node3 -->
<g id="edge2" class="edge">
<title>Node1&#45;&gt;Node3</title>
<path fill="none" stroke="midnightblue" d="M1194.8,-629.45C1202.29,-619.9 1210.84,-609 1217.46,-600.58"/>
<polygon fill="midnightblue" stroke="midnightblue" points="1191.99,-627.37 1188.57,-637.4 1197.49,-631.69 1191.99,-627.37"/>
</g>
<!-- Node4 -->
<g id="node4" class="node">
<title>Node4</title>
<g id="a_node4"><a xlink:href="SalesFloor_8h.html" target="_top" xlink:title="Sales floor management for customer interactions and plant sales.">
<polygon fill="white" stroke="black" points="1170,-503.5 1170,-533.5 1287,-533.5 1287,-503.5 1170,-503.5"/>
<text text-anchor="start" x="1178" y="-521.5" font-family="Helvetica,sans-Serif" font-size="10.00">backend/greenhouse</text>
<text text-anchor="middle" x="1228.5" y="-510.5" font-family="Helvetica,sans-Serif" font-size="10.00">/SalesFloor.h</text>
</a>
</g>
</g>
<!-- Node1&#45;&gt;Node4 -->
<g id="edge48" class="edge">
<title>Node1&#45;&gt;Node4</title>
<path fill="none" stroke="midnightblue" d="M1158.77,-629.25C1146.99,-612.41 1135.88,-589.02 1146.5,-570 1155.79,-553.36 1173.07,-541.53 1189.38,-533.52"/>
<polygon fill="midnightblue" stroke="midnightblue" points="1156.07,-631.49 1164.87,-637.4 1161.68,-627.3 1156.07,-631.49"/>
</g>
<!-- Node34 -->
<g id="node34" class="node">
<title>Node34</title>
<g id="a_node34"><a xlink:href="Greenhouse_8h.html" target="_top" xlink:title="Main greenhouse class managing plant inventory and staff.">
<polygon fill="white" stroke="black" points="1271,-436.5 1271,-466.5 1388,-466.5 1388,-436.5 1271,-436.5"/>
<text text-anchor="start" x="1279" y="-454.5" font-family="Helvetica,sans-Serif" font-size="10.00">backend/greenhouse</text>
<text text-anchor="middle" x="1329.5" y="-443.5" font-family="Helvetica,sans-Serif" font-size="10.00">/Greenhouse.h</text>
</a>
</g>
</g>
<!-- Node1&#45;&gt;Node34 -->
<g id="edge47" class="edge">
<title>Node1&#45;&gt;Node34</title>
<path fill="none" stroke="midnightblue" d="M1245.87,-640.51C1269.8,-633.22 1294.64,-621.12 1310.5,-601 1342.04,-560.99 1336.42,-495.2 1332.06,-466.56"/>
<polygon fill="midnightblue" stroke="midnightblue" points="1244.74,-637.19 1236.05,-643.25 1246.62,-643.93 1244.74,-637.19"/>
</g>
<!-- Node3&#45;&gt;Node4 -->
<g id="edge3" class="edge">
<title>Node3&#45;&gt;Node4</title>
<path fill="none" stroke="midnightblue" d="M1228.5,-560.11C1228.5,-551.15 1228.5,-541.32 1228.5,-533.58"/>
<polygon fill="midnightblue" stroke="midnightblue" points="1225,-560.4 1228.5,-570.4 1232,-560.4 1225,-560.4"/>
</g>
<!-- Node5 -->
<g id="node5" class="node">
<title>Node5</title>
<g id="a_node5"><a xlink:href="CustomerVisitor_8h.html" target="_top" xlink:title="Abstract visitor class for plant recommendation strategies for different customer types.">
<polygon fill="white" stroke="black" points="802.5,-436.5 802.5,-466.5 958.5,-466.5 958.5,-436.5 802.5,-436.5"/>
<text text-anchor="start" x="810.5" y="-454.5" font-family="Helvetica,sans-Serif" font-size="10.00">backend/customer/Customer</text>
<text text-anchor="middle" x="880.5" y="-443.5" font-family="Helvetica,sans-Serif" font-size="10.00">Visitor.h</text>
</a>
</g>
</g>
<!-- Node4&#45;&gt;Node5 -->
<g id="edge4" class="edge">
<title>Node4&#45;&gt;Node5</title>
<path fill="none" stroke="midnightblue" d="M1159.9,-504.69C1100.99,-493.68 1016.19,-477.84 955.49,-466.51"/>
<polygon fill="midnightblue" stroke="midnightblue" points="1159.39,-508.15 1169.86,-506.55 1160.67,-501.27 1159.39,-508.15"/>
</g>
<!-- Node4&#45;&gt;Node34 -->
<g id="edge43" class="edge">
<title>Node4&#45;&gt;Node34</title>
<path fill="none" stroke="midnightblue" d="M1259.21,-497.73C1274.84,-487.68 1293.47,-475.68 1307.63,-466.58"/>
<polygon fill="midnightblue" stroke="midnightblue" points="1256.93,-495.04 1250.42,-503.4 1260.72,-500.93 1256.93,-495.04"/>
</g>
<!-- Node35 -->
<g id="node35" class="node">
<title>Node35</title>
<g id="a_node35"><a xlink:href="Manager_8h.html" target="_top" xlink:title="Manager class for coordinating plant sales and customer interactions.">
<polygon fill="white" stroke="black" points="1425,-369.5 1425,-399.5 1542,-399.5 1542,-369.5 1425,-369.5"/>
<text text-anchor="start" x="1433" y="-387.5" font-family="Helvetica,sans-Serif" font-size="10.00">backend/greenhouse</text>
<text text-anchor="middle" x="1483.5" y="-376.5" font-family="Helvetica,sans-Serif" font-size="10.00">/Manager.h</text>
</a>
</g>
</g>
<!-- Node4&#45;&gt;Node35 -->
<g id="edge46" class="edge">
<title>Node4&#45;&gt;Node35</title>
<path fill="none" stroke="midnightblue" d="M1232.43,-493.39C1236.7,-475 1245.35,-450.45 1262.5,-436 1265.67,-433.33 1360.41,-412.3 1424.81,-398.23"/>
<polygon fill="midnightblue" stroke="midnightblue" points="1228.96,-492.88 1230.4,-503.38 1235.82,-494.28 1228.96,-492.88"/>
</g>
<!-- Node5&#45;&gt;Node2 -->
<g id="edge38" class="edge">
<title>Node5&#45;&gt;Node2</title>
<path fill="none" stroke="midnightblue" d="M796.75,-434.58C740.36,-423.86 666.67,-409.86 612.45,-399.55"/>
<polygon fill="midnightblue" stroke="midnightblue" points="796.23,-438.05 806.71,-436.48 797.54,-431.17 796.23,-438.05"/>
</g>
<!-- Node6 -->
<g id="node6" class="node">
<title>Node6</title>
<g id="a_node6"><a xlink:href="Customer_8h.html" target="_top" xlink:title="Abstract base class for all customer types in the plant shop game.">
<polygon fill="white" stroke="black" points="710.5,-375 710.5,-394 874.5,-394 874.5,-375 710.5,-375"/>
<text text-anchor="middle" x="792.5" y="-382" font-family="Helvetica,sans-Serif" font-size="10.00">backend/customer/Customer.h</text>
</a>
</g>
</g>
<!-- Node5&#45;&gt;Node6 -->
<g id="edge5" class="edge">
<title>Node5&#45;&gt;Node6</title>
<path fill="none" stroke="midnightblue" d="M853.16,-430.31C836.64,-418.1 816.43,-403.18 804.02,-394.01"/>
<polygon fill="midnightblue" stroke="midnightblue" points="851.28,-433.27 861.41,-436.4 855.44,-427.64 851.28,-433.27"/>
</g>
<!-- Node12 -->
<g id="node12" class="node">
<title>Node12</title>
<g id="a_node12"><a xlink:href="CustomerBuilder_8h.html" target="_top" xlink:title="Abstract builder interface for creating Customer objects.">
<polygon fill="white" stroke="black" points="672.5,-302.5 672.5,-332.5 828.5,-332.5 828.5,-302.5 672.5,-302.5"/>
<text text-anchor="start" x="680.5" y="-320.5" font-family="Helvetica,sans-Serif" font-size="10.00">backend/customer/Customer</text>
<text text-anchor="middle" x="750.5" y="-309.5" font-family="Helvetica,sans-Serif" font-size="10.00">Builder.h</text>
</a>
</g>
</g>
<!-- Node5&#45;&gt;Node12 -->
<g id="edge37" class="edge">
<title>Node5&#45;&gt;Node12</title>
<path fill="none" stroke="midnightblue" d="M792.37,-435.93C753.15,-427.48 713.18,-415.43 701.5,-400 684.66,-377.75 711.41,-349.36 731.53,-332.63"/>
<polygon fill="midnightblue" stroke="midnightblue" points="791.8,-439.39 802.3,-438 793.23,-432.54 791.8,-439.39"/>
</g>
<!-- Node14 -->
<g id="node14" class="node">
<title>Node14</title>
<g id="a_node14"><a xlink:href="Director_8h.html" target="_top" xlink:title="Director class for coordinating customer construction using builders and visitors.">
<polygon fill="white" stroke="black" points="334.5,-241 334.5,-260 490.5,-260 490.5,-241 334.5,-241"/>
<text text-anchor="middle" x="412.5" y="-248" font-family="Helvetica,sans-Serif" font-size="10.00">backend/customer/Director.h</text>
</a>
</g>
</g>
<!-- Node5&#45;&gt;Node14 -->
<g id="edge39" class="edge">
<title>Node5&#45;&gt;Node14</title>
<path fill="none" stroke="midnightblue" d="M803.18,-434.06C768.45,-425.61 727.31,-414.1 691.5,-400 636.61,-378.39 477.13,-288.34 427.45,-260.04"/>
<polygon fill="midnightblue" stroke="midnightblue" points="802.73,-437.55 813.27,-436.48 804.36,-430.75 802.73,-437.55"/>
</g>
<!-- Node31 -->
<g id="node31" class="node">
<title>Node31</title>
<g id="a_node31"><a xlink:href="VisitEasyCustomer_8h.html" target="_top" xlink:title="Visitor for creating plant recommendations for easy&#45;maintenance customers.">
<polygon fill="white" stroke="black" points="892.5,-369.5 892.5,-399.5 1046.5,-399.5 1046.5,-369.5 892.5,-369.5"/>
<text text-anchor="start" x="900.5" y="-387.5" font-family="Helvetica,sans-Serif" font-size="10.00">backend/customer/VisitEasy</text>
<text text-anchor="middle" x="969.5" y="-376.5" font-family="Helvetica,sans-Serif" font-size="10.00">Customer.h</text>
</a>
</g>
</g>
<!-- Node5&#45;&gt;Node31 -->
<g id="edge40" class="edge">
<title>Node5&#45;&gt;Node31</title>
<path fill="none" stroke="midnightblue" d="M907.95,-430.45C921.64,-420.45 937.87,-408.6 950.23,-399.58"/>
<polygon fill="midnightblue" stroke="midnightblue" points="905.82,-427.67 899.81,-436.4 909.95,-433.32 905.82,-427.67"/>
</g>
<!-- Node32 -->
<g id="node32" class="node">
<title>Node32</title>
<g id="a_node32"><a xlink:href="VisitHighCustomer_8h.html" target="_top" xlink:title="Visitor for creating plant recommendations for customers preferring challenging plants.">
<polygon fill="white" stroke="black" points="1065,-369.5 1065,-399.5 1218,-399.5 1218,-369.5 1065,-369.5"/>
<text text-anchor="start" x="1073" y="-387.5" font-family="Helvetica,sans-Serif" font-size="10.00">backend/customer/VisitHigh</text>
<text text-anchor="middle" x="1141.5" y="-376.5" font-family="Helvetica,sans-Serif" font-size="10.00">Customer.h</text>
</a>
</g>
</g>
<!-- Node5&#45;&gt;Node32 -->
<g id="edge41" class="edge">
<title>Node5&#45;&gt;Node32</title>
<path fill="none" stroke="midnightblue" d="M946.55,-434.05C989.22,-423.43 1044.16,-409.74 1084.84,-399.61"/>
<polygon fill="midnightblue" stroke="midnightblue" points="945.67,-430.66 936.81,-436.48 947.36,-437.46 945.67,-430.66"/>
</g>
<!-- Node33 -->
<g id="node33" class="node">
<title>Node33</title>
<g id="a_node33"><a xlink:href="VisitMediumCustomer_8h_source.html" target="_top" xlink:title=" ">
<polygon fill="white" stroke="black" points="1236.5,-369.5 1236.5,-399.5 1406.5,-399.5 1406.5,-369.5 1236.5,-369.5"/>
<text text-anchor="start" x="1244.5" y="-387.5" font-family="Helvetica,sans-Serif" font-size="10.00">backend/customer/VisitMedium</text>
<text text-anchor="middle" x="1321.5" y="-376.5" font-family="Helvetica,sans-Serif" font-size="10.00">Customer.h</text>
</a>
</g>
</g>
<!-- Node5&#45;&gt;Node33 -->
<g id="edge42" class="edge">
<title>Node5&#45;&gt;Node33</title>
<path fill="none" stroke="midnightblue" d="M968.86,-437.85C1039.01,-427.76 1139.56,-413.18 1227.5,-400 1230.44,-399.56 1233.43,-399.11 1236.45,-398.65"/>
<polygon fill="midnightblue" stroke="midnightblue" points="968.14,-434.42 958.74,-439.31 969.13,-441.35 968.14,-434.42"/>
</g>
<!-- Node7 -->
<g id="node7" class="node">
<title>Node7</title>
<g id="a_node7"><a xlink:href="AverageCustomer_8h.html" target="_top" xlink:title="Concrete customer class representing moderately experienced plant buyers.">
<polygon fill="white" stroke="black" points="167,-302.5 167,-332.5 316,-332.5 316,-302.5 167,-302.5"/>
<text text-anchor="start" x="175" y="-320.5" font-family="Helvetica,sans-Serif" font-size="10.00">backend/customer/Average</text>
<text text-anchor="middle" x="241.5" y="-309.5" font-family="Helvetica,sans-Serif" font-size="10.00">Customer.h</text>
</a>
</g>
</g>
<!-- Node6&#45;&gt;Node7 -->
<g id="edge6" class="edge">
<title>Node6&#45;&gt;Node7</title>
<path fill="none" stroke="midnightblue" d="M710.1,-373.78C603.38,-361.19 418.88,-339.43 316.11,-327.3"/>
<polygon fill="midnightblue" stroke="midnightblue" points="709.84,-377.27 720.18,-374.97 710.66,-370.32 709.84,-377.27"/>
</g>
<!-- Node11 -->
<g id="node11" class="node">
<title>Node11</title>
<g id="a_node11"><a xlink:href="Customer_8cpp.html" target="_top" xlink:title="Implements the functionality defined in the Customer class.">
<polygon fill="white" stroke="black" points="1247.5,-308 1247.5,-327 1423.5,-327 1423.5,-308 1247.5,-308"/>
<text text-anchor="middle" x="1335.5" y="-315" font-family="Helvetica,sans-Serif" font-size="10.00">backend/customer/Customer.cpp</text>
</a>
</g>
</g>
<!-- Node6&#45;&gt;Node11 -->
<g id="edge10" class="edge">
<title>Node6&#45;&gt;Node11</title>
<path fill="none" stroke="midnightblue" d="M853.01,-373.38C863.17,-371.82 873.63,-370.29 883.5,-369 1038.55,-348.69 1078.28,-352.01 1233.5,-333 1248.06,-331.22 1263.76,-329.09 1278.37,-327.02"/>
<polygon fill="midnightblue" stroke="midnightblue" points="852.31,-369.94 842.97,-374.95 853.39,-376.86 852.31,-369.94"/>
</g>
<!-- Node6&#45;&gt;Node12 -->
<g id="edge11" class="edge">
<title>Node6&#45;&gt;Node12</title>
<path fill="none" stroke="midnightblue" d="M781.21,-366.03C774.44,-355.56 765.94,-342.4 759.6,-332.59"/>
<polygon fill="midnightblue" stroke="midnightblue" points="778.47,-368.23 786.84,-374.73 784.35,-364.44 778.47,-368.23"/>
</g>
<!-- Node20 -->
<g id="node20" class="node">
<title>Node20</title>
<g id="a_node20"><a xlink:href="Game_8h.html" target="_top" xlink:title="Header file for Game class &#45; Main game facade.">
<polygon fill="white" stroke="black" points="1388,-241 1388,-260 1517,-260 1517,-241 1388,-241"/>
<text text-anchor="middle" x="1452.5" y="-248" font-family="Helvetica,sans-Serif" font-size="10.00">backend/game/Game.h</text>
</a>
</g>
</g>
<!-- Node6&#45;&gt;Node20 -->
<g id="edge36" class="edge">
<title>Node6&#45;&gt;Node20</title>
<path fill="none" stroke="midnightblue" d="M853.39,-373.41C863.43,-371.85 873.75,-370.33 883.5,-369 1024.43,-349.8 1070.77,-389.05 1201.5,-333 1221.22,-324.55 1219.32,-311.61 1238.5,-302 1253.9,-294.28 1353.97,-272.34 1411.66,-260.07"/>
<polygon fill="midnightblue" stroke="midnightblue" points="852.79,-369.96 843.46,-374.96 853.88,-376.87 852.79,-369.96"/>
</g>
<!-- Node27 -->
<g id="node27" class="node">
<title>Node27</title>
<g id="a_node27"><a xlink:href="GreenFingerCustomer_8h.html" target="_top" xlink:title="Concrete customer class representing expert plant enthusiasts.">
<polygon fill="white" stroke="black" points="846.5,-302.5 846.5,-332.5 1014.5,-332.5 1014.5,-302.5 846.5,-302.5"/>
<text text-anchor="start" x="854.5" y="-320.5" font-family="Helvetica,sans-Serif" font-size="10.00">backend/customer/GreenFinger</text>
<text text-anchor="middle" x="930.5" y="-309.5" font-family="Helvetica,sans-Serif" font-size="10.00">Customer.h</text>
</a>
</g>
</g>
<!-- Node6&#45;&gt;Node27 -->
<g id="edge30" class="edge">
<title>Node6&#45;&gt;Node27</title>
<path fill="none" stroke="midnightblue" d="M820.16,-370.47C843.49,-359.49 876.81,-343.79 900.72,-332.53"/>
<polygon fill="midnightblue" stroke="midnightblue" points="818.38,-367.44 810.83,-374.87 821.36,-373.77 818.38,-367.44"/>
</g>
<!-- Node29 -->
<g id="node29" class="node">
<title>Node29</title>
<g id="a_node29"><a xlink:href="IgnorantCustomer_8h.html" target="_top" xlink:title="Concrete customer class representing inexperienced plant buyers.">
<polygon fill="white" stroke="black" points="1043,-302.5 1043,-332.5 1192,-332.5 1192,-302.5 1043,-302.5"/>
<text text-anchor="start" x="1051" y="-320.5" font-family="Helvetica,sans-Serif" font-size="10.00">backend/customer/Ignorant</text>
<text text-anchor="middle" x="1117.5" y="-309.5" font-family="Helvetica,sans-Serif" font-size="10.00">Customer.h</text>
</a>
</g>
</g>
<!-- Node6&#45;&gt;Node29 -->
<g id="edge33" class="edge">
<title>Node6&#45;&gt;Node29</title>
<path fill="none" stroke="midnightblue" d="M845.2,-372.96C900.12,-361.98 986.5,-344.7 1047.2,-332.56"/>
<polygon fill="midnightblue" stroke="midnightblue" points="844.44,-369.54 835.32,-374.94 845.81,-376.41 844.44,-369.54"/>
</g>
<!-- Node8 -->
<g id="node8" class="node">
<title>Node8</title>
<g id="a_node8"><a xlink:href="AverageCustomer_8cpp.html" target="_top" xlink:title="Implements the functionality defined in the AverageCustomer class.">
<polygon fill="white" stroke="black" points="0,-235.5 0,-265.5 149,-265.5 149,-235.5 0,-235.5"/>
<text text-anchor="start" x="8" y="-253.5" font-family="Helvetica,sans-Serif" font-size="10.00">backend/customer/Average</text>
<text text-anchor="middle" x="74.5" y="-242.5" font-family="Helvetica,sans-Serif" font-size="10.00">Customer.cpp</text>
</a>
</g>
</g>
<!-- Node7&#45;&gt;Node8 -->
<g id="edge7" class="edge">
<title>Node7&#45;&gt;Node8</title>
<path fill="none" stroke="midnightblue" d="M195.72,-298.68C168.94,-288.26 135.6,-275.28 110.67,-265.58"/>
<polygon fill="midnightblue" stroke="midnightblue" points="194.67,-302.03 205.26,-302.4 197.21,-295.51 194.67,-302.03"/>
</g>
<!-- Node9 -->
<g id="node9" class="node">
<title>Node9</title>
<g id="a_node9"><a xlink:href="AverageCustomerBuilder_8h.html" target="_top" xlink:title="Builder class for creating AverageCustomer objects with randomized dialogues.">
<polygon fill="white" stroke="black" points="167,-235.5 167,-265.5 316,-265.5 316,-235.5 167,-235.5"/>
<text text-anchor="start" x="175" y="-253.5" font-family="Helvetica,sans-Serif" font-size="10.00">backend/customer/Average</text>
<text text-anchor="middle" x="241.5" y="-242.5" font-family="Helvetica,sans-Serif" font-size="10.00">CustomerBuilder.h</text>
</a>
</g>
</g>
<!-- Node7&#45;&gt;Node9 -->
<g id="edge8" class="edge">
<title>Node7&#45;&gt;Node9</title>
<path fill="none" stroke="midnightblue" d="M241.5,-292.11C241.5,-283.15 241.5,-273.32 241.5,-265.58"/>
<polygon fill="midnightblue" stroke="midnightblue" points="238,-292.4 241.5,-302.4 245,-292.4 238,-292.4"/>
</g>
<!-- Node10 -->
<g id="node10" class="node">
<title>Node10</title>
<g id="a_node10"><a xlink:href="AverageCustomerBuilder_8cpp.html" target="_top" xlink:title="Implements the AverageCustomerBuilder class functionality.">
<polygon fill="white" stroke="black" points="165,-168.5 165,-198.5 314,-198.5 314,-168.5 165,-168.5"/>
<text text-anchor="start" x="173" y="-186.5" font-family="Helvetica,sans-Serif" font-size="10.00">backend/customer/Average</text>
<text text-anchor="middle" x="239.5" y="-175.5" font-family="Helvetica,sans-Serif" font-size="10.00">CustomerBuilder.cpp</text>
</a>
</g>
</g>
<!-- Node9&#45;&gt;Node10 -->
<g id="edge9" class="edge">
<title>Node9&#45;&gt;Node10</title>
<path fill="none" stroke="midnightblue" d="M240.75,-225.11C240.47,-216.15 240.17,-206.32 239.93,-198.58"/>
<polygon fill="midnightblue" stroke="midnightblue" points="237.26,-225.51 241.07,-235.4 244.26,-225.29 237.26,-225.51"/>
</g>
<!-- Node12&#45;&gt;Node9 -->
<g id="edge12" class="edge">
<title>Node12&#45;&gt;Node9</title>
<path fill="none" stroke="midnightblue" d="M662.4,-307.4C576.33,-298.19 441.67,-282.92 325.5,-266 322.42,-265.55 319.29,-265.08 316.12,-264.59"/>
<polygon fill="midnightblue" stroke="midnightblue" points="662.08,-310.89 672.4,-308.47 662.82,-303.93 662.08,-310.89"/>
</g>
<!-- Node13 -->
<g id="node13" class="node">
<title>Node13</title>
<g id="a_node13"><a xlink:href="CustomerBuilder_8cpp.html" target="_top" xlink:title="Implements the CustomerBuilder base class functionality.">
<polygon fill="white" stroke="black" points="508.5,-235.5 508.5,-265.5 664.5,-265.5 664.5,-235.5 508.5,-235.5"/>
<text text-anchor="start" x="516.5" y="-253.5" font-family="Helvetica,sans-Serif" font-size="10.00">backend/customer/Customer</text>
<text text-anchor="middle" x="586.5" y="-242.5" font-family="Helvetica,sans-Serif" font-size="10.00">Builder.cpp</text>
</a>
</g>
</g>
<!-- Node12&#45;&gt;Node13 -->
<g id="edge13" class="edge">
<title>Node12&#45;&gt;Node13</title>
<path fill="none" stroke="midnightblue" d="M705.54,-298.68C679.24,-288.26 646.5,-275.28 622.02,-265.58"/>
<polygon fill="midnightblue" stroke="midnightblue" points="704.33,-301.97 714.91,-302.4 706.91,-295.46 704.33,-301.97"/>
</g>
<!-- Node12&#45;&gt;Node14 -->
<g id="edge14" class="edge">
<title>Node12&#45;&gt;Node14</title>
<path fill="none" stroke="midnightblue" d="M667.53,-300.54C601.01,-287.75 510.24,-270.3 456.85,-260.03"/>
<polygon fill="midnightblue" stroke="midnightblue" points="667.09,-304.02 677.58,-302.48 668.42,-297.15 667.09,-304.02"/>
</g>
<!-- Node16 -->
<g id="node16" class="node">
<title>Node16</title>
<g id="a_node16"><a xlink:href="GreenFingerCustomerBuilder_8h.html" target="_top" xlink:title="Builder class for creating GreenFingerCustomer objects with randomized dialogues.">
<polygon fill="white" stroke="black" points="682.5,-235.5 682.5,-265.5 850.5,-265.5 850.5,-235.5 682.5,-235.5"/>
<text text-anchor="start" x="690.5" y="-253.5" font-family="Helvetica,sans-Serif" font-size="10.00">backend/customer/GreenFinger</text>
<text text-anchor="middle" x="766.5" y="-242.5" font-family="Helvetica,sans-Serif" font-size="10.00">CustomerBuilder.h</text>
</a>
</g>
</g>
<!-- Node12&#45;&gt;Node16 -->
<g id="edge16" class="edge">
<title>Node12&#45;&gt;Node16</title>
<path fill="none" stroke="midnightblue" d="M756.43,-292.4C758.66,-283.37 761.11,-273.41 763.04,-265.58"/>
<polygon fill="midnightblue" stroke="midnightblue" points="752.96,-291.85 753.97,-302.4 759.76,-293.52 752.96,-291.85"/>
</g>
<!-- Node18 -->
<g id="node18" class="node">
<title>Node18</title>
<g id="a_node18"><a xlink:href="IgnorantCustomerBuilder_8h.html" target="_top" xlink:title="Builder class for creating IgnorantCustomer objects with randomized dialogues.">
<polygon fill="white" stroke="black" points="1054,-235.5 1054,-265.5 1203,-265.5 1203,-235.5 1054,-235.5"/>
<text text-anchor="start" x="1062" y="-253.5" font-family="Helvetica,sans-Serif" font-size="10.00">backend/customer/Ignorant</text>
<text text-anchor="middle" x="1128.5" y="-242.5" font-family="Helvetica,sans-Serif" font-size="10.00">CustomerBuilder.h</text>
</a>
</g>
</g>
<!-- Node12&#45;&gt;Node18 -->
<g id="edge18" class="edge">
<title>Node12&#45;&gt;Node18</title>
<path fill="none" stroke="midnightblue" d="M838.74,-301.48C897.37,-291.47 976.05,-278.01 1045.5,-266 1048.24,-265.53 1051.03,-265.04 1053.85,-264.55"/>
<polygon fill="midnightblue" stroke="midnightblue" points="838.04,-298.04 828.77,-303.18 839.22,-304.94 838.04,-298.04"/>
</g>
<!-- Node12&#45;&gt;Node20 -->
<g id="edge20" class="edge">
<title>Node12&#45;&gt;Node20</title>
<path fill="none" stroke="midnightblue" d="M838.8,-301.93C1079.06,-274.75 1143.43,-297.15 1379.5,-266 1390.9,-264.5 1403.2,-262.28 1414.39,-260.04"/>
<polygon fill="midnightblue" stroke="midnightblue" points="838.24,-298.47 828.7,-303.09 839.04,-305.43 838.24,-298.47"/>
</g>
<!-- Node15 -->
<g id="node15" class="node">
<title>Node15</title>
<g id="a_node15"><a xlink:href="Director_8cpp.html" target="_top" xlink:title="Implements the Director class functionality.">
<polygon fill="white" stroke="black" points="332,-174 332,-193 499,-193 499,-174 332,-174"/>
<text text-anchor="middle" x="415.5" y="-181" font-family="Helvetica,sans-Serif" font-size="10.00">backend/customer/Director.cpp</text>
</a>
</g>
</g>
<!-- Node14&#45;&gt;Node15 -->
<g id="edge15" class="edge">
<title>Node14&#45;&gt;Node15</title>
<path fill="none" stroke="midnightblue" d="M413.38,-230.54C413.95,-218.17 414.66,-202.62 415.1,-193.13"/>
<polygon fill="midnightblue" stroke="midnightblue" points="409.87,-230.58 412.9,-240.73 416.86,-230.91 409.87,-230.58"/>
</g>
<!-- Node17 -->
<g id="node17" class="node">
<title>Node17</title>
<g id="a_node17"><a xlink:href="GreenFingerCustomerBuilder_8cpp.html" target="_top" xlink:title="Implements the GreenFingerCustomerBuilder class functionality.">
<polygon fill="white" stroke="black" points="682.5,-168.5 682.5,-198.5 850.5,-198.5 850.5,-168.5 682.5,-168.5"/>
<text text-anchor="start" x="690.5" y="-186.5" font-family="Helvetica,sans-Serif" font-size="10.00">backend/customer/GreenFinger</text>
<text text-anchor="middle" x="766.5" y="-175.5" font-family="Helvetica,sans-Serif" font-size="10.00">CustomerBuilder.cpp</text>
</a>
</g>
</g>
<!-- Node16&#45;&gt;Node17 -->
<g id="edge17" class="edge">
<title>Node16&#45;&gt;Node17</title>
<path fill="none" stroke="midnightblue" d="M766.5,-225.11C766.5,-216.15 766.5,-206.32 766.5,-198.58"/>
<polygon fill="midnightblue" stroke="midnightblue" points="763,-225.4 766.5,-235.4 770,-225.4 763,-225.4"/>
</g>
<!-- Node19 -->
<g id="node19" class="node">
<title>Node19</title>
<g id="a_node19"><a xlink:href="IgnorantCustomerBuilder_8cpp.html" target="_top" xlink:title="Implements the IgnorantCustomerBuilder class functionality.">
<polygon fill="white" stroke="black" points="1054,-168.5 1054,-198.5 1203,-198.5 1203,-168.5 1054,-168.5"/>
<text text-anchor="start" x="1062" y="-186.5" font-family="Helvetica,sans-Serif" font-size="10.00">backend/customer/Ignorant</text>
<text text-anchor="middle" x="1128.5" y="-175.5" font-family="Helvetica,sans-Serif" font-size="10.00">CustomerBuilder.cpp</text>
</a>
</g>
</g>
<!-- Node18&#45;&gt;Node19 -->
<g id="edge19" class="edge">
<title>Node18&#45;&gt;Node19</title>
<path fill="none" stroke="midnightblue" d="M1128.5,-225.11C1128.5,-216.15 1128.5,-206.32 1128.5,-198.58"/>
<polygon fill="midnightblue" stroke="midnightblue" points="1125,-225.4 1128.5,-235.4 1132,-225.4 1125,-225.4"/>
</g>
<!-- Node21 -->
<g id="node21" class="node">
<title>Node21</title>
<g id="a_node21"><a xlink:href="API_8h.html" target="_top" xlink:title="Bootstrapper for public facing API.">
<polygon fill="white" stroke="black" points="1400.5,-112.5 1400.5,-131.5 1504.5,-131.5 1504.5,-112.5 1400.5,-112.5"/>
<text text-anchor="middle" x="1452.5" y="-119.5" font-family="Helvetica,sans-Serif" font-size="10.00">backend/API/API.h</text>
</a>
</g>
</g>
<!-- Node20&#45;&gt;Node21 -->
<g id="edge21" class="edge">
<title>Node20&#45;&gt;Node21</title>
<path fill="none" stroke="midnightblue" d="M1452.5,-230.44C1452.5,-202.62 1452.5,-152.04 1452.5,-131.76"/>
<polygon fill="midnightblue" stroke="midnightblue" points="1449,-230.81 1452.5,-240.81 1456,-230.81 1449,-230.81"/>
</g>
<!-- Node22 -->
<g id="node22" class="node">
<title>Node22</title>
<g id="a_node22"><a xlink:href="APIController_8h.html" target="_top" xlink:title="Define endpoints.">
<polygon fill="white" stroke="black" points="1457,-56.5 1457,-75.5 1608,-75.5 1608,-56.5 1457,-56.5"/>
<text text-anchor="middle" x="1532.5" y="-63.5" font-family="Helvetica,sans-Serif" font-size="10.00">backend/API/APIController.h</text>
</a>
</g>
</g>
<!-- Node20&#45;&gt;Node22 -->
<g id="edge24" class="edge">
<title>Node20&#45;&gt;Node22</title>
<path fill="none" stroke="midnightblue" d="M1435.53,-233.72C1408.76,-206.92 1362.62,-151.54 1391.5,-112 1406.81,-91.04 1431.99,-79.62 1456.86,-73.47"/>
<polygon fill="midnightblue" stroke="midnightblue" points="1433.18,-236.33 1442.8,-240.78 1438.06,-231.31 1433.18,-236.33"/>
</g>
<!-- Node24 -->
<g id="node24" class="node">
<title>Node24</title>
<g id="a_node24"><a xlink:href="MenuOption_8h.html" target="_top" xlink:title="Base class for menu command options.">
<polygon fill="white" stroke="black" points="1533,-174 1533,-193 1692,-193 1692,-174 1533,-174"/>
<text text-anchor="middle" x="1612.5" y="-181" font-family="Helvetica,sans-Serif" font-size="10.00">backend/game/MenuOption.h</text>
</a>
</g>
</g>
<!-- Node20&#45;&gt;Node24 -->
<g id="edge25" class="edge">
<title>Node20&#45;&gt;Node24</title>
<path fill="none" stroke="midnightblue" d="M1483.01,-237.1C1514.78,-224.2 1563.69,-204.33 1591.42,-193.06"/>
<polygon fill="midnightblue" stroke="midnightblue" points="1481.69,-233.86 1473.75,-240.87 1484.33,-240.35 1481.69,-233.86"/>
</g>
<!-- Node21&#45;&gt;Node22 -->
<g id="edge22" class="edge">
<title>Node21&#45;&gt;Node22</title>
<path fill="none" stroke="midnightblue" d="M1473.8,-106.62C1488.42,-96.76 1507.33,-83.99 1519.68,-75.65"/>
<polygon fill="midnightblue" stroke="midnightblue" points="1471.68,-103.83 1465.35,-112.32 1475.6,-109.63 1471.68,-103.83"/>
</g>
<!-- Node23 -->
<g id="node23" class="node">
<title>Node23</title>
<g id="a_node23"><a xlink:href="APIController_8cpp.html" target="_top" xlink:title="Still need to see what going to do here.">
<polygon fill="white" stroke="black" points="1451.5,-0.5 1451.5,-19.5 1613.5,-19.5 1613.5,-0.5 1451.5,-0.5"/>
<text text-anchor="middle" x="1532.5" y="-7.5" font-family="Helvetica,sans-Serif" font-size="10.00">backend/API/APIController.cpp</text>
</a>
</g>
</g>
<!-- Node22&#45;&gt;Node23 -->
<g id="edge23" class="edge">
<title>Node22&#45;&gt;Node23</title>
<path fill="none" stroke="midnightblue" d="M1532.5,-45.8C1532.5,-36.91 1532.5,-26.78 1532.5,-19.75"/>
<polygon fill="midnightblue" stroke="midnightblue" points="1529,-46.08 1532.5,-56.08 1536,-46.08 1529,-46.08"/>
</g>
<!-- Node25 -->
<g id="node25" class="node">
<title>Node25</title>
<g id="a_node25"><a xlink:href="ExitGameOption_8h.html" target="_top" xlink:title="Command for exiting the game with logging capabilities.">
<polygon fill="white" stroke="black" points="1522.5,-112.5 1522.5,-131.5 1702.5,-131.5 1702.5,-112.5 1522.5,-112.5"/>
<text text-anchor="middle" x="1612.5" y="-119.5" font-family="Helvetica,sans-Serif" font-size="10.00">backend/game/ExitGameOption.h</text>
</a>
</g>
</g>
<!-- Node24&#45;&gt;Node25 -->
<g id="edge26" class="edge">
<title>Node24&#45;&gt;Node25</title>
<path fill="none" stroke="midnightblue" d="M1612.5,-163.82C1612.5,-153 1612.5,-139.9 1612.5,-131.51"/>
<polygon fill="midnightblue" stroke="midnightblue" points="1609,-163.98 1612.5,-173.98 1616,-163.98 1609,-163.98"/>
</g>
<!-- Node26 -->
<g id="node26" class="node">
<title>Node26</title>
<g id="a_node26"><a xlink:href="NewGameOption_8h.html" target="_top" xlink:title="Header file for NewGameOption class.">
<polygon fill="white" stroke="black" points="1721,-112.5 1721,-131.5 1904,-131.5 1904,-112.5 1721,-112.5"/>
<text text-anchor="middle" x="1812.5" y="-119.5" font-family="Helvetica,sans-Serif" font-size="10.00">backend/game/NewGameOption.h</text>
</a>
</g>
</g>
<!-- Node24&#45;&gt;Node26 -->
<g id="edge28" class="edge">
<title>Node24&#45;&gt;Node26</title>
<path fill="none" stroke="midnightblue" d="M1651.06,-171.03C1689.93,-159.46 1749.02,-141.88 1783.9,-131.51"/>
<polygon fill="midnightblue" stroke="midnightblue" points="1649.74,-167.77 1641.16,-173.98 1651.74,-174.48 1649.74,-167.77"/>
</g>
<!-- Node25&#45;&gt;Node22 -->
<g id="edge27" class="edge">
<title>Node25&#45;&gt;Node22</title>
<path fill="none" stroke="midnightblue" d="M1591.2,-106.62C1576.58,-96.76 1557.67,-83.99 1545.32,-75.65"/>
<polygon fill="midnightblue" stroke="midnightblue" points="1589.4,-109.63 1599.65,-112.32 1593.32,-103.83 1589.4,-109.63"/>
</g>
<!-- Node26&#45;&gt;Node22 -->
<g id="edge29" class="edge">
<title>Node26&#45;&gt;Node22</title>
<path fill="none" stroke="midnightblue" d="M1758.25,-110.54C1705.33,-100.33 1625.83,-85 1576.66,-75.52"/>
<polygon fill="midnightblue" stroke="midnightblue" points="1757.65,-113.99 1768.13,-112.44 1758.98,-107.11 1757.65,-113.99"/>
</g>
<!-- Node27&#45;&gt;Node16 -->
<g id="edge32" class="edge">
<title>Node27&#45;&gt;Node16</title>
<path fill="none" stroke="midnightblue" d="M885.54,-298.68C859.24,-288.26 826.5,-275.28 802.02,-265.58"/>
<polygon fill="midnightblue" stroke="midnightblue" points="884.33,-301.97 894.91,-302.4 886.91,-295.46 884.33,-301.97"/>
</g>
<!-- Node28 -->
<g id="node28" class="node">
<title>Node28</title>
<g id="a_node28"><a xlink:href="GreenFingerCustomer_8cpp.html" target="_top" xlink:title="Implements the functionality defined in the GreenFingerCustomer class.">
<polygon fill="white" stroke="black" points="868.5,-235.5 868.5,-265.5 1036.5,-265.5 1036.5,-235.5 868.5,-235.5"/>
<text text-anchor="start" x="876.5" y="-253.5" font-family="Helvetica,sans-Serif" font-size="10.00">backend/customer/GreenFinger</text>
<text text-anchor="middle" x="952.5" y="-242.5" font-family="Helvetica,sans-Serif" font-size="10.00">Customer.cpp</text>
</a>
</g>
</g>
<!-- Node27&#45;&gt;Node28 -->
<g id="edge31" class="edge">
<title>Node27&#45;&gt;Node28</title>
<path fill="none" stroke="midnightblue" d="M938.56,-292.7C941.64,-283.59 945.06,-273.49 947.74,-265.58"/>
<polygon fill="midnightblue" stroke="midnightblue" points="935.16,-291.8 935.27,-302.4 941.79,-294.05 935.16,-291.8"/>
</g>
<!-- Node29&#45;&gt;Node18 -->
<g id="edge35" class="edge">
<title>Node29&#45;&gt;Node18</title>
<path fill="none" stroke="midnightblue" d="M1121.58,-292.4C1123.11,-283.37 1124.79,-273.41 1126.12,-265.58"/>
<polygon fill="midnightblue" stroke="midnightblue" points="1118.1,-291.95 1119.89,-302.4 1125.01,-293.12 1118.1,-291.95"/>
</g>
<!-- Node30 -->
<g id="node30" class="node">
<title>Node30</title>
<g id="a_node30"><a xlink:href="IgnorantCustomer_8cpp.html" target="_top" xlink:title="Implements the functionality defined in the IgnorantCustomer class.">
<polygon fill="white" stroke="black" points="1221,-235.5 1221,-265.5 1370,-265.5 1370,-235.5 1221,-235.5"/>
<text text-anchor="start" x="1229" y="-253.5" font-family="Helvetica,sans-Serif" font-size="10.00">backend/customer/Ignorant</text>
<text text-anchor="middle" x="1295.5" y="-242.5" font-family="Helvetica,sans-Serif" font-size="10.00">Customer.cpp</text>
</a>
</g>
</g>
<!-- Node29&#45;&gt;Node30 -->
<g id="edge34" class="edge">
<title>Node29&#45;&gt;Node30</title>
<path fill="none" stroke="midnightblue" d="M1165.55,-298.96C1194.22,-288.48 1230.14,-275.37 1256.95,-265.58"/>
<polygon fill="midnightblue" stroke="midnightblue" points="1164.32,-295.68 1156.12,-302.4 1166.72,-302.25 1164.32,-295.68"/>
</g>
<!-- Node34&#45;&gt;Node35 -->
<g id="edge44" class="edge">
<title>Node34&#45;&gt;Node35</title>
<path fill="none" stroke="midnightblue" d="M1372.37,-432.41C1396.95,-422.03 1427.36,-409.2 1450.15,-399.58"/>
<polygon fill="midnightblue" stroke="midnightblue" points="1370.77,-429.28 1362.92,-436.4 1373.49,-435.73 1370.77,-429.28"/>
</g>
<!-- Node35&#45;&gt;Node20 -->
<g id="edge45" class="edge">
<title>Node35&#45;&gt;Node20</title>
<path fill="none" stroke="midnightblue" d="M1477.82,-359.32C1470.79,-329.38 1459.17,-279.91 1454.52,-260.1"/>
<polygon fill="midnightblue" stroke="midnightblue" points="1474.49,-360.44 1480.18,-369.37 1481.3,-358.84 1474.49,-360.44"/>
</g>
</g>
</svg>
        <g id="navigator" transform="translate(0 0)" fill="#404254">
                <rect fill="#f2f5e9" fill-opacity="0.5" stroke="#606060" stroke-width=".5" x="0" y="0" width="60" height="60"/>
                <use id="zoomplus" xlink:href="#zoomPlus" x="17" y="9" onmousedown="handleZoom(evt,'in')"/>
                <use id="zoomminus" xlink:href="#zoomMin" x="42" y="9" onmousedown="handleZoom(evt,'out')"/>
                <use id="reset" xlink:href="#resetDef" x="30" y="36" onmousedown="handleReset()"/>
                <g id="arrowUp" xlink:href="#dirArrow" transform="translate(30 24)" onmousedown="handlePan(0,-1)">
                  <use xlink:href="#rim" fill="#404040">
                        <set attributeName="fill" to="#808080" begin="arrowUp.mouseover" end="arrowUp.mouseout"/>
                  </use>
                  <path fill="none" stroke="white" stroke-width="1.5" d="M0,-3.0v7 M-2.5,-0.5L0,-3.0L2.5,-0.5"/>
                </g>
                <g id="arrowRight" xlink:href="#dirArrow" transform="rotate(90) translate(36 -43)" onmousedown="handlePan(1,0)">
                  <use xlink:href="#rim" fill="#404040">
                        <set attributeName="fill" to="#808080" begin="arrowRight.mouseover" end="arrowRight.mouseout"/>
                  </use>
                  <path fill="none" stroke="white" stroke-width="1.5" d="M0,-3.0v7 M-2.5,-0.5L0,-3.0L2.5,-0.5"/>
                </g>
                <g id="arrowDown" xlink:href="#dirArrow" transform="rotate(180) translate(-30 -48)" onmousedown="handlePan(0,1)">
                  <use xlink:href="#rim" fill="#404040">
                        <set attributeName="fill" to="#808080" begin="arrowDown.mouseover" end="arrowDown.mouseout"/>
                  </use>
                  <path fill="none" stroke="white" stroke-width="1.5" d="M0,-3.0v7 M-2.5,-0.5L0,-3.0L2.5,-0.5"/>
                </g>
                <g id="arrowLeft" xlink:href="#dirArrow" transform="rotate(270) translate(-36 17)" onmousedown="handlePan(-1,0)">
                  <use xlink:href="#rim" fill="#404040">
                        <set attributeName="fill" to="#808080" begin="arrowLeft.mouseover" end="arrowLeft.mouseout"/>
                  </use>
                  <path fill="none" stroke="white" stroke-width="1.5" d="M0,-3.0v7 M-2.5,-0.5L0,-3.0L2.5,-0.5"/>
                </g>
        </g>
        <svg viewBox="0 0 15 15" width="100%" height="30px" preserveAspectRatio="xMaxYMin meet">
         <g id="arrow_out" transform="scale(0.3 0.3)">
          <a xlink:href="Inventory_8h__dep__incl_org.svg" target="_base">
           <rect id="button" ry="5" rx="5" y="6" x="6" height="38" width="38"
                fill="#f2f5e9" fill-opacity="0.5" stroke="#606060" stroke-width="1.0"/>
           <path id="arrow"
             d="M 11.500037,31.436501 C 11.940474,20.09759 22.043105,11.32322 32.158766,21.979434 L 37.068811,17.246167 C 37.068811,17.246167 37.088388,32 37.088388,32 L 22.160133,31.978069 C 22.160133,31.978069 26.997745,27.140456 26.997745,27.140456 C 18.528582,18.264221 13.291696,25.230495 11.500037,31.436501 z"
             style="fill:#404040;"/>
          </a>
         </g>
        </svg>
</svg>
