<?xml version="1.0" encoding="UTF-8" standalone="no"?>
<!DOCTYPE svg PUBLIC "-//W3C//DTD SVG 1.1//EN"
 "http://www.w3.org/Graphics/SVG/1.1/DTD/svg11.dtd">
<!-- Generated by graphviz version 2.43.0 (0)
 -->
<!-- Title: backend/game/JSONGameConfiguration.h Pages: 1 -->
<svg width="395pt" height="140pt"
 viewBox="0.00 0.00 394.50 140.00" xmlns="http://www.w3.org/2000/svg" xmlns:xlink="http://www.w3.org/1999/xlink">
<g id="graph0" class="graph" transform="scale(1 1) rotate(0) translate(4 136)">
<title>backend/game/JSONGameConfiguration.h</title>
<polygon fill="white" stroke="transparent" points="-4,4 -4,-136 390.5,-136 390.5,4 -4,4"/>
<!-- Node1 -->
<g id="node1" class="node">
<title>Node1</title>
<g id="a_node1"><a xlink:title=" ">
<polygon fill="#bfbfbf" stroke="black" points="19.5,-112.5 19.5,-131.5 237.5,-131.5 237.5,-112.5 19.5,-112.5"/>
<text text-anchor="middle" x="128.5" y="-119.5" font-family="Helvetica,sans-Serif" font-size="10.00">backend/game/JSONGameConfiguration.h</text>
</a>
</g>
</g>
<!-- Node2 -->
<g id="node2" class="node">
<title>Node2</title>
<g id="a_node2"><a xlink:title=" ">
<polygon fill="white" stroke="#bfbfbf" points="0,-56.5 0,-75.5 55,-75.5 55,-56.5 0,-56.5"/>
<text text-anchor="middle" x="27.5" y="-63.5" font-family="Helvetica,sans-Serif" font-size="10.00">fstream</text>
</a>
</g>
</g>
<!-- Node1&#45;&gt;Node2 -->
<g id="edge1" class="edge">
<title>Node1&#45;&gt;Node2</title>
<path fill="none" stroke="midnightblue" d="M112.27,-112.32C96.15,-103.7 71.2,-90.36 52.54,-80.39"/>
<polygon fill="midnightblue" stroke="midnightblue" points="54.16,-77.28 43.69,-75.65 50.86,-83.46 54.16,-77.28"/>
</g>
<!-- Node3 -->
<g id="node3" class="node">
<title>Node3</title>
<g id="a_node3"><a xlink:title=" ">
<polygon fill="white" stroke="#bfbfbf" points="73.5,-56.5 73.5,-75.5 183.5,-75.5 183.5,-56.5 73.5,-56.5"/>
<text text-anchor="middle" x="128.5" y="-63.5" font-family="Helvetica,sans-Serif" font-size="10.00">nlohmann/json.hpp</text>
</a>
</g>
</g>
<!-- Node1&#45;&gt;Node3 -->
<g id="edge2" class="edge">
<title>Node1&#45;&gt;Node3</title>
<path fill="none" stroke="midnightblue" d="M128.5,-112.08C128.5,-105.01 128.5,-94.86 128.5,-85.99"/>
<polygon fill="midnightblue" stroke="midnightblue" points="132,-85.75 128.5,-75.75 125,-85.75 132,-85.75"/>
</g>
<!-- Node4 -->
<g id="node4" class="node">
<title>Node4</title>
<g id="a_node4"><a xlink:href="GameConfiguration_8h.html" target="_top" xlink:title="Interface for obtaining game configuration.">
<polygon fill="white" stroke="black" points="201.5,-56.5 201.5,-75.5 321.5,-75.5 321.5,-56.5 201.5,-56.5"/>
<text text-anchor="middle" x="261.5" y="-63.5" font-family="Helvetica,sans-Serif" font-size="10.00">GameConfiguration.h</text>
</a>
</g>
</g>
<!-- Node1&#45;&gt;Node4 -->
<g id="edge3" class="edge">
<title>Node1&#45;&gt;Node4</title>
<path fill="none" stroke="midnightblue" d="M149.57,-112.44C171.56,-103.52 206.23,-89.44 231.16,-79.32"/>
<polygon fill="midnightblue" stroke="midnightblue" points="232.58,-82.52 240.52,-75.52 229.94,-76.04 232.58,-82.52"/>
</g>
<!-- Node5 -->
<g id="node5" class="node">
<title>Node5</title>
<g id="a_node5"><a xlink:title=" ">
<polygon fill="white" stroke="#bfbfbf" points="137,-0.5 137,-19.5 184,-19.5 184,-0.5 137,-0.5"/>
<text text-anchor="middle" x="160.5" y="-7.5" font-family="Helvetica,sans-Serif" font-size="10.00">vector</text>
</a>
</g>
</g>
<!-- Node4&#45;&gt;Node5 -->
<g id="edge4" class="edge">
<title>Node4&#45;&gt;Node5</title>
<path fill="none" stroke="midnightblue" d="M245.27,-56.32C229.15,-47.7 204.2,-34.36 185.54,-24.39"/>
<polygon fill="midnightblue" stroke="midnightblue" points="187.16,-21.28 176.69,-19.65 183.86,-27.46 187.16,-21.28"/>
</g>
<!-- Node6 -->
<g id="node6" class="node">
<title>Node6</title>
<g id="a_node6"><a xlink:title=" ">
<polygon fill="white" stroke="#bfbfbf" points="202.5,-0.5 202.5,-19.5 246.5,-19.5 246.5,-0.5 202.5,-0.5"/>
<text text-anchor="middle" x="224.5" y="-7.5" font-family="Helvetica,sans-Serif" font-size="10.00">string</text>
</a>
</g>
</g>
<!-- Node4&#45;&gt;Node6 -->
<g id="edge5" class="edge">
<title>Node4&#45;&gt;Node6</title>
<path fill="none" stroke="midnightblue" d="M255.39,-56.08C250.22,-48.53 242.65,-37.49 236.31,-28.23"/>
<polygon fill="midnightblue" stroke="midnightblue" points="239.04,-26.02 230.5,-19.75 233.26,-29.98 239.04,-26.02"/>
</g>
<!-- Node7 -->
<g id="node7" class="node">
<title>Node7</title>
<g id="a_node7"><a xlink:title=" ">
<polygon fill="white" stroke="#bfbfbf" points="265,-0.5 265,-19.5 330,-19.5 330,-0.5 265,-0.5"/>
<text text-anchor="middle" x="297.5" y="-7.5" font-family="Helvetica,sans-Serif" font-size="10.00">stdexcept</text>
</a>
</g>
</g>
<!-- Node4&#45;&gt;Node7 -->
<g id="edge6" class="edge">
<title>Node4&#45;&gt;Node7</title>
<path fill="none" stroke="midnightblue" d="M267.44,-56.08C272.48,-48.53 279.84,-37.49 286.01,-28.23"/>
<polygon fill="midnightblue" stroke="midnightblue" points="289.03,-30.01 291.67,-19.75 283.21,-26.13 289.03,-30.01"/>
</g>
<!-- Node8 -->
<g id="node8" class="node">
<title>Node8</title>
<g id="a_node8"><a xlink:title=" ">
<polygon fill="white" stroke="#bfbfbf" points="348.5,-0.5 348.5,-19.5 386.5,-19.5 386.5,-0.5 348.5,-0.5"/>
<text text-anchor="middle" x="367.5" y="-7.5" font-family="Helvetica,sans-Serif" font-size="10.00">map</text>
</a>
</g>
</g>
<!-- Node4&#45;&gt;Node8 -->
<g id="edge7" class="edge">
<title>Node4&#45;&gt;Node8</title>
<path fill="none" stroke="midnightblue" d="M278.53,-56.32C295.53,-47.66 321.88,-34.24 341.49,-24.25"/>
<polygon fill="midnightblue" stroke="midnightblue" points="343.19,-27.31 350.51,-19.65 340.01,-21.08 343.19,-27.31"/>
</g>
</g>
</svg>
