<?xml version="1.0" encoding="UTF-8" standalone="no"?>
<!DOCTYPE svg PUBLIC "-//W3C//DTD SVG 1.1//EN"
 "http://www.w3.org/Graphics/SVG/1.1/DTD/svg11.dtd">
<!-- Generated by graphviz version 2.43.0 (0)
 -->
<!-- Title: backend/game/Ledger.h Pages: 1 -->
<!--zoomable 665 -->
<svg id="main" version="1.1" xmlns="http://www.w3.org/2000/svg" xmlns:xlink="http://www.w3.org/1999/xlink" xml:space="preserve" onload="init(evt)">
<style type="text/css"><![CDATA[
.edge:hover path { stroke: red; }
.edge:hover polygon { stroke: red; fill: red; }
]]></style>
<script type="text/javascript"><![CDATA[
var edges = document.getElementsByTagName('g');
if (edges && edges.length) {
  for (var i=0;i<edges.length;i++) {
    if (edges[i].id.substr(0,4)=='edge') {
      edges[i].setAttribute('class','edge');
    }
  }
}
]]></script>
        <defs>
                <circle id="rim" cx="0" cy="0" r="7"/>
                <circle id="rim2" cx="0" cy="0" r="3.5"/>
                <g id="zoomPlus">
                        <use xlink:href="#rim" fill="#404040">
                                <set attributeName="fill" to="#808080" begin="zoomplus.mouseover" end="zoomplus.mouseout"/>
                        </use>
                        <path d="M-4,0h8M0,-4v8" fill="none" stroke="white" stroke-width="1.5" pointer-events="none"/>
                </g>
                <g id="zoomMin">
                        <use xlink:href="#rim" fill="#404040">
                                <set attributeName="fill" to="#808080" begin="zoomminus.mouseover" end="zoomminus.mouseout"/>
                        </use>
                        <path d="M-4,0h8" fill="none" stroke="white" stroke-width="1.5" pointer-events="none"/>
                </g>
                <g id="dirArrow">
                        <path fill="none" stroke="white" stroke-width="1.5" d="M0,-3.0v7 M-2.5,-0.5L0,-3.0L2.5,-0.5"/>
                </g>
               <g id="resetDef">
                       <use xlink:href="#rim2" fill="#404040">
                               <set attributeName="fill" to="#808080" begin="reset.mouseover" end="reset.mouseout"/>
                       </use>
               </g>
        </defs>

<script type="text/javascript">
var viewWidth = 1592;
var viewHeight = 665;
var sectionId = 'dynsection-1';
</script>
<script xlink:href="svgpan.js"/>
<svg id="graph" class="graph">
<g id="viewport">
<title>backend/game/Ledger.h</title>
<polygon fill="white" stroke="transparent" points="-4,4 -4,-661 1587.5,-661 1587.5,4 -4,4"/>
<!-- Node1 -->
<g id="node1" class="node">
<title>Node1</title>
<g id="a_node1"><a xlink:title="Financial ledger for tracking game balance.">
<polygon fill="#bfbfbf" stroke="black" points="305,-637.5 305,-656.5 437,-656.5 437,-637.5 305,-637.5"/>
<text text-anchor="middle" x="371" y="-644.5" font-family="Helvetica,sans-Serif" font-size="10.00">backend/game/Ledger.h</text>
</a>
</g>
</g>
<!-- Node2 -->
<g id="node2" class="node">
<title>Node2</title>
<g id="a_node2"><a xlink:href="Transaction_8h.html" target="_top" xlink:title="Represents a financial transaction in the system.">
<polygon fill="white" stroke="black" points="137.5,-509 137.5,-528 292.5,-528 292.5,-509 137.5,-509"/>
<text text-anchor="middle" x="215" y="-516" font-family="Helvetica,sans-Serif" font-size="10.00">backend/game/Transaction.h</text>
</a>
</g>
</g>
<!-- Node1&#45;&gt;Node2 -->
<g id="edge1" class="edge">
<title>Node1&#45;&gt;Node2</title>
<path fill="none" stroke="midnightblue" d="M349.45,-631.74C336.83,-623.16 320.72,-611.84 307,-601 275.36,-575.99 240.29,-543.49 224.11,-528.19"/>
<polygon fill="midnightblue" stroke="midnightblue" points="347.69,-634.77 357.94,-637.45 351.6,-628.96 347.69,-634.77"/>
</g>
<!-- Node3 -->
<g id="node3" class="node">
<title>Node3</title>
<g id="a_node3"><a xlink:href="Manager_8h.html" target="_top" xlink:title="Manager class for coordinating plant sales and customer interactions.">
<polygon fill="white" stroke="black" points="262.5,-369.5 262.5,-399.5 379.5,-399.5 379.5,-369.5 262.5,-369.5"/>
<text text-anchor="start" x="270.5" y="-387.5" font-family="Helvetica,sans-Serif" font-size="10.00">backend/greenhouse</text>
<text text-anchor="middle" x="321" y="-376.5" font-family="Helvetica,sans-Serif" font-size="10.00">/Manager.h</text>
</a>
</g>
</g>
<!-- Node1&#45;&gt;Node3 -->
<g id="edge48" class="edge">
<title>Node1&#45;&gt;Node3</title>
<path fill="none" stroke="midnightblue" d="M356.68,-629.64C350.45,-621.57 343.73,-611.36 340,-601 314.05,-528.91 317.39,-434.87 319.82,-399.64"/>
<polygon fill="midnightblue" stroke="midnightblue" points="354.04,-631.95 363.08,-637.47 359.46,-627.51 354.04,-631.95"/>
</g>
<!-- Node11 -->
<g id="node11" class="node">
<title>Node11</title>
<g id="a_node11"><a xlink:href="TransactionHistory_8h.html" target="_top" xlink:title="Maintains history of financial transactions.">
<polygon fill="white" stroke="black" points="349,-570.5 349,-600.5 495,-600.5 495,-570.5 349,-570.5"/>
<text text-anchor="start" x="357" y="-588.5" font-family="Helvetica,sans-Serif" font-size="10.00">backend/game/Transaction</text>
<text text-anchor="middle" x="422" y="-577.5" font-family="Helvetica,sans-Serif" font-size="10.00">History.h</text>
</a>
</g>
</g>
<!-- Node1&#45;&gt;Node11 -->
<g id="edge13" class="edge">
<title>Node1&#45;&gt;Node11</title>
<path fill="none" stroke="midnightblue" d="M384.88,-629.81C392.73,-620.65 402.45,-609.3 409.98,-600.52"/>
<polygon fill="midnightblue" stroke="midnightblue" points="382.16,-627.6 378.31,-637.48 387.47,-632.16 382.16,-627.6"/>
</g>
<!-- Node12 -->
<g id="node12" class="node">
<title>Node12</title>
<g id="a_node12"><a xlink:href="SalesFloor_8h.html" target="_top" xlink:title="Sales floor management for customer interactions and plant sales.">
<polygon fill="white" stroke="black" points="387.5,-503.5 387.5,-533.5 504.5,-533.5 504.5,-503.5 387.5,-503.5"/>
<text text-anchor="start" x="395.5" y="-521.5" font-family="Helvetica,sans-Serif" font-size="10.00">backend/greenhouse</text>
<text text-anchor="middle" x="446" y="-510.5" font-family="Helvetica,sans-Serif" font-size="10.00">/SalesFloor.h</text>
</a>
</g>
</g>
<!-- Node1&#45;&gt;Node12 -->
<g id="edge49" class="edge">
<title>Node1&#45;&gt;Node12</title>
<path fill="none" stroke="midnightblue" d="M446.97,-637.22C468.93,-630.75 490.57,-619.72 504,-601 520.9,-577.43 491.07,-549.93 468.29,-533.66"/>
<polygon fill="midnightblue" stroke="midnightblue" points="446,-633.86 437.23,-639.8 447.79,-640.62 446,-633.86"/>
</g>
<!-- Node2&#45;&gt;Node3 -->
<g id="edge2" class="edge">
<title>Node2&#45;&gt;Node3</title>
<path fill="none" stroke="midnightblue" d="M228.26,-500.98C249.24,-474.86 289.73,-424.44 309.53,-399.78"/>
<polygon fill="midnightblue" stroke="midnightblue" points="225.49,-498.85 221.95,-508.84 230.95,-503.23 225.49,-498.85"/>
</g>
<!-- Node4 -->
<g id="node4" class="node">
<title>Node4</title>
<g id="a_node4"><a xlink:href="Game_8h.html" target="_top" xlink:title="Header file for Game class &#45; Main game facade.">
<polygon fill="white" stroke="black" points="67.5,-241 67.5,-260 196.5,-260 196.5,-241 67.5,-241"/>
<text text-anchor="middle" x="132" y="-248" font-family="Helvetica,sans-Serif" font-size="10.00">backend/game/Game.h</text>
</a>
</g>
</g>
<!-- Node3&#45;&gt;Node4 -->
<g id="edge3" class="edge">
<title>Node3&#45;&gt;Node4</title>
<path fill="none" stroke="midnightblue" d="M263.34,-365.9C242.23,-357.85 218.91,-346.94 200,-333 171.52,-312 147.51,-276.66 137.29,-260.3"/>
<polygon fill="midnightblue" stroke="midnightblue" points="262.27,-369.24 272.86,-369.4 264.68,-362.67 262.27,-369.24"/>
</g>
<!-- Node5 -->
<g id="node5" class="node">
<title>Node5</title>
<g id="a_node5"><a xlink:href="API_8h.html" target="_top" xlink:title="Bootstrapper for public facing API.">
<polygon fill="white" stroke="black" points="0,-112.5 0,-131.5 104,-131.5 104,-112.5 0,-112.5"/>
<text text-anchor="middle" x="52" y="-119.5" font-family="Helvetica,sans-Serif" font-size="10.00">backend/API/API.h</text>
</a>
</g>
</g>
<!-- Node4&#45;&gt;Node5 -->
<g id="edge4" class="edge">
<title>Node4&#45;&gt;Node5</title>
<path fill="none" stroke="midnightblue" d="M121.1,-232.26C103.79,-204.9 70.65,-152.49 57.54,-131.76"/>
<polygon fill="midnightblue" stroke="midnightblue" points="118.2,-234.22 126.5,-240.81 124.11,-230.48 118.2,-234.22"/>
</g>
<!-- Node6 -->
<g id="node6" class="node">
<title>Node6</title>
<g id="a_node6"><a xlink:href="APIController_8h.html" target="_top" xlink:title="Define endpoints.">
<polygon fill="white" stroke="black" points="115.5,-56.5 115.5,-75.5 266.5,-75.5 266.5,-56.5 115.5,-56.5"/>
<text text-anchor="middle" x="191" y="-63.5" font-family="Helvetica,sans-Serif" font-size="10.00">backend/API/APIController.h</text>
</a>
</g>
</g>
<!-- Node4&#45;&gt;Node6 -->
<g id="edge7" class="edge">
<title>Node4&#45;&gt;Node6</title>
<path fill="none" stroke="midnightblue" d="M131.23,-230.87C130.82,-203.51 132.81,-151.45 151,-112 157.74,-97.38 170.85,-84.07 180.22,-75.78"/>
<polygon fill="midnightblue" stroke="midnightblue" points="127.73,-231.07 131.51,-240.97 134.73,-230.88 127.73,-231.07"/>
</g>
<!-- Node8 -->
<g id="node8" class="node">
<title>Node8</title>
<g id="a_node8"><a xlink:href="MenuOption_8h.html" target="_top" xlink:title="Base class for menu command options.">
<polygon fill="white" stroke="black" points="170.5,-174 170.5,-193 329.5,-193 329.5,-174 170.5,-174"/>
<text text-anchor="middle" x="250" y="-181" font-family="Helvetica,sans-Serif" font-size="10.00">backend/game/MenuOption.h</text>
</a>
</g>
</g>
<!-- Node4&#45;&gt;Node8 -->
<g id="edge8" class="edge">
<title>Node4&#45;&gt;Node8</title>
<path fill="none" stroke="midnightblue" d="M156.89,-235.79C180.28,-222.9 214.56,-204.02 234.34,-193.13"/>
<polygon fill="midnightblue" stroke="midnightblue" points="154.98,-232.84 147.91,-240.73 158.36,-238.97 154.98,-232.84"/>
</g>
<!-- Node5&#45;&gt;Node6 -->
<g id="edge5" class="edge">
<title>Node5&#45;&gt;Node6</title>
<path fill="none" stroke="midnightblue" d="M83.48,-108.77C109.59,-98.63 146.04,-84.47 169.08,-75.52"/>
<polygon fill="midnightblue" stroke="midnightblue" points="82.08,-105.56 74.02,-112.44 84.61,-112.08 82.08,-105.56"/>
</g>
<!-- Node7 -->
<g id="node7" class="node">
<title>Node7</title>
<g id="a_node7"><a xlink:href="APIController_8cpp.html" target="_top" xlink:title="Still need to see what going to do here.">
<polygon fill="white" stroke="black" points="110,-0.5 110,-19.5 272,-19.5 272,-0.5 110,-0.5"/>
<text text-anchor="middle" x="191" y="-7.5" font-family="Helvetica,sans-Serif" font-size="10.00">backend/API/APIController.cpp</text>
</a>
</g>
</g>
<!-- Node6&#45;&gt;Node7 -->
<g id="edge6" class="edge">
<title>Node6&#45;&gt;Node7</title>
<path fill="none" stroke="midnightblue" d="M191,-45.8C191,-36.91 191,-26.78 191,-19.75"/>
<polygon fill="midnightblue" stroke="midnightblue" points="187.5,-46.08 191,-56.08 194.5,-46.08 187.5,-46.08"/>
</g>
<!-- Node9 -->
<g id="node9" class="node">
<title>Node9</title>
<g id="a_node9"><a xlink:href="ExitGameOption_8h.html" target="_top" xlink:title="Command for exiting the game with logging capabilities.">
<polygon fill="white" stroke="black" points="160,-112.5 160,-131.5 340,-131.5 340,-112.5 160,-112.5"/>
<text text-anchor="middle" x="250" y="-119.5" font-family="Helvetica,sans-Serif" font-size="10.00">backend/game/ExitGameOption.h</text>
</a>
</g>
</g>
<!-- Node8&#45;&gt;Node9 -->
<g id="edge9" class="edge">
<title>Node8&#45;&gt;Node9</title>
<path fill="none" stroke="midnightblue" d="M250,-163.82C250,-153 250,-139.9 250,-131.51"/>
<polygon fill="midnightblue" stroke="midnightblue" points="246.5,-163.98 250,-173.98 253.5,-163.98 246.5,-163.98"/>
</g>
<!-- Node10 -->
<g id="node10" class="node">
<title>Node10</title>
<g id="a_node10"><a xlink:href="NewGameOption_8h.html" target="_top" xlink:title="Header file for NewGameOption class.">
<polygon fill="white" stroke="black" points="358.5,-112.5 358.5,-131.5 541.5,-131.5 541.5,-112.5 358.5,-112.5"/>
<text text-anchor="middle" x="450" y="-119.5" font-family="Helvetica,sans-Serif" font-size="10.00">backend/game/NewGameOption.h</text>
</a>
</g>
</g>
<!-- Node8&#45;&gt;Node10 -->
<g id="edge11" class="edge">
<title>Node8&#45;&gt;Node10</title>
<path fill="none" stroke="midnightblue" d="M288.56,-171.03C327.43,-159.46 386.52,-141.88 421.4,-131.51"/>
<polygon fill="midnightblue" stroke="midnightblue" points="287.24,-167.77 278.66,-173.98 289.24,-174.48 287.24,-167.77"/>
</g>
<!-- Node9&#45;&gt;Node6 -->
<g id="edge10" class="edge">
<title>Node9&#45;&gt;Node6</title>
<path fill="none" stroke="midnightblue" d="M233.11,-105.54C222.59,-95.91 209.43,-83.87 200.65,-75.83"/>
<polygon fill="midnightblue" stroke="midnightblue" points="230.78,-108.15 240.52,-112.32 235.51,-102.99 230.78,-108.15"/>
</g>
<!-- Node10&#45;&gt;Node6 -->
<g id="edge12" class="edge">
<title>Node10&#45;&gt;Node6</title>
<path fill="none" stroke="midnightblue" d="M398.9,-110.35C349.95,-100.14 277.05,-84.94 231.85,-75.52"/>
<polygon fill="midnightblue" stroke="midnightblue" points="398.46,-113.83 408.96,-112.44 399.89,-106.98 398.46,-113.83"/>
</g>
<!-- Node11&#45;&gt;Node12 -->
<g id="edge14" class="edge">
<title>Node11&#45;&gt;Node12</title>
<path fill="none" stroke="midnightblue" d="M430.68,-560.99C434.07,-551.8 437.85,-541.58 440.8,-533.58"/>
<polygon fill="midnightblue" stroke="midnightblue" points="427.39,-559.8 427.21,-570.4 433.95,-562.23 427.39,-559.8"/>
</g>
<!-- Node12&#45;&gt;Node3 -->
<g id="edge47" class="edge">
<title>Node12&#45;&gt;Node3</title>
<path fill="none" stroke="midnightblue" d="M415.38,-497.45C403.36,-488.83 389.87,-478.17 379,-467 358.41,-445.84 339.59,-416.84 329.27,-399.75"/>
<polygon fill="midnightblue" stroke="midnightblue" points="413.62,-500.49 423.82,-503.34 417.63,-494.75 413.62,-500.49"/>
</g>
<!-- Node13 -->
<g id="node13" class="node">
<title>Node13</title>
<g id="a_node13"><a xlink:href="CustomerVisitor_8h.html" target="_top" xlink:title="Abstract visitor class for plant recommendation strategies for different customer types.">
<polygon fill="white" stroke="black" points="776,-436.5 776,-466.5 932,-466.5 932,-436.5 776,-436.5"/>
<text text-anchor="start" x="784" y="-454.5" font-family="Helvetica,sans-Serif" font-size="10.00">backend/customer/Customer</text>
<text text-anchor="middle" x="854" y="-443.5" font-family="Helvetica,sans-Serif" font-size="10.00">Visitor.h</text>
</a>
</g>
</g>
<!-- Node12&#45;&gt;Node13 -->
<g id="edge15" class="edge">
<title>Node12&#45;&gt;Node13</title>
<path fill="none" stroke="midnightblue" d="M514.8,-506.54C587.03,-495.03 700.38,-476.97 775.91,-464.94"/>
<polygon fill="midnightblue" stroke="midnightblue" points="514.22,-503.09 504.89,-508.12 515.32,-510 514.22,-503.09"/>
</g>
<!-- Node36 -->
<g id="node36" class="node">
<title>Node36</title>
<g id="a_node36"><a xlink:href="Greenhouse_8h.html" target="_top" xlink:title="Main greenhouse class managing plant inventory and staff.">
<polygon fill="white" stroke="black" points="387.5,-436.5 387.5,-466.5 504.5,-466.5 504.5,-436.5 387.5,-436.5"/>
<text text-anchor="start" x="395.5" y="-454.5" font-family="Helvetica,sans-Serif" font-size="10.00">backend/greenhouse</text>
<text text-anchor="middle" x="446" y="-443.5" font-family="Helvetica,sans-Serif" font-size="10.00">/Greenhouse.h</text>
</a>
</g>
</g>
<!-- Node12&#45;&gt;Node36 -->
<g id="edge45" class="edge">
<title>Node12&#45;&gt;Node36</title>
<path fill="none" stroke="midnightblue" d="M446,-493.11C446,-484.15 446,-474.32 446,-466.58"/>
<polygon fill="midnightblue" stroke="midnightblue" points="442.5,-493.4 446,-503.4 449.5,-493.4 442.5,-493.4"/>
</g>
<!-- Node14 -->
<g id="node14" class="node">
<title>Node14</title>
<g id="a_node14"><a xlink:href="Customer_8h.html" target="_top" xlink:title="Abstract base class for all customer types in the plant shop game.">
<polygon fill="white" stroke="black" points="571,-375 571,-394 735,-394 735,-375 571,-375"/>
<text text-anchor="middle" x="653" y="-382" font-family="Helvetica,sans-Serif" font-size="10.00">backend/customer/Customer.h</text>
</a>
</g>
</g>
<!-- Node13&#45;&gt;Node14 -->
<g id="edge16" class="edge">
<title>Node13&#45;&gt;Node14</title>
<path fill="none" stroke="midnightblue" d="M800.72,-433.27C761.55,-420.6 710,-403.93 679.31,-394.01"/>
<polygon fill="midnightblue" stroke="midnightblue" points="799.79,-436.65 810.39,-436.4 801.95,-429.99 799.79,-436.65"/>
</g>
<!-- Node20 -->
<g id="node20" class="node">
<title>Node20</title>
<g id="a_node20"><a xlink:href="CustomerBuilder_8h.html" target="_top" xlink:title="Abstract builder interface for creating Customer objects.">
<polygon fill="white" stroke="black" points="617,-302.5 617,-332.5 773,-332.5 773,-302.5 617,-302.5"/>
<text text-anchor="start" x="625" y="-320.5" font-family="Helvetica,sans-Serif" font-size="10.00">backend/customer/Customer</text>
<text text-anchor="middle" x="695" y="-309.5" font-family="Helvetica,sans-Serif" font-size="10.00">Builder.h</text>
</a>
</g>
</g>
<!-- Node13&#45;&gt;Node20 -->
<g id="edge39" class="edge">
<title>Node13&#45;&gt;Node20</title>
<path fill="none" stroke="midnightblue" d="M826.28,-430.37C814.06,-421.31 799.64,-410.34 787,-400 759.25,-377.31 728.3,-349.3 710.3,-332.73"/>
<polygon fill="midnightblue" stroke="midnightblue" points="824.21,-433.2 834.34,-436.31 828.37,-427.56 824.21,-433.2"/>
</g>
<!-- Node22 -->
<g id="node22" class="node">
<title>Node22</title>
<g id="a_node22"><a xlink:href="Director_8h.html" target="_top" xlink:title="Director class for coordinating customer construction using builders and visitors.">
<polygon fill="white" stroke="black" points="723,-241 723,-260 879,-260 879,-241 723,-241"/>
<text text-anchor="middle" x="801" y="-248" font-family="Helvetica,sans-Serif" font-size="10.00">backend/customer/Director.h</text>
</a>
</g>
</g>
<!-- Node13&#45;&gt;Node22 -->
<g id="edge41" class="edge">
<title>Node13&#45;&gt;Node22</title>
<path fill="none" stroke="midnightblue" d="M835.82,-428.35C829.84,-419.95 823.76,-409.98 820,-400 801.05,-349.64 800.32,-283.63 800.74,-260.2"/>
<polygon fill="midnightblue" stroke="midnightblue" points="833.13,-430.59 841.93,-436.48 838.72,-426.38 833.13,-430.59"/>
</g>
<!-- Node32 -->
<g id="node32" class="node">
<title>Node32</title>
<g id="a_node32"><a xlink:href="CustomerVisitor_8cpp.html" target="_top" xlink:title="Implements the CustomerVisitor base class functionality.">
<polygon fill="white" stroke="black" points="829,-369.5 829,-399.5 985,-399.5 985,-369.5 829,-369.5"/>
<text text-anchor="start" x="837" y="-387.5" font-family="Helvetica,sans-Serif" font-size="10.00">backend/customer/Customer</text>
<text text-anchor="middle" x="907" y="-376.5" font-family="Helvetica,sans-Serif" font-size="10.00">Visitor.cpp</text>
</a>
</g>
</g>
<!-- Node13&#45;&gt;Node32 -->
<g id="edge40" class="edge">
<title>Node13&#45;&gt;Node32</title>
<path fill="none" stroke="midnightblue" d="M871.98,-428.45C879.77,-418.9 888.65,-408 895.52,-399.58"/>
<polygon fill="midnightblue" stroke="midnightblue" points="869.11,-426.43 865.5,-436.4 874.53,-430.86 869.11,-426.43"/>
</g>
<!-- Node33 -->
<g id="node33" class="node">
<title>Node33</title>
<g id="a_node33"><a xlink:href="VisitEasyCustomer_8h.html" target="_top" xlink:title="Visitor for creating plant recommendations for easy&#45;maintenance customers.">
<polygon fill="white" stroke="black" points="1003,-369.5 1003,-399.5 1157,-399.5 1157,-369.5 1003,-369.5"/>
<text text-anchor="start" x="1011" y="-387.5" font-family="Helvetica,sans-Serif" font-size="10.00">backend/customer/VisitEasy</text>
<text text-anchor="middle" x="1080" y="-376.5" font-family="Helvetica,sans-Serif" font-size="10.00">Customer.h</text>
</a>
</g>
</g>
<!-- Node13&#45;&gt;Node33 -->
<g id="edge42" class="edge">
<title>Node13&#45;&gt;Node33</title>
<path fill="none" stroke="midnightblue" d="M912.83,-433.58C949.54,-423.02 996.23,-409.59 1030.94,-399.61"/>
<polygon fill="midnightblue" stroke="midnightblue" points="911.4,-430.35 902.76,-436.48 913.34,-437.08 911.4,-430.35"/>
</g>
<!-- Node34 -->
<g id="node34" class="node">
<title>Node34</title>
<g id="a_node34"><a xlink:href="VisitHighCustomer_8h.html" target="_top" xlink:title="Visitor for creating plant recommendations for customers preferring challenging plants.">
<polygon fill="white" stroke="black" points="1175.5,-369.5 1175.5,-399.5 1328.5,-399.5 1328.5,-369.5 1175.5,-369.5"/>
<text text-anchor="start" x="1183.5" y="-387.5" font-family="Helvetica,sans-Serif" font-size="10.00">backend/customer/VisitHigh</text>
<text text-anchor="middle" x="1252" y="-376.5" font-family="Helvetica,sans-Serif" font-size="10.00">Customer.h</text>
</a>
</g>
</g>
<!-- Node13&#45;&gt;Node34 -->
<g id="edge43" class="edge">
<title>Node13&#45;&gt;Node34</title>
<path fill="none" stroke="midnightblue" d="M942.45,-436.34C1004.93,-426.3 1090.61,-412.46 1166,-400 1168.99,-399.51 1172.03,-399 1175.11,-398.49"/>
<polygon fill="midnightblue" stroke="midnightblue" points="941.56,-432.94 932.24,-437.98 942.67,-439.85 941.56,-432.94"/>
</g>
<!-- Node35 -->
<g id="node35" class="node">
<title>Node35</title>
<g id="a_node35"><a xlink:href="VisitMediumCustomer_8h_source.html" target="_top" xlink:title=" ">
<polygon fill="white" stroke="black" points="1347,-369.5 1347,-399.5 1517,-399.5 1517,-369.5 1347,-369.5"/>
<text text-anchor="start" x="1355" y="-387.5" font-family="Helvetica,sans-Serif" font-size="10.00">backend/customer/VisitMedium</text>
<text text-anchor="middle" x="1432" y="-376.5" font-family="Helvetica,sans-Serif" font-size="10.00">Customer.h</text>
</a>
</g>
</g>
<!-- Node13&#45;&gt;Node35 -->
<g id="edge44" class="edge">
<title>Node13&#45;&gt;Node35</title>
<path fill="none" stroke="midnightblue" d="M942.17,-442.61C1039.29,-433.62 1200.03,-417.83 1338,-400 1340.95,-399.62 1343.95,-399.22 1346.97,-398.81"/>
<polygon fill="midnightblue" stroke="midnightblue" points="941.73,-439.14 932.1,-443.54 942.38,-446.11 941.73,-439.14"/>
</g>
<!-- Node14&#45;&gt;Node4 -->
<g id="edge38" class="edge">
<title>Node14&#45;&gt;Node4</title>
<path fill="none" stroke="midnightblue" d="M560.67,-377.19C459.21,-369.35 303.28,-354.33 248,-333 236.4,-328.53 170.88,-280.37 143.76,-260.25"/>
<polygon fill="midnightblue" stroke="midnightblue" points="560.68,-380.7 570.92,-377.97 561.22,-373.72 560.68,-380.7"/>
</g>
<!-- Node15 -->
<g id="node15" class="node">
<title>Node15</title>
<g id="a_node15"><a xlink:href="AverageCustomer_8h.html" target="_top" xlink:title="Concrete customer class representing moderately experienced plant buyers.">
<polygon fill="white" stroke="black" points="256.5,-302.5 256.5,-332.5 405.5,-332.5 405.5,-302.5 256.5,-302.5"/>
<text text-anchor="start" x="264.5" y="-320.5" font-family="Helvetica,sans-Serif" font-size="10.00">backend/customer/Average</text>
<text text-anchor="middle" x="331" y="-309.5" font-family="Helvetica,sans-Serif" font-size="10.00">Customer.h</text>
</a>
</g>
</g>
<!-- Node14&#45;&gt;Node15 -->
<g id="edge17" class="edge">
<title>Node14&#45;&gt;Node15</title>
<path fill="none" stroke="midnightblue" d="M600.45,-372.89C546.01,-361.9 460.67,-344.68 400.65,-332.56"/>
<polygon fill="midnightblue" stroke="midnightblue" points="600.08,-376.39 610.57,-374.94 601.46,-369.53 600.08,-376.39"/>
</g>
<!-- Node19 -->
<g id="node19" class="node">
<title>Node19</title>
<g id="a_node19"><a xlink:href="Customer_8cpp.html" target="_top" xlink:title="Implements the functionality defined in the Customer class.">
<polygon fill="white" stroke="black" points="423,-308 423,-327 599,-327 599,-308 423,-308"/>
<text text-anchor="middle" x="511" y="-315" font-family="Helvetica,sans-Serif" font-size="10.00">backend/customer/Customer.cpp</text>
</a>
</g>
</g>
<!-- Node14&#45;&gt;Node19 -->
<g id="edge21" class="edge">
<title>Node14&#45;&gt;Node19</title>
<path fill="none" stroke="midnightblue" d="M624.85,-370.61C596.72,-357.74 554.27,-338.31 529.93,-327.17"/>
<polygon fill="midnightblue" stroke="midnightblue" points="623.59,-373.89 634.14,-374.87 626.51,-367.52 623.59,-373.89"/>
</g>
<!-- Node14&#45;&gt;Node20 -->
<g id="edge22" class="edge">
<title>Node14&#45;&gt;Node20</title>
<path fill="none" stroke="midnightblue" d="M664.29,-366.03C671.06,-355.56 679.56,-342.4 685.9,-332.59"/>
<polygon fill="midnightblue" stroke="midnightblue" points="661.15,-364.44 658.66,-374.73 667.03,-368.23 661.15,-364.44"/>
</g>
<!-- Node28 -->
<g id="node28" class="node">
<title>Node28</title>
<g id="a_node28"><a xlink:href="GreenFingerCustomer_8h.html" target="_top" xlink:title="Concrete customer class representing expert plant enthusiasts.">
<polygon fill="white" stroke="black" points="897,-302.5 897,-332.5 1065,-332.5 1065,-302.5 897,-302.5"/>
<text text-anchor="start" x="905" y="-320.5" font-family="Helvetica,sans-Serif" font-size="10.00">backend/customer/GreenFinger</text>
<text text-anchor="middle" x="981" y="-309.5" font-family="Helvetica,sans-Serif" font-size="10.00">Customer.h</text>
</a>
</g>
</g>
<!-- Node14&#45;&gt;Node28 -->
<g id="edge32" class="edge">
<title>Node14&#45;&gt;Node28</title>
<path fill="none" stroke="midnightblue" d="M706.19,-372.96C761.62,-361.98 848.79,-344.7 910.06,-332.56"/>
<polygon fill="midnightblue" stroke="midnightblue" points="705.35,-369.56 696.22,-374.94 706.71,-376.42 705.35,-369.56"/>
</g>
<!-- Node30 -->
<g id="node30" class="node">
<title>Node30</title>
<g id="a_node30"><a xlink:href="IgnorantCustomer_8h.html" target="_top" xlink:title="Concrete customer class representing inexperienced plant buyers.">
<polygon fill="white" stroke="black" points="1082.5,-302.5 1082.5,-332.5 1231.5,-332.5 1231.5,-302.5 1082.5,-302.5"/>
<text text-anchor="start" x="1090.5" y="-320.5" font-family="Helvetica,sans-Serif" font-size="10.00">backend/customer/Ignorant</text>
<text text-anchor="middle" x="1157" y="-309.5" font-family="Helvetica,sans-Serif" font-size="10.00">Customer.h</text>
</a>
</g>
</g>
<!-- Node14&#45;&gt;Node30 -->
<g id="edge35" class="edge">
<title>Node14&#45;&gt;Node30</title>
<path fill="none" stroke="midnightblue" d="M745.25,-373.87C830.67,-364.62 961.15,-349.61 1074,-333 1076.75,-332.6 1079.55,-332.17 1082.37,-331.73"/>
<polygon fill="midnightblue" stroke="midnightblue" points="744.63,-370.42 735.06,-374.97 745.38,-377.38 744.63,-370.42"/>
</g>
<!-- Node16 -->
<g id="node16" class="node">
<title>Node16</title>
<g id="a_node16"><a xlink:href="AverageCustomer_8cpp.html" target="_top" xlink:title="Implements the functionality defined in the AverageCustomer class.">
<polygon fill="white" stroke="black" points="214.5,-235.5 214.5,-265.5 363.5,-265.5 363.5,-235.5 214.5,-235.5"/>
<text text-anchor="start" x="222.5" y="-253.5" font-family="Helvetica,sans-Serif" font-size="10.00">backend/customer/Average</text>
<text text-anchor="middle" x="289" y="-242.5" font-family="Helvetica,sans-Serif" font-size="10.00">Customer.cpp</text>
</a>
</g>
</g>
<!-- Node15&#45;&gt;Node16 -->
<g id="edge18" class="edge">
<title>Node15&#45;&gt;Node16</title>
<path fill="none" stroke="midnightblue" d="M316.38,-293.87C310.3,-284.46 303.43,-273.83 298.1,-265.58"/>
<polygon fill="midnightblue" stroke="midnightblue" points="313.52,-295.9 321.89,-302.4 319.4,-292.1 313.52,-295.9"/>
</g>
<!-- Node17 -->
<g id="node17" class="node">
<title>Node17</title>
<g id="a_node17"><a xlink:href="AverageCustomerBuilder_8h.html" target="_top" xlink:title="Builder class for creating AverageCustomer objects with randomized dialogues.">
<polygon fill="white" stroke="black" points="381.5,-235.5 381.5,-265.5 530.5,-265.5 530.5,-235.5 381.5,-235.5"/>
<text text-anchor="start" x="389.5" y="-253.5" font-family="Helvetica,sans-Serif" font-size="10.00">backend/customer/Average</text>
<text text-anchor="middle" x="456" y="-242.5" font-family="Helvetica,sans-Serif" font-size="10.00">CustomerBuilder.h</text>
</a>
</g>
</g>
<!-- Node15&#45;&gt;Node17 -->
<g id="edge19" class="edge">
<title>Node15&#45;&gt;Node17</title>
<path fill="none" stroke="midnightblue" d="M367.13,-297.71C386.84,-287.46 410.84,-274.98 428.93,-265.58"/>
<polygon fill="midnightblue" stroke="midnightblue" points="365.38,-294.68 358.12,-302.4 368.61,-300.89 365.38,-294.68"/>
</g>
<!-- Node18 -->
<g id="node18" class="node">
<title>Node18</title>
<g id="a_node18"><a xlink:href="AverageCustomerBuilder_8cpp.html" target="_top" xlink:title="Implements the AverageCustomerBuilder class functionality.">
<polygon fill="white" stroke="black" points="381.5,-168.5 381.5,-198.5 530.5,-198.5 530.5,-168.5 381.5,-168.5"/>
<text text-anchor="start" x="389.5" y="-186.5" font-family="Helvetica,sans-Serif" font-size="10.00">backend/customer/Average</text>
<text text-anchor="middle" x="456" y="-175.5" font-family="Helvetica,sans-Serif" font-size="10.00">CustomerBuilder.cpp</text>
</a>
</g>
</g>
<!-- Node17&#45;&gt;Node18 -->
<g id="edge20" class="edge">
<title>Node17&#45;&gt;Node18</title>
<path fill="none" stroke="midnightblue" d="M456,-225.11C456,-216.15 456,-206.32 456,-198.58"/>
<polygon fill="midnightblue" stroke="midnightblue" points="452.5,-225.4 456,-235.4 459.5,-225.4 452.5,-225.4"/>
</g>
<!-- Node20&#45;&gt;Node4 -->
<g id="edge31" class="edge">
<title>Node20&#45;&gt;Node4</title>
<path fill="none" stroke="midnightblue" d="M606.8,-301.91C428.35,-279.66 380.38,-290.82 206,-266 194.72,-264.39 182.57,-262.21 171.43,-260.02"/>
<polygon fill="midnightblue" stroke="midnightblue" points="606.43,-305.39 616.79,-303.18 607.3,-298.45 606.43,-305.39"/>
</g>
<!-- Node20&#45;&gt;Node17 -->
<g id="edge23" class="edge">
<title>Node20&#45;&gt;Node17</title>
<path fill="none" stroke="midnightblue" d="M633.78,-299.85C594.81,-289.25 544.9,-275.68 507.88,-265.61"/>
<polygon fill="midnightblue" stroke="midnightblue" points="632.87,-303.23 643.43,-302.48 634.7,-296.47 632.87,-303.23"/>
</g>
<!-- Node21 -->
<g id="node21" class="node">
<title>Node21</title>
<g id="a_node21"><a xlink:href="CustomerBuilder_8cpp.html" target="_top" xlink:title="Implements the CustomerBuilder base class functionality.">
<polygon fill="white" stroke="black" points="549,-235.5 549,-265.5 705,-265.5 705,-235.5 549,-235.5"/>
<text text-anchor="start" x="557" y="-253.5" font-family="Helvetica,sans-Serif" font-size="10.00">backend/customer/Customer</text>
<text text-anchor="middle" x="627" y="-242.5" font-family="Helvetica,sans-Serif" font-size="10.00">Builder.cpp</text>
</a>
</g>
</g>
<!-- Node20&#45;&gt;Node21 -->
<g id="edge24" class="edge">
<title>Node20&#45;&gt;Node21</title>
<path fill="none" stroke="midnightblue" d="M672.83,-295.31C662.63,-285.56 650.81,-274.26 641.73,-265.58"/>
<polygon fill="midnightblue" stroke="midnightblue" points="670.6,-298.02 680.25,-302.4 675.43,-292.96 670.6,-298.02"/>
</g>
<!-- Node20&#45;&gt;Node22 -->
<g id="edge25" class="edge">
<title>Node20&#45;&gt;Node22</title>
<path fill="none" stroke="midnightblue" d="M726.57,-297.14C746.72,-284.79 771.83,-269.39 787.13,-260.01"/>
<polygon fill="midnightblue" stroke="midnightblue" points="724.7,-294.18 718,-302.4 728.35,-300.15 724.7,-294.18"/>
</g>
<!-- Node24 -->
<g id="node24" class="node">
<title>Node24</title>
<g id="a_node24"><a xlink:href="GreenFingerCustomerBuilder_8h.html" target="_top" xlink:title="Builder class for creating GreenFingerCustomer objects with randomized dialogues.">
<polygon fill="white" stroke="black" points="897,-235.5 897,-265.5 1065,-265.5 1065,-235.5 897,-235.5"/>
<text text-anchor="start" x="905" y="-253.5" font-family="Helvetica,sans-Serif" font-size="10.00">backend/customer/GreenFinger</text>
<text text-anchor="middle" x="981" y="-242.5" font-family="Helvetica,sans-Serif" font-size="10.00">CustomerBuilder.h</text>
</a>
</g>
</g>
<!-- Node20&#45;&gt;Node24 -->
<g id="edge27" class="edge">
<title>Node20&#45;&gt;Node24</title>
<path fill="none" stroke="midnightblue" d="M766.49,-300.25C813.37,-289.6 874.06,-275.81 918.91,-265.61"/>
<polygon fill="midnightblue" stroke="midnightblue" points="765.68,-296.85 756.71,-302.48 767.23,-303.67 765.68,-296.85"/>
</g>
<!-- Node26 -->
<g id="node26" class="node">
<title>Node26</title>
<g id="a_node26"><a xlink:href="IgnorantCustomerBuilder_8h.html" target="_top" xlink:title="Builder class for creating IgnorantCustomer objects with randomized dialogues.">
<polygon fill="white" stroke="black" points="1082.5,-235.5 1082.5,-265.5 1231.5,-265.5 1231.5,-235.5 1082.5,-235.5"/>
<text text-anchor="start" x="1090.5" y="-253.5" font-family="Helvetica,sans-Serif" font-size="10.00">backend/customer/Ignorant</text>
<text text-anchor="middle" x="1157" y="-242.5" font-family="Helvetica,sans-Serif" font-size="10.00">CustomerBuilder.h</text>
</a>
</g>
</g>
<!-- Node20&#45;&gt;Node26 -->
<g id="edge29" class="edge">
<title>Node20&#45;&gt;Node26</title>
<path fill="none" stroke="midnightblue" d="M783.29,-305.76C860.19,-296.17 974.64,-281.29 1074,-266 1076.75,-265.58 1079.54,-265.14 1082.37,-264.69"/>
<polygon fill="midnightblue" stroke="midnightblue" points="782.65,-302.32 773.16,-307.02 783.52,-309.26 782.65,-302.32"/>
</g>
<!-- Node23 -->
<g id="node23" class="node">
<title>Node23</title>
<g id="a_node23"><a xlink:href="Director_8cpp.html" target="_top" xlink:title="Implements the Director class functionality.">
<polygon fill="white" stroke="black" points="712.5,-174 712.5,-193 879.5,-193 879.5,-174 712.5,-174"/>
<text text-anchor="middle" x="796" y="-181" font-family="Helvetica,sans-Serif" font-size="10.00">backend/customer/Director.cpp</text>
</a>
</g>
</g>
<!-- Node22&#45;&gt;Node23 -->
<g id="edge26" class="edge">
<title>Node22&#45;&gt;Node23</title>
<path fill="none" stroke="midnightblue" d="M799.54,-230.54C798.59,-218.17 797.39,-202.62 796.66,-193.13"/>
<polygon fill="midnightblue" stroke="midnightblue" points="796.07,-231.03 800.33,-240.73 803.05,-230.49 796.07,-231.03"/>
</g>
<!-- Node25 -->
<g id="node25" class="node">
<title>Node25</title>
<g id="a_node25"><a xlink:href="GreenFingerCustomerBuilder_8cpp.html" target="_top" xlink:title="Implements the GreenFingerCustomerBuilder class functionality.">
<polygon fill="white" stroke="black" points="897,-168.5 897,-198.5 1065,-198.5 1065,-168.5 897,-168.5"/>
<text text-anchor="start" x="905" y="-186.5" font-family="Helvetica,sans-Serif" font-size="10.00">backend/customer/GreenFinger</text>
<text text-anchor="middle" x="981" y="-175.5" font-family="Helvetica,sans-Serif" font-size="10.00">CustomerBuilder.cpp</text>
</a>
</g>
</g>
<!-- Node24&#45;&gt;Node25 -->
<g id="edge28" class="edge">
<title>Node24&#45;&gt;Node25</title>
<path fill="none" stroke="midnightblue" d="M981,-225.11C981,-216.15 981,-206.32 981,-198.58"/>
<polygon fill="midnightblue" stroke="midnightblue" points="977.5,-225.4 981,-235.4 984.5,-225.4 977.5,-225.4"/>
</g>
<!-- Node27 -->
<g id="node27" class="node">
<title>Node27</title>
<g id="a_node27"><a xlink:href="IgnorantCustomerBuilder_8cpp.html" target="_top" xlink:title="Implements the IgnorantCustomerBuilder class functionality.">
<polygon fill="white" stroke="black" points="1082.5,-168.5 1082.5,-198.5 1231.5,-198.5 1231.5,-168.5 1082.5,-168.5"/>
<text text-anchor="start" x="1090.5" y="-186.5" font-family="Helvetica,sans-Serif" font-size="10.00">backend/customer/Ignorant</text>
<text text-anchor="middle" x="1157" y="-175.5" font-family="Helvetica,sans-Serif" font-size="10.00">CustomerBuilder.cpp</text>
</a>
</g>
</g>
<!-- Node26&#45;&gt;Node27 -->
<g id="edge30" class="edge">
<title>Node26&#45;&gt;Node27</title>
<path fill="none" stroke="midnightblue" d="M1157,-225.11C1157,-216.15 1157,-206.32 1157,-198.58"/>
<polygon fill="midnightblue" stroke="midnightblue" points="1153.5,-225.4 1157,-235.4 1160.5,-225.4 1153.5,-225.4"/>
</g>
<!-- Node28&#45;&gt;Node24 -->
<g id="edge34" class="edge">
<title>Node28&#45;&gt;Node24</title>
<path fill="none" stroke="midnightblue" d="M981,-292.11C981,-283.15 981,-273.32 981,-265.58"/>
<polygon fill="midnightblue" stroke="midnightblue" points="977.5,-292.4 981,-302.4 984.5,-292.4 977.5,-292.4"/>
</g>
<!-- Node29 -->
<g id="node29" class="node">
<title>Node29</title>
<g id="a_node29"><a xlink:href="GreenFingerCustomer_8cpp.html" target="_top" xlink:title="Implements the functionality defined in the GreenFingerCustomer class.">
<polygon fill="white" stroke="black" points="1249,-235.5 1249,-265.5 1417,-265.5 1417,-235.5 1249,-235.5"/>
<text text-anchor="start" x="1257" y="-253.5" font-family="Helvetica,sans-Serif" font-size="10.00">backend/customer/GreenFinger</text>
<text text-anchor="middle" x="1333" y="-242.5" font-family="Helvetica,sans-Serif" font-size="10.00">Customer.cpp</text>
</a>
</g>
</g>
<!-- Node28&#45;&gt;Node29 -->
<g id="edge33" class="edge">
<title>Node28&#45;&gt;Node29</title>
<path fill="none" stroke="midnightblue" d="M1066.84,-300.65C1124.93,-289.92 1200.96,-275.88 1256.89,-265.55"/>
<polygon fill="midnightblue" stroke="midnightblue" points="1066.14,-297.22 1056.95,-302.48 1067.41,-304.1 1066.14,-297.22"/>
</g>
<!-- Node30&#45;&gt;Node26 -->
<g id="edge37" class="edge">
<title>Node30&#45;&gt;Node26</title>
<path fill="none" stroke="midnightblue" d="M1157,-292.11C1157,-283.15 1157,-273.32 1157,-265.58"/>
<polygon fill="midnightblue" stroke="midnightblue" points="1153.5,-292.4 1157,-302.4 1160.5,-292.4 1153.5,-292.4"/>
</g>
<!-- Node31 -->
<g id="node31" class="node">
<title>Node31</title>
<g id="a_node31"><a xlink:href="IgnorantCustomer_8cpp.html" target="_top" xlink:title="Implements the functionality defined in the IgnorantCustomer class.">
<polygon fill="white" stroke="black" points="1434.5,-235.5 1434.5,-265.5 1583.5,-265.5 1583.5,-235.5 1434.5,-235.5"/>
<text text-anchor="start" x="1442.5" y="-253.5" font-family="Helvetica,sans-Serif" font-size="10.00">backend/customer/Ignorant</text>
<text text-anchor="middle" x="1509" y="-242.5" font-family="Helvetica,sans-Serif" font-size="10.00">Customer.cpp</text>
</a>
</g>
</g>
<!-- Node30&#45;&gt;Node31 -->
<g id="edge36" class="edge">
<title>Node30&#45;&gt;Node31</title>
<path fill="none" stroke="midnightblue" d="M1241.65,-300.87C1300.43,-290.01 1378.02,-275.69 1434.46,-265.26"/>
<polygon fill="midnightblue" stroke="midnightblue" points="1240.85,-297.46 1231.65,-302.72 1242.12,-304.34 1240.85,-297.46"/>
</g>
<!-- Node36&#45;&gt;Node3 -->
<g id="edge46" class="edge">
<title>Node36&#45;&gt;Node3</title>
<path fill="none" stroke="midnightblue" d="M409.87,-431.71C390.16,-421.46 366.16,-408.98 348.07,-399.58"/>
<polygon fill="midnightblue" stroke="midnightblue" points="408.39,-434.89 418.88,-436.4 411.62,-428.68 408.39,-434.89"/>
</g>
</g>
</svg>
        <g id="navigator" transform="translate(0 0)" fill="#404254">
                <rect fill="#f2f5e9" fill-opacity="0.5" stroke="#606060" stroke-width=".5" x="0" y="0" width="60" height="60"/>
                <use id="zoomplus" xlink:href="#zoomPlus" x="17" y="9" onmousedown="handleZoom(evt,'in')"/>
                <use id="zoomminus" xlink:href="#zoomMin" x="42" y="9" onmousedown="handleZoom(evt,'out')"/>
                <use id="reset" xlink:href="#resetDef" x="30" y="36" onmousedown="handleReset()"/>
                <g id="arrowUp" xlink:href="#dirArrow" transform="translate(30 24)" onmousedown="handlePan(0,-1)">
                  <use xlink:href="#rim" fill="#404040">
                        <set attributeName="fill" to="#808080" begin="arrowUp.mouseover" end="arrowUp.mouseout"/>
                  </use>
                  <path fill="none" stroke="white" stroke-width="1.5" d="M0,-3.0v7 M-2.5,-0.5L0,-3.0L2.5,-0.5"/>
                </g>
                <g id="arrowRight" xlink:href="#dirArrow" transform="rotate(90) translate(36 -43)" onmousedown="handlePan(1,0)">
                  <use xlink:href="#rim" fill="#404040">
                        <set attributeName="fill" to="#808080" begin="arrowRight.mouseover" end="arrowRight.mouseout"/>
                  </use>
                  <path fill="none" stroke="white" stroke-width="1.5" d="M0,-3.0v7 M-2.5,-0.5L0,-3.0L2.5,-0.5"/>
                </g>
                <g id="arrowDown" xlink:href="#dirArrow" transform="rotate(180) translate(-30 -48)" onmousedown="handlePan(0,1)">
                  <use xlink:href="#rim" fill="#404040">
                        <set attributeName="fill" to="#808080" begin="arrowDown.mouseover" end="arrowDown.mouseout"/>
                  </use>
                  <path fill="none" stroke="white" stroke-width="1.5" d="M0,-3.0v7 M-2.5,-0.5L0,-3.0L2.5,-0.5"/>
                </g>
                <g id="arrowLeft" xlink:href="#dirArrow" transform="rotate(270) translate(-36 17)" onmousedown="handlePan(-1,0)">
                  <use xlink:href="#rim" fill="#404040">
                        <set attributeName="fill" to="#808080" begin="arrowLeft.mouseover" end="arrowLeft.mouseout"/>
                  </use>
                  <path fill="none" stroke="white" stroke-width="1.5" d="M0,-3.0v7 M-2.5,-0.5L0,-3.0L2.5,-0.5"/>
                </g>
        </g>
        <svg viewBox="0 0 15 15" width="100%" height="30px" preserveAspectRatio="xMaxYMin meet">
         <g id="arrow_out" transform="scale(0.3 0.3)">
          <a xlink:href="Ledger_8h__dep__incl_org.svg" target="_base">
           <rect id="button" ry="5" rx="5" y="6" x="6" height="38" width="38"
                fill="#f2f5e9" fill-opacity="0.5" stroke="#606060" stroke-width="1.0"/>
           <path id="arrow"
             d="M 11.500037,31.436501 C 11.940474,20.09759 22.043105,11.32322 32.158766,21.979434 L 37.068811,17.246167 C 37.068811,17.246167 37.088388,32 37.088388,32 L 22.160133,31.978069 C 22.160133,31.978069 26.997745,27.140456 26.997745,27.140456 C 18.528582,18.264221 13.291696,25.230495 11.500037,31.436501 z"
             style="fill:#404040;"/>
          </a>
         </g>
        </svg>
</svg>
