<?xml version="1.0" encoding="UTF-8" standalone="no"?>
<!DOCTYPE svg PUBLIC "-//W3C//DTD SVG 1.1//EN"
 "http://www.w3.org/Graphics/SVG/1.1/DTD/svg11.dtd">
<!-- Generated by graphviz version 2.43.0 (0)
 -->
<!-- Title: backend/greenhouse/Manager.h Pages: 1 -->
<!--zoomable 442 -->
<svg id="main" version="1.1" xmlns="http://www.w3.org/2000/svg" xmlns:xlink="http://www.w3.org/1999/xlink" xml:space="preserve" onload="init(evt)">
<style type="text/css"><![CDATA[
.edge:hover path { stroke: red; }
.edge:hover polygon { stroke: red; fill: red; }
]]></style>
<script type="text/javascript"><![CDATA[
var edges = document.getElementsByTagName('g');
if (edges && edges.length) {
  for (var i=0;i<edges.length;i++) {
    if (edges[i].id.substr(0,4)=='edge') {
      edges[i].setAttribute('class','edge');
    }
  }
}
]]></script>
        <defs>
                <circle id="rim" cx="0" cy="0" r="7"/>
                <circle id="rim2" cx="0" cy="0" r="3.5"/>
                <g id="zoomPlus">
                        <use xlink:href="#rim" fill="#404040">
                                <set attributeName="fill" to="#808080" begin="zoomplus.mouseover" end="zoomplus.mouseout"/>
                        </use>
                        <path d="M-4,0h8M0,-4v8" fill="none" stroke="white" stroke-width="1.5" pointer-events="none"/>
                </g>
                <g id="zoomMin">
                        <use xlink:href="#rim" fill="#404040">
                                <set attributeName="fill" to="#808080" begin="zoomminus.mouseover" end="zoomminus.mouseout"/>
                        </use>
                        <path d="M-4,0h8" fill="none" stroke="white" stroke-width="1.5" pointer-events="none"/>
                </g>
                <g id="dirArrow">
                        <path fill="none" stroke="white" stroke-width="1.5" d="M0,-3.0v7 M-2.5,-0.5L0,-3.0L2.5,-0.5"/>
                </g>
               <g id="resetDef">
                       <use xlink:href="#rim2" fill="#404040">
                               <set attributeName="fill" to="#808080" begin="reset.mouseover" end="reset.mouseout"/>
                       </use>
               </g>
        </defs>

<script type="text/javascript">
var viewWidth = 2322;
var viewHeight = 442;
var sectionId = 'dynsection-0';
</script>
<script xlink:href="svgpan.js"/>
<svg id="graph" class="graph">
<g id="viewport">
<title>backend/greenhouse/Manager.h</title>
<polygon fill="white" stroke="transparent" points="-4,4 -4,-438 2318,-438 2318,4 -4,4"/>
<!-- Node1 -->
<g id="node1" class="node">
<title>Node1</title>
<g id="a_node1"><a xlink:title="Manager class for coordinating plant sales and customer interactions.">
<polygon fill="#bfbfbf" stroke="black" points="1867.5,-403.5 1867.5,-433.5 1984.5,-433.5 1984.5,-403.5 1867.5,-403.5"/>
<text text-anchor="start" x="1875.5" y="-421.5" font-family="Helvetica,sans-Serif" font-size="10.00">backend/greenhouse</text>
<text text-anchor="middle" x="1926" y="-410.5" font-family="Helvetica,sans-Serif" font-size="10.00">/Manager.h</text>
</a>
</g>
</g>
<!-- Node2 -->
<g id="node2" class="node">
<title>Node2</title>
<g id="a_node2"><a xlink:href="SalesFloor_8h.html" target="_top" xlink:title="Sales floor management for customer interactions and plant sales.">
<polygon fill="white" stroke="black" points="1886,-291.5 1886,-310.5 1962,-310.5 1962,-291.5 1886,-291.5"/>
<text text-anchor="middle" x="1924" y="-298.5" font-family="Helvetica,sans-Serif" font-size="10.00">SalesFloor.h</text>
</a>
</g>
</g>
<!-- Node1&#45;&gt;Node2 -->
<g id="edge1" class="edge">
<title>Node1&#45;&gt;Node2</title>
<path fill="none" stroke="midnightblue" d="M1925.75,-403.34C1925.4,-382.62 1924.73,-344.02 1924.33,-320.9"/>
<polygon fill="midnightblue" stroke="midnightblue" points="1927.82,-320.61 1924.15,-310.67 1920.82,-320.73 1927.82,-320.61"/>
</g>
<!-- Node5 -->
<g id="node5" class="node">
<title>Node5</title>
<g id="a_node5"><a xlink:title=" ">
<polygon fill="white" stroke="#bfbfbf" points="308,-6 308,-25 352,-25 352,-6 308,-6"/>
<text text-anchor="middle" x="330" y="-13" font-family="Helvetica,sans-Serif" font-size="10.00">string</text>
</a>
</g>
</g>
<!-- Node1&#45;&gt;Node5 -->
<g id="edge79" class="edge">
<title>Node1&#45;&gt;Node5</title>
<path fill="none" stroke="midnightblue" d="M1867.31,-417.12C1544.53,-414.68 0,-397.99 0,-302 0,-302 0,-302 0,-132 0,-69.34 214.62,-32.63 297.7,-20.76"/>
<polygon fill="midnightblue" stroke="midnightblue" points="298.42,-24.2 307.84,-19.35 297.45,-17.26 298.42,-24.2"/>
</g>
<!-- Node7 -->
<g id="node7" class="node">
<title>Node7</title>
<g id="a_node7"><a xlink:title=" ">
<polygon fill="white" stroke="#bfbfbf" points="2124.5,-67.5 2124.5,-86.5 2171.5,-86.5 2171.5,-67.5 2124.5,-67.5"/>
<text text-anchor="middle" x="2148" y="-74.5" font-family="Helvetica,sans-Serif" font-size="10.00">vector</text>
</a>
</g>
</g>
<!-- Node1&#45;&gt;Node7 -->
<g id="edge78" class="edge">
<title>Node1&#45;&gt;Node7</title>
<path fill="none" stroke="midnightblue" d="M1984.68,-408.1C2075.06,-391.95 2238,-355.43 2238,-302 2238,-302 2238,-302 2238,-188 2238,-145.66 2197.56,-110.66 2170.9,-92.18"/>
<polygon fill="midnightblue" stroke="midnightblue" points="2172.72,-89.19 2162.46,-86.56 2168.84,-95.02 2172.72,-89.19"/>
</g>
<!-- Node8 -->
<g id="node8" class="node">
<title>Node8</title>
<g id="a_node8"><a xlink:title=" ">
<polygon fill="white" stroke="#bfbfbf" points="2228,-67.5 2228,-86.5 2292,-86.5 2292,-67.5 2228,-67.5"/>
<text text-anchor="middle" x="2260" y="-74.5" font-family="Helvetica,sans-Serif" font-size="10.00">algorithm</text>
</a>
</g>
</g>
<!-- Node1&#45;&gt;Node8 -->
<g id="edge80" class="edge">
<title>Node1&#45;&gt;Node8</title>
<path fill="none" stroke="midnightblue" d="M1984.51,-412.32C2092.9,-401.11 2314,-369.91 2314,-302 2314,-302 2314,-302 2314,-244 2314,-187.61 2285.47,-125.5 2269.89,-95.77"/>
<polygon fill="midnightblue" stroke="midnightblue" points="2272.81,-93.81 2264.98,-86.67 2266.65,-97.13 2272.81,-93.81"/>
</g>
<!-- Node26 -->
<g id="node26" class="node">
<title>Node26</title>
<g id="a_node26"><a xlink:href="Ledger_8h.html" target="_top" xlink:title="Financial ledger for tracking game balance.">
<polygon fill="white" stroke="black" points="1962,-179.5 1962,-198.5 2020,-198.5 2020,-179.5 1962,-179.5"/>
<text text-anchor="middle" x="1991" y="-186.5" font-family="Helvetica,sans-Serif" font-size="10.00">Ledger.h</text>
</a>
</g>
</g>
<!-- Node1&#45;&gt;Node26 -->
<g id="edge45" class="edge">
<title>Node1&#45;&gt;Node26</title>
<path fill="none" stroke="midnightblue" d="M1933.22,-403.42C1943.19,-383.4 1961.06,-345.32 1971,-311 1981.23,-275.67 1986.76,-232.93 1989.27,-208.86"/>
<polygon fill="midnightblue" stroke="midnightblue" points="1992.78,-208.96 1990.28,-198.66 1985.82,-208.27 1992.78,-208.96"/>
</g>
<!-- Node28 -->
<g id="node28" class="node">
<title>Node28</title>
<g id="a_node28"><a xlink:href="Transaction_8h.html" target="_top" xlink:title="Represents a financial transaction in the system.">
<polygon fill="white" stroke="black" points="247.5,-235.5 247.5,-254.5 328.5,-254.5 328.5,-235.5 247.5,-235.5"/>
<text text-anchor="middle" x="288" y="-242.5" font-family="Helvetica,sans-Serif" font-size="10.00">Transaction.h</text>
</a>
</g>
</g>
<!-- Node1&#45;&gt;Node28 -->
<g id="edge46" class="edge">
<title>Node1&#45;&gt;Node28</title>
<path fill="none" stroke="midnightblue" d="M1867.22,-411.35C1609.34,-384.35 580.24,-276.6 338.86,-251.32"/>
<polygon fill="midnightblue" stroke="midnightblue" points="338.93,-247.81 328.62,-250.25 338.2,-254.78 338.93,-247.81"/>
</g>
<!-- Node33 -->
<g id="node33" class="node">
<title>Node33</title>
<g id="a_node33"><a xlink:href="Greenhouse_8h.html" target="_top" xlink:title="Main greenhouse class managing plant inventory and staff.">
<polygon fill="white" stroke="black" points="1814,-347.5 1814,-366.5 1898,-366.5 1898,-347.5 1814,-347.5"/>
<text text-anchor="middle" x="1856" y="-354.5" font-family="Helvetica,sans-Serif" font-size="10.00">Greenhouse.h</text>
</a>
</g>
</g>
<!-- Node1&#45;&gt;Node33 -->
<g id="edge62" class="edge">
<title>Node1&#45;&gt;Node33</title>
<path fill="none" stroke="midnightblue" d="M1909.41,-403.4C1898.71,-394.31 1884.81,-382.49 1873.87,-373.19"/>
<polygon fill="midnightblue" stroke="midnightblue" points="1876.07,-370.47 1866.19,-366.66 1871.54,-375.8 1876.07,-370.47"/>
</g>
<!-- Node3 -->
<g id="node3" class="node">
<title>Node3</title>
<g id="a_node3"><a xlink:href="Inventory_8h.html" target="_top" xlink:title="Inventory management for plants in greenhouse and sales floor.">
<polygon fill="white" stroke="black" points="1872.5,-179.5 1872.5,-198.5 1943.5,-198.5 1943.5,-179.5 1872.5,-179.5"/>
<text text-anchor="middle" x="1908" y="-186.5" font-family="Helvetica,sans-Serif" font-size="10.00">Inventory.h</text>
</a>
</g>
</g>
<!-- Node2&#45;&gt;Node3 -->
<g id="edge2" class="edge">
<title>Node2&#45;&gt;Node3</title>
<path fill="none" stroke="midnightblue" d="M1922.74,-291.37C1920.16,-273.62 1914.21,-232.67 1910.71,-208.6"/>
<polygon fill="midnightblue" stroke="midnightblue" points="1914.15,-207.98 1909.25,-198.59 1907.23,-208.99 1914.15,-207.98"/>
</g>
<!-- Node2&#45;&gt;Node7 -->
<g id="edge42" class="edge">
<title>Node2&#45;&gt;Node7</title>
<path fill="none" stroke="midnightblue" d="M1962.43,-297.63C2018.71,-293.29 2119.33,-281.88 2142,-255 2180.27,-209.61 2164.22,-131.99 2154.02,-96.58"/>
<polygon fill="midnightblue" stroke="midnightblue" points="2157.26,-95.21 2150.99,-86.67 2150.57,-97.25 2157.26,-95.21"/>
</g>
<!-- Node21 -->
<g id="node21" class="node">
<title>Node21</title>
<g id="a_node21"><a xlink:title=" ">
<polygon fill="white" stroke="#bfbfbf" points="2032.5,-6 2032.5,-25 2097.5,-25 2097.5,-6 2032.5,-6"/>
<text text-anchor="middle" x="2065" y="-13" font-family="Helvetica,sans-Serif" font-size="10.00">stdexcept</text>
</a>
</g>
</g>
<!-- Node2&#45;&gt;Node21 -->
<g id="edge44" class="edge">
<title>Node2&#45;&gt;Node21</title>
<path fill="none" stroke="midnightblue" d="M1962.4,-300.63C2012.09,-299.77 2099.78,-292.43 2163,-255 2246.14,-205.77 2268.43,-177.97 2301,-87 2304,-78.63 2306.59,-73.91 2301,-67 2277.15,-37.51 2169.02,-24.48 2107.73,-19.37"/>
<polygon fill="midnightblue" stroke="midnightblue" points="2107.84,-15.87 2097.59,-18.56 2107.28,-22.84 2107.84,-15.87"/>
</g>
<!-- Node24 -->
<g id="node24" class="node">
<title>Node24</title>
<g id="a_node24"><a xlink:href="TransactionHistory_8h.html" target="_top" xlink:title="Maintains history of financial transactions.">
<polygon fill="white" stroke="black" points="2018.5,-235.5 2018.5,-254.5 2133.5,-254.5 2133.5,-235.5 2018.5,-235.5"/>
<text text-anchor="middle" x="2076" y="-242.5" font-family="Helvetica,sans-Serif" font-size="10.00">TransactionHistory.h</text>
</a>
</g>
</g>
<!-- Node2&#45;&gt;Node24 -->
<g id="edge30" class="edge">
<title>Node2&#45;&gt;Node24</title>
<path fill="none" stroke="midnightblue" d="M1948.08,-291.44C1973.54,-282.4 2013.89,-268.06 2042.46,-257.92"/>
<polygon fill="midnightblue" stroke="midnightblue" points="2043.78,-261.16 2052.03,-254.52 2041.43,-254.57 2043.78,-261.16"/>
</g>
<!-- Node2&#45;&gt;Node26 -->
<g id="edge41" class="edge">
<title>Node2&#45;&gt;Node26</title>
<path fill="none" stroke="midnightblue" d="M1929.26,-291.37C1940.27,-273.3 1965.92,-231.18 1980.46,-207.31"/>
<polygon fill="midnightblue" stroke="midnightblue" points="1983.55,-208.95 1985.77,-198.59 1977.58,-205.31 1983.55,-208.95"/>
</g>
<!-- Node27 -->
<g id="node27" class="node">
<title>Node27</title>
<g id="a_node27"><a xlink:title=" ">
<polygon fill="white" stroke="#bfbfbf" points="726,-67.5 726,-86.5 780,-86.5 780,-67.5 726,-67.5"/>
<text text-anchor="middle" x="753" y="-74.5" font-family="Helvetica,sans-Serif" font-size="10.00">random</text>
</a>
</g>
</g>
<!-- Node2&#45;&gt;Node27 -->
<g id="edge43" class="edge">
<title>Node2&#45;&gt;Node27</title>
<path fill="none" stroke="midnightblue" d="M1885.89,-294.14C1742.45,-271.83 1221.49,-188.39 790.05,-88.12"/>
<polygon fill="midnightblue" stroke="midnightblue" points="790.72,-84.69 780.19,-85.83 789.14,-91.5 790.72,-84.69"/>
</g>
<!-- Node4 -->
<g id="node4" class="node">
<title>Node4</title>
<g id="a_node4"><a xlink:href="Plant_8h.html" target="_top" xlink:title="Defines the abstract base class for all Plant objects used in the system.">
<polygon fill="white" stroke="black" points="1321,-123.5 1321,-142.5 1371,-142.5 1371,-123.5 1321,-123.5"/>
<text text-anchor="middle" x="1346" y="-130.5" font-family="Helvetica,sans-Serif" font-size="10.00">Plant.h</text>
</a>
</g>
</g>
<!-- Node3&#45;&gt;Node4 -->
<g id="edge3" class="edge">
<title>Node3&#45;&gt;Node4</title>
<path fill="none" stroke="midnightblue" d="M1872.42,-184.58C1771.05,-174.84 1481.58,-147.03 1380.97,-137.36"/>
<polygon fill="midnightblue" stroke="midnightblue" points="1381.3,-133.88 1371.02,-136.4 1380.63,-140.84 1381.3,-133.88"/>
</g>
<!-- Node3&#45;&gt;Node5 -->
<g id="edge29" class="edge">
<title>Node3&#45;&gt;Node5</title>
<path fill="none" stroke="midnightblue" d="M1872.36,-188.23C1691.04,-189.18 869.72,-190.71 620,-143 513.75,-122.7 399.35,-58.77 352.22,-30.35"/>
<polygon fill="midnightblue" stroke="midnightblue" points="353.82,-27.23 343.46,-25.01 350.18,-33.21 353.82,-27.23"/>
</g>
<!-- Node3&#45;&gt;Node7 -->
<g id="edge28" class="edge">
<title>Node3&#45;&gt;Node7</title>
<path fill="none" stroke="midnightblue" d="M1926.83,-179.37C1968.89,-160.09 2070.65,-113.45 2120.1,-90.79"/>
<polygon fill="midnightblue" stroke="midnightblue" points="2121.62,-93.94 2129.26,-86.59 2118.71,-87.58 2121.62,-93.94"/>
</g>
<!-- Node4&#45;&gt;Node5 -->
<g id="edge4" class="edge">
<title>Node4&#45;&gt;Node5</title>
<path fill="none" stroke="midnightblue" d="M1320.72,-131.13C1230.02,-127.81 921.38,-114.7 827,-87 808.69,-81.63 807.25,-72.59 789,-67 634.47,-19.7 438.7,-15.58 362.45,-15.96"/>
<polygon fill="midnightblue" stroke="midnightblue" points="362.06,-12.47 352.09,-16.05 362.12,-19.47 362.06,-12.47"/>
</g>
<!-- Node6 -->
<g id="node6" class="node">
<title>Node6</title>
<g id="a_node6"><a xlink:title=" ">
<polygon fill="white" stroke="#bfbfbf" points="1360,-67.5 1360,-86.5 1398,-86.5 1398,-67.5 1360,-67.5"/>
<text text-anchor="middle" x="1379" y="-74.5" font-family="Helvetica,sans-Serif" font-size="10.00">map</text>
</a>
</g>
</g>
<!-- Node4&#45;&gt;Node6 -->
<g id="edge5" class="edge">
<title>Node4&#45;&gt;Node6</title>
<path fill="none" stroke="midnightblue" d="M1351.45,-123.08C1356.01,-115.61 1362.67,-104.72 1368.29,-95.52"/>
<polygon fill="midnightblue" stroke="midnightblue" points="1371.42,-97.11 1373.65,-86.75 1365.45,-93.46 1371.42,-97.11"/>
</g>
<!-- Node4&#45;&gt;Node7 -->
<g id="edge6" class="edge">
<title>Node4&#45;&gt;Node7</title>
<path fill="none" stroke="midnightblue" d="M1371.3,-131.04C1464.98,-127.34 1801.03,-112.96 2077,-87 2089.25,-85.85 2102.64,-84.24 2114.46,-82.7"/>
<polygon fill="midnightblue" stroke="midnightblue" points="2114.93,-86.17 2124.38,-81.38 2114,-79.23 2114.93,-86.17"/>
</g>
<!-- Node4&#45;&gt;Node8 -->
<g id="edge7" class="edge">
<title>Node4&#45;&gt;Node8</title>
<path fill="none" stroke="midnightblue" d="M1371.28,-131.17C1472.9,-127.73 1861.37,-113.5 2180,-87 2192.17,-85.99 2205.36,-84.62 2217.45,-83.25"/>
<polygon fill="midnightblue" stroke="midnightblue" points="2218.2,-86.69 2227.73,-82.06 2217.4,-79.73 2218.2,-86.69"/>
</g>
<!-- Node9 -->
<g id="node9" class="node">
<title>Node9</title>
<g id="a_node9"><a xlink:title=" ">
<polygon fill="white" stroke="#bfbfbf" points="1028,-6 1028,-25 1088,-25 1088,-6 1028,-6"/>
<text text-anchor="middle" x="1058" y="-13" font-family="Helvetica,sans-Serif" font-size="10.00">iostream</text>
</a>
</g>
</g>
<!-- Node4&#45;&gt;Node9 -->
<g id="edge8" class="edge">
<title>Node4&#45;&gt;Node9</title>
<path fill="none" stroke="midnightblue" d="M1371.23,-131.79C1471.46,-130.72 1837.79,-124.26 1872,-87 1878.01,-80.45 1878.09,-73.48 1872,-67 1845.25,-38.54 1259.74,-21.62 1098.68,-17.49"/>
<polygon fill="midnightblue" stroke="midnightblue" points="1098.35,-13.98 1088.26,-17.23 1098.17,-20.98 1098.35,-13.98"/>
</g>
<!-- Node10 -->
<g id="node10" class="node">
<title>Node10</title>
<g id="a_node10"><a xlink:title=" ">
<polygon fill="white" stroke="#bfbfbf" points="1416.5,-67.5 1416.5,-86.5 1529.5,-86.5 1529.5,-67.5 1416.5,-67.5"/>
<text text-anchor="middle" x="1473" y="-74.5" font-family="Helvetica,sans-Serif" font-size="10.00">boost/uuid/uuid.hpp</text>
</a>
</g>
</g>
<!-- Node4&#45;&gt;Node10 -->
<g id="edge9" class="edge">
<title>Node4&#45;&gt;Node10</title>
<path fill="none" stroke="midnightblue" d="M1366.12,-123.44C1387.02,-114.56 1419.93,-100.56 1443.72,-90.45"/>
<polygon fill="midnightblue" stroke="midnightblue" points="1445.14,-93.65 1452.97,-86.52 1442.4,-87.21 1445.14,-93.65"/>
</g>
<!-- Node11 -->
<g id="node11" class="node">
<title>Node11</title>
<g id="a_node11"><a xlink:title=" ">
<polygon fill="white" stroke="#bfbfbf" points="1548,-67.5 1548,-86.5 1718,-86.5 1718,-67.5 1548,-67.5"/>
<text text-anchor="middle" x="1633" y="-74.5" font-family="Helvetica,sans-Serif" font-size="10.00">boost/uuid/uuid_generators.hpp</text>
</a>
</g>
</g>
<!-- Node4&#45;&gt;Node11 -->
<g id="edge10" class="edge">
<title>Node4&#45;&gt;Node11</title>
<path fill="none" stroke="midnightblue" d="M1371.22,-127.26C1417.15,-118.61 1515.44,-100.12 1577.65,-88.41"/>
<polygon fill="midnightblue" stroke="midnightblue" points="1578.51,-91.81 1587.69,-86.53 1577.22,-84.93 1578.51,-91.81"/>
</g>
<!-- Node12 -->
<g id="node12" class="node">
<title>Node12</title>
<g id="a_node12"><a xlink:title=" ">
<polygon fill="white" stroke="#bfbfbf" points="1736.5,-67.5 1736.5,-86.5 1863.5,-86.5 1863.5,-67.5 1736.5,-67.5"/>
<text text-anchor="middle" x="1800" y="-74.5" font-family="Helvetica,sans-Serif" font-size="10.00">boost/uuid/uuid_io.hpp</text>
</a>
</g>
</g>
<!-- Node4&#45;&gt;Node12 -->
<g id="edge11" class="edge">
<title>Node4&#45;&gt;Node12</title>
<path fill="none" stroke="midnightblue" d="M1371.42,-129.04C1431.2,-122.08 1585.63,-104.03 1726.21,-87.09"/>
<polygon fill="midnightblue" stroke="midnightblue" points="1726.79,-90.55 1736.3,-85.87 1725.95,-83.6 1726.79,-90.55"/>
</g>
<!-- Node13 -->
<g id="node13" class="node">
<title>Node13</title>
<g id="a_node13"><a xlink:title=" ">
<polygon fill="white" stroke="#bfbfbf" points="1958,-67.5 1958,-86.5 2068,-86.5 2068,-67.5 1958,-67.5"/>
<text text-anchor="middle" x="2013" y="-74.5" font-family="Helvetica,sans-Serif" font-size="10.00">nlohmann/json.hpp</text>
</a>
</g>
</g>
<!-- Node4&#45;&gt;Node13 -->
<g id="edge12" class="edge">
<title>Node4&#45;&gt;Node13</title>
<path fill="none" stroke="midnightblue" d="M1371.12,-130.02C1449.94,-123.78 1699.43,-103.99 1906,-87 1919.4,-85.9 1933.74,-84.7 1947.43,-83.55"/>
<polygon fill="midnightblue" stroke="midnightblue" points="1948.07,-87.01 1957.74,-82.69 1947.49,-80.04 1948.07,-87.01"/>
</g>
<!-- Node14 -->
<g id="node14" class="node">
<title>Node14</title>
<g id="a_node14"><a xlink:title=" ">
<polygon fill="white" stroke="#bfbfbf" points="1084,-67.5 1084,-86.5 1132,-86.5 1132,-67.5 1084,-67.5"/>
<text text-anchor="middle" x="1108" y="-74.5" font-family="Helvetica,sans-Serif" font-size="10.00">thread</text>
</a>
</g>
</g>
<!-- Node4&#45;&gt;Node14 -->
<g id="edge13" class="edge">
<title>Node4&#45;&gt;Node14</title>
<path fill="none" stroke="midnightblue" d="M1320.98,-126.93C1284,-119.35 1212.39,-104.31 1142.03,-87.16"/>
<polygon fill="midnightblue" stroke="midnightblue" points="1142.66,-83.71 1132.11,-84.73 1140.99,-90.51 1142.66,-83.71"/>
</g>
<!-- Node15 -->
<g id="node15" class="node">
<title>Node15</title>
<g id="a_node15"><a xlink:title=" ">
<polygon fill="white" stroke="#bfbfbf" points="1150,-67.5 1150,-86.5 1200,-86.5 1200,-67.5 1150,-67.5"/>
<text text-anchor="middle" x="1175" y="-74.5" font-family="Helvetica,sans-Serif" font-size="10.00">atomic</text>
</a>
</g>
</g>
<!-- Node4&#45;&gt;Node15 -->
<g id="edge14" class="edge">
<title>Node4&#45;&gt;Node15</title>
<path fill="none" stroke="midnightblue" d="M1320.77,-124.03C1291.38,-114.75 1242.68,-99.37 1209.74,-88.97"/>
<polygon fill="midnightblue" stroke="midnightblue" points="1210.65,-85.59 1200.06,-85.91 1208.54,-92.26 1210.65,-85.59"/>
</g>
<!-- Node16 -->
<g id="node16" class="node">
<title>Node16</title>
<g id="a_node16"><a xlink:href="GreenSock_8h.html" target="_top" xlink:title=" ">
<polygon fill="white" stroke="black" points="836,-67.5 836,-86.5 914,-86.5 914,-67.5 836,-67.5"/>
<text text-anchor="middle" x="875" y="-74.5" font-family="Helvetica,sans-Serif" font-size="10.00">GreenSock.h</text>
</a>
</g>
</g>
<!-- Node4&#45;&gt;Node16 -->
<g id="edge15" class="edge">
<title>Node4&#45;&gt;Node16</title>
<path fill="none" stroke="midnightblue" d="M1320.96,-129.84C1255.97,-124.12 1076.57,-107.59 928,-87 926.73,-86.82 925.44,-86.64 924.13,-86.45"/>
<polygon fill="midnightblue" stroke="midnightblue" points="924.45,-82.96 914.03,-84.91 923.39,-89.88 924.45,-82.96"/>
</g>
<!-- Node19 -->
<g id="node19" class="node">
<title>Node19</title>
<g id="a_node19"><a xlink:title=" ">
<polygon fill="white" stroke="#bfbfbf" points="830,-6 830,-25 878,-25 878,-6 830,-6"/>
<text text-anchor="middle" x="854" y="-13" font-family="Helvetica,sans-Serif" font-size="10.00">mutex</text>
</a>
</g>
</g>
<!-- Node4&#45;&gt;Node19 -->
<g id="edge27" class="edge">
<title>Node4&#45;&gt;Node19</title>
<path fill="none" stroke="midnightblue" d="M1320.86,-129.8C1251.69,-123.59 1059.67,-105.16 999,-87 953.42,-73.36 904.45,-46.76 876.68,-30.42"/>
<polygon fill="midnightblue" stroke="midnightblue" points="878.16,-27.22 867.78,-25.1 874.57,-33.23 878.16,-27.22"/>
</g>
<!-- Node20 -->
<g id="node20" class="node">
<title>Node20</title>
<g id="a_node20"><a xlink:href="Logger_8h.html" target="_top" xlink:title="Header for Strategy Logger interface.">
<polygon fill="white" stroke="black" points="1008,-67.5 1008,-86.5 1066,-86.5 1066,-67.5 1008,-67.5"/>
<text text-anchor="middle" x="1037" y="-74.5" font-family="Helvetica,sans-Serif" font-size="10.00">Logger.h</text>
</a>
</g>
</g>
<!-- Node4&#45;&gt;Node20 -->
<g id="edge21" class="edge">
<title>Node4&#45;&gt;Node20</title>
<path fill="none" stroke="midnightblue" d="M1320.86,-128.41C1274.48,-121.66 1172.1,-106.18 1075.89,-87.07"/>
<polygon fill="midnightblue" stroke="midnightblue" points="1076.49,-83.62 1066,-85.08 1075.12,-90.48 1076.49,-83.62"/>
</g>
<!-- Node22 -->
<g id="node22" class="node">
<title>Node22</title>
<g id="a_node22"><a xlink:title=" ">
<polygon fill="white" stroke="#bfbfbf" points="1218.5,-67.5 1218.5,-86.5 1265.5,-86.5 1265.5,-67.5 1218.5,-67.5"/>
<text text-anchor="middle" x="1242" y="-74.5" font-family="Helvetica,sans-Serif" font-size="10.00">queue</text>
</a>
</g>
</g>
<!-- Node4&#45;&gt;Node22 -->
<g id="edge25" class="edge">
<title>Node4&#45;&gt;Node22</title>
<path fill="none" stroke="midnightblue" d="M1329.29,-123.32C1312.69,-114.7 1287,-101.36 1267.78,-91.39"/>
<polygon fill="midnightblue" stroke="midnightblue" points="1269.16,-88.16 1258.67,-86.65 1265.93,-94.37 1269.16,-88.16"/>
</g>
<!-- Node23 -->
<g id="node23" class="node">
<title>Node23</title>
<g id="a_node23"><a xlink:title=" ">
<polygon fill="white" stroke="#bfbfbf" points="1284,-67.5 1284,-86.5 1342,-86.5 1342,-67.5 1284,-67.5"/>
<text text-anchor="middle" x="1313" y="-74.5" font-family="Helvetica,sans-Serif" font-size="10.00">memory</text>
</a>
</g>
</g>
<!-- Node4&#45;&gt;Node23 -->
<g id="edge26" class="edge">
<title>Node4&#45;&gt;Node23</title>
<path fill="none" stroke="midnightblue" d="M1340.55,-123.08C1335.99,-115.61 1329.33,-104.72 1323.71,-95.52"/>
<polygon fill="midnightblue" stroke="midnightblue" points="1326.55,-93.46 1318.35,-86.75 1320.58,-97.11 1326.55,-93.46"/>
</g>
<!-- Node16&#45;&gt;Node5 -->
<g id="edge19" class="edge">
<title>Node16&#45;&gt;Node5</title>
<path fill="none" stroke="midnightblue" d="M835.97,-69.07C831.27,-68.33 826.53,-67.62 822,-67 649.32,-43.5 441.21,-25.52 362.38,-19.08"/>
<polygon fill="midnightblue" stroke="midnightblue" points="362.38,-15.57 352.13,-18.25 361.81,-22.55 362.38,-15.57"/>
</g>
<!-- Node16&#45;&gt;Node9 -->
<g id="edge18" class="edge">
<title>Node16&#45;&gt;Node9</title>
<path fill="none" stroke="midnightblue" d="M903.33,-67.48C932.27,-58.68 978.43,-44.39 1018,-31 1020.39,-30.19 1022.85,-29.34 1025.32,-28.47"/>
<polygon fill="midnightblue" stroke="midnightblue" points="1026.55,-31.75 1034.79,-25.1 1024.2,-25.16 1026.55,-31.75"/>
</g>
<!-- Node17 -->
<g id="node17" class="node">
<title>Node17</title>
<g id="a_node17"><a xlink:title=" ">
<polygon fill="white" stroke="#bfbfbf" points="896.5,-0.5 896.5,-30.5 1009.5,-30.5 1009.5,-0.5 896.5,-0.5"/>
<text text-anchor="start" x="904.5" y="-18.5" font-family="Helvetica,sans-Serif" font-size="10.00">websocketpp/config</text>
<text text-anchor="middle" x="953" y="-7.5" font-family="Helvetica,sans-Serif" font-size="10.00">/asio_no_tls.hpp</text>
</a>
</g>
</g>
<!-- Node16&#45;&gt;Node17 -->
<g id="edge16" class="edge">
<title>Node16&#45;&gt;Node17</title>
<path fill="none" stroke="midnightblue" d="M886.18,-67.48C896.64,-59.49 912.68,-47.25 926.43,-36.77"/>
<polygon fill="midnightblue" stroke="midnightblue" points="928.79,-39.37 934.62,-30.52 924.54,-33.81 928.79,-39.37"/>
</g>
<!-- Node18 -->
<g id="node18" class="node">
<title>Node18</title>
<g id="a_node18"><a xlink:title=" ">
<polygon fill="white" stroke="#bfbfbf" points="678,-6 678,-25 812,-25 812,-6 678,-6"/>
<text text-anchor="middle" x="745" y="-13" font-family="Helvetica,sans-Serif" font-size="10.00">websocketpp/server.hpp</text>
</a>
</g>
</g>
<!-- Node16&#45;&gt;Node18 -->
<g id="edge17" class="edge">
<title>Node16&#45;&gt;Node18</title>
<path fill="none" stroke="midnightblue" d="M856.37,-67.48C834.56,-57.49 798.2,-40.85 772.98,-29.31"/>
<polygon fill="midnightblue" stroke="midnightblue" points="774.14,-25.99 763.59,-25.01 771.23,-32.35 774.14,-25.99"/>
</g>
<!-- Node16&#45;&gt;Node19 -->
<g id="edge20" class="edge">
<title>Node16&#45;&gt;Node19</title>
<path fill="none" stroke="midnightblue" d="M871.99,-67.48C868.97,-58.9 864.21,-45.43 860.35,-34.48"/>
<polygon fill="midnightblue" stroke="midnightblue" points="863.63,-33.27 857,-25.01 857.03,-35.6 863.63,-33.27"/>
</g>
<!-- Node20&#45;&gt;Node5 -->
<g id="edge22" class="edge">
<title>Node20&#45;&gt;Node5</title>
<path fill="none" stroke="midnightblue" d="M1007.97,-73.56C894.58,-64.01 481.99,-29.29 362.58,-19.24"/>
<polygon fill="midnightblue" stroke="midnightblue" points="362.53,-15.73 352.27,-18.37 361.94,-22.7 362.53,-15.73"/>
</g>
<!-- Node20&#45;&gt;Node9 -->
<g id="edge23" class="edge">
<title>Node20&#45;&gt;Node9</title>
<path fill="none" stroke="midnightblue" d="M1040.01,-67.48C1043.03,-58.9 1047.79,-45.43 1051.65,-34.48"/>
<polygon fill="midnightblue" stroke="midnightblue" points="1054.97,-35.6 1055,-25.01 1048.37,-33.27 1054.97,-35.6"/>
</g>
<!-- Node20&#45;&gt;Node21 -->
<g id="edge24" class="edge">
<title>Node20&#45;&gt;Node21</title>
<path fill="none" stroke="midnightblue" d="M1066.36,-68.49C1069.26,-67.91 1072.18,-67.4 1075,-67 1438.64,-15.1 1884.1,-14.64 2022.16,-15.92"/>
<polygon fill="midnightblue" stroke="midnightblue" points="2022.28,-19.42 2032.32,-16.02 2022.36,-12.42 2022.28,-19.42"/>
</g>
<!-- Node24&#45;&gt;Node3 -->
<g id="edge36" class="edge">
<title>Node24&#45;&gt;Node3</title>
<path fill="none" stroke="midnightblue" d="M2049.38,-235.44C2020.99,-226.32 1975.86,-211.81 1944.25,-201.65"/>
<polygon fill="midnightblue" stroke="midnightblue" points="1945.09,-198.24 1934.5,-198.52 1942.94,-204.91 1945.09,-198.24"/>
</g>
<!-- Node24&#45;&gt;Node7 -->
<g id="edge38" class="edge">
<title>Node24&#45;&gt;Node7</title>
<path fill="none" stroke="midnightblue" d="M2081.08,-235.18C2086.16,-226.22 2094.05,-211.85 2100,-199 2116.56,-163.26 2132.82,-120.09 2141.51,-96.18"/>
<polygon fill="midnightblue" stroke="midnightblue" points="2144.85,-97.24 2144.95,-86.65 2138.27,-94.87 2144.85,-97.24"/>
</g>
<!-- Node24&#45;&gt;Node9 -->
<g id="edge37" class="edge">
<title>Node24&#45;&gt;Node9</title>
<path fill="none" stroke="midnightblue" d="M2079.73,-235.12C2091.18,-206.32 2122.33,-114.64 2077,-67 2042.69,-30.95 1283.14,-19.27 1098.28,-16.96"/>
<polygon fill="midnightblue" stroke="midnightblue" points="1098.22,-13.46 1088.18,-16.84 1098.13,-20.46 1098.22,-13.46"/>
</g>
<!-- Node24&#45;&gt;Node13 -->
<g id="edge40" class="edge">
<title>Node24&#45;&gt;Node13</title>
<path fill="none" stroke="midnightblue" d="M2072.61,-235.08C2062.65,-208.83 2033.32,-131.55 2019.88,-96.12"/>
<polygon fill="midnightblue" stroke="midnightblue" points="2023.07,-94.68 2016.25,-86.57 2016.53,-97.16 2023.07,-94.68"/>
</g>
<!-- Node24&#45;&gt;Node21 -->
<g id="edge39" class="edge">
<title>Node24&#45;&gt;Node21</title>
<path fill="none" stroke="midnightblue" d="M2088.32,-235.35C2123.8,-209.38 2221.12,-129.97 2180,-67 2164,-42.5 2133.18,-29.81 2107.47,-23.28"/>
<polygon fill="midnightblue" stroke="midnightblue" points="2108.08,-19.83 2097.54,-20.99 2106.5,-26.65 2108.08,-19.83"/>
</g>
<!-- Node25 -->
<g id="node25" class="node">
<title>Node25</title>
<g id="a_node25"><a xlink:href="TransactionMem_8h.html" target="_top" xlink:title=" ">
<polygon fill="white" stroke="black" points="560,-179.5 560,-198.5 666,-198.5 666,-179.5 560,-179.5"/>
<text text-anchor="middle" x="613" y="-186.5" font-family="Helvetica,sans-Serif" font-size="10.00">TransactionMem.h</text>
</a>
</g>
</g>
<!-- Node24&#45;&gt;Node25 -->
<g id="edge31" class="edge">
<title>Node24&#45;&gt;Node25</title>
<path fill="none" stroke="midnightblue" d="M2018.2,-241.87C1785.48,-233.28 918.05,-201.26 676.05,-192.33"/>
<polygon fill="midnightblue" stroke="midnightblue" points="676.13,-188.83 666.01,-191.96 675.87,-195.82 676.13,-188.83"/>
</g>
<!-- Node24&#45;&gt;Node26 -->
<g id="edge34" class="edge">
<title>Node24&#45;&gt;Node26</title>
<path fill="none" stroke="midnightblue" d="M2062.34,-235.32C2049.08,-226.9 2028.73,-213.97 2013.15,-204.07"/>
<polygon fill="midnightblue" stroke="midnightblue" points="2014.94,-201.06 2004.62,-198.65 2011.19,-206.97 2014.94,-201.06"/>
</g>
<!-- Node25&#45;&gt;Node4 -->
<g id="edge32" class="edge">
<title>Node25&#45;&gt;Node4</title>
<path fill="none" stroke="midnightblue" d="M666.01,-184.09C807.6,-173.66 1191.92,-145.35 1310.61,-136.61"/>
<polygon fill="midnightblue" stroke="midnightblue" points="1311.21,-140.07 1320.93,-135.85 1310.7,-133.09 1311.21,-140.07"/>
</g>
<!-- Node25&#45;&gt;Node5 -->
<g id="edge33" class="edge">
<title>Node25&#45;&gt;Node5</title>
<path fill="none" stroke="midnightblue" d="M559.7,-184.13C521.11,-179.23 469.08,-168.13 430,-143 418.54,-135.63 366.67,-66.3 342.49,-33.52"/>
<polygon fill="midnightblue" stroke="midnightblue" points="345.2,-31.31 336.45,-25.33 339.56,-35.45 345.2,-31.31"/>
</g>
<!-- Node26&#45;&gt;Node13 -->
<g id="edge35" class="edge">
<title>Node26&#45;&gt;Node13</title>
<path fill="none" stroke="midnightblue" d="M1992.73,-179.37C1996.28,-161.62 2004.47,-120.67 2009.28,-96.6"/>
<polygon fill="midnightblue" stroke="midnightblue" points="2012.75,-97.08 2011.28,-86.59 2005.89,-95.71 2012.75,-97.08"/>
</g>
<!-- Node28&#45;&gt;Node5 -->
<g id="edge60" class="edge">
<title>Node28&#45;&gt;Node5</title>
<path fill="none" stroke="midnightblue" d="M247.18,-242.09C187.42,-238.33 80.64,-227.69 57,-199 51.35,-192.14 54.21,-187.44 57,-179 76.42,-120.17 88.74,-101.8 140,-67 188.6,-34 257.74,-22.55 297.83,-18.58"/>
<polygon fill="midnightblue" stroke="midnightblue" points="298.19,-22.07 307.84,-17.69 297.57,-15.09 298.19,-22.07"/>
</g>
<!-- Node28&#45;&gt;Node21 -->
<g id="edge61" class="edge">
<title>Node28&#45;&gt;Node21</title>
<path fill="none" stroke="midnightblue" d="M328.6,-240.74C562.51,-221.86 1733.05,-126.04 1889,-87 1917.97,-79.75 1994.29,-47.36 2036.29,-29.11"/>
<polygon fill="midnightblue" stroke="midnightblue" points="2037.92,-32.22 2045.68,-25.01 2035.12,-25.8 2037.92,-32.22"/>
</g>
<!-- Node28&#45;&gt;Node25 -->
<g id="edge58" class="edge">
<title>Node28&#45;&gt;Node25</title>
<path fill="none" stroke="midnightblue" d="M328.5,-237.27C384.55,-227.96 486.23,-211.06 551.63,-200.2"/>
<polygon fill="midnightblue" stroke="midnightblue" points="552.51,-203.6 561.8,-198.51 551.36,-196.69 552.51,-203.6"/>
</g>
<!-- Node28&#45;&gt;Node26 -->
<g id="edge59" class="edge">
<title>Node28&#45;&gt;Node26</title>
<path fill="none" stroke="midnightblue" d="M328.68,-240.27C350.67,-238.39 378.3,-236.25 403,-235 743.6,-217.73 1593.98,-241.47 1951.55,-198.68"/>
<polygon fill="midnightblue" stroke="midnightblue" points="1952.23,-202.12 1961.73,-197.43 1951.37,-195.18 1952.23,-202.12"/>
</g>
<!-- Node29 -->
<g id="node29" class="node">
<title>Node29</title>
<g id="a_node29"><a xlink:href="TransactionStrategy_8h.html" target="_top" xlink:title="Abstract base class for transaction strategies.">
<polygon fill="white" stroke="black" points="142.5,-123.5 142.5,-142.5 263.5,-142.5 263.5,-123.5 142.5,-123.5"/>
<text text-anchor="middle" x="203" y="-130.5" font-family="Helvetica,sans-Serif" font-size="10.00">TransactionStrategy.h</text>
</a>
</g>
</g>
<!-- Node28&#45;&gt;Node29 -->
<g id="edge47" class="edge">
<title>Node28&#45;&gt;Node29</title>
<path fill="none" stroke="midnightblue" d="M281.33,-235.37C267.24,-217.14 234.24,-174.43 215.89,-150.68"/>
<polygon fill="midnightblue" stroke="midnightblue" points="218.52,-148.36 209.64,-142.59 212.98,-152.64 218.52,-148.36"/>
</g>
<!-- Node30 -->
<g id="node30" class="node">
<title>Node30</title>
<g id="a_node30"><a xlink:href="Sale_8h.html" target="_top" xlink:title="Transaction strategy for sales operations.">
<polygon fill="white" stroke="black" points="264.5,-179.5 264.5,-198.5 311.5,-198.5 311.5,-179.5 264.5,-179.5"/>
<text text-anchor="middle" x="288" y="-186.5" font-family="Helvetica,sans-Serif" font-size="10.00">Sale.h</text>
</a>
</g>
</g>
<!-- Node28&#45;&gt;Node30 -->
<g id="edge49" class="edge">
<title>Node28&#45;&gt;Node30</title>
<path fill="none" stroke="midnightblue" d="M288,-235.08C288,-228.01 288,-217.86 288,-208.99"/>
<polygon fill="midnightblue" stroke="midnightblue" points="291.5,-208.75 288,-198.75 284.5,-208.75 291.5,-208.75"/>
</g>
<!-- Node31 -->
<g id="node31" class="node">
<title>Node31</title>
<g id="a_node31"><a xlink:href="Return_8h.html" target="_top" xlink:title="Transaction strategy for return operations.">
<polygon fill="white" stroke="black" points="66,-179.5 66,-198.5 124,-198.5 124,-179.5 66,-179.5"/>
<text text-anchor="middle" x="95" y="-186.5" font-family="Helvetica,sans-Serif" font-size="10.00">Return.h</text>
</a>
</g>
</g>
<!-- Node28&#45;&gt;Node31 -->
<g id="edge52" class="edge">
<title>Node28&#45;&gt;Node31</title>
<path fill="none" stroke="midnightblue" d="M257.42,-235.44C224,-226.09 170.37,-211.09 133.96,-200.9"/>
<polygon fill="midnightblue" stroke="midnightblue" points="134.75,-197.49 124.17,-198.16 132.86,-204.23 134.75,-197.49"/>
</g>
<!-- Node32 -->
<g id="node32" class="node">
<title>Node32</title>
<g id="a_node32"><a xlink:href="Restock_8h.html" target="_top" xlink:title="Transaction strategy for restock operations.">
<polygon fill="white" stroke="black" points="142.5,-179.5 142.5,-198.5 207.5,-198.5 207.5,-179.5 142.5,-179.5"/>
<text text-anchor="middle" x="175" y="-186.5" font-family="Helvetica,sans-Serif" font-size="10.00">Restock.h</text>
</a>
</g>
</g>
<!-- Node28&#45;&gt;Node32 -->
<g id="edge55" class="edge">
<title>Node28&#45;&gt;Node32</title>
<path fill="none" stroke="midnightblue" d="M270.09,-235.44C251.75,-226.68 222.99,-212.94 201.91,-202.86"/>
<polygon fill="midnightblue" stroke="midnightblue" points="203.35,-199.67 192.82,-198.52 200.33,-205.99 203.35,-199.67"/>
</g>
<!-- Node29&#45;&gt;Node5 -->
<g id="edge48" class="edge">
<title>Node29&#45;&gt;Node5</title>
<path fill="none" stroke="midnightblue" d="M212.55,-123.32C233.88,-103.92 285.65,-56.83 312.78,-32.16"/>
<polygon fill="midnightblue" stroke="midnightblue" points="315.3,-34.6 320.34,-25.28 310.59,-29.42 315.3,-34.6"/>
</g>
<!-- Node30&#45;&gt;Node5 -->
<g id="edge51" class="edge">
<title>Node30&#45;&gt;Node5</title>
<path fill="none" stroke="midnightblue" d="M289.84,-179.46C294.15,-159.64 305.32,-109 316,-67 318.74,-56.24 322.05,-44.26 324.76,-34.67"/>
<polygon fill="midnightblue" stroke="midnightblue" points="328.13,-35.62 327.51,-25.05 321.4,-33.7 328.13,-35.62"/>
</g>
<!-- Node30&#45;&gt;Node29 -->
<g id="edge50" class="edge">
<title>Node30&#45;&gt;Node29</title>
<path fill="none" stroke="midnightblue" d="M274.34,-179.32C261.08,-170.9 240.73,-157.97 225.15,-148.07"/>
<polygon fill="midnightblue" stroke="midnightblue" points="226.94,-145.06 216.62,-142.65 223.19,-150.97 226.94,-145.06"/>
</g>
<!-- Node31&#45;&gt;Node5 -->
<g id="edge54" class="edge">
<title>Node31&#45;&gt;Node5</title>
<path fill="none" stroke="midnightblue" d="M97.21,-179.35C103.42,-156.93 123.19,-96.66 163,-67 203.46,-36.86 261.96,-24.56 297.9,-19.65"/>
<polygon fill="midnightblue" stroke="midnightblue" points="298.36,-23.12 307.85,-18.4 297.49,-16.17 298.36,-23.12"/>
</g>
<!-- Node31&#45;&gt;Node29 -->
<g id="edge53" class="edge">
<title>Node31&#45;&gt;Node29</title>
<path fill="none" stroke="midnightblue" d="M112.35,-179.32C129.67,-170.66 156.52,-157.24 176.5,-147.25"/>
<polygon fill="midnightblue" stroke="midnightblue" points="178.31,-150.26 185.69,-142.65 175.18,-144 178.31,-150.26"/>
</g>
<!-- Node32&#45;&gt;Node5 -->
<g id="edge57" class="edge">
<title>Node32&#45;&gt;Node5</title>
<path fill="none" stroke="midnightblue" d="M162.27,-179.3C145.84,-166.94 120.75,-143.54 133,-123 168.91,-62.77 252,-34.54 297.97,-23.12"/>
<polygon fill="midnightblue" stroke="midnightblue" points="298.8,-26.52 307.73,-20.81 297.19,-19.71 298.8,-26.52"/>
</g>
<!-- Node32&#45;&gt;Node29 -->
<g id="edge56" class="edge">
<title>Node32&#45;&gt;Node29</title>
<path fill="none" stroke="midnightblue" d="M179.62,-179.08C183.46,-171.69 189.02,-160.95 193.76,-151.81"/>
<polygon fill="midnightblue" stroke="midnightblue" points="196.97,-153.24 198.46,-142.75 190.75,-150.02 196.97,-153.24"/>
</g>
<!-- Node33&#45;&gt;Node2 -->
<g id="edge65" class="edge">
<title>Node33&#45;&gt;Node2</title>
<path fill="none" stroke="midnightblue" d="M1866.93,-347.32C1877.17,-339.18 1892.72,-326.84 1905,-317.09"/>
<polygon fill="midnightblue" stroke="midnightblue" points="1907.22,-319.79 1912.88,-310.83 1902.87,-314.31 1907.22,-319.79"/>
</g>
<!-- Node33&#45;&gt;Node3 -->
<g id="edge63" class="edge">
<title>Node33&#45;&gt;Node3</title>
<path fill="none" stroke="midnightblue" d="M1858.8,-347.08C1867.02,-320.83 1891.23,-243.55 1902.32,-208.12"/>
<polygon fill="midnightblue" stroke="midnightblue" points="1905.67,-209.16 1905.32,-198.57 1898.99,-207.06 1905.67,-209.16"/>
</g>
<!-- Node33&#45;&gt;Node16 -->
<g id="edge64" class="edge">
<title>Node33&#45;&gt;Node16</title>
<path fill="none" stroke="midnightblue" d="M1813.9,-353.47C1668.3,-344.15 1195,-309 1195,-246 1195,-246 1195,-246 1195,-188 1195,-131.43 1013.91,-97.72 924.19,-84.49"/>
<polygon fill="midnightblue" stroke="midnightblue" points="924.64,-81.02 914.24,-83.05 923.63,-87.95 924.64,-81.02"/>
</g>
<!-- Node34 -->
<g id="node34" class="node">
<title>Node34</title>
<g id="a_node34"><a xlink:href="PruningStaff_8h.html" target="_top" xlink:title="Concrete observer for pruning staff in greenhouse.">
<polygon fill="white" stroke="black" points="412.5,-235.5 412.5,-254.5 497.5,-254.5 497.5,-235.5 412.5,-235.5"/>
<text text-anchor="middle" x="455" y="-242.5" font-family="Helvetica,sans-Serif" font-size="10.00">PruningStaff.h</text>
</a>
</g>
</g>
<!-- Node33&#45;&gt;Node34 -->
<g id="edge66" class="edge">
<title>Node33&#45;&gt;Node34</title>
<path fill="none" stroke="midnightblue" d="M1813.72,-353.52C1707.37,-347.2 1420.16,-329.68 1181,-311 928.47,-291.28 626.99,-262.66 507.5,-251.11"/>
<polygon fill="midnightblue" stroke="midnightblue" points="507.81,-247.63 497.52,-250.15 507.14,-254.59 507.81,-247.63"/>
</g>
<!-- Node34&#45;&gt;Node5 -->
<g id="edge67" class="edge">
<title>Node34&#45;&gt;Node5</title>
<path fill="none" stroke="midnightblue" d="M438.01,-235.35C424.05,-227.5 404.58,-214.75 392,-199 351.85,-148.73 337.04,-71.03 332.15,-35.46"/>
<polygon fill="midnightblue" stroke="midnightblue" points="335.57,-34.59 330.85,-25.11 328.62,-35.46 335.57,-34.59"/>
</g>
<!-- Node35 -->
<g id="node35" class="node">
<title>Node35</title>
<g id="a_node35"><a xlink:href="GreenhouseStaff_8h.html" target="_top" xlink:title="Abstract base class for greenhouse staff observers.">
<polygon fill="white" stroke="black" points="401.5,-179.5 401.5,-198.5 508.5,-198.5 508.5,-179.5 401.5,-179.5"/>
<text text-anchor="middle" x="455" y="-186.5" font-family="Helvetica,sans-Serif" font-size="10.00">GreenhouseStaff.h</text>
</a>
</g>
</g>
<!-- Node34&#45;&gt;Node35 -->
<g id="edge68" class="edge">
<title>Node34&#45;&gt;Node35</title>
<path fill="none" stroke="midnightblue" d="M455,-235.08C455,-228.01 455,-217.86 455,-208.99"/>
<polygon fill="midnightblue" stroke="midnightblue" points="458.5,-208.75 455,-198.75 451.5,-208.75 458.5,-208.75"/>
</g>
<!-- Node35&#45;&gt;Node5 -->
<g id="edge69" class="edge">
<title>Node35&#45;&gt;Node5</title>
<path fill="none" stroke="midnightblue" d="M438.8,-179.47C424.94,-171.53 405.21,-158.58 392,-143 363.63,-109.53 344.58,-60.86 335.71,-34.72"/>
<polygon fill="midnightblue" stroke="midnightblue" points="338.97,-33.43 332.54,-25.01 332.32,-35.6 338.97,-33.43"/>
</g>
<!-- Node36 -->
<g id="node36" class="node">
<title>Node36</title>
<g id="a_node36"><a xlink:href="PlantHealth_8h.html" target="_top" xlink:title="Health management system for plant lifecycle and care requirements.">
<polygon fill="white" stroke="black" points="629.5,-123.5 629.5,-142.5 712.5,-142.5 712.5,-123.5 629.5,-123.5"/>
<text text-anchor="middle" x="671" y="-130.5" font-family="Helvetica,sans-Serif" font-size="10.00">PlantHealth.h</text>
</a>
</g>
</g>
<!-- Node35&#45;&gt;Node36 -->
<g id="edge70" class="edge">
<title>Node35&#45;&gt;Node36</title>
<path fill="none" stroke="midnightblue" d="M489.23,-179.44C526.51,-170.12 586.27,-155.18 627.01,-145"/>
<polygon fill="midnightblue" stroke="midnightblue" points="628.08,-148.34 636.93,-142.52 626.38,-141.55 628.08,-148.34"/>
</g>
<!-- Node36&#45;&gt;Node9 -->
<g id="edge71" class="edge">
<title>Node36&#45;&gt;Node9</title>
<path fill="none" stroke="midnightblue" d="M712.56,-128.49C763.32,-123.31 851.29,-111.48 923,-87 965.12,-72.62 1010.22,-46.67 1036.16,-30.58"/>
<polygon fill="midnightblue" stroke="midnightblue" points="1038.22,-33.43 1044.82,-25.14 1034.49,-27.5 1038.22,-33.43"/>
</g>
<!-- Node36&#45;&gt;Node16 -->
<g id="edge75" class="edge">
<title>Node36&#45;&gt;Node16</title>
<path fill="none" stroke="midnightblue" d="M703.32,-123.44C738.39,-114.16 794.5,-99.31 832.96,-89.13"/>
<polygon fill="midnightblue" stroke="midnightblue" points="834.06,-92.46 842.83,-86.52 832.26,-85.69 834.06,-92.46"/>
</g>
<!-- Node36&#45;&gt;Node19 -->
<g id="edge72" class="edge">
<title>Node36&#45;&gt;Node19</title>
<path fill="none" stroke="midnightblue" d="M675.04,-123.09C681.79,-109.17 696.66,-82.27 717,-67 756.11,-37.63 775.46,-48.85 821,-31 822.6,-30.37 824.24,-29.71 825.89,-29.03"/>
<polygon fill="midnightblue" stroke="midnightblue" points="827.43,-32.18 835.26,-25.05 824.69,-25.74 827.43,-32.18"/>
</g>
<!-- Node36&#45;&gt;Node27 -->
<g id="edge74" class="edge">
<title>Node36&#45;&gt;Node27</title>
<path fill="none" stroke="midnightblue" d="M684.17,-123.32C696.85,-114.98 716.23,-102.21 731.21,-92.35"/>
<polygon fill="midnightblue" stroke="midnightblue" points="733.43,-95.08 739.86,-86.65 729.58,-89.23 733.43,-95.08"/>
</g>
<!-- Node37 -->
<g id="node37" class="node">
<title>Node37</title>
<g id="a_node37"><a xlink:title=" ">
<polygon fill="white" stroke="#bfbfbf" points="620,-67.5 620,-86.5 670,-86.5 670,-67.5 620,-67.5"/>
<text text-anchor="middle" x="645" y="-74.5" font-family="Helvetica,sans-Serif" font-size="10.00">chrono</text>
</a>
</g>
</g>
<!-- Node36&#45;&gt;Node37 -->
<g id="edge73" class="edge">
<title>Node36&#45;&gt;Node37</title>
<path fill="none" stroke="midnightblue" d="M666.71,-123.08C663.15,-115.69 657.98,-104.95 653.58,-95.81"/>
<polygon fill="midnightblue" stroke="midnightblue" points="656.71,-94.24 649.21,-86.75 650.4,-97.28 656.71,-94.24"/>
</g>
<!-- Node38 -->
<g id="node38" class="node">
<title>Node38</title>
<g id="a_node38"><a xlink:title=" ">
<polygon fill="white" stroke="#bfbfbf" points="472,-67.5 472,-86.5 528,-86.5 528,-67.5 472,-67.5"/>
<text text-anchor="middle" x="500" y="-74.5" font-family="Helvetica,sans-Serif" font-size="10.00">sstream</text>
</a>
</g>
</g>
<!-- Node36&#45;&gt;Node38 -->
<g id="edge76" class="edge">
<title>Node36&#45;&gt;Node38</title>
<path fill="none" stroke="midnightblue" d="M643.9,-123.44C615.01,-114.32 569.08,-99.81 536.89,-89.65"/>
<polygon fill="midnightblue" stroke="midnightblue" points="537.56,-86.19 526.97,-86.52 535.45,-92.87 537.56,-86.19"/>
</g>
<!-- Node39 -->
<g id="node39" class="node">
<title>Node39</title>
<g id="a_node39"><a xlink:title=" ">
<polygon fill="white" stroke="#bfbfbf" points="546,-67.5 546,-86.5 602,-86.5 602,-67.5 546,-67.5"/>
<text text-anchor="middle" x="574" y="-74.5" font-family="Helvetica,sans-Serif" font-size="10.00">iomanip</text>
</a>
</g>
</g>
<!-- Node36&#45;&gt;Node39 -->
<g id="edge77" class="edge">
<title>Node36&#45;&gt;Node39</title>
<path fill="none" stroke="midnightblue" d="M655.42,-123.32C640,-114.74 616.19,-101.49 598.29,-91.52"/>
<polygon fill="midnightblue" stroke="midnightblue" points="599.99,-88.46 589.55,-86.65 596.58,-94.58 599.99,-88.46"/>
</g>
</g>
</svg>
        <g id="navigator" transform="translate(0 0)" fill="#404254">
                <rect fill="#f2f5e9" fill-opacity="0.5" stroke="#606060" stroke-width=".5" x="0" y="0" width="60" height="60"/>
                <use id="zoomplus" xlink:href="#zoomPlus" x="17" y="9" onmousedown="handleZoom(evt,'in')"/>
                <use id="zoomminus" xlink:href="#zoomMin" x="42" y="9" onmousedown="handleZoom(evt,'out')"/>
                <use id="reset" xlink:href="#resetDef" x="30" y="36" onmousedown="handleReset()"/>
                <g id="arrowUp" xlink:href="#dirArrow" transform="translate(30 24)" onmousedown="handlePan(0,-1)">
                  <use xlink:href="#rim" fill="#404040">
                        <set attributeName="fill" to="#808080" begin="arrowUp.mouseover" end="arrowUp.mouseout"/>
                  </use>
                  <path fill="none" stroke="white" stroke-width="1.5" d="M0,-3.0v7 M-2.5,-0.5L0,-3.0L2.5,-0.5"/>
                </g>
                <g id="arrowRight" xlink:href="#dirArrow" transform="rotate(90) translate(36 -43)" onmousedown="handlePan(1,0)">
                  <use xlink:href="#rim" fill="#404040">
                        <set attributeName="fill" to="#808080" begin="arrowRight.mouseover" end="arrowRight.mouseout"/>
                  </use>
                  <path fill="none" stroke="white" stroke-width="1.5" d="M0,-3.0v7 M-2.5,-0.5L0,-3.0L2.5,-0.5"/>
                </g>
                <g id="arrowDown" xlink:href="#dirArrow" transform="rotate(180) translate(-30 -48)" onmousedown="handlePan(0,1)">
                  <use xlink:href="#rim" fill="#404040">
                        <set attributeName="fill" to="#808080" begin="arrowDown.mouseover" end="arrowDown.mouseout"/>
                  </use>
                  <path fill="none" stroke="white" stroke-width="1.5" d="M0,-3.0v7 M-2.5,-0.5L0,-3.0L2.5,-0.5"/>
                </g>
                <g id="arrowLeft" xlink:href="#dirArrow" transform="rotate(270) translate(-36 17)" onmousedown="handlePan(-1,0)">
                  <use xlink:href="#rim" fill="#404040">
                        <set attributeName="fill" to="#808080" begin="arrowLeft.mouseover" end="arrowLeft.mouseout"/>
                  </use>
                  <path fill="none" stroke="white" stroke-width="1.5" d="M0,-3.0v7 M-2.5,-0.5L0,-3.0L2.5,-0.5"/>
                </g>
        </g>
        <svg viewBox="0 0 15 15" width="100%" height="30px" preserveAspectRatio="xMaxYMin meet">
         <g id="arrow_out" transform="scale(0.3 0.3)">
          <a xlink:href="Manager_8h__incl_org.svg" target="_base">
           <rect id="button" ry="5" rx="5" y="6" x="6" height="38" width="38"
                fill="#f2f5e9" fill-opacity="0.5" stroke="#606060" stroke-width="1.0"/>
           <path id="arrow"
             d="M 11.500037,31.436501 C 11.940474,20.09759 22.043105,11.32322 32.158766,21.979434 L 37.068811,17.246167 C 37.068811,17.246167 37.088388,32 37.088388,32 L 22.160133,31.978069 C 22.160133,31.978069 26.997745,27.140456 26.997745,27.140456 C 18.528582,18.264221 13.291696,25.230495 11.500037,31.436501 z"
             style="fill:#404040;"/>
          </a>
         </g>
        </svg>
</svg>
