<?xml version="1.0" encoding="UTF-8" standalone="no"?>
<!DOCTYPE svg PUBLIC "-//W3C//DTD SVG 1.1//EN"
 "http://www.w3.org/Graphics/SVG/1.1/DTD/svg11.dtd">
<!-- Generated by graphviz version 2.43.0 (0)
 -->
<!-- Title: backend/game/MenuOption.h Pages: 1 -->
<svg width="390pt" height="196pt"
 viewBox="0.00 0.00 389.50 196.00" xmlns="http://www.w3.org/2000/svg" xmlns:xlink="http://www.w3.org/1999/xlink">
<g id="graph0" class="graph" transform="scale(1 1) rotate(0) translate(4 192)">
<title>backend/game/MenuOption.h</title>
<polygon fill="white" stroke="transparent" points="-4,4 -4,-192 385.5,-192 385.5,4 -4,4"/>
<!-- Node1 -->
<g id="node1" class="node">
<title>Node1</title>
<g id="a_node1"><a xlink:title="Base class for menu command options.">
<polygon fill="#bfbfbf" stroke="black" points="110.5,-168.5 110.5,-187.5 269.5,-187.5 269.5,-168.5 110.5,-168.5"/>
<text text-anchor="middle" x="190" y="-175.5" font-family="Helvetica,sans-Serif" font-size="10.00">backend/game/MenuOption.h</text>
</a>
</g>
</g>
<!-- Node2 -->
<g id="node2" class="node">
<title>Node2</title>
<g id="a_node2"><a xlink:href="ExitGameOption_8h.html" target="_top" xlink:title="Command for exiting the game with logging capabilities.">
<polygon fill="white" stroke="black" points="0,-112.5 0,-131.5 180,-131.5 180,-112.5 0,-112.5"/>
<text text-anchor="middle" x="90" y="-119.5" font-family="Helvetica,sans-Serif" font-size="10.00">backend/game/ExitGameOption.h</text>
</a>
</g>
</g>
<!-- Node1&#45;&gt;Node2 -->
<g id="edge1" class="edge">
<title>Node1&#45;&gt;Node2</title>
<path fill="none" stroke="midnightblue" d="M164.91,-163.45C146.45,-153.48 121.9,-140.23 106.03,-131.65"/>
<polygon fill="midnightblue" stroke="midnightblue" points="163.47,-166.65 173.93,-168.32 166.8,-160.49 163.47,-166.65"/>
</g>
<!-- Node5 -->
<g id="node5" class="node">
<title>Node5</title>
<g id="a_node5"><a xlink:href="NewGameOption_8h.html" target="_top" xlink:title="Header file for NewGameOption class.">
<polygon fill="white" stroke="black" points="198.5,-112.5 198.5,-131.5 381.5,-131.5 381.5,-112.5 198.5,-112.5"/>
<text text-anchor="middle" x="290" y="-119.5" font-family="Helvetica,sans-Serif" font-size="10.00">backend/game/NewGameOption.h</text>
</a>
</g>
</g>
<!-- Node1&#45;&gt;Node5 -->
<g id="edge4" class="edge">
<title>Node1&#45;&gt;Node5</title>
<path fill="none" stroke="midnightblue" d="M215.09,-163.45C233.55,-153.48 258.1,-140.23 273.97,-131.65"/>
<polygon fill="midnightblue" stroke="midnightblue" points="213.2,-160.49 206.07,-168.32 216.53,-166.65 213.2,-160.49"/>
</g>
<!-- Node3 -->
<g id="node3" class="node">
<title>Node3</title>
<g id="a_node3"><a xlink:href="APIController_8h.html" target="_top" xlink:title="Define endpoints.">
<polygon fill="white" stroke="black" points="114.5,-56.5 114.5,-75.5 265.5,-75.5 265.5,-56.5 114.5,-56.5"/>
<text text-anchor="middle" x="190" y="-63.5" font-family="Helvetica,sans-Serif" font-size="10.00">backend/API/APIController.h</text>
</a>
</g>
</g>
<!-- Node2&#45;&gt;Node3 -->
<g id="edge2" class="edge">
<title>Node2&#45;&gt;Node3</title>
<path fill="none" stroke="midnightblue" d="M115.09,-107.45C133.55,-97.48 158.1,-84.23 173.97,-75.65"/>
<polygon fill="midnightblue" stroke="midnightblue" points="113.2,-104.49 106.07,-112.32 116.53,-110.65 113.2,-104.49"/>
</g>
<!-- Node4 -->
<g id="node4" class="node">
<title>Node4</title>
<g id="a_node4"><a xlink:href="APIController_8cpp.html" target="_top" xlink:title="Still need to see what going to do here.">
<polygon fill="white" stroke="black" points="109,-0.5 109,-19.5 271,-19.5 271,-0.5 109,-0.5"/>
<text text-anchor="middle" x="190" y="-7.5" font-family="Helvetica,sans-Serif" font-size="10.00">backend/API/APIController.cpp</text>
</a>
</g>
</g>
<!-- Node3&#45;&gt;Node4 -->
<g id="edge3" class="edge">
<title>Node3&#45;&gt;Node4</title>
<path fill="none" stroke="midnightblue" d="M190,-45.8C190,-36.91 190,-26.78 190,-19.75"/>
<polygon fill="midnightblue" stroke="midnightblue" points="186.5,-46.08 190,-56.08 193.5,-46.08 186.5,-46.08"/>
</g>
<!-- Node5&#45;&gt;Node3 -->
<g id="edge5" class="edge">
<title>Node5&#45;&gt;Node3</title>
<path fill="none" stroke="midnightblue" d="M264.91,-107.45C246.45,-97.48 221.9,-84.23 206.03,-75.65"/>
<polygon fill="midnightblue" stroke="midnightblue" points="263.47,-110.65 273.93,-112.32 266.8,-104.49 263.47,-110.65"/>
</g>
</g>
</svg>
