<?xml version="1.0" encoding="UTF-8" standalone="no"?>
<!DOCTYPE svg PUBLIC "-//W3C//DTD SVG 1.1//EN"
 "http://www.w3.org/Graphics/SVG/1.1/DTD/svg11.dtd">
<!-- Generated by graphviz version 2.43.0 (0)
 -->
<!-- Title: backend/plant/NotSellable.h Pages: 1 -->
<!--zoomable 263 -->
<svg id="main" version="1.1" xmlns="http://www.w3.org/2000/svg" xmlns:xlink="http://www.w3.org/1999/xlink" xml:space="preserve" onload="init(evt)">
<style type="text/css"><![CDATA[
.edge:hover path { stroke: red; }
.edge:hover polygon { stroke: red; fill: red; }
]]></style>
<script type="text/javascript"><![CDATA[
var edges = document.getElementsByTagName('g');
if (edges && edges.length) {
  for (var i=0;i<edges.length;i++) {
    if (edges[i].id.substr(0,4)=='edge') {
      edges[i].setAttribute('class','edge');
    }
  }
}
]]></script>
        <defs>
                <circle id="rim" cx="0" cy="0" r="7"/>
                <circle id="rim2" cx="0" cy="0" r="3.5"/>
                <g id="zoomPlus">
                        <use xlink:href="#rim" fill="#404040">
                                <set attributeName="fill" to="#808080" begin="zoomplus.mouseover" end="zoomplus.mouseout"/>
                        </use>
                        <path d="M-4,0h8M0,-4v8" fill="none" stroke="white" stroke-width="1.5" pointer-events="none"/>
                </g>
                <g id="zoomMin">
                        <use xlink:href="#rim" fill="#404040">
                                <set attributeName="fill" to="#808080" begin="zoomminus.mouseover" end="zoomminus.mouseout"/>
                        </use>
                        <path d="M-4,0h8" fill="none" stroke="white" stroke-width="1.5" pointer-events="none"/>
                </g>
                <g id="dirArrow">
                        <path fill="none" stroke="white" stroke-width="1.5" d="M0,-3.0v7 M-2.5,-0.5L0,-3.0L2.5,-0.5"/>
                </g>
               <g id="resetDef">
                       <use xlink:href="#rim2" fill="#404040">
                               <set attributeName="fill" to="#808080" begin="reset.mouseover" end="reset.mouseout"/>
                       </use>
               </g>
        </defs>

<script type="text/javascript">
var viewWidth = 1440;
var viewHeight = 263;
var sectionId = 'dynsection-0';
</script>
<script xlink:href="svgpan.js"/>
<svg id="graph" class="graph">
<g id="viewport">
<title>backend/plant/NotSellable.h</title>
<polygon fill="white" stroke="transparent" points="-4,4 -4,-259 1436,-259 1436,4 -4,4"/>
<!-- Node1 -->
<g id="node1" class="node">
<title>Node1</title>
<g id="a_node1"><a xlink:title="Concrete state for plants not ready for sale.">
<polygon fill="#bfbfbf" stroke="black" points="99.5,-235.5 99.5,-254.5 252.5,-254.5 252.5,-235.5 99.5,-235.5"/>
<text text-anchor="middle" x="176" y="-242.5" font-family="Helvetica,sans-Serif" font-size="10.00">backend/plant/NotSellable.h</text>
</a>
</g>
</g>
<!-- Node2 -->
<g id="node2" class="node">
<title>Node2</title>
<g id="a_node2"><a xlink:title=" ">
<polygon fill="white" stroke="#bfbfbf" points="0,-6 0,-25 60,-25 60,-6 0,-6"/>
<text text-anchor="middle" x="30" y="-13" font-family="Helvetica,sans-Serif" font-size="10.00">iostream</text>
</a>
</g>
</g>
<!-- Node1&#45;&gt;Node2 -->
<g id="edge1" class="edge">
<title>Node1&#45;&gt;Node2</title>
<path fill="none" stroke="midnightblue" d="M167.95,-235.46C147.01,-212.85 90.07,-148.92 56,-87 46.78,-70.24 39.59,-49.55 35.13,-34.93"/>
<polygon fill="midnightblue" stroke="midnightblue" points="38.43,-33.72 32.27,-25.1 31.71,-35.68 38.43,-33.72"/>
</g>
<!-- Node3 -->
<g id="node3" class="node">
<title>Node3</title>
<g id="a_node3"><a xlink:title=" ">
<polygon fill="white" stroke="#bfbfbf" points="162,-6 162,-25 206,-25 206,-6 162,-6"/>
<text text-anchor="middle" x="184" y="-13" font-family="Helvetica,sans-Serif" font-size="10.00">string</text>
</a>
</g>
</g>
<!-- Node1&#45;&gt;Node3 -->
<g id="edge2" class="edge">
<title>Node1&#45;&gt;Node3</title>
<path fill="none" stroke="midnightblue" d="M176.3,-235.36C177.47,-202.14 181.69,-82.16 183.34,-35.37"/>
<polygon fill="midnightblue" stroke="midnightblue" points="186.84,-35.27 183.7,-25.15 179.85,-35.02 186.84,-35.27"/>
</g>
<!-- Node4 -->
<g id="node4" class="node">
<title>Node4</title>
<g id="a_node4"><a xlink:href="PlantState_8h.html" target="_top" xlink:title="Abstract base class for plant state management.">
<polygon fill="white" stroke="black" points="348,-179.5 348,-198.5 424,-198.5 424,-179.5 348,-179.5"/>
<text text-anchor="middle" x="386" y="-186.5" font-family="Helvetica,sans-Serif" font-size="10.00">PlantState.h</text>
</a>
</g>
</g>
<!-- Node1&#45;&gt;Node4 -->
<g id="edge3" class="edge">
<title>Node1&#45;&gt;Node4</title>
<path fill="none" stroke="midnightblue" d="M209.28,-235.44C245.45,-226.14 303.38,-211.25 342.98,-201.06"/>
<polygon fill="midnightblue" stroke="midnightblue" points="344.07,-204.4 352.88,-198.52 342.32,-197.62 344.07,-204.4"/>
</g>
<!-- Node5 -->
<g id="node5" class="node">
<title>Node5</title>
<g id="a_node5"><a xlink:href="Plant_8h.html" target="_top" xlink:title="Defines the abstract base class for all Plant objects used in the system.">
<polygon fill="white" stroke="black" points="505,-123.5 505,-142.5 555,-142.5 555,-123.5 505,-123.5"/>
<text text-anchor="middle" x="530" y="-130.5" font-family="Helvetica,sans-Serif" font-size="10.00">Plant.h</text>
</a>
</g>
</g>
<!-- Node4&#45;&gt;Node5 -->
<g id="edge4" class="edge">
<title>Node4&#45;&gt;Node5</title>
<path fill="none" stroke="midnightblue" d="M408.82,-179.44C432.83,-170.44 470.83,-156.19 497.87,-146.05"/>
<polygon fill="midnightblue" stroke="midnightblue" points="499.16,-149.3 507.29,-142.52 496.7,-142.75 499.16,-149.3"/>
</g>
<!-- Node5&#45;&gt;Node2 -->
<g id="edge9" class="edge">
<title>Node5&#45;&gt;Node2</title>
<path fill="none" stroke="midnightblue" d="M504.76,-132.14C421.08,-132.2 153.99,-129.01 81,-87 60.4,-75.14 45.86,-51.23 37.71,-34.56"/>
<polygon fill="midnightblue" stroke="midnightblue" points="40.81,-32.92 33.46,-25.29 34.44,-35.84 40.81,-32.92"/>
</g>
<!-- Node5&#45;&gt;Node3 -->
<g id="edge5" class="edge">
<title>Node5&#45;&gt;Node3</title>
<path fill="none" stroke="midnightblue" d="M504.74,-130.72C441.53,-127.11 278.38,-115.25 233,-87 213.09,-74.6 199.14,-50.81 191.35,-34.32"/>
<polygon fill="midnightblue" stroke="midnightblue" points="194.55,-32.88 187.3,-25.16 188.14,-35.72 194.55,-32.88"/>
</g>
<!-- Node6 -->
<g id="node6" class="node">
<title>Node6</title>
<g id="a_node6"><a xlink:title=" ">
<polygon fill="white" stroke="#bfbfbf" points="376,-67.5 376,-86.5 414,-86.5 414,-67.5 376,-67.5"/>
<text text-anchor="middle" x="395" y="-74.5" font-family="Helvetica,sans-Serif" font-size="10.00">map</text>
</a>
</g>
</g>
<!-- Node5&#45;&gt;Node6 -->
<g id="edge6" class="edge">
<title>Node5&#45;&gt;Node6</title>
<path fill="none" stroke="midnightblue" d="M508.61,-123.44C485.64,-114.25 449.02,-99.61 423.59,-89.43"/>
<polygon fill="midnightblue" stroke="midnightblue" points="424.69,-86.11 414.11,-85.64 422.09,-92.61 424.69,-86.11"/>
</g>
<!-- Node7 -->
<g id="node7" class="node">
<title>Node7</title>
<g id="a_node7"><a xlink:title=" ">
<polygon fill="white" stroke="#bfbfbf" points="432.5,-67.5 432.5,-86.5 479.5,-86.5 479.5,-67.5 432.5,-67.5"/>
<text text-anchor="middle" x="456" y="-74.5" font-family="Helvetica,sans-Serif" font-size="10.00">vector</text>
</a>
</g>
</g>
<!-- Node5&#45;&gt;Node7 -->
<g id="edge7" class="edge">
<title>Node5&#45;&gt;Node7</title>
<path fill="none" stroke="midnightblue" d="M518.11,-123.32C506.85,-115.11 489.71,-102.6 476.29,-92.81"/>
<polygon fill="midnightblue" stroke="midnightblue" points="478.25,-89.9 468.11,-86.83 474.12,-95.56 478.25,-89.9"/>
</g>
<!-- Node8 -->
<g id="node8" class="node">
<title>Node8</title>
<g id="a_node8"><a xlink:title=" ">
<polygon fill="white" stroke="#bfbfbf" points="498,-67.5 498,-86.5 562,-86.5 562,-67.5 498,-67.5"/>
<text text-anchor="middle" x="530" y="-74.5" font-family="Helvetica,sans-Serif" font-size="10.00">algorithm</text>
</a>
</g>
</g>
<!-- Node5&#45;&gt;Node8 -->
<g id="edge8" class="edge">
<title>Node5&#45;&gt;Node8</title>
<path fill="none" stroke="midnightblue" d="M530,-123.08C530,-116.01 530,-105.86 530,-96.99"/>
<polygon fill="midnightblue" stroke="midnightblue" points="533.5,-96.75 530,-86.75 526.5,-96.75 533.5,-96.75"/>
</g>
<!-- Node9 -->
<g id="node9" class="node">
<title>Node9</title>
<g id="a_node9"><a xlink:title=" ">
<polygon fill="white" stroke="#bfbfbf" points="580.5,-67.5 580.5,-86.5 693.5,-86.5 693.5,-67.5 580.5,-67.5"/>
<text text-anchor="middle" x="637" y="-74.5" font-family="Helvetica,sans-Serif" font-size="10.00">boost/uuid/uuid.hpp</text>
</a>
</g>
</g>
<!-- Node5&#45;&gt;Node9 -->
<g id="edge10" class="edge">
<title>Node5&#45;&gt;Node9</title>
<path fill="none" stroke="midnightblue" d="M547.19,-123.32C564.35,-114.66 590.95,-101.24 610.75,-91.25"/>
<polygon fill="midnightblue" stroke="midnightblue" points="612.5,-94.28 619.85,-86.65 609.35,-88.04 612.5,-94.28"/>
</g>
<!-- Node10 -->
<g id="node10" class="node">
<title>Node10</title>
<g id="a_node10"><a xlink:title=" ">
<polygon fill="white" stroke="#bfbfbf" points="712,-67.5 712,-86.5 882,-86.5 882,-67.5 712,-67.5"/>
<text text-anchor="middle" x="797" y="-74.5" font-family="Helvetica,sans-Serif" font-size="10.00">boost/uuid/uuid_generators.hpp</text>
</a>
</g>
</g>
<!-- Node5&#45;&gt;Node10 -->
<g id="edge11" class="edge">
<title>Node5&#45;&gt;Node10</title>
<path fill="none" stroke="midnightblue" d="M555.12,-126.92C598.35,-118.18 687.67,-100.11 744.83,-88.55"/>
<polygon fill="midnightblue" stroke="midnightblue" points="745.66,-91.95 754.77,-86.54 744.27,-85.09 745.66,-91.95"/>
</g>
<!-- Node11 -->
<g id="node11" class="node">
<title>Node11</title>
<g id="a_node11"><a xlink:title=" ">
<polygon fill="white" stroke="#bfbfbf" points="900.5,-67.5 900.5,-86.5 1027.5,-86.5 1027.5,-67.5 900.5,-67.5"/>
<text text-anchor="middle" x="964" y="-74.5" font-family="Helvetica,sans-Serif" font-size="10.00">boost/uuid/uuid_io.hpp</text>
</a>
</g>
</g>
<!-- Node5&#45;&gt;Node11 -->
<g id="edge12" class="edge">
<title>Node5&#45;&gt;Node11</title>
<path fill="none" stroke="midnightblue" d="M555.21,-128.86C619.4,-120.88 790.94,-99.53 890.22,-87.18"/>
<polygon fill="midnightblue" stroke="midnightblue" points="890.69,-90.65 900.19,-85.94 889.83,-83.7 890.69,-90.65"/>
</g>
<!-- Node12 -->
<g id="node12" class="node">
<title>Node12</title>
<g id="a_node12"><a xlink:title=" ">
<polygon fill="white" stroke="#bfbfbf" points="1046,-67.5 1046,-86.5 1156,-86.5 1156,-67.5 1046,-67.5"/>
<text text-anchor="middle" x="1101" y="-74.5" font-family="Helvetica,sans-Serif" font-size="10.00">nlohmann/json.hpp</text>
</a>
</g>
</g>
<!-- Node5&#45;&gt;Node12 -->
<g id="edge13" class="edge">
<title>Node5&#45;&gt;Node12</title>
<path fill="none" stroke="midnightblue" d="M555.1,-130.23C627.78,-125.01 844.83,-108.73 1035.92,-87.07"/>
<polygon fill="midnightblue" stroke="midnightblue" points="1036.33,-90.55 1045.86,-85.94 1035.53,-83.59 1036.33,-90.55"/>
</g>
<!-- Node13 -->
<g id="node13" class="node">
<title>Node13</title>
<g id="a_node13"><a xlink:title=" ">
<polygon fill="white" stroke="#bfbfbf" points="1174,-67.5 1174,-86.5 1222,-86.5 1222,-67.5 1174,-67.5"/>
<text text-anchor="middle" x="1198" y="-74.5" font-family="Helvetica,sans-Serif" font-size="10.00">thread</text>
</a>
</g>
</g>
<!-- Node5&#45;&gt;Node13 -->
<g id="edge14" class="edge">
<title>Node5&#45;&gt;Node13</title>
<path fill="none" stroke="midnightblue" d="M555.02,-131.98C639.56,-131.53 922.33,-127.07 1163.95,-86.83"/>
<polygon fill="midnightblue" stroke="midnightblue" points="1164.69,-90.25 1173.97,-85.14 1163.53,-83.35 1164.69,-90.25"/>
</g>
<!-- Node14 -->
<g id="node14" class="node">
<title>Node14</title>
<g id="a_node14"><a xlink:title=" ">
<polygon fill="white" stroke="#bfbfbf" points="1240,-67.5 1240,-86.5 1290,-86.5 1290,-67.5 1240,-67.5"/>
<text text-anchor="middle" x="1265" y="-74.5" font-family="Helvetica,sans-Serif" font-size="10.00">atomic</text>
</a>
</g>
</g>
<!-- Node5&#45;&gt;Node14 -->
<g id="edge15" class="edge">
<title>Node5&#45;&gt;Node14</title>
<path fill="none" stroke="midnightblue" d="M555.03,-132.15C645.14,-132.3 961.35,-129.7 1229.93,-86.84"/>
<polygon fill="midnightblue" stroke="midnightblue" points="1230.55,-90.29 1239.87,-85.24 1229.44,-83.38 1230.55,-90.29"/>
</g>
<!-- Node15 -->
<g id="node15" class="node">
<title>Node15</title>
<g id="a_node15"><a xlink:href="GreenSock_8h.html" target="_top" xlink:title=" ">
<polygon fill="white" stroke="black" points="242,-67.5 242,-86.5 320,-86.5 320,-67.5 242,-67.5"/>
<text text-anchor="middle" x="281" y="-74.5" font-family="Helvetica,sans-Serif" font-size="10.00">GreenSock.h</text>
</a>
</g>
</g>
<!-- Node5&#45;&gt;Node15 -->
<g id="edge16" class="edge">
<title>Node5&#45;&gt;Node15</title>
<path fill="none" stroke="midnightblue" d="M504.75,-126.53C463.87,-117.66 382.46,-100 329.92,-88.61"/>
<polygon fill="midnightblue" stroke="midnightblue" points="330.66,-85.19 320.15,-86.49 329.18,-92.03 330.66,-85.19"/>
</g>
<!-- Node18 -->
<g id="node18" class="node">
<title>Node18</title>
<g id="a_node18"><a xlink:title=" ">
<polygon fill="white" stroke="#bfbfbf" points="508,-6 508,-25 556,-25 556,-6 508,-6"/>
<text text-anchor="middle" x="532" y="-13" font-family="Helvetica,sans-Serif" font-size="10.00">mutex</text>
</a>
</g>
</g>
<!-- Node5&#45;&gt;Node18 -->
<g id="edge28" class="edge">
<title>Node5&#45;&gt;Node18</title>
<path fill="none" stroke="midnightblue" d="M504.7,-130.98C450.31,-127.86 330.02,-115.42 367,-67 403.91,-18.67 441.67,-51.29 499,-31 500.66,-30.41 502.36,-29.78 504.06,-29.11"/>
<polygon fill="midnightblue" stroke="midnightblue" points="505.8,-32.18 513.69,-25.12 503.11,-25.72 505.8,-32.18"/>
</g>
<!-- Node19 -->
<g id="node19" class="node">
<title>Node19</title>
<g id="a_node19"><a xlink:href="Logger_8h.html" target="_top" xlink:title="Header for Strategy Logger interface.">
<polygon fill="white" stroke="black" points="90,-67.5 90,-86.5 148,-86.5 148,-67.5 90,-67.5"/>
<text text-anchor="middle" x="119" y="-74.5" font-family="Helvetica,sans-Serif" font-size="10.00">Logger.h</text>
</a>
</g>
</g>
<!-- Node5&#45;&gt;Node19 -->
<g id="edge22" class="edge">
<title>Node5&#45;&gt;Node19</title>
<path fill="none" stroke="midnightblue" d="M504.91,-128.7C435.71,-119.61 241.79,-94.13 158.18,-83.15"/>
<polygon fill="midnightblue" stroke="midnightblue" points="158.44,-79.65 148.07,-81.82 157.53,-86.59 158.44,-79.65"/>
</g>
<!-- Node21 -->
<g id="node21" class="node">
<title>Node21</title>
<g id="a_node21"><a xlink:title=" ">
<polygon fill="white" stroke="#bfbfbf" points="1308.5,-67.5 1308.5,-86.5 1355.5,-86.5 1355.5,-67.5 1308.5,-67.5"/>
<text text-anchor="middle" x="1332" y="-74.5" font-family="Helvetica,sans-Serif" font-size="10.00">queue</text>
</a>
</g>
</g>
<!-- Node5&#45;&gt;Node21 -->
<g id="edge26" class="edge">
<title>Node5&#45;&gt;Node21</title>
<path fill="none" stroke="midnightblue" d="M555.1,-132.41C650.78,-133.6 1001.64,-134.38 1298.25,-86.73"/>
<polygon fill="midnightblue" stroke="midnightblue" points="1299.03,-90.15 1308.34,-85.09 1297.9,-83.24 1299.03,-90.15"/>
</g>
<!-- Node22 -->
<g id="node22" class="node">
<title>Node22</title>
<g id="a_node22"><a xlink:title=" ">
<polygon fill="white" stroke="#bfbfbf" points="1374,-67.5 1374,-86.5 1432,-86.5 1432,-67.5 1374,-67.5"/>
<text text-anchor="middle" x="1403" y="-74.5" font-family="Helvetica,sans-Serif" font-size="10.00">memory</text>
</a>
</g>
</g>
<!-- Node5&#45;&gt;Node22 -->
<g id="edge27" class="edge">
<title>Node5&#45;&gt;Node22</title>
<path fill="none" stroke="midnightblue" d="M555.09,-132.28C655.72,-133.05 1039.82,-132.74 1363.6,-86.94"/>
<polygon fill="midnightblue" stroke="midnightblue" points="1364.24,-90.38 1373.64,-85.5 1363.25,-83.45 1364.24,-90.38"/>
</g>
<!-- Node15&#45;&gt;Node2 -->
<g id="edge19" class="edge">
<title>Node15&#45;&gt;Node2</title>
<path fill="none" stroke="midnightblue" d="M241.89,-69.48C199.03,-61.92 128.44,-48.26 69,-31 66.36,-30.23 63.64,-29.37 60.93,-28.47"/>
<polygon fill="midnightblue" stroke="midnightblue" points="61.86,-25.08 51.27,-25.05 59.53,-31.68 61.86,-25.08"/>
</g>
<!-- Node15&#45;&gt;Node3 -->
<g id="edge20" class="edge">
<title>Node15&#45;&gt;Node3</title>
<path fill="none" stroke="midnightblue" d="M267.1,-67.48C251.33,-57.8 225.36,-41.87 206.65,-30.39"/>
<polygon fill="midnightblue" stroke="midnightblue" points="208.23,-27.25 197.87,-25.01 204.57,-33.22 208.23,-27.25"/>
</g>
<!-- Node16 -->
<g id="node16" class="node">
<title>Node16</title>
<g id="a_node16"><a xlink:title=" ">
<polygon fill="white" stroke="#bfbfbf" points="224.5,-0.5 224.5,-30.5 337.5,-30.5 337.5,-0.5 224.5,-0.5"/>
<text text-anchor="start" x="232.5" y="-18.5" font-family="Helvetica,sans-Serif" font-size="10.00">websocketpp/config</text>
<text text-anchor="middle" x="281" y="-7.5" font-family="Helvetica,sans-Serif" font-size="10.00">/asio_no_tls.hpp</text>
</a>
</g>
</g>
<!-- Node15&#45;&gt;Node16 -->
<g id="edge17" class="edge">
<title>Node15&#45;&gt;Node16</title>
<path fill="none" stroke="midnightblue" d="M281,-67.48C281,-60.47 281,-50.19 281,-40.7"/>
<polygon fill="midnightblue" stroke="midnightblue" points="284.5,-40.52 281,-30.52 277.5,-40.52 284.5,-40.52"/>
</g>
<!-- Node17 -->
<g id="node17" class="node">
<title>Node17</title>
<g id="a_node17"><a xlink:title=" ">
<polygon fill="white" stroke="#bfbfbf" points="356,-6 356,-25 490,-25 490,-6 356,-6"/>
<text text-anchor="middle" x="423" y="-13" font-family="Helvetica,sans-Serif" font-size="10.00">websocketpp/server.hpp</text>
</a>
</g>
</g>
<!-- Node15&#45;&gt;Node17 -->
<g id="edge18" class="edge">
<title>Node15&#45;&gt;Node17</title>
<path fill="none" stroke="midnightblue" d="M301.35,-67.48C325.39,-57.4 365.6,-40.55 393.16,-29"/>
<polygon fill="midnightblue" stroke="midnightblue" points="394.82,-32.1 402.69,-25.01 392.12,-25.65 394.82,-32.1"/>
</g>
<!-- Node15&#45;&gt;Node18 -->
<g id="edge21" class="edge">
<title>Node15&#45;&gt;Node18</title>
<path fill="none" stroke="midnightblue" d="M320.26,-68.92C373.64,-59.13 466.23,-41.45 499,-31 500.92,-30.39 502.88,-29.7 504.85,-28.96"/>
<polygon fill="midnightblue" stroke="midnightblue" points="506.53,-32.06 514.45,-25.03 503.87,-25.58 506.53,-32.06"/>
</g>
<!-- Node19&#45;&gt;Node2 -->
<g id="edge24" class="edge">
<title>Node19&#45;&gt;Node2</title>
<path fill="none" stroke="midnightblue" d="M106.25,-67.48C91.97,-57.93 68.6,-42.31 51.49,-30.87"/>
<polygon fill="midnightblue" stroke="midnightblue" points="52.99,-27.66 42.73,-25.01 49.1,-33.48 52.99,-27.66"/>
</g>
<!-- Node19&#45;&gt;Node3 -->
<g id="edge23" class="edge">
<title>Node19&#45;&gt;Node3</title>
<path fill="none" stroke="midnightblue" d="M128.31,-67.48C138.45,-58.2 154.86,-43.17 167.25,-31.83"/>
<polygon fill="midnightblue" stroke="midnightblue" points="169.69,-34.34 174.7,-25.01 164.96,-29.18 169.69,-34.34"/>
</g>
<!-- Node20 -->
<g id="node20" class="node">
<title>Node20</title>
<g id="a_node20"><a xlink:title=" ">
<polygon fill="white" stroke="#bfbfbf" points="78.5,-6 78.5,-25 143.5,-25 143.5,-6 78.5,-6"/>
<text text-anchor="middle" x="111" y="-13" font-family="Helvetica,sans-Serif" font-size="10.00">stdexcept</text>
</a>
</g>
</g>
<!-- Node19&#45;&gt;Node20 -->
<g id="edge25" class="edge">
<title>Node19&#45;&gt;Node20</title>
<path fill="none" stroke="midnightblue" d="M117.85,-67.48C116.73,-59.08 114.96,-45.98 113.51,-35.16"/>
<polygon fill="midnightblue" stroke="midnightblue" points="116.95,-34.45 112.14,-25.01 110.01,-35.39 116.95,-34.45"/>
</g>
</g>
</svg>
        <g id="navigator" transform="translate(0 0)" fill="#404254">
                <rect fill="#f2f5e9" fill-opacity="0.5" stroke="#606060" stroke-width=".5" x="0" y="0" width="60" height="60"/>
                <use id="zoomplus" xlink:href="#zoomPlus" x="17" y="9" onmousedown="handleZoom(evt,'in')"/>
                <use id="zoomminus" xlink:href="#zoomMin" x="42" y="9" onmousedown="handleZoom(evt,'out')"/>
                <use id="reset" xlink:href="#resetDef" x="30" y="36" onmousedown="handleReset()"/>
                <g id="arrowUp" xlink:href="#dirArrow" transform="translate(30 24)" onmousedown="handlePan(0,-1)">
                  <use xlink:href="#rim" fill="#404040">
                        <set attributeName="fill" to="#808080" begin="arrowUp.mouseover" end="arrowUp.mouseout"/>
                  </use>
                  <path fill="none" stroke="white" stroke-width="1.5" d="M0,-3.0v7 M-2.5,-0.5L0,-3.0L2.5,-0.5"/>
                </g>
                <g id="arrowRight" xlink:href="#dirArrow" transform="rotate(90) translate(36 -43)" onmousedown="handlePan(1,0)">
                  <use xlink:href="#rim" fill="#404040">
                        <set attributeName="fill" to="#808080" begin="arrowRight.mouseover" end="arrowRight.mouseout"/>
                  </use>
                  <path fill="none" stroke="white" stroke-width="1.5" d="M0,-3.0v7 M-2.5,-0.5L0,-3.0L2.5,-0.5"/>
                </g>
                <g id="arrowDown" xlink:href="#dirArrow" transform="rotate(180) translate(-30 -48)" onmousedown="handlePan(0,1)">
                  <use xlink:href="#rim" fill="#404040">
                        <set attributeName="fill" to="#808080" begin="arrowDown.mouseover" end="arrowDown.mouseout"/>
                  </use>
                  <path fill="none" stroke="white" stroke-width="1.5" d="M0,-3.0v7 M-2.5,-0.5L0,-3.0L2.5,-0.5"/>
                </g>
                <g id="arrowLeft" xlink:href="#dirArrow" transform="rotate(270) translate(-36 17)" onmousedown="handlePan(-1,0)">
                  <use xlink:href="#rim" fill="#404040">
                        <set attributeName="fill" to="#808080" begin="arrowLeft.mouseover" end="arrowLeft.mouseout"/>
                  </use>
                  <path fill="none" stroke="white" stroke-width="1.5" d="M0,-3.0v7 M-2.5,-0.5L0,-3.0L2.5,-0.5"/>
                </g>
        </g>
        <svg viewBox="0 0 15 15" width="100%" height="30px" preserveAspectRatio="xMaxYMin meet">
         <g id="arrow_out" transform="scale(0.3 0.3)">
          <a xlink:href="NotSellable_8h__incl_org.svg" target="_base">
           <rect id="button" ry="5" rx="5" y="6" x="6" height="38" width="38"
                fill="#f2f5e9" fill-opacity="0.5" stroke="#606060" stroke-width="1.0"/>
           <path id="arrow"
             d="M 11.500037,31.436501 C 11.940474,20.09759 22.043105,11.32322 32.158766,21.979434 L 37.068811,17.246167 C 37.068811,17.246167 37.088388,32 37.088388,32 L 22.160133,31.978069 C 22.160133,31.978069 26.997745,27.140456 26.997745,27.140456 C 18.528582,18.264221 13.291696,25.230495 11.500037,31.436501 z"
             style="fill:#404040;"/>
          </a>
         </g>
        </svg>
</svg>
