<?xml version="1.0" encoding="UTF-8" standalone="no"?>
<!DOCTYPE svg PUBLIC "-//W3C//DTD SVG 1.1//EN"
 "http://www.w3.org/Graphics/SVG/1.1/DTD/svg11.dtd">
<!-- Generated by graphviz version 2.43.0 (0)
 -->
<!-- Title: backend/plant/Plant.h Pages: 1 -->
<svg width="1402pt" height="151pt"
 viewBox="0.00 0.00 1402.00 151.00" xmlns="http://www.w3.org/2000/svg" xmlns:xlink="http://www.w3.org/1999/xlink">
<g id="graph0" class="graph" transform="scale(1 1) rotate(0) translate(4 147)">
<title>backend/plant/Plant.h</title>
<polygon fill="white" stroke="transparent" points="-4,4 -4,-147 1398,-147 1398,4 -4,4"/>
<!-- Node1 -->
<g id="node1" class="node">
<title>Node1</title>
<g id="a_node1"><a xlink:title="Defines the abstract base class for all Plant objects used in the system.">
<polygon fill="#bfbfbf" stroke="black" points="484,-123.5 484,-142.5 606,-142.5 606,-123.5 484,-123.5"/>
<text text-anchor="middle" x="545" y="-130.5" font-family="Helvetica,sans-Serif" font-size="10.00">backend/plant/Plant.h</text>
</a>
</g>
</g>
<!-- Node2 -->
<g id="node2" class="node">
<title>Node2</title>
<g id="a_node2"><a xlink:title=" ">
<polygon fill="white" stroke="#bfbfbf" points="0,-6 0,-25 44,-25 44,-6 0,-6"/>
<text text-anchor="middle" x="22" y="-13" font-family="Helvetica,sans-Serif" font-size="10.00">string</text>
</a>
</g>
</g>
<!-- Node1&#45;&gt;Node2 -->
<g id="edge1" class="edge">
<title>Node1&#45;&gt;Node2</title>
<path fill="none" stroke="midnightblue" d="M483.89,-132.63C371.56,-132.76 137.5,-127.92 69,-87 49.32,-75.24 36.18,-51.67 28.91,-35.03"/>
<polygon fill="midnightblue" stroke="midnightblue" points="31.97,-33.24 24.98,-25.28 25.48,-35.87 31.97,-33.24"/>
</g>
<!-- Node3 -->
<g id="node3" class="node">
<title>Node3</title>
<g id="a_node3"><a xlink:title=" ">
<polygon fill="white" stroke="#bfbfbf" points="338,-67.5 338,-86.5 376,-86.5 376,-67.5 338,-67.5"/>
<text text-anchor="middle" x="357" y="-74.5" font-family="Helvetica,sans-Serif" font-size="10.00">map</text>
</a>
</g>
</g>
<!-- Node1&#45;&gt;Node3 -->
<g id="edge2" class="edge">
<title>Node1&#45;&gt;Node3</title>
<path fill="none" stroke="midnightblue" d="M513.86,-123.43C481.75,-114.55 430.28,-100.14 386,-87 385.9,-86.97 385.8,-86.94 385.7,-86.91"/>
<polygon fill="midnightblue" stroke="midnightblue" points="386.6,-83.53 376.01,-83.97 384.57,-90.22 386.6,-83.53"/>
</g>
<!-- Node4 -->
<g id="node4" class="node">
<title>Node4</title>
<g id="a_node4"><a xlink:title=" ">
<polygon fill="white" stroke="#bfbfbf" points="394.5,-67.5 394.5,-86.5 441.5,-86.5 441.5,-67.5 394.5,-67.5"/>
<text text-anchor="middle" x="418" y="-74.5" font-family="Helvetica,sans-Serif" font-size="10.00">vector</text>
</a>
</g>
</g>
<!-- Node1&#45;&gt;Node4 -->
<g id="edge3" class="edge">
<title>Node1&#45;&gt;Node4</title>
<path fill="none" stroke="midnightblue" d="M524.88,-123.44C503.98,-114.56 471.07,-100.56 447.28,-90.45"/>
<polygon fill="midnightblue" stroke="midnightblue" points="448.6,-87.21 438.03,-86.52 445.86,-93.65 448.6,-87.21"/>
</g>
<!-- Node5 -->
<g id="node5" class="node">
<title>Node5</title>
<g id="a_node5"><a xlink:title=" ">
<polygon fill="white" stroke="#bfbfbf" points="460,-67.5 460,-86.5 524,-86.5 524,-67.5 460,-67.5"/>
<text text-anchor="middle" x="492" y="-74.5" font-family="Helvetica,sans-Serif" font-size="10.00">algorithm</text>
</a>
</g>
</g>
<!-- Node1&#45;&gt;Node5 -->
<g id="edge4" class="edge">
<title>Node1&#45;&gt;Node5</title>
<path fill="none" stroke="midnightblue" d="M536.25,-123.08C528.53,-115.22 517.1,-103.57 507.78,-94.08"/>
<polygon fill="midnightblue" stroke="midnightblue" points="510.09,-91.44 500.59,-86.75 505.1,-96.34 510.09,-91.44"/>
</g>
<!-- Node6 -->
<g id="node6" class="node">
<title>Node6</title>
<g id="a_node6"><a xlink:title=" ">
<polygon fill="white" stroke="#bfbfbf" points="146,-6 146,-25 206,-25 206,-6 146,-6"/>
<text text-anchor="middle" x="176" y="-13" font-family="Helvetica,sans-Serif" font-size="10.00">iostream</text>
</a>
</g>
</g>
<!-- Node1&#45;&gt;Node6 -->
<g id="edge5" class="edge">
<title>Node1&#45;&gt;Node6</title>
<path fill="none" stroke="midnightblue" d="M483.97,-132.07C395.31,-130.9 236.88,-123.56 195,-87 180.55,-74.39 176.55,-52.06 175.68,-35.91"/>
<polygon fill="midnightblue" stroke="midnightblue" points="179.18,-35.4 175.51,-25.46 172.18,-35.52 179.18,-35.4"/>
</g>
<!-- Node7 -->
<g id="node7" class="node">
<title>Node7</title>
<g id="a_node7"><a xlink:title=" ">
<polygon fill="white" stroke="#bfbfbf" points="542.5,-67.5 542.5,-86.5 655.5,-86.5 655.5,-67.5 542.5,-67.5"/>
<text text-anchor="middle" x="599" y="-74.5" font-family="Helvetica,sans-Serif" font-size="10.00">boost/uuid/uuid.hpp</text>
</a>
</g>
</g>
<!-- Node1&#45;&gt;Node7 -->
<g id="edge6" class="edge">
<title>Node1&#45;&gt;Node7</title>
<path fill="none" stroke="midnightblue" d="M553.92,-123.08C561.78,-115.22 573.43,-103.57 582.92,-94.08"/>
<polygon fill="midnightblue" stroke="midnightblue" points="585.65,-96.3 590.25,-86.75 580.7,-91.35 585.65,-96.3"/>
</g>
<!-- Node8 -->
<g id="node8" class="node">
<title>Node8</title>
<g id="a_node8"><a xlink:title=" ">
<polygon fill="white" stroke="#bfbfbf" points="674,-67.5 674,-86.5 844,-86.5 844,-67.5 674,-67.5"/>
<text text-anchor="middle" x="759" y="-74.5" font-family="Helvetica,sans-Serif" font-size="10.00">boost/uuid/uuid_generators.hpp</text>
</a>
</g>
</g>
<!-- Node1&#45;&gt;Node8 -->
<g id="edge7" class="edge">
<title>Node1&#45;&gt;Node8</title>
<path fill="none" stroke="midnightblue" d="M578.91,-123.44C615.85,-114.12 675.05,-99.18 715.42,-89"/>
<polygon fill="midnightblue" stroke="midnightblue" points="716.41,-92.36 725.25,-86.52 714.7,-85.57 716.41,-92.36"/>
</g>
<!-- Node9 -->
<g id="node9" class="node">
<title>Node9</title>
<g id="a_node9"><a xlink:title=" ">
<polygon fill="white" stroke="#bfbfbf" points="862.5,-67.5 862.5,-86.5 989.5,-86.5 989.5,-67.5 862.5,-67.5"/>
<text text-anchor="middle" x="926" y="-74.5" font-family="Helvetica,sans-Serif" font-size="10.00">boost/uuid/uuid_io.hpp</text>
</a>
</g>
</g>
<!-- Node1&#45;&gt;Node9 -->
<g id="edge8" class="edge">
<title>Node1&#45;&gt;Node9</title>
<path fill="none" stroke="midnightblue" d="M605.37,-123.44C673.37,-113.81 783.74,-98.16 855.6,-87.98"/>
<polygon fill="midnightblue" stroke="midnightblue" points="856.5,-91.39 865.91,-86.52 855.52,-84.45 856.5,-91.39"/>
</g>
<!-- Node10 -->
<g id="node10" class="node">
<title>Node10</title>
<g id="a_node10"><a xlink:title=" ">
<polygon fill="white" stroke="#bfbfbf" points="1008,-67.5 1008,-86.5 1118,-86.5 1118,-67.5 1008,-67.5"/>
<text text-anchor="middle" x="1063" y="-74.5" font-family="Helvetica,sans-Serif" font-size="10.00">nlohmann/json.hpp</text>
</a>
</g>
</g>
<!-- Node1&#45;&gt;Node10 -->
<g id="edge9" class="edge">
<title>Node1&#45;&gt;Node10</title>
<path fill="none" stroke="midnightblue" d="M606.04,-126.75C691.32,-119.23 851.23,-104.5 997.78,-87.1"/>
<polygon fill="midnightblue" stroke="midnightblue" points="998.35,-90.56 1007.86,-85.9 997.52,-83.61 998.35,-90.56"/>
</g>
<!-- Node11 -->
<g id="node11" class="node">
<title>Node11</title>
<g id="a_node11"><a xlink:title=" ">
<polygon fill="white" stroke="#bfbfbf" points="1136,-67.5 1136,-86.5 1184,-86.5 1184,-67.5 1136,-67.5"/>
<text text-anchor="middle" x="1160" y="-74.5" font-family="Helvetica,sans-Serif" font-size="10.00">thread</text>
</a>
</g>
</g>
<!-- Node1&#45;&gt;Node11 -->
<g id="edge10" class="edge">
<title>Node1&#45;&gt;Node11</title>
<path fill="none" stroke="midnightblue" d="M606.22,-131.06C710.97,-128.63 931.33,-119.9 1125.85,-86.86"/>
<polygon fill="midnightblue" stroke="midnightblue" points="1126.71,-90.27 1135.97,-85.12 1125.52,-83.37 1126.71,-90.27"/>
</g>
<!-- Node12 -->
<g id="node12" class="node">
<title>Node12</title>
<g id="a_node12"><a xlink:title=" ">
<polygon fill="white" stroke="#bfbfbf" points="1202,-67.5 1202,-86.5 1252,-86.5 1252,-67.5 1202,-67.5"/>
<text text-anchor="middle" x="1227" y="-74.5" font-family="Helvetica,sans-Serif" font-size="10.00">atomic</text>
</a>
</g>
</g>
<!-- Node1&#45;&gt;Node12 -->
<g id="edge11" class="edge">
<title>Node1&#45;&gt;Node12</title>
<path fill="none" stroke="midnightblue" d="M606.2,-131.6C719.95,-130.02 971.62,-122.59 1191.74,-86.89"/>
<polygon fill="midnightblue" stroke="midnightblue" points="1192.57,-90.3 1201.86,-85.22 1191.43,-83.39 1192.57,-90.3"/>
</g>
<!-- Node13 -->
<g id="node13" class="node">
<title>Node13</title>
<g id="a_node13"><a xlink:href="GreenSock_8h.html" target="_top" xlink:title=" ">
<polygon fill="white" stroke="black" points="204,-67.5 204,-86.5 282,-86.5 282,-67.5 204,-67.5"/>
<text text-anchor="middle" x="243" y="-74.5" font-family="Helvetica,sans-Serif" font-size="10.00">GreenSock.h</text>
</a>
</g>
</g>
<!-- Node1&#45;&gt;Node13 -->
<g id="edge12" class="edge">
<title>Node1&#45;&gt;Node13</title>
<path fill="none" stroke="midnightblue" d="M497.15,-123.44C441.25,-113.45 349.23,-96.99 292.6,-86.87"/>
<polygon fill="midnightblue" stroke="midnightblue" points="292.91,-83.37 282.45,-85.05 291.68,-90.26 292.91,-83.37"/>
</g>
<!-- Node16 -->
<g id="node16" class="node">
<title>Node16</title>
<g id="a_node16"><a xlink:title=" ">
<polygon fill="white" stroke="#bfbfbf" points="508,-6 508,-25 556,-25 556,-6 508,-6"/>
<text text-anchor="middle" x="532" y="-13" font-family="Helvetica,sans-Serif" font-size="10.00">mutex</text>
</a>
</g>
</g>
<!-- Node1&#45;&gt;Node16 -->
<g id="edge24" class="edge">
<title>Node1&#45;&gt;Node16</title>
<path fill="none" stroke="midnightblue" d="M483.74,-127.69C426.88,-122.26 348.21,-110.63 329,-87 294.56,-44.64 317.44,-89.43 499,-31 500.92,-30.38 502.88,-29.69 504.84,-28.95"/>
<polygon fill="midnightblue" stroke="midnightblue" points="506.52,-32.04 514.45,-25.01 503.87,-25.57 506.52,-32.04"/>
</g>
<!-- Node17 -->
<g id="node17" class="node">
<title>Node17</title>
<g id="a_node17"><a xlink:href="Logger_8h.html" target="_top" xlink:title="Header for Strategy Logger interface.">
<polygon fill="white" stroke="black" points="78,-67.5 78,-86.5 136,-86.5 136,-67.5 78,-67.5"/>
<text text-anchor="middle" x="107" y="-74.5" font-family="Helvetica,sans-Serif" font-size="10.00">Logger.h</text>
</a>
</g>
</g>
<!-- Node1&#45;&gt;Node17 -->
<g id="edge18" class="edge">
<title>Node1&#45;&gt;Node17</title>
<path fill="none" stroke="midnightblue" d="M483.86,-125.68C408.17,-117.66 275.37,-102.93 162,-87 156.86,-86.28 151.46,-85.46 146.14,-84.63"/>
<polygon fill="midnightblue" stroke="midnightblue" points="146.51,-81.14 136.08,-83.01 145.4,-88.05 146.51,-81.14"/>
</g>
<!-- Node19 -->
<g id="node19" class="node">
<title>Node19</title>
<g id="a_node19"><a xlink:title=" ">
<polygon fill="white" stroke="#bfbfbf" points="1270.5,-67.5 1270.5,-86.5 1317.5,-86.5 1317.5,-67.5 1270.5,-67.5"/>
<text text-anchor="middle" x="1294" y="-74.5" font-family="Helvetica,sans-Serif" font-size="10.00">queue</text>
</a>
</g>
</g>
<!-- Node1&#45;&gt;Node19 -->
<g id="edge22" class="edge">
<title>Node1&#45;&gt;Node19</title>
<path fill="none" stroke="midnightblue" d="M606.3,-132.33C729,-132.08 1013.47,-126.96 1260.46,-86.71"/>
<polygon fill="midnightblue" stroke="midnightblue" points="1261.04,-90.16 1270.33,-85.07 1259.9,-83.25 1261.04,-90.16"/>
</g>
<!-- Node20 -->
<g id="node20" class="node">
<title>Node20</title>
<g id="a_node20"><a xlink:title=" ">
<polygon fill="white" stroke="#bfbfbf" points="1336,-67.5 1336,-86.5 1394,-86.5 1394,-67.5 1336,-67.5"/>
<text text-anchor="middle" x="1365" y="-74.5" font-family="Helvetica,sans-Serif" font-size="10.00">memory</text>
</a>
</g>
</g>
<!-- Node1&#45;&gt;Node20 -->
<g id="edge23" class="edge">
<title>Node1&#45;&gt;Node20</title>
<path fill="none" stroke="midnightblue" d="M606.2,-132.11C736.86,-131.56 1052.73,-126.05 1325.55,-86.95"/>
<polygon fill="midnightblue" stroke="midnightblue" points="1326.25,-90.39 1335.64,-85.49 1325.24,-83.46 1326.25,-90.39"/>
</g>
<!-- Node13&#45;&gt;Node2 -->
<g id="edge16" class="edge">
<title>Node13&#45;&gt;Node2</title>
<path fill="none" stroke="midnightblue" d="M203.76,-69.15C164.87,-61.79 103.9,-48.72 53,-31 51.38,-30.44 49.73,-29.81 48.08,-29.16"/>
<polygon fill="midnightblue" stroke="midnightblue" points="49.36,-25.9 38.79,-25.12 46.57,-32.32 49.36,-25.9"/>
</g>
<!-- Node13&#45;&gt;Node6 -->
<g id="edge15" class="edge">
<title>Node13&#45;&gt;Node6</title>
<path fill="none" stroke="midnightblue" d="M233.4,-67.48C222.95,-58.2 206.03,-43.17 193.26,-31.83"/>
<polygon fill="midnightblue" stroke="midnightblue" points="195.38,-29.03 185.58,-25.01 190.73,-34.27 195.38,-29.03"/>
</g>
<!-- Node14 -->
<g id="node14" class="node">
<title>Node14</title>
<g id="a_node14"><a xlink:title=" ">
<polygon fill="white" stroke="#bfbfbf" points="224.5,-0.5 224.5,-30.5 337.5,-30.5 337.5,-0.5 224.5,-0.5"/>
<text text-anchor="start" x="232.5" y="-18.5" font-family="Helvetica,sans-Serif" font-size="10.00">websocketpp/config</text>
<text text-anchor="middle" x="281" y="-7.5" font-family="Helvetica,sans-Serif" font-size="10.00">/asio_no_tls.hpp</text>
</a>
</g>
</g>
<!-- Node13&#45;&gt;Node14 -->
<g id="edge13" class="edge">
<title>Node13&#45;&gt;Node14</title>
<path fill="none" stroke="midnightblue" d="M248.44,-67.48C253.16,-60.09 260.19,-49.08 266.52,-39.17"/>
<polygon fill="midnightblue" stroke="midnightblue" points="269.61,-40.83 272.04,-30.52 263.71,-37.07 269.61,-40.83"/>
</g>
<!-- Node15 -->
<g id="node15" class="node">
<title>Node15</title>
<g id="a_node15"><a xlink:title=" ">
<polygon fill="white" stroke="#bfbfbf" points="356,-6 356,-25 490,-25 490,-6 356,-6"/>
<text text-anchor="middle" x="423" y="-13" font-family="Helvetica,sans-Serif" font-size="10.00">websocketpp/server.hpp</text>
</a>
</g>
</g>
<!-- Node13&#45;&gt;Node15 -->
<g id="edge14" class="edge">
<title>Node13&#45;&gt;Node15</title>
<path fill="none" stroke="midnightblue" d="M268.79,-67.48C299.93,-57.18 352.48,-39.81 387.45,-28.25"/>
<polygon fill="midnightblue" stroke="midnightblue" points="388.86,-31.47 397.26,-25.01 386.66,-24.82 388.86,-31.47"/>
</g>
<!-- Node13&#45;&gt;Node16 -->
<g id="edge17" class="edge">
<title>Node13&#45;&gt;Node16</title>
<path fill="none" stroke="midnightblue" d="M282.03,-69.26C352.41,-57.1 493.82,-32.57 499,-31 500.93,-30.42 502.9,-29.75 504.87,-29.03"/>
<polygon fill="midnightblue" stroke="midnightblue" points="506.53,-32.13 514.48,-25.13 503.9,-25.64 506.53,-32.13"/>
</g>
<!-- Node17&#45;&gt;Node2 -->
<g id="edge19" class="edge">
<title>Node17&#45;&gt;Node2</title>
<path fill="none" stroke="midnightblue" d="M94.82,-67.48C81.19,-57.93 58.87,-42.31 42.53,-30.87"/>
<polygon fill="midnightblue" stroke="midnightblue" points="44.36,-27.88 34.16,-25.01 40.34,-33.61 44.36,-27.88"/>
</g>
<!-- Node17&#45;&gt;Node6 -->
<g id="edge20" class="edge">
<title>Node17&#45;&gt;Node6</title>
<path fill="none" stroke="midnightblue" d="M116.89,-67.48C127.65,-58.2 145.07,-43.17 158.22,-31.83"/>
<polygon fill="midnightblue" stroke="midnightblue" points="160.84,-34.19 166.13,-25.01 156.27,-28.89 160.84,-34.19"/>
</g>
<!-- Node18 -->
<g id="node18" class="node">
<title>Node18</title>
<g id="a_node18"><a xlink:title=" ">
<polygon fill="white" stroke="#bfbfbf" points="62.5,-6 62.5,-25 127.5,-25 127.5,-6 62.5,-6"/>
<text text-anchor="middle" x="95" y="-13" font-family="Helvetica,sans-Serif" font-size="10.00">stdexcept</text>
</a>
</g>
</g>
<!-- Node17&#45;&gt;Node18 -->
<g id="edge21" class="edge">
<title>Node17&#45;&gt;Node18</title>
<path fill="none" stroke="midnightblue" d="M105.28,-67.48C103.57,-58.99 100.89,-45.7 98.7,-34.82"/>
<polygon fill="midnightblue" stroke="midnightblue" points="102.12,-34.12 96.72,-25.01 95.26,-35.5 102.12,-34.12"/>
</g>
</g>
</svg>
