<?xml version="1.0" encoding="UTF-8" standalone="no"?>
<!DOCTYPE svg PUBLIC "-//W3C//DTD SVG 1.1//EN"
 "http://www.w3.org/Graphics/SVG/1.1/DTD/svg11.dtd">
<!-- Generated by graphviz version 2.43.0 (0)
 -->
<!-- Title: backend/plant/Plant.cpp Pages: 1 -->
<svg width="1832pt" height="319pt"
 viewBox="0.00 0.00 1832.05 319.00" xmlns="http://www.w3.org/2000/svg" xmlns:xlink="http://www.w3.org/1999/xlink">
<g id="graph0" class="graph" transform="scale(1 1) rotate(0) translate(4 315)">
<title>backend/plant/Plant.cpp</title>
<polygon fill="white" stroke="transparent" points="-4,4 -4,-315 1828.05,-315 1828.05,4 -4,4"/>
<!-- Node1 -->
<g id="node1" class="node">
<title>Node1</title>
<g id="a_node1"><a xlink:title="Implements the functionality defined in the Plant class.">
<polygon fill="#bfbfbf" stroke="black" points="517.5,-291.5 517.5,-310.5 650.5,-310.5 650.5,-291.5 517.5,-291.5"/>
<text text-anchor="middle" x="584" y="-298.5" font-family="Helvetica,sans-Serif" font-size="10.00">backend/plant/Plant.cpp</text>
</a>
</g>
</g>
<!-- Node2 -->
<g id="node2" class="node">
<title>Node2</title>
<g id="a_node2"><a xlink:href="Plant_8h.html" target="_top" xlink:title="Defines the abstract base class for all Plant objects used in the system.">
<polygon fill="white" stroke="black" points="928,-123.5 928,-142.5 978,-142.5 978,-123.5 928,-123.5"/>
<text text-anchor="middle" x="953" y="-130.5" font-family="Helvetica,sans-Serif" font-size="10.00">Plant.h</text>
</a>
</g>
</g>
<!-- Node1&#45;&gt;Node2 -->
<g id="edge1" class="edge">
<title>Node1&#45;&gt;Node2</title>
<path fill="none" stroke="midnightblue" d="M603.06,-291.42C663.67,-264.16 852.2,-179.35 924.43,-146.85"/>
<polygon fill="midnightblue" stroke="midnightblue" points="926.15,-149.92 933.83,-142.62 923.27,-143.53 926.15,-149.92"/>
</g>
<!-- Node24 -->
<g id="node24" class="node">
<title>Node24</title>
<g id="a_node24"><a xlink:href="NotSellable_8h_source.html" target="_top" xlink:title=" ">
<polygon fill="white" stroke="black" points="543,-235.5 543,-254.5 625,-254.5 625,-235.5 543,-235.5"/>
<text text-anchor="middle" x="584" y="-242.5" font-family="Helvetica,sans-Serif" font-size="10.00">NotSellable.h</text>
</a>
</g>
</g>
<!-- Node1&#45;&gt;Node24 -->
<g id="edge34" class="edge">
<title>Node1&#45;&gt;Node24</title>
<path fill="none" stroke="midnightblue" d="M584,-291.08C584,-284.01 584,-273.86 584,-264.99"/>
<polygon fill="midnightblue" stroke="midnightblue" points="587.5,-264.75 584,-254.75 580.5,-264.75 587.5,-264.75"/>
</g>
<!-- Node26 -->
<g id="node26" class="node">
<title>Node26</title>
<g id="a_node26"><a xlink:href="GreenhouseStaff_8h_source.html" target="_top" xlink:title=" ">
<polygon fill="white" stroke="black" points="410.5,-179.5 410.5,-198.5 517.5,-198.5 517.5,-179.5 410.5,-179.5"/>
<text text-anchor="middle" x="464" y="-186.5" font-family="Helvetica,sans-Serif" font-size="10.00">GreenhouseStaff.h</text>
</a>
</g>
</g>
<!-- Node1&#45;&gt;Node26 -->
<g id="edge39" class="edge">
<title>Node1&#45;&gt;Node26</title>
<path fill="none" stroke="midnightblue" d="M574.37,-291.42C564.28,-282.39 547.96,-267.77 534,-255 515.79,-238.35 495.1,-219.1 480.96,-205.89"/>
<polygon fill="midnightblue" stroke="midnightblue" points="483.16,-203.15 473.47,-198.88 478.38,-208.27 483.16,-203.15"/>
</g>
<!-- Node27 -->
<g id="node27" class="node">
<title>Node27</title>
<g id="a_node27"><a xlink:href="PlantHealth_8h_source.html" target="_top" xlink:title=" ">
<polygon fill="white" stroke="black" points="256.5,-123.5 256.5,-142.5 339.5,-142.5 339.5,-123.5 256.5,-123.5"/>
<text text-anchor="middle" x="298" y="-130.5" font-family="Helvetica,sans-Serif" font-size="10.00">PlantHealth.h</text>
</a>
</g>
</g>
<!-- Node1&#45;&gt;Node27 -->
<g id="edge49" class="edge">
<title>Node1&#45;&gt;Node27</title>
<path fill="none" stroke="midnightblue" d="M567.66,-291.4C535.45,-274.35 461.61,-234.81 401,-199 372.58,-182.21 340.53,-161.73 319.83,-148.3"/>
<polygon fill="midnightblue" stroke="midnightblue" points="321.47,-145.19 311.18,-142.67 317.65,-151.06 321.47,-145.19"/>
</g>
<!-- Node32 -->
<g id="node32" class="node">
<title>Node32</title>
<g id="a_node32"><a xlink:title=" ">
<polygon fill="white" stroke="#bfbfbf" points="744.5,-235.5 744.5,-254.5 791.5,-254.5 791.5,-235.5 744.5,-235.5"/>
<text text-anchor="middle" x="768" y="-242.5" font-family="Helvetica,sans-Serif" font-size="10.00">cmath</text>
</a>
</g>
</g>
<!-- Node1&#45;&gt;Node32 -->
<g id="edge50" class="edge">
<title>Node1&#45;&gt;Node32</title>
<path fill="none" stroke="midnightblue" d="M613.16,-291.44C646.17,-281.75 699.88,-265.99 734.57,-255.81"/>
<polygon fill="midnightblue" stroke="midnightblue" points="735.64,-259.15 744.25,-252.97 733.67,-252.43 735.64,-259.15"/>
</g>
<!-- Node3 -->
<g id="node3" class="node">
<title>Node3</title>
<g id="a_node3"><a xlink:title=" ">
<polygon fill="white" stroke="#bfbfbf" points="614,-6 614,-25 658,-25 658,-6 614,-6"/>
<text text-anchor="middle" x="636" y="-13" font-family="Helvetica,sans-Serif" font-size="10.00">string</text>
</a>
</g>
</g>
<!-- Node2&#45;&gt;Node3 -->
<g id="edge2" class="edge">
<title>Node2&#45;&gt;Node3</title>
<path fill="none" stroke="midnightblue" d="M927.85,-130.53C868.09,-126.62 719.58,-114.34 679,-87 660.47,-74.51 648.56,-51.1 642.09,-34.69"/>
<polygon fill="midnightblue" stroke="midnightblue" points="645.31,-33.31 638.6,-25.11 638.73,-35.7 645.31,-33.31"/>
</g>
<!-- Node4 -->
<g id="node4" class="node">
<title>Node4</title>
<g id="a_node4"><a xlink:title=" ">
<polygon fill="white" stroke="#bfbfbf" points="934,-67.5 934,-86.5 972,-86.5 972,-67.5 934,-67.5"/>
<text text-anchor="middle" x="953" y="-74.5" font-family="Helvetica,sans-Serif" font-size="10.00">map</text>
</a>
</g>
</g>
<!-- Node2&#45;&gt;Node4 -->
<g id="edge3" class="edge">
<title>Node2&#45;&gt;Node4</title>
<path fill="none" stroke="midnightblue" d="M953,-123.08C953,-116.01 953,-105.86 953,-96.99"/>
<polygon fill="midnightblue" stroke="midnightblue" points="956.5,-96.75 953,-86.75 949.5,-96.75 956.5,-96.75"/>
</g>
<!-- Node5 -->
<g id="node5" class="node">
<title>Node5</title>
<g id="a_node5"><a xlink:title=" ">
<polygon fill="white" stroke="#bfbfbf" points="990.5,-67.5 990.5,-86.5 1037.5,-86.5 1037.5,-67.5 990.5,-67.5"/>
<text text-anchor="middle" x="1014" y="-74.5" font-family="Helvetica,sans-Serif" font-size="10.00">vector</text>
</a>
</g>
</g>
<!-- Node2&#45;&gt;Node5 -->
<g id="edge4" class="edge">
<title>Node2&#45;&gt;Node5</title>
<path fill="none" stroke="midnightblue" d="M962.8,-123.32C971.82,-115.34 985.41,-103.31 996.32,-93.65"/>
<polygon fill="midnightblue" stroke="midnightblue" points="998.85,-96.08 1004.02,-86.83 994.21,-90.84 998.85,-96.08"/>
</g>
<!-- Node6 -->
<g id="node6" class="node">
<title>Node6</title>
<g id="a_node6"><a xlink:title=" ">
<polygon fill="white" stroke="#bfbfbf" points="1056,-67.5 1056,-86.5 1120,-86.5 1120,-67.5 1056,-67.5"/>
<text text-anchor="middle" x="1088" y="-74.5" font-family="Helvetica,sans-Serif" font-size="10.00">algorithm</text>
</a>
</g>
</g>
<!-- Node2&#45;&gt;Node6 -->
<g id="edge5" class="edge">
<title>Node2&#45;&gt;Node6</title>
<path fill="none" stroke="midnightblue" d="M974.39,-123.44C996.71,-114.52 1031.9,-100.44 1057.21,-90.32"/>
<polygon fill="midnightblue" stroke="midnightblue" points="1058.72,-93.48 1066.71,-86.52 1056.12,-86.98 1058.72,-93.48"/>
</g>
<!-- Node7 -->
<g id="node7" class="node">
<title>Node7</title>
<g id="a_node7"><a xlink:title=" ">
<polygon fill="white" stroke="#bfbfbf" points="532,-6 532,-25 592,-25 592,-6 532,-6"/>
<text text-anchor="middle" x="562" y="-13" font-family="Helvetica,sans-Serif" font-size="10.00">iostream</text>
</a>
</g>
</g>
<!-- Node2&#45;&gt;Node7 -->
<g id="edge6" class="edge">
<title>Node2&#45;&gt;Node7</title>
<path fill="none" stroke="midnightblue" d="M927.74,-132.2C875.23,-131.77 751.29,-126.27 657,-87 626.04,-74.11 595.93,-48.98 578.18,-32.47"/>
<polygon fill="midnightblue" stroke="midnightblue" points="580.15,-29.52 570.5,-25.15 575.32,-34.59 580.15,-29.52"/>
</g>
<!-- Node8 -->
<g id="node8" class="node">
<title>Node8</title>
<g id="a_node8"><a xlink:title=" ">
<polygon fill="white" stroke="#bfbfbf" points="1138.5,-67.5 1138.5,-86.5 1251.5,-86.5 1251.5,-67.5 1138.5,-67.5"/>
<text text-anchor="middle" x="1195" y="-74.5" font-family="Helvetica,sans-Serif" font-size="10.00">boost/uuid/uuid.hpp</text>
</a>
</g>
</g>
<!-- Node2&#45;&gt;Node8 -->
<g id="edge7" class="edge">
<title>Node2&#45;&gt;Node8</title>
<path fill="none" stroke="midnightblue" d="M978.44,-126.32C1018.29,-117.43 1096.1,-100.07 1146.79,-88.76"/>
<polygon fill="midnightblue" stroke="midnightblue" points="1147.86,-92.1 1156.86,-86.51 1146.34,-85.27 1147.86,-92.1"/>
</g>
<!-- Node9 -->
<g id="node9" class="node">
<title>Node9</title>
<g id="a_node9"><a xlink:title=" ">
<polygon fill="white" stroke="#bfbfbf" points="1270,-67.5 1270,-86.5 1440,-86.5 1440,-67.5 1270,-67.5"/>
<text text-anchor="middle" x="1355" y="-74.5" font-family="Helvetica,sans-Serif" font-size="10.00">boost/uuid/uuid_generators.hpp</text>
</a>
</g>
</g>
<!-- Node2&#45;&gt;Node9 -->
<g id="edge8" class="edge">
<title>Node2&#45;&gt;Node9</title>
<path fill="none" stroke="midnightblue" d="M978.15,-128.62C1037.79,-120.61 1189.68,-100.21 1281.39,-87.89"/>
<polygon fill="midnightblue" stroke="midnightblue" points="1282,-91.34 1291.44,-86.54 1281.06,-84.4 1282,-91.34"/>
</g>
<!-- Node10 -->
<g id="node10" class="node">
<title>Node10</title>
<g id="a_node10"><a xlink:title=" ">
<polygon fill="white" stroke="#bfbfbf" points="1458.5,-67.5 1458.5,-86.5 1585.5,-86.5 1585.5,-67.5 1458.5,-67.5"/>
<text text-anchor="middle" x="1522" y="-74.5" font-family="Helvetica,sans-Serif" font-size="10.00">boost/uuid/uuid_io.hpp</text>
</a>
</g>
</g>
<!-- Node2&#45;&gt;Node10 -->
<g id="edge9" class="edge">
<title>Node2&#45;&gt;Node10</title>
<path fill="none" stroke="midnightblue" d="M978.06,-130.01C1049.59,-124.28 1261.06,-106.92 1448.29,-87.04"/>
<polygon fill="midnightblue" stroke="midnightblue" points="1448.74,-90.52 1458.31,-85.97 1448,-83.55 1448.74,-90.52"/>
</g>
<!-- Node11 -->
<g id="node11" class="node">
<title>Node11</title>
<g id="a_node11"><a xlink:title=" ">
<polygon fill="white" stroke="#bfbfbf" points="1604,-67.5 1604,-86.5 1714,-86.5 1714,-67.5 1604,-67.5"/>
<text text-anchor="middle" x="1659" y="-74.5" font-family="Helvetica,sans-Serif" font-size="10.00">nlohmann/json.hpp</text>
</a>
</g>
</g>
<!-- Node2&#45;&gt;Node11 -->
<g id="edge10" class="edge">
<title>Node2&#45;&gt;Node11</title>
<path fill="none" stroke="midnightblue" d="M978.14,-130.87C1063.12,-126.92 1347.61,-112.6 1593.66,-87.07"/>
<polygon fill="midnightblue" stroke="midnightblue" points="1594.29,-90.52 1603.87,-86 1593.56,-83.56 1594.29,-90.52"/>
</g>
<!-- Node12 -->
<g id="node12" class="node">
<title>Node12</title>
<g id="a_node12"><a xlink:title=" ">
<polygon fill="white" stroke="#bfbfbf" points="887,-6 887,-25 935,-25 935,-6 887,-6"/>
<text text-anchor="middle" x="911" y="-13" font-family="Helvetica,sans-Serif" font-size="10.00">thread</text>
</a>
</g>
</g>
<!-- Node2&#45;&gt;Node12 -->
<g id="edge11" class="edge">
<title>Node2&#45;&gt;Node12</title>
<path fill="none" stroke="midnightblue" d="M946.18,-123.21C939.76,-114.49 930.34,-100.52 925,-87 918.34,-70.15 914.73,-49.74 912.86,-35.22"/>
<polygon fill="midnightblue" stroke="midnightblue" points="916.3,-34.57 911.7,-25.03 909.35,-35.36 916.3,-34.57"/>
</g>
<!-- Node13 -->
<g id="node13" class="node">
<title>Node13</title>
<g id="a_node13"><a xlink:title=" ">
<polygon fill="white" stroke="#bfbfbf" points="1361,-6 1361,-25 1411,-25 1411,-6 1361,-6"/>
<text text-anchor="middle" x="1386" y="-13" font-family="Helvetica,sans-Serif" font-size="10.00">atomic</text>
</a>
</g>
</g>
<!-- Node2&#45;&gt;Node13 -->
<g id="edge12" class="edge">
<title>Node2&#45;&gt;Node13</title>
<path fill="none" stroke="midnightblue" d="M978.28,-131.62C1115.93,-129.45 1770.03,-117.55 1799,-87 1805.12,-80.55 1804.89,-73.66 1799,-67 1774.08,-38.85 1516.54,-23.09 1421.22,-18.18"/>
<polygon fill="midnightblue" stroke="midnightblue" points="1421.37,-14.68 1411.2,-17.67 1421.02,-21.67 1421.37,-14.68"/>
</g>
<!-- Node14 -->
<g id="node14" class="node">
<title>Node14</title>
<g id="a_node14"><a xlink:href="GreenSock_8h.html" target="_top" xlink:title=" ">
<polygon fill="white" stroke="black" points="326,-67.5 326,-86.5 404,-86.5 404,-67.5 326,-67.5"/>
<text text-anchor="middle" x="365" y="-74.5" font-family="Helvetica,sans-Serif" font-size="10.00">GreenSock.h</text>
</a>
</g>
</g>
<!-- Node2&#45;&gt;Node14 -->
<g id="edge13" class="edge">
<title>Node2&#45;&gt;Node14</title>
<path fill="none" stroke="midnightblue" d="M927.73,-129.68C838.03,-121.44 533.8,-93.5 414.03,-82.5"/>
<polygon fill="midnightblue" stroke="midnightblue" points="414.31,-79.01 404.04,-81.58 413.67,-85.98 414.31,-79.01"/>
</g>
<!-- Node17 -->
<g id="node17" class="node">
<title>Node17</title>
<g id="a_node17"><a xlink:title=" ">
<polygon fill="white" stroke="#bfbfbf" points="458,-6 458,-25 506,-25 506,-6 458,-6"/>
<text text-anchor="middle" x="482" y="-13" font-family="Helvetica,sans-Serif" font-size="10.00">mutex</text>
</a>
</g>
</g>
<!-- Node2&#45;&gt;Node17 -->
<g id="edge33" class="edge">
<title>Node2&#45;&gt;Node17</title>
<path fill="none" stroke="midnightblue" d="M927.73,-131.47C871.26,-129.67 731.07,-121.76 620,-87 576.55,-73.4 530.25,-46.98 503.84,-30.62"/>
<polygon fill="midnightblue" stroke="midnightblue" points="505.39,-27.46 495.06,-25.1 501.66,-33.38 505.39,-27.46"/>
</g>
<!-- Node18 -->
<g id="node18" class="node">
<title>Node18</title>
<g id="a_node18"><a xlink:href="Logger_8h.html" target="_top" xlink:title="Header for Strategy Logger.">
<polygon fill="white" stroke="black" points="688,-67.5 688,-86.5 746,-86.5 746,-67.5 688,-67.5"/>
<text text-anchor="middle" x="717" y="-74.5" font-family="Helvetica,sans-Serif" font-size="10.00">Logger.h</text>
</a>
</g>
</g>
<!-- Node2&#45;&gt;Node18 -->
<g id="edge19" class="edge">
<title>Node2&#45;&gt;Node18</title>
<path fill="none" stroke="midnightblue" d="M927.98,-126.39C892.16,-118.34 823.94,-102.95 756.05,-87.23"/>
<polygon fill="midnightblue" stroke="midnightblue" points="756.57,-83.76 746.04,-84.91 754.99,-90.58 756.57,-83.76"/>
</g>
<!-- Node20 -->
<g id="node20" class="node">
<title>Node20</title>
<g id="a_node20"><a xlink:href="ThreadSafeQueue_8h_source.html" target="_top" xlink:title=" ">
<polygon fill="white" stroke="black" points="764.5,-67.5 764.5,-86.5 877.5,-86.5 877.5,-67.5 764.5,-67.5"/>
<text text-anchor="middle" x="821" y="-74.5" font-family="Helvetica,sans-Serif" font-size="10.00">ThreadSafeQueue.h</text>
</a>
</g>
</g>
<!-- Node2&#45;&gt;Node20 -->
<g id="edge23" class="edge">
<title>Node2&#45;&gt;Node20</title>
<path fill="none" stroke="midnightblue" d="M932.08,-123.44C910.26,-114.52 875.85,-100.44 851.11,-90.32"/>
<polygon fill="midnightblue" stroke="midnightblue" points="852.4,-87.06 841.82,-86.52 849.75,-93.54 852.4,-87.06"/>
</g>
<!-- Node21 -->
<g id="node21" class="node">
<title>Node21</title>
<g id="a_node21"><a xlink:title=" ">
<polygon fill="white" stroke="#bfbfbf" points="1633.5,-6 1633.5,-25 1680.5,-25 1680.5,-6 1633.5,-6"/>
<text text-anchor="middle" x="1657" y="-13" font-family="Helvetica,sans-Serif" font-size="10.00">queue</text>
</a>
</g>
</g>
<!-- Node2&#45;&gt;Node21 -->
<g id="edge31" class="edge">
<title>Node2&#45;&gt;Node21</title>
<path fill="none" stroke="midnightblue" d="M978.3,-131.65C1117.55,-129.6 1785.44,-118.15 1815,-87 1854.32,-45.57 1748.04,-26.79 1690.78,-19.87"/>
<polygon fill="midnightblue" stroke="midnightblue" points="1691.03,-16.38 1680.7,-18.71 1690.24,-23.33 1691.03,-16.38"/>
</g>
<!-- Node23 -->
<g id="node23" class="node">
<title>Node23</title>
<g id="a_node23"><a xlink:title=" ">
<polygon fill="white" stroke="#bfbfbf" points="1732,-67.5 1732,-86.5 1790,-86.5 1790,-67.5 1732,-67.5"/>
<text text-anchor="middle" x="1761" y="-74.5" font-family="Helvetica,sans-Serif" font-size="10.00">memory</text>
</a>
</g>
</g>
<!-- Node2&#45;&gt;Node23 -->
<g id="edge32" class="edge">
<title>Node2&#45;&gt;Node23</title>
<path fill="none" stroke="midnightblue" d="M978.09,-132.12C1073.72,-132.22 1424.5,-129.62 1721.54,-86.96"/>
<polygon fill="midnightblue" stroke="midnightblue" points="1722.25,-90.39 1731.64,-85.49 1721.24,-83.46 1722.25,-90.39"/>
</g>
<!-- Node14&#45;&gt;Node3 -->
<g id="edge17" class="edge">
<title>Node14&#45;&gt;Node3</title>
<path fill="none" stroke="midnightblue" d="M404.01,-71.06C451.29,-64.49 533.07,-51.32 601,-31 603.29,-30.32 605.63,-29.54 607.96,-28.7"/>
<polygon fill="midnightblue" stroke="midnightblue" points="609.31,-31.93 617.37,-25.05 606.78,-25.4 609.31,-31.93"/>
</g>
<!-- Node14&#45;&gt;Node7 -->
<g id="edge16" class="edge">
<title>Node14&#45;&gt;Node7</title>
<path fill="none" stroke="midnightblue" d="M393.78,-67.44C423.99,-58.44 472.86,-43.82 515,-31 518.1,-30.06 521.32,-29.07 524.55,-28.08"/>
<polygon fill="midnightblue" stroke="midnightblue" points="525.65,-31.41 534.18,-25.12 523.59,-24.72 525.65,-31.41"/>
</g>
<!-- Node15 -->
<g id="node15" class="node">
<title>Node15</title>
<g id="a_node15"><a xlink:title=" ">
<polygon fill="white" stroke="#bfbfbf" points="167.5,-0.5 167.5,-30.5 280.5,-30.5 280.5,-0.5 167.5,-0.5"/>
<text text-anchor="start" x="175.5" y="-18.5" font-family="Helvetica,sans-Serif" font-size="10.00">websocketpp/config</text>
<text text-anchor="middle" x="224" y="-7.5" font-family="Helvetica,sans-Serif" font-size="10.00">/asio_no_tls.hpp</text>
</a>
</g>
</g>
<!-- Node14&#45;&gt;Node15 -->
<g id="edge14" class="edge">
<title>Node14&#45;&gt;Node15</title>
<path fill="none" stroke="midnightblue" d="M344.8,-67.48C324.45,-58.89 292.44,-45.38 266.49,-34.43"/>
<polygon fill="midnightblue" stroke="midnightblue" points="267.8,-31.19 257.23,-30.52 265.08,-37.64 267.8,-31.19"/>
</g>
<!-- Node16 -->
<g id="node16" class="node">
<title>Node16</title>
<g id="a_node16"><a xlink:title=" ">
<polygon fill="white" stroke="#bfbfbf" points="299,-6 299,-25 433,-25 433,-6 299,-6"/>
<text text-anchor="middle" x="366" y="-13" font-family="Helvetica,sans-Serif" font-size="10.00">websocketpp/server.hpp</text>
</a>
</g>
</g>
<!-- Node14&#45;&gt;Node16 -->
<g id="edge15" class="edge">
<title>Node14&#45;&gt;Node16</title>
<path fill="none" stroke="midnightblue" d="M365.14,-67.48C365.28,-59.08 365.5,-45.98 365.69,-35.16"/>
<polygon fill="midnightblue" stroke="midnightblue" points="369.19,-35.07 365.86,-25.01 362.19,-34.95 369.19,-35.07"/>
</g>
<!-- Node14&#45;&gt;Node17 -->
<g id="edge18" class="edge">
<title>Node14&#45;&gt;Node17</title>
<path fill="none" stroke="midnightblue" d="M381.76,-67.48C401.22,-57.58 433.55,-41.14 456.21,-29.62"/>
<polygon fill="midnightblue" stroke="midnightblue" points="457.94,-32.66 465.27,-25.01 454.77,-26.42 457.94,-32.66"/>
</g>
<!-- Node18&#45;&gt;Node3 -->
<g id="edge20" class="edge">
<title>Node18&#45;&gt;Node3</title>
<path fill="none" stroke="midnightblue" d="M705.39,-67.48C692.52,-58.02 671.53,-42.6 655.99,-31.19"/>
<polygon fill="midnightblue" stroke="midnightblue" points="657.72,-28.11 647.58,-25.01 653.57,-33.75 657.72,-28.11"/>
</g>
<!-- Node18&#45;&gt;Node7 -->
<g id="edge21" class="edge">
<title>Node18&#45;&gt;Node7</title>
<path fill="none" stroke="midnightblue" d="M694.79,-67.48C668.32,-57.31 623.89,-40.26 593.78,-28.7"/>
<polygon fill="midnightblue" stroke="midnightblue" points="594.76,-25.33 584.17,-25.01 592.25,-31.86 594.76,-25.33"/>
</g>
<!-- Node19 -->
<g id="node19" class="node">
<title>Node19</title>
<g id="a_node19"><a xlink:title=" ">
<polygon fill="white" stroke="#bfbfbf" points="678.5,-6 678.5,-25 743.5,-25 743.5,-6 678.5,-6"/>
<text text-anchor="middle" x="711" y="-13" font-family="Helvetica,sans-Serif" font-size="10.00">stdexcept</text>
</a>
</g>
</g>
<!-- Node18&#45;&gt;Node19 -->
<g id="edge22" class="edge">
<title>Node18&#45;&gt;Node19</title>
<path fill="none" stroke="midnightblue" d="M716.14,-67.48C715.29,-59.08 713.97,-45.98 712.88,-35.16"/>
<polygon fill="midnightblue" stroke="midnightblue" points="716.34,-34.61 711.86,-25.01 709.38,-35.31 716.34,-34.61"/>
</g>
<!-- Node20&#45;&gt;Node3 -->
<g id="edge29" class="edge">
<title>Node20&#45;&gt;Node3</title>
<path fill="none" stroke="midnightblue" d="M787.7,-67.44C756.64,-59.15 709.19,-45.71 669,-31 667.34,-30.39 665.65,-29.75 663.95,-29.07"/>
<polygon fill="midnightblue" stroke="midnightblue" points="664.91,-25.68 654.33,-25.05 662.21,-32.13 664.91,-25.68"/>
</g>
<!-- Node20&#45;&gt;Node7 -->
<g id="edge24" class="edge">
<title>Node20&#45;&gt;Node7</title>
<path fill="none" stroke="midnightblue" d="M771.7,-67.47C727.66,-59.44 661.56,-46.37 605,-31 601.98,-30.18 598.86,-29.26 595.75,-28.3"/>
<polygon fill="midnightblue" stroke="midnightblue" points="596.54,-24.88 585.95,-25.14 594.39,-31.54 596.54,-24.88"/>
</g>
<!-- Node20&#45;&gt;Node12 -->
<g id="edge25" class="edge">
<title>Node20&#45;&gt;Node12</title>
<path fill="none" stroke="midnightblue" d="M833.89,-67.48C848.46,-57.84 872.4,-42.02 889.75,-30.55"/>
<polygon fill="midnightblue" stroke="midnightblue" points="891.72,-33.44 898.13,-25.01 887.86,-27.6 891.72,-33.44"/>
</g>
<!-- Node20&#45;&gt;Node13 -->
<g id="edge30" class="edge">
<title>Node20&#45;&gt;Node13</title>
<path fill="none" stroke="midnightblue" d="M877.5,-70.05C993.6,-57.82 1256.06,-30.18 1350.94,-20.19"/>
<polygon fill="midnightblue" stroke="midnightblue" points="1351.31,-23.67 1360.89,-19.14 1350.58,-16.71 1351.31,-23.67"/>
</g>
<!-- Node20&#45;&gt;Node17 -->
<g id="edge27" class="edge">
<title>Node20&#45;&gt;Node17</title>
<path fill="none" stroke="midnightblue" d="M764.17,-68.01C684.27,-56.69 545.87,-36.72 523,-31 519.95,-30.24 516.8,-29.34 513.68,-28.37"/>
<polygon fill="midnightblue" stroke="midnightblue" points="514.49,-24.95 503.89,-25.11 512.27,-31.59 514.49,-24.95"/>
</g>
<!-- Node20&#45;&gt;Node21 -->
<g id="edge26" class="edge">
<title>Node20&#45;&gt;Node21</title>
<path fill="none" stroke="midnightblue" d="M877.66,-70.92C893.02,-69.59 909.64,-68.19 925,-67 1193.93,-46.09 1518.8,-25.22 1623.06,-18.63"/>
<polygon fill="midnightblue" stroke="midnightblue" points="1623.53,-22.11 1633.29,-17.98 1623.09,-15.12 1623.53,-22.11"/>
</g>
<!-- Node22 -->
<g id="node22" class="node">
<title>Node22</title>
<g id="a_node22"><a xlink:title=" ">
<polygon fill="white" stroke="#bfbfbf" points="761.5,-6 761.5,-25 868.5,-25 868.5,-6 761.5,-6"/>
<text text-anchor="middle" x="815" y="-13" font-family="Helvetica,sans-Serif" font-size="10.00">condition_variable</text>
</a>
</g>
</g>
<!-- Node20&#45;&gt;Node22 -->
<g id="edge28" class="edge">
<title>Node20&#45;&gt;Node22</title>
<path fill="none" stroke="midnightblue" d="M820.14,-67.48C819.29,-59.08 817.97,-45.98 816.88,-35.16"/>
<polygon fill="midnightblue" stroke="midnightblue" points="820.34,-34.61 815.86,-25.01 813.38,-35.31 820.34,-34.61"/>
</g>
<!-- Node24&#45;&gt;Node3 -->
<g id="edge36" class="edge">
<title>Node24&#45;&gt;Node3</title>
<path fill="none" stroke="midnightblue" d="M585.97,-235.36C593.58,-202.07 621.11,-81.65 631.75,-35.07"/>
<polygon fill="midnightblue" stroke="midnightblue" points="635.21,-35.68 634.02,-25.15 628.38,-34.12 635.21,-35.68"/>
</g>
<!-- Node24&#45;&gt;Node7 -->
<g id="edge35" class="edge">
<title>Node24&#45;&gt;Node7</title>
<path fill="none" stroke="midnightblue" d="M580.52,-235.2C577.16,-226.25 572.25,-211.9 570,-199 559.71,-140.03 560.25,-68.81 561.24,-35.46"/>
<polygon fill="midnightblue" stroke="midnightblue" points="564.74,-35.44 561.59,-25.32 557.74,-35.2 564.74,-35.44"/>
</g>
<!-- Node25 -->
<g id="node25" class="node">
<title>Node25</title>
<g id="a_node25"><a xlink:href="PlantState_8h_source.html" target="_top" xlink:title=" ">
<polygon fill="white" stroke="black" points="612,-179.5 612,-198.5 688,-198.5 688,-179.5 612,-179.5"/>
<text text-anchor="middle" x="650" y="-186.5" font-family="Helvetica,sans-Serif" font-size="10.00">PlantState.h</text>
</a>
</g>
</g>
<!-- Node24&#45;&gt;Node25 -->
<g id="edge37" class="edge">
<title>Node24&#45;&gt;Node25</title>
<path fill="none" stroke="midnightblue" d="M594.6,-235.32C604.46,-227.26 619.35,-215.08 631.22,-205.37"/>
<polygon fill="midnightblue" stroke="midnightblue" points="633.68,-207.88 639.2,-198.83 629.25,-202.46 633.68,-207.88"/>
</g>
<!-- Node25&#45;&gt;Node2 -->
<g id="edge38" class="edge">
<title>Node25&#45;&gt;Node2</title>
<path fill="none" stroke="midnightblue" d="M688.07,-181.22C747.17,-170.68 860.17,-150.54 917.6,-140.31"/>
<polygon fill="midnightblue" stroke="midnightblue" points="918.42,-143.72 927.65,-138.52 917.2,-136.83 918.42,-143.72"/>
</g>
<!-- Node26&#45;&gt;Node3 -->
<g id="edge40" class="edge">
<title>Node26&#45;&gt;Node3</title>
<path fill="none" stroke="midnightblue" d="M470.66,-179.27C486.63,-158.6 528.81,-105.55 570,-67 584.04,-53.86 601.34,-40.72 614.71,-31.14"/>
<polygon fill="midnightblue" stroke="midnightblue" points="617.09,-33.74 623.25,-25.11 613.06,-28.02 617.09,-33.74"/>
</g>
<!-- Node26&#45;&gt;Node27 -->
<g id="edge41" class="edge">
<title>Node26&#45;&gt;Node27</title>
<path fill="none" stroke="midnightblue" d="M437.7,-179.44C409.65,-170.32 365.06,-155.81 333.82,-145.65"/>
<polygon fill="midnightblue" stroke="midnightblue" points="334.77,-142.28 324.18,-142.52 332.61,-148.94 334.77,-142.28"/>
</g>
<!-- Node27&#45;&gt;Node7 -->
<g id="edge42" class="edge">
<title>Node27&#45;&gt;Node7</title>
<path fill="none" stroke="midnightblue" d="M321.1,-123.5C344.46,-114.77 381.51,-100.59 413,-87 424.93,-81.85 494.92,-48.53 534.59,-29.6"/>
<polygon fill="midnightblue" stroke="midnightblue" points="536.45,-32.58 543.97,-25.12 533.43,-26.27 536.45,-32.58"/>
</g>
<!-- Node27&#45;&gt;Node14 -->
<g id="edge46" class="edge">
<title>Node27&#45;&gt;Node14</title>
<path fill="none" stroke="midnightblue" d="M308.76,-123.32C318.77,-115.26 333.89,-103.08 345.93,-93.37"/>
<polygon fill="midnightblue" stroke="midnightblue" points="348.45,-95.83 354.04,-86.83 344.06,-90.38 348.45,-95.83"/>
</g>
<!-- Node27&#45;&gt;Node17 -->
<g id="edge43" class="edge">
<title>Node27&#45;&gt;Node17</title>
<path fill="none" stroke="midnightblue" d="M298.03,-123.09C298.56,-109.17 301.67,-82.27 317,-67 357.96,-26.2 387.01,-48.86 442,-31 444.55,-30.17 447.17,-29.29 449.81,-28.38"/>
<polygon fill="midnightblue" stroke="midnightblue" points="450.98,-31.68 459.25,-25.05 448.65,-25.08 450.98,-31.68"/>
</g>
<!-- Node28 -->
<g id="node28" class="node">
<title>Node28</title>
<g id="a_node28"><a xlink:title=" ">
<polygon fill="white" stroke="#bfbfbf" points="0,-67.5 0,-86.5 50,-86.5 50,-67.5 0,-67.5"/>
<text text-anchor="middle" x="25" y="-74.5" font-family="Helvetica,sans-Serif" font-size="10.00">chrono</text>
</a>
</g>
</g>
<!-- Node27&#45;&gt;Node28 -->
<g id="edge44" class="edge">
<title>Node27&#45;&gt;Node28</title>
<path fill="none" stroke="midnightblue" d="M256.36,-125.11C210.58,-117.32 134.65,-103.78 60.22,-87.15"/>
<polygon fill="midnightblue" stroke="midnightblue" points="60.73,-83.68 50.2,-84.89 59.19,-90.5 60.73,-83.68"/>
</g>
<!-- Node29 -->
<g id="node29" class="node">
<title>Node29</title>
<g id="a_node29"><a xlink:title=" ">
<polygon fill="white" stroke="#bfbfbf" points="68,-67.5 68,-86.5 122,-86.5 122,-67.5 68,-67.5"/>
<text text-anchor="middle" x="95" y="-74.5" font-family="Helvetica,sans-Serif" font-size="10.00">random</text>
</a>
</g>
</g>
<!-- Node27&#45;&gt;Node29 -->
<g id="edge45" class="edge">
<title>Node27&#45;&gt;Node29</title>
<path fill="none" stroke="midnightblue" d="M265.83,-123.44C229.4,-113.75 170.14,-97.99 131.87,-87.81"/>
<polygon fill="midnightblue" stroke="midnightblue" points="132.71,-84.41 122.14,-85.22 130.91,-91.17 132.71,-84.41"/>
</g>
<!-- Node30 -->
<g id="node30" class="node">
<title>Node30</title>
<g id="a_node30"><a xlink:title=" ">
<polygon fill="white" stroke="#bfbfbf" points="140,-67.5 140,-86.5 196,-86.5 196,-67.5 140,-67.5"/>
<text text-anchor="middle" x="168" y="-74.5" font-family="Helvetica,sans-Serif" font-size="10.00">sstream</text>
</a>
</g>
</g>
<!-- Node27&#45;&gt;Node30 -->
<g id="edge47" class="edge">
<title>Node27&#45;&gt;Node30</title>
<path fill="none" stroke="midnightblue" d="M277.4,-123.44C256.01,-114.56 222.32,-100.56 197.98,-90.45"/>
<polygon fill="midnightblue" stroke="midnightblue" points="199.08,-87.12 188.5,-86.52 196.39,-93.58 199.08,-87.12"/>
</g>
<!-- Node31 -->
<g id="node31" class="node">
<title>Node31</title>
<g id="a_node31"><a xlink:title=" ">
<polygon fill="white" stroke="#bfbfbf" points="214,-67.5 214,-86.5 270,-86.5 270,-67.5 214,-67.5"/>
<text text-anchor="middle" x="242" y="-74.5" font-family="Helvetica,sans-Serif" font-size="10.00">iomanip</text>
</a>
</g>
</g>
<!-- Node27&#45;&gt;Node31 -->
<g id="edge48" class="edge">
<title>Node27&#45;&gt;Node31</title>
<path fill="none" stroke="midnightblue" d="M289,-123.32C280.81,-115.42 268.49,-103.55 258.53,-93.94"/>
<polygon fill="midnightblue" stroke="midnightblue" points="260.79,-91.26 251.16,-86.83 255.93,-96.29 260.79,-91.26"/>
</g>
</g>
</svg>
