<?xml version="1.0" encoding="UTF-8" standalone="no"?>
<!DOCTYPE svg PUBLIC "-//W3C//DTD SVG 1.1//EN"
 "http://www.w3.org/Graphics/SVG/1.1/DTD/svg11.dtd">
<!-- Generated by graphviz version 2.43.0 (0)
 -->
<!-- Title: backend/plant/PlantHealth.h Pages: 1 -->
<!--zoomable 576 -->
<svg id="main" version="1.1" xmlns="http://www.w3.org/2000/svg" xmlns:xlink="http://www.w3.org/1999/xlink" xml:space="preserve" onload="init(evt)">
<style type="text/css"><![CDATA[
.edge:hover path { stroke: red; }
.edge:hover polygon { stroke: red; fill: red; }
]]></style>
<script type="text/javascript"><![CDATA[
var edges = document.getElementsByTagName('g');
if (edges && edges.length) {
  for (var i=0;i<edges.length;i++) {
    if (edges[i].id.substr(0,4)=='edge') {
      edges[i].setAttribute('class','edge');
    }
  }
}
]]></script>
        <defs>
                <circle id="rim" cx="0" cy="0" r="7"/>
                <circle id="rim2" cx="0" cy="0" r="3.5"/>
                <g id="zoomPlus">
                        <use xlink:href="#rim" fill="#404040">
                                <set attributeName="fill" to="#808080" begin="zoomplus.mouseover" end="zoomplus.mouseout"/>
                        </use>
                        <path d="M-4,0h8M0,-4v8" fill="none" stroke="white" stroke-width="1.5" pointer-events="none"/>
                </g>
                <g id="zoomMin">
                        <use xlink:href="#rim" fill="#404040">
                                <set attributeName="fill" to="#808080" begin="zoomminus.mouseover" end="zoomminus.mouseout"/>
                        </use>
                        <path d="M-4,0h8" fill="none" stroke="white" stroke-width="1.5" pointer-events="none"/>
                </g>
                <g id="dirArrow">
                        <path fill="none" stroke="white" stroke-width="1.5" d="M0,-3.0v7 M-2.5,-0.5L0,-3.0L2.5,-0.5"/>
                </g>
               <g id="resetDef">
                       <use xlink:href="#rim2" fill="#404040">
                               <set attributeName="fill" to="#808080" begin="reset.mouseover" end="reset.mouseout"/>
                       </use>
               </g>
        </defs>

<script type="text/javascript">
var viewWidth = 940;
var viewHeight = 576;
var sectionId = 'dynsection-1';
</script>
<script xlink:href="svgpan.js"/>
<svg id="graph" class="graph">
<g id="viewport">
<title>backend/plant/PlantHealth.h</title>
<polygon fill="white" stroke="transparent" points="-4,4 -4,-572 935.5,-572 935.5,4 -4,4"/>
<!-- Node1 -->
<g id="node1" class="node">
<title>Node1</title>
<g id="a_node1"><a xlink:title="Health management system for plant lifecycle and care requirements.">
<polygon fill="#bfbfbf" stroke="black" points="464.5,-548.5 464.5,-567.5 618.5,-567.5 618.5,-548.5 464.5,-548.5"/>
<text text-anchor="middle" x="541.5" y="-555.5" font-family="Helvetica,sans-Serif" font-size="10.00">backend/plant/PlantHealth.h</text>
</a>
</g>
</g>
<!-- Node2 -->
<g id="node2" class="node">
<title>Node2</title>
<g id="a_node2"><a xlink:href="GreenhouseStaff_8h.html" target="_top" xlink:title="Abstract base class for greenhouse staff observers.">
<polygon fill="white" stroke="black" points="270,-481.5 270,-511.5 387,-511.5 387,-481.5 270,-481.5"/>
<text text-anchor="start" x="278" y="-499.5" font-family="Helvetica,sans-Serif" font-size="10.00">backend/greenhouse</text>
<text text-anchor="middle" x="328.5" y="-488.5" font-family="Helvetica,sans-Serif" font-size="10.00">/GreenhouseStaff.h</text>
</a>
</g>
</g>
<!-- Node1&#45;&gt;Node2 -->
<g id="edge1" class="edge">
<title>Node1&#45;&gt;Node2</title>
<path fill="none" stroke="midnightblue" d="M501.17,-545.73C466.41,-536.02 416.07,-521.96 378.7,-511.52"/>
<polygon fill="midnightblue" stroke="midnightblue" points="500.41,-549.16 510.98,-548.48 502.29,-542.41 500.41,-549.16"/>
</g>
<!-- Node15 -->
<g id="node15" class="node">
<title>Node15</title>
<g id="a_node15"><a xlink:href="Plant_8cpp.html" target="_top" xlink:title="Implements the functionality defined in the Plant class.">
<polygon fill="white" stroke="black" points="405,-420 405,-439 538,-439 538,-420 405,-420"/>
<text text-anchor="middle" x="471.5" y="-427" font-family="Helvetica,sans-Serif" font-size="10.00">backend/plant/Plant.cpp</text>
</a>
</g>
</g>
<!-- Node1&#45;&gt;Node15 -->
<g id="edge19" class="edge">
<title>Node1&#45;&gt;Node15</title>
<path fill="none" stroke="midnightblue" d="M502.29,-544.46C487.08,-537.46 471.24,-527.03 462.5,-512 448.84,-488.49 460.57,-454.7 467.41,-439.05"/>
<polygon fill="midnightblue" stroke="midnightblue" points="501.04,-547.73 511.62,-548.39 503.76,-541.28 501.04,-547.73"/>
</g>
<!-- Node16 -->
<g id="node16" class="node">
<title>Node16</title>
<g id="a_node16"><a xlink:href="Flower_8cpp.html" target="_top" xlink:title="Implements the functionality defined in the Flower class.">
<polygon fill="white" stroke="black" points="471.5,-487 471.5,-506 611.5,-506 611.5,-487 471.5,-487"/>
<text text-anchor="middle" x="541.5" y="-494" font-family="Helvetica,sans-Serif" font-size="10.00">backend/plant/Flower.cpp</text>
</a>
</g>
</g>
<!-- Node1&#45;&gt;Node16 -->
<g id="edge18" class="edge">
<title>Node1&#45;&gt;Node16</title>
<path fill="none" stroke="midnightblue" d="M541.5,-538.32C541.5,-527.5 541.5,-514.4 541.5,-506.01"/>
<polygon fill="midnightblue" stroke="midnightblue" points="538,-538.48 541.5,-548.48 545,-538.48 538,-538.48"/>
</g>
<!-- Node17 -->
<g id="node17" class="node">
<title>Node17</title>
<g id="a_node17"><a xlink:href="Succulent_8cpp.html" target="_top" xlink:title="Implements the functionality defined in the Succulent class.">
<polygon fill="white" stroke="black" points="630,-487 630,-506 785,-506 785,-487 630,-487"/>
<text text-anchor="middle" x="707.5" y="-494" font-family="Helvetica,sans-Serif" font-size="10.00">backend/plant/Succulent.cpp</text>
</a>
</g>
</g>
<!-- Node1&#45;&gt;Node17 -->
<g id="edge20" class="edge">
<title>Node1&#45;&gt;Node17</title>
<path fill="none" stroke="midnightblue" d="M574.75,-545.08C607.02,-533.52 655.18,-516.25 683.76,-506.01"/>
<polygon fill="midnightblue" stroke="midnightblue" points="573.52,-541.81 565.28,-548.48 575.88,-548.4 573.52,-541.81"/>
</g>
<!-- Node18 -->
<g id="node18" class="node">
<title>Node18</title>
<g id="a_node18"><a xlink:href="Tree_8cpp.html" target="_top" xlink:title="Implements the functionality defined in the Tree class.">
<polygon fill="white" stroke="black" points="803.5,-487 803.5,-506 931.5,-506 931.5,-487 803.5,-487"/>
<text text-anchor="middle" x="867.5" y="-494" font-family="Helvetica,sans-Serif" font-size="10.00">backend/plant/Tree.cpp</text>
</a>
</g>
</g>
<!-- Node1&#45;&gt;Node18 -->
<g id="edge21" class="edge">
<title>Node1&#45;&gt;Node18</title>
<path fill="none" stroke="midnightblue" d="M600.92,-546.78C652.23,-537.87 728.32,-524.46 794.5,-512 804.53,-510.11 815.32,-508.01 825.45,-506"/>
<polygon fill="midnightblue" stroke="midnightblue" points="600.26,-543.34 591,-548.5 601.45,-550.24 600.26,-543.34"/>
</g>
<!-- Node3 -->
<g id="node3" class="node">
<title>Node3</title>
<g id="a_node3"><a xlink:href="FertilizerStaff_8h.html" target="_top" xlink:title="Concrete observer for fertilizing staff in greenhouse.">
<polygon fill="white" stroke="black" points="0,-414.5 0,-444.5 117,-444.5 117,-414.5 0,-414.5"/>
<text text-anchor="start" x="8" y="-432.5" font-family="Helvetica,sans-Serif" font-size="10.00">backend/greenhouse</text>
<text text-anchor="middle" x="58.5" y="-421.5" font-family="Helvetica,sans-Serif" font-size="10.00">/FertilizerStaff.h</text>
</a>
</g>
</g>
<!-- Node2&#45;&gt;Node3 -->
<g id="edge2" class="edge">
<title>Node2&#45;&gt;Node3</title>
<path fill="none" stroke="midnightblue" d="M260.45,-479.12C216.27,-468.48 159.28,-454.76 117.11,-444.61"/>
<polygon fill="midnightblue" stroke="midnightblue" points="259.7,-482.54 270.25,-481.48 261.34,-475.73 259.7,-482.54"/>
</g>
<!-- Node4 -->
<g id="node4" class="node">
<title>Node4</title>
<g id="a_node4"><a xlink:href="PruningStaff_8h.html" target="_top" xlink:title="Concrete observer for pruning staff in greenhouse.">
<polygon fill="white" stroke="black" points="135,-414.5 135,-444.5 252,-444.5 252,-414.5 135,-414.5"/>
<text text-anchor="start" x="143" y="-432.5" font-family="Helvetica,sans-Serif" font-size="10.00">backend/greenhouse</text>
<text text-anchor="middle" x="193.5" y="-421.5" font-family="Helvetica,sans-Serif" font-size="10.00">/PruningStaff.h</text>
</a>
</g>
</g>
<!-- Node2&#45;&gt;Node4 -->
<g id="edge3" class="edge">
<title>Node2&#45;&gt;Node4</title>
<path fill="none" stroke="midnightblue" d="M290.06,-476.99C268.66,-466.69 242.45,-454.07 222.74,-444.58"/>
<polygon fill="midnightblue" stroke="midnightblue" points="288.68,-480.21 299.21,-481.4 291.72,-473.9 288.68,-480.21"/>
</g>
<!-- Node14 -->
<g id="node14" class="node">
<title>Node14</title>
<g id="a_node14"><a xlink:href="WaterStaff_8h.html" target="_top" xlink:title="Concrete observer for watering staff in greenhouse.">
<polygon fill="white" stroke="black" points="270,-414.5 270,-444.5 387,-444.5 387,-414.5 270,-414.5"/>
<text text-anchor="start" x="278" y="-432.5" font-family="Helvetica,sans-Serif" font-size="10.00">backend/greenhouse</text>
<text text-anchor="middle" x="328.5" y="-421.5" font-family="Helvetica,sans-Serif" font-size="10.00">/WaterStaff.h</text>
</a>
</g>
</g>
<!-- Node2&#45;&gt;Node14 -->
<g id="edge16" class="edge">
<title>Node2&#45;&gt;Node14</title>
<path fill="none" stroke="midnightblue" d="M328.5,-471.11C328.5,-462.15 328.5,-452.32 328.5,-444.58"/>
<polygon fill="midnightblue" stroke="midnightblue" points="325,-471.4 328.5,-481.4 332,-471.4 325,-471.4"/>
</g>
<!-- Node2&#45;&gt;Node15 -->
<g id="edge17" class="edge">
<title>Node2&#45;&gt;Node15</title>
<path fill="none" stroke="midnightblue" d="M368.91,-477.13C396.43,-464.62 431.59,-448.64 452.78,-439.01"/>
<polygon fill="midnightblue" stroke="midnightblue" points="367.18,-474.07 359.53,-481.4 370.08,-480.44 367.18,-474.07"/>
</g>
<!-- Node5 -->
<g id="node5" class="node">
<title>Node5</title>
<g id="a_node5"><a xlink:href="Greenhouse_8h.html" target="_top" xlink:title="Main greenhouse class managing plant inventory and staff.">
<polygon fill="white" stroke="black" points="135,-347.5 135,-377.5 252,-377.5 252,-347.5 135,-347.5"/>
<text text-anchor="start" x="143" y="-365.5" font-family="Helvetica,sans-Serif" font-size="10.00">backend/greenhouse</text>
<text text-anchor="middle" x="193.5" y="-354.5" font-family="Helvetica,sans-Serif" font-size="10.00">/Greenhouse.h</text>
</a>
</g>
</g>
<!-- Node4&#45;&gt;Node5 -->
<g id="edge4" class="edge">
<title>Node4&#45;&gt;Node5</title>
<path fill="none" stroke="midnightblue" d="M193.5,-404.11C193.5,-395.15 193.5,-385.32 193.5,-377.58"/>
<polygon fill="midnightblue" stroke="midnightblue" points="190,-404.4 193.5,-414.4 197,-404.4 190,-404.4"/>
</g>
<!-- Node6 -->
<g id="node6" class="node">
<title>Node6</title>
<g id="a_node6"><a xlink:href="Manager_8h.html" target="_top" xlink:title="Manager class for coordinating plant sales and customer interactions.">
<polygon fill="white" stroke="black" points="135,-280.5 135,-310.5 252,-310.5 252,-280.5 135,-280.5"/>
<text text-anchor="start" x="143" y="-298.5" font-family="Helvetica,sans-Serif" font-size="10.00">backend/greenhouse</text>
<text text-anchor="middle" x="193.5" y="-287.5" font-family="Helvetica,sans-Serif" font-size="10.00">/Manager.h</text>
</a>
</g>
</g>
<!-- Node5&#45;&gt;Node6 -->
<g id="edge5" class="edge">
<title>Node5&#45;&gt;Node6</title>
<path fill="none" stroke="midnightblue" d="M193.5,-337.11C193.5,-328.15 193.5,-318.32 193.5,-310.58"/>
<polygon fill="midnightblue" stroke="midnightblue" points="190,-337.4 193.5,-347.4 197,-337.4 190,-337.4"/>
</g>
<!-- Node7 -->
<g id="node7" class="node">
<title>Node7</title>
<g id="a_node7"><a xlink:href="Game_8h.html" target="_top" xlink:title="Header file for Game class &#45; Main game facade.">
<polygon fill="white" stroke="black" points="129,-224.5 129,-243.5 258,-243.5 258,-224.5 129,-224.5"/>
<text text-anchor="middle" x="193.5" y="-231.5" font-family="Helvetica,sans-Serif" font-size="10.00">backend/game/Game.h</text>
</a>
</g>
</g>
<!-- Node6&#45;&gt;Node7 -->
<g id="edge6" class="edge">
<title>Node6&#45;&gt;Node7</title>
<path fill="none" stroke="midnightblue" d="M193.5,-270.29C193.5,-260.86 193.5,-250.65 193.5,-243.66"/>
<polygon fill="midnightblue" stroke="midnightblue" points="190,-270.4 193.5,-280.4 197,-270.4 190,-270.4"/>
</g>
<!-- Node8 -->
<g id="node8" class="node">
<title>Node8</title>
<g id="a_node8"><a xlink:href="API_8h.html" target="_top" xlink:title="Bootstrapper for public facing API.">
<polygon fill="white" stroke="black" points="61.5,-168.5 61.5,-187.5 165.5,-187.5 165.5,-168.5 61.5,-168.5"/>
<text text-anchor="middle" x="113.5" y="-175.5" font-family="Helvetica,sans-Serif" font-size="10.00">backend/API/API.h</text>
</a>
</g>
</g>
<!-- Node7&#45;&gt;Node8 -->
<g id="edge7" class="edge">
<title>Node7&#45;&gt;Node8</title>
<path fill="none" stroke="midnightblue" d="M172.2,-218.62C157.58,-208.76 138.67,-195.99 126.32,-187.65"/>
<polygon fill="midnightblue" stroke="midnightblue" points="170.4,-221.63 180.65,-224.32 174.32,-215.83 170.4,-221.63"/>
</g>
<!-- Node9 -->
<g id="node9" class="node">
<title>Node9</title>
<g id="a_node9"><a xlink:href="APIController_8h.html" target="_top" xlink:title="Define endpoints.">
<polygon fill="white" stroke="black" points="177,-56.5 177,-75.5 328,-75.5 328,-56.5 177,-56.5"/>
<text text-anchor="middle" x="252.5" y="-63.5" font-family="Helvetica,sans-Serif" font-size="10.00">backend/API/APIController.h</text>
</a>
</g>
</g>
<!-- Node7&#45;&gt;Node9 -->
<g id="edge10" class="edge">
<title>Node7&#45;&gt;Node9</title>
<path fill="none" stroke="midnightblue" d="M193.23,-214.17C193.59,-189.53 196.67,-145.53 212.5,-112 219.37,-97.44 232.45,-84.12 241.78,-75.81"/>
<polygon fill="midnightblue" stroke="midnightblue" points="189.73,-214.3 193.23,-224.3 196.73,-214.31 189.73,-214.3"/>
</g>
<!-- Node11 -->
<g id="node11" class="node">
<title>Node11</title>
<g id="a_node11"><a xlink:href="MenuOption_8h.html" target="_top" xlink:title="Base class for menu command options.">
<polygon fill="white" stroke="black" points="232,-168.5 232,-187.5 391,-187.5 391,-168.5 232,-168.5"/>
<text text-anchor="middle" x="311.5" y="-175.5" font-family="Helvetica,sans-Serif" font-size="10.00">backend/game/MenuOption.h</text>
</a>
</g>
</g>
<!-- Node7&#45;&gt;Node11 -->
<g id="edge11" class="edge">
<title>Node7&#45;&gt;Node11</title>
<path fill="none" stroke="midnightblue" d="M221.4,-220.23C243.47,-210.13 273.68,-196.31 292.89,-187.52"/>
<polygon fill="midnightblue" stroke="midnightblue" points="219.83,-217.1 212.2,-224.44 222.75,-223.46 219.83,-217.1"/>
</g>
<!-- Node8&#45;&gt;Node9 -->
<g id="edge8" class="edge">
<title>Node8&#45;&gt;Node9</title>
<path fill="none" stroke="midnightblue" d="M128.13,-160.65C140.94,-146.83 160.43,-126.96 179.5,-112 197.89,-97.57 221.18,-83.92 236.44,-75.51"/>
<polygon fill="midnightblue" stroke="midnightblue" points="125.24,-158.63 121.08,-168.37 130.41,-163.35 125.24,-158.63"/>
</g>
<!-- Node10 -->
<g id="node10" class="node">
<title>Node10</title>
<g id="a_node10"><a xlink:href="APIController_8cpp.html" target="_top" xlink:title="Still need to see what going to do here.">
<polygon fill="white" stroke="black" points="171.5,-0.5 171.5,-19.5 333.5,-19.5 333.5,-0.5 171.5,-0.5"/>
<text text-anchor="middle" x="252.5" y="-7.5" font-family="Helvetica,sans-Serif" font-size="10.00">backend/API/APIController.cpp</text>
</a>
</g>
</g>
<!-- Node9&#45;&gt;Node10 -->
<g id="edge9" class="edge">
<title>Node9&#45;&gt;Node10</title>
<path fill="none" stroke="midnightblue" d="M252.5,-45.8C252.5,-36.91 252.5,-26.78 252.5,-19.75"/>
<polygon fill="midnightblue" stroke="midnightblue" points="249,-46.08 252.5,-56.08 256,-46.08 249,-46.08"/>
</g>
<!-- Node12 -->
<g id="node12" class="node">
<title>Node12</title>
<g id="a_node12"><a xlink:href="ExitGameOption_8h.html" target="_top" xlink:title="Command for exiting the game with logging capabilities.">
<polygon fill="white" stroke="black" points="221.5,-112.5 221.5,-131.5 401.5,-131.5 401.5,-112.5 221.5,-112.5"/>
<text text-anchor="middle" x="311.5" y="-119.5" font-family="Helvetica,sans-Serif" font-size="10.00">backend/game/ExitGameOption.h</text>
</a>
</g>
</g>
<!-- Node11&#45;&gt;Node12 -->
<g id="edge12" class="edge">
<title>Node11&#45;&gt;Node12</title>
<path fill="none" stroke="midnightblue" d="M311.5,-157.8C311.5,-148.91 311.5,-138.78 311.5,-131.75"/>
<polygon fill="midnightblue" stroke="midnightblue" points="308,-158.08 311.5,-168.08 315,-158.08 308,-158.08"/>
</g>
<!-- Node13 -->
<g id="node13" class="node">
<title>Node13</title>
<g id="a_node13"><a xlink:href="NewGameOption_8h.html" target="_top" xlink:title="Header file for NewGameOption class.">
<polygon fill="white" stroke="black" points="420,-112.5 420,-131.5 603,-131.5 603,-112.5 420,-112.5"/>
<text text-anchor="middle" x="511.5" y="-119.5" font-family="Helvetica,sans-Serif" font-size="10.00">backend/game/NewGameOption.h</text>
</a>
</g>
</g>
<!-- Node11&#45;&gt;Node13 -->
<g id="edge14" class="edge">
<title>Node11&#45;&gt;Node13</title>
<path fill="none" stroke="midnightblue" d="M352.87,-165.83C390.64,-155.63 445.64,-140.78 479.96,-131.52"/>
<polygon fill="midnightblue" stroke="midnightblue" points="351.93,-162.46 343.19,-168.44 353.76,-169.22 351.93,-162.46"/>
</g>
<!-- Node12&#45;&gt;Node9 -->
<g id="edge13" class="edge">
<title>Node12&#45;&gt;Node9</title>
<path fill="none" stroke="midnightblue" d="M294.61,-105.54C284.09,-95.91 270.93,-83.87 262.15,-75.83"/>
<polygon fill="midnightblue" stroke="midnightblue" points="292.28,-108.15 302.02,-112.32 297.01,-102.99 292.28,-108.15"/>
</g>
<!-- Node13&#45;&gt;Node9 -->
<g id="edge15" class="edge">
<title>Node13&#45;&gt;Node9</title>
<path fill="none" stroke="midnightblue" d="M460.4,-110.35C411.45,-100.14 338.55,-84.94 293.35,-75.52"/>
<polygon fill="midnightblue" stroke="midnightblue" points="459.96,-113.83 470.46,-112.44 461.39,-106.98 459.96,-113.83"/>
</g>
</g>
</svg>
        <g id="navigator" transform="translate(0 0)" fill="#404254">
                <rect fill="#f2f5e9" fill-opacity="0.5" stroke="#606060" stroke-width=".5" x="0" y="0" width="60" height="60"/>
                <use id="zoomplus" xlink:href="#zoomPlus" x="17" y="9" onmousedown="handleZoom(evt,'in')"/>
                <use id="zoomminus" xlink:href="#zoomMin" x="42" y="9" onmousedown="handleZoom(evt,'out')"/>
                <use id="reset" xlink:href="#resetDef" x="30" y="36" onmousedown="handleReset()"/>
                <g id="arrowUp" xlink:href="#dirArrow" transform="translate(30 24)" onmousedown="handlePan(0,-1)">
                  <use xlink:href="#rim" fill="#404040">
                        <set attributeName="fill" to="#808080" begin="arrowUp.mouseover" end="arrowUp.mouseout"/>
                  </use>
                  <path fill="none" stroke="white" stroke-width="1.5" d="M0,-3.0v7 M-2.5,-0.5L0,-3.0L2.5,-0.5"/>
                </g>
                <g id="arrowRight" xlink:href="#dirArrow" transform="rotate(90) translate(36 -43)" onmousedown="handlePan(1,0)">
                  <use xlink:href="#rim" fill="#404040">
                        <set attributeName="fill" to="#808080" begin="arrowRight.mouseover" end="arrowRight.mouseout"/>
                  </use>
                  <path fill="none" stroke="white" stroke-width="1.5" d="M0,-3.0v7 M-2.5,-0.5L0,-3.0L2.5,-0.5"/>
                </g>
                <g id="arrowDown" xlink:href="#dirArrow" transform="rotate(180) translate(-30 -48)" onmousedown="handlePan(0,1)">
                  <use xlink:href="#rim" fill="#404040">
                        <set attributeName="fill" to="#808080" begin="arrowDown.mouseover" end="arrowDown.mouseout"/>
                  </use>
                  <path fill="none" stroke="white" stroke-width="1.5" d="M0,-3.0v7 M-2.5,-0.5L0,-3.0L2.5,-0.5"/>
                </g>
                <g id="arrowLeft" xlink:href="#dirArrow" transform="rotate(270) translate(-36 17)" onmousedown="handlePan(-1,0)">
                  <use xlink:href="#rim" fill="#404040">
                        <set attributeName="fill" to="#808080" begin="arrowLeft.mouseover" end="arrowLeft.mouseout"/>
                  </use>
                  <path fill="none" stroke="white" stroke-width="1.5" d="M0,-3.0v7 M-2.5,-0.5L0,-3.0L2.5,-0.5"/>
                </g>
        </g>
        <svg viewBox="0 0 15 15" width="100%" height="30px" preserveAspectRatio="xMaxYMin meet">
         <g id="arrow_out" transform="scale(0.3 0.3)">
          <a xlink:href="PlantHealth_8h__dep__incl_org.svg" target="_base">
           <rect id="button" ry="5" rx="5" y="6" x="6" height="38" width="38"
                fill="#f2f5e9" fill-opacity="0.5" stroke="#606060" stroke-width="1.0"/>
           <path id="arrow"
             d="M 11.500037,31.436501 C 11.940474,20.09759 22.043105,11.32322 32.158766,21.979434 L 37.068811,17.246167 C 37.068811,17.246167 37.088388,32 37.088388,32 L 22.160133,31.978069 C 22.160133,31.978069 26.997745,27.140456 26.997745,27.140456 C 18.528582,18.264221 13.291696,25.230495 11.500037,31.436501 z"
             style="fill:#404040;"/>
          </a>
         </g>
        </svg>
</svg>
