<?xml version="1.0" encoding="UTF-8" standalone="no"?>
<!DOCTYPE svg PUBLIC "-//W3C//DTD SVG 1.1//EN"
 "http://www.w3.org/Graphics/SVG/1.1/DTD/svg11.dtd">
<!-- Generated by graphviz version 2.43.0 (0)
 -->
<!-- Title: backend/plant/PlantState.h Pages: 1 -->
<svg width="316pt" height="140pt"
 viewBox="0.00 0.00 315.50 140.00" xmlns="http://www.w3.org/2000/svg" xmlns:xlink="http://www.w3.org/1999/xlink">
<g id="graph0" class="graph" transform="scale(1 1) rotate(0) translate(4 136)">
<title>backend/plant/PlantState.h</title>
<polygon fill="white" stroke="transparent" points="-4,4 -4,-136 311.5,-136 311.5,4 -4,4"/>
<!-- Node1 -->
<g id="node1" class="node">
<title>Node1</title>
<g id="a_node1"><a xlink:title="Abstract base class for plant state management.">
<polygon fill="#bfbfbf" stroke="black" points="84,-112.5 84,-131.5 231,-131.5 231,-112.5 84,-112.5"/>
<text text-anchor="middle" x="157.5" y="-119.5" font-family="Helvetica,sans-Serif" font-size="10.00">backend/plant/PlantState.h</text>
</a>
</g>
</g>
<!-- Node2 -->
<g id="node2" class="node">
<title>Node2</title>
<g id="a_node2"><a xlink:href="NotSellable_8h.html" target="_top" xlink:title="Concrete state for plants not ready for sale.">
<polygon fill="white" stroke="black" points="0,-56.5 0,-75.5 153,-75.5 153,-56.5 0,-56.5"/>
<text text-anchor="middle" x="76.5" y="-63.5" font-family="Helvetica,sans-Serif" font-size="10.00">backend/plant/NotSellable.h</text>
</a>
</g>
</g>
<!-- Node1&#45;&gt;Node2 -->
<g id="edge1" class="edge">
<title>Node1&#45;&gt;Node2</title>
<path fill="none" stroke="midnightblue" d="M135.93,-106.62C121.14,-96.76 101.99,-83.99 89.48,-75.65"/>
<polygon fill="midnightblue" stroke="midnightblue" points="134.22,-109.69 144.49,-112.32 138.11,-103.86 134.22,-109.69"/>
</g>
<!-- Node4 -->
<g id="node4" class="node">
<title>Node4</title>
<g id="a_node4"><a xlink:href="Sellable_8h.html" target="_top" xlink:title="Concrete state for plants ready for sale.">
<polygon fill="white" stroke="black" points="171.5,-56.5 171.5,-75.5 307.5,-75.5 307.5,-56.5 171.5,-56.5"/>
<text text-anchor="middle" x="239.5" y="-63.5" font-family="Helvetica,sans-Serif" font-size="10.00">backend/plant/Sellable.h</text>
</a>
</g>
</g>
<!-- Node1&#45;&gt;Node4 -->
<g id="edge3" class="edge">
<title>Node1&#45;&gt;Node4</title>
<path fill="none" stroke="midnightblue" d="M179.33,-106.62C194.31,-96.76 213.7,-83.99 226.36,-75.65"/>
<polygon fill="midnightblue" stroke="midnightblue" points="177.1,-103.9 170.67,-112.32 180.95,-109.75 177.1,-103.9"/>
</g>
<!-- Node3 -->
<g id="node3" class="node">
<title>Node3</title>
<g id="a_node3"><a xlink:href="Plant_8cpp.html" target="_top" xlink:title="Implements the functionality defined in the Plant class.">
<polygon fill="white" stroke="black" points="10,-0.5 10,-19.5 143,-19.5 143,-0.5 10,-0.5"/>
<text text-anchor="middle" x="76.5" y="-7.5" font-family="Helvetica,sans-Serif" font-size="10.00">backend/plant/Plant.cpp</text>
</a>
</g>
</g>
<!-- Node2&#45;&gt;Node3 -->
<g id="edge2" class="edge">
<title>Node2&#45;&gt;Node3</title>
<path fill="none" stroke="midnightblue" d="M76.5,-45.8C76.5,-36.91 76.5,-26.78 76.5,-19.75"/>
<polygon fill="midnightblue" stroke="midnightblue" points="73,-46.08 76.5,-56.08 80,-46.08 73,-46.08"/>
</g>
</g>
</svg>
