<?xml version="1.0" encoding="UTF-8" standalone="no"?>
<!DOCTYPE svg PUBLIC "-//W3C//DTD SVG 1.1//EN"
 "http://www.w3.org/Graphics/SVG/1.1/DTD/svg11.dtd">
<!-- Generated by graphviz version 2.43.0 (0)
 -->
<!-- Title: backend/plant/Plant.h Pages: 1 -->
<svg width="1400pt" height="151pt"
 viewBox="0.00 0.00 1400.00 151.00" xmlns="http://www.w3.org/2000/svg" xmlns:xlink="http://www.w3.org/1999/xlink">
<g id="graph0" class="graph" transform="scale(1 1) rotate(0) translate(4 147)">
<title>backend/plant/Plant.h</title>
<polygon fill="white" stroke="transparent" points="-4,4 -4,-147 1396,-147 1396,4 -4,4"/>
<!-- Node1 -->
<g id="node1" class="node">
<title>Node1</title>
<g id="a_node1"><a xlink:title="Defines the abstract base class for all Plant objects used in the system.">
<polygon fill="#bfbfbf" stroke="black" points="781.5,-123.5 781.5,-142.5 903.5,-142.5 903.5,-123.5 781.5,-123.5"/>
<text text-anchor="middle" x="842.5" y="-130.5" font-family="Helvetica,sans-Serif" font-size="10.00">backend/plant/Plant.h</text>
</a>
</g>
</g>
<!-- Node2 -->
<g id="node2" class="node">
<title>Node2</title>
<g id="a_node2"><a xlink:title=" ">
<polygon fill="white" stroke="#bfbfbf" points="430.5,-6 430.5,-25 474.5,-25 474.5,-6 430.5,-6"/>
<text text-anchor="middle" x="452.5" y="-13" font-family="Helvetica,sans-Serif" font-size="10.00">string</text>
</a>
</g>
</g>
<!-- Node1&#45;&gt;Node2 -->
<g id="edge1" class="edge">
<title>Node1&#45;&gt;Node2</title>
<path fill="none" stroke="midnightblue" d="M781.5,-131.36C648.89,-129.32 343.7,-120.96 312.5,-87 277.97,-49.41 369.2,-29.06 420.44,-20.86"/>
<polygon fill="midnightblue" stroke="midnightblue" points="421.05,-24.31 430.41,-19.34 419.99,-17.39 421.05,-24.31"/>
</g>
<!-- Node3 -->
<g id="node3" class="node">
<title>Node3</title>
<g id="a_node3"><a xlink:title=" ">
<polygon fill="white" stroke="#bfbfbf" points="79.5,-67.5 79.5,-86.5 117.5,-86.5 117.5,-67.5 79.5,-67.5"/>
<text text-anchor="middle" x="98.5" y="-74.5" font-family="Helvetica,sans-Serif" font-size="10.00">map</text>
</a>
</g>
</g>
<!-- Node1&#45;&gt;Node3 -->
<g id="edge2" class="edge">
<title>Node1&#45;&gt;Node3</title>
<path fill="none" stroke="midnightblue" d="M781.33,-130.11C635.53,-125.29 269.77,-111.31 127.85,-86.7"/>
<polygon fill="midnightblue" stroke="midnightblue" points="128.08,-83.19 117.62,-84.84 126.83,-90.08 128.08,-83.19"/>
</g>
<!-- Node4 -->
<g id="node4" class="node">
<title>Node4</title>
<g id="a_node4"><a xlink:title=" ">
<polygon fill="white" stroke="#bfbfbf" points="136,-67.5 136,-86.5 183,-86.5 183,-67.5 136,-67.5"/>
<text text-anchor="middle" x="159.5" y="-74.5" font-family="Helvetica,sans-Serif" font-size="10.00">vector</text>
</a>
</g>
</g>
<!-- Node1&#45;&gt;Node4 -->
<g id="edge3" class="edge">
<title>Node1&#45;&gt;Node4</title>
<path fill="none" stroke="midnightblue" d="M781.09,-131.77C666.95,-130.46 414.43,-123.46 193.34,-86.77"/>
<polygon fill="midnightblue" stroke="midnightblue" points="193.61,-83.26 183.17,-85.06 192.45,-90.17 193.61,-83.26"/>
</g>
<!-- Node5 -->
<g id="node5" class="node">
<title>Node5</title>
<g id="a_node5"><a xlink:title=" ">
<polygon fill="white" stroke="#bfbfbf" points="201.5,-67.5 201.5,-86.5 265.5,-86.5 265.5,-67.5 201.5,-67.5"/>
<text text-anchor="middle" x="233.5" y="-74.5" font-family="Helvetica,sans-Serif" font-size="10.00">algorithm</text>
</a>
</g>
</g>
<!-- Node1&#45;&gt;Node5 -->
<g id="edge4" class="edge">
<title>Node1&#45;&gt;Node5</title>
<path fill="none" stroke="midnightblue" d="M781.44,-129.39C677.83,-124.46 461.16,-111.95 279.5,-87 278.23,-86.83 276.94,-86.64 275.64,-86.44"/>
<polygon fill="midnightblue" stroke="midnightblue" points="276.03,-82.96 265.59,-84.76 274.88,-89.86 276.03,-82.96"/>
</g>
<!-- Node6 -->
<g id="node6" class="node">
<title>Node6</title>
<g id="a_node6"><a xlink:title=" ">
<polygon fill="white" stroke="#bfbfbf" points="656.5,-6 656.5,-25 716.5,-25 716.5,-6 656.5,-6"/>
<text text-anchor="middle" x="686.5" y="-13" font-family="Helvetica,sans-Serif" font-size="10.00">iostream</text>
</a>
</g>
</g>
<!-- Node1&#45;&gt;Node6 -->
<g id="edge5" class="edge">
<title>Node1&#45;&gt;Node6</title>
<path fill="none" stroke="midnightblue" d="M862.1,-123.44C886.88,-111.45 924.28,-88.67 906.5,-67 854.47,-3.6 804.41,-53.36 725.5,-31 722.85,-30.25 720.13,-29.4 717.42,-28.5"/>
<polygon fill="midnightblue" stroke="midnightblue" points="718.35,-25.12 707.75,-25.1 716.02,-31.72 718.35,-25.12"/>
</g>
<!-- Node7 -->
<g id="node7" class="node">
<title>Node7</title>
<g id="a_node7"><a xlink:title=" ">
<polygon fill="white" stroke="#bfbfbf" points="322,-67.5 322,-86.5 435,-86.5 435,-67.5 322,-67.5"/>
<text text-anchor="middle" x="378.5" y="-74.5" font-family="Helvetica,sans-Serif" font-size="10.00">boost/uuid/uuid.hpp</text>
</a>
</g>
</g>
<!-- Node1&#45;&gt;Node7 -->
<g id="edge6" class="edge">
<title>Node1&#45;&gt;Node7</title>
<path fill="none" stroke="midnightblue" d="M781.42,-125.53C705.32,-117.38 571.02,-102.67 445.22,-87.06"/>
<polygon fill="midnightblue" stroke="midnightblue" points="445.37,-83.56 435.01,-85.79 444.51,-90.5 445.37,-83.56"/>
</g>
<!-- Node8 -->
<g id="node8" class="node">
<title>Node8</title>
<g id="a_node8"><a xlink:title=" ">
<polygon fill="white" stroke="#bfbfbf" points="453.5,-67.5 453.5,-86.5 623.5,-86.5 623.5,-67.5 453.5,-67.5"/>
<text text-anchor="middle" x="538.5" y="-74.5" font-family="Helvetica,sans-Serif" font-size="10.00">boost/uuid/uuid_generators.hpp</text>
</a>
</g>
</g>
<!-- Node1&#45;&gt;Node8 -->
<g id="edge7" class="edge">
<title>Node1&#45;&gt;Node8</title>
<path fill="none" stroke="midnightblue" d="M794.33,-123.44C740.63,-113.9 653.81,-98.48 596.45,-88.29"/>
<polygon fill="midnightblue" stroke="midnightblue" points="596.9,-84.82 586.44,-86.52 595.68,-91.71 596.9,-84.82"/>
</g>
<!-- Node9 -->
<g id="node9" class="node">
<title>Node9</title>
<g id="a_node9"><a xlink:title=" ">
<polygon fill="white" stroke="#bfbfbf" points="642,-67.5 642,-86.5 769,-86.5 769,-67.5 642,-67.5"/>
<text text-anchor="middle" x="705.5" y="-74.5" font-family="Helvetica,sans-Serif" font-size="10.00">boost/uuid/uuid_io.hpp</text>
</a>
</g>
</g>
<!-- Node1&#45;&gt;Node9 -->
<g id="edge8" class="edge">
<title>Node1&#45;&gt;Node9</title>
<path fill="none" stroke="midnightblue" d="M820.79,-123.44C798.15,-114.52 762.43,-100.44 736.75,-90.32"/>
<polygon fill="midnightblue" stroke="midnightblue" points="737.69,-86.93 727.11,-86.52 735.13,-93.44 737.69,-86.93"/>
</g>
<!-- Node10 -->
<g id="node10" class="node">
<title>Node10</title>
<g id="a_node10"><a xlink:title=" ">
<polygon fill="white" stroke="#bfbfbf" points="787.5,-67.5 787.5,-86.5 897.5,-86.5 897.5,-67.5 787.5,-67.5"/>
<text text-anchor="middle" x="842.5" y="-74.5" font-family="Helvetica,sans-Serif" font-size="10.00">nlohmann/json.hpp</text>
</a>
</g>
</g>
<!-- Node1&#45;&gt;Node10 -->
<g id="edge9" class="edge">
<title>Node1&#45;&gt;Node10</title>
<path fill="none" stroke="midnightblue" d="M842.5,-123.08C842.5,-116.01 842.5,-105.86 842.5,-96.99"/>
<polygon fill="midnightblue" stroke="midnightblue" points="846,-96.75 842.5,-86.75 839,-96.75 846,-96.75"/>
</g>
<!-- Node11 -->
<g id="node11" class="node">
<title>Node11</title>
<g id="a_node11"><a xlink:title=" ">
<polygon fill="white" stroke="#bfbfbf" points="1210.5,-6 1210.5,-25 1258.5,-25 1258.5,-6 1210.5,-6"/>
<text text-anchor="middle" x="1234.5" y="-13" font-family="Helvetica,sans-Serif" font-size="10.00">thread</text>
</a>
</g>
</g>
<!-- Node1&#45;&gt;Node11 -->
<g id="edge10" class="edge">
<title>Node1&#45;&gt;Node11</title>
<path fill="none" stroke="midnightblue" d="M903.68,-132.17C995.92,-131.19 1164.72,-124.18 1210.5,-87 1225.99,-74.42 1231.53,-51.37 1233.48,-35.06"/>
<polygon fill="midnightblue" stroke="midnightblue" points="1236.97,-35.32 1234.34,-25.05 1230,-34.72 1236.97,-35.32"/>
</g>
<!-- Node12 -->
<g id="node12" class="node">
<title>Node12</title>
<g id="a_node12"><a xlink:title=" ">
<polygon fill="white" stroke="#bfbfbf" points="1276.5,-6 1276.5,-25 1326.5,-25 1326.5,-6 1276.5,-6"/>
<text text-anchor="middle" x="1301.5" y="-13" font-family="Helvetica,sans-Serif" font-size="10.00">atomic</text>
</a>
</g>
</g>
<!-- Node1&#45;&gt;Node12 -->
<g id="edge11" class="edge">
<title>Node1&#45;&gt;Node12</title>
<path fill="none" stroke="midnightblue" d="M903.77,-129.82C998.41,-125.65 1175.16,-114.36 1231.5,-87 1256.37,-74.92 1277.54,-50.32 1289.9,-33.62"/>
<polygon fill="midnightblue" stroke="midnightblue" points="1292.88,-35.47 1295.82,-25.29 1287.17,-31.41 1292.88,-35.47"/>
</g>
<!-- Node13 -->
<g id="node13" class="node">
<title>Node13</title>
<g id="a_node13"><a xlink:href="GreenSock_8h.html" target="_top" xlink:title=" ">
<polygon fill="white" stroke="black" points="953.5,-67.5 953.5,-86.5 1031.5,-86.5 1031.5,-67.5 953.5,-67.5"/>
<text text-anchor="middle" x="992.5" y="-74.5" font-family="Helvetica,sans-Serif" font-size="10.00">GreenSock.h</text>
</a>
</g>
</g>
<!-- Node1&#45;&gt;Node13 -->
<g id="edge12" class="edge">
<title>Node1&#45;&gt;Node13</title>
<path fill="none" stroke="midnightblue" d="M866.27,-123.44C891.39,-114.4 931.21,-100.06 959.4,-89.92"/>
<polygon fill="midnightblue" stroke="midnightblue" points="960.62,-93.2 968.84,-86.52 958.25,-86.61 960.62,-93.2"/>
</g>
<!-- Node16 -->
<g id="node16" class="node">
<title>Node16</title>
<g id="a_node16"><a xlink:title=" ">
<polygon fill="white" stroke="#bfbfbf" points="1018.5,-6 1018.5,-25 1066.5,-25 1066.5,-6 1018.5,-6"/>
<text text-anchor="middle" x="1042.5" y="-13" font-family="Helvetica,sans-Serif" font-size="10.00">mutex</text>
</a>
</g>
</g>
<!-- Node1&#45;&gt;Node16 -->
<g id="edge32" class="edge">
<title>Node1&#45;&gt;Node16</title>
<path fill="none" stroke="midnightblue" d="M903.54,-126.25C955.12,-120 1023.27,-107.97 1040.5,-87 1052.26,-72.69 1050.82,-50.67 1047.67,-35.05"/>
<polygon fill="midnightblue" stroke="midnightblue" points="1051,-33.91 1045.25,-25.02 1044.19,-35.56 1051,-33.91"/>
</g>
<!-- Node17 -->
<g id="node17" class="node">
<title>Node17</title>
<g id="a_node17"><a xlink:href="Logger_8h.html" target="_top" xlink:title="Header for Strategy Logger.">
<polygon fill="white" stroke="black" points="3.5,-67.5 3.5,-86.5 61.5,-86.5 61.5,-67.5 3.5,-67.5"/>
<text text-anchor="middle" x="32.5" y="-74.5" font-family="Helvetica,sans-Serif" font-size="10.00">Logger.h</text>
</a>
</g>
</g>
<!-- Node1&#45;&gt;Node17 -->
<g id="edge18" class="edge">
<title>Node1&#45;&gt;Node17</title>
<path fill="none" stroke="midnightblue" d="M781.08,-132.04C651.49,-131.35 340.57,-125.56 71.81,-86.93"/>
<polygon fill="midnightblue" stroke="midnightblue" points="72.26,-83.46 61.86,-85.49 71.25,-90.39 72.26,-83.46"/>
</g>
<!-- Node19 -->
<g id="node19" class="node">
<title>Node19</title>
<g id="a_node19"><a xlink:href="ThreadSafeQueue_8h_source.html" target="_top" xlink:title=" ">
<polygon fill="white" stroke="black" points="1088,-67.5 1088,-86.5 1201,-86.5 1201,-67.5 1088,-67.5"/>
<text text-anchor="middle" x="1144.5" y="-74.5" font-family="Helvetica,sans-Serif" font-size="10.00">ThreadSafeQueue.h</text>
</a>
</g>
</g>
<!-- Node1&#45;&gt;Node19 -->
<g id="edge22" class="edge">
<title>Node1&#45;&gt;Node19</title>
<path fill="none" stroke="midnightblue" d="M890.35,-123.44C943.7,-113.9 1029.94,-98.48 1086.94,-88.29"/>
<polygon fill="midnightblue" stroke="midnightblue" points="1087.64,-91.72 1096.87,-86.52 1086.41,-84.83 1087.64,-91.72"/>
</g>
<!-- Node20 -->
<g id="node20" class="node">
<title>Node20</title>
<g id="a_node20"><a xlink:title=" ">
<polygon fill="white" stroke="#bfbfbf" points="1345,-6 1345,-25 1392,-25 1392,-6 1345,-6"/>
<text text-anchor="middle" x="1368.5" y="-13" font-family="Helvetica,sans-Serif" font-size="10.00">queue</text>
</a>
</g>
</g>
<!-- Node1&#45;&gt;Node20 -->
<g id="edge30" class="edge">
<title>Node1&#45;&gt;Node20</title>
<path fill="none" stroke="midnightblue" d="M903.71,-128.83C1003.02,-123.11 1194.61,-109.52 1258.5,-87 1294.25,-74.4 1330.21,-48.2 1350.86,-31.54"/>
<polygon fill="midnightblue" stroke="midnightblue" points="1353.24,-34.11 1358.73,-25.04 1348.79,-28.71 1353.24,-34.11"/>
</g>
<!-- Node22 -->
<g id="node22" class="node">
<title>Node22</title>
<g id="a_node22"><a xlink:title=" ">
<polygon fill="white" stroke="#bfbfbf" points="1333.5,-67.5 1333.5,-86.5 1391.5,-86.5 1391.5,-67.5 1333.5,-67.5"/>
<text text-anchor="middle" x="1362.5" y="-74.5" font-family="Helvetica,sans-Serif" font-size="10.00">memory</text>
</a>
</g>
</g>
<!-- Node1&#45;&gt;Node22 -->
<g id="edge31" class="edge">
<title>Node1&#45;&gt;Node22</title>
<path fill="none" stroke="midnightblue" d="M903.76,-128.43C994.8,-122.62 1171.05,-109.47 1319.5,-87 1320.77,-86.81 1322.06,-86.6 1323.37,-86.38"/>
<polygon fill="midnightblue" stroke="midnightblue" points="1324.23,-89.78 1333.44,-84.54 1322.97,-82.9 1324.23,-89.78"/>
</g>
<!-- Node13&#45;&gt;Node2 -->
<g id="edge16" class="edge">
<title>Node13&#45;&gt;Node2</title>
<path fill="none" stroke="midnightblue" d="M953.23,-71.67C851.1,-60.42 578.64,-30.4 484.79,-20.06"/>
<polygon fill="midnightblue" stroke="midnightblue" points="485.08,-16.57 474.76,-18.95 484.31,-23.53 485.08,-16.57"/>
</g>
<!-- Node13&#45;&gt;Node6 -->
<g id="edge15" class="edge">
<title>Node13&#45;&gt;Node6</title>
<path fill="none" stroke="midnightblue" d="M953.43,-69.36C948.73,-68.56 944.01,-67.76 939.5,-67 844.4,-50.93 818.67,-55.92 725.5,-31 722.69,-30.25 719.79,-29.37 716.91,-28.43"/>
<polygon fill="midnightblue" stroke="midnightblue" points="717.91,-25.07 707.31,-25.07 715.59,-31.68 717.91,-25.07"/>
</g>
<!-- Node14 -->
<g id="node14" class="node">
<title>Node14</title>
<g id="a_node14"><a xlink:title=" ">
<polygon fill="white" stroke="#bfbfbf" points="735,-0.5 735,-30.5 848,-30.5 848,-0.5 735,-0.5"/>
<text text-anchor="start" x="743" y="-18.5" font-family="Helvetica,sans-Serif" font-size="10.00">websocketpp/config</text>
<text text-anchor="middle" x="791.5" y="-7.5" font-family="Helvetica,sans-Serif" font-size="10.00">/asio_no_tls.hpp</text>
</a>
</g>
</g>
<!-- Node13&#45;&gt;Node14 -->
<g id="edge13" class="edge">
<title>Node13&#45;&gt;Node14</title>
<path fill="none" stroke="midnightblue" d="M963.7,-67.48C933.81,-58.63 886.25,-44.55 848.68,-33.43"/>
<polygon fill="midnightblue" stroke="midnightblue" points="849.45,-30.01 838.87,-30.52 847.47,-36.72 849.45,-30.01"/>
</g>
<!-- Node15 -->
<g id="node15" class="node">
<title>Node15</title>
<g id="a_node15"><a xlink:title=" ">
<polygon fill="white" stroke="#bfbfbf" points="866.5,-6 866.5,-25 1000.5,-25 1000.5,-6 866.5,-6"/>
<text text-anchor="middle" x="933.5" y="-13" font-family="Helvetica,sans-Serif" font-size="10.00">websocketpp/server.hpp</text>
</a>
</g>
</g>
<!-- Node13&#45;&gt;Node15 -->
<g id="edge14" class="edge">
<title>Node13&#45;&gt;Node15</title>
<path fill="none" stroke="midnightblue" d="M984.05,-67.48C974.93,-58.28 960.23,-43.46 949.02,-32.16"/>
<polygon fill="midnightblue" stroke="midnightblue" points="951.46,-29.65 941.94,-25.01 946.49,-34.57 951.46,-29.65"/>
</g>
<!-- Node13&#45;&gt;Node16 -->
<g id="edge17" class="edge">
<title>Node13&#45;&gt;Node16</title>
<path fill="none" stroke="midnightblue" d="M999.66,-67.48C1007.24,-58.46 1019.37,-44.02 1028.79,-32.81"/>
<polygon fill="midnightblue" stroke="midnightblue" points="1031.6,-34.92 1035.35,-25.01 1026.24,-30.41 1031.6,-34.92"/>
</g>
<!-- Node17&#45;&gt;Node2 -->
<g id="edge19" class="edge">
<title>Node17&#45;&gt;Node2</title>
<path fill="none" stroke="midnightblue" d="M61.9,-68.73C64.8,-68.1 67.7,-67.52 70.5,-67 199.2,-43.32 354.25,-26.34 420.24,-19.65"/>
<polygon fill="midnightblue" stroke="midnightblue" points="420.81,-23.11 430.42,-18.63 420.12,-16.15 420.81,-23.11"/>
</g>
<!-- Node17&#45;&gt;Node6 -->
<g id="edge20" class="edge">
<title>Node17&#45;&gt;Node6</title>
<path fill="none" stroke="midnightblue" d="M61.87,-68.58C64.78,-67.99 67.69,-67.45 70.5,-67 127.13,-58.02 518.61,-28.83 646.31,-19.44"/>
<polygon fill="midnightblue" stroke="midnightblue" points="646.73,-22.92 656.45,-18.7 646.22,-15.94 646.73,-22.92"/>
</g>
<!-- Node18 -->
<g id="node18" class="node">
<title>Node18</title>
<g id="a_node18"><a xlink:title=" ">
<polygon fill="white" stroke="#bfbfbf" points="0,-6 0,-25 65,-25 65,-6 0,-6"/>
<text text-anchor="middle" x="32.5" y="-13" font-family="Helvetica,sans-Serif" font-size="10.00">stdexcept</text>
</a>
</g>
</g>
<!-- Node17&#45;&gt;Node18 -->
<g id="edge21" class="edge">
<title>Node17&#45;&gt;Node18</title>
<path fill="none" stroke="midnightblue" d="M32.5,-67.48C32.5,-59.08 32.5,-45.98 32.5,-35.16"/>
<polygon fill="midnightblue" stroke="midnightblue" points="36,-35.01 32.5,-25.01 29,-35.01 36,-35.01"/>
</g>
<!-- Node19&#45;&gt;Node2 -->
<g id="edge28" class="edge">
<title>Node19&#45;&gt;Node2</title>
<path fill="none" stroke="midnightblue" d="M1087.83,-71.09C1072.47,-69.76 1055.85,-68.32 1040.5,-67 828.59,-48.73 573.71,-26.88 484.89,-19.27"/>
<polygon fill="midnightblue" stroke="midnightblue" points="484.92,-15.76 474.66,-18.4 484.33,-22.74 484.92,-15.76"/>
</g>
<!-- Node19&#45;&gt;Node6 -->
<g id="edge23" class="edge">
<title>Node19&#45;&gt;Node6</title>
<path fill="none" stroke="midnightblue" d="M1087.93,-70.71C981.7,-60.67 759.95,-39.12 725.5,-31 722.43,-30.28 719.28,-29.38 716.16,-28.39"/>
<polygon fill="midnightblue" stroke="midnightblue" points="717.04,-24.99 706.45,-25 714.74,-31.6 717.04,-24.99"/>
</g>
<!-- Node19&#45;&gt;Node11 -->
<g id="edge24" class="edge">
<title>Node19&#45;&gt;Node11</title>
<path fill="none" stroke="midnightblue" d="M1157.39,-67.48C1171.96,-57.84 1195.9,-42.02 1213.25,-30.55"/>
<polygon fill="midnightblue" stroke="midnightblue" points="1215.22,-33.44 1221.63,-25.01 1211.36,-27.6 1215.22,-33.44"/>
</g>
<!-- Node19&#45;&gt;Node12 -->
<g id="edge29" class="edge">
<title>Node19&#45;&gt;Node12</title>
<path fill="none" stroke="midnightblue" d="M1169.15,-67.41C1194.08,-58.62 1233.67,-44.39 1267.5,-31 1269.1,-30.37 1270.74,-29.71 1272.39,-29.03"/>
<polygon fill="midnightblue" stroke="midnightblue" points="1273.91,-32.19 1281.8,-25.11 1271.22,-25.73 1273.91,-32.19"/>
</g>
<!-- Node19&#45;&gt;Node16 -->
<g id="edge26" class="edge">
<title>Node19&#45;&gt;Node16</title>
<path fill="none" stroke="midnightblue" d="M1129.89,-67.48C1113.15,-57.71 1085.5,-41.58 1065.78,-30.08"/>
<polygon fill="midnightblue" stroke="midnightblue" points="1067.49,-27.02 1057.09,-25.01 1063.96,-33.07 1067.49,-27.02"/>
</g>
<!-- Node19&#45;&gt;Node20 -->
<g id="edge25" class="edge">
<title>Node19&#45;&gt;Node20</title>
<path fill="none" stroke="midnightblue" d="M1191.48,-67.42C1230.55,-59.7 1287.36,-47.1 1335.5,-31 1337.37,-30.37 1339.28,-29.68 1341.19,-28.95"/>
<polygon fill="midnightblue" stroke="midnightblue" points="1342.67,-32.13 1350.58,-25.08 1340,-25.66 1342.67,-32.13"/>
</g>
<!-- Node21 -->
<g id="node21" class="node">
<title>Node21</title>
<g id="a_node21"><a xlink:title=" ">
<polygon fill="white" stroke="#bfbfbf" points="1085,-6 1085,-25 1192,-25 1192,-6 1085,-6"/>
<text text-anchor="middle" x="1138.5" y="-13" font-family="Helvetica,sans-Serif" font-size="10.00">condition_variable</text>
</a>
</g>
</g>
<!-- Node19&#45;&gt;Node21 -->
<g id="edge27" class="edge">
<title>Node19&#45;&gt;Node21</title>
<path fill="none" stroke="midnightblue" d="M1143.64,-67.48C1142.79,-59.08 1141.47,-45.98 1140.38,-35.16"/>
<polygon fill="midnightblue" stroke="midnightblue" points="1143.84,-34.61 1139.36,-25.01 1136.88,-35.31 1143.84,-34.61"/>
</g>
</g>
</svg>
