<?xml version="1.0" encoding="UTF-8" standalone="no"?>
<!DOCTYPE svg PUBLIC "-//W3C//DTD SVG 1.1//EN"
 "http://www.w3.org/Graphics/SVG/1.1/DTD/svg11.dtd">
<!-- Generated by graphviz version 2.43.0 (0)
 -->
<!-- Title: backend/plant/Plant.cpp Pages: 1 -->
<!--zoomable 319 -->
<svg id="main" version="1.1" xmlns="http://www.w3.org/2000/svg" xmlns:xlink="http://www.w3.org/1999/xlink" xml:space="preserve" onload="init(evt)">
<style type="text/css"><![CDATA[
.edge:hover path { stroke: red; }
.edge:hover polygon { stroke: red; fill: red; }
]]></style>
<script type="text/javascript"><![CDATA[
var edges = document.getElementsByTagName('g');
if (edges && edges.length) {
  for (var i=0;i<edges.length;i++) {
    if (edges[i].id.substr(0,4)=='edge') {
      edges[i].setAttribute('class','edge');
    }
  }
}
]]></script>
        <defs>
                <circle id="rim" cx="0" cy="0" r="7"/>
                <circle id="rim2" cx="0" cy="0" r="3.5"/>
                <g id="zoomPlus">
                        <use xlink:href="#rim" fill="#404040">
                                <set attributeName="fill" to="#808080" begin="zoomplus.mouseover" end="zoomplus.mouseout"/>
                        </use>
                        <path d="M-4,0h8M0,-4v8" fill="none" stroke="white" stroke-width="1.5" pointer-events="none"/>
                </g>
                <g id="zoomMin">
                        <use xlink:href="#rim" fill="#404040">
                                <set attributeName="fill" to="#808080" begin="zoomminus.mouseover" end="zoomminus.mouseout"/>
                        </use>
                        <path d="M-4,0h8" fill="none" stroke="white" stroke-width="1.5" pointer-events="none"/>
                </g>
                <g id="dirArrow">
                        <path fill="none" stroke="white" stroke-width="1.5" d="M0,-3.0v7 M-2.5,-0.5L0,-3.0L2.5,-0.5"/>
                </g>
               <g id="resetDef">
                       <use xlink:href="#rim2" fill="#404040">
                               <set attributeName="fill" to="#808080" begin="reset.mouseover" end="reset.mouseout"/>
                       </use>
               </g>
        </defs>

<script type="text/javascript">
var viewWidth = 1752;
var viewHeight = 319;
var sectionId = 'dynsection-0';
</script>
<script xlink:href="svgpan.js"/>
<svg id="graph" class="graph">
<g id="viewport">
<title>backend/plant/Plant.cpp</title>
<polygon fill="white" stroke="transparent" points="-4,4 -4,-315 1748.4,-315 1748.4,4 -4,4"/>
<!-- Node1 -->
<g id="node1" class="node">
<title>Node1</title>
<g id="a_node1"><a xlink:title="Implements the functionality defined in the Plant class.">
<polygon fill="#bfbfbf" stroke="black" points="1119.9,-291.5 1119.9,-310.5 1252.9,-310.5 1252.9,-291.5 1119.9,-291.5"/>
<text text-anchor="middle" x="1186.4" y="-298.5" font-family="Helvetica,sans-Serif" font-size="10.00">backend/plant/Plant.cpp</text>
</a>
</g>
</g>
<!-- Node2 -->
<g id="node2" class="node">
<title>Node2</title>
<g id="a_node2"><a xlink:href="Plant_8h.html" target="_top" xlink:title="Defines the abstract base class for all Plant objects used in the system.">
<polygon fill="white" stroke="black" points="1079.4,-123.5 1079.4,-142.5 1129.4,-142.5 1129.4,-123.5 1079.4,-123.5"/>
<text text-anchor="middle" x="1104.4" y="-130.5" font-family="Helvetica,sans-Serif" font-size="10.00">Plant.h</text>
</a>
</g>
</g>
<!-- Node1&#45;&gt;Node2 -->
<g id="edge1" class="edge">
<title>Node1&#45;&gt;Node2</title>
<path fill="none" stroke="midnightblue" d="M1179.8,-291.27C1167.23,-274.32 1139.71,-235.4 1123.4,-199 1116.65,-183.91 1111.58,-165.79 1108.39,-152.51"/>
<polygon fill="midnightblue" stroke="midnightblue" points="1111.78,-151.65 1106.15,-142.68 1104.95,-153.21 1111.78,-151.65"/>
</g>
<!-- Node22 -->
<g id="node22" class="node">
<title>Node22</title>
<g id="a_node22"><a xlink:href="NotSellable_8h.html" target="_top" xlink:title="Concrete state for plants not ready for sale.">
<polygon fill="white" stroke="black" points="1255.4,-235.5 1255.4,-254.5 1337.4,-254.5 1337.4,-235.5 1255.4,-235.5"/>
<text text-anchor="middle" x="1296.4" y="-242.5" font-family="Helvetica,sans-Serif" font-size="10.00">NotSellable.h</text>
</a>
</g>
</g>
<!-- Node1&#45;&gt;Node22 -->
<g id="edge26" class="edge">
<title>Node1&#45;&gt;Node22</title>
<path fill="none" stroke="midnightblue" d="M1204.08,-291.32C1221.8,-282.62 1249.31,-269.12 1269.69,-259.11"/>
<polygon fill="midnightblue" stroke="midnightblue" points="1271.34,-262.2 1278.77,-254.65 1268.25,-255.92 1271.34,-262.2"/>
</g>
<!-- Node24 -->
<g id="node24" class="node">
<title>Node24</title>
<g id="a_node24"><a xlink:href="GreenhouseStaff_8h.html" target="_top" xlink:title="Abstract base class for greenhouse staff observers.">
<polygon fill="white" stroke="black" points="1132.9,-179.5 1132.9,-198.5 1239.9,-198.5 1239.9,-179.5 1132.9,-179.5"/>
<text text-anchor="middle" x="1186.4" y="-186.5" font-family="Helvetica,sans-Serif" font-size="10.00">GreenhouseStaff.h</text>
</a>
</g>
</g>
<!-- Node1&#45;&gt;Node24 -->
<g id="edge31" class="edge">
<title>Node1&#45;&gt;Node24</title>
<path fill="none" stroke="midnightblue" d="M1186.4,-291.37C1186.4,-273.62 1186.4,-232.67 1186.4,-208.6"/>
<polygon fill="midnightblue" stroke="midnightblue" points="1189.9,-208.59 1186.4,-198.59 1182.9,-208.59 1189.9,-208.59"/>
</g>
<!-- Node25 -->
<g id="node25" class="node">
<title>Node25</title>
<g id="a_node25"><a xlink:href="PlantHealth_8h.html" target="_top" xlink:title="Health management system for plant lifecycle and care requirements.">
<polygon fill="white" stroke="black" points="218.9,-123.5 218.9,-142.5 301.9,-142.5 301.9,-123.5 218.9,-123.5"/>
<text text-anchor="middle" x="260.4" y="-130.5" font-family="Helvetica,sans-Serif" font-size="10.00">PlantHealth.h</text>
</a>
</g>
</g>
<!-- Node1&#45;&gt;Node25 -->
<g id="edge41" class="edge">
<title>Node1&#45;&gt;Node25</title>
<path fill="none" stroke="midnightblue" d="M1138.89,-291.48C981.27,-263.23 476.37,-172.71 312.38,-143.32"/>
<polygon fill="midnightblue" stroke="midnightblue" points="312.54,-139.79 302.08,-141.47 311.3,-146.68 312.54,-139.79"/>
</g>
<!-- Node30 -->
<g id="node30" class="node">
<title>Node30</title>
<g id="a_node30"><a xlink:title=" ">
<polygon fill="white" stroke="#bfbfbf" points="1355.9,-235.5 1355.9,-254.5 1402.9,-254.5 1402.9,-235.5 1355.9,-235.5"/>
<text text-anchor="middle" x="1379.4" y="-242.5" font-family="Helvetica,sans-Serif" font-size="10.00">cmath</text>
</a>
</g>
</g>
<!-- Node1&#45;&gt;Node30 -->
<g id="edge42" class="edge">
<title>Node1&#45;&gt;Node30</title>
<path fill="none" stroke="midnightblue" d="M1216.99,-291.44C1252.16,-281.6 1309.7,-265.5 1346.02,-255.34"/>
<polygon fill="midnightblue" stroke="midnightblue" points="1346.97,-258.71 1355.66,-252.64 1345.08,-251.97 1346.97,-258.71"/>
</g>
<!-- Node3 -->
<g id="node3" class="node">
<title>Node3</title>
<g id="a_node3"><a xlink:title=" ">
<polygon fill="white" stroke="#bfbfbf" points="1700.4,-6 1700.4,-25 1744.4,-25 1744.4,-6 1700.4,-6"/>
<text text-anchor="middle" x="1722.4" y="-13" font-family="Helvetica,sans-Serif" font-size="10.00">string</text>
</a>
</g>
</g>
<!-- Node2&#45;&gt;Node3 -->
<g id="edge2" class="edge">
<title>Node2&#45;&gt;Node3</title>
<path fill="none" stroke="midnightblue" d="M1129.76,-131.65C1236.95,-129.95 1649.51,-121.21 1695.4,-87 1711.63,-74.91 1718.1,-51.76 1720.69,-35.29"/>
<polygon fill="midnightblue" stroke="midnightblue" points="1724.18,-35.53 1721.93,-25.17 1717.24,-34.67 1724.18,-35.53"/>
</g>
<!-- Node4 -->
<g id="node4" class="node">
<title>Node4</title>
<g id="a_node4"><a xlink:title=" ">
<polygon fill="white" stroke="#bfbfbf" points="516.4,-67.5 516.4,-86.5 554.4,-86.5 554.4,-67.5 516.4,-67.5"/>
<text text-anchor="middle" x="535.4" y="-74.5" font-family="Helvetica,sans-Serif" font-size="10.00">map</text>
</a>
</g>
</g>
<!-- Node2&#45;&gt;Node4 -->
<g id="edge3" class="edge">
<title>Node2&#45;&gt;Node4</title>
<path fill="none" stroke="midnightblue" d="M1079.32,-131.93C1003.02,-131.31 767.11,-126.27 564.46,-86.75"/>
<polygon fill="midnightblue" stroke="midnightblue" points="565.02,-83.3 554.53,-84.78 563.66,-90.16 565.02,-83.3"/>
</g>
<!-- Node5 -->
<g id="node5" class="node">
<title>Node5</title>
<g id="a_node5"><a xlink:title=" ">
<polygon fill="white" stroke="#bfbfbf" points="572.9,-67.5 572.9,-86.5 619.9,-86.5 619.9,-67.5 572.9,-67.5"/>
<text text-anchor="middle" x="596.4" y="-74.5" font-family="Helvetica,sans-Serif" font-size="10.00">vector</text>
</a>
</g>
</g>
<!-- Node2&#45;&gt;Node5 -->
<g id="edge4" class="edge">
<title>Node2&#45;&gt;Node5</title>
<path fill="none" stroke="midnightblue" d="M1079.22,-131.14C1009.36,-128.42 807.21,-118.4 630.1,-86.8"/>
<polygon fill="midnightblue" stroke="midnightblue" points="630.55,-83.32 620.08,-84.98 629.3,-90.21 630.55,-83.32"/>
</g>
<!-- Node6 -->
<g id="node6" class="node">
<title>Node6</title>
<g id="a_node6"><a xlink:title=" ">
<polygon fill="white" stroke="#bfbfbf" points="638.4,-67.5 638.4,-86.5 702.4,-86.5 702.4,-67.5 638.4,-67.5"/>
<text text-anchor="middle" x="670.4" y="-74.5" font-family="Helvetica,sans-Serif" font-size="10.00">algorithm</text>
</a>
</g>
</g>
<!-- Node2&#45;&gt;Node6 -->
<g id="edge5" class="edge">
<title>Node2&#45;&gt;Node6</title>
<path fill="none" stroke="midnightblue" d="M1078.99,-130C1017.69,-124.97 856.71,-110.63 712.49,-87.03"/>
<polygon fill="midnightblue" stroke="midnightblue" points="713.01,-83.57 702.57,-85.39 711.87,-90.47 713.01,-83.57"/>
</g>
<!-- Node7 -->
<g id="node7" class="node">
<title>Node7</title>
<g id="a_node7"><a xlink:title=" ">
<polygon fill="white" stroke="#bfbfbf" points="539.4,-6 539.4,-25 599.4,-25 599.4,-6 539.4,-6"/>
<text text-anchor="middle" x="569.4" y="-13" font-family="Helvetica,sans-Serif" font-size="10.00">iostream</text>
</a>
</g>
</g>
<!-- Node2&#45;&gt;Node7 -->
<g id="edge6" class="edge">
<title>Node2&#45;&gt;Node7</title>
<path fill="none" stroke="midnightblue" d="M1079.16,-132.07C970.57,-132.1 546.81,-129.49 507.4,-87 489.42,-67.61 519.14,-44.47 543.32,-30.13"/>
<polygon fill="midnightblue" stroke="midnightblue" points="545.24,-33.07 552.21,-25.09 541.78,-26.98 545.24,-33.07"/>
</g>
<!-- Node8 -->
<g id="node8" class="node">
<title>Node8</title>
<g id="a_node8"><a xlink:title=" ">
<polygon fill="white" stroke="#bfbfbf" points="720.9,-67.5 720.9,-86.5 833.9,-86.5 833.9,-67.5 720.9,-67.5"/>
<text text-anchor="middle" x="777.4" y="-74.5" font-family="Helvetica,sans-Serif" font-size="10.00">boost/uuid/uuid.hpp</text>
</a>
</g>
</g>
<!-- Node2&#45;&gt;Node8 -->
<g id="edge7" class="edge">
<title>Node2&#45;&gt;Node8</title>
<path fill="none" stroke="midnightblue" d="M1079.29,-127.85C1028.3,-119.43 911.34,-100.12 838.89,-88.15"/>
<polygon fill="midnightblue" stroke="midnightblue" points="839.41,-84.69 828.97,-86.52 838.27,-91.6 839.41,-84.69"/>
</g>
<!-- Node9 -->
<g id="node9" class="node">
<title>Node9</title>
<g id="a_node9"><a xlink:title=" ">
<polygon fill="white" stroke="#bfbfbf" points="852.4,-67.5 852.4,-86.5 1022.4,-86.5 1022.4,-67.5 852.4,-67.5"/>
<text text-anchor="middle" x="937.4" y="-74.5" font-family="Helvetica,sans-Serif" font-size="10.00">boost/uuid/uuid_generators.hpp</text>
</a>
</g>
</g>
<!-- Node2&#45;&gt;Node9 -->
<g id="edge8" class="edge">
<title>Node2&#45;&gt;Node9</title>
<path fill="none" stroke="midnightblue" d="M1079.4,-123.92C1051.4,-114.86 1005.77,-100.11 973.81,-89.77"/>
<polygon fill="midnightblue" stroke="midnightblue" points="974.55,-86.33 963.96,-86.59 972.4,-92.99 974.55,-86.33"/>
</g>
<!-- Node10 -->
<g id="node10" class="node">
<title>Node10</title>
<g id="a_node10"><a xlink:title=" ">
<polygon fill="white" stroke="#bfbfbf" points="1040.9,-67.5 1040.9,-86.5 1167.9,-86.5 1167.9,-67.5 1040.9,-67.5"/>
<text text-anchor="middle" x="1104.4" y="-74.5" font-family="Helvetica,sans-Serif" font-size="10.00">boost/uuid/uuid_io.hpp</text>
</a>
</g>
</g>
<!-- Node2&#45;&gt;Node10 -->
<g id="edge9" class="edge">
<title>Node2&#45;&gt;Node10</title>
<path fill="none" stroke="midnightblue" d="M1104.4,-123.08C1104.4,-116.01 1104.4,-105.86 1104.4,-96.99"/>
<polygon fill="midnightblue" stroke="midnightblue" points="1107.9,-96.75 1104.4,-86.75 1100.9,-96.75 1107.9,-96.75"/>
</g>
<!-- Node11 -->
<g id="node11" class="node">
<title>Node11</title>
<g id="a_node11"><a xlink:title=" ">
<polygon fill="white" stroke="#bfbfbf" points="1186.4,-67.5 1186.4,-86.5 1296.4,-86.5 1296.4,-67.5 1186.4,-67.5"/>
<text text-anchor="middle" x="1241.4" y="-74.5" font-family="Helvetica,sans-Serif" font-size="10.00">nlohmann/json.hpp</text>
</a>
</g>
</g>
<!-- Node2&#45;&gt;Node11 -->
<g id="edge10" class="edge">
<title>Node2&#45;&gt;Node11</title>
<path fill="none" stroke="midnightblue" d="M1126.11,-123.44C1148.76,-114.52 1184.48,-100.44 1210.16,-90.32"/>
<polygon fill="midnightblue" stroke="midnightblue" points="1211.78,-93.44 1219.8,-86.52 1209.21,-86.93 1211.78,-93.44"/>
</g>
<!-- Node12 -->
<g id="node12" class="node">
<title>Node12</title>
<g id="a_node12"><a xlink:title=" ">
<polygon fill="white" stroke="#bfbfbf" points="1314.4,-67.5 1314.4,-86.5 1362.4,-86.5 1362.4,-67.5 1314.4,-67.5"/>
<text text-anchor="middle" x="1338.4" y="-74.5" font-family="Helvetica,sans-Serif" font-size="10.00">thread</text>
</a>
</g>
</g>
<!-- Node2&#45;&gt;Node12 -->
<g id="edge11" class="edge">
<title>Node2&#45;&gt;Node12</title>
<path fill="none" stroke="midnightblue" d="M1129.56,-126.76C1165.92,-119.1 1235.49,-104.12 1304.16,-87.22"/>
<polygon fill="midnightblue" stroke="midnightblue" points="1305.42,-90.52 1314.29,-84.71 1303.74,-83.72 1305.42,-90.52"/>
</g>
<!-- Node13 -->
<g id="node13" class="node">
<title>Node13</title>
<g id="a_node13"><a xlink:title=" ">
<polygon fill="white" stroke="#bfbfbf" points="1380.4,-67.5 1380.4,-86.5 1430.4,-86.5 1430.4,-67.5 1380.4,-67.5"/>
<text text-anchor="middle" x="1405.4" y="-74.5" font-family="Helvetica,sans-Serif" font-size="10.00">atomic</text>
</a>
</g>
</g>
<!-- Node2&#45;&gt;Node13 -->
<g id="edge12" class="edge">
<title>Node2&#45;&gt;Node13</title>
<path fill="none" stroke="midnightblue" d="M1129.58,-128.54C1175.48,-122.08 1276,-107.14 1370.24,-87.09"/>
<polygon fill="midnightblue" stroke="midnightblue" points="1371.17,-90.47 1380.21,-84.94 1369.7,-83.63 1371.17,-90.47"/>
</g>
<!-- Node14 -->
<g id="node14" class="node">
<title>Node14</title>
<g id="a_node14"><a xlink:href="GreenSock_8h.html" target="_top" xlink:title=" ">
<polygon fill="white" stroke="black" points="344.4,-67.5 344.4,-86.5 422.4,-86.5 422.4,-67.5 344.4,-67.5"/>
<text text-anchor="middle" x="383.4" y="-74.5" font-family="Helvetica,sans-Serif" font-size="10.00">GreenSock.h</text>
</a>
</g>
</g>
<!-- Node2&#45;&gt;Node14 -->
<g id="edge13" class="edge">
<title>Node2&#45;&gt;Node14</title>
<path fill="none" stroke="midnightblue" d="M1079.18,-130.45C994.01,-125.15 709.31,-107 474.4,-87 460.92,-85.85 446.32,-84.47 432.85,-83.14"/>
<polygon fill="midnightblue" stroke="midnightblue" points="433.1,-79.65 422.8,-82.13 432.4,-86.61 433.1,-79.65"/>
</g>
<!-- Node17 -->
<g id="node17" class="node">
<title>Node17</title>
<g id="a_node17"><a xlink:title=" ">
<polygon fill="white" stroke="#bfbfbf" points="189.4,-6 189.4,-25 237.4,-25 237.4,-6 189.4,-6"/>
<text text-anchor="middle" x="213.4" y="-13" font-family="Helvetica,sans-Serif" font-size="10.00">mutex</text>
</a>
</g>
</g>
<!-- Node2&#45;&gt;Node17 -->
<g id="edge25" class="edge">
<title>Node2&#45;&gt;Node17</title>
<path fill="none" stroke="midnightblue" d="M1079.26,-132.08C963.26,-132.22 479.36,-130.15 335.4,-87 324.85,-83.84 268.7,-50.19 236.37,-30.55"/>
<polygon fill="midnightblue" stroke="midnightblue" points="237.93,-27.39 227.57,-25.18 234.29,-33.37 237.93,-27.39"/>
</g>
<!-- Node18 -->
<g id="node18" class="node">
<title>Node18</title>
<g id="a_node18"><a xlink:href="Logger_8h.html" target="_top" xlink:title="Header for Strategy Logger interface.">
<polygon fill="white" stroke="black" points="1628.4,-67.5 1628.4,-86.5 1686.4,-86.5 1686.4,-67.5 1628.4,-67.5"/>
<text text-anchor="middle" x="1657.4" y="-74.5" font-family="Helvetica,sans-Serif" font-size="10.00">Logger.h</text>
</a>
</g>
</g>
<!-- Node2&#45;&gt;Node18 -->
<g id="edge19" class="edge">
<title>Node2&#45;&gt;Node18</title>
<path fill="none" stroke="midnightblue" d="M1129.51,-129.84C1200.5,-123.7 1408.74,-105.37 1581.4,-87 1593.36,-85.73 1606.36,-84.23 1618.17,-82.83"/>
<polygon fill="midnightblue" stroke="midnightblue" points="1618.68,-86.29 1628.19,-81.62 1617.84,-79.34 1618.68,-86.29"/>
</g>
<!-- Node20 -->
<g id="node20" class="node">
<title>Node20</title>
<g id="a_node20"><a xlink:title=" ">
<polygon fill="white" stroke="#bfbfbf" points="1448.9,-67.5 1448.9,-86.5 1495.9,-86.5 1495.9,-67.5 1448.9,-67.5"/>
<text text-anchor="middle" x="1472.4" y="-74.5" font-family="Helvetica,sans-Serif" font-size="10.00">queue</text>
</a>
</g>
</g>
<!-- Node2&#45;&gt;Node20 -->
<g id="edge23" class="edge">
<title>Node2&#45;&gt;Node20</title>
<path fill="none" stroke="midnightblue" d="M1129.81,-129.75C1184.53,-124.66 1317.68,-110.94 1438.88,-86.85"/>
<polygon fill="midnightblue" stroke="midnightblue" points="1439.59,-90.28 1448.7,-84.87 1438.21,-83.41 1439.59,-90.28"/>
</g>
<!-- Node21 -->
<g id="node21" class="node">
<title>Node21</title>
<g id="a_node21"><a xlink:title=" ">
<polygon fill="white" stroke="#bfbfbf" points="1514.4,-67.5 1514.4,-86.5 1572.4,-86.5 1572.4,-67.5 1514.4,-67.5"/>
<text text-anchor="middle" x="1543.4" y="-74.5" font-family="Helvetica,sans-Serif" font-size="10.00">memory</text>
</a>
</g>
</g>
<!-- Node2&#45;&gt;Node21 -->
<g id="edge24" class="edge">
<title>Node2&#45;&gt;Node21</title>
<path fill="none" stroke="midnightblue" d="M1129.82,-130.16C1191.89,-125.45 1356.28,-111.67 1503.94,-86.87"/>
<polygon fill="midnightblue" stroke="midnightblue" points="1504.82,-90.27 1514.09,-85.14 1503.64,-83.37 1504.82,-90.27"/>
</g>
<!-- Node14&#45;&gt;Node3 -->
<g id="edge17" class="edge">
<title>Node14&#45;&gt;Node3</title>
<path fill="none" stroke="midnightblue" d="M422.47,-72.74C446.87,-70.81 478.95,-68.46 507.4,-67 770.29,-53.47 1435.34,-92.02 1691.4,-31 1693.61,-30.47 1695.85,-29.78 1698.06,-28.99"/>
<polygon fill="midnightblue" stroke="midnightblue" points="1699.57,-32.15 1707.4,-25.02 1696.83,-25.71 1699.57,-32.15"/>
</g>
<!-- Node14&#45;&gt;Node7 -->
<g id="edge16" class="edge">
<title>Node14&#45;&gt;Node7</title>
<path fill="none" stroke="midnightblue" d="M413.13,-67.46C442.94,-58.76 490.08,-44.65 530.4,-31 532.8,-30.19 535.27,-29.33 537.75,-28.45"/>
<polygon fill="midnightblue" stroke="midnightblue" points="539.01,-31.71 547.21,-25.01 536.62,-25.13 539.01,-31.71"/>
</g>
<!-- Node15 -->
<g id="node15" class="node">
<title>Node15</title>
<g id="a_node15"><a xlink:title=" ">
<polygon fill="white" stroke="#bfbfbf" points="255.9,-0.5 255.9,-30.5 368.9,-30.5 368.9,-0.5 255.9,-0.5"/>
<text text-anchor="start" x="263.9" y="-18.5" font-family="Helvetica,sans-Serif" font-size="10.00">websocketpp/config</text>
<text text-anchor="middle" x="312.4" y="-7.5" font-family="Helvetica,sans-Serif" font-size="10.00">/asio_no_tls.hpp</text>
</a>
</g>
</g>
<!-- Node14&#45;&gt;Node15 -->
<g id="edge14" class="edge">
<title>Node14&#45;&gt;Node15</title>
<path fill="none" stroke="midnightblue" d="M373.23,-67.48C363.79,-59.57 349.38,-47.48 336.95,-37.07"/>
<polygon fill="midnightblue" stroke="midnightblue" points="339.05,-34.26 329.14,-30.52 334.55,-39.63 339.05,-34.26"/>
</g>
<!-- Node16 -->
<g id="node16" class="node">
<title>Node16</title>
<g id="a_node16"><a xlink:title=" ">
<polygon fill="white" stroke="#bfbfbf" points="387.4,-6 387.4,-25 521.4,-25 521.4,-6 387.4,-6"/>
<text text-anchor="middle" x="454.4" y="-13" font-family="Helvetica,sans-Serif" font-size="10.00">websocketpp/server.hpp</text>
</a>
</g>
</g>
<!-- Node14&#45;&gt;Node16 -->
<g id="edge15" class="edge">
<title>Node14&#45;&gt;Node16</title>
<path fill="none" stroke="midnightblue" d="M393.58,-67.48C404.75,-58.11 422.92,-42.88 436.49,-31.51"/>
<polygon fill="midnightblue" stroke="midnightblue" points="438.83,-34.11 444.25,-25.01 434.34,-28.75 438.83,-34.11"/>
</g>
<!-- Node14&#45;&gt;Node17 -->
<g id="edge18" class="edge">
<title>Node14&#45;&gt;Node17</title>
<path fill="none" stroke="midnightblue" d="M354.78,-67.48C326.87,-58.97 283.34,-45.14 246.4,-31 244.8,-30.38 243.15,-29.73 241.5,-29.06"/>
<polygon fill="midnightblue" stroke="midnightblue" points="242.69,-25.77 232.12,-25.1 239.97,-32.22 242.69,-25.77"/>
</g>
<!-- Node18&#45;&gt;Node3 -->
<g id="edge20" class="edge">
<title>Node18&#45;&gt;Node3</title>
<path fill="none" stroke="midnightblue" d="M1666.72,-67.48C1676.85,-58.2 1693.27,-43.17 1705.66,-31.83"/>
<polygon fill="midnightblue" stroke="midnightblue" points="1708.09,-34.34 1713.11,-25.01 1703.37,-29.18 1708.09,-34.34"/>
</g>
<!-- Node18&#45;&gt;Node7 -->
<g id="edge21" class="edge">
<title>Node18&#45;&gt;Node7</title>
<path fill="none" stroke="midnightblue" d="M1628.36,-69.27C1623.72,-68.38 1618.94,-67.58 1614.4,-67 1225.47,-17.22 749.39,-15.48 609.71,-16.16"/>
<polygon fill="midnightblue" stroke="midnightblue" points="609.46,-12.67 599.48,-16.22 609.5,-19.67 609.46,-12.67"/>
</g>
<!-- Node19 -->
<g id="node19" class="node">
<title>Node19</title>
<g id="a_node19"><a xlink:title=" ">
<polygon fill="white" stroke="#bfbfbf" points="1616.9,-6 1616.9,-25 1681.9,-25 1681.9,-6 1616.9,-6"/>
<text text-anchor="middle" x="1649.4" y="-13" font-family="Helvetica,sans-Serif" font-size="10.00">stdexcept</text>
</a>
</g>
</g>
<!-- Node18&#45;&gt;Node19 -->
<g id="edge22" class="edge">
<title>Node18&#45;&gt;Node19</title>
<path fill="none" stroke="midnightblue" d="M1656.26,-67.48C1655.13,-59.08 1653.37,-45.98 1651.91,-35.16"/>
<polygon fill="midnightblue" stroke="midnightblue" points="1655.35,-34.45 1650.55,-25.01 1648.41,-35.39 1655.35,-34.45"/>
</g>
<!-- Node22&#45;&gt;Node3 -->
<g id="edge28" class="edge">
<title>Node22&#45;&gt;Node3</title>
<path fill="none" stroke="midnightblue" d="M1337.58,-236.44C1340.56,-235.94 1343.53,-235.45 1346.4,-235 1465.13,-216.35 1507.96,-254.8 1614.4,-199 1674.03,-167.74 1689.46,-148.7 1716.4,-87 1723.54,-70.66 1724.51,-50.17 1724.02,-35.51"/>
<polygon fill="midnightblue" stroke="midnightblue" points="1727.49,-34.95 1723.39,-25.18 1720.5,-35.37 1727.49,-34.95"/>
</g>
<!-- Node22&#45;&gt;Node7 -->
<g id="edge27" class="edge">
<title>Node22&#45;&gt;Node7</title>
<path fill="none" stroke="midnightblue" d="M1337.75,-235.56C1434.82,-214.07 1663.1,-152.88 1581.4,-67 1547.36,-31.21 793.82,-19.35 609.71,-16.98"/>
<polygon fill="midnightblue" stroke="midnightblue" points="609.69,-13.48 599.64,-16.85 609.6,-20.48 609.69,-13.48"/>
</g>
<!-- Node23 -->
<g id="node23" class="node">
<title>Node23</title>
<g id="a_node23"><a xlink:href="PlantState_8h.html" target="_top" xlink:title="Abstract base class for plant state management.">
<polygon fill="white" stroke="black" points="1258.4,-179.5 1258.4,-198.5 1334.4,-198.5 1334.4,-179.5 1258.4,-179.5"/>
<text text-anchor="middle" x="1296.4" y="-186.5" font-family="Helvetica,sans-Serif" font-size="10.00">PlantState.h</text>
</a>
</g>
</g>
<!-- Node22&#45;&gt;Node23 -->
<g id="edge29" class="edge">
<title>Node22&#45;&gt;Node23</title>
<path fill="none" stroke="midnightblue" d="M1296.4,-235.08C1296.4,-228.01 1296.4,-217.86 1296.4,-208.99"/>
<polygon fill="midnightblue" stroke="midnightblue" points="1299.9,-208.75 1296.4,-198.75 1292.9,-208.75 1299.9,-208.75"/>
</g>
<!-- Node23&#45;&gt;Node2 -->
<g id="edge30" class="edge">
<title>Node23&#45;&gt;Node2</title>
<path fill="none" stroke="midnightblue" d="M1265.98,-179.44C1231.48,-169.74 1175.32,-153.95 1139.13,-143.77"/>
<polygon fill="midnightblue" stroke="midnightblue" points="1140.06,-140.39 1129.48,-141.05 1138.16,-147.13 1140.06,-140.39"/>
</g>
<!-- Node24&#45;&gt;Node3 -->
<g id="edge32" class="edge">
<title>Node24&#45;&gt;Node3</title>
<path fill="none" stroke="midnightblue" d="M1240.17,-179.54C1371.75,-158.61 1700.37,-104.78 1716.4,-87 1728.85,-73.2 1728.68,-51.09 1726.46,-35.31"/>
<polygon fill="midnightblue" stroke="midnightblue" points="1729.85,-34.37 1724.63,-25.15 1722.96,-35.61 1729.85,-34.37"/>
</g>
<!-- Node24&#45;&gt;Node25 -->
<g id="edge33" class="edge">
<title>Node24&#45;&gt;Node25</title>
<path fill="none" stroke="midnightblue" d="M1132.62,-184.86C968.22,-175.28 473.8,-146.44 312.16,-137.02"/>
<polygon fill="midnightblue" stroke="midnightblue" points="312.19,-133.51 302,-136.43 311.78,-140.5 312.19,-133.51"/>
</g>
<!-- Node25&#45;&gt;Node7 -->
<g id="edge34" class="edge">
<title>Node25&#45;&gt;Node7</title>
<path fill="none" stroke="midnightblue" d="M301.95,-123.69C337.07,-116.05 388.39,-103.43 431.4,-87 453.71,-78.48 511.41,-47.89 544.71,-29.92"/>
<polygon fill="midnightblue" stroke="midnightblue" points="546.68,-32.84 553.81,-25.01 543.34,-26.69 546.68,-32.84"/>
</g>
<!-- Node25&#45;&gt;Node14 -->
<g id="edge38" class="edge">
<title>Node25&#45;&gt;Node14</title>
<path fill="none" stroke="midnightblue" d="M279.89,-123.44C300.05,-114.6 331.73,-100.69 354.73,-90.59"/>
<polygon fill="midnightblue" stroke="midnightblue" points="356.26,-93.74 364.01,-86.52 353.44,-87.33 356.26,-93.74"/>
</g>
<!-- Node25&#45;&gt;Node17 -->
<g id="edge35" class="edge">
<title>Node25&#45;&gt;Node17</title>
<path fill="none" stroke="midnightblue" d="M218.73,-130.76C154.42,-127.87 35.61,-118.32 9.4,-87 -38.17,-30.14 109.63,-19.06 179.24,-16.96"/>
<polygon fill="midnightblue" stroke="midnightblue" points="179.4,-20.46 189.3,-16.7 179.22,-13.46 179.4,-20.46"/>
</g>
<!-- Node26 -->
<g id="node26" class="node">
<title>Node26</title>
<g id="a_node26"><a xlink:title=" ">
<polygon fill="white" stroke="#bfbfbf" points="18.4,-67.5 18.4,-86.5 68.4,-86.5 68.4,-67.5 18.4,-67.5"/>
<text text-anchor="middle" x="43.4" y="-74.5" font-family="Helvetica,sans-Serif" font-size="10.00">chrono</text>
</a>
</g>
</g>
<!-- Node25&#45;&gt;Node26 -->
<g id="edge36" class="edge">
<title>Node25&#45;&gt;Node26</title>
<path fill="none" stroke="midnightblue" d="M224.93,-123.47C190.05,-115.05 135.03,-101.64 78.47,-87.24"/>
<polygon fill="midnightblue" stroke="midnightblue" points="79.2,-83.81 68.64,-84.73 77.47,-90.6 79.2,-83.81"/>
</g>
<!-- Node27 -->
<g id="node27" class="node">
<title>Node27</title>
<g id="a_node27"><a xlink:title=" ">
<polygon fill="white" stroke="#bfbfbf" points="86.4,-67.5 86.4,-86.5 140.4,-86.5 140.4,-67.5 86.4,-67.5"/>
<text text-anchor="middle" x="113.4" y="-74.5" font-family="Helvetica,sans-Serif" font-size="10.00">random</text>
</a>
</g>
</g>
<!-- Node25&#45;&gt;Node27 -->
<g id="edge37" class="edge">
<title>Node25&#45;&gt;Node27</title>
<path fill="none" stroke="midnightblue" d="M237.11,-123.44C212.6,-114.44 173.81,-100.19 146.2,-90.05"/>
<polygon fill="midnightblue" stroke="midnightblue" points="147.18,-86.68 136.59,-86.52 144.77,-93.25 147.18,-86.68"/>
</g>
<!-- Node28 -->
<g id="node28" class="node">
<title>Node28</title>
<g id="a_node28"><a xlink:title=" ">
<polygon fill="white" stroke="#bfbfbf" points="158.4,-67.5 158.4,-86.5 214.4,-86.5 214.4,-67.5 158.4,-67.5"/>
<text text-anchor="middle" x="186.4" y="-74.5" font-family="Helvetica,sans-Serif" font-size="10.00">sstream</text>
</a>
</g>
</g>
<!-- Node25&#45;&gt;Node28 -->
<g id="edge39" class="edge">
<title>Node25&#45;&gt;Node28</title>
<path fill="none" stroke="midnightblue" d="M248.51,-123.32C237.25,-115.11 220.12,-102.6 206.69,-92.81"/>
<polygon fill="midnightblue" stroke="midnightblue" points="208.65,-89.9 198.51,-86.83 204.52,-95.56 208.65,-89.9"/>
</g>
<!-- Node29 -->
<g id="node29" class="node">
<title>Node29</title>
<g id="a_node29"><a xlink:title=" ">
<polygon fill="white" stroke="#bfbfbf" points="232.4,-67.5 232.4,-86.5 288.4,-86.5 288.4,-67.5 232.4,-67.5"/>
<text text-anchor="middle" x="260.4" y="-74.5" font-family="Helvetica,sans-Serif" font-size="10.00">iomanip</text>
</a>
</g>
</g>
<!-- Node25&#45;&gt;Node29 -->
<g id="edge40" class="edge">
<title>Node25&#45;&gt;Node29</title>
<path fill="none" stroke="midnightblue" d="M260.4,-123.08C260.4,-116.01 260.4,-105.86 260.4,-96.99"/>
<polygon fill="midnightblue" stroke="midnightblue" points="263.9,-96.75 260.4,-86.75 256.9,-96.75 263.9,-96.75"/>
</g>
</g>
</svg>
        <g id="navigator" transform="translate(0 0)" fill="#404254">
                <rect fill="#f2f5e9" fill-opacity="0.5" stroke="#606060" stroke-width=".5" x="0" y="0" width="60" height="60"/>
                <use id="zoomplus" xlink:href="#zoomPlus" x="17" y="9" onmousedown="handleZoom(evt,'in')"/>
                <use id="zoomminus" xlink:href="#zoomMin" x="42" y="9" onmousedown="handleZoom(evt,'out')"/>
                <use id="reset" xlink:href="#resetDef" x="30" y="36" onmousedown="handleReset()"/>
                <g id="arrowUp" xlink:href="#dirArrow" transform="translate(30 24)" onmousedown="handlePan(0,-1)">
                  <use xlink:href="#rim" fill="#404040">
                        <set attributeName="fill" to="#808080" begin="arrowUp.mouseover" end="arrowUp.mouseout"/>
                  </use>
                  <path fill="none" stroke="white" stroke-width="1.5" d="M0,-3.0v7 M-2.5,-0.5L0,-3.0L2.5,-0.5"/>
                </g>
                <g id="arrowRight" xlink:href="#dirArrow" transform="rotate(90) translate(36 -43)" onmousedown="handlePan(1,0)">
                  <use xlink:href="#rim" fill="#404040">
                        <set attributeName="fill" to="#808080" begin="arrowRight.mouseover" end="arrowRight.mouseout"/>
                  </use>
                  <path fill="none" stroke="white" stroke-width="1.5" d="M0,-3.0v7 M-2.5,-0.5L0,-3.0L2.5,-0.5"/>
                </g>
                <g id="arrowDown" xlink:href="#dirArrow" transform="rotate(180) translate(-30 -48)" onmousedown="handlePan(0,1)">
                  <use xlink:href="#rim" fill="#404040">
                        <set attributeName="fill" to="#808080" begin="arrowDown.mouseover" end="arrowDown.mouseout"/>
                  </use>
                  <path fill="none" stroke="white" stroke-width="1.5" d="M0,-3.0v7 M-2.5,-0.5L0,-3.0L2.5,-0.5"/>
                </g>
                <g id="arrowLeft" xlink:href="#dirArrow" transform="rotate(270) translate(-36 17)" onmousedown="handlePan(-1,0)">
                  <use xlink:href="#rim" fill="#404040">
                        <set attributeName="fill" to="#808080" begin="arrowLeft.mouseover" end="arrowLeft.mouseout"/>
                  </use>
                  <path fill="none" stroke="white" stroke-width="1.5" d="M0,-3.0v7 M-2.5,-0.5L0,-3.0L2.5,-0.5"/>
                </g>
        </g>
        <svg viewBox="0 0 15 15" width="100%" height="30px" preserveAspectRatio="xMaxYMin meet">
         <g id="arrow_out" transform="scale(0.3 0.3)">
          <a xlink:href="Plant_8cpp__incl_org.svg" target="_base">
           <rect id="button" ry="5" rx="5" y="6" x="6" height="38" width="38"
                fill="#f2f5e9" fill-opacity="0.5" stroke="#606060" stroke-width="1.0"/>
           <path id="arrow"
             d="M 11.500037,31.436501 C 11.940474,20.09759 22.043105,11.32322 32.158766,21.979434 L 37.068811,17.246167 C 37.068811,17.246167 37.088388,32 37.088388,32 L 22.160133,31.978069 C 22.160133,31.978069 26.997745,27.140456 26.997745,27.140456 C 18.528582,18.264221 13.291696,25.230495 11.500037,31.436501 z"
             style="fill:#404040;"/>
          </a>
         </g>
        </svg>
</svg>
