<?xml version="1.0" encoding="UTF-8" standalone="no"?>
<!DOCTYPE svg PUBLIC "-//W3C//DTD SVG 1.1//EN"
 "http://www.w3.org/Graphics/SVG/1.1/DTD/svg11.dtd">
<!-- Generated by graphviz version 2.43.0 (0)
 -->
<!-- Title: backend/plant/PlantCreator.h Pages: 1 -->
<svg width="748pt" height="140pt"
 viewBox="0.00 0.00 748.00 140.00" xmlns="http://www.w3.org/2000/svg" xmlns:xlink="http://www.w3.org/1999/xlink">
<g id="graph0" class="graph" transform="scale(1 1) rotate(0) translate(4 136)">
<title>backend/plant/PlantCreator.h</title>
<polygon fill="white" stroke="transparent" points="-4,4 -4,-136 744,-136 744,4 -4,4"/>
<!-- Node1 -->
<g id="node1" class="node">
<title>Node1</title>
<g id="a_node1"><a xlink:title="Defines the abstract PlantCreator class used in the Factory/Prototype creation process.">
<polygon fill="#bfbfbf" stroke="black" points="290.5,-112.5 290.5,-131.5 447.5,-131.5 447.5,-112.5 290.5,-112.5"/>
<text text-anchor="middle" x="369" y="-119.5" font-family="Helvetica,sans-Serif" font-size="10.00">backend/plant/PlantCreator.h</text>
</a>
</g>
</g>
<!-- Node2 -->
<g id="node2" class="node">
<title>Node2</title>
<g id="a_node2"><a xlink:href="FlowerCreator_8h.html" target="_top" xlink:title="Defines the FlowerCreator class for creating Flower objects.">
<polygon fill="white" stroke="black" points="5.5,-56.5 5.5,-75.5 170.5,-75.5 170.5,-56.5 5.5,-56.5"/>
<text text-anchor="middle" x="88" y="-63.5" font-family="Helvetica,sans-Serif" font-size="10.00">backend/plant/FlowerCreator.h</text>
</a>
</g>
</g>
<!-- Node1&#45;&gt;Node2 -->
<g id="edge1" class="edge">
<title>Node1&#45;&gt;Node2</title>
<path fill="none" stroke="midnightblue" d="M314.55,-110.54C261.45,-100.33 181.66,-85 132.32,-75.52"/>
<polygon fill="midnightblue" stroke="midnightblue" points="313.99,-113.99 324.47,-112.44 315.31,-107.12 313.99,-113.99"/>
</g>
<!-- Node4 -->
<g id="node4" class="node">
<title>Node4</title>
<g id="a_node4"><a xlink:href="PlantCreator_8cpp.html" target="_top" xlink:title="Implements the functionality defined in the PlantCreator class.">
<polygon fill="white" stroke="black" points="189,-56.5 189,-75.5 357,-75.5 357,-56.5 189,-56.5"/>
<text text-anchor="middle" x="273" y="-63.5" font-family="Helvetica,sans-Serif" font-size="10.00">backend/plant/PlantCreator.cpp</text>
</a>
</g>
</g>
<!-- Node1&#45;&gt;Node4 -->
<g id="edge3" class="edge">
<title>Node1&#45;&gt;Node4</title>
<path fill="none" stroke="midnightblue" d="M344.43,-107.18C326.76,-97.24 303.49,-84.15 288.39,-75.65"/>
<polygon fill="midnightblue" stroke="midnightblue" points="343.14,-110.47 353.58,-112.32 346.58,-104.37 343.14,-110.47"/>
</g>
<!-- Node5 -->
<g id="node5" class="node">
<title>Node5</title>
<g id="a_node5"><a xlink:href="SucculentCreator_8h.html" target="_top" xlink:title="Defines the SucculentCreator class for creating Succulent objects.">
<polygon fill="white" stroke="black" points="375.5,-56.5 375.5,-75.5 554.5,-75.5 554.5,-56.5 375.5,-56.5"/>
<text text-anchor="middle" x="465" y="-63.5" font-family="Helvetica,sans-Serif" font-size="10.00">backend/plant/SucculentCreator.h</text>
</a>
</g>
</g>
<!-- Node1&#45;&gt;Node5 -->
<g id="edge4" class="edge">
<title>Node1&#45;&gt;Node5</title>
<path fill="none" stroke="midnightblue" d="M393.57,-107.18C411.24,-97.24 434.51,-84.15 449.61,-75.65"/>
<polygon fill="midnightblue" stroke="midnightblue" points="391.42,-104.37 384.42,-112.32 394.86,-110.47 391.42,-104.37"/>
</g>
<!-- Node7 -->
<g id="node7" class="node">
<title>Node7</title>
<g id="a_node7"><a xlink:href="TreeCreator_8h.html" target="_top" xlink:title="Defines the TreeCreator class for creating Tree objects.">
<polygon fill="white" stroke="black" points="579,-56.5 579,-75.5 731,-75.5 731,-56.5 579,-56.5"/>
<text text-anchor="middle" x="655" y="-63.5" font-family="Helvetica,sans-Serif" font-size="10.00">backend/plant/TreeCreator.h</text>
</a>
</g>
</g>
<!-- Node1&#45;&gt;Node7 -->
<g id="edge6" class="edge">
<title>Node1&#45;&gt;Node7</title>
<path fill="none" stroke="midnightblue" d="M424.41,-110.54C478.47,-100.33 559.67,-85 609.89,-75.52"/>
<polygon fill="midnightblue" stroke="midnightblue" points="423.49,-107.15 414.32,-112.44 424.79,-114.03 423.49,-107.15"/>
</g>
<!-- Node3 -->
<g id="node3" class="node">
<title>Node3</title>
<g id="a_node3"><a xlink:href="FlowerCreator_8cpp.html" target="_top" xlink:title="Implements the functionality defined in the FlowerCreator class.">
<polygon fill="white" stroke="black" points="0,-0.5 0,-19.5 176,-19.5 176,-0.5 0,-0.5"/>
<text text-anchor="middle" x="88" y="-7.5" font-family="Helvetica,sans-Serif" font-size="10.00">backend/plant/FlowerCreator.cpp</text>
</a>
</g>
</g>
<!-- Node2&#45;&gt;Node3 -->
<g id="edge2" class="edge">
<title>Node2&#45;&gt;Node3</title>
<path fill="none" stroke="midnightblue" d="M88,-45.8C88,-36.91 88,-26.78 88,-19.75"/>
<polygon fill="midnightblue" stroke="midnightblue" points="84.5,-46.08 88,-56.08 91.5,-46.08 84.5,-46.08"/>
</g>
<!-- Node6 -->
<g id="node6" class="node">
<title>Node6</title>
<g id="a_node6"><a xlink:href="SucculentCreator_8cpp.html" target="_top" xlink:title="Implements the functionality defined in the SucculentCreator class.">
<polygon fill="white" stroke="black" points="366.5,-0.5 366.5,-19.5 557.5,-19.5 557.5,-0.5 366.5,-0.5"/>
<text text-anchor="middle" x="462" y="-7.5" font-family="Helvetica,sans-Serif" font-size="10.00">backend/plant/SucculentCreator.cpp</text>
</a>
</g>
</g>
<!-- Node5&#45;&gt;Node6 -->
<g id="edge5" class="edge">
<title>Node5&#45;&gt;Node6</title>
<path fill="none" stroke="midnightblue" d="M463.93,-45.8C463.44,-36.91 462.88,-26.78 462.49,-19.75"/>
<polygon fill="midnightblue" stroke="midnightblue" points="460.46,-46.29 464.5,-56.08 467.44,-45.9 460.46,-46.29"/>
</g>
<!-- Node8 -->
<g id="node8" class="node">
<title>Node8</title>
<g id="a_node8"><a xlink:href="TreeCreator_8cpp.html" target="_top" xlink:title="Implements the functionality defined in the TreeCreator class.">
<polygon fill="white" stroke="black" points="576,-0.5 576,-19.5 740,-19.5 740,-0.5 576,-0.5"/>
<text text-anchor="middle" x="658" y="-7.5" font-family="Helvetica,sans-Serif" font-size="10.00">backend/plant/TreeCreator.cpp</text>
</a>
</g>
</g>
<!-- Node7&#45;&gt;Node8 -->
<g id="edge7" class="edge">
<title>Node7&#45;&gt;Node8</title>
<path fill="none" stroke="midnightblue" d="M656.07,-45.8C656.56,-36.91 657.12,-26.78 657.51,-19.75"/>
<polygon fill="midnightblue" stroke="midnightblue" points="652.56,-45.9 655.5,-56.08 659.54,-46.29 652.56,-45.9"/>
</g>
</g>
</svg>
