<?xml version="1.0" encoding="UTF-8" standalone="no"?>
<!DOCTYPE svg PUBLIC "-//W3C//DTD SVG 1.1//EN"
 "http://www.w3.org/Graphics/SVG/1.1/DTD/svg11.dtd">
<!-- Generated by graphviz version 2.43.0 (0)
 -->
<!-- Title: backend/plant/PlantHealth.h Pages: 1 -->
<svg width="504pt" height="151pt"
 viewBox="0.00 0.00 504.00 151.00" xmlns="http://www.w3.org/2000/svg" xmlns:xlink="http://www.w3.org/1999/xlink">
<g id="graph0" class="graph" transform="scale(1 1) rotate(0) translate(4 147)">
<title>backend/plant/PlantHealth.h</title>
<polygon fill="white" stroke="transparent" points="-4,4 -4,-147 500,-147 500,4 -4,4"/>
<!-- Node1 -->
<g id="node1" class="node">
<title>Node1</title>
<g id="a_node1"><a xlink:title="Health management system for plant lifecycle and care requirements.">
<polygon fill="#bfbfbf" stroke="black" points="174,-123.5 174,-142.5 328,-142.5 328,-123.5 174,-123.5"/>
<text text-anchor="middle" x="251" y="-130.5" font-family="Helvetica,sans-Serif" font-size="10.00">backend/plant/PlantHealth.h</text>
</a>
</g>
</g>
<!-- Node2 -->
<g id="node2" class="node">
<title>Node2</title>
<g id="a_node2"><a xlink:title=" ">
<polygon fill="white" stroke="#bfbfbf" points="0,-6 0,-25 60,-25 60,-6 0,-6"/>
<text text-anchor="middle" x="30" y="-13" font-family="Helvetica,sans-Serif" font-size="10.00">iostream</text>
</a>
</g>
</g>
<!-- Node1&#45;&gt;Node2 -->
<g id="edge1" class="edge">
<title>Node1&#45;&gt;Node2</title>
<path fill="none" stroke="midnightblue" d="M205.74,-123.44C176.01,-116.53 137.03,-104.95 106,-87 81.29,-72.71 58.02,-49.06 43.9,-33.14"/>
<polygon fill="midnightblue" stroke="midnightblue" points="46.22,-30.48 37.04,-25.19 40.93,-35.05 46.22,-30.48"/>
</g>
<!-- Node3 -->
<g id="node3" class="node">
<title>Node3</title>
<g id="a_node3"><a xlink:title=" ">
<polygon fill="white" stroke="#bfbfbf" points="78,-6 78,-25 126,-25 126,-6 78,-6"/>
<text text-anchor="middle" x="102" y="-13" font-family="Helvetica,sans-Serif" font-size="10.00">mutex</text>
</a>
</g>
</g>
<!-- Node1&#45;&gt;Node3 -->
<g id="edge2" class="edge">
<title>Node1&#45;&gt;Node3</title>
<path fill="none" stroke="midnightblue" d="M189.53,-123.45C165.2,-117.13 138.83,-106.13 121,-87 107.92,-72.97 103.67,-50.91 102.37,-35.2"/>
<polygon fill="midnightblue" stroke="midnightblue" points="105.86,-34.9 101.87,-25.09 98.87,-35.25 105.86,-34.9"/>
</g>
<!-- Node4 -->
<g id="node4" class="node">
<title>Node4</title>
<g id="a_node4"><a xlink:title=" ">
<polygon fill="white" stroke="#bfbfbf" points="226,-67.5 226,-86.5 276,-86.5 276,-67.5 226,-67.5"/>
<text text-anchor="middle" x="251" y="-74.5" font-family="Helvetica,sans-Serif" font-size="10.00">chrono</text>
</a>
</g>
</g>
<!-- Node1&#45;&gt;Node4 -->
<g id="edge3" class="edge">
<title>Node1&#45;&gt;Node4</title>
<path fill="none" stroke="midnightblue" d="M251,-123.08C251,-116.01 251,-105.86 251,-96.99"/>
<polygon fill="midnightblue" stroke="midnightblue" points="254.5,-96.75 251,-86.75 247.5,-96.75 254.5,-96.75"/>
</g>
<!-- Node5 -->
<g id="node5" class="node">
<title>Node5</title>
<g id="a_node5"><a xlink:title=" ">
<polygon fill="white" stroke="#bfbfbf" points="294,-67.5 294,-86.5 348,-86.5 348,-67.5 294,-67.5"/>
<text text-anchor="middle" x="321" y="-74.5" font-family="Helvetica,sans-Serif" font-size="10.00">random</text>
</a>
</g>
</g>
<!-- Node1&#45;&gt;Node5 -->
<g id="edge4" class="edge">
<title>Node1&#45;&gt;Node5</title>
<path fill="none" stroke="midnightblue" d="M262.25,-123.32C272.8,-115.18 288.8,-102.84 301.44,-93.09"/>
<polygon fill="midnightblue" stroke="midnightblue" points="303.77,-95.71 309.55,-86.83 299.49,-90.17 303.77,-95.71"/>
</g>
<!-- Node6 -->
<g id="node6" class="node">
<title>Node6</title>
<g id="a_node6"><a xlink:href="GreenSock_8h.html" target="_top" xlink:title=" ">
<polygon fill="white" stroke="black" points="130,-67.5 130,-86.5 208,-86.5 208,-67.5 130,-67.5"/>
<text text-anchor="middle" x="169" y="-74.5" font-family="Helvetica,sans-Serif" font-size="10.00">GreenSock.h</text>
</a>
</g>
</g>
<!-- Node1&#45;&gt;Node6 -->
<g id="edge5" class="edge">
<title>Node1&#45;&gt;Node6</title>
<path fill="none" stroke="midnightblue" d="M237.83,-123.32C225.15,-114.98 205.77,-102.21 190.79,-92.35"/>
<polygon fill="midnightblue" stroke="midnightblue" points="192.42,-89.23 182.14,-86.65 188.57,-95.08 192.42,-89.23"/>
</g>
<!-- Node10 -->
<g id="node10" class="node">
<title>Node10</title>
<g id="a_node10"><a xlink:title=" ">
<polygon fill="white" stroke="#bfbfbf" points="366,-67.5 366,-86.5 422,-86.5 422,-67.5 366,-67.5"/>
<text text-anchor="middle" x="394" y="-74.5" font-family="Helvetica,sans-Serif" font-size="10.00">sstream</text>
</a>
</g>
</g>
<!-- Node1&#45;&gt;Node10 -->
<g id="edge11" class="edge">
<title>Node1&#45;&gt;Node10</title>
<path fill="none" stroke="midnightblue" d="M273.66,-123.44C297.4,-114.48 334.91,-100.31 361.74,-90.18"/>
<polygon fill="midnightblue" stroke="midnightblue" points="363.33,-93.32 371.45,-86.52 360.86,-86.77 363.33,-93.32"/>
</g>
<!-- Node11 -->
<g id="node11" class="node">
<title>Node11</title>
<g id="a_node11"><a xlink:title=" ">
<polygon fill="white" stroke="#bfbfbf" points="440,-67.5 440,-86.5 496,-86.5 496,-67.5 440,-67.5"/>
<text text-anchor="middle" x="468" y="-74.5" font-family="Helvetica,sans-Serif" font-size="10.00">iomanip</text>
</a>
</g>
</g>
<!-- Node1&#45;&gt;Node11 -->
<g id="edge12" class="edge">
<title>Node1&#45;&gt;Node11</title>
<path fill="none" stroke="midnightblue" d="M285.38,-123.44C324.83,-113.63 389.3,-97.59 430.14,-87.42"/>
<polygon fill="midnightblue" stroke="midnightblue" points="431.13,-90.78 439.99,-84.97 429.44,-83.99 431.13,-90.78"/>
</g>
<!-- Node6&#45;&gt;Node2 -->
<g id="edge8" class="edge">
<title>Node6&#45;&gt;Node2</title>
<path fill="none" stroke="midnightblue" d="M149.08,-67.48C125.55,-57.4 86.19,-40.55 59.21,-29"/>
<polygon fill="midnightblue" stroke="midnightblue" points="60.45,-25.73 49.88,-25.01 57.69,-32.16 60.45,-25.73"/>
</g>
<!-- Node6&#45;&gt;Node3 -->
<g id="edge10" class="edge">
<title>Node6&#45;&gt;Node3</title>
<path fill="none" stroke="midnightblue" d="M159.4,-67.48C148.95,-58.2 132.03,-43.17 119.26,-31.83"/>
<polygon fill="midnightblue" stroke="midnightblue" points="121.38,-29.03 111.58,-25.01 116.73,-34.27 121.38,-29.03"/>
</g>
<!-- Node7 -->
<g id="node7" class="node">
<title>Node7</title>
<g id="a_node7"><a xlink:title=" ">
<polygon fill="white" stroke="#bfbfbf" points="144.5,-0.5 144.5,-30.5 257.5,-30.5 257.5,-0.5 144.5,-0.5"/>
<text text-anchor="start" x="152.5" y="-18.5" font-family="Helvetica,sans-Serif" font-size="10.00">websocketpp/config</text>
<text text-anchor="middle" x="201" y="-7.5" font-family="Helvetica,sans-Serif" font-size="10.00">/asio_no_tls.hpp</text>
</a>
</g>
</g>
<!-- Node6&#45;&gt;Node7 -->
<g id="edge6" class="edge">
<title>Node6&#45;&gt;Node7</title>
<path fill="none" stroke="midnightblue" d="M173.58,-67.48C177.51,-60.17 183.36,-49.3 188.64,-39.47"/>
<polygon fill="midnightblue" stroke="midnightblue" points="191.8,-40.99 193.46,-30.52 185.64,-37.67 191.8,-40.99"/>
</g>
<!-- Node8 -->
<g id="node8" class="node">
<title>Node8</title>
<g id="a_node8"><a xlink:title=" ">
<polygon fill="white" stroke="#bfbfbf" points="276,-6 276,-25 410,-25 410,-6 276,-6"/>
<text text-anchor="middle" x="343" y="-13" font-family="Helvetica,sans-Serif" font-size="10.00">websocketpp/server.hpp</text>
</a>
</g>
</g>
<!-- Node6&#45;&gt;Node8 -->
<g id="edge7" class="edge">
<title>Node6&#45;&gt;Node8</title>
<path fill="none" stroke="midnightblue" d="M193.93,-67.48C224.04,-57.18 274.83,-39.81 308.64,-28.25"/>
<polygon fill="midnightblue" stroke="midnightblue" points="309.79,-31.56 318.12,-25.01 307.52,-24.93 309.79,-31.56"/>
</g>
<!-- Node9 -->
<g id="node9" class="node">
<title>Node9</title>
<g id="a_node9"><a xlink:title=" ">
<polygon fill="white" stroke="#bfbfbf" points="428,-6 428,-25 472,-25 472,-6 428,-6"/>
<text text-anchor="middle" x="450" y="-13" font-family="Helvetica,sans-Serif" font-size="10.00">string</text>
</a>
</g>
</g>
<!-- Node6&#45;&gt;Node9 -->
<g id="edge9" class="edge">
<title>Node6&#45;&gt;Node9</title>
<path fill="none" stroke="midnightblue" d="M208.03,-68.65C211.06,-68.09 214.08,-67.53 217,-67 306.71,-50.6 332.07,-58.55 419,-31 420.67,-30.47 422.38,-29.87 424.07,-29.22"/>
<polygon fill="midnightblue" stroke="midnightblue" points="425.77,-32.3 433.59,-25.15 423.02,-25.86 425.77,-32.3"/>
</g>
</g>
</svg>
