<?xml version="1.0" encoding="UTF-8" standalone="no"?>
<!DOCTYPE svg PUBLIC "-//W3C//DTD SVG 1.1//EN"
 "http://www.w3.org/Graphics/SVG/1.1/DTD/svg11.dtd">
<!-- Generated by graphviz version 2.43.0 (0)
 -->
<!-- Title: backend/game/Return.h Pages: 1 -->
<svg width="550pt" height="431pt"
 viewBox="0.00 0.00 549.50 431.00" xmlns="http://www.w3.org/2000/svg" xmlns:xlink="http://www.w3.org/1999/xlink">
<g id="graph0" class="graph" transform="scale(1 1) rotate(0) translate(4 427)">
<title>backend/game/Return.h</title>
<polygon fill="white" stroke="transparent" points="-4,4 -4,-427 545.5,-427 545.5,4 -4,4"/>
<!-- Node1 -->
<g id="node1" class="node">
<title>Node1</title>
<g id="a_node1"><a xlink:title="Transaction strategy for return operations.">
<polygon fill="#bfbfbf" stroke="black" points="66,-403.5 66,-422.5 198,-422.5 198,-403.5 66,-403.5"/>
<text text-anchor="middle" x="132" y="-410.5" font-family="Helvetica,sans-Serif" font-size="10.00">backend/game/Return.h</text>
</a>
</g>
</g>
<!-- Node2 -->
<g id="node2" class="node">
<title>Node2</title>
<g id="a_node2"><a xlink:href="Transaction_8h.html" target="_top" xlink:title="Represents a financial transaction in the system.">
<polygon fill="white" stroke="black" points="54.5,-347.5 54.5,-366.5 209.5,-366.5 209.5,-347.5 54.5,-347.5"/>
<text text-anchor="middle" x="132" y="-354.5" font-family="Helvetica,sans-Serif" font-size="10.00">backend/game/Transaction.h</text>
</a>
</g>
</g>
<!-- Node1&#45;&gt;Node2 -->
<g id="edge1" class="edge">
<title>Node1&#45;&gt;Node2</title>
<path fill="none" stroke="midnightblue" d="M132,-392.8C132,-383.91 132,-373.78 132,-366.75"/>
<polygon fill="midnightblue" stroke="midnightblue" points="128.5,-393.08 132,-403.08 135.5,-393.08 128.5,-393.08"/>
</g>
<!-- Node3 -->
<g id="node3" class="node">
<title>Node3</title>
<g id="a_node3"><a xlink:href="Manager_8h.html" target="_top" xlink:title="Manager class for coordinating plant sales and customer interactions.">
<polygon fill="white" stroke="black" points="73.5,-280.5 73.5,-310.5 190.5,-310.5 190.5,-280.5 73.5,-280.5"/>
<text text-anchor="start" x="81.5" y="-298.5" font-family="Helvetica,sans-Serif" font-size="10.00">backend/greenhouse</text>
<text text-anchor="middle" x="132" y="-287.5" font-family="Helvetica,sans-Serif" font-size="10.00">/Manager.h</text>
</a>
</g>
</g>
<!-- Node2&#45;&gt;Node3 -->
<g id="edge2" class="edge">
<title>Node2&#45;&gt;Node3</title>
<path fill="none" stroke="midnightblue" d="M132,-337.23C132,-328.59 132,-318.5 132,-310.52"/>
<polygon fill="midnightblue" stroke="midnightblue" points="128.5,-337.48 132,-347.48 135.5,-337.48 128.5,-337.48"/>
</g>
<!-- Node4 -->
<g id="node4" class="node">
<title>Node4</title>
<g id="a_node4"><a xlink:href="Game_8h.html" target="_top" xlink:title="Header file for Game class &#45; Main game facade.">
<polygon fill="white" stroke="black" points="67.5,-224.5 67.5,-243.5 196.5,-243.5 196.5,-224.5 67.5,-224.5"/>
<text text-anchor="middle" x="132" y="-231.5" font-family="Helvetica,sans-Serif" font-size="10.00">backend/game/Game.h</text>
</a>
</g>
</g>
<!-- Node3&#45;&gt;Node4 -->
<g id="edge3" class="edge">
<title>Node3&#45;&gt;Node4</title>
<path fill="none" stroke="midnightblue" d="M132,-270.29C132,-260.86 132,-250.65 132,-243.66"/>
<polygon fill="midnightblue" stroke="midnightblue" points="128.5,-270.4 132,-280.4 135.5,-270.4 128.5,-270.4"/>
</g>
<!-- Node5 -->
<g id="node5" class="node">
<title>Node5</title>
<g id="a_node5"><a xlink:href="API_8h.html" target="_top" xlink:title="Bootstrapper for public facing API.">
<polygon fill="white" stroke="black" points="0,-168.5 0,-187.5 104,-187.5 104,-168.5 0,-168.5"/>
<text text-anchor="middle" x="52" y="-175.5" font-family="Helvetica,sans-Serif" font-size="10.00">backend/API/API.h</text>
</a>
</g>
</g>
<!-- Node4&#45;&gt;Node5 -->
<g id="edge4" class="edge">
<title>Node4&#45;&gt;Node5</title>
<path fill="none" stroke="midnightblue" d="M110.7,-218.62C96.08,-208.76 77.17,-195.99 64.82,-187.65"/>
<polygon fill="midnightblue" stroke="midnightblue" points="108.9,-221.63 119.15,-224.32 112.82,-215.83 108.9,-221.63"/>
</g>
<!-- Node6 -->
<g id="node6" class="node">
<title>Node6</title>
<g id="a_node6"><a xlink:href="APIController_8h.html" target="_top" xlink:title="Define endpoints.">
<polygon fill="white" stroke="black" points="115.5,-56.5 115.5,-75.5 266.5,-75.5 266.5,-56.5 115.5,-56.5"/>
<text text-anchor="middle" x="191" y="-63.5" font-family="Helvetica,sans-Serif" font-size="10.00">backend/API/APIController.h</text>
</a>
</g>
</g>
<!-- Node4&#45;&gt;Node6 -->
<g id="edge7" class="edge">
<title>Node4&#45;&gt;Node6</title>
<path fill="none" stroke="midnightblue" d="M131.73,-214.17C132.09,-189.53 135.17,-145.53 151,-112 157.87,-97.44 170.95,-84.12 180.28,-75.81"/>
<polygon fill="midnightblue" stroke="midnightblue" points="128.23,-214.3 131.73,-224.3 135.23,-214.31 128.23,-214.3"/>
</g>
<!-- Node8 -->
<g id="node8" class="node">
<title>Node8</title>
<g id="a_node8"><a xlink:href="MenuOption_8h.html" target="_top" xlink:title="Base class for menu command options.">
<polygon fill="white" stroke="black" points="170.5,-168.5 170.5,-187.5 329.5,-187.5 329.5,-168.5 170.5,-168.5"/>
<text text-anchor="middle" x="250" y="-175.5" font-family="Helvetica,sans-Serif" font-size="10.00">backend/game/MenuOption.h</text>
</a>
</g>
</g>
<!-- Node4&#45;&gt;Node8 -->
<g id="edge8" class="edge">
<title>Node4&#45;&gt;Node8</title>
<path fill="none" stroke="midnightblue" d="M159.9,-220.23C181.97,-210.13 212.18,-196.31 231.39,-187.52"/>
<polygon fill="midnightblue" stroke="midnightblue" points="158.33,-217.1 150.7,-224.44 161.25,-223.46 158.33,-217.1"/>
</g>
<!-- Node5&#45;&gt;Node6 -->
<g id="edge5" class="edge">
<title>Node5&#45;&gt;Node6</title>
<path fill="none" stroke="midnightblue" d="M66.63,-160.65C79.44,-146.83 98.93,-126.96 118,-112 136.39,-97.57 159.68,-83.92 174.94,-75.51"/>
<polygon fill="midnightblue" stroke="midnightblue" points="63.74,-158.63 59.58,-168.37 68.91,-163.35 63.74,-158.63"/>
</g>
<!-- Node7 -->
<g id="node7" class="node">
<title>Node7</title>
<g id="a_node7"><a xlink:href="APIController_8cpp.html" target="_top" xlink:title="Still need to see what going to do here.">
<polygon fill="white" stroke="black" points="110,-0.5 110,-19.5 272,-19.5 272,-0.5 110,-0.5"/>
<text text-anchor="middle" x="191" y="-7.5" font-family="Helvetica,sans-Serif" font-size="10.00">backend/API/APIController.cpp</text>
</a>
</g>
</g>
<!-- Node6&#45;&gt;Node7 -->
<g id="edge6" class="edge">
<title>Node6&#45;&gt;Node7</title>
<path fill="none" stroke="midnightblue" d="M191,-45.8C191,-36.91 191,-26.78 191,-19.75"/>
<polygon fill="midnightblue" stroke="midnightblue" points="187.5,-46.08 191,-56.08 194.5,-46.08 187.5,-46.08"/>
</g>
<!-- Node9 -->
<g id="node9" class="node">
<title>Node9</title>
<g id="a_node9"><a xlink:href="ExitGameOption_8h.html" target="_top" xlink:title="Command for exiting the game with logging capabilities.">
<polygon fill="white" stroke="black" points="160,-112.5 160,-131.5 340,-131.5 340,-112.5 160,-112.5"/>
<text text-anchor="middle" x="250" y="-119.5" font-family="Helvetica,sans-Serif" font-size="10.00">backend/game/ExitGameOption.h</text>
</a>
</g>
</g>
<!-- Node8&#45;&gt;Node9 -->
<g id="edge9" class="edge">
<title>Node8&#45;&gt;Node9</title>
<path fill="none" stroke="midnightblue" d="M250,-157.8C250,-148.91 250,-138.78 250,-131.75"/>
<polygon fill="midnightblue" stroke="midnightblue" points="246.5,-158.08 250,-168.08 253.5,-158.08 246.5,-158.08"/>
</g>
<!-- Node10 -->
<g id="node10" class="node">
<title>Node10</title>
<g id="a_node10"><a xlink:href="NewGameOption_8h.html" target="_top" xlink:title="Header file for NewGameOption class.">
<polygon fill="white" stroke="black" points="358.5,-112.5 358.5,-131.5 541.5,-131.5 541.5,-112.5 358.5,-112.5"/>
<text text-anchor="middle" x="450" y="-119.5" font-family="Helvetica,sans-Serif" font-size="10.00">backend/game/NewGameOption.h</text>
</a>
</g>
</g>
<!-- Node8&#45;&gt;Node10 -->
<g id="edge11" class="edge">
<title>Node8&#45;&gt;Node10</title>
<path fill="none" stroke="midnightblue" d="M291.37,-165.83C329.14,-155.63 384.14,-140.78 418.46,-131.52"/>
<polygon fill="midnightblue" stroke="midnightblue" points="290.43,-162.46 281.69,-168.44 292.26,-169.22 290.43,-162.46"/>
</g>
<!-- Node9&#45;&gt;Node6 -->
<g id="edge10" class="edge">
<title>Node9&#45;&gt;Node6</title>
<path fill="none" stroke="midnightblue" d="M233.11,-105.54C222.59,-95.91 209.43,-83.87 200.65,-75.83"/>
<polygon fill="midnightblue" stroke="midnightblue" points="230.78,-108.15 240.52,-112.32 235.51,-102.99 230.78,-108.15"/>
</g>
<!-- Node10&#45;&gt;Node6 -->
<g id="edge12" class="edge">
<title>Node10&#45;&gt;Node6</title>
<path fill="none" stroke="midnightblue" d="M398.9,-110.35C349.95,-100.14 277.05,-84.94 231.85,-75.52"/>
<polygon fill="midnightblue" stroke="midnightblue" points="398.46,-113.83 408.96,-112.44 399.89,-106.98 398.46,-113.83"/>
</g>
</g>
</svg>
