<?xml version="1.0" encoding="UTF-8" standalone="no"?>
<!DOCTYPE svg PUBLIC "-//W3C//DTD SVG 1.1//EN"
 "http://www.w3.org/Graphics/SVG/1.1/DTD/svg11.dtd">
<!-- Generated by graphviz version 2.43.0 (0)
 -->
<!-- Title: backend/game/Return.h Pages: 1 -->
<svg width="732pt" height="442pt"
 viewBox="0.00 0.00 731.50 442.00" xmlns="http://www.w3.org/2000/svg" xmlns:xlink="http://www.w3.org/1999/xlink">
<g id="graph0" class="graph" transform="scale(1 1) rotate(0) translate(4 438)">
<title>backend/game/Return.h</title>
<polygon fill="white" stroke="transparent" points="-4,4 -4,-438 727.5,-438 727.5,4 -4,4"/>
<!-- Node1 -->
<g id="node1" class="node">
<title>Node1</title>
<g id="a_node1"><a xlink:title=" ">
<polygon fill="#bfbfbf" stroke="black" points="66,-414.5 66,-433.5 198,-433.5 198,-414.5 66,-414.5"/>
<text text-anchor="middle" x="132" y="-421.5" font-family="Helvetica,sans-Serif" font-size="10.00">backend/game/Return.h</text>
</a>
</g>
</g>
<!-- Node2 -->
<g id="node2" class="node">
<title>Node2</title>
<g id="a_node2"><a xlink:href="Transaction_8h.html" target="_top" xlink:title=" ">
<polygon fill="white" stroke="black" points="54.5,-358.5 54.5,-377.5 209.5,-377.5 209.5,-358.5 54.5,-358.5"/>
<text text-anchor="middle" x="132" y="-365.5" font-family="Helvetica,sans-Serif" font-size="10.00">backend/game/Transaction.h</text>
</a>
</g>
</g>
<!-- Node1&#45;&gt;Node2 -->
<g id="edge1" class="edge">
<title>Node1&#45;&gt;Node2</title>
<path fill="none" stroke="midnightblue" d="M132,-403.8C132,-394.91 132,-384.78 132,-377.75"/>
<polygon fill="midnightblue" stroke="midnightblue" points="128.5,-404.08 132,-414.08 135.5,-404.08 128.5,-404.08"/>
</g>
<!-- Node3 -->
<g id="node3" class="node">
<title>Node3</title>
<g id="a_node3"><a xlink:href="Manager_8h_source.html" target="_top" xlink:title=" ">
<polygon fill="white" stroke="black" points="73.5,-291.5 73.5,-321.5 190.5,-321.5 190.5,-291.5 73.5,-291.5"/>
<text text-anchor="start" x="81.5" y="-309.5" font-family="Helvetica,sans-Serif" font-size="10.00">backend/greenhouse</text>
<text text-anchor="middle" x="132" y="-298.5" font-family="Helvetica,sans-Serif" font-size="10.00">/Manager.h</text>
</a>
</g>
</g>
<!-- Node2&#45;&gt;Node3 -->
<g id="edge2" class="edge">
<title>Node2&#45;&gt;Node3</title>
<path fill="none" stroke="midnightblue" d="M132,-348.23C132,-339.59 132,-329.5 132,-321.52"/>
<polygon fill="midnightblue" stroke="midnightblue" points="128.5,-348.48 132,-358.48 135.5,-348.48 128.5,-348.48"/>
</g>
<!-- Node4 -->
<g id="node4" class="node">
<title>Node4</title>
<g id="a_node4"><a xlink:href="Game_8h.html" target="_top" xlink:title="Header file for Game class.">
<polygon fill="white" stroke="black" points="67.5,-235.5 67.5,-254.5 196.5,-254.5 196.5,-235.5 67.5,-235.5"/>
<text text-anchor="middle" x="132" y="-242.5" font-family="Helvetica,sans-Serif" font-size="10.00">backend/game/Game.h</text>
</a>
</g>
</g>
<!-- Node3&#45;&gt;Node4 -->
<g id="edge3" class="edge">
<title>Node3&#45;&gt;Node4</title>
<path fill="none" stroke="midnightblue" d="M132,-281.29C132,-271.86 132,-261.65 132,-254.66"/>
<polygon fill="midnightblue" stroke="midnightblue" points="128.5,-281.4 132,-291.4 135.5,-281.4 128.5,-281.4"/>
</g>
<!-- Node5 -->
<g id="node5" class="node">
<title>Node5</title>
<g id="a_node5"><a xlink:href="API_8h.html" target="_top" xlink:title="Bootstrapper for public facing API.">
<polygon fill="white" stroke="black" points="0,-179.5 0,-198.5 104,-198.5 104,-179.5 0,-179.5"/>
<text text-anchor="middle" x="52" y="-186.5" font-family="Helvetica,sans-Serif" font-size="10.00">backend/API/API.h</text>
</a>
</g>
</g>
<!-- Node4&#45;&gt;Node5 -->
<g id="edge4" class="edge">
<title>Node4&#45;&gt;Node5</title>
<path fill="none" stroke="midnightblue" d="M110.7,-229.62C96.08,-219.76 77.17,-206.99 64.82,-198.65"/>
<polygon fill="midnightblue" stroke="midnightblue" points="108.9,-232.63 119.15,-235.32 112.82,-226.83 108.9,-232.63"/>
</g>
<!-- Node6 -->
<g id="node6" class="node">
<title>Node6</title>
<g id="a_node6"><a xlink:href="APIController_8h.html" target="_top" xlink:title="Define endpoints.">
<polygon fill="white" stroke="black" points="166.5,-56.5 166.5,-75.5 317.5,-75.5 317.5,-56.5 166.5,-56.5"/>
<text text-anchor="middle" x="242" y="-63.5" font-family="Helvetica,sans-Serif" font-size="10.00">backend/API/APIController.h</text>
</a>
</g>
</g>
<!-- Node4&#45;&gt;Node6 -->
<g id="edge7" class="edge">
<title>Node4&#45;&gt;Node6</title>
<path fill="none" stroke="midnightblue" d="M129.57,-225.04C127.09,-197.44 126.51,-145.79 151,-112 164.34,-93.59 187.35,-82.31 206.89,-75.65"/>
<polygon fill="midnightblue" stroke="midnightblue" points="126.13,-225.72 130.69,-235.28 133.08,-224.96 126.13,-225.72"/>
</g>
<!-- Node8 -->
<g id="node8" class="node">
<title>Node8</title>
<g id="a_node8"><a xlink:href="MenuOption_8h_source.html" target="_top" xlink:title=" ">
<polygon fill="white" stroke="black" points="257.5,-179.5 257.5,-198.5 416.5,-198.5 416.5,-179.5 257.5,-179.5"/>
<text text-anchor="middle" x="337" y="-186.5" font-family="Helvetica,sans-Serif" font-size="10.00">backend/game/MenuOption.h</text>
</a>
</g>
</g>
<!-- Node4&#45;&gt;Node8 -->
<g id="edge8" class="edge">
<title>Node4&#45;&gt;Node8</title>
<path fill="none" stroke="midnightblue" d="M174.41,-232.83C213.11,-222.63 269.49,-207.78 304.67,-198.52"/>
<polygon fill="midnightblue" stroke="midnightblue" points="173.26,-229.51 164.48,-235.44 175.04,-236.28 173.26,-229.51"/>
</g>
<!-- Node5&#45;&gt;Node6 -->
<g id="edge5" class="edge">
<title>Node5&#45;&gt;Node6</title>
<path fill="none" stroke="midnightblue" d="M63.09,-170.73C74.86,-153.66 94.91,-127.86 118,-112 143.96,-94.17 177.8,-82.51 203.57,-75.54"/>
<polygon fill="midnightblue" stroke="midnightblue" points="60.08,-168.94 57.44,-179.2 65.9,-172.82 60.08,-168.94"/>
</g>
<!-- Node7 -->
<g id="node7" class="node">
<title>Node7</title>
<g id="a_node7"><a xlink:href="APIController_8cpp.html" target="_top" xlink:title="Still need to see what going to do here.">
<polygon fill="white" stroke="black" points="161,-0.5 161,-19.5 323,-19.5 323,-0.5 161,-0.5"/>
<text text-anchor="middle" x="242" y="-7.5" font-family="Helvetica,sans-Serif" font-size="10.00">backend/API/APIController.cpp</text>
</a>
</g>
</g>
<!-- Node6&#45;&gt;Node7 -->
<g id="edge6" class="edge">
<title>Node6&#45;&gt;Node7</title>
<path fill="none" stroke="midnightblue" d="M242,-45.8C242,-36.91 242,-26.78 242,-19.75"/>
<polygon fill="midnightblue" stroke="midnightblue" points="238.5,-46.08 242,-56.08 245.5,-46.08 238.5,-46.08"/>
</g>
<!-- Node9 -->
<g id="node9" class="node">
<title>Node9</title>
<g id="a_node9"><a xlink:href="ContinueGameOption_8h.html" target="_top" xlink:title="Header file for ContinueGameOption class.">
<polygon fill="white" stroke="black" points="160,-112.5 160,-142.5 324,-142.5 324,-112.5 160,-112.5"/>
<text text-anchor="start" x="168" y="-130.5" font-family="Helvetica,sans-Serif" font-size="10.00">backend/game/ContinueGame</text>
<text text-anchor="middle" x="242" y="-119.5" font-family="Helvetica,sans-Serif" font-size="10.00">Option.h</text>
</a>
</g>
</g>
<!-- Node8&#45;&gt;Node9 -->
<g id="edge9" class="edge">
<title>Node8&#45;&gt;Node9</title>
<path fill="none" stroke="midnightblue" d="M314.66,-174.01C299.51,-164.52 279.55,-152.02 264.39,-142.52"/>
<polygon fill="midnightblue" stroke="midnightblue" points="313.06,-177.13 323.39,-179.48 316.77,-171.2 313.06,-177.13"/>
</g>
<!-- Node10 -->
<g id="node10" class="node">
<title>Node10</title>
<g id="a_node10"><a xlink:href="ExitGameOption_8h.html" target="_top" xlink:title=" ">
<polygon fill="white" stroke="black" points="342,-118 342,-137 522,-137 522,-118 342,-118"/>
<text text-anchor="middle" x="432" y="-125" font-family="Helvetica,sans-Serif" font-size="10.00">backend/game/ExitGameOption.h</text>
</a>
</g>
</g>
<!-- Node8&#45;&gt;Node10 -->
<g id="edge11" class="edge">
<title>Node8&#45;&gt;Node10</title>
<path fill="none" stroke="midnightblue" d="M359.21,-174.09C377.55,-162.6 402.98,-146.68 418.41,-137.01"/>
<polygon fill="midnightblue" stroke="midnightblue" points="357.23,-171.2 350.61,-179.48 360.94,-177.13 357.23,-171.2"/>
</g>
<!-- Node11 -->
<g id="node11" class="node">
<title>Node11</title>
<g id="a_node11"><a xlink:href="NewGameOption_8h.html" target="_top" xlink:title="Header file for NewGameOption class.">
<polygon fill="white" stroke="black" points="540.5,-118 540.5,-137 723.5,-137 723.5,-118 540.5,-118"/>
<text text-anchor="middle" x="632" y="-125" font-family="Helvetica,sans-Serif" font-size="10.00">backend/game/NewGameOption.h</text>
</a>
</g>
</g>
<!-- Node8&#45;&gt;Node11 -->
<g id="edge13" class="edge">
<title>Node8&#45;&gt;Node11</title>
<path fill="none" stroke="midnightblue" d="M389.19,-177.47C446.36,-165.94 536.95,-147.67 589.81,-137.01"/>
<polygon fill="midnightblue" stroke="midnightblue" points="388.38,-174.07 379.27,-179.48 389.76,-180.93 388.38,-174.07"/>
</g>
<!-- Node9&#45;&gt;Node6 -->
<g id="edge10" class="edge">
<title>Node9&#45;&gt;Node6</title>
<path fill="none" stroke="midnightblue" d="M242,-102.29C242,-92.86 242,-82.65 242,-75.66"/>
<polygon fill="midnightblue" stroke="midnightblue" points="238.5,-102.4 242,-112.4 245.5,-102.4 238.5,-102.4"/>
</g>
<!-- Node10&#45;&gt;Node6 -->
<g id="edge12" class="edge">
<title>Node10&#45;&gt;Node6</title>
<path fill="none" stroke="midnightblue" d="M394.9,-114.88C357.96,-103.32 302.16,-85.84 269.17,-75.51"/>
<polygon fill="midnightblue" stroke="midnightblue" points="394.19,-118.33 404.78,-117.98 396.28,-111.65 394.19,-118.33"/>
</g>
<!-- Node11&#45;&gt;Node6 -->
<g id="edge14" class="edge">
<title>Node11&#45;&gt;Node6</title>
<path fill="none" stroke="midnightblue" d="M565.8,-116.4C490.41,-104.9 368.53,-86.3 297.77,-75.51"/>
<polygon fill="midnightblue" stroke="midnightblue" points="565.71,-119.93 576.12,-117.98 566.76,-113.01 565.71,-119.93"/>
</g>
</g>
</svg>
