<?xml version="1.0" encoding="UTF-8" standalone="no"?>
<!DOCTYPE svg PUBLIC "-//W3C//DTD SVG 1.1//EN"
 "http://www.w3.org/Graphics/SVG/1.1/DTD/svg11.dtd">
<!-- Generated by graphviz version 2.43.0 (0)
 -->
<!-- Title: backend/greenhouse/SalesFloor.h Pages: 1 -->
<svg width="1612pt" height="330pt"
 viewBox="0.00 0.00 1611.50 330.00" xmlns="http://www.w3.org/2000/svg" xmlns:xlink="http://www.w3.org/1999/xlink">
<g id="graph0" class="graph" transform="scale(1 1) rotate(0) translate(4 326)">
<title>backend/greenhouse/SalesFloor.h</title>
<polygon fill="white" stroke="transparent" points="-4,4 -4,-326 1607.5,-326 1607.5,4 -4,4"/>
<!-- Node1 -->
<g id="node1" class="node">
<title>Node1</title>
<g id="a_node1"><a xlink:title="Sales floor management for customer interactions and plant sales.">
<polygon fill="#bfbfbf" stroke="black" points="1337,-291.5 1337,-321.5 1454,-321.5 1454,-291.5 1337,-291.5"/>
<text text-anchor="start" x="1345" y="-309.5" font-family="Helvetica,sans-Serif" font-size="10.00">backend/greenhouse</text>
<text text-anchor="middle" x="1395.5" y="-298.5" font-family="Helvetica,sans-Serif" font-size="10.00">/SalesFloor.h</text>
</a>
</g>
</g>
<!-- Node2 -->
<g id="node2" class="node">
<title>Node2</title>
<g id="a_node2"><a xlink:href="Inventory_8h.html" target="_top" xlink:title="Inventory management for plants in greenhouse and sales floor.">
<polygon fill="white" stroke="black" points="535,-179.5 535,-198.5 606,-198.5 606,-179.5 535,-179.5"/>
<text text-anchor="middle" x="570.5" y="-186.5" font-family="Helvetica,sans-Serif" font-size="10.00">Inventory.h</text>
</a>
</g>
</g>
<!-- Node1&#45;&gt;Node2 -->
<g id="edge1" class="edge">
<title>Node1&#45;&gt;Node2</title>
<path fill="none" stroke="midnightblue" d="M1336.83,-297.29C1180.61,-275.41 756.88,-216.09 616.42,-196.43"/>
<polygon fill="midnightblue" stroke="midnightblue" points="616.81,-192.95 606.42,-195.03 615.84,-199.88 616.81,-192.95"/>
</g>
<!-- Node6 -->
<g id="node6" class="node">
<title>Node6</title>
<g id="a_node6"><a xlink:title=" ">
<polygon fill="white" stroke="#bfbfbf" points="0,-67.5 0,-86.5 47,-86.5 47,-67.5 0,-67.5"/>
<text text-anchor="middle" x="23.5" y="-74.5" font-family="Helvetica,sans-Serif" font-size="10.00">vector</text>
</a>
</g>
</g>
<!-- Node1&#45;&gt;Node6 -->
<g id="edge41" class="edge">
<title>Node1&#45;&gt;Node6</title>
<path fill="none" stroke="midnightblue" d="M1336.86,-303.38C1171.12,-296.62 685.58,-271.62 289.5,-199 196.6,-181.97 165.42,-191.71 84.5,-143 64.08,-130.71 46.15,-109.67 35.1,-94.87"/>
<polygon fill="midnightblue" stroke="midnightblue" points="37.83,-92.67 29.16,-86.59 32.15,-96.76 37.83,-92.67"/>
</g>
<!-- Node20 -->
<g id="node20" class="node">
<title>Node20</title>
<g id="a_node20"><a xlink:title=" ">
<polygon fill="white" stroke="#bfbfbf" points="1323,-6 1323,-25 1388,-25 1388,-6 1323,-6"/>
<text text-anchor="middle" x="1355.5" y="-13" font-family="Helvetica,sans-Serif" font-size="10.00">stdexcept</text>
</a>
</g>
</g>
<!-- Node1&#45;&gt;Node20 -->
<g id="edge43" class="edge">
<title>Node1&#45;&gt;Node20</title>
<path fill="none" stroke="midnightblue" d="M1430.26,-291.45C1467.56,-273.81 1521.5,-239.71 1521.5,-190 1521.5,-190 1521.5,-190 1521.5,-132 1521.5,-101.9 1523.28,-88.77 1502.5,-67 1475.26,-38.47 1431.2,-26.05 1398.41,-20.65"/>
<polygon fill="midnightblue" stroke="midnightblue" points="1398.6,-17.14 1388.19,-19.14 1397.57,-24.07 1398.6,-17.14"/>
</g>
<!-- Node23 -->
<g id="node23" class="node">
<title>Node23</title>
<g id="a_node23"><a xlink:href="TransactionHistory_8h.html" target="_top" xlink:title="Maintains history of financial transactions.">
<polygon fill="white" stroke="black" points="1272,-235.5 1272,-254.5 1387,-254.5 1387,-235.5 1272,-235.5"/>
<text text-anchor="middle" x="1329.5" y="-242.5" font-family="Helvetica,sans-Serif" font-size="10.00">TransactionHistory.h</text>
</a>
</g>
</g>
<!-- Node1&#45;&gt;Node23 -->
<g id="edge29" class="edge">
<title>Node1&#45;&gt;Node23</title>
<path fill="none" stroke="midnightblue" d="M1379.86,-291.4C1369.87,-282.4 1356.92,-270.72 1346.65,-261.47"/>
<polygon fill="midnightblue" stroke="midnightblue" points="1348.87,-258.75 1339.1,-254.66 1344.19,-263.95 1348.87,-258.75"/>
</g>
<!-- Node25 -->
<g id="node25" class="node">
<title>Node25</title>
<g id="a_node25"><a xlink:href="Ledger_8h.html" target="_top" xlink:title="Financial ledger for tracking game balance.">
<polygon fill="white" stroke="black" points="1421.5,-179.5 1421.5,-198.5 1479.5,-198.5 1479.5,-179.5 1421.5,-179.5"/>
<text text-anchor="middle" x="1450.5" y="-186.5" font-family="Helvetica,sans-Serif" font-size="10.00">Ledger.h</text>
</a>
</g>
</g>
<!-- Node1&#45;&gt;Node25 -->
<g id="edge40" class="edge">
<title>Node1&#45;&gt;Node25</title>
<path fill="none" stroke="midnightblue" d="M1402.24,-291.34C1412.24,-270.34 1431,-230.96 1441.95,-207.96"/>
<polygon fill="midnightblue" stroke="midnightblue" points="1445.23,-209.2 1446.37,-198.67 1438.91,-206.19 1445.23,-209.2"/>
</g>
<!-- Node26 -->
<g id="node26" class="node">
<title>Node26</title>
<g id="a_node26"><a xlink:title=" ">
<polygon fill="white" stroke="#bfbfbf" points="1549.5,-235.5 1549.5,-254.5 1603.5,-254.5 1603.5,-235.5 1549.5,-235.5"/>
<text text-anchor="middle" x="1576.5" y="-242.5" font-family="Helvetica,sans-Serif" font-size="10.00">random</text>
</a>
</g>
</g>
<!-- Node1&#45;&gt;Node26 -->
<g id="edge42" class="edge">
<title>Node1&#45;&gt;Node26</title>
<path fill="none" stroke="midnightblue" d="M1438.39,-291.4C1469.53,-281.16 1511.19,-267.47 1540.58,-257.81"/>
<polygon fill="midnightblue" stroke="midnightblue" points="1542.02,-261.02 1550.43,-254.57 1539.83,-254.37 1542.02,-261.02"/>
</g>
<!-- Node3 -->
<g id="node3" class="node">
<title>Node3</title>
<g id="a_node3"><a xlink:href="Plant_8h.html" target="_top" xlink:title="Defines the abstract base class for all Plant objects used in the system.">
<polygon fill="white" stroke="black" points="545.5,-123.5 545.5,-142.5 595.5,-142.5 595.5,-123.5 545.5,-123.5"/>
<text text-anchor="middle" x="570.5" y="-130.5" font-family="Helvetica,sans-Serif" font-size="10.00">Plant.h</text>
</a>
</g>
</g>
<!-- Node2&#45;&gt;Node3 -->
<g id="edge2" class="edge">
<title>Node2&#45;&gt;Node3</title>
<path fill="none" stroke="midnightblue" d="M570.5,-179.08C570.5,-172.01 570.5,-161.86 570.5,-152.99"/>
<polygon fill="midnightblue" stroke="midnightblue" points="574,-152.75 570.5,-142.75 567,-152.75 574,-152.75"/>
</g>
<!-- Node4 -->
<g id="node4" class="node">
<title>Node4</title>
<g id="a_node4"><a xlink:title=" ">
<polygon fill="white" stroke="#bfbfbf" points="369.5,-6 369.5,-25 413.5,-25 413.5,-6 369.5,-6"/>
<text text-anchor="middle" x="391.5" y="-13" font-family="Helvetica,sans-Serif" font-size="10.00">string</text>
</a>
</g>
</g>
<!-- Node2&#45;&gt;Node4 -->
<g id="edge28" class="edge">
<title>Node2&#45;&gt;Node4</title>
<path fill="none" stroke="midnightblue" d="M534.78,-182.87C454.87,-170.59 265.7,-136.78 228.5,-87 175.71,-16.36 183.91,-95.84 360.5,-31 362.11,-30.41 363.75,-29.77 365.4,-29.09"/>
<polygon fill="midnightblue" stroke="midnightblue" points="366.92,-32.24 374.67,-25.01 364.1,-25.84 366.92,-32.24"/>
</g>
<!-- Node2&#45;&gt;Node6 -->
<g id="edge27" class="edge">
<title>Node2&#45;&gt;Node6</title>
<path fill="none" stroke="midnightblue" d="M534.83,-186.59C467.58,-183.3 317.78,-172.97 195.5,-143 142.73,-130.07 84.1,-105.6 50.73,-90.65"/>
<polygon fill="midnightblue" stroke="midnightblue" points="52.17,-87.46 41.61,-86.52 49.28,-93.84 52.17,-87.46"/>
</g>
<!-- Node3&#45;&gt;Node4 -->
<g id="edge3" class="edge">
<title>Node3&#45;&gt;Node4</title>
<path fill="none" stroke="midnightblue" d="M545.41,-128.73C503.14,-122.69 420.49,-108.41 401.5,-87 389.09,-73.01 387.85,-50.94 388.92,-35.22"/>
<polygon fill="midnightblue" stroke="midnightblue" points="392.42,-35.41 389.98,-25.1 385.46,-34.68 392.42,-35.41"/>
</g>
<!-- Node5 -->
<g id="node5" class="node">
<title>Node5</title>
<g id="a_node5"><a xlink:title=" ">
<polygon fill="white" stroke="#bfbfbf" points="551.5,-67.5 551.5,-86.5 589.5,-86.5 589.5,-67.5 551.5,-67.5"/>
<text text-anchor="middle" x="570.5" y="-74.5" font-family="Helvetica,sans-Serif" font-size="10.00">map</text>
</a>
</g>
</g>
<!-- Node3&#45;&gt;Node5 -->
<g id="edge4" class="edge">
<title>Node3&#45;&gt;Node5</title>
<path fill="none" stroke="midnightblue" d="M570.5,-123.08C570.5,-116.01 570.5,-105.86 570.5,-96.99"/>
<polygon fill="midnightblue" stroke="midnightblue" points="574,-96.75 570.5,-86.75 567,-96.75 574,-96.75"/>
</g>
<!-- Node3&#45;&gt;Node6 -->
<g id="edge5" class="edge">
<title>Node3&#45;&gt;Node6</title>
<path fill="none" stroke="midnightblue" d="M545.45,-131.07C471.17,-128.03 245.84,-116.82 61.5,-87 60.04,-86.76 58.54,-86.5 57.04,-86.22"/>
<polygon fill="midnightblue" stroke="midnightblue" points="57.61,-82.76 47.11,-84.15 56.19,-89.62 57.61,-82.76"/>
</g>
<!-- Node7 -->
<g id="node7" class="node">
<title>Node7</title>
<g id="a_node7"><a xlink:title=" ">
<polygon fill="white" stroke="#bfbfbf" points="607.5,-67.5 607.5,-86.5 671.5,-86.5 671.5,-67.5 607.5,-67.5"/>
<text text-anchor="middle" x="639.5" y="-74.5" font-family="Helvetica,sans-Serif" font-size="10.00">algorithm</text>
</a>
</g>
</g>
<!-- Node3&#45;&gt;Node7 -->
<g id="edge6" class="edge">
<title>Node3&#45;&gt;Node7</title>
<path fill="none" stroke="midnightblue" d="M581.59,-123.32C591.99,-115.18 607.76,-102.84 620.22,-93.09"/>
<polygon fill="midnightblue" stroke="midnightblue" points="622.49,-95.75 628.21,-86.83 618.18,-90.24 622.49,-95.75"/>
</g>
<!-- Node8 -->
<g id="node8" class="node">
<title>Node8</title>
<g id="a_node8"><a xlink:title=" ">
<polygon fill="white" stroke="#bfbfbf" points="1182.5,-6 1182.5,-25 1242.5,-25 1242.5,-6 1182.5,-6"/>
<text text-anchor="middle" x="1212.5" y="-13" font-family="Helvetica,sans-Serif" font-size="10.00">iostream</text>
</a>
</g>
</g>
<!-- Node3&#45;&gt;Node8 -->
<g id="edge7" class="edge">
<title>Node3&#45;&gt;Node8</title>
<path fill="none" stroke="midnightblue" d="M595.57,-132.42C693.14,-133.68 1047.06,-134.81 1146.5,-87 1170.72,-75.35 1190.49,-50.65 1201.88,-33.8"/>
<polygon fill="midnightblue" stroke="midnightblue" points="1204.83,-35.69 1207.33,-25.39 1198.96,-31.89 1204.83,-35.69"/>
</g>
<!-- Node9 -->
<g id="node9" class="node">
<title>Node9</title>
<g id="a_node9"><a xlink:title=" ">
<polygon fill="white" stroke="#bfbfbf" points="690,-67.5 690,-86.5 803,-86.5 803,-67.5 690,-67.5"/>
<text text-anchor="middle" x="746.5" y="-74.5" font-family="Helvetica,sans-Serif" font-size="10.00">boost/uuid/uuid.hpp</text>
</a>
</g>
</g>
<!-- Node3&#45;&gt;Node9 -->
<g id="edge8" class="edge">
<title>Node3&#45;&gt;Node9</title>
<path fill="none" stroke="midnightblue" d="M595.72,-124.26C625.39,-115.16 674.93,-99.96 709.09,-89.48"/>
<polygon fill="midnightblue" stroke="midnightblue" points="710.18,-92.8 718.72,-86.52 708.13,-86.11 710.18,-92.8"/>
</g>
<!-- Node10 -->
<g id="node10" class="node">
<title>Node10</title>
<g id="a_node10"><a xlink:title=" ">
<polygon fill="white" stroke="#bfbfbf" points="821.5,-67.5 821.5,-86.5 991.5,-86.5 991.5,-67.5 821.5,-67.5"/>
<text text-anchor="middle" x="906.5" y="-74.5" font-family="Helvetica,sans-Serif" font-size="10.00">boost/uuid/uuid_generators.hpp</text>
</a>
</g>
</g>
<!-- Node3&#45;&gt;Node10 -->
<g id="edge9" class="edge">
<title>Node3&#45;&gt;Node10</title>
<path fill="none" stroke="midnightblue" d="M595.75,-127.94C647.86,-119.57 768.67,-100.15 843.37,-88.15"/>
<polygon fill="midnightblue" stroke="midnightblue" points="844.28,-91.55 853.59,-86.5 843.17,-84.63 844.28,-91.55"/>
</g>
<!-- Node11 -->
<g id="node11" class="node">
<title>Node11</title>
<g id="a_node11"><a xlink:title=" ">
<polygon fill="white" stroke="#bfbfbf" points="1010,-67.5 1010,-86.5 1137,-86.5 1137,-67.5 1010,-67.5"/>
<text text-anchor="middle" x="1073.5" y="-74.5" font-family="Helvetica,sans-Serif" font-size="10.00">boost/uuid/uuid_io.hpp</text>
</a>
</g>
</g>
<!-- Node3&#45;&gt;Node11 -->
<g id="edge10" class="edge">
<title>Node3&#45;&gt;Node11</title>
<path fill="none" stroke="midnightblue" d="M595.72,-129.52C660.69,-123.11 839.34,-105.26 999.76,-87.07"/>
<polygon fill="midnightblue" stroke="midnightblue" points="1000.27,-90.53 1009.81,-85.92 999.48,-83.58 1000.27,-90.53"/>
</g>
<!-- Node12 -->
<g id="node12" class="node">
<title>Node12</title>
<g id="a_node12"><a xlink:title=" ">
<polygon fill="white" stroke="#bfbfbf" points="1383.5,-67.5 1383.5,-86.5 1493.5,-86.5 1493.5,-67.5 1383.5,-67.5"/>
<text text-anchor="middle" x="1438.5" y="-74.5" font-family="Helvetica,sans-Serif" font-size="10.00">nlohmann/json.hpp</text>
</a>
</g>
</g>
<!-- Node3&#45;&gt;Node12 -->
<g id="edge11" class="edge">
<title>Node3&#45;&gt;Node12</title>
<path fill="none" stroke="midnightblue" d="M595.65,-130.47C688.79,-124.79 1022.99,-104.37 1298.5,-87 1322.85,-85.46 1349.58,-83.75 1373.1,-82.24"/>
<polygon fill="midnightblue" stroke="midnightblue" points="1373.56,-85.72 1383.31,-81.58 1373.11,-78.73 1373.56,-85.72"/>
</g>
<!-- Node13 -->
<g id="node13" class="node">
<title>Node13</title>
<g id="a_node13"><a xlink:title=" ">
<polygon fill="white" stroke="#bfbfbf" points="237.5,-67.5 237.5,-86.5 285.5,-86.5 285.5,-67.5 237.5,-67.5"/>
<text text-anchor="middle" x="261.5" y="-74.5" font-family="Helvetica,sans-Serif" font-size="10.00">thread</text>
</a>
</g>
</g>
<!-- Node3&#45;&gt;Node13 -->
<g id="edge12" class="edge">
<title>Node3&#45;&gt;Node13</title>
<path fill="none" stroke="midnightblue" d="M545.22,-128.78C498.06,-122.58 393.33,-107.91 295.62,-87.05"/>
<polygon fill="midnightblue" stroke="midnightblue" points="296.09,-83.57 285.58,-84.88 294.61,-90.41 296.09,-83.57"/>
</g>
<!-- Node14 -->
<g id="node14" class="node">
<title>Node14</title>
<g id="a_node14"><a xlink:title=" ">
<polygon fill="white" stroke="#bfbfbf" points="303.5,-67.5 303.5,-86.5 353.5,-86.5 353.5,-67.5 303.5,-67.5"/>
<text text-anchor="middle" x="328.5" y="-74.5" font-family="Helvetica,sans-Serif" font-size="10.00">atomic</text>
</a>
</g>
</g>
<!-- Node3&#45;&gt;Node14 -->
<g id="edge13" class="edge">
<title>Node3&#45;&gt;Node14</title>
<path fill="none" stroke="midnightblue" d="M545.48,-126.53C507.15,-118.12 431.58,-101.5 367.5,-87 366.24,-86.72 364.96,-86.42 363.67,-86.13"/>
<polygon fill="midnightblue" stroke="midnightblue" points="364.2,-82.66 353.67,-83.84 362.63,-89.48 364.2,-82.66"/>
</g>
<!-- Node15 -->
<g id="node15" class="node">
<title>Node15</title>
<g id="a_node15"><a xlink:href="GreenSock_8h.html" target="_top" xlink:title=" ">
<polygon fill="white" stroke="black" points="103.5,-67.5 103.5,-86.5 181.5,-86.5 181.5,-67.5 103.5,-67.5"/>
<text text-anchor="middle" x="142.5" y="-74.5" font-family="Helvetica,sans-Serif" font-size="10.00">GreenSock.h</text>
</a>
</g>
</g>
<!-- Node3&#45;&gt;Node15 -->
<g id="edge14" class="edge">
<title>Node3&#45;&gt;Node15</title>
<path fill="none" stroke="midnightblue" d="M545.32,-128.82C476.31,-120.12 283.17,-95.75 191.71,-84.21"/>
<polygon fill="midnightblue" stroke="midnightblue" points="191.96,-80.71 181.6,-82.93 191.09,-87.66 191.96,-80.71"/>
</g>
<!-- Node18 -->
<g id="node18" class="node">
<title>Node18</title>
<g id="a_node18"><a xlink:title=" ">
<polygon fill="white" stroke="#bfbfbf" points="19.5,-6 19.5,-25 67.5,-25 67.5,-6 19.5,-6"/>
<text text-anchor="middle" x="43.5" y="-13" font-family="Helvetica,sans-Serif" font-size="10.00">mutex</text>
</a>
</g>
</g>
<!-- Node3&#45;&gt;Node18 -->
<g id="edge26" class="edge">
<title>Node3&#45;&gt;Node18</title>
<path fill="none" stroke="midnightblue" d="M545.27,-132.3C458.35,-132.94 172.42,-131.55 94.5,-87 73.87,-75.2 59.33,-51.27 51.19,-34.58"/>
<polygon fill="midnightblue" stroke="midnightblue" points="54.29,-32.94 46.95,-25.3 47.92,-35.85 54.29,-32.94"/>
</g>
<!-- Node19 -->
<g id="node19" class="node">
<title>Node19</title>
<g id="a_node19"><a xlink:href="Logger_8h.html" target="_top" xlink:title="Header for Strategy Logger interface.">
<polygon fill="white" stroke="black" points="1231.5,-67.5 1231.5,-86.5 1289.5,-86.5 1289.5,-67.5 1231.5,-67.5"/>
<text text-anchor="middle" x="1260.5" y="-74.5" font-family="Helvetica,sans-Serif" font-size="10.00">Logger.h</text>
</a>
</g>
</g>
<!-- Node3&#45;&gt;Node19 -->
<g id="edge20" class="edge">
<title>Node3&#45;&gt;Node19</title>
<path fill="none" stroke="midnightblue" d="M595.76,-130.47C679.17,-125.34 953.32,-107.91 1179.5,-87 1193.06,-85.75 1207.88,-84.16 1221.09,-82.67"/>
<polygon fill="midnightblue" stroke="midnightblue" points="1221.74,-86.12 1231.28,-81.51 1220.95,-79.17 1221.74,-86.12"/>
</g>
<!-- Node21 -->
<g id="node21" class="node">
<title>Node21</title>
<g id="a_node21"><a xlink:title=" ">
<polygon fill="white" stroke="#bfbfbf" points="410,-67.5 410,-86.5 457,-86.5 457,-67.5 410,-67.5"/>
<text text-anchor="middle" x="433.5" y="-74.5" font-family="Helvetica,sans-Serif" font-size="10.00">queue</text>
</a>
</g>
</g>
<!-- Node3&#45;&gt;Node21 -->
<g id="edge24" class="edge">
<title>Node3&#45;&gt;Node21</title>
<path fill="none" stroke="midnightblue" d="M548.79,-123.44C526.15,-114.52 490.43,-100.44 464.75,-90.32"/>
<polygon fill="midnightblue" stroke="midnightblue" points="465.69,-86.93 455.11,-86.52 463.13,-93.44 465.69,-86.93"/>
</g>
<!-- Node22 -->
<g id="node22" class="node">
<title>Node22</title>
<g id="a_node22"><a xlink:title=" ">
<polygon fill="white" stroke="#bfbfbf" points="475.5,-67.5 475.5,-86.5 533.5,-86.5 533.5,-67.5 475.5,-67.5"/>
<text text-anchor="middle" x="504.5" y="-74.5" font-family="Helvetica,sans-Serif" font-size="10.00">memory</text>
</a>
</g>
</g>
<!-- Node3&#45;&gt;Node22 -->
<g id="edge25" class="edge">
<title>Node3&#45;&gt;Node22</title>
<path fill="none" stroke="midnightblue" d="M559.9,-123.32C550.04,-115.26 535.15,-103.08 523.28,-93.37"/>
<polygon fill="midnightblue" stroke="midnightblue" points="525.25,-90.46 515.3,-86.83 520.82,-95.88 525.25,-90.46"/>
</g>
<!-- Node15&#45;&gt;Node4 -->
<g id="edge18" class="edge">
<title>Node15&#45;&gt;Node4</title>
<path fill="none" stroke="midnightblue" d="M181.79,-69.03C235.21,-59.36 327.86,-41.84 360.5,-31 362.17,-30.45 363.86,-29.83 365.56,-29.17"/>
<polygon fill="midnightblue" stroke="midnightblue" points="367.27,-32.24 375.06,-25.06 364.49,-25.81 367.27,-32.24"/>
</g>
<!-- Node15&#45;&gt;Node8 -->
<g id="edge17" class="edge">
<title>Node15&#45;&gt;Node8</title>
<path fill="none" stroke="midnightblue" d="M181.85,-71.44C196.48,-69.86 213.23,-68.19 228.5,-67 594.21,-38.5 1037.69,-22.31 1172.04,-17.81"/>
<polygon fill="midnightblue" stroke="midnightblue" points="1172.39,-21.3 1182.27,-17.47 1172.16,-14.3 1172.39,-21.3"/>
</g>
<!-- Node16 -->
<g id="node16" class="node">
<title>Node16</title>
<g id="a_node16"><a xlink:title=" ">
<polygon fill="white" stroke="#bfbfbf" points="86,-0.5 86,-30.5 199,-30.5 199,-0.5 86,-0.5"/>
<text text-anchor="start" x="94" y="-18.5" font-family="Helvetica,sans-Serif" font-size="10.00">websocketpp/config</text>
<text text-anchor="middle" x="142.5" y="-7.5" font-family="Helvetica,sans-Serif" font-size="10.00">/asio_no_tls.hpp</text>
</a>
</g>
</g>
<!-- Node15&#45;&gt;Node16 -->
<g id="edge15" class="edge">
<title>Node15&#45;&gt;Node16</title>
<path fill="none" stroke="midnightblue" d="M142.5,-67.48C142.5,-60.47 142.5,-50.19 142.5,-40.7"/>
<polygon fill="midnightblue" stroke="midnightblue" points="146,-40.52 142.5,-30.52 139,-40.52 146,-40.52"/>
</g>
<!-- Node17 -->
<g id="node17" class="node">
<title>Node17</title>
<g id="a_node17"><a xlink:title=" ">
<polygon fill="white" stroke="#bfbfbf" points="217.5,-6 217.5,-25 351.5,-25 351.5,-6 217.5,-6"/>
<text text-anchor="middle" x="284.5" y="-13" font-family="Helvetica,sans-Serif" font-size="10.00">websocketpp/server.hpp</text>
</a>
</g>
</g>
<!-- Node15&#45;&gt;Node17 -->
<g id="edge16" class="edge">
<title>Node15&#45;&gt;Node17</title>
<path fill="none" stroke="midnightblue" d="M162.85,-67.48C186.89,-57.4 227.1,-40.55 254.66,-29"/>
<polygon fill="midnightblue" stroke="midnightblue" points="256.32,-32.1 264.19,-25.01 253.62,-25.65 256.32,-32.1"/>
</g>
<!-- Node15&#45;&gt;Node18 -->
<g id="edge19" class="edge">
<title>Node15&#45;&gt;Node18</title>
<path fill="none" stroke="midnightblue" d="M128.32,-67.48C112.14,-57.75 85.47,-41.73 66.36,-30.24"/>
<polygon fill="midnightblue" stroke="midnightblue" points="68.03,-27.16 57.66,-25.01 64.43,-33.16 68.03,-27.16"/>
</g>
<!-- Node19&#45;&gt;Node4 -->
<g id="edge21" class="edge">
<title>Node19&#45;&gt;Node4</title>
<path fill="none" stroke="midnightblue" d="M1231.45,-69.32C1226.81,-68.43 1222.04,-67.61 1217.5,-67 910.55,-25.72 534.84,-18.15 423.83,-16.79"/>
<polygon fill="midnightblue" stroke="midnightblue" points="423.67,-13.29 413.63,-16.68 423.59,-20.29 423.67,-13.29"/>
</g>
<!-- Node19&#45;&gt;Node8 -->
<g id="edge22" class="edge">
<title>Node19&#45;&gt;Node8</title>
<path fill="none" stroke="midnightblue" d="M1253.62,-67.48C1246.35,-58.46 1234.7,-44.02 1225.66,-32.81"/>
<polygon fill="midnightblue" stroke="midnightblue" points="1228.37,-30.59 1219.36,-25.01 1222.92,-34.99 1228.37,-30.59"/>
</g>
<!-- Node19&#45;&gt;Node20 -->
<g id="edge23" class="edge">
<title>Node19&#45;&gt;Node20</title>
<path fill="none" stroke="midnightblue" d="M1274.11,-67.48C1289.56,-57.8 1314.99,-41.87 1333.32,-30.39"/>
<polygon fill="midnightblue" stroke="midnightblue" points="1335.3,-33.28 1341.91,-25.01 1331.58,-27.35 1335.3,-33.28"/>
</g>
<!-- Node23&#45;&gt;Node2 -->
<g id="edge35" class="edge">
<title>Node23&#45;&gt;Node2</title>
<path fill="none" stroke="midnightblue" d="M1271.83,-239.9C1126.66,-229.57 748.34,-202.65 616.56,-193.28"/>
<polygon fill="midnightblue" stroke="midnightblue" points="616.63,-189.77 606.41,-192.55 616.14,-196.76 616.63,-189.77"/>
</g>
<!-- Node23&#45;&gt;Node6 -->
<g id="edge37" class="edge">
<title>Node23&#45;&gt;Node6</title>
<path fill="none" stroke="midnightblue" d="M1271.84,-243.07C1062.53,-239.11 343.83,-220.05 129.5,-143 96.41,-131.1 62.51,-108.03 42.23,-92.82"/>
<polygon fill="midnightblue" stroke="midnightblue" points="44.24,-89.95 34.17,-86.64 39.98,-95.5 44.24,-89.95"/>
</g>
<!-- Node23&#45;&gt;Node8 -->
<g id="edge36" class="edge">
<title>Node23&#45;&gt;Node8</title>
<path fill="none" stroke="midnightblue" d="M1328.94,-235.3C1326.73,-203.65 1317.89,-94.94 1298.5,-67 1286.42,-49.6 1266.25,-37.29 1248.47,-29.19"/>
<polygon fill="midnightblue" stroke="midnightblue" points="1249.48,-25.82 1238.91,-25.12 1246.74,-32.26 1249.48,-25.82"/>
</g>
<!-- Node23&#45;&gt;Node12 -->
<g id="edge39" class="edge">
<title>Node23&#45;&gt;Node12</title>
<path fill="none" stroke="midnightblue" d="M1338.04,-235.49C1346.56,-226.77 1359.75,-212.59 1369.5,-199 1394.42,-164.27 1417.82,-119.82 1429.92,-95.62"/>
<polygon fill="midnightblue" stroke="midnightblue" points="1433.1,-97.1 1434.39,-86.58 1426.82,-94 1433.1,-97.1"/>
</g>
<!-- Node23&#45;&gt;Node20 -->
<g id="edge38" class="edge">
<title>Node23&#45;&gt;Node20</title>
<path fill="none" stroke="midnightblue" d="M1330.49,-235.36C1334.28,-202.14 1348,-82.16 1353.34,-35.37"/>
<polygon fill="midnightblue" stroke="midnightblue" points="1356.85,-35.48 1354.51,-25.15 1349.9,-34.69 1356.85,-35.48"/>
</g>
<!-- Node24 -->
<g id="node24" class="node">
<title>Node24</title>
<g id="a_node24"><a xlink:href="TransactionMem_8h.html" target="_top" xlink:title=" ">
<polygon fill="white" stroke="black" points="1150.5,-179.5 1150.5,-198.5 1256.5,-198.5 1256.5,-179.5 1150.5,-179.5"/>
<text text-anchor="middle" x="1203.5" y="-186.5" font-family="Helvetica,sans-Serif" font-size="10.00">TransactionMem.h</text>
</a>
</g>
</g>
<!-- Node23&#45;&gt;Node24 -->
<g id="edge30" class="edge">
<title>Node23&#45;&gt;Node24</title>
<path fill="none" stroke="midnightblue" d="M1309.53,-235.44C1288.89,-226.6 1256.44,-212.69 1232.87,-202.59"/>
<polygon fill="midnightblue" stroke="midnightblue" points="1233.94,-199.24 1223.37,-198.52 1231.18,-205.67 1233.94,-199.24"/>
</g>
<!-- Node23&#45;&gt;Node25 -->
<g id="edge33" class="edge">
<title>Node23&#45;&gt;Node25</title>
<path fill="none" stroke="midnightblue" d="M1348.67,-235.44C1368.41,-226.64 1399.39,-212.81 1421.99,-202.72"/>
<polygon fill="midnightblue" stroke="midnightblue" points="1423.71,-205.79 1431.42,-198.52 1420.86,-199.4 1423.71,-205.79"/>
</g>
<!-- Node24&#45;&gt;Node3 -->
<g id="edge31" class="edge">
<title>Node24&#45;&gt;Node3</title>
<path fill="none" stroke="midnightblue" d="M1150.35,-183.47C1024.61,-172.74 711.56,-146.03 605.94,-137.02"/>
<polygon fill="midnightblue" stroke="midnightblue" points="606.07,-133.52 595.81,-136.16 605.48,-140.5 606.07,-133.52"/>
</g>
<!-- Node24&#45;&gt;Node4 -->
<g id="edge32" class="edge">
<title>Node24&#45;&gt;Node4</title>
<path fill="none" stroke="midnightblue" d="M1202.4,-179.38C1198.97,-156.48 1186.21,-94.09 1146.5,-67 1086.14,-25.82 560.49,-18.08 423.85,-16.75"/>
<polygon fill="midnightblue" stroke="midnightblue" points="423.65,-13.25 413.62,-16.66 423.59,-20.25 423.65,-13.25"/>
</g>
<!-- Node25&#45;&gt;Node12 -->
<g id="edge34" class="edge">
<title>Node25&#45;&gt;Node12</title>
<path fill="none" stroke="midnightblue" d="M1449.56,-179.37C1447.62,-161.62 1443.15,-120.67 1440.53,-96.6"/>
<polygon fill="midnightblue" stroke="midnightblue" points="1444,-96.15 1439.44,-86.59 1437.04,-96.91 1444,-96.15"/>
</g>
</g>
</svg>
