<?xml version="1.0" encoding="UTF-8" standalone="no"?>
<!DOCTYPE svg PUBLIC "-//W3C//DTD SVG 1.1//EN"
 "http://www.w3.org/Graphics/SVG/1.1/DTD/svg11.dtd">
<!-- Generated by graphviz version 2.43.0 (0)
 -->
<!-- Title: backend/greenhouse/SalesFloor.h Pages: 1 -->
<svg width="2019pt" height="553pt"
 viewBox="0.00 0.00 2018.50 553.00" xmlns="http://www.w3.org/2000/svg" xmlns:xlink="http://www.w3.org/1999/xlink">
<g id="graph0" class="graph" transform="scale(1 1) rotate(0) translate(4 549)">
<title>backend/greenhouse/SalesFloor.h</title>
<polygon fill="white" stroke="transparent" points="-4,4 -4,-549 2014.5,-549 2014.5,4 -4,4"/>
<!-- Node1 -->
<g id="node1" class="node">
<title>Node1</title>
<g id="a_node1"><a xlink:title=" ">
<polygon fill="#bfbfbf" stroke="black" points="1377,-514.5 1377,-544.5 1494,-544.5 1494,-514.5 1377,-514.5"/>
<text text-anchor="start" x="1385" y="-532.5" font-family="Helvetica,sans-Serif" font-size="10.00">backend/greenhouse</text>
<text text-anchor="middle" x="1435.5" y="-521.5" font-family="Helvetica,sans-Serif" font-size="10.00">/SalesFloor.h</text>
</a>
</g>
</g>
<!-- Node2 -->
<g id="node2" class="node">
<title>Node2</title>
<g id="a_node2"><a xlink:href="CustomerVisitor_8h_source.html" target="_top" xlink:title=" ">
<polygon fill="white" stroke="black" points="978.5,-447.5 978.5,-477.5 1134.5,-477.5 1134.5,-447.5 978.5,-447.5"/>
<text text-anchor="start" x="986.5" y="-465.5" font-family="Helvetica,sans-Serif" font-size="10.00">backend/customer/Customer</text>
<text text-anchor="middle" x="1056.5" y="-454.5" font-family="Helvetica,sans-Serif" font-size="10.00">Visitor.h</text>
</a>
</g>
</g>
<!-- Node1&#45;&gt;Node2 -->
<g id="edge1" class="edge">
<title>Node1&#45;&gt;Node2</title>
<path fill="none" stroke="midnightblue" d="M1366.48,-516.66C1301.02,-505.44 1202.79,-488.59 1134.52,-476.88"/>
<polygon fill="midnightblue" stroke="midnightblue" points="1366.25,-520.17 1376.7,-518.42 1367.43,-513.27 1366.25,-520.17"/>
</g>
<!-- Node33 -->
<g id="node33" class="node">
<title>Node33</title>
<g id="a_node33"><a xlink:href="Greenhouse_8h_source.html" target="_top" xlink:title=" ">
<polygon fill="white" stroke="black" points="1464,-447.5 1464,-477.5 1581,-477.5 1581,-447.5 1464,-447.5"/>
<text text-anchor="start" x="1472" y="-465.5" font-family="Helvetica,sans-Serif" font-size="10.00">backend/greenhouse</text>
<text text-anchor="middle" x="1522.5" y="-454.5" font-family="Helvetica,sans-Serif" font-size="10.00">/Greenhouse.h</text>
</a>
</g>
</g>
<!-- Node1&#45;&gt;Node33 -->
<g id="edge42" class="edge">
<title>Node1&#45;&gt;Node33</title>
<path fill="none" stroke="midnightblue" d="M1462.71,-508.17C1476.02,-498.23 1491.7,-486.51 1503.66,-477.58"/>
<polygon fill="midnightblue" stroke="midnightblue" points="1460.29,-505.61 1454.38,-514.4 1464.48,-511.21 1460.29,-505.61"/>
</g>
<!-- Node34 -->
<g id="node34" class="node">
<title>Node34</title>
<g id="a_node34"><a xlink:href="Manager_8h_source.html" target="_top" xlink:title=" ">
<polygon fill="white" stroke="black" points="1464,-380.5 1464,-410.5 1581,-410.5 1581,-380.5 1464,-380.5"/>
<text text-anchor="start" x="1472" y="-398.5" font-family="Helvetica,sans-Serif" font-size="10.00">backend/greenhouse</text>
<text text-anchor="middle" x="1522.5" y="-387.5" font-family="Helvetica,sans-Serif" font-size="10.00">/Manager.h</text>
</a>
</g>
</g>
<!-- Node1&#45;&gt;Node34 -->
<g id="edge45" class="edge">
<title>Node1&#45;&gt;Node34</title>
<path fill="none" stroke="midnightblue" d="M1437.17,-504.05C1439.33,-486.9 1444.25,-464.06 1455.5,-447 1465.52,-431.8 1481.73,-419.4 1495.69,-410.7"/>
<polygon fill="midnightblue" stroke="midnightblue" points="1433.65,-504.09 1436.12,-514.39 1440.61,-504.8 1433.65,-504.09"/>
</g>
<!-- Node3 -->
<g id="node3" class="node">
<title>Node3</title>
<g id="a_node3"><a xlink:href="Customer_8h.html" target="_top" xlink:title="Abstract base class for all customer types in the plant shop game.">
<polygon fill="white" stroke="black" points="499.5,-386 499.5,-405 663.5,-405 663.5,-386 499.5,-386"/>
<text text-anchor="middle" x="581.5" y="-393" font-family="Helvetica,sans-Serif" font-size="10.00">backend/customer/Customer.h</text>
</a>
</g>
</g>
<!-- Node2&#45;&gt;Node3 -->
<g id="edge2" class="edge">
<title>Node2&#45;&gt;Node3</title>
<path fill="none" stroke="midnightblue" d="M968.3,-450.19C891.45,-440.23 777.03,-425.15 677.5,-411 664.32,-409.13 650.13,-407.03 636.81,-405.02"/>
<polygon fill="midnightblue" stroke="midnightblue" points="968.05,-453.69 978.42,-451.5 968.95,-446.74 968.05,-453.69"/>
</g>
<!-- Node9 -->
<g id="node9" class="node">
<title>Node9</title>
<g id="a_node9"><a xlink:href="CustomerBuilder_8h.html" target="_top" xlink:title="Abstract builder interface for creating Customer objects.">
<polygon fill="white" stroke="black" points="867.5,-313.5 867.5,-343.5 1023.5,-343.5 1023.5,-313.5 867.5,-313.5"/>
<text text-anchor="start" x="875.5" y="-331.5" font-family="Helvetica,sans-Serif" font-size="10.00">backend/customer/Customer</text>
<text text-anchor="middle" x="945.5" y="-320.5" font-family="Helvetica,sans-Serif" font-size="10.00">Builder.h</text>
</a>
</g>
</g>
<!-- Node2&#45;&gt;Node9 -->
<g id="edge36" class="edge">
<title>Node2&#45;&gt;Node9</title>
<path fill="none" stroke="midnightblue" d="M968.14,-461.24C876.84,-458.86 743.17,-448.79 710.5,-411 701.49,-400.58 701.84,-390.72 710.5,-380 715.64,-373.64 802.59,-356.14 869.24,-343.52"/>
<polygon fill="midnightblue" stroke="midnightblue" points="968.14,-464.74 978.22,-461.47 968.31,-457.74 968.14,-464.74"/>
</g>
<!-- Node11 -->
<g id="node11" class="node">
<title>Node11</title>
<g id="a_node11"><a xlink:href="Director_8h.html" target="_top" xlink:title="Director class for coordinating customer construction using builders and visitors.">
<polygon fill="white" stroke="black" points="1212.5,-252 1212.5,-271 1368.5,-271 1368.5,-252 1212.5,-252"/>
<text text-anchor="middle" x="1290.5" y="-259" font-family="Helvetica,sans-Serif" font-size="10.00">backend/customer/Director.h</text>
</a>
</g>
</g>
<!-- Node2&#45;&gt;Node11 -->
<g id="edge38" class="edge">
<title>Node2&#45;&gt;Node11</title>
<path fill="none" stroke="midnightblue" d="M1144.79,-461.84C1239.81,-460.1 1381.99,-450.69 1416.5,-411 1462.31,-358.31 1352.23,-294 1307.95,-271.1"/>
<polygon fill="midnightblue" stroke="midnightblue" points="1144.55,-458.35 1134.6,-462 1144.66,-465.34 1144.55,-458.35"/>
</g>
<!-- Node29 -->
<g id="node29" class="node">
<title>Node29</title>
<g id="a_node29"><a xlink:href="CustomerVisitor_8cpp.html" target="_top" xlink:title="Implements the CustomerVisitor base class functionality.">
<polygon fill="white" stroke="black" points="719.5,-380.5 719.5,-410.5 875.5,-410.5 875.5,-380.5 719.5,-380.5"/>
<text text-anchor="start" x="727.5" y="-398.5" font-family="Helvetica,sans-Serif" font-size="10.00">backend/customer/Customer</text>
<text text-anchor="middle" x="797.5" y="-387.5" font-family="Helvetica,sans-Serif" font-size="10.00">Visitor.cpp</text>
</a>
</g>
</g>
<!-- Node2&#45;&gt;Node29 -->
<g id="edge37" class="edge">
<title>Node2&#45;&gt;Node29</title>
<path fill="none" stroke="midnightblue" d="M990.69,-444.98C948.39,-434.37 894.01,-420.72 853.73,-410.61"/>
<polygon fill="midnightblue" stroke="midnightblue" points="990.07,-448.44 1000.62,-447.48 991.77,-441.65 990.07,-448.44"/>
</g>
<!-- Node30 -->
<g id="node30" class="node">
<title>Node30</title>
<g id="a_node30"><a xlink:href="VisitEasyCustomer_8h.html" target="_top" xlink:title="Visitor for creating plant recommendations for easy&#45;maintenance customers.">
<polygon fill="white" stroke="black" points="893.5,-380.5 893.5,-410.5 1047.5,-410.5 1047.5,-380.5 893.5,-380.5"/>
<text text-anchor="start" x="901.5" y="-398.5" font-family="Helvetica,sans-Serif" font-size="10.00">backend/customer/VisitEasy</text>
<text text-anchor="middle" x="970.5" y="-387.5" font-family="Helvetica,sans-Serif" font-size="10.00">Customer.h</text>
</a>
</g>
</g>
<!-- Node2&#45;&gt;Node30 -->
<g id="edge39" class="edge">
<title>Node2&#45;&gt;Node30</title>
<path fill="none" stroke="midnightblue" d="M1029.6,-441.17C1016.45,-431.23 1000.95,-419.51 989.12,-410.58"/>
<polygon fill="midnightblue" stroke="midnightblue" points="1027.75,-444.16 1037.84,-447.4 1031.97,-438.57 1027.75,-444.16"/>
</g>
<!-- Node31 -->
<g id="node31" class="node">
<title>Node31</title>
<g id="a_node31"><a xlink:href="VisitHighCustomer_8h.html" target="_top" xlink:title="Visitor for creating plant recommendations for customers preferring challenging plants.">
<polygon fill="white" stroke="black" points="1066,-380.5 1066,-410.5 1219,-410.5 1219,-380.5 1066,-380.5"/>
<text text-anchor="start" x="1074" y="-398.5" font-family="Helvetica,sans-Serif" font-size="10.00">backend/customer/VisitHigh</text>
<text text-anchor="middle" x="1142.5" y="-387.5" font-family="Helvetica,sans-Serif" font-size="10.00">Customer.h</text>
</a>
</g>
</g>
<!-- Node2&#45;&gt;Node31 -->
<g id="edge40" class="edge">
<title>Node2&#45;&gt;Node31</title>
<path fill="none" stroke="midnightblue" d="M1083.4,-441.17C1096.55,-431.23 1112.05,-419.51 1123.88,-410.58"/>
<polygon fill="midnightblue" stroke="midnightblue" points="1081.03,-438.57 1075.16,-447.4 1085.25,-444.16 1081.03,-438.57"/>
</g>
<!-- Node32 -->
<g id="node32" class="node">
<title>Node32</title>
<g id="a_node32"><a xlink:href="VisitMediumCustomer_8h_source.html" target="_top" xlink:title=" ">
<polygon fill="white" stroke="black" points="1237.5,-380.5 1237.5,-410.5 1407.5,-410.5 1407.5,-380.5 1237.5,-380.5"/>
<text text-anchor="start" x="1245.5" y="-398.5" font-family="Helvetica,sans-Serif" font-size="10.00">backend/customer/VisitMedium</text>
<text text-anchor="middle" x="1322.5" y="-387.5" font-family="Helvetica,sans-Serif" font-size="10.00">Customer.h</text>
</a>
</g>
</g>
<!-- Node2&#45;&gt;Node32 -->
<g id="edge41" class="edge">
<title>Node2&#45;&gt;Node32</title>
<path fill="none" stroke="midnightblue" d="M1123.81,-445.05C1167.3,-434.43 1223.3,-420.74 1264.75,-410.61"/>
<polygon fill="midnightblue" stroke="midnightblue" points="1122.77,-441.7 1113.89,-447.48 1124.44,-448.5 1122.77,-441.7"/>
</g>
<!-- Node4 -->
<g id="node4" class="node">
<title>Node4</title>
<g id="a_node4"><a xlink:href="AverageCustomer_8h.html" target="_top" xlink:title="Concrete customer class representing moderately experienced plant buyers.">
<polygon fill="white" stroke="black" points="155,-313.5 155,-343.5 304,-343.5 304,-313.5 155,-313.5"/>
<text text-anchor="start" x="163" y="-331.5" font-family="Helvetica,sans-Serif" font-size="10.00">backend/customer/Average</text>
<text text-anchor="middle" x="229.5" y="-320.5" font-family="Helvetica,sans-Serif" font-size="10.00">Customer.h</text>
</a>
</g>
</g>
<!-- Node3&#45;&gt;Node4 -->
<g id="edge3" class="edge">
<title>Node3&#45;&gt;Node4</title>
<path fill="none" stroke="midnightblue" d="M525.1,-384.08C465.24,-373.03 370.36,-355.51 304.3,-343.31"/>
<polygon fill="midnightblue" stroke="midnightblue" points="524.65,-387.56 535.12,-385.94 525.92,-380.68 524.65,-387.56"/>
</g>
<!-- Node8 -->
<g id="node8" class="node">
<title>Node8</title>
<g id="a_node8"><a xlink:href="Customer_8cpp.html" target="_top" xlink:title="Implements the functionality defined in the Customer class.">
<polygon fill="white" stroke="black" points="673.5,-319 673.5,-338 849.5,-338 849.5,-319 673.5,-319"/>
<text text-anchor="middle" x="761.5" y="-326" font-family="Helvetica,sans-Serif" font-size="10.00">backend/customer/Customer.cpp</text>
</a>
</g>
</g>
<!-- Node3&#45;&gt;Node8 -->
<g id="edge7" class="edge">
<title>Node3&#45;&gt;Node8</title>
<path fill="none" stroke="midnightblue" d="M614.91,-382.44C650.62,-369.54 706.33,-349.42 737.79,-338.06"/>
<polygon fill="midnightblue" stroke="midnightblue" points="613.62,-379.18 605.4,-385.87 616,-385.76 613.62,-379.18"/>
</g>
<!-- Node3&#45;&gt;Node9 -->
<g id="edge8" class="edge">
<title>Node3&#45;&gt;Node9</title>
<path fill="none" stroke="midnightblue" d="M639.41,-384.16C701.08,-373.15 799.02,-355.66 867.46,-343.44"/>
<polygon fill="midnightblue" stroke="midnightblue" points="638.69,-380.73 629.46,-385.94 639.92,-387.62 638.69,-380.73"/>
</g>
<!-- Node17 -->
<g id="node17" class="node">
<title>Node17</title>
<g id="a_node17"><a xlink:href="Game_8h.html" target="_top" xlink:title="Header file for Game class.">
<polygon fill="white" stroke="black" points="1433,-252 1433,-271 1562,-271 1562,-252 1433,-252"/>
<text text-anchor="middle" x="1497.5" y="-259" font-family="Helvetica,sans-Serif" font-size="10.00">backend/game/Game.h</text>
</a>
</g>
</g>
<!-- Node3&#45;&gt;Node17 -->
<g id="edge35" class="edge">
<title>Node3&#45;&gt;Node17</title>
<path fill="none" stroke="midnightblue" d="M667.57,-384.82C681.91,-383.21 696.62,-381.56 710.5,-380 853.61,-363.96 889.96,-364.44 1032.5,-344 1188.27,-321.66 1371.95,-286.99 1454.05,-271.05"/>
<polygon fill="midnightblue" stroke="midnightblue" points="666.76,-381.39 657.21,-385.98 667.54,-388.34 666.76,-381.39"/>
</g>
<!-- Node25 -->
<g id="node25" class="node">
<title>Node25</title>
<g id="a_node25"><a xlink:href="GreenFingerCustomer_8h.html" target="_top" xlink:title="Concrete customer class representing expert plant enthusiasts.">
<polygon fill="white" stroke="black" points="321.5,-313.5 321.5,-343.5 489.5,-343.5 489.5,-313.5 321.5,-313.5"/>
<text text-anchor="start" x="329.5" y="-331.5" font-family="Helvetica,sans-Serif" font-size="10.00">backend/customer/GreenFinger</text>
<text text-anchor="middle" x="405.5" y="-320.5" font-family="Helvetica,sans-Serif" font-size="10.00">Customer.h</text>
</a>
</g>
</g>
<!-- Node3&#45;&gt;Node25 -->
<g id="edge29" class="edge">
<title>Node3&#45;&gt;Node25</title>
<path fill="none" stroke="midnightblue" d="M548.59,-382.35C518.76,-371.33 474.8,-355.09 443.48,-343.53"/>
<polygon fill="midnightblue" stroke="midnightblue" points="547.54,-385.69 558.13,-385.87 549.96,-379.12 547.54,-385.69"/>
</g>
<!-- Node27 -->
<g id="node27" class="node">
<title>Node27</title>
<g id="a_node27"><a xlink:href="IgnorantCustomer_8h.html" target="_top" xlink:title="Concrete customer class representing inexperienced plant buyers.">
<polygon fill="white" stroke="black" points="507,-313.5 507,-343.5 656,-343.5 656,-313.5 507,-313.5"/>
<text text-anchor="start" x="515" y="-331.5" font-family="Helvetica,sans-Serif" font-size="10.00">backend/customer/Ignorant</text>
<text text-anchor="middle" x="581.5" y="-320.5" font-family="Helvetica,sans-Serif" font-size="10.00">Customer.h</text>
</a>
</g>
</g>
<!-- Node3&#45;&gt;Node27 -->
<g id="edge32" class="edge">
<title>Node3&#45;&gt;Node27</title>
<path fill="none" stroke="midnightblue" d="M581.5,-375.41C581.5,-365.22 581.5,-352.9 581.5,-343.59"/>
<polygon fill="midnightblue" stroke="midnightblue" points="578,-375.73 581.5,-385.73 585,-375.73 578,-375.73"/>
</g>
<!-- Node5 -->
<g id="node5" class="node">
<title>Node5</title>
<g id="a_node5"><a xlink:href="AverageCustomer_8cpp.html" target="_top" xlink:title="Implements the functionality defined in the AverageCustomer class.">
<polygon fill="white" stroke="black" points="0,-246.5 0,-276.5 149,-276.5 149,-246.5 0,-246.5"/>
<text text-anchor="start" x="8" y="-264.5" font-family="Helvetica,sans-Serif" font-size="10.00">backend/customer/Average</text>
<text text-anchor="middle" x="74.5" y="-253.5" font-family="Helvetica,sans-Serif" font-size="10.00">Customer.cpp</text>
</a>
</g>
</g>
<!-- Node4&#45;&gt;Node5 -->
<g id="edge4" class="edge">
<title>Node4&#45;&gt;Node5</title>
<path fill="none" stroke="midnightblue" d="M186.35,-309.41C161.61,-299.03 131,-286.2 108.07,-276.58"/>
<polygon fill="midnightblue" stroke="midnightblue" points="185.29,-312.76 195.87,-313.4 188,-306.3 185.29,-312.76"/>
</g>
<!-- Node6 -->
<g id="node6" class="node">
<title>Node6</title>
<g id="a_node6"><a xlink:href="AverageCustomerBuilder_8h.html" target="_top" xlink:title="Builder class for creating AverageCustomer objects with randomized dialogues.">
<polygon fill="white" stroke="black" points="519,-246.5 519,-276.5 668,-276.5 668,-246.5 519,-246.5"/>
<text text-anchor="start" x="527" y="-264.5" font-family="Helvetica,sans-Serif" font-size="10.00">backend/customer/Average</text>
<text text-anchor="middle" x="593.5" y="-253.5" font-family="Helvetica,sans-Serif" font-size="10.00">CustomerBuilder.h</text>
</a>
</g>
</g>
<!-- Node4&#45;&gt;Node6 -->
<g id="edge5" class="edge">
<title>Node4&#45;&gt;Node6</title>
<path fill="none" stroke="midnightblue" d="M314.17,-312.38C376.09,-301.32 459.29,-286.47 518.75,-275.85"/>
<polygon fill="midnightblue" stroke="midnightblue" points="313.27,-308.99 304.04,-314.19 314.5,-315.88 313.27,-308.99"/>
</g>
<!-- Node7 -->
<g id="node7" class="node">
<title>Node7</title>
<g id="a_node7"><a xlink:href="AverageCustomerBuilder_8cpp.html" target="_top" xlink:title="Implements the AverageCustomerBuilder class functionality.">
<polygon fill="white" stroke="black" points="519,-179.5 519,-209.5 668,-209.5 668,-179.5 519,-179.5"/>
<text text-anchor="start" x="527" y="-197.5" font-family="Helvetica,sans-Serif" font-size="10.00">backend/customer/Average</text>
<text text-anchor="middle" x="593.5" y="-186.5" font-family="Helvetica,sans-Serif" font-size="10.00">CustomerBuilder.cpp</text>
</a>
</g>
</g>
<!-- Node6&#45;&gt;Node7 -->
<g id="edge6" class="edge">
<title>Node6&#45;&gt;Node7</title>
<path fill="none" stroke="midnightblue" d="M593.5,-236.11C593.5,-227.15 593.5,-217.32 593.5,-209.58"/>
<polygon fill="midnightblue" stroke="midnightblue" points="590,-236.4 593.5,-246.4 597,-236.4 590,-236.4"/>
</g>
<!-- Node9&#45;&gt;Node6 -->
<g id="edge9" class="edge">
<title>Node9&#45;&gt;Node6</title>
<path fill="none" stroke="midnightblue" d="M859.57,-311.63C800.97,-300.81 724.13,-286.62 668.1,-276.28"/>
<polygon fill="midnightblue" stroke="midnightblue" points="859.09,-315.1 869.55,-313.48 860.36,-308.22 859.09,-315.1"/>
</g>
<!-- Node10 -->
<g id="node10" class="node">
<title>Node10</title>
<g id="a_node10"><a xlink:href="CustomerBuilder_8cpp.html" target="_top" xlink:title="Implements the CustomerBuilder base class functionality.">
<polygon fill="white" stroke="black" points="1038.5,-246.5 1038.5,-276.5 1194.5,-276.5 1194.5,-246.5 1038.5,-246.5"/>
<text text-anchor="start" x="1046.5" y="-264.5" font-family="Helvetica,sans-Serif" font-size="10.00">backend/customer/Customer</text>
<text text-anchor="middle" x="1116.5" y="-253.5" font-family="Helvetica,sans-Serif" font-size="10.00">Builder.cpp</text>
</a>
</g>
</g>
<!-- Node9&#45;&gt;Node10 -->
<g id="edge10" class="edge">
<title>Node9&#45;&gt;Node10</title>
<path fill="none" stroke="midnightblue" d="M992.02,-309.82C1019.5,-299.37 1053.83,-286.32 1079.47,-276.58"/>
<polygon fill="midnightblue" stroke="midnightblue" points="990.71,-306.57 982.6,-313.4 993.2,-313.11 990.71,-306.57"/>
</g>
<!-- Node9&#45;&gt;Node11 -->
<g id="edge11" class="edge">
<title>Node9&#45;&gt;Node11</title>
<path fill="none" stroke="midnightblue" d="M1029.77,-311.62C1097.71,-298.82 1190.63,-281.32 1245.23,-271.03"/>
<polygon fill="midnightblue" stroke="midnightblue" points="1029.11,-308.18 1019.94,-313.48 1030.41,-315.06 1029.11,-308.18"/>
</g>
<!-- Node13 -->
<g id="node13" class="node">
<title>Node13</title>
<g id="a_node13"><a xlink:href="GreenFingerCustomerBuilder_8h.html" target="_top" xlink:title="Builder class for creating GreenFingerCustomer objects with randomized dialogues.">
<polygon fill="white" stroke="black" points="685.5,-246.5 685.5,-276.5 853.5,-276.5 853.5,-246.5 685.5,-246.5"/>
<text text-anchor="start" x="693.5" y="-264.5" font-family="Helvetica,sans-Serif" font-size="10.00">backend/customer/GreenFinger</text>
<text text-anchor="middle" x="769.5" y="-253.5" font-family="Helvetica,sans-Serif" font-size="10.00">CustomerBuilder.h</text>
</a>
</g>
</g>
<!-- Node9&#45;&gt;Node13 -->
<g id="edge13" class="edge">
<title>Node9&#45;&gt;Node13</title>
<path fill="none" stroke="midnightblue" d="M897.62,-309.82C869.33,-299.37 834.01,-286.32 807.61,-276.58"/>
<polygon fill="midnightblue" stroke="midnightblue" points="896.72,-313.21 907.31,-313.4 899.14,-306.65 896.72,-313.21"/>
</g>
<!-- Node15 -->
<g id="node15" class="node">
<title>Node15</title>
<g id="a_node15"><a xlink:href="IgnorantCustomerBuilder_8h.html" target="_top" xlink:title="Builder class for creating IgnorantCustomer objects with randomized dialogues.">
<polygon fill="white" stroke="black" points="871,-246.5 871,-276.5 1020,-276.5 1020,-246.5 871,-246.5"/>
<text text-anchor="start" x="879" y="-264.5" font-family="Helvetica,sans-Serif" font-size="10.00">backend/customer/Ignorant</text>
<text text-anchor="middle" x="945.5" y="-253.5" font-family="Helvetica,sans-Serif" font-size="10.00">CustomerBuilder.h</text>
</a>
</g>
</g>
<!-- Node9&#45;&gt;Node15 -->
<g id="edge15" class="edge">
<title>Node9&#45;&gt;Node15</title>
<path fill="none" stroke="midnightblue" d="M945.5,-303.11C945.5,-294.15 945.5,-284.32 945.5,-276.58"/>
<polygon fill="midnightblue" stroke="midnightblue" points="942,-303.4 945.5,-313.4 949,-303.4 942,-303.4"/>
</g>
<!-- Node9&#45;&gt;Node17 -->
<g id="edge17" class="edge">
<title>Node9&#45;&gt;Node17</title>
<path fill="none" stroke="midnightblue" d="M1033.68,-317.29C1121,-307.16 1258.49,-291.15 1377.5,-277 1395.42,-274.87 1414.84,-272.53 1432.74,-270.37"/>
<polygon fill="midnightblue" stroke="midnightblue" points="1033.08,-313.84 1023.55,-318.47 1033.89,-320.79 1033.08,-313.84"/>
</g>
<!-- Node12 -->
<g id="node12" class="node">
<title>Node12</title>
<g id="a_node12"><a xlink:href="Director_8cpp.html" target="_top" xlink:title="Implements the Director class functionality.">
<polygon fill="white" stroke="black" points="1102,-185 1102,-204 1269,-204 1269,-185 1102,-185"/>
<text text-anchor="middle" x="1185.5" y="-192" font-family="Helvetica,sans-Serif" font-size="10.00">backend/customer/Director.cpp</text>
</a>
</g>
</g>
<!-- Node11&#45;&gt;Node12 -->
<g id="edge12" class="edge">
<title>Node11&#45;&gt;Node12</title>
<path fill="none" stroke="midnightblue" d="M1267.79,-246.44C1247,-233.57 1216.88,-214.93 1199.44,-204.13"/>
<polygon fill="midnightblue" stroke="midnightblue" points="1265.99,-249.45 1276.34,-251.73 1269.68,-243.49 1265.99,-249.45"/>
</g>
<!-- Node14 -->
<g id="node14" class="node">
<title>Node14</title>
<g id="a_node14"><a xlink:href="GreenFingerCustomerBuilder_8cpp.html" target="_top" xlink:title="Implements the GreenFingerCustomerBuilder class functionality.">
<polygon fill="white" stroke="black" points="685.5,-179.5 685.5,-209.5 853.5,-209.5 853.5,-179.5 685.5,-179.5"/>
<text text-anchor="start" x="693.5" y="-197.5" font-family="Helvetica,sans-Serif" font-size="10.00">backend/customer/GreenFinger</text>
<text text-anchor="middle" x="769.5" y="-186.5" font-family="Helvetica,sans-Serif" font-size="10.00">CustomerBuilder.cpp</text>
</a>
</g>
</g>
<!-- Node13&#45;&gt;Node14 -->
<g id="edge14" class="edge">
<title>Node13&#45;&gt;Node14</title>
<path fill="none" stroke="midnightblue" d="M769.5,-236.11C769.5,-227.15 769.5,-217.32 769.5,-209.58"/>
<polygon fill="midnightblue" stroke="midnightblue" points="766,-236.4 769.5,-246.4 773,-236.4 766,-236.4"/>
</g>
<!-- Node16 -->
<g id="node16" class="node">
<title>Node16</title>
<g id="a_node16"><a xlink:href="IgnorantCustomerBuilder_8cpp.html" target="_top" xlink:title="Implements the IgnorantCustomerBuilder class functionality.">
<polygon fill="white" stroke="black" points="871,-179.5 871,-209.5 1020,-209.5 1020,-179.5 871,-179.5"/>
<text text-anchor="start" x="879" y="-197.5" font-family="Helvetica,sans-Serif" font-size="10.00">backend/customer/Ignorant</text>
<text text-anchor="middle" x="945.5" y="-186.5" font-family="Helvetica,sans-Serif" font-size="10.00">CustomerBuilder.cpp</text>
</a>
</g>
</g>
<!-- Node15&#45;&gt;Node16 -->
<g id="edge16" class="edge">
<title>Node15&#45;&gt;Node16</title>
<path fill="none" stroke="midnightblue" d="M945.5,-236.11C945.5,-227.15 945.5,-217.32 945.5,-209.58"/>
<polygon fill="midnightblue" stroke="midnightblue" points="942,-236.4 945.5,-246.4 949,-236.4 942,-236.4"/>
</g>
<!-- Node18 -->
<g id="node18" class="node">
<title>Node18</title>
<g id="a_node18"><a xlink:href="API_8h.html" target="_top" xlink:title="Bootstrapper for public facing API.">
<polygon fill="white" stroke="black" points="1906.5,-118 1906.5,-137 2010.5,-137 2010.5,-118 1906.5,-118"/>
<text text-anchor="middle" x="1958.5" y="-125" font-family="Helvetica,sans-Serif" font-size="10.00">backend/API/API.h</text>
</a>
</g>
</g>
<!-- Node17&#45;&gt;Node18 -->
<g id="edge18" class="edge">
<title>Node17&#45;&gt;Node18</title>
<path fill="none" stroke="midnightblue" d="M1537.01,-249.19C1627.55,-223.26 1848.37,-160.03 1928.68,-137.04"/>
<polygon fill="midnightblue" stroke="midnightblue" points="1536.04,-245.82 1527.39,-251.94 1537.97,-252.55 1536.04,-245.82"/>
</g>
<!-- Node19 -->
<g id="node19" class="node">
<title>Node19</title>
<g id="a_node19"><a xlink:href="APIController_8h.html" target="_top" xlink:title="Define endpoints.">
<polygon fill="white" stroke="black" points="1539,-56.5 1539,-75.5 1690,-75.5 1690,-56.5 1539,-56.5"/>
<text text-anchor="middle" x="1614.5" y="-63.5" font-family="Helvetica,sans-Serif" font-size="10.00">backend/API/APIController.h</text>
</a>
</g>
</g>
<!-- Node17&#45;&gt;Node19 -->
<g id="edge21" class="edge">
<title>Node17&#45;&gt;Node19</title>
<path fill="none" stroke="midnightblue" d="M1460.13,-248.64C1393.15,-225.55 1264.26,-171.53 1315.5,-112 1343.75,-79.18 1459.8,-69.97 1538.73,-67.57"/>
<polygon fill="midnightblue" stroke="midnightblue" points="1459.32,-252.07 1469.92,-251.95 1461.56,-245.44 1459.32,-252.07"/>
</g>
<!-- Node21 -->
<g id="node21" class="node">
<title>Node21</title>
<g id="a_node21"><a xlink:href="MenuOption_8h_source.html" target="_top" xlink:title=" ">
<polygon fill="white" stroke="black" points="1419,-185 1419,-204 1578,-204 1578,-185 1419,-185"/>
<text text-anchor="middle" x="1498.5" y="-192" font-family="Helvetica,sans-Serif" font-size="10.00">backend/game/MenuOption.h</text>
</a>
</g>
</g>
<!-- Node17&#45;&gt;Node21 -->
<g id="edge22" class="edge">
<title>Node17&#45;&gt;Node21</title>
<path fill="none" stroke="midnightblue" d="M1497.79,-241.54C1497.98,-229.17 1498.22,-213.62 1498.37,-204.13"/>
<polygon fill="midnightblue" stroke="midnightblue" points="1494.29,-241.68 1497.63,-251.73 1501.29,-241.79 1494.29,-241.68"/>
</g>
<!-- Node18&#45;&gt;Node19 -->
<g id="edge19" class="edge">
<title>Node18&#45;&gt;Node19</title>
<path fill="none" stroke="midnightblue" d="M1914.56,-115.64C1908.84,-114.34 1903.04,-113.1 1897.5,-112 1821.98,-97.04 1734.35,-83.72 1676.85,-75.53"/>
<polygon fill="midnightblue" stroke="midnightblue" points="1914.19,-119.14 1924.72,-117.99 1915.77,-112.32 1914.19,-119.14"/>
</g>
<!-- Node20 -->
<g id="node20" class="node">
<title>Node20</title>
<g id="a_node20"><a xlink:href="APIController_8cpp.html" target="_top" xlink:title="Still need to see what going to do here.">
<polygon fill="white" stroke="black" points="1533.5,-0.5 1533.5,-19.5 1695.5,-19.5 1695.5,-0.5 1533.5,-0.5"/>
<text text-anchor="middle" x="1614.5" y="-7.5" font-family="Helvetica,sans-Serif" font-size="10.00">backend/API/APIController.cpp</text>
</a>
</g>
</g>
<!-- Node19&#45;&gt;Node20 -->
<g id="edge20" class="edge">
<title>Node19&#45;&gt;Node20</title>
<path fill="none" stroke="midnightblue" d="M1614.5,-45.8C1614.5,-36.91 1614.5,-26.78 1614.5,-19.75"/>
<polygon fill="midnightblue" stroke="midnightblue" points="1611,-46.08 1614.5,-56.08 1618,-46.08 1611,-46.08"/>
</g>
<!-- Node22 -->
<g id="node22" class="node">
<title>Node22</title>
<g id="a_node22"><a xlink:href="ContinueGameOption_8h.html" target="_top" xlink:title="Header file for ContinueGameOption class.">
<polygon fill="white" stroke="black" points="1724.5,-112.5 1724.5,-142.5 1888.5,-142.5 1888.5,-112.5 1724.5,-112.5"/>
<text text-anchor="start" x="1732.5" y="-130.5" font-family="Helvetica,sans-Serif" font-size="10.00">backend/game/ContinueGame</text>
<text text-anchor="middle" x="1806.5" y="-119.5" font-family="Helvetica,sans-Serif" font-size="10.00">Option.h</text>
</a>
</g>
</g>
<!-- Node21&#45;&gt;Node22 -->
<g id="edge23" class="edge">
<title>Node21&#45;&gt;Node22</title>
<path fill="none" stroke="midnightblue" d="M1549.09,-182.82C1601.17,-171.83 1682.59,-154.65 1739.88,-142.56"/>
<polygon fill="midnightblue" stroke="midnightblue" points="1548.14,-179.45 1539.08,-184.94 1549.59,-186.3 1548.14,-179.45"/>
</g>
<!-- Node23 -->
<g id="node23" class="node">
<title>Node23</title>
<g id="a_node23"><a xlink:href="ExitGameOption_8h.html" target="_top" xlink:title=" ">
<polygon fill="white" stroke="black" points="1324.5,-118 1324.5,-137 1504.5,-137 1504.5,-118 1324.5,-118"/>
<text text-anchor="middle" x="1414.5" y="-125" font-family="Helvetica,sans-Serif" font-size="10.00">backend/game/ExitGameOption.h</text>
</a>
</g>
</g>
<!-- Node21&#45;&gt;Node23 -->
<g id="edge25" class="edge">
<title>Node21&#45;&gt;Node23</title>
<path fill="none" stroke="midnightblue" d="M1479.2,-178.57C1462.62,-165.74 1439.29,-147.69 1425.65,-137.13"/>
<polygon fill="midnightblue" stroke="midnightblue" points="1477.12,-181.38 1487.17,-184.73 1481.4,-175.85 1477.12,-181.38"/>
</g>
<!-- Node24 -->
<g id="node24" class="node">
<title>Node24</title>
<g id="a_node24"><a xlink:href="NewGameOption_8h.html" target="_top" xlink:title="Header file for NewGameOption class.">
<polygon fill="white" stroke="black" points="1523,-118 1523,-137 1706,-137 1706,-118 1523,-118"/>
<text text-anchor="middle" x="1614.5" y="-125" font-family="Helvetica,sans-Serif" font-size="10.00">backend/game/NewGameOption.h</text>
</a>
</g>
</g>
<!-- Node21&#45;&gt;Node24 -->
<g id="edge27" class="edge">
<title>Node21&#45;&gt;Node24</title>
<path fill="none" stroke="midnightblue" d="M1522.97,-179.79C1545.96,-166.9 1579.66,-148.02 1599.1,-137.13"/>
<polygon fill="midnightblue" stroke="midnightblue" points="1521.16,-176.79 1514.14,-184.73 1524.58,-182.9 1521.16,-176.79"/>
</g>
<!-- Node22&#45;&gt;Node19 -->
<g id="edge24" class="edge">
<title>Node22&#45;&gt;Node19</title>
<path fill="none" stroke="midnightblue" d="M1751.19,-109.36C1715.48,-98.29 1670.54,-84.37 1642.16,-75.57"/>
<polygon fill="midnightblue" stroke="midnightblue" points="1750.41,-112.78 1761,-112.4 1752.48,-106.1 1750.41,-112.78"/>
</g>
<!-- Node23&#45;&gt;Node19 -->
<g id="edge26" class="edge">
<title>Node23&#45;&gt;Node19</title>
<path fill="none" stroke="midnightblue" d="M1453.06,-115.03C1491.93,-103.46 1551.02,-85.88 1585.9,-75.51"/>
<polygon fill="midnightblue" stroke="midnightblue" points="1451.74,-111.77 1443.16,-117.98 1453.74,-118.48 1451.74,-111.77"/>
</g>
<!-- Node24&#45;&gt;Node19 -->
<g id="edge28" class="edge">
<title>Node24&#45;&gt;Node19</title>
<path fill="none" stroke="midnightblue" d="M1614.5,-107.82C1614.5,-97 1614.5,-83.9 1614.5,-75.51"/>
<polygon fill="midnightblue" stroke="midnightblue" points="1611,-107.98 1614.5,-117.98 1618,-107.98 1611,-107.98"/>
</g>
<!-- Node25&#45;&gt;Node13 -->
<g id="edge31" class="edge">
<title>Node25&#45;&gt;Node13</title>
<path fill="none" stroke="midnightblue" d="M493.89,-311.72C554.01,-300.98 632.84,-286.9 690.79,-276.55"/>
<polygon fill="midnightblue" stroke="midnightblue" points="493.26,-308.27 484.03,-313.48 494.49,-315.16 493.26,-308.27"/>
</g>
<!-- Node26 -->
<g id="node26" class="node">
<title>Node26</title>
<g id="a_node26"><a xlink:href="GreenFingerCustomer_8cpp.html" target="_top" xlink:title="Implements the functionality defined in the GreenFingerCustomer class.">
<polygon fill="white" stroke="black" points="166.5,-246.5 166.5,-276.5 334.5,-276.5 334.5,-246.5 166.5,-246.5"/>
<text text-anchor="start" x="174.5" y="-264.5" font-family="Helvetica,sans-Serif" font-size="10.00">backend/customer/GreenFinger</text>
<text text-anchor="middle" x="250.5" y="-253.5" font-family="Helvetica,sans-Serif" font-size="10.00">Customer.cpp</text>
</a>
</g>
</g>
<!-- Node25&#45;&gt;Node26 -->
<g id="edge30" class="edge">
<title>Node25&#45;&gt;Node26</title>
<path fill="none" stroke="midnightblue" d="M362.35,-309.41C337.61,-299.03 307,-286.2 284.07,-276.58"/>
<polygon fill="midnightblue" stroke="midnightblue" points="361.29,-312.76 371.87,-313.4 364,-306.3 361.29,-312.76"/>
</g>
<!-- Node27&#45;&gt;Node15 -->
<g id="edge34" class="edge">
<title>Node27&#45;&gt;Node15</title>
<path fill="none" stroke="midnightblue" d="M666.17,-312.38C728.09,-301.32 811.29,-286.47 870.75,-275.85"/>
<polygon fill="midnightblue" stroke="midnightblue" points="665.27,-308.99 656.04,-314.19 666.5,-315.88 665.27,-308.99"/>
</g>
<!-- Node28 -->
<g id="node28" class="node">
<title>Node28</title>
<g id="a_node28"><a xlink:href="IgnorantCustomer_8cpp.html" target="_top" xlink:title="Implements the functionality defined in the IgnorantCustomer class.">
<polygon fill="white" stroke="black" points="352,-246.5 352,-276.5 501,-276.5 501,-246.5 352,-246.5"/>
<text text-anchor="start" x="360" y="-264.5" font-family="Helvetica,sans-Serif" font-size="10.00">backend/customer/Ignorant</text>
<text text-anchor="middle" x="426.5" y="-253.5" font-family="Helvetica,sans-Serif" font-size="10.00">Customer.cpp</text>
</a>
</g>
</g>
<!-- Node27&#45;&gt;Node28 -->
<g id="edge33" class="edge">
<title>Node27&#45;&gt;Node28</title>
<path fill="none" stroke="midnightblue" d="M538.35,-309.41C513.61,-299.03 483,-286.2 460.07,-276.58"/>
<polygon fill="midnightblue" stroke="midnightblue" points="537.29,-312.76 547.87,-313.4 540,-306.3 537.29,-312.76"/>
</g>
<!-- Node33&#45;&gt;Node34 -->
<g id="edge43" class="edge">
<title>Node33&#45;&gt;Node34</title>
<path fill="none" stroke="midnightblue" d="M1522.5,-437.11C1522.5,-428.15 1522.5,-418.32 1522.5,-410.58"/>
<polygon fill="midnightblue" stroke="midnightblue" points="1519,-437.4 1522.5,-447.4 1526,-437.4 1519,-437.4"/>
</g>
<!-- Node34&#45;&gt;Node17 -->
<g id="edge44" class="edge">
<title>Node34&#45;&gt;Node17</title>
<path fill="none" stroke="midnightblue" d="M1517.92,-370.32C1512.25,-340.38 1502.88,-290.91 1499.13,-271.1"/>
<polygon fill="midnightblue" stroke="midnightblue" points="1514.52,-371.2 1519.82,-380.37 1521.4,-369.9 1514.52,-371.2"/>
</g>
</g>
</svg>
