<?xml version="1.0" encoding="UTF-8" standalone="no"?>
<!DOCTYPE svg PUBLIC "-//W3C//DTD SVG 1.1//EN"
 "http://www.w3.org/Graphics/SVG/1.1/DTD/svg11.dtd">
<!-- Generated by graphviz version 2.43.0 (0)
 -->
<!-- Title: backend/plant/Succulent.h Pages: 1 -->
<svg width="366pt" height="140pt"
 viewBox="0.00 0.00 366.00 140.00" xmlns="http://www.w3.org/2000/svg" xmlns:xlink="http://www.w3.org/1999/xlink">
<g id="graph0" class="graph" transform="scale(1 1) rotate(0) translate(4 136)">
<title>backend/plant/Succulent.h</title>
<polygon fill="white" stroke="transparent" points="-4,4 -4,-136 362,-136 362,4 -4,4"/>
<!-- Node1 -->
<g id="node1" class="node">
<title>Node1</title>
<g id="a_node1"><a xlink:title="Defines the Succulent subclass derived from the Plant base class.">
<polygon fill="#bfbfbf" stroke="black" points="97.5,-112.5 97.5,-131.5 241.5,-131.5 241.5,-112.5 97.5,-112.5"/>
<text text-anchor="middle" x="169.5" y="-119.5" font-family="Helvetica,sans-Serif" font-size="10.00">backend/plant/Succulent.h</text>
</a>
</g>
</g>
<!-- Node2 -->
<g id="node2" class="node">
<title>Node2</title>
<g id="a_node2"><a xlink:href="Succulent_8cpp.html" target="_top" xlink:title="Implements the functionality defined in the Succulent class.">
<polygon fill="white" stroke="black" points="0,-56.5 0,-75.5 155,-75.5 155,-56.5 0,-56.5"/>
<text text-anchor="middle" x="77.5" y="-63.5" font-family="Helvetica,sans-Serif" font-size="10.00">backend/plant/Succulent.cpp</text>
</a>
</g>
</g>
<!-- Node1&#45;&gt;Node2 -->
<g id="edge1" class="edge">
<title>Node1&#45;&gt;Node2</title>
<path fill="none" stroke="midnightblue" d="M145.95,-107.18C129.02,-97.24 106.72,-84.15 92.24,-75.65"/>
<polygon fill="midnightblue" stroke="midnightblue" points="144.32,-110.28 154.72,-112.32 147.87,-104.24 144.32,-110.28"/>
</g>
<!-- Node3 -->
<g id="node3" class="node">
<title>Node3</title>
<g id="a_node3"><a xlink:href="SucculentCreator_8h.html" target="_top" xlink:title="Defines the SucculentCreator class for creating Succulent objects.">
<polygon fill="white" stroke="black" points="173,-56.5 173,-75.5 352,-75.5 352,-56.5 173,-56.5"/>
<text text-anchor="middle" x="262.5" y="-63.5" font-family="Helvetica,sans-Serif" font-size="10.00">backend/plant/SucculentCreator.h</text>
</a>
</g>
</g>
<!-- Node1&#45;&gt;Node3 -->
<g id="edge2" class="edge">
<title>Node1&#45;&gt;Node3</title>
<path fill="none" stroke="midnightblue" d="M193.31,-107.18C210.42,-97.24 232.97,-84.15 247.6,-75.65"/>
<polygon fill="midnightblue" stroke="midnightblue" points="191.33,-104.28 184.44,-112.32 194.85,-110.33 191.33,-104.28"/>
</g>
<!-- Node4 -->
<g id="node4" class="node">
<title>Node4</title>
<g id="a_node4"><a xlink:href="SucculentCreator_8cpp.html" target="_top" xlink:title="Implements the functionality defined in the SucculentCreator class.">
<polygon fill="white" stroke="black" points="167,-0.5 167,-19.5 358,-19.5 358,-0.5 167,-0.5"/>
<text text-anchor="middle" x="262.5" y="-7.5" font-family="Helvetica,sans-Serif" font-size="10.00">backend/plant/SucculentCreator.cpp</text>
</a>
</g>
</g>
<!-- Node3&#45;&gt;Node4 -->
<g id="edge3" class="edge">
<title>Node3&#45;&gt;Node4</title>
<path fill="none" stroke="midnightblue" d="M262.5,-45.8C262.5,-36.91 262.5,-26.78 262.5,-19.75"/>
<polygon fill="midnightblue" stroke="midnightblue" points="259,-46.08 262.5,-56.08 266,-46.08 259,-46.08"/>
</g>
</g>
</svg>
