<?xml version="1.0" encoding="UTF-8" standalone="no"?>
<!DOCTYPE svg PUBLIC "-//W3C//DTD SVG 1.1//EN"
 "http://www.w3.org/Graphics/SVG/1.1/DTD/svg11.dtd">
<!-- Generated by graphviz version 2.43.0 (0)
 -->
<!-- Title: backend/game/TransactionMem.h Pages: 1 -->
<!--zoomable 687 -->
<svg id="main" version="1.1" xmlns="http://www.w3.org/2000/svg" xmlns:xlink="http://www.w3.org/1999/xlink" xml:space="preserve" onload="init(evt)">
<style type="text/css"><![CDATA[
.edge:hover path { stroke: red; }
.edge:hover polygon { stroke: red; fill: red; }
]]></style>
<script type="text/javascript"><![CDATA[
var edges = document.getElementsByTagName('g');
if (edges && edges.length) {
  for (var i=0;i<edges.length;i++) {
    if (edges[i].id.substr(0,4)=='edge') {
      edges[i].setAttribute('class','edge');
    }
  }
}
]]></script>
        <defs>
                <circle id="rim" cx="0" cy="0" r="7"/>
                <circle id="rim2" cx="0" cy="0" r="3.5"/>
                <g id="zoomPlus">
                        <use xlink:href="#rim" fill="#404040">
                                <set attributeName="fill" to="#808080" begin="zoomplus.mouseover" end="zoomplus.mouseout"/>
                        </use>
                        <path d="M-4,0h8M0,-4v8" fill="none" stroke="white" stroke-width="1.5" pointer-events="none"/>
                </g>
                <g id="zoomMin">
                        <use xlink:href="#rim" fill="#404040">
                                <set attributeName="fill" to="#808080" begin="zoomminus.mouseover" end="zoomminus.mouseout"/>
                        </use>
                        <path d="M-4,0h8" fill="none" stroke="white" stroke-width="1.5" pointer-events="none"/>
                </g>
                <g id="dirArrow">
                        <path fill="none" stroke="white" stroke-width="1.5" d="M0,-3.0v7 M-2.5,-0.5L0,-3.0L2.5,-0.5"/>
                </g>
               <g id="resetDef">
                       <use xlink:href="#rim2" fill="#404040">
                               <set attributeName="fill" to="#808080" begin="reset.mouseover" end="reset.mouseout"/>
                       </use>
               </g>
        </defs>

<script type="text/javascript">
var viewWidth = 1757;
var viewHeight = 687;
var sectionId = 'dynsection-1';
</script>
<script xlink:href="svgpan.js"/>
<svg id="graph" class="graph">
<g id="viewport">
<title>backend/game/TransactionMem.h</title>
<polygon fill="white" stroke="transparent" points="-4,4 -4,-683 1752.74,-683 1752.74,4 -4,4"/>
<!-- Node1 -->
<g id="node1" class="node">
<title>Node1</title>
<g id="a_node1"><a xlink:title=" ">
<polygon fill="#bfbfbf" stroke="black" points="221.74,-648.5 221.74,-678.5 367.74,-678.5 367.74,-648.5 221.74,-648.5"/>
<text text-anchor="start" x="229.74" y="-666.5" font-family="Helvetica,sans-Serif" font-size="10.00">backend/game/Transaction</text>
<text text-anchor="middle" x="294.74" y="-655.5" font-family="Helvetica,sans-Serif" font-size="10.00">Mem.h</text>
</a>
</g>
</g>
<!-- Node2 -->
<g id="node2" class="node">
<title>Node2</title>
<g id="a_node2"><a xlink:href="Transaction_8h.html" target="_top" xlink:title=" ">
<polygon fill="white" stroke="black" points="141.24,-520 141.24,-539 296.24,-539 296.24,-520 141.24,-520"/>
<text text-anchor="middle" x="218.74" y="-527" font-family="Helvetica,sans-Serif" font-size="10.00">backend/game/Transaction.h</text>
</a>
</g>
</g>
<!-- Node1&#45;&gt;Node2 -->
<g id="edge1" class="edge">
<title>Node1&#45;&gt;Node2</title>
<path fill="none" stroke="midnightblue" d="M281.49,-639.49C264.33,-609.68 235.25,-559.17 223.69,-539.1"/>
<polygon fill="midnightblue" stroke="midnightblue" points="278.58,-641.45 286.61,-648.37 284.65,-637.96 278.58,-641.45"/>
</g>
<!-- Node12 -->
<g id="node12" class="node">
<title>Node12</title>
<g id="a_node12"><a xlink:href="TransactionHistory_8h.html" target="_top" xlink:title=" ">
<polygon fill="white" stroke="black" points="285.74,-581.5 285.74,-611.5 431.74,-611.5 431.74,-581.5 285.74,-581.5"/>
<text text-anchor="start" x="293.74" y="-599.5" font-family="Helvetica,sans-Serif" font-size="10.00">backend/game/Transaction</text>
<text text-anchor="middle" x="358.74" y="-588.5" font-family="Helvetica,sans-Serif" font-size="10.00">History.h</text>
</a>
</g>
</g>
<!-- Node1&#45;&gt;Node12 -->
<g id="edge15" class="edge">
<title>Node1&#45;&gt;Node12</title>
<path fill="none" stroke="midnightblue" d="M315.88,-641.02C325.42,-631.34 336.41,-620.17 344.88,-611.58"/>
<polygon fill="midnightblue" stroke="midnightblue" points="313.15,-638.81 308.63,-648.4 318.14,-643.73 313.15,-638.81"/>
</g>
<!-- Node3 -->
<g id="node3" class="node">
<title>Node3</title>
<g id="a_node3"><a xlink:href="Manager_8h_source.html" target="_top" xlink:title=" ">
<polygon fill="white" stroke="black" points="193.24,-380.5 193.24,-410.5 310.24,-410.5 310.24,-380.5 193.24,-380.5"/>
<text text-anchor="start" x="201.24" y="-398.5" font-family="Helvetica,sans-Serif" font-size="10.00">backend/greenhouse</text>
<text text-anchor="middle" x="251.74" y="-387.5" font-family="Helvetica,sans-Serif" font-size="10.00">/Manager.h</text>
</a>
</g>
</g>
<!-- Node2&#45;&gt;Node3 -->
<g id="edge2" class="edge">
<title>Node2&#45;&gt;Node3</title>
<path fill="none" stroke="midnightblue" d="M219.05,-509.63C219.74,-492.89 221.8,-467.92 227.74,-447 231.4,-434.11 238.09,-420.45 243.48,-410.58"/>
<polygon fill="midnightblue" stroke="midnightblue" points="215.55,-509.66 218.76,-519.75 222.55,-509.86 215.55,-509.66"/>
</g>
<!-- Node4 -->
<g id="node4" class="node">
<title>Node4</title>
<g id="a_node4"><a xlink:href="Game_8h.html" target="_top" xlink:title="Header file for Game class.">
<polygon fill="white" stroke="black" points="231.24,-252 231.24,-271 360.24,-271 360.24,-252 231.24,-252"/>
<text text-anchor="middle" x="295.74" y="-259" font-family="Helvetica,sans-Serif" font-size="10.00">backend/game/Game.h</text>
</a>
</g>
</g>
<!-- Node3&#45;&gt;Node4 -->
<g id="edge3" class="edge">
<title>Node3&#45;&gt;Node4</title>
<path fill="none" stroke="midnightblue" d="M259.67,-370.71C269.64,-340.81 286.24,-291 292.87,-271.1"/>
<polygon fill="midnightblue" stroke="midnightblue" points="256.29,-369.78 256.45,-380.37 262.93,-371.99 256.29,-369.78"/>
</g>
<!-- Node5 -->
<g id="node5" class="node">
<title>Node5</title>
<g id="a_node5"><a xlink:href="API_8h.html" target="_top" xlink:title="Bootstrapper for public facing API.">
<polygon fill="white" stroke="black" points="605.74,-118 605.74,-137 709.74,-137 709.74,-118 605.74,-118"/>
<text text-anchor="middle" x="657.74" y="-125" font-family="Helvetica,sans-Serif" font-size="10.00">backend/API/API.h</text>
</a>
</g>
</g>
<!-- Node4&#45;&gt;Node5 -->
<g id="edge4" class="edge">
<title>Node4&#45;&gt;Node5</title>
<path fill="none" stroke="midnightblue" d="M328.73,-248.47C401.01,-222.11 571.83,-159.82 634.32,-137.04"/>
<polygon fill="midnightblue" stroke="midnightblue" points="327.41,-245.23 319.21,-251.94 329.81,-251.8 327.41,-245.23"/>
</g>
<!-- Node6 -->
<g id="node6" class="node">
<title>Node6</title>
<g id="a_node6"><a xlink:href="APIController_8h.html" target="_top" xlink:title="Define endpoints.">
<polygon fill="white" stroke="black" points="220.24,-56.5 220.24,-75.5 371.24,-75.5 371.24,-56.5 220.24,-56.5"/>
<text text-anchor="middle" x="295.74" y="-63.5" font-family="Helvetica,sans-Serif" font-size="10.00">backend/API/APIController.h</text>
</a>
</g>
</g>
<!-- Node4&#45;&gt;Node6 -->
<g id="edge7" class="edge">
<title>Node4&#45;&gt;Node6</title>
<path fill="none" stroke="midnightblue" d="M226.13,-250.24C123.08,-232.23 -51.17,-189.31 14.74,-112 40.66,-81.59 146.01,-71.65 220.06,-68.44"/>
<polygon fill="midnightblue" stroke="midnightblue" points="225.73,-253.72 236.17,-251.95 226.91,-246.82 225.73,-253.72"/>
</g>
<!-- Node8 -->
<g id="node8" class="node">
<title>Node8</title>
<g id="a_node8"><a xlink:href="MenuOption_8h_source.html" target="_top" xlink:title=" ">
<polygon fill="white" stroke="black" points="216.24,-185 216.24,-204 375.24,-204 375.24,-185 216.24,-185"/>
<text text-anchor="middle" x="295.74" y="-192" font-family="Helvetica,sans-Serif" font-size="10.00">backend/game/MenuOption.h</text>
</a>
</g>
</g>
<!-- Node4&#45;&gt;Node8 -->
<g id="edge8" class="edge">
<title>Node4&#45;&gt;Node8</title>
<path fill="none" stroke="midnightblue" d="M295.74,-241.54C295.74,-229.17 295.74,-213.62 295.74,-204.13"/>
<polygon fill="midnightblue" stroke="midnightblue" points="292.24,-241.73 295.74,-251.73 299.24,-241.73 292.24,-241.73"/>
</g>
<!-- Node5&#45;&gt;Node6 -->
<g id="edge5" class="edge">
<title>Node5&#45;&gt;Node6</title>
<path fill="none" stroke="midnightblue" d="M613.81,-115.59C608.09,-114.3 602.28,-113.07 596.74,-112 517.24,-96.64 425.05,-83.54 363.86,-75.5"/>
<polygon fill="midnightblue" stroke="midnightblue" points="613.44,-119.09 623.97,-117.93 615.01,-112.27 613.44,-119.09"/>
</g>
<!-- Node7 -->
<g id="node7" class="node">
<title>Node7</title>
<g id="a_node7"><a xlink:href="APIController_8cpp.html" target="_top" xlink:title="Still need to see what going to do here.">
<polygon fill="white" stroke="black" points="214.74,-0.5 214.74,-19.5 376.74,-19.5 376.74,-0.5 214.74,-0.5"/>
<text text-anchor="middle" x="295.74" y="-7.5" font-family="Helvetica,sans-Serif" font-size="10.00">backend/API/APIController.cpp</text>
</a>
</g>
</g>
<!-- Node6&#45;&gt;Node7 -->
<g id="edge6" class="edge">
<title>Node6&#45;&gt;Node7</title>
<path fill="none" stroke="midnightblue" d="M295.74,-45.8C295.74,-36.91 295.74,-26.78 295.74,-19.75"/>
<polygon fill="midnightblue" stroke="midnightblue" points="292.24,-46.08 295.74,-56.08 299.24,-46.08 292.24,-46.08"/>
</g>
<!-- Node9 -->
<g id="node9" class="node">
<title>Node9</title>
<g id="a_node9"><a xlink:href="ContinueGameOption_8h.html" target="_top" xlink:title="Header file for ContinueGameOption class.">
<polygon fill="white" stroke="black" points="23.74,-112.5 23.74,-142.5 187.74,-142.5 187.74,-112.5 23.74,-112.5"/>
<text text-anchor="start" x="31.74" y="-130.5" font-family="Helvetica,sans-Serif" font-size="10.00">backend/game/ContinueGame</text>
<text text-anchor="middle" x="105.74" y="-119.5" font-family="Helvetica,sans-Serif" font-size="10.00">Option.h</text>
</a>
</g>
</g>
<!-- Node8&#45;&gt;Node9 -->
<g id="edge9" class="edge">
<title>Node8&#45;&gt;Node9</title>
<path fill="none" stroke="midnightblue" d="M260.63,-181.49C228.42,-170.47 180.7,-154.14 146.74,-142.53"/>
<polygon fill="midnightblue" stroke="midnightblue" points="259.91,-184.94 270.51,-184.87 262.18,-178.32 259.91,-184.94"/>
</g>
<!-- Node10 -->
<g id="node10" class="node">
<title>Node10</title>
<g id="a_node10"><a xlink:href="ExitGameOption_8h.html" target="_top" xlink:title=" ">
<polygon fill="white" stroke="black" points="205.74,-118 205.74,-137 385.74,-137 385.74,-118 205.74,-118"/>
<text text-anchor="middle" x="295.74" y="-125" font-family="Helvetica,sans-Serif" font-size="10.00">backend/game/ExitGameOption.h</text>
</a>
</g>
</g>
<!-- Node8&#45;&gt;Node10 -->
<g id="edge11" class="edge">
<title>Node8&#45;&gt;Node10</title>
<path fill="none" stroke="midnightblue" d="M295.74,-174.54C295.74,-162.17 295.74,-146.62 295.74,-137.13"/>
<polygon fill="midnightblue" stroke="midnightblue" points="292.24,-174.73 295.74,-184.73 299.24,-174.73 292.24,-174.73"/>
</g>
<!-- Node11 -->
<g id="node11" class="node">
<title>Node11</title>
<g id="a_node11"><a xlink:href="NewGameOption_8h.html" target="_top" xlink:title="Header file for NewGameOption class.">
<polygon fill="white" stroke="black" points="404.24,-118 404.24,-137 587.24,-137 587.24,-118 404.24,-118"/>
<text text-anchor="middle" x="495.74" y="-125" font-family="Helvetica,sans-Serif" font-size="10.00">backend/game/NewGameOption.h</text>
</a>
</g>
</g>
<!-- Node8&#45;&gt;Node11 -->
<g id="edge13" class="edge">
<title>Node8&#45;&gt;Node11</title>
<path fill="none" stroke="midnightblue" d="M331.85,-181.77C371.47,-168.89 434.13,-148.52 469.39,-137.06"/>
<polygon fill="midnightblue" stroke="midnightblue" points="330.73,-178.45 322.3,-184.87 332.89,-185.11 330.73,-178.45"/>
</g>
<!-- Node9&#45;&gt;Node6 -->
<g id="edge10" class="edge">
<title>Node9&#45;&gt;Node6</title>
<path fill="none" stroke="midnightblue" d="M160.47,-109.36C195.82,-98.29 240.28,-84.37 268.37,-75.57"/>
<polygon fill="midnightblue" stroke="midnightblue" points="159.26,-106.07 150.77,-112.4 161.36,-112.75 159.26,-106.07"/>
</g>
<!-- Node10&#45;&gt;Node6 -->
<g id="edge12" class="edge">
<title>Node10&#45;&gt;Node6</title>
<path fill="none" stroke="midnightblue" d="M295.74,-107.82C295.74,-97 295.74,-83.9 295.74,-75.51"/>
<polygon fill="midnightblue" stroke="midnightblue" points="292.24,-107.98 295.74,-117.98 299.24,-107.98 292.24,-107.98"/>
</g>
<!-- Node11&#45;&gt;Node6 -->
<g id="edge14" class="edge">
<title>Node11&#45;&gt;Node6</title>
<path fill="none" stroke="midnightblue" d="M457.18,-115.03C418.31,-103.46 359.22,-85.88 324.34,-75.51"/>
<polygon fill="midnightblue" stroke="midnightblue" points="456.5,-118.48 467.08,-117.98 458.5,-111.77 456.5,-118.48"/>
</g>
<!-- Node13 -->
<g id="node13" class="node">
<title>Node13</title>
<g id="a_node13"><a xlink:href="SalesFloor_8h.html" target="_top" xlink:title=" ">
<polygon fill="white" stroke="black" points="319.24,-514.5 319.24,-544.5 436.24,-544.5 436.24,-514.5 319.24,-514.5"/>
<text text-anchor="start" x="327.24" y="-532.5" font-family="Helvetica,sans-Serif" font-size="10.00">backend/greenhouse</text>
<text text-anchor="middle" x="377.74" y="-521.5" font-family="Helvetica,sans-Serif" font-size="10.00">/SalesFloor.h</text>
</a>
</g>
</g>
<!-- Node12&#45;&gt;Node13 -->
<g id="edge16" class="edge">
<title>Node12&#45;&gt;Node13</title>
<path fill="none" stroke="midnightblue" d="M365.7,-571.7C368.36,-562.59 371.31,-552.49 373.62,-544.58"/>
<polygon fill="midnightblue" stroke="midnightblue" points="362.31,-570.82 362.86,-581.4 369.03,-572.78 362.31,-570.82"/>
</g>
<!-- Node13&#45;&gt;Node3 -->
<g id="edge49" class="edge">
<title>Node13&#45;&gt;Node3</title>
<path fill="none" stroke="midnightblue" d="M378.95,-504.15C378.57,-486.56 375.35,-463.15 362.74,-447 349.25,-429.73 328.53,-418.17 308.62,-410.52"/>
<polygon fill="midnightblue" stroke="midnightblue" points="375.45,-504.21 378.87,-514.23 382.45,-504.26 375.45,-504.21"/>
</g>
<!-- Node14 -->
<g id="node14" class="node">
<title>Node14</title>
<g id="a_node14"><a xlink:href="CustomerVisitor_8h_source.html" target="_top" xlink:title=" ">
<polygon fill="white" stroke="black" points="625.74,-447.5 625.74,-477.5 781.74,-477.5 781.74,-447.5 625.74,-447.5"/>
<text text-anchor="start" x="633.74" y="-465.5" font-family="Helvetica,sans-Serif" font-size="10.00">backend/customer/Customer</text>
<text text-anchor="middle" x="703.74" y="-454.5" font-family="Helvetica,sans-Serif" font-size="10.00">Visitor.h</text>
</a>
</g>
</g>
<!-- Node13&#45;&gt;Node14 -->
<g id="edge17" class="edge">
<title>Node13&#45;&gt;Node14</title>
<path fill="none" stroke="midnightblue" d="M446.39,-514.81C501.3,-503.86 577.99,-488.57 633.36,-477.53"/>
<polygon fill="midnightblue" stroke="midnightblue" points="445.52,-511.42 436.4,-516.8 446.89,-518.28 445.52,-511.42"/>
</g>
<!-- Node37 -->
<g id="node37" class="node">
<title>Node37</title>
<g id="a_node37"><a xlink:href="Greenhouse_8h_source.html" target="_top" xlink:title=" ">
<polygon fill="white" stroke="black" points="237.24,-447.5 237.24,-477.5 354.24,-477.5 354.24,-447.5 237.24,-447.5"/>
<text text-anchor="start" x="245.24" y="-465.5" font-family="Helvetica,sans-Serif" font-size="10.00">backend/greenhouse</text>
<text text-anchor="middle" x="295.74" y="-454.5" font-family="Helvetica,sans-Serif" font-size="10.00">/Greenhouse.h</text>
</a>
</g>
</g>
<!-- Node13&#45;&gt;Node37 -->
<g id="edge47" class="edge">
<title>Node13&#45;&gt;Node37</title>
<path fill="none" stroke="midnightblue" d="M352.09,-508.17C339.55,-498.23 324.77,-486.51 313.5,-477.58"/>
<polygon fill="midnightblue" stroke="midnightblue" points="349.94,-510.93 359.95,-514.4 354.28,-505.44 349.94,-510.93"/>
</g>
<!-- Node15 -->
<g id="node15" class="node">
<title>Node15</title>
<g id="a_node15"><a xlink:href="Customer_8h.html" target="_top" xlink:title="Abstract base class for all customer types in the plant shop game.">
<polygon fill="white" stroke="black" points="1072.74,-386 1072.74,-405 1236.74,-405 1236.74,-386 1072.74,-386"/>
<text text-anchor="middle" x="1154.74" y="-393" font-family="Helvetica,sans-Serif" font-size="10.00">backend/customer/Customer.h</text>
</a>
</g>
</g>
<!-- Node14&#45;&gt;Node15 -->
<g id="edge18" class="edge">
<title>Node14&#45;&gt;Node15</title>
<path fill="none" stroke="midnightblue" d="M791.81,-449.61C864.74,-439.66 971.04,-424.89 1063.74,-411 1076.24,-409.13 1089.69,-407.03 1102.31,-405.02"/>
<polygon fill="midnightblue" stroke="midnightblue" points="791.18,-446.16 781.75,-450.98 792.13,-453.1 791.18,-446.16"/>
</g>
<!-- Node21 -->
<g id="node21" class="node">
<title>Node21</title>
<g id="a_node21"><a xlink:href="CustomerBuilder_8h.html" target="_top" xlink:title="Abstract builder interface for creating Customer objects.">
<polygon fill="white" stroke="black" points="712.74,-313.5 712.74,-343.5 868.74,-343.5 868.74,-313.5 712.74,-313.5"/>
<text text-anchor="start" x="720.74" y="-331.5" font-family="Helvetica,sans-Serif" font-size="10.00">backend/customer/Customer</text>
<text text-anchor="middle" x="790.74" y="-320.5" font-family="Helvetica,sans-Serif" font-size="10.00">Builder.h</text>
</a>
</g>
</g>
<!-- Node14&#45;&gt;Node21 -->
<g id="edge41" class="edge">
<title>Node14&#45;&gt;Node21</title>
<path fill="none" stroke="midnightblue" d="M615.38,-461.24C524.08,-458.86 390.41,-448.79 357.74,-411 348.73,-400.58 348.51,-390.23 357.74,-380 409.5,-322.58 627.13,-354.36 703.74,-344 706.62,-343.61 709.56,-343.2 712.52,-342.77"/>
<polygon fill="midnightblue" stroke="midnightblue" points="615.38,-464.74 625.46,-461.47 615.55,-457.74 615.38,-464.74"/>
</g>
<!-- Node23 -->
<g id="node23" class="node">
<title>Node23</title>
<g id="a_node23"><a xlink:href="Director_8h.html" target="_top" xlink:title="Director class for coordinating customer construction using builders and visitors.">
<polygon fill="white" stroke="black" points="1406.74,-252 1406.74,-271 1562.74,-271 1562.74,-252 1406.74,-252"/>
<text text-anchor="middle" x="1484.74" y="-259" font-family="Helvetica,sans-Serif" font-size="10.00">backend/customer/Director.h</text>
</a>
</g>
</g>
<!-- Node14&#45;&gt;Node23 -->
<g id="edge43" class="edge">
<title>Node14&#45;&gt;Node23</title>
<path fill="none" stroke="midnightblue" d="M792.18,-460.47C900.44,-457.57 1088.72,-447.18 1245.74,-411 1328.11,-392.02 1356.15,-394.76 1423.74,-344 1450.87,-323.62 1471.62,-287.97 1480.3,-271.41"/>
<polygon fill="midnightblue" stroke="midnightblue" points="791.87,-456.98 781.96,-460.73 792.05,-463.97 791.87,-456.98"/>
</g>
<!-- Node33 -->
<g id="node33" class="node">
<title>Node33</title>
<g id="a_node33"><a xlink:href="CustomerVisitor_8cpp.html" target="_top" xlink:title="Implements the CustomerVisitor base class functionality.">
<polygon fill="white" stroke="black" points="366.74,-380.5 366.74,-410.5 522.74,-410.5 522.74,-380.5 366.74,-380.5"/>
<text text-anchor="start" x="374.74" y="-398.5" font-family="Helvetica,sans-Serif" font-size="10.00">backend/customer/Customer</text>
<text text-anchor="middle" x="444.74" y="-387.5" font-family="Helvetica,sans-Serif" font-size="10.00">Visitor.cpp</text>
</a>
</g>
</g>
<!-- Node14&#45;&gt;Node33 -->
<g id="edge42" class="edge">
<title>Node14&#45;&gt;Node33</title>
<path fill="none" stroke="midnightblue" d="M637.93,-444.98C595.63,-434.37 541.25,-420.72 500.97,-410.61"/>
<polygon fill="midnightblue" stroke="midnightblue" points="637.31,-448.44 647.86,-447.48 639.01,-441.65 637.31,-448.44"/>
</g>
<!-- Node34 -->
<g id="node34" class="node">
<title>Node34</title>
<g id="a_node34"><a xlink:href="VisitEasyCustomer_8h.html" target="_top" xlink:title="Visitor for creating plant recommendations for easy&#45;maintenance customers.">
<polygon fill="white" stroke="black" points="540.74,-380.5 540.74,-410.5 694.74,-410.5 694.74,-380.5 540.74,-380.5"/>
<text text-anchor="start" x="548.74" y="-398.5" font-family="Helvetica,sans-Serif" font-size="10.00">backend/customer/VisitEasy</text>
<text text-anchor="middle" x="617.74" y="-387.5" font-family="Helvetica,sans-Serif" font-size="10.00">Customer.h</text>
</a>
</g>
</g>
<!-- Node14&#45;&gt;Node34 -->
<g id="edge44" class="edge">
<title>Node14&#45;&gt;Node34</title>
<path fill="none" stroke="midnightblue" d="M676.84,-441.17C663.69,-431.23 648.19,-419.51 636.36,-410.58"/>
<polygon fill="midnightblue" stroke="midnightblue" points="674.99,-444.16 685.08,-447.4 679.21,-438.57 674.99,-444.16"/>
</g>
<!-- Node35 -->
<g id="node35" class="node">
<title>Node35</title>
<g id="a_node35"><a xlink:href="VisitHighCustomer_8h.html" target="_top" xlink:title="Visitor for creating plant recommendations for customers preferring challenging plants.">
<polygon fill="white" stroke="black" points="713.24,-380.5 713.24,-410.5 866.24,-410.5 866.24,-380.5 713.24,-380.5"/>
<text text-anchor="start" x="721.24" y="-398.5" font-family="Helvetica,sans-Serif" font-size="10.00">backend/customer/VisitHigh</text>
<text text-anchor="middle" x="789.74" y="-387.5" font-family="Helvetica,sans-Serif" font-size="10.00">Customer.h</text>
</a>
</g>
</g>
<!-- Node14&#45;&gt;Node35 -->
<g id="edge45" class="edge">
<title>Node14&#45;&gt;Node35</title>
<path fill="none" stroke="midnightblue" d="M730.64,-441.17C743.79,-431.23 759.29,-419.51 771.11,-410.58"/>
<polygon fill="midnightblue" stroke="midnightblue" points="728.27,-438.57 722.4,-447.4 732.49,-444.16 728.27,-438.57"/>
</g>
<!-- Node36 -->
<g id="node36" class="node">
<title>Node36</title>
<g id="a_node36"><a xlink:href="VisitMediumCustomer_8h_source.html" target="_top" xlink:title=" ">
<polygon fill="white" stroke="black" points="884.74,-380.5 884.74,-410.5 1054.74,-410.5 1054.74,-380.5 884.74,-380.5"/>
<text text-anchor="start" x="892.74" y="-398.5" font-family="Helvetica,sans-Serif" font-size="10.00">backend/customer/VisitMedium</text>
<text text-anchor="middle" x="969.74" y="-387.5" font-family="Helvetica,sans-Serif" font-size="10.00">Customer.h</text>
</a>
</g>
</g>
<!-- Node14&#45;&gt;Node36 -->
<g id="edge46" class="edge">
<title>Node14&#45;&gt;Node36</title>
<path fill="none" stroke="midnightblue" d="M771.05,-445.05C814.54,-434.43 870.54,-420.74 911.99,-410.61"/>
<polygon fill="midnightblue" stroke="midnightblue" points="770.01,-441.7 761.13,-447.48 771.67,-448.5 770.01,-441.7"/>
</g>
<!-- Node15&#45;&gt;Node4 -->
<g id="edge40" class="edge">
<title>Node15&#45;&gt;Node4</title>
<path fill="none" stroke="midnightblue" d="M1096.07,-384.36C1085.34,-382.73 1074.22,-381.19 1063.74,-380 830.47,-353.5 766.96,-389.99 536.74,-344 451.85,-327.04 355.68,-288.28 315.26,-271.04"/>
<polygon fill="midnightblue" stroke="midnightblue" points="1095.79,-387.86 1106.21,-385.94 1096.86,-380.94 1095.79,-387.86"/>
</g>
<!-- Node16 -->
<g id="node16" class="node">
<title>Node16</title>
<g id="a_node16"><a xlink:href="AverageCustomer_8h.html" target="_top" xlink:title="Concrete customer class representing moderately experienced plant buyers.">
<polygon fill="white" stroke="black" points="1080.24,-313.5 1080.24,-343.5 1229.24,-343.5 1229.24,-313.5 1080.24,-313.5"/>
<text text-anchor="start" x="1088.24" y="-331.5" font-family="Helvetica,sans-Serif" font-size="10.00">backend/customer/Average</text>
<text text-anchor="middle" x="1154.74" y="-320.5" font-family="Helvetica,sans-Serif" font-size="10.00">Customer.h</text>
</a>
</g>
</g>
<!-- Node15&#45;&gt;Node16 -->
<g id="edge19" class="edge">
<title>Node15&#45;&gt;Node16</title>
<path fill="none" stroke="midnightblue" d="M1154.74,-375.41C1154.74,-365.22 1154.74,-352.9 1154.74,-343.59"/>
<polygon fill="midnightblue" stroke="midnightblue" points="1151.24,-375.73 1154.74,-385.73 1158.24,-375.73 1151.24,-375.73"/>
</g>
<!-- Node20 -->
<g id="node20" class="node">
<title>Node20</title>
<g id="a_node20"><a xlink:href="Customer_8cpp.html" target="_top" xlink:title="Implements the functionality defined in the Customer class.">
<polygon fill="white" stroke="black" points="886.74,-319 886.74,-338 1062.74,-338 1062.74,-319 886.74,-319"/>
<text text-anchor="middle" x="974.74" y="-326" font-family="Helvetica,sans-Serif" font-size="10.00">backend/customer/Customer.cpp</text>
</a>
</g>
</g>
<!-- Node15&#45;&gt;Node20 -->
<g id="edge23" class="edge">
<title>Node15&#45;&gt;Node20</title>
<path fill="none" stroke="midnightblue" d="M1121.33,-382.44C1085.62,-369.54 1029.91,-349.42 998.45,-338.06"/>
<polygon fill="midnightblue" stroke="midnightblue" points="1120.24,-385.76 1130.84,-385.87 1122.62,-379.18 1120.24,-385.76"/>
</g>
<!-- Node15&#45;&gt;Node21 -->
<g id="edge24" class="edge">
<title>Node15&#45;&gt;Node21</title>
<path fill="none" stroke="midnightblue" d="M1096.83,-384.16C1035.16,-373.15 937.22,-355.66 868.78,-343.44"/>
<polygon fill="midnightblue" stroke="midnightblue" points="1096.32,-387.62 1106.78,-385.94 1097.55,-380.73 1096.32,-387.62"/>
</g>
<!-- Node29 -->
<g id="node29" class="node">
<title>Node29</title>
<g id="a_node29"><a xlink:href="GreenFingerCustomer_8h.html" target="_top" xlink:title="Concrete customer class representing expert plant enthusiasts.">
<polygon fill="white" stroke="black" points="1246.74,-313.5 1246.74,-343.5 1414.74,-343.5 1414.74,-313.5 1246.74,-313.5"/>
<text text-anchor="start" x="1254.74" y="-331.5" font-family="Helvetica,sans-Serif" font-size="10.00">backend/customer/GreenFinger</text>
<text text-anchor="middle" x="1330.74" y="-320.5" font-family="Helvetica,sans-Serif" font-size="10.00">Customer.h</text>
</a>
</g>
</g>
<!-- Node15&#45;&gt;Node29 -->
<g id="edge34" class="edge">
<title>Node15&#45;&gt;Node29</title>
<path fill="none" stroke="midnightblue" d="M1187.65,-382.35C1217.48,-371.33 1261.44,-355.09 1292.76,-343.53"/>
<polygon fill="midnightblue" stroke="midnightblue" points="1186.28,-379.12 1178.11,-385.87 1188.7,-385.69 1186.28,-379.12"/>
</g>
<!-- Node31 -->
<g id="node31" class="node">
<title>Node31</title>
<g id="a_node31"><a xlink:href="IgnorantCustomer_8h.html" target="_top" xlink:title="Concrete customer class representing inexperienced plant buyers.">
<polygon fill="white" stroke="black" points="545.24,-313.5 545.24,-343.5 694.24,-343.5 694.24,-313.5 545.24,-313.5"/>
<text text-anchor="start" x="553.24" y="-331.5" font-family="Helvetica,sans-Serif" font-size="10.00">backend/customer/Ignorant</text>
<text text-anchor="middle" x="619.74" y="-320.5" font-family="Helvetica,sans-Serif" font-size="10.00">Customer.h</text>
</a>
</g>
</g>
<!-- Node15&#45;&gt;Node31 -->
<g id="edge37" class="edge">
<title>Node15&#45;&gt;Node31</title>
<path fill="none" stroke="midnightblue" d="M1094.6,-384.41C1084.32,-382.83 1073.73,-381.29 1063.74,-380 904.27,-359.34 863.07,-365.69 703.74,-344 700.66,-343.58 697.52,-343.13 694.35,-342.66"/>
<polygon fill="midnightblue" stroke="midnightblue" points="1094.33,-387.91 1104.75,-386 1095.41,-380.99 1094.33,-387.91"/>
</g>
<!-- Node17 -->
<g id="node17" class="node">
<title>Node17</title>
<g id="a_node17"><a xlink:href="AverageCustomer_8cpp.html" target="_top" xlink:title="Implements the functionality defined in the AverageCustomer class.">
<polygon fill="white" stroke="black" points="1054.24,-246.5 1054.24,-276.5 1203.24,-276.5 1203.24,-246.5 1054.24,-246.5"/>
<text text-anchor="start" x="1062.24" y="-264.5" font-family="Helvetica,sans-Serif" font-size="10.00">backend/customer/Average</text>
<text text-anchor="middle" x="1128.74" y="-253.5" font-family="Helvetica,sans-Serif" font-size="10.00">Customer.cpp</text>
</a>
</g>
</g>
<!-- Node16&#45;&gt;Node17 -->
<g id="edge20" class="edge">
<title>Node16&#45;&gt;Node17</title>
<path fill="none" stroke="midnightblue" d="M1145.34,-303.99C1141.66,-294.8 1137.57,-284.58 1134.37,-276.58"/>
<polygon fill="midnightblue" stroke="midnightblue" points="1142.13,-305.41 1149.1,-313.4 1148.63,-302.81 1142.13,-305.41"/>
</g>
<!-- Node18 -->
<g id="node18" class="node">
<title>Node18</title>
<g id="a_node18"><a xlink:href="AverageCustomerBuilder_8h.html" target="_top" xlink:title="Builder class for creating AverageCustomer objects with randomized dialogues.">
<polygon fill="white" stroke="black" points="887.24,-246.5 887.24,-276.5 1036.24,-276.5 1036.24,-246.5 887.24,-246.5"/>
<text text-anchor="start" x="895.24" y="-264.5" font-family="Helvetica,sans-Serif" font-size="10.00">backend/customer/Average</text>
<text text-anchor="middle" x="961.74" y="-253.5" font-family="Helvetica,sans-Serif" font-size="10.00">CustomerBuilder.h</text>
</a>
</g>
</g>
<!-- Node16&#45;&gt;Node18 -->
<g id="edge21" class="edge">
<title>Node16&#45;&gt;Node18</title>
<path fill="none" stroke="midnightblue" d="M1103.05,-310.09C1071.89,-299.6 1032.73,-286.41 1003.54,-276.58"/>
<polygon fill="midnightblue" stroke="midnightblue" points="1102.27,-313.52 1112.86,-313.4 1104.5,-306.89 1102.27,-313.52"/>
</g>
<!-- Node19 -->
<g id="node19" class="node">
<title>Node19</title>
<g id="a_node19"><a xlink:href="AverageCustomerBuilder_8cpp.html" target="_top" xlink:title="Implements the AverageCustomerBuilder class functionality.">
<polygon fill="white" stroke="black" points="887.24,-179.5 887.24,-209.5 1036.24,-209.5 1036.24,-179.5 887.24,-179.5"/>
<text text-anchor="start" x="895.24" y="-197.5" font-family="Helvetica,sans-Serif" font-size="10.00">backend/customer/Average</text>
<text text-anchor="middle" x="961.74" y="-186.5" font-family="Helvetica,sans-Serif" font-size="10.00">CustomerBuilder.cpp</text>
</a>
</g>
</g>
<!-- Node18&#45;&gt;Node19 -->
<g id="edge22" class="edge">
<title>Node18&#45;&gt;Node19</title>
<path fill="none" stroke="midnightblue" d="M961.74,-236.11C961.74,-227.15 961.74,-217.32 961.74,-209.58"/>
<polygon fill="midnightblue" stroke="midnightblue" points="958.24,-236.4 961.74,-246.4 965.24,-236.4 958.24,-236.4"/>
</g>
<!-- Node21&#45;&gt;Node4 -->
<g id="edge33" class="edge">
<title>Node21&#45;&gt;Node4</title>
<path fill="none" stroke="midnightblue" d="M702.58,-312.9C554.12,-292.99 514.19,-298.89 369.74,-277 358.74,-275.33 346.88,-273.17 335.96,-271.03"/>
<polygon fill="midnightblue" stroke="midnightblue" points="702.14,-316.37 712.52,-314.24 703.08,-309.43 702.14,-316.37"/>
</g>
<!-- Node21&#45;&gt;Node18 -->
<g id="edge25" class="edge">
<title>Node21&#45;&gt;Node18</title>
<path fill="none" stroke="midnightblue" d="M837.25,-309.82C864.74,-299.37 899.07,-286.32 924.71,-276.58"/>
<polygon fill="midnightblue" stroke="midnightblue" points="835.95,-306.57 827.84,-313.4 838.43,-313.11 835.95,-306.57"/>
</g>
<!-- Node22 -->
<g id="node22" class="node">
<title>Node22</title>
<g id="a_node22"><a xlink:href="CustomerBuilder_8cpp.html" target="_top" xlink:title="Implements the CustomerBuilder base class functionality.">
<polygon fill="white" stroke="black" points="712.74,-246.5 712.74,-276.5 868.74,-276.5 868.74,-246.5 712.74,-246.5"/>
<text text-anchor="start" x="720.74" y="-264.5" font-family="Helvetica,sans-Serif" font-size="10.00">backend/customer/Customer</text>
<text text-anchor="middle" x="790.74" y="-253.5" font-family="Helvetica,sans-Serif" font-size="10.00">Builder.cpp</text>
</a>
</g>
</g>
<!-- Node21&#45;&gt;Node22 -->
<g id="edge26" class="edge">
<title>Node21&#45;&gt;Node22</title>
<path fill="none" stroke="midnightblue" d="M790.74,-303.11C790.74,-294.15 790.74,-284.32 790.74,-276.58"/>
<polygon fill="midnightblue" stroke="midnightblue" points="787.24,-303.4 790.74,-313.4 794.24,-303.4 787.24,-303.4"/>
</g>
<!-- Node21&#45;&gt;Node23 -->
<g id="edge27" class="edge">
<title>Node21&#45;&gt;Node23</title>
<path fill="none" stroke="midnightblue" d="M878.98,-312.93C1109.54,-286.43 1170.92,-303.69 1397.74,-277 1411.12,-275.43 1425.58,-273.22 1438.8,-271"/>
<polygon fill="midnightblue" stroke="midnightblue" points="878.47,-309.47 868.94,-314.1 879.28,-316.42 878.47,-309.47"/>
</g>
<!-- Node25 -->
<g id="node25" class="node">
<title>Node25</title>
<g id="a_node25"><a xlink:href="GreenFingerCustomerBuilder_8h.html" target="_top" xlink:title="Builder class for creating GreenFingerCustomer objects with randomized dialogues.">
<polygon fill="white" stroke="black" points="1220.74,-246.5 1220.74,-276.5 1388.74,-276.5 1388.74,-246.5 1220.74,-246.5"/>
<text text-anchor="start" x="1228.74" y="-264.5" font-family="Helvetica,sans-Serif" font-size="10.00">backend/customer/GreenFinger</text>
<text text-anchor="middle" x="1304.74" y="-253.5" font-family="Helvetica,sans-Serif" font-size="10.00">CustomerBuilder.h</text>
</a>
</g>
</g>
<!-- Node21&#45;&gt;Node25 -->
<g id="edge29" class="edge">
<title>Node21&#45;&gt;Node25</title>
<path fill="none" stroke="midnightblue" d="M878.93,-312.89C1027.79,-292.84 1067.48,-296.24 1212.74,-277 1215.3,-276.66 1217.91,-276.31 1220.53,-275.94"/>
<polygon fill="midnightblue" stroke="midnightblue" points="878.4,-309.43 868.96,-314.24 879.34,-316.36 878.4,-309.43"/>
</g>
<!-- Node27 -->
<g id="node27" class="node">
<title>Node27</title>
<g id="a_node27"><a xlink:href="IgnorantCustomerBuilder_8h.html" target="_top" xlink:title="Builder class for creating IgnorantCustomer objects with randomized dialogues.">
<polygon fill="white" stroke="black" points="545.24,-246.5 545.24,-276.5 694.24,-276.5 694.24,-246.5 545.24,-246.5"/>
<text text-anchor="start" x="553.24" y="-264.5" font-family="Helvetica,sans-Serif" font-size="10.00">backend/customer/Ignorant</text>
<text text-anchor="middle" x="619.74" y="-253.5" font-family="Helvetica,sans-Serif" font-size="10.00">CustomerBuilder.h</text>
</a>
</g>
</g>
<!-- Node21&#45;&gt;Node27 -->
<g id="edge31" class="edge">
<title>Node21&#45;&gt;Node27</title>
<path fill="none" stroke="midnightblue" d="M744.22,-309.82C716.74,-299.37 682.41,-286.32 656.77,-276.58"/>
<polygon fill="midnightblue" stroke="midnightblue" points="743.04,-313.11 753.63,-313.4 745.53,-306.57 743.04,-313.11"/>
</g>
<!-- Node24 -->
<g id="node24" class="node">
<title>Node24</title>
<g id="a_node24"><a xlink:href="Director_8cpp.html" target="_top" xlink:title="Implements the Director class functionality.">
<polygon fill="white" stroke="black" points="1403.24,-185 1403.24,-204 1570.24,-204 1570.24,-185 1403.24,-185"/>
<text text-anchor="middle" x="1486.74" y="-192" font-family="Helvetica,sans-Serif" font-size="10.00">backend/customer/Director.cpp</text>
</a>
</g>
</g>
<!-- Node23&#45;&gt;Node24 -->
<g id="edge28" class="edge">
<title>Node23&#45;&gt;Node24</title>
<path fill="none" stroke="midnightblue" d="M1485.32,-241.54C1485.7,-229.17 1486.18,-213.62 1486.47,-204.13"/>
<polygon fill="midnightblue" stroke="midnightblue" points="1481.82,-241.63 1485.01,-251.73 1488.81,-241.85 1481.82,-241.63"/>
</g>
<!-- Node26 -->
<g id="node26" class="node">
<title>Node26</title>
<g id="a_node26"><a xlink:href="GreenFingerCustomerBuilder_8cpp.html" target="_top" xlink:title="Implements the GreenFingerCustomerBuilder class functionality.">
<polygon fill="white" stroke="black" points="1217.74,-179.5 1217.74,-209.5 1385.74,-209.5 1385.74,-179.5 1217.74,-179.5"/>
<text text-anchor="start" x="1225.74" y="-197.5" font-family="Helvetica,sans-Serif" font-size="10.00">backend/customer/GreenFinger</text>
<text text-anchor="middle" x="1301.74" y="-186.5" font-family="Helvetica,sans-Serif" font-size="10.00">CustomerBuilder.cpp</text>
</a>
</g>
</g>
<!-- Node25&#45;&gt;Node26 -->
<g id="edge30" class="edge">
<title>Node25&#45;&gt;Node26</title>
<path fill="none" stroke="midnightblue" d="M1303.63,-236.4C1303.21,-227.37 1302.75,-217.41 1302.39,-209.58"/>
<polygon fill="midnightblue" stroke="midnightblue" points="1300.13,-236.57 1304.09,-246.4 1307.12,-236.25 1300.13,-236.57"/>
</g>
<!-- Node28 -->
<g id="node28" class="node">
<title>Node28</title>
<g id="a_node28"><a xlink:href="IgnorantCustomerBuilder_8cpp.html" target="_top" xlink:title="Implements the IgnorantCustomerBuilder class functionality.">
<polygon fill="white" stroke="black" points="545.24,-179.5 545.24,-209.5 694.24,-209.5 694.24,-179.5 545.24,-179.5"/>
<text text-anchor="start" x="553.24" y="-197.5" font-family="Helvetica,sans-Serif" font-size="10.00">backend/customer/Ignorant</text>
<text text-anchor="middle" x="619.74" y="-186.5" font-family="Helvetica,sans-Serif" font-size="10.00">CustomerBuilder.cpp</text>
</a>
</g>
</g>
<!-- Node27&#45;&gt;Node28 -->
<g id="edge32" class="edge">
<title>Node27&#45;&gt;Node28</title>
<path fill="none" stroke="midnightblue" d="M619.74,-236.11C619.74,-227.15 619.74,-217.32 619.74,-209.58"/>
<polygon fill="midnightblue" stroke="midnightblue" points="616.24,-236.4 619.74,-246.4 623.24,-236.4 616.24,-236.4"/>
</g>
<!-- Node29&#45;&gt;Node25 -->
<g id="edge36" class="edge">
<title>Node29&#45;&gt;Node25</title>
<path fill="none" stroke="midnightblue" d="M1321.34,-303.99C1317.66,-294.8 1313.57,-284.58 1310.37,-276.58"/>
<polygon fill="midnightblue" stroke="midnightblue" points="1318.13,-305.41 1325.1,-313.4 1324.63,-302.81 1318.13,-305.41"/>
</g>
<!-- Node30 -->
<g id="node30" class="node">
<title>Node30</title>
<g id="a_node30"><a xlink:href="GreenFingerCustomer_8cpp.html" target="_top" xlink:title="Implements the functionality defined in the GreenFingerCustomer class.">
<polygon fill="white" stroke="black" points="1580.74,-246.5 1580.74,-276.5 1748.74,-276.5 1748.74,-246.5 1580.74,-246.5"/>
<text text-anchor="start" x="1588.74" y="-264.5" font-family="Helvetica,sans-Serif" font-size="10.00">backend/customer/GreenFinger</text>
<text text-anchor="middle" x="1664.74" y="-253.5" font-family="Helvetica,sans-Serif" font-size="10.00">Customer.cpp</text>
</a>
</g>
</g>
<!-- Node29&#45;&gt;Node30 -->
<g id="edge35" class="edge">
<title>Node29&#45;&gt;Node30</title>
<path fill="none" stroke="midnightblue" d="M1412.87,-311.52C1467.9,-300.81 1539.67,-286.84 1592.52,-276.55"/>
<polygon fill="midnightblue" stroke="midnightblue" points="1411.95,-308.13 1402.8,-313.48 1413.29,-315 1411.95,-308.13"/>
</g>
<!-- Node31&#45;&gt;Node27 -->
<g id="edge39" class="edge">
<title>Node31&#45;&gt;Node27</title>
<path fill="none" stroke="midnightblue" d="M619.74,-303.11C619.74,-294.15 619.74,-284.32 619.74,-276.58"/>
<polygon fill="midnightblue" stroke="midnightblue" points="616.24,-303.4 619.74,-313.4 623.24,-303.4 616.24,-303.4"/>
</g>
<!-- Node32 -->
<g id="node32" class="node">
<title>Node32</title>
<g id="a_node32"><a xlink:href="IgnorantCustomer_8cpp.html" target="_top" xlink:title="Implements the functionality defined in the IgnorantCustomer class.">
<polygon fill="white" stroke="black" points="378.24,-246.5 378.24,-276.5 527.24,-276.5 527.24,-246.5 378.24,-246.5"/>
<text text-anchor="start" x="386.24" y="-264.5" font-family="Helvetica,sans-Serif" font-size="10.00">backend/customer/Ignorant</text>
<text text-anchor="middle" x="452.74" y="-253.5" font-family="Helvetica,sans-Serif" font-size="10.00">Customer.cpp</text>
</a>
</g>
</g>
<!-- Node31&#45;&gt;Node32 -->
<g id="edge38" class="edge">
<title>Node31&#45;&gt;Node32</title>
<path fill="none" stroke="midnightblue" d="M573.96,-309.68C547.18,-299.26 513.84,-286.28 488.9,-276.58"/>
<polygon fill="midnightblue" stroke="midnightblue" points="572.91,-313.03 583.5,-313.4 575.45,-306.51 572.91,-313.03"/>
</g>
<!-- Node37&#45;&gt;Node3 -->
<g id="edge48" class="edge">
<title>Node37&#45;&gt;Node3</title>
<path fill="none" stroke="midnightblue" d="M280.42,-438.87C274.05,-429.46 266.86,-418.83 261.27,-410.58"/>
<polygon fill="midnightblue" stroke="midnightblue" points="277.69,-441.08 286.19,-447.4 283.48,-437.15 277.69,-441.08"/>
</g>
</g>
</svg>
        <g id="navigator" transform="translate(0 0)" fill="#404254">
                <rect fill="#f2f5e9" fill-opacity="0.5" stroke="#606060" stroke-width=".5" x="0" y="0" width="60" height="60"/>
                <use id="zoomplus" xlink:href="#zoomPlus" x="17" y="9" onmousedown="handleZoom(evt,'in')"/>
                <use id="zoomminus" xlink:href="#zoomMin" x="42" y="9" onmousedown="handleZoom(evt,'out')"/>
                <use id="reset" xlink:href="#resetDef" x="30" y="36" onmousedown="handleReset()"/>
                <g id="arrowUp" xlink:href="#dirArrow" transform="translate(30 24)" onmousedown="handlePan(0,-1)">
                  <use xlink:href="#rim" fill="#404040">
                        <set attributeName="fill" to="#808080" begin="arrowUp.mouseover" end="arrowUp.mouseout"/>
                  </use>
                  <path fill="none" stroke="white" stroke-width="1.5" d="M0,-3.0v7 M-2.5,-0.5L0,-3.0L2.5,-0.5"/>
                </g>
                <g id="arrowRight" xlink:href="#dirArrow" transform="rotate(90) translate(36 -43)" onmousedown="handlePan(1,0)">
                  <use xlink:href="#rim" fill="#404040">
                        <set attributeName="fill" to="#808080" begin="arrowRight.mouseover" end="arrowRight.mouseout"/>
                  </use>
                  <path fill="none" stroke="white" stroke-width="1.5" d="M0,-3.0v7 M-2.5,-0.5L0,-3.0L2.5,-0.5"/>
                </g>
                <g id="arrowDown" xlink:href="#dirArrow" transform="rotate(180) translate(-30 -48)" onmousedown="handlePan(0,1)">
                  <use xlink:href="#rim" fill="#404040">
                        <set attributeName="fill" to="#808080" begin="arrowDown.mouseover" end="arrowDown.mouseout"/>
                  </use>
                  <path fill="none" stroke="white" stroke-width="1.5" d="M0,-3.0v7 M-2.5,-0.5L0,-3.0L2.5,-0.5"/>
                </g>
                <g id="arrowLeft" xlink:href="#dirArrow" transform="rotate(270) translate(-36 17)" onmousedown="handlePan(-1,0)">
                  <use xlink:href="#rim" fill="#404040">
                        <set attributeName="fill" to="#808080" begin="arrowLeft.mouseover" end="arrowLeft.mouseout"/>
                  </use>
                  <path fill="none" stroke="white" stroke-width="1.5" d="M0,-3.0v7 M-2.5,-0.5L0,-3.0L2.5,-0.5"/>
                </g>
        </g>
        <svg viewBox="0 0 15 15" width="100%" height="30px" preserveAspectRatio="xMaxYMin meet">
         <g id="arrow_out" transform="scale(0.3 0.3)">
          <a xlink:href="TransactionMem_8h__dep__incl_org.svg" target="_base">
           <rect id="button" ry="5" rx="5" y="6" x="6" height="38" width="38"
                fill="#f2f5e9" fill-opacity="0.5" stroke="#606060" stroke-width="1.0"/>
           <path id="arrow"
             d="M 11.500037,31.436501 C 11.940474,20.09759 22.043105,11.32322 32.158766,21.979434 L 37.068811,17.246167 C 37.068811,17.246167 37.088388,32 37.088388,32 L 22.160133,31.978069 C 22.160133,31.978069 26.997745,27.140456 26.997745,27.140456 C 18.528582,18.264221 13.291696,25.230495 11.500037,31.436501 z"
             style="fill:#404040;"/>
          </a>
         </g>
        </svg>
</svg>
