<?xml version="1.0" encoding="UTF-8" standalone="no"?>
<!DOCTYPE svg PUBLIC "-//W3C//DTD SVG 1.1//EN"
 "http://www.w3.org/Graphics/SVG/1.1/DTD/svg11.dtd">
<!-- Generated by graphviz version 2.43.0 (0)
 -->
<!-- Title: backend/game/Transaction.h Pages: 1 -->
<svg width="1684pt" height="263pt"
 viewBox="0.00 0.00 1683.92 263.00" xmlns="http://www.w3.org/2000/svg" xmlns:xlink="http://www.w3.org/1999/xlink">
<g id="graph0" class="graph" transform="scale(1 1) rotate(0) translate(4 259)">
<title>backend/game/Transaction.h</title>
<polygon fill="white" stroke="transparent" points="-4,4 -4,-259 1679.92,-259 1679.92,4 -4,4"/>
<!-- Node1 -->
<g id="node1" class="node">
<title>Node1</title>
<g id="a_node1"><a xlink:title="Represents a financial transaction in the system.">
<polygon fill="#bfbfbf" stroke="black" points="1401.33,-235.5 1401.33,-254.5 1556.33,-254.5 1556.33,-235.5 1401.33,-235.5"/>
<text text-anchor="middle" x="1478.83" y="-242.5" font-family="Helvetica,sans-Serif" font-size="10.00">backend/game/Transaction.h</text>
</a>
</g>
</g>
<!-- Node2 -->
<g id="node2" class="node">
<title>Node2</title>
<g id="a_node2"><a xlink:href="TransactionStrategy_8h.html" target="_top" xlink:title="Abstract base class for transaction strategies.">
<polygon fill="white" stroke="black" points="1490.33,-123.5 1490.33,-142.5 1611.33,-142.5 1611.33,-123.5 1490.33,-123.5"/>
<text text-anchor="middle" x="1550.83" y="-130.5" font-family="Helvetica,sans-Serif" font-size="10.00">TransactionStrategy.h</text>
</a>
</g>
</g>
<!-- Node1&#45;&gt;Node2 -->
<g id="edge1" class="edge">
<title>Node1&#45;&gt;Node2</title>
<path fill="none" stroke="midnightblue" d="M1502.79,-235.5C1518.87,-228.41 1538.87,-216.6 1548.83,-199 1556.74,-185.03 1556.48,-166.53 1554.69,-152.84"/>
<polygon fill="midnightblue" stroke="midnightblue" points="1558.09,-151.95 1552.96,-142.67 1551.18,-153.12 1558.09,-151.95"/>
</g>
<!-- Node3 -->
<g id="node3" class="node">
<title>Node3</title>
<g id="a_node3"><a xlink:title=" ">
<polygon fill="white" stroke="#bfbfbf" points="1363.83,-6 1363.83,-25 1407.83,-25 1407.83,-6 1363.83,-6"/>
<text text-anchor="middle" x="1385.83" y="-13" font-family="Helvetica,sans-Serif" font-size="10.00">string</text>
</a>
</g>
</g>
<!-- Node1&#45;&gt;Node3 -->
<g id="edge41" class="edge">
<title>Node1&#45;&gt;Node3</title>
<path fill="none" stroke="midnightblue" d="M1450.99,-235.45C1433.51,-228.54 1412.21,-216.96 1400.83,-199 1368.13,-147.39 1376.08,-70.4 1382.07,-35.24"/>
<polygon fill="midnightblue" stroke="midnightblue" points="1385.52,-35.85 1383.89,-25.38 1378.63,-34.57 1385.52,-35.85"/>
</g>
<!-- Node4 -->
<g id="node4" class="node">
<title>Node4</title>
<g id="a_node4"><a xlink:href="Sale_8h.html" target="_top" xlink:title="Transaction strategy for sales operations.">
<polygon fill="white" stroke="black" points="1492.33,-179.5 1492.33,-198.5 1539.33,-198.5 1539.33,-179.5 1492.33,-179.5"/>
<text text-anchor="middle" x="1515.83" y="-186.5" font-family="Helvetica,sans-Serif" font-size="10.00">Sale.h</text>
</a>
</g>
</g>
<!-- Node1&#45;&gt;Node4 -->
<g id="edge3" class="edge">
<title>Node1&#45;&gt;Node4</title>
<path fill="none" stroke="midnightblue" d="M1484.94,-235.08C1490.11,-227.53 1497.68,-216.49 1504.03,-207.23"/>
<polygon fill="midnightblue" stroke="midnightblue" points="1507.07,-208.98 1509.84,-198.75 1501.3,-205.02 1507.07,-208.98"/>
</g>
<!-- Node5 -->
<g id="node5" class="node">
<title>Node5</title>
<g id="a_node5"><a xlink:href="Return_8h.html" target="_top" xlink:title="Transaction strategy for return operations.">
<polygon fill="white" stroke="black" points="1595.83,-179.5 1595.83,-198.5 1653.83,-198.5 1653.83,-179.5 1595.83,-179.5"/>
<text text-anchor="middle" x="1624.83" y="-186.5" font-family="Helvetica,sans-Serif" font-size="10.00">Return.h</text>
</a>
</g>
</g>
<!-- Node1&#45;&gt;Node5 -->
<g id="edge6" class="edge">
<title>Node1&#45;&gt;Node5</title>
<path fill="none" stroke="midnightblue" d="M1501.97,-235.44C1526.31,-226.44 1564.84,-212.19 1592.26,-202.05"/>
<polygon fill="midnightblue" stroke="midnightblue" points="1593.64,-205.27 1601.81,-198.52 1591.21,-198.7 1593.64,-205.27"/>
</g>
<!-- Node6 -->
<g id="node6" class="node">
<title>Node6</title>
<g id="a_node6"><a xlink:href="Restock_8h.html" target="_top" xlink:title="Transaction strategy for restock operations.">
<polygon fill="white" stroke="black" points="1409.33,-179.5 1409.33,-198.5 1474.33,-198.5 1474.33,-179.5 1409.33,-179.5"/>
<text text-anchor="middle" x="1441.83" y="-186.5" font-family="Helvetica,sans-Serif" font-size="10.00">Restock.h</text>
</a>
</g>
</g>
<!-- Node1&#45;&gt;Node6 -->
<g id="edge9" class="edge">
<title>Node1&#45;&gt;Node6</title>
<path fill="none" stroke="midnightblue" d="M1472.72,-235.08C1467.55,-227.53 1459.99,-216.49 1453.64,-207.23"/>
<polygon fill="midnightblue" stroke="midnightblue" points="1456.37,-205.02 1447.83,-198.75 1450.59,-208.98 1456.37,-205.02"/>
</g>
<!-- Node7 -->
<g id="node7" class="node">
<title>Node7</title>
<g id="a_node7"><a xlink:href="TransactionMem_8h.html" target="_top" xlink:title=" ">
<polygon fill="white" stroke="black" points="1166.83,-179.5 1166.83,-198.5 1272.83,-198.5 1272.83,-179.5 1166.83,-179.5"/>
<text text-anchor="middle" x="1219.83" y="-186.5" font-family="Helvetica,sans-Serif" font-size="10.00">TransactionMem.h</text>
</a>
</g>
</g>
<!-- Node1&#45;&gt;Node7 -->
<g id="edge12" class="edge">
<title>Node1&#45;&gt;Node7</title>
<path fill="none" stroke="midnightblue" d="M1437.79,-235.44C1392.52,-226 1319.61,-210.8 1270.73,-200.61"/>
<polygon fill="midnightblue" stroke="midnightblue" points="1271.18,-197.13 1260.68,-198.52 1269.75,-203.98 1271.18,-197.13"/>
</g>
<!-- Node24 -->
<g id="node24" class="node">
<title>Node24</title>
<g id="a_node24"><a xlink:title=" ">
<polygon fill="white" stroke="#bfbfbf" points="1537.33,-6 1537.33,-25 1602.33,-25 1602.33,-6 1537.33,-6"/>
<text text-anchor="middle" x="1569.83" y="-13" font-family="Helvetica,sans-Serif" font-size="10.00">stdexcept</text>
</a>
</g>
</g>
<!-- Node1&#45;&gt;Node24 -->
<g id="edge42" class="edge">
<title>Node1&#45;&gt;Node24</title>
<path fill="none" stroke="midnightblue" d="M1551.64,-235.43C1596.83,-228.45 1648.87,-216.78 1662.83,-199 1706.31,-143.61 1626.88,-64.71 1588.67,-31.82"/>
<polygon fill="midnightblue" stroke="midnightblue" points="1590.68,-28.94 1580.78,-25.17 1586.18,-34.29 1590.68,-28.94"/>
</g>
<!-- Node27 -->
<g id="node27" class="node">
<title>Node27</title>
<g id="a_node27"><a xlink:href="Ledger_8h.html" target="_top" xlink:title="Financial ledger for tracking game balance.">
<polygon fill="white" stroke="black" points="1284.83,-123.5 1284.83,-142.5 1342.83,-142.5 1342.83,-123.5 1284.83,-123.5"/>
<text text-anchor="middle" x="1313.83" y="-130.5" font-family="Helvetica,sans-Serif" font-size="10.00">Ledger.h</text>
</a>
</g>
</g>
<!-- Node1&#45;&gt;Node27 -->
<g id="edge39" class="edge">
<title>Node1&#45;&gt;Node27</title>
<path fill="none" stroke="midnightblue" d="M1445.24,-235.37C1421.74,-228.22 1390.46,-216.39 1366.83,-199 1349.13,-185.97 1333.88,-165.71 1324.34,-151.28"/>
<polygon fill="midnightblue" stroke="midnightblue" points="1327.25,-149.33 1318.93,-142.76 1321.34,-153.08 1327.25,-149.33"/>
</g>
<!-- Node2&#45;&gt;Node3 -->
<g id="edge2" class="edge">
<title>Node2&#45;&gt;Node3</title>
<path fill="none" stroke="midnightblue" d="M1542.09,-123.37C1528.57,-110.28 1501.49,-85.03 1475.83,-67 1455.49,-52.7 1430.75,-39.06 1412.36,-29.57"/>
<polygon fill="midnightblue" stroke="midnightblue" points="1413.88,-26.41 1403.38,-25 1410.7,-32.65 1413.88,-26.41"/>
</g>
<!-- Node4&#45;&gt;Node2 -->
<g id="edge4" class="edge">
<title>Node4&#45;&gt;Node2</title>
<path fill="none" stroke="midnightblue" d="M1521.61,-179.08C1526.5,-171.53 1533.66,-160.49 1539.66,-151.23"/>
<polygon fill="midnightblue" stroke="midnightblue" points="1542.66,-153.05 1545.16,-142.75 1536.78,-149.24 1542.66,-153.05"/>
</g>
<!-- Node4&#45;&gt;Node3 -->
<g id="edge5" class="edge">
<title>Node4&#45;&gt;Node3</title>
<path fill="none" stroke="midnightblue" d="M1509.21,-179.26C1488.6,-152.08 1425.41,-68.71 1398.34,-33.01"/>
<polygon fill="midnightblue" stroke="midnightblue" points="1401.12,-30.87 1392.29,-25.02 1395.54,-35.1 1401.12,-30.87"/>
</g>
<!-- Node5&#45;&gt;Node2 -->
<g id="edge7" class="edge">
<title>Node5&#45;&gt;Node2</title>
<path fill="none" stroke="midnightblue" d="M1612.94,-179.32C1601.68,-171.11 1584.55,-158.6 1571.12,-148.81"/>
<polygon fill="midnightblue" stroke="midnightblue" points="1573.08,-145.9 1562.94,-142.83 1568.95,-151.56 1573.08,-145.9"/>
</g>
<!-- Node5&#45;&gt;Node3 -->
<g id="edge8" class="edge">
<title>Node5&#45;&gt;Node3</title>
<path fill="none" stroke="midnightblue" d="M1626.92,-179.11C1629.53,-165.7 1632.39,-140.03 1620.83,-123 1574.01,-54 1471,-29.03 1418.29,-20.55"/>
<polygon fill="midnightblue" stroke="midnightblue" points="1418.56,-17.05 1408.15,-19.02 1417.52,-23.97 1418.56,-17.05"/>
</g>
<!-- Node6&#45;&gt;Node2 -->
<g id="edge10" class="edge">
<title>Node6&#45;&gt;Node2</title>
<path fill="none" stroke="midnightblue" d="M1459.35,-179.32C1476.9,-170.62 1504.16,-157.12 1524.36,-147.11"/>
<polygon fill="midnightblue" stroke="midnightblue" points="1525.96,-150.23 1533.36,-142.65 1522.85,-143.96 1525.96,-150.23"/>
</g>
<!-- Node6&#45;&gt;Node3 -->
<g id="edge11" class="edge">
<title>Node6&#45;&gt;Node3</title>
<path fill="none" stroke="midnightblue" d="M1438.98,-179.26C1430.25,-152.54 1403.8,-71.52 1391.83,-34.86"/>
<polygon fill="midnightblue" stroke="midnightblue" points="1395.05,-33.44 1388.61,-25.02 1388.39,-35.61 1395.05,-33.44"/>
</g>
<!-- Node7&#45;&gt;Node3 -->
<g id="edge38" class="edge">
<title>Node7&#45;&gt;Node3</title>
<path fill="none" stroke="midnightblue" d="M1218.46,-179.48C1215.49,-157.9 1210.82,-100.4 1238.83,-67 1267.23,-33.14 1319.46,-21.93 1353.4,-18.26"/>
<polygon fill="midnightblue" stroke="midnightblue" points="1354.09,-21.71 1363.73,-17.31 1353.45,-14.74 1354.09,-21.71"/>
</g>
<!-- Node8 -->
<g id="node8" class="node">
<title>Node8</title>
<g id="a_node8"><a xlink:href="Plant_8h.html" target="_top" xlink:title="Defines the abstract base class for all Plant objects used in the system.">
<polygon fill="white" stroke="black" points="574.83,-123.5 574.83,-142.5 624.83,-142.5 624.83,-123.5 574.83,-123.5"/>
<text text-anchor="middle" x="599.83" y="-130.5" font-family="Helvetica,sans-Serif" font-size="10.00">Plant.h</text>
</a>
</g>
</g>
<!-- Node7&#45;&gt;Node8 -->
<g id="edge13" class="edge">
<title>Node7&#45;&gt;Node8</title>
<path fill="none" stroke="midnightblue" d="M1166.7,-183.37C1043.2,-172.62 739.4,-146.16 635.41,-137.1"/>
<polygon fill="midnightblue" stroke="midnightblue" points="635.41,-133.59 625.14,-136.2 634.8,-140.56 635.41,-133.59"/>
</g>
<!-- Node8&#45;&gt;Node3 -->
<g id="edge14" class="edge">
<title>Node8&#45;&gt;Node3</title>
<path fill="none" stroke="midnightblue" d="M624.88,-131.18C720.03,-127.87 1058.89,-114.38 1162.83,-87 1183.21,-81.63 1186.07,-74.32 1205.83,-67 1256.39,-48.29 1317.12,-32.6 1353.54,-23.89"/>
<polygon fill="midnightblue" stroke="midnightblue" points="1354.65,-27.22 1363.58,-21.51 1353.04,-20.41 1354.65,-27.22"/>
</g>
<!-- Node9 -->
<g id="node9" class="node">
<title>Node9</title>
<g id="a_node9"><a xlink:title=" ">
<polygon fill="white" stroke="#bfbfbf" points="533.83,-67.5 533.83,-86.5 571.83,-86.5 571.83,-67.5 533.83,-67.5"/>
<text text-anchor="middle" x="552.83" y="-74.5" font-family="Helvetica,sans-Serif" font-size="10.00">map</text>
</a>
</g>
</g>
<!-- Node8&#45;&gt;Node9 -->
<g id="edge15" class="edge">
<title>Node8&#45;&gt;Node9</title>
<path fill="none" stroke="midnightblue" d="M592.07,-123.08C585.3,-115.3 575.29,-103.8 567.08,-94.37"/>
<polygon fill="midnightblue" stroke="midnightblue" points="569.65,-92 560.45,-86.75 564.37,-96.59 569.65,-92"/>
</g>
<!-- Node10 -->
<g id="node10" class="node">
<title>Node10</title>
<g id="a_node10"><a xlink:title=" ">
<polygon fill="white" stroke="#bfbfbf" points="628.33,-67.5 628.33,-86.5 675.33,-86.5 675.33,-67.5 628.33,-67.5"/>
<text text-anchor="middle" x="651.83" y="-74.5" font-family="Helvetica,sans-Serif" font-size="10.00">vector</text>
</a>
</g>
</g>
<!-- Node8&#45;&gt;Node10 -->
<g id="edge16" class="edge">
<title>Node8&#45;&gt;Node10</title>
<path fill="none" stroke="midnightblue" d="M608.42,-123.08C615.99,-115.22 627.21,-103.57 636.35,-94.08"/>
<polygon fill="midnightblue" stroke="midnightblue" points="638.99,-96.38 643.41,-86.75 633.95,-91.53 638.99,-96.38"/>
</g>
<!-- Node11 -->
<g id="node11" class="node">
<title>Node11</title>
<g id="a_node11"><a xlink:title=" ">
<polygon fill="white" stroke="#bfbfbf" points="693.83,-67.5 693.83,-86.5 757.83,-86.5 757.83,-67.5 693.83,-67.5"/>
<text text-anchor="middle" x="725.83" y="-74.5" font-family="Helvetica,sans-Serif" font-size="10.00">algorithm</text>
</a>
</g>
</g>
<!-- Node8&#45;&gt;Node11 -->
<g id="edge17" class="edge">
<title>Node8&#45;&gt;Node11</title>
<path fill="none" stroke="midnightblue" d="M619.8,-123.44C640.44,-114.6 672.89,-100.69 696.46,-90.59"/>
<polygon fill="midnightblue" stroke="midnightblue" points="698.15,-93.67 705.96,-86.52 695.39,-87.24 698.15,-93.67"/>
</g>
<!-- Node12 -->
<g id="node12" class="node">
<title>Node12</title>
<g id="a_node12"><a xlink:title=" ">
<polygon fill="white" stroke="#bfbfbf" points="569.83,-6 569.83,-25 629.83,-25 629.83,-6 569.83,-6"/>
<text text-anchor="middle" x="599.83" y="-13" font-family="Helvetica,sans-Serif" font-size="10.00">iostream</text>
</a>
</g>
</g>
<!-- Node8&#45;&gt;Node12 -->
<g id="edge18" class="edge">
<title>Node8&#45;&gt;Node12</title>
<path fill="none" stroke="midnightblue" d="M599.83,-123.32C599.83,-104.76 599.83,-60.84 599.83,-35.47"/>
<polygon fill="midnightblue" stroke="midnightblue" points="603.33,-35.28 599.83,-25.28 596.33,-35.28 603.33,-35.28"/>
</g>
<!-- Node13 -->
<g id="node13" class="node">
<title>Node13</title>
<g id="a_node13"><a xlink:title=" ">
<polygon fill="white" stroke="#bfbfbf" points="776.33,-67.5 776.33,-86.5 889.33,-86.5 889.33,-67.5 776.33,-67.5"/>
<text text-anchor="middle" x="832.83" y="-74.5" font-family="Helvetica,sans-Serif" font-size="10.00">boost/uuid/uuid.hpp</text>
</a>
</g>
</g>
<!-- Node8&#45;&gt;Node13 -->
<g id="edge19" class="edge">
<title>Node8&#45;&gt;Node13</title>
<path fill="none" stroke="midnightblue" d="M625.21,-126.12C663.75,-117.19 737.66,-100.06 786.1,-88.83"/>
<polygon fill="midnightblue" stroke="midnightblue" points="787.08,-92.2 796.03,-86.53 785.5,-85.38 787.08,-92.2"/>
</g>
<!-- Node14 -->
<g id="node14" class="node">
<title>Node14</title>
<g id="a_node14"><a xlink:title=" ">
<polygon fill="white" stroke="#bfbfbf" points="907.83,-67.5 907.83,-86.5 1077.83,-86.5 1077.83,-67.5 907.83,-67.5"/>
<text text-anchor="middle" x="992.83" y="-74.5" font-family="Helvetica,sans-Serif" font-size="10.00">boost/uuid/uuid_generators.hpp</text>
</a>
</g>
</g>
<!-- Node8&#45;&gt;Node14 -->
<g id="edge20" class="edge">
<title>Node8&#45;&gt;Node14</title>
<path fill="none" stroke="midnightblue" d="M625.01,-128.54C683.74,-120.47 831.54,-100.16 920.89,-87.88"/>
<polygon fill="midnightblue" stroke="midnightblue" points="921.52,-91.33 930.95,-86.5 920.57,-84.4 921.52,-91.33"/>
</g>
<!-- Node15 -->
<g id="node15" class="node">
<title>Node15</title>
<g id="a_node15"><a xlink:title=" ">
<polygon fill="white" stroke="#bfbfbf" points="16.33,-67.5 16.33,-86.5 143.33,-86.5 143.33,-67.5 16.33,-67.5"/>
<text text-anchor="middle" x="79.83" y="-74.5" font-family="Helvetica,sans-Serif" font-size="10.00">boost/uuid/uuid_io.hpp</text>
</a>
</g>
</g>
<!-- Node8&#45;&gt;Node15 -->
<g id="edge21" class="edge">
<title>Node8&#45;&gt;Node15</title>
<path fill="none" stroke="midnightblue" d="M574.61,-129.66C507.84,-123.42 320.78,-105.68 153.5,-87.05"/>
<polygon fill="midnightblue" stroke="midnightblue" points="153.85,-83.57 143.52,-85.94 153.07,-90.53 153.85,-83.57"/>
</g>
<!-- Node16 -->
<g id="node16" class="node">
<title>Node16</title>
<g id="a_node16"><a xlink:title=" ">
<polygon fill="white" stroke="#bfbfbf" points="1247.83,-67.5 1247.83,-86.5 1357.83,-86.5 1357.83,-67.5 1247.83,-67.5"/>
<text text-anchor="middle" x="1302.83" y="-74.5" font-family="Helvetica,sans-Serif" font-size="10.00">nlohmann/json.hpp</text>
</a>
</g>
</g>
<!-- Node8&#45;&gt;Node16 -->
<g id="edge22" class="edge">
<title>Node8&#45;&gt;Node16</title>
<path fill="none" stroke="midnightblue" d="M625.11,-130.17C707.35,-124.2 974.73,-104.65 1195.83,-87 1209.23,-85.93 1223.58,-84.75 1237.27,-83.6"/>
<polygon fill="midnightblue" stroke="midnightblue" points="1237.91,-87.06 1247.58,-82.74 1237.32,-80.09 1237.91,-87.06"/>
</g>
<!-- Node17 -->
<g id="node17" class="node">
<title>Node17</title>
<g id="a_node17"><a xlink:title=" ">
<polygon fill="white" stroke="#bfbfbf" points="161.83,-67.5 161.83,-86.5 209.83,-86.5 209.83,-67.5 161.83,-67.5"/>
<text text-anchor="middle" x="185.83" y="-74.5" font-family="Helvetica,sans-Serif" font-size="10.00">thread</text>
</a>
</g>
</g>
<!-- Node8&#45;&gt;Node17 -->
<g id="edge23" class="edge">
<title>Node8&#45;&gt;Node17</title>
<path fill="none" stroke="midnightblue" d="M574.67,-130.33C514.8,-126.08 359.09,-113.4 219.88,-86.93"/>
<polygon fill="midnightblue" stroke="midnightblue" points="220.37,-83.46 209.89,-85 219.04,-90.34 220.37,-83.46"/>
</g>
<!-- Node18 -->
<g id="node18" class="node">
<title>Node18</title>
<g id="a_node18"><a xlink:title=" ">
<polygon fill="white" stroke="#bfbfbf" points="227.83,-67.5 227.83,-86.5 277.83,-86.5 277.83,-67.5 227.83,-67.5"/>
<text text-anchor="middle" x="252.83" y="-74.5" font-family="Helvetica,sans-Serif" font-size="10.00">atomic</text>
</a>
</g>
</g>
<!-- Node8&#45;&gt;Node18 -->
<g id="edge24" class="edge">
<title>Node8&#45;&gt;Node18</title>
<path fill="none" stroke="midnightblue" d="M574.51,-129.37C522.6,-123.76 400.26,-109.44 288.13,-87.06"/>
<polygon fill="midnightblue" stroke="midnightblue" points="288.5,-83.56 278.01,-85.01 287.11,-90.43 288.5,-83.56"/>
</g>
<!-- Node19 -->
<g id="node19" class="node">
<title>Node19</title>
<g id="a_node19"><a xlink:href="GreenSock_8h.html" target="_top" xlink:title=" ">
<polygon fill="white" stroke="black" points="295.83,-67.5 295.83,-86.5 373.83,-86.5 373.83,-67.5 295.83,-67.5"/>
<text text-anchor="middle" x="334.83" y="-74.5" font-family="Helvetica,sans-Serif" font-size="10.00">GreenSock.h</text>
</a>
</g>
</g>
<!-- Node8&#45;&gt;Node19 -->
<g id="edge25" class="edge">
<title>Node8&#45;&gt;Node19</title>
<path fill="none" stroke="midnightblue" d="M574.42,-126.82C530.76,-117.93 440.77,-99.59 384.36,-88.09"/>
<polygon fill="midnightblue" stroke="midnightblue" points="384.73,-84.6 374.23,-86.03 383.33,-91.46 384.73,-84.6"/>
</g>
<!-- Node22 -->
<g id="node22" class="node">
<title>Node22</title>
<g id="a_node22"><a xlink:title=" ">
<polygon fill="white" stroke="#bfbfbf" points="87.83,-6 87.83,-25 135.83,-25 135.83,-6 87.83,-6"/>
<text text-anchor="middle" x="111.83" y="-13" font-family="Helvetica,sans-Serif" font-size="10.00">mutex</text>
</a>
</g>
</g>
<!-- Node8&#45;&gt;Node22 -->
<g id="edge37" class="edge">
<title>Node8&#45;&gt;Node22</title>
<path fill="none" stroke="midnightblue" d="M574.76,-132.05C466.89,-132.03 45.96,-129.21 6.83,-87 -19.04,-59.09 38.24,-36.66 77.95,-25.08"/>
<polygon fill="midnightblue" stroke="midnightblue" points="78.92,-28.44 87.6,-22.37 77.03,-21.7 78.92,-28.44"/>
</g>
<!-- Node23 -->
<g id="node23" class="node">
<title>Node23</title>
<g id="a_node23"><a xlink:href="Logger_8h.html" target="_top" xlink:title="Header for Strategy Logger interface.">
<polygon fill="white" stroke="black" points="1095.83,-67.5 1095.83,-86.5 1153.83,-86.5 1153.83,-67.5 1095.83,-67.5"/>
<text text-anchor="middle" x="1124.83" y="-74.5" font-family="Helvetica,sans-Serif" font-size="10.00">Logger.h</text>
</a>
</g>
</g>
<!-- Node8&#45;&gt;Node23 -->
<g id="edge31" class="edge">
<title>Node8&#45;&gt;Node23</title>
<path fill="none" stroke="midnightblue" d="M625.08,-130.92C696.12,-127.61 903.81,-116.14 1085.46,-87.01"/>
<polygon fill="midnightblue" stroke="midnightblue" points="1086.15,-90.45 1095.46,-85.39 1085.02,-83.54 1086.15,-90.45"/>
</g>
<!-- Node25 -->
<g id="node25" class="node">
<title>Node25</title>
<g id="a_node25"><a xlink:title=" ">
<polygon fill="white" stroke="#bfbfbf" points="392.33,-67.5 392.33,-86.5 439.33,-86.5 439.33,-67.5 392.33,-67.5"/>
<text text-anchor="middle" x="415.83" y="-74.5" font-family="Helvetica,sans-Serif" font-size="10.00">queue</text>
</a>
</g>
</g>
<!-- Node8&#45;&gt;Node25 -->
<g id="edge35" class="edge">
<title>Node8&#45;&gt;Node25</title>
<path fill="none" stroke="midnightblue" d="M574.63,-124.6C542.07,-115.05 485.27,-98.38 449.16,-87.78"/>
<polygon fill="midnightblue" stroke="midnightblue" points="450.14,-84.42 439.56,-84.96 448.17,-91.14 450.14,-84.42"/>
</g>
<!-- Node26 -->
<g id="node26" class="node">
<title>Node26</title>
<g id="a_node26"><a xlink:title=" ">
<polygon fill="white" stroke="#bfbfbf" points="457.83,-67.5 457.83,-86.5 515.83,-86.5 515.83,-67.5 457.83,-67.5"/>
<text text-anchor="middle" x="486.83" y="-74.5" font-family="Helvetica,sans-Serif" font-size="10.00">memory</text>
</a>
</g>
</g>
<!-- Node8&#45;&gt;Node26 -->
<g id="edge36" class="edge">
<title>Node8&#45;&gt;Node26</title>
<path fill="none" stroke="midnightblue" d="M581.93,-123.44C563.58,-114.68 534.83,-100.94 513.74,-90.86"/>
<polygon fill="midnightblue" stroke="midnightblue" points="515.19,-87.67 504.65,-86.52 512.17,-93.99 515.19,-87.67"/>
</g>
<!-- Node19&#45;&gt;Node3 -->
<g id="edge29" class="edge">
<title>Node19&#45;&gt;Node3</title>
<path fill="none" stroke="midnightblue" d="M374.06,-68.2C377.02,-67.75 379.97,-67.34 382.83,-67 762.63,-22.04 1227.98,-17.05 1353.41,-16.54"/>
<polygon fill="midnightblue" stroke="midnightblue" points="1353.51,-20.04 1363.5,-16.51 1353.49,-13.04 1353.51,-20.04"/>
</g>
<!-- Node19&#45;&gt;Node12 -->
<g id="edge28" class="edge">
<title>Node19&#45;&gt;Node12</title>
<path fill="none" stroke="midnightblue" d="M372.8,-67.48C422.47,-56.32 509.13,-36.86 559.81,-25.49"/>
<polygon fill="midnightblue" stroke="midnightblue" points="560.75,-28.86 569.74,-23.26 559.22,-22.03 560.75,-28.86"/>
</g>
<!-- Node20 -->
<g id="node20" class="node">
<title>Node20</title>
<g id="a_node20"><a xlink:title=" ">
<polygon fill="white" stroke="#bfbfbf" points="207.33,-0.5 207.33,-30.5 320.33,-30.5 320.33,-0.5 207.33,-0.5"/>
<text text-anchor="start" x="215.33" y="-18.5" font-family="Helvetica,sans-Serif" font-size="10.00">websocketpp/config</text>
<text text-anchor="middle" x="263.83" y="-7.5" font-family="Helvetica,sans-Serif" font-size="10.00">/asio_no_tls.hpp</text>
</a>
</g>
</g>
<!-- Node19&#45;&gt;Node20 -->
<g id="edge26" class="edge">
<title>Node19&#45;&gt;Node20</title>
<path fill="none" stroke="midnightblue" d="M324.66,-67.48C315.22,-59.57 300.81,-47.48 288.37,-37.07"/>
<polygon fill="midnightblue" stroke="midnightblue" points="290.48,-34.26 280.57,-30.52 285.98,-39.63 290.48,-34.26"/>
</g>
<!-- Node21 -->
<g id="node21" class="node">
<title>Node21</title>
<g id="a_node21"><a xlink:title=" ">
<polygon fill="white" stroke="#bfbfbf" points="338.83,-6 338.83,-25 472.83,-25 472.83,-6 338.83,-6"/>
<text text-anchor="middle" x="405.83" y="-13" font-family="Helvetica,sans-Serif" font-size="10.00">websocketpp/server.hpp</text>
</a>
</g>
</g>
<!-- Node19&#45;&gt;Node21 -->
<g id="edge27" class="edge">
<title>Node19&#45;&gt;Node21</title>
<path fill="none" stroke="midnightblue" d="M345,-67.48C356.18,-58.11 374.35,-42.88 387.92,-31.51"/>
<polygon fill="midnightblue" stroke="midnightblue" points="390.26,-34.11 395.68,-25.01 385.77,-28.75 390.26,-34.11"/>
</g>
<!-- Node19&#45;&gt;Node22 -->
<g id="edge30" class="edge">
<title>Node19&#45;&gt;Node22</title>
<path fill="none" stroke="midnightblue" d="M302.88,-67.48C261.16,-56.34 188.43,-36.94 145.76,-25.55"/>
<polygon fill="midnightblue" stroke="midnightblue" points="146.41,-22.1 135.85,-22.91 144.61,-28.87 146.41,-22.1"/>
</g>
<!-- Node23&#45;&gt;Node3 -->
<g id="edge32" class="edge">
<title>Node23&#45;&gt;Node3</title>
<path fill="none" stroke="midnightblue" d="M1154.01,-69.35C1203.29,-58.11 1302.63,-35.47 1353.78,-23.81"/>
<polygon fill="midnightblue" stroke="midnightblue" points="1354.67,-27.19 1363.64,-21.56 1353.11,-20.37 1354.67,-27.19"/>
</g>
<!-- Node23&#45;&gt;Node12 -->
<g id="edge33" class="edge">
<title>Node23&#45;&gt;Node12</title>
<path fill="none" stroke="midnightblue" d="M1095.45,-68.65C1092.55,-68.04 1089.64,-67.48 1086.83,-67 922.28,-39.1 723.65,-24.29 640.03,-18.9"/>
<polygon fill="midnightblue" stroke="midnightblue" points="640.14,-15.4 629.94,-18.26 639.7,-22.39 640.14,-15.4"/>
</g>
<!-- Node23&#45;&gt;Node24 -->
<g id="edge34" class="edge">
<title>Node23&#45;&gt;Node24</title>
<path fill="none" stroke="midnightblue" d="M1154.03,-72.1C1230.57,-61.86 1437.28,-34.22 1527.15,-22.21"/>
<polygon fill="midnightblue" stroke="midnightblue" points="1527.81,-25.65 1537.26,-20.86 1526.88,-18.71 1527.81,-25.65"/>
</g>
<!-- Node27&#45;&gt;Node16 -->
<g id="edge40" class="edge">
<title>Node27&#45;&gt;Node16</title>
<path fill="none" stroke="midnightblue" d="M1312.02,-123.08C1310.56,-115.93 1308.46,-105.64 1306.64,-96.69"/>
<polygon fill="midnightblue" stroke="midnightblue" points="1310.04,-95.85 1304.61,-86.75 1303.18,-97.25 1310.04,-95.85"/>
</g>
</g>
</svg>
