<?xml version="1.0" encoding="UTF-8" standalone="no"?>
<!DOCTYPE svg PUBLIC "-//W3C//DTD SVG 1.1//EN"
 "http://www.w3.org/Graphics/SVG/1.1/DTD/svg11.dtd">
<!-- Generated by graphviz version 2.43.0 (0)
 -->
<!-- Title: backend/game/TransactionMem.h Pages: 1 -->
<svg width="1415pt" height="218pt"
 viewBox="0.00 0.00 1415.00 218.00" xmlns="http://www.w3.org/2000/svg" xmlns:xlink="http://www.w3.org/1999/xlink">
<g id="graph0" class="graph" transform="scale(1 1) rotate(0) translate(4 214)">
<title>backend/game/TransactionMem.h</title>
<polygon fill="white" stroke="transparent" points="-4,4 -4,-214 1411,-214 1411,4 -4,4"/>
<!-- Node1 -->
<g id="node1" class="node">
<title>Node1</title>
<g id="a_node1"><a xlink:title=" ">
<polygon fill="#bfbfbf" stroke="black" points="219,-179.5 219,-209.5 365,-209.5 365,-179.5 219,-179.5"/>
<text text-anchor="start" x="227" y="-197.5" font-family="Helvetica,sans-Serif" font-size="10.00">backend/game/Transaction</text>
<text text-anchor="middle" x="292" y="-186.5" font-family="Helvetica,sans-Serif" font-size="10.00">Mem.h</text>
</a>
</g>
</g>
<!-- Node2 -->
<g id="node2" class="node">
<title>Node2</title>
<g id="a_node2"><a xlink:href="Plant_8h.html" target="_top" xlink:title="Defines the abstract base class for all Plant objects used in the system.">
<polygon fill="white" stroke="black" points="568,-123.5 568,-142.5 618,-142.5 618,-123.5 568,-123.5"/>
<text text-anchor="middle" x="593" y="-130.5" font-family="Helvetica,sans-Serif" font-size="10.00">Plant.h</text>
</a>
</g>
</g>
<!-- Node1&#45;&gt;Node2 -->
<g id="edge1" class="edge">
<title>Node1&#45;&gt;Node2</title>
<path fill="none" stroke="midnightblue" d="M362.95,-179.47C424.32,-167.34 510.46,-150.32 558.01,-140.92"/>
<polygon fill="midnightblue" stroke="midnightblue" points="558.7,-144.35 567.83,-138.98 557.34,-137.48 558.7,-144.35"/>
</g>
<!-- Node3 -->
<g id="node3" class="node">
<title>Node3</title>
<g id="a_node3"><a xlink:title=" ">
<polygon fill="white" stroke="#bfbfbf" points="0,-6 0,-25 44,-25 44,-6 0,-6"/>
<text text-anchor="middle" x="22" y="-13" font-family="Helvetica,sans-Serif" font-size="10.00">string</text>
</a>
</g>
</g>
<!-- Node1&#45;&gt;Node3 -->
<g id="edge26" class="edge">
<title>Node1&#45;&gt;Node3</title>
<path fill="none" stroke="midnightblue" d="M218.84,-184.32C158.18,-172.6 74.88,-146.17 30,-87 18.86,-72.31 18.01,-50.7 19.23,-35.28"/>
<polygon fill="midnightblue" stroke="midnightblue" points="22.71,-35.67 20.36,-25.34 15.75,-34.88 22.71,-35.67"/>
</g>
<!-- Node2&#45;&gt;Node3 -->
<g id="edge2" class="edge">
<title>Node2&#45;&gt;Node3</title>
<path fill="none" stroke="midnightblue" d="M567.97,-131.48C466.72,-129.15 90.93,-118.46 49,-87 32.82,-74.86 26.33,-51.72 23.74,-35.27"/>
<polygon fill="midnightblue" stroke="midnightblue" points="27.19,-34.66 22.49,-25.16 20.24,-35.51 27.19,-34.66"/>
</g>
<!-- Node4 -->
<g id="node4" class="node">
<title>Node4</title>
<g id="a_node4"><a xlink:title=" ">
<polygon fill="white" stroke="#bfbfbf" points="172,-67.5 172,-86.5 210,-86.5 210,-67.5 172,-67.5"/>
<text text-anchor="middle" x="191" y="-74.5" font-family="Helvetica,sans-Serif" font-size="10.00">map</text>
</a>
</g>
</g>
<!-- Node2&#45;&gt;Node4 -->
<g id="edge3" class="edge">
<title>Node2&#45;&gt;Node4</title>
<path fill="none" stroke="midnightblue" d="M567.78,-130.63C508.57,-127.08 356.06,-115.87 220.31,-86.9"/>
<polygon fill="midnightblue" stroke="midnightblue" points="220.66,-83.39 210.15,-84.69 219.18,-90.23 220.66,-83.39"/>
</g>
<!-- Node5 -->
<g id="node5" class="node">
<title>Node5</title>
<g id="a_node5"><a xlink:title=" ">
<polygon fill="white" stroke="#bfbfbf" points="228.5,-67.5 228.5,-86.5 275.5,-86.5 275.5,-67.5 228.5,-67.5"/>
<text text-anchor="middle" x="252" y="-74.5" font-family="Helvetica,sans-Serif" font-size="10.00">vector</text>
</a>
</g>
</g>
<!-- Node2&#45;&gt;Node5 -->
<g id="edge4" class="edge">
<title>Node2&#45;&gt;Node5</title>
<path fill="none" stroke="midnightblue" d="M567.67,-129.35C516.34,-123.76 396.26,-109.55 285.69,-86.91"/>
<polygon fill="midnightblue" stroke="midnightblue" points="286.21,-83.44 275.71,-84.84 284.79,-90.3 286.21,-83.44"/>
</g>
<!-- Node6 -->
<g id="node6" class="node">
<title>Node6</title>
<g id="a_node6"><a xlink:title=" ">
<polygon fill="white" stroke="#bfbfbf" points="294,-67.5 294,-86.5 358,-86.5 358,-67.5 294,-67.5"/>
<text text-anchor="middle" x="326" y="-74.5" font-family="Helvetica,sans-Serif" font-size="10.00">algorithm</text>
</a>
</g>
</g>
<!-- Node2&#45;&gt;Node6 -->
<g id="edge5" class="edge">
<title>Node2&#45;&gt;Node6</title>
<path fill="none" stroke="midnightblue" d="M567.89,-127.17C527.85,-119.42 446.84,-103.61 368.28,-87.24"/>
<polygon fill="midnightblue" stroke="midnightblue" points="368.72,-83.75 358.22,-85.13 367.29,-90.61 368.72,-83.75"/>
</g>
<!-- Node7 -->
<g id="node7" class="node">
<title>Node7</title>
<g id="a_node7"><a xlink:title=" ">
<polygon fill="white" stroke="#bfbfbf" points="146,-6 146,-25 206,-25 206,-6 146,-6"/>
<text text-anchor="middle" x="176" y="-13" font-family="Helvetica,sans-Serif" font-size="10.00">iostream</text>
</a>
</g>
</g>
<!-- Node2&#45;&gt;Node7 -->
<g id="edge6" class="edge">
<title>Node2&#45;&gt;Node7</title>
<path fill="none" stroke="midnightblue" d="M568,-131.29C480.27,-128.55 190.25,-117.25 163,-87 150.15,-72.74 157.5,-50.08 165.38,-34.31"/>
<polygon fill="midnightblue" stroke="midnightblue" points="168.69,-35.55 170.42,-25.1 162.55,-32.19 168.69,-35.55"/>
</g>
<!-- Node8 -->
<g id="node8" class="node">
<title>Node8</title>
<g id="a_node8"><a xlink:title=" ">
<polygon fill="white" stroke="#bfbfbf" points="376.5,-67.5 376.5,-86.5 489.5,-86.5 489.5,-67.5 376.5,-67.5"/>
<text text-anchor="middle" x="433" y="-74.5" font-family="Helvetica,sans-Serif" font-size="10.00">boost/uuid/uuid.hpp</text>
</a>
</g>
</g>
<!-- Node2&#45;&gt;Node8 -->
<g id="edge7" class="edge">
<title>Node2&#45;&gt;Node8</title>
<path fill="none" stroke="midnightblue" d="M567.65,-123.44C540.73,-114.36 498,-99.94 467.91,-89.78"/>
<polygon fill="midnightblue" stroke="midnightblue" points="468.83,-86.4 458.23,-86.52 466.59,-93.03 468.83,-86.4"/>
</g>
<!-- Node9 -->
<g id="node9" class="node">
<title>Node9</title>
<g id="a_node9"><a xlink:title=" ">
<polygon fill="white" stroke="#bfbfbf" points="508,-67.5 508,-86.5 678,-86.5 678,-67.5 508,-67.5"/>
<text text-anchor="middle" x="593" y="-74.5" font-family="Helvetica,sans-Serif" font-size="10.00">boost/uuid/uuid_generators.hpp</text>
</a>
</g>
</g>
<!-- Node2&#45;&gt;Node9 -->
<g id="edge8" class="edge">
<title>Node2&#45;&gt;Node9</title>
<path fill="none" stroke="midnightblue" d="M593,-123.08C593,-116.01 593,-105.86 593,-96.99"/>
<polygon fill="midnightblue" stroke="midnightblue" points="596.5,-96.75 593,-86.75 589.5,-96.75 596.5,-96.75"/>
</g>
<!-- Node10 -->
<g id="node10" class="node">
<title>Node10</title>
<g id="a_node10"><a xlink:title=" ">
<polygon fill="white" stroke="#bfbfbf" points="696.5,-67.5 696.5,-86.5 823.5,-86.5 823.5,-67.5 696.5,-67.5"/>
<text text-anchor="middle" x="760" y="-74.5" font-family="Helvetica,sans-Serif" font-size="10.00">boost/uuid/uuid_io.hpp</text>
</a>
</g>
</g>
<!-- Node2&#45;&gt;Node10 -->
<g id="edge9" class="edge">
<title>Node2&#45;&gt;Node10</title>
<path fill="none" stroke="midnightblue" d="M618,-123.92C646,-114.86 691.63,-100.11 723.59,-89.77"/>
<polygon fill="midnightblue" stroke="midnightblue" points="725.01,-92.99 733.45,-86.59 722.85,-86.33 725.01,-92.99"/>
</g>
<!-- Node11 -->
<g id="node11" class="node">
<title>Node11</title>
<g id="a_node11"><a xlink:title=" ">
<polygon fill="white" stroke="#bfbfbf" points="842,-67.5 842,-86.5 952,-86.5 952,-67.5 842,-67.5"/>
<text text-anchor="middle" x="897" y="-74.5" font-family="Helvetica,sans-Serif" font-size="10.00">nlohmann/json.hpp</text>
</a>
</g>
</g>
<!-- Node2&#45;&gt;Node11 -->
<g id="edge10" class="edge">
<title>Node2&#45;&gt;Node11</title>
<path fill="none" stroke="midnightblue" d="M618.14,-127.54C666.24,-118.99 772.44,-100.13 839.01,-88.3"/>
<polygon fill="midnightblue" stroke="midnightblue" points="839.71,-91.73 848.94,-86.54 838.48,-84.84 839.71,-91.73"/>
</g>
<!-- Node12 -->
<g id="node12" class="node">
<title>Node12</title>
<g id="a_node12"><a xlink:title=" ">
<polygon fill="white" stroke="#bfbfbf" points="970,-67.5 970,-86.5 1018,-86.5 1018,-67.5 970,-67.5"/>
<text text-anchor="middle" x="994" y="-74.5" font-family="Helvetica,sans-Serif" font-size="10.00">thread</text>
</a>
</g>
</g>
<!-- Node2&#45;&gt;Node12 -->
<g id="edge11" class="edge">
<title>Node2&#45;&gt;Node12</title>
<path fill="none" stroke="midnightblue" d="M618.18,-130.18C676.59,-125.7 825.89,-112.72 959.91,-86.95"/>
<polygon fill="midnightblue" stroke="midnightblue" points="960.8,-90.34 969.94,-84.99 959.46,-83.47 960.8,-90.34"/>
</g>
<!-- Node13 -->
<g id="node13" class="node">
<title>Node13</title>
<g id="a_node13"><a xlink:title=" ">
<polygon fill="white" stroke="#bfbfbf" points="1036,-67.5 1036,-86.5 1086,-86.5 1086,-67.5 1036,-67.5"/>
<text text-anchor="middle" x="1061" y="-74.5" font-family="Helvetica,sans-Serif" font-size="10.00">atomic</text>
</a>
</g>
</g>
<!-- Node2&#45;&gt;Node13 -->
<g id="edge12" class="edge">
<title>Node2&#45;&gt;Node13</title>
<path fill="none" stroke="midnightblue" d="M618.15,-130.76C683.73,-127.25 865.47,-115.65 1025.81,-86.95"/>
<polygon fill="midnightblue" stroke="midnightblue" points="1026.63,-90.36 1035.85,-85.12 1025.38,-83.47 1026.63,-90.36"/>
</g>
<!-- Node14 -->
<g id="node14" class="node">
<title>Node14</title>
<g id="a_node14"><a xlink:href="GreenSock_8h.html" target="_top" xlink:title=" ">
<polygon fill="white" stroke="black" points="1246,-67.5 1246,-86.5 1324,-86.5 1324,-67.5 1246,-67.5"/>
<text text-anchor="middle" x="1285" y="-74.5" font-family="Helvetica,sans-Serif" font-size="10.00">GreenSock.h</text>
</a>
</g>
</g>
<!-- Node2&#45;&gt;Node14 -->
<g id="edge13" class="edge">
<title>Node2&#45;&gt;Node14</title>
<path fill="none" stroke="midnightblue" d="M618.27,-131.28C703.66,-128.65 989.47,-118.02 1235.56,-87.04"/>
<polygon fill="midnightblue" stroke="midnightblue" points="1236.29,-90.47 1245.77,-85.74 1235.4,-83.53 1236.29,-90.47"/>
</g>
<!-- Node17 -->
<g id="node17" class="node">
<title>Node17</title>
<g id="a_node17"><a xlink:title=" ">
<polygon fill="white" stroke="#bfbfbf" points="1359,-6 1359,-25 1407,-25 1407,-6 1359,-6"/>
<text text-anchor="middle" x="1383" y="-13" font-family="Helvetica,sans-Serif" font-size="10.00">mutex</text>
</a>
</g>
</g>
<!-- Node2&#45;&gt;Node17 -->
<g id="edge25" class="edge">
<title>Node2&#45;&gt;Node17</title>
<path fill="none" stroke="midnightblue" d="M618.08,-131.75C740.21,-130.37 1269.37,-122.37 1333,-87 1353.64,-75.53 1367.79,-51.53 1375.64,-34.73"/>
<polygon fill="midnightblue" stroke="midnightblue" points="1378.93,-35.95 1379.71,-25.38 1372.51,-33.15 1378.93,-35.95"/>
</g>
<!-- Node18 -->
<g id="node18" class="node">
<title>Node18</title>
<g id="a_node18"><a xlink:href="Logger_8h.html" target="_top" xlink:title="Header for Strategy Logger interface.">
<polygon fill="white" stroke="black" points="58,-67.5 58,-86.5 116,-86.5 116,-67.5 58,-67.5"/>
<text text-anchor="middle" x="87" y="-74.5" font-family="Helvetica,sans-Serif" font-size="10.00">Logger.h</text>
</a>
</g>
</g>
<!-- Node2&#45;&gt;Node18 -->
<g id="edge19" class="edge">
<title>Node2&#45;&gt;Node18</title>
<path fill="none" stroke="midnightblue" d="M567.79,-130.52C497.92,-126.22 296.06,-112.37 130,-87 128.73,-86.81 127.44,-86.6 126.13,-86.38"/>
<polygon fill="midnightblue" stroke="midnightblue" points="126.53,-82.89 116.07,-84.53 125.27,-89.78 126.53,-82.89"/>
</g>
<!-- Node20 -->
<g id="node20" class="node">
<title>Node20</title>
<g id="a_node20"><a xlink:title=" ">
<polygon fill="white" stroke="#bfbfbf" points="1104.5,-67.5 1104.5,-86.5 1151.5,-86.5 1151.5,-67.5 1104.5,-67.5"/>
<text text-anchor="middle" x="1128" y="-74.5" font-family="Helvetica,sans-Serif" font-size="10.00">queue</text>
</a>
</g>
</g>
<!-- Node2&#45;&gt;Node20 -->
<g id="edge23" class="edge">
<title>Node2&#45;&gt;Node20</title>
<path fill="none" stroke="midnightblue" d="M618.02,-131.32C690.38,-129.03 906.16,-119.87 1094.25,-86.79"/>
<polygon fill="midnightblue" stroke="midnightblue" points="1095.09,-90.2 1104.32,-85 1093.86,-83.31 1095.09,-90.2"/>
</g>
<!-- Node21 -->
<g id="node21" class="node">
<title>Node21</title>
<g id="a_node21"><a xlink:title=" ">
<polygon fill="white" stroke="#bfbfbf" points="1170,-67.5 1170,-86.5 1228,-86.5 1228,-67.5 1170,-67.5"/>
<text text-anchor="middle" x="1199" y="-74.5" font-family="Helvetica,sans-Serif" font-size="10.00">memory</text>
</a>
</g>
</g>
<!-- Node2&#45;&gt;Node21 -->
<g id="edge24" class="edge">
<title>Node2&#45;&gt;Node21</title>
<path fill="none" stroke="midnightblue" d="M618.07,-131.39C696.62,-129.17 944.93,-119.99 1159.44,-87.01"/>
<polygon fill="midnightblue" stroke="midnightblue" points="1160.29,-90.43 1169.63,-85.43 1159.21,-83.51 1160.29,-90.43"/>
</g>
<!-- Node14&#45;&gt;Node3 -->
<g id="edge17" class="edge">
<title>Node14&#45;&gt;Node3</title>
<path fill="none" stroke="midnightblue" d="M1245.78,-68.13C1242.82,-67.7 1239.87,-67.31 1237,-67 975.3,-38.66 309.06,-92.02 53,-31 50.79,-30.47 48.55,-29.78 46.34,-28.99"/>
<polygon fill="midnightblue" stroke="midnightblue" points="47.58,-25.71 37,-25.02 44.84,-32.15 47.58,-25.71"/>
</g>
<!-- Node14&#45;&gt;Node7 -->
<g id="edge16" class="edge">
<title>Node14&#45;&gt;Node7</title>
<path fill="none" stroke="midnightblue" d="M1245.77,-68.19C1242.81,-67.74 1239.86,-67.33 1237,-67 841.15,-20.69 357.49,-16.58 216.4,-16.42"/>
<polygon fill="midnightblue" stroke="midnightblue" points="216.08,-12.92 206.08,-16.42 216.08,-19.92 216.08,-12.92"/>
</g>
<!-- Node15 -->
<g id="node15" class="node">
<title>Node15</title>
<g id="a_node15"><a xlink:title=" ">
<polygon fill="white" stroke="#bfbfbf" points="1075.5,-0.5 1075.5,-30.5 1188.5,-30.5 1188.5,-0.5 1075.5,-0.5"/>
<text text-anchor="start" x="1083.5" y="-18.5" font-family="Helvetica,sans-Serif" font-size="10.00">websocketpp/config</text>
<text text-anchor="middle" x="1132" y="-7.5" font-family="Helvetica,sans-Serif" font-size="10.00">/asio_no_tls.hpp</text>
</a>
</g>
</g>
<!-- Node14&#45;&gt;Node15 -->
<g id="edge14" class="edge">
<title>Node14&#45;&gt;Node15</title>
<path fill="none" stroke="midnightblue" d="M1263.08,-67.48C1240.9,-58.85 1205.96,-45.26 1177.73,-34.29"/>
<polygon fill="midnightblue" stroke="midnightblue" points="1178.65,-30.89 1168.06,-30.52 1176.11,-37.41 1178.65,-30.89"/>
</g>
<!-- Node16 -->
<g id="node16" class="node">
<title>Node16</title>
<g id="a_node16"><a xlink:title=" ">
<polygon fill="white" stroke="#bfbfbf" points="1207,-6 1207,-25 1341,-25 1341,-6 1207,-6"/>
<text text-anchor="middle" x="1274" y="-13" font-family="Helvetica,sans-Serif" font-size="10.00">websocketpp/server.hpp</text>
</a>
</g>
</g>
<!-- Node14&#45;&gt;Node16 -->
<g id="edge15" class="edge">
<title>Node14&#45;&gt;Node16</title>
<path fill="none" stroke="midnightblue" d="M1283.42,-67.48C1281.87,-59.08 1279.45,-45.98 1277.45,-35.16"/>
<polygon fill="midnightblue" stroke="midnightblue" points="1280.83,-34.21 1275.57,-25.01 1273.95,-35.48 1280.83,-34.21"/>
</g>
<!-- Node14&#45;&gt;Node17 -->
<g id="edge18" class="edge">
<title>Node14&#45;&gt;Node17</title>
<path fill="none" stroke="midnightblue" d="M1299.04,-67.48C1315.05,-57.75 1341.45,-41.73 1360.37,-30.24"/>
<polygon fill="midnightblue" stroke="midnightblue" points="1362.25,-33.19 1368.99,-25.01 1358.62,-27.21 1362.25,-33.19"/>
</g>
<!-- Node18&#45;&gt;Node3 -->
<g id="edge20" class="edge">
<title>Node18&#45;&gt;Node3</title>
<path fill="none" stroke="midnightblue" d="M77.69,-67.48C67.55,-58.2 51.14,-43.17 38.75,-31.83"/>
<polygon fill="midnightblue" stroke="midnightblue" points="41.04,-29.18 31.3,-25.01 36.31,-34.34 41.04,-29.18"/>
</g>
<!-- Node18&#45;&gt;Node7 -->
<g id="edge21" class="edge">
<title>Node18&#45;&gt;Node7</title>
<path fill="none" stroke="midnightblue" d="M99.75,-67.48C114.03,-57.93 137.4,-42.31 154.51,-30.87"/>
<polygon fill="midnightblue" stroke="midnightblue" points="156.9,-33.48 163.27,-25.01 153.01,-27.66 156.9,-33.48"/>
</g>
<!-- Node19 -->
<g id="node19" class="node">
<title>Node19</title>
<g id="a_node19"><a xlink:title=" ">
<polygon fill="white" stroke="#bfbfbf" points="62.5,-6 62.5,-25 127.5,-25 127.5,-6 62.5,-6"/>
<text text-anchor="middle" x="95" y="-13" font-family="Helvetica,sans-Serif" font-size="10.00">stdexcept</text>
</a>
</g>
</g>
<!-- Node18&#45;&gt;Node19 -->
<g id="edge22" class="edge">
<title>Node18&#45;&gt;Node19</title>
<path fill="none" stroke="midnightblue" d="M88.15,-67.48C89.27,-59.08 91.04,-45.98 92.49,-35.16"/>
<polygon fill="midnightblue" stroke="midnightblue" points="95.99,-35.39 93.86,-25.01 89.05,-34.45 95.99,-35.39"/>
</g>
</g>
</svg>
