<?xml version="1.0" encoding="UTF-8" standalone="no"?>
<!DOCTYPE svg PUBLIC "-//W3C//DTD SVG 1.1//EN"
 "http://www.w3.org/Graphics/SVG/1.1/DTD/svg11.dtd">
<!-- Generated by graphviz version 2.43.0 (0)
 -->
<!-- Title: backend/game/TransactionHistory.h Pages: 1 -->
<!--zoomable 274 -->
<svg id="main" version="1.1" xmlns="http://www.w3.org/2000/svg" xmlns:xlink="http://www.w3.org/1999/xlink" xml:space="preserve" onload="init(evt)">
<style type="text/css"><![CDATA[
.edge:hover path { stroke: red; }
.edge:hover polygon { stroke: red; fill: red; }
]]></style>
<script type="text/javascript"><![CDATA[
var edges = document.getElementsByTagName('g');
if (edges && edges.length) {
  for (var i=0;i<edges.length;i++) {
    if (edges[i].id.substr(0,4)=='edge') {
      edges[i].setAttribute('class','edge');
    }
  }
}
]]></script>
        <defs>
                <circle id="rim" cx="0" cy="0" r="7"/>
                <circle id="rim2" cx="0" cy="0" r="3.5"/>
                <g id="zoomPlus">
                        <use xlink:href="#rim" fill="#404040">
                                <set attributeName="fill" to="#808080" begin="zoomplus.mouseover" end="zoomplus.mouseout"/>
                        </use>
                        <path d="M-4,0h8M0,-4v8" fill="none" stroke="white" stroke-width="1.5" pointer-events="none"/>
                </g>
                <g id="zoomMin">
                        <use xlink:href="#rim" fill="#404040">
                                <set attributeName="fill" to="#808080" begin="zoomminus.mouseover" end="zoomminus.mouseout"/>
                        </use>
                        <path d="M-4,0h8" fill="none" stroke="white" stroke-width="1.5" pointer-events="none"/>
                </g>
                <g id="dirArrow">
                        <path fill="none" stroke="white" stroke-width="1.5" d="M0,-3.0v7 M-2.5,-0.5L0,-3.0L2.5,-0.5"/>
                </g>
               <g id="resetDef">
                       <use xlink:href="#rim2" fill="#404040">
                               <set attributeName="fill" to="#808080" begin="reset.mouseover" end="reset.mouseout"/>
                       </use>
               </g>
        </defs>

<script type="text/javascript">
var viewWidth = 1562;
var viewHeight = 274;
var sectionId = 'dynsection-0';
</script>
<script xlink:href="svgpan.js"/>
<svg id="graph" class="graph">
<g id="viewport">
<title>backend/game/TransactionHistory.h</title>
<polygon fill="white" stroke="transparent" points="-4,4 -4,-270 1558,-270 1558,4 -4,4"/>
<!-- Node1 -->
<g id="node1" class="node">
<title>Node1</title>
<g id="a_node1"><a xlink:title=" ">
<polygon fill="#bfbfbf" stroke="black" points="1267,-235.5 1267,-265.5 1413,-265.5 1413,-235.5 1267,-235.5"/>
<text text-anchor="start" x="1275" y="-253.5" font-family="Helvetica,sans-Serif" font-size="10.00">backend/game/Transaction</text>
<text text-anchor="middle" x="1340" y="-242.5" font-family="Helvetica,sans-Serif" font-size="10.00">History.h</text>
</a>
</g>
</g>
<!-- Node2 -->
<g id="node2" class="node">
<title>Node2</title>
<g id="a_node2"><a xlink:href="TransactionMem_8h.html" target="_top" xlink:title=" ">
<polygon fill="white" stroke="black" points="1206,-179.5 1206,-198.5 1312,-198.5 1312,-179.5 1206,-179.5"/>
<text text-anchor="middle" x="1259" y="-186.5" font-family="Helvetica,sans-Serif" font-size="10.00">TransactionMem.h</text>
</a>
</g>
</g>
<!-- Node1&#45;&gt;Node2 -->
<g id="edge1" class="edge">
<title>Node1&#45;&gt;Node2</title>
<path fill="none" stroke="midnightblue" d="M1320.8,-235.4C1308.18,-226.13 1291.71,-214.03 1278.94,-204.65"/>
<polygon fill="midnightblue" stroke="midnightblue" points="1280.92,-201.76 1270.79,-198.66 1276.77,-207.4 1280.92,-201.76"/>
</g>
<!-- Node6 -->
<g id="node6" class="node">
<title>Node6</title>
<g id="a_node6"><a xlink:title=" ">
<polygon fill="white" stroke="#bfbfbf" points="1302.5,-67.5 1302.5,-86.5 1349.5,-86.5 1349.5,-67.5 1302.5,-67.5"/>
<text text-anchor="middle" x="1326" y="-74.5" font-family="Helvetica,sans-Serif" font-size="10.00">vector</text>
</a>
</g>
</g>
<!-- Node1&#45;&gt;Node6 -->
<g id="edge43" class="edge">
<title>Node1&#45;&gt;Node6</title>
<path fill="none" stroke="midnightblue" d="M1338.85,-235.47C1336.34,-204.7 1330.35,-131.33 1327.53,-96.7"/>
<polygon fill="midnightblue" stroke="midnightblue" points="1331,-96.24 1326.7,-86.56 1324.02,-96.81 1331,-96.24"/>
</g>
<!-- Node8 -->
<g id="node8" class="node">
<title>Node8</title>
<g id="a_node8"><a xlink:title=" ">
<polygon fill="white" stroke="#bfbfbf" points="616,-6 616,-25 676,-25 676,-6 616,-6"/>
<text text-anchor="middle" x="646" y="-13" font-family="Helvetica,sans-Serif" font-size="10.00">iostream</text>
</a>
</g>
</g>
<!-- Node1&#45;&gt;Node8 -->
<g id="edge42" class="edge">
<title>Node1&#45;&gt;Node8</title>
<path fill="none" stroke="midnightblue" d="M1266.9,-249.91C1049.8,-249.43 416,-235.15 289,-87 283.21,-80.25 283.08,-73.63 289,-67 336.38,-13.96 537.83,-47.51 607,-31 609.99,-30.29 613.07,-29.41 616.13,-28.44"/>
<polygon fill="midnightblue" stroke="midnightblue" points="617.35,-31.72 625.65,-25.13 615.05,-25.11 617.35,-31.72"/>
</g>
<!-- Node12 -->
<g id="node12" class="node">
<title>Node12</title>
<g id="a_node12"><a xlink:title=" ">
<polygon fill="white" stroke="#bfbfbf" points="1444,-67.5 1444,-86.5 1554,-86.5 1554,-67.5 1444,-67.5"/>
<text text-anchor="middle" x="1499" y="-74.5" font-family="Helvetica,sans-Serif" font-size="10.00">nlohmann/json.hpp</text>
</a>
</g>
</g>
<!-- Node1&#45;&gt;Node12 -->
<g id="edge45" class="edge">
<title>Node1&#45;&gt;Node12</title>
<path fill="none" stroke="midnightblue" d="M1391.03,-235.43C1433.47,-220.49 1490.16,-192.1 1511,-143 1517.37,-128 1512.98,-109.63 1507.8,-96.26"/>
<polygon fill="midnightblue" stroke="midnightblue" points="1510.87,-94.54 1503.68,-86.76 1504.45,-97.32 1510.87,-94.54"/>
</g>
<!-- Node20 -->
<g id="node20" class="node">
<title>Node20</title>
<g id="a_node20"><a xlink:title=" ">
<polygon fill="white" stroke="#bfbfbf" points="1329.5,-6 1329.5,-25 1394.5,-25 1394.5,-6 1329.5,-6"/>
<text text-anchor="middle" x="1362" y="-13" font-family="Helvetica,sans-Serif" font-size="10.00">stdexcept</text>
</a>
</g>
</g>
<!-- Node1&#45;&gt;Node20 -->
<g id="edge44" class="edge">
<title>Node1&#45;&gt;Node20</title>
<path fill="none" stroke="midnightblue" d="M1346.03,-235.4C1358.37,-204.88 1384.62,-130.36 1376,-67 1374.52,-56.13 1371.33,-44.29 1368.36,-34.81"/>
<polygon fill="midnightblue" stroke="midnightblue" points="1371.68,-33.69 1365.22,-25.29 1365.03,-35.88 1371.68,-33.69"/>
</g>
<!-- Node25 -->
<g id="node25" class="node">
<title>Node25</title>
<g id="a_node25"><a xlink:href="Ledger_8h_source.html" target="_top" xlink:title=" ">
<polygon fill="white" stroke="black" points="1444,-123.5 1444,-142.5 1502,-142.5 1502,-123.5 1444,-123.5"/>
<text text-anchor="middle" x="1473" y="-130.5" font-family="Helvetica,sans-Serif" font-size="10.00">Ledger.h</text>
</a>
</g>
</g>
<!-- Node1&#45;&gt;Node25 -->
<g id="edge36" class="edge">
<title>Node1&#45;&gt;Node25</title>
<path fill="none" stroke="midnightblue" d="M1373.69,-235.34C1391.75,-226.64 1413.6,-214.25 1430,-199 1444.67,-185.36 1456.76,-165.76 1464.34,-151.65"/>
<polygon fill="midnightblue" stroke="midnightblue" points="1467.58,-153 1469.04,-142.51 1461.35,-149.8 1467.58,-153"/>
</g>
<!-- Node26 -->
<g id="node26" class="node">
<title>Node26</title>
<g id="a_node26"><a xlink:href="Inventory_8h_source.html" target="_top" xlink:title=" ">
<polygon fill="white" stroke="black" points="1116.5,-179.5 1116.5,-198.5 1187.5,-198.5 1187.5,-179.5 1116.5,-179.5"/>
<text text-anchor="middle" x="1152" y="-186.5" font-family="Helvetica,sans-Serif" font-size="10.00">Inventory.h</text>
</a>
</g>
</g>
<!-- Node1&#45;&gt;Node26 -->
<g id="edge38" class="edge">
<title>Node1&#45;&gt;Node26</title>
<path fill="none" stroke="midnightblue" d="M1295.45,-235.4C1262.96,-225.12 1219.46,-211.35 1188.91,-201.68"/>
<polygon fill="midnightblue" stroke="midnightblue" points="1189.67,-198.25 1179.08,-198.57 1187.56,-204.93 1189.67,-198.25"/>
</g>
<!-- Node3 -->
<g id="node3" class="node">
<title>Node3</title>
<g id="a_node3"><a xlink:href="Plant_8h.html" target="_top" xlink:title="Defines the abstract base class for all Plant objects used in the system.">
<polygon fill="white" stroke="black" points="833,-123.5 833,-142.5 883,-142.5 883,-123.5 833,-123.5"/>
<text text-anchor="middle" x="858" y="-130.5" font-family="Helvetica,sans-Serif" font-size="10.00">Plant.h</text>
</a>
</g>
</g>
<!-- Node2&#45;&gt;Node3 -->
<g id="edge2" class="edge">
<title>Node2&#45;&gt;Node3</title>
<path fill="none" stroke="midnightblue" d="M1205.73,-180.35C1202.44,-179.89 1199.17,-179.44 1196,-179 1085.41,-163.74 954.33,-146.54 892.96,-138.54"/>
<polygon fill="midnightblue" stroke="midnightblue" points="893.4,-135.07 883.03,-137.25 892.49,-142.01 893.4,-135.07"/>
</g>
<!-- Node4 -->
<g id="node4" class="node">
<title>Node4</title>
<g id="a_node4"><a xlink:title=" ">
<polygon fill="white" stroke="#bfbfbf" points="1202,-6 1202,-25 1246,-25 1246,-6 1202,-6"/>
<text text-anchor="middle" x="1224" y="-13" font-family="Helvetica,sans-Serif" font-size="10.00">string</text>
</a>
</g>
</g>
<!-- Node2&#45;&gt;Node4 -->
<g id="edge35" class="edge">
<title>Node2&#45;&gt;Node4</title>
<path fill="none" stroke="midnightblue" d="M1275.84,-179.43C1311.48,-160.14 1388.81,-111.53 1358,-67 1335.25,-34.12 1288.2,-22.62 1256.36,-18.62"/>
<polygon fill="midnightblue" stroke="midnightblue" points="1256.52,-15.11 1246.2,-17.52 1255.77,-22.07 1256.52,-15.11"/>
</g>
<!-- Node3&#45;&gt;Node4 -->
<g id="edge3" class="edge">
<title>Node3&#45;&gt;Node4</title>
<path fill="none" stroke="midnightblue" d="M883.01,-130.65C960.63,-126.2 1193.65,-110.95 1217,-87 1229.99,-73.67 1230.07,-51.48 1227.96,-35.55"/>
<polygon fill="midnightblue" stroke="midnightblue" points="1231.34,-34.54 1226.2,-25.27 1224.44,-35.72 1231.34,-34.54"/>
</g>
<!-- Node5 -->
<g id="node5" class="node">
<title>Node5</title>
<g id="a_node5"><a xlink:title=" ">
<polygon fill="white" stroke="#bfbfbf" points="298,-67.5 298,-86.5 336,-86.5 336,-67.5 298,-67.5"/>
<text text-anchor="middle" x="317" y="-74.5" font-family="Helvetica,sans-Serif" font-size="10.00">map</text>
</a>
</g>
</g>
<!-- Node3&#45;&gt;Node5 -->
<g id="edge4" class="edge">
<title>Node3&#45;&gt;Node5</title>
<path fill="none" stroke="midnightblue" d="M832.89,-131.77C759.25,-130.7 537.45,-124.51 346.08,-86.77"/>
<polygon fill="midnightblue" stroke="midnightblue" points="346.62,-83.31 336.13,-84.77 345.25,-90.17 346.62,-83.31"/>
</g>
<!-- Node3&#45;&gt;Node6 -->
<g id="edge5" class="edge">
<title>Node3&#45;&gt;Node6</title>
<path fill="none" stroke="midnightblue" d="M883.23,-129.14C945.5,-122.06 1111.54,-103.15 1250,-87 1263.85,-85.38 1279.12,-83.58 1292.31,-82.02"/>
<polygon fill="midnightblue" stroke="midnightblue" points="1292.86,-85.47 1302.38,-80.82 1292.04,-78.52 1292.86,-85.47"/>
</g>
<!-- Node7 -->
<g id="node7" class="node">
<title>Node7</title>
<g id="a_node7"><a xlink:title=" ">
<polygon fill="white" stroke="#bfbfbf" points="354,-67.5 354,-86.5 418,-86.5 418,-67.5 354,-67.5"/>
<text text-anchor="middle" x="386" y="-74.5" font-family="Helvetica,sans-Serif" font-size="10.00">algorithm</text>
</a>
</g>
</g>
<!-- Node3&#45;&gt;Node7 -->
<g id="edge6" class="edge">
<title>Node3&#45;&gt;Node7</title>
<path fill="none" stroke="midnightblue" d="M832.93,-130.13C767.02,-125.04 583.5,-109.78 432,-87 430.73,-86.81 429.45,-86.61 428.15,-86.4"/>
<polygon fill="midnightblue" stroke="midnightblue" points="428.56,-82.92 418.11,-84.66 427.36,-89.81 428.56,-82.92"/>
</g>
<!-- Node3&#45;&gt;Node8 -->
<g id="edge7" class="edge">
<title>Node3&#45;&gt;Node8</title>
<path fill="none" stroke="midnightblue" d="M832.88,-131.03C750.07,-127.56 489.57,-114.55 465,-87 432.42,-50.48 467.36,-74.52 607,-31 609.56,-30.2 612.2,-29.33 614.84,-28.42"/>
<polygon fill="midnightblue" stroke="midnightblue" points="616.04,-31.71 624.28,-25.05 613.68,-25.12 616.04,-31.71"/>
</g>
<!-- Node9 -->
<g id="node9" class="node">
<title>Node9</title>
<g id="a_node9"><a xlink:title=" ">
<polygon fill="white" stroke="#bfbfbf" points="474.5,-67.5 474.5,-86.5 587.5,-86.5 587.5,-67.5 474.5,-67.5"/>
<text text-anchor="middle" x="531" y="-74.5" font-family="Helvetica,sans-Serif" font-size="10.00">boost/uuid/uuid.hpp</text>
</a>
</g>
</g>
<!-- Node3&#45;&gt;Node9 -->
<g id="edge8" class="edge">
<title>Node3&#45;&gt;Node9</title>
<path fill="none" stroke="midnightblue" d="M832.88,-127.85C781.89,-119.43 664.94,-100.12 592.49,-88.15"/>
<polygon fill="midnightblue" stroke="midnightblue" points="593.01,-84.69 582.57,-86.52 591.87,-91.6 593.01,-84.69"/>
</g>
<!-- Node10 -->
<g id="node10" class="node">
<title>Node10</title>
<g id="a_node10"><a xlink:title=" ">
<polygon fill="white" stroke="#bfbfbf" points="606,-67.5 606,-86.5 776,-86.5 776,-67.5 606,-67.5"/>
<text text-anchor="middle" x="691" y="-74.5" font-family="Helvetica,sans-Serif" font-size="10.00">boost/uuid/uuid_generators.hpp</text>
</a>
</g>
</g>
<!-- Node3&#45;&gt;Node10 -->
<g id="edge9" class="edge">
<title>Node3&#45;&gt;Node10</title>
<path fill="none" stroke="midnightblue" d="M833,-123.92C805,-114.86 759.37,-100.11 727.41,-89.77"/>
<polygon fill="midnightblue" stroke="midnightblue" points="728.15,-86.33 717.55,-86.59 725.99,-92.99 728.15,-86.33"/>
</g>
<!-- Node11 -->
<g id="node11" class="node">
<title>Node11</title>
<g id="a_node11"><a xlink:title=" ">
<polygon fill="white" stroke="#bfbfbf" points="794.5,-67.5 794.5,-86.5 921.5,-86.5 921.5,-67.5 794.5,-67.5"/>
<text text-anchor="middle" x="858" y="-74.5" font-family="Helvetica,sans-Serif" font-size="10.00">boost/uuid/uuid_io.hpp</text>
</a>
</g>
</g>
<!-- Node3&#45;&gt;Node11 -->
<g id="edge10" class="edge">
<title>Node3&#45;&gt;Node11</title>
<path fill="none" stroke="midnightblue" d="M858,-123.08C858,-116.01 858,-105.86 858,-96.99"/>
<polygon fill="midnightblue" stroke="midnightblue" points="861.5,-96.75 858,-86.75 854.5,-96.75 861.5,-96.75"/>
</g>
<!-- Node3&#45;&gt;Node12 -->
<g id="edge11" class="edge">
<title>Node3&#45;&gt;Node12</title>
<path fill="none" stroke="midnightblue" d="M883.13,-129.88C975.04,-122.14 1294.79,-95.2 1433.72,-83.5"/>
<polygon fill="midnightblue" stroke="midnightblue" points="1434.13,-86.98 1443.8,-82.65 1433.55,-80 1434.13,-86.98"/>
</g>
<!-- Node13 -->
<g id="node13" class="node">
<title>Node13</title>
<g id="a_node13"><a xlink:title=" ">
<polygon fill="white" stroke="#bfbfbf" points="0,-6 0,-25 48,-25 48,-6 0,-6"/>
<text text-anchor="middle" x="24" y="-13" font-family="Helvetica,sans-Serif" font-size="10.00">thread</text>
</a>
</g>
</g>
<!-- Node3&#45;&gt;Node13 -->
<g id="edge12" class="edge">
<title>Node3&#45;&gt;Node13</title>
<path fill="none" stroke="midnightblue" d="M832.6,-131.59C707.65,-129.42 161.56,-118.23 93,-87 67.88,-75.56 47.05,-50.58 35.05,-33.65"/>
<polygon fill="midnightblue" stroke="midnightblue" points="37.84,-31.52 29.33,-25.2 32.04,-35.45 37.84,-31.52"/>
</g>
<!-- Node14 -->
<g id="node14" class="node">
<title>Node14</title>
<g id="a_node14"><a xlink:title=" ">
<polygon fill="white" stroke="#bfbfbf" points="66,-6 66,-25 116,-25 116,-6 66,-6"/>
<text text-anchor="middle" x="91" y="-13" font-family="Helvetica,sans-Serif" font-size="10.00">atomic</text>
</a>
</g>
</g>
<!-- Node3&#45;&gt;Node14 -->
<g id="edge13" class="edge">
<title>Node3&#45;&gt;Node14</title>
<path fill="none" stroke="midnightblue" d="M832.77,-132.2C708.7,-132.95 167.1,-133.54 110,-87 94.83,-74.64 91.05,-51.55 90.43,-35.16"/>
<polygon fill="midnightblue" stroke="midnightblue" points="93.93,-35.1 90.41,-25.11 86.93,-35.11 93.93,-35.1"/>
</g>
<!-- Node15 -->
<g id="node15" class="node">
<title>Node15</title>
<g id="a_node15"><a xlink:href="GreenSock_8h.html" target="_top" xlink:title=" ">
<polygon fill="white" stroke="black" points="1054,-67.5 1054,-86.5 1132,-86.5 1132,-67.5 1054,-67.5"/>
<text text-anchor="middle" x="1093" y="-74.5" font-family="Helvetica,sans-Serif" font-size="10.00">GreenSock.h</text>
</a>
</g>
</g>
<!-- Node3&#45;&gt;Node15 -->
<g id="edge14" class="edge">
<title>Node3&#45;&gt;Node15</title>
<path fill="none" stroke="midnightblue" d="M883.15,-126.22C921.84,-117.33 996.62,-100.15 1045.66,-88.88"/>
<polygon fill="midnightblue" stroke="midnightblue" points="1046.75,-92.22 1055.71,-86.57 1045.19,-85.4 1046.75,-92.22"/>
</g>
<!-- Node18 -->
<g id="node18" class="node">
<title>Node18</title>
<g id="a_node18"><a xlink:title=" ">
<polygon fill="white" stroke="#bfbfbf" points="550,-6 550,-25 598,-25 598,-6 550,-6"/>
<text text-anchor="middle" x="574" y="-13" font-family="Helvetica,sans-Serif" font-size="10.00">mutex</text>
</a>
</g>
</g>
<!-- Node3&#45;&gt;Node18 -->
<g id="edge34" class="edge">
<title>Node3&#45;&gt;Node18</title>
<path fill="none" stroke="midnightblue" d="M883.28,-129.85C934.95,-124.57 1044.7,-108.25 1007,-67 946.79,-1.12 693.43,-53.24 607,-31 604.7,-30.41 602.35,-29.67 600.03,-28.85"/>
<polygon fill="midnightblue" stroke="midnightblue" points="601.34,-25.6 590.75,-25.11 598.72,-32.09 601.34,-25.6"/>
</g>
<!-- Node19 -->
<g id="node19" class="node">
<title>Node19</title>
<g id="a_node19"><a xlink:href="Logger_8h.html" target="_top" xlink:title="Header for Strategy Logger.">
<polygon fill="white" stroke="black" points="1150,-67.5 1150,-86.5 1208,-86.5 1208,-67.5 1150,-67.5"/>
<text text-anchor="middle" x="1179" y="-74.5" font-family="Helvetica,sans-Serif" font-size="10.00">Logger.h</text>
</a>
</g>
</g>
<!-- Node3&#45;&gt;Node19 -->
<g id="edge20" class="edge">
<title>Node3&#45;&gt;Node19</title>
<path fill="none" stroke="midnightblue" d="M883.1,-128.65C931.02,-122.12 1039.06,-106.75 1139.57,-87.17"/>
<polygon fill="midnightblue" stroke="midnightblue" points="1140.45,-90.56 1149.59,-85.2 1139.1,-83.69 1140.45,-90.56"/>
</g>
<!-- Node21 -->
<g id="node21" class="node">
<title>Node21</title>
<g id="a_node21"><a xlink:href="ThreadSafeQueue_8h_source.html" target="_top" xlink:title=" ">
<polygon fill="white" stroke="black" points="128.5,-67.5 128.5,-86.5 241.5,-86.5 241.5,-67.5 128.5,-67.5"/>
<text text-anchor="middle" x="185" y="-74.5" font-family="Helvetica,sans-Serif" font-size="10.00">ThreadSafeQueue.h</text>
</a>
</g>
</g>
<!-- Node3&#45;&gt;Node21 -->
<g id="edge24" class="edge">
<title>Node3&#45;&gt;Node21</title>
<path fill="none" stroke="midnightblue" d="M832.76,-130.07C752.97,-123.96 499.1,-104.4 289,-87 277.01,-86.01 264.24,-84.92 251.9,-83.86"/>
<polygon fill="midnightblue" stroke="midnightblue" points="251.93,-80.35 241.67,-82.98 251.33,-87.33 251.93,-80.35"/>
</g>
<!-- Node22 -->
<g id="node22" class="node">
<title>Node22</title>
<g id="a_node22"><a xlink:title=" ">
<polygon fill="white" stroke="#bfbfbf" points="134.5,-6 134.5,-25 181.5,-25 181.5,-6 134.5,-6"/>
<text text-anchor="middle" x="158" y="-13" font-family="Helvetica,sans-Serif" font-size="10.00">queue</text>
</a>
</g>
</g>
<!-- Node3&#45;&gt;Node22 -->
<g id="edge32" class="edge">
<title>Node3&#45;&gt;Node22</title>
<path fill="none" stroke="midnightblue" d="M832.66,-131.42C705.72,-128.4 143.99,-113.56 119,-87 103.68,-70.72 122.69,-47.28 139.14,-31.98"/>
<polygon fill="midnightblue" stroke="midnightblue" points="141.66,-34.42 146.85,-25.18 137.03,-29.17 141.66,-34.42"/>
</g>
<!-- Node24 -->
<g id="node24" class="node">
<title>Node24</title>
<g id="a_node24"><a xlink:title=" ">
<polygon fill="white" stroke="#bfbfbf" points="940,-67.5 940,-86.5 998,-86.5 998,-67.5 940,-67.5"/>
<text text-anchor="middle" x="969" y="-74.5" font-family="Helvetica,sans-Serif" font-size="10.00">memory</text>
</a>
</g>
</g>
<!-- Node3&#45;&gt;Node24 -->
<g id="edge33" class="edge">
<title>Node3&#45;&gt;Node24</title>
<path fill="none" stroke="midnightblue" d="M875.83,-123.32C893.72,-114.62 921.48,-101.12 942.05,-91.11"/>
<polygon fill="midnightblue" stroke="midnightblue" points="943.75,-94.18 951.21,-86.65 940.69,-87.88 943.75,-94.18"/>
</g>
<!-- Node15&#45;&gt;Node4 -->
<g id="edge18" class="edge">
<title>Node15&#45;&gt;Node4</title>
<path fill="none" stroke="midnightblue" d="M1111.77,-67.48C1133.85,-57.45 1170.72,-40.7 1196.14,-29.15"/>
<polygon fill="midnightblue" stroke="midnightblue" points="1197.61,-32.33 1205.27,-25.01 1194.71,-25.96 1197.61,-32.33"/>
</g>
<!-- Node15&#45;&gt;Node8 -->
<g id="edge17" class="edge">
<title>Node15&#45;&gt;Node8</title>
<path fill="none" stroke="midnightblue" d="M1053.95,-69.18C1049.26,-68.42 1044.52,-67.67 1040,-67 911.21,-47.82 758.08,-29.46 686.56,-21.15"/>
<polygon fill="midnightblue" stroke="midnightblue" points="686.55,-17.62 676.21,-19.95 685.74,-24.57 686.55,-17.62"/>
</g>
<!-- Node16 -->
<g id="node16" class="node">
<title>Node16</title>
<g id="a_node16"><a xlink:title=" ">
<polygon fill="white" stroke="#bfbfbf" points="1047.5,-0.5 1047.5,-30.5 1160.5,-30.5 1160.5,-0.5 1047.5,-0.5"/>
<text text-anchor="start" x="1055.5" y="-18.5" font-family="Helvetica,sans-Serif" font-size="10.00">websocketpp/config</text>
<text text-anchor="middle" x="1104" y="-7.5" font-family="Helvetica,sans-Serif" font-size="10.00">/asio_no_tls.hpp</text>
</a>
</g>
</g>
<!-- Node15&#45;&gt;Node16 -->
<g id="edge15" class="edge">
<title>Node15&#45;&gt;Node16</title>
<path fill="none" stroke="midnightblue" d="M1094.58,-67.48C1095.88,-60.4 1097.81,-49.97 1099.58,-40.39"/>
<polygon fill="midnightblue" stroke="midnightblue" points="1103.03,-40.99 1101.41,-30.52 1096.15,-39.72 1103.03,-40.99"/>
</g>
<!-- Node17 -->
<g id="node17" class="node">
<title>Node17</title>
<g id="a_node17"><a xlink:title=" ">
<polygon fill="white" stroke="#bfbfbf" points="895,-6 895,-25 1029,-25 1029,-6 895,-6"/>
<text text-anchor="middle" x="962" y="-13" font-family="Helvetica,sans-Serif" font-size="10.00">websocketpp/server.hpp</text>
</a>
</g>
</g>
<!-- Node15&#45;&gt;Node17 -->
<g id="edge16" class="edge">
<title>Node15&#45;&gt;Node17</title>
<path fill="none" stroke="midnightblue" d="M1074.23,-67.48C1052.15,-57.45 1015.28,-40.7 989.86,-29.15"/>
<polygon fill="midnightblue" stroke="midnightblue" points="991.29,-25.96 980.73,-25.01 988.39,-32.33 991.29,-25.96"/>
</g>
<!-- Node15&#45;&gt;Node18 -->
<g id="edge19" class="edge">
<title>Node15&#45;&gt;Node18</title>
<path fill="none" stroke="midnightblue" d="M1053.98,-68.99C1049.28,-68.26 1044.54,-67.57 1040,-67 848.41,-42.81 794.18,-78.49 607,-31 604.7,-30.42 602.35,-29.69 600.03,-28.87"/>
<polygon fill="midnightblue" stroke="midnightblue" points="601.33,-25.62 590.75,-25.14 598.72,-32.11 601.33,-25.62"/>
</g>
<!-- Node19&#45;&gt;Node4 -->
<g id="edge21" class="edge">
<title>Node19&#45;&gt;Node4</title>
<path fill="none" stroke="midnightblue" d="M1185.45,-67.48C1192.2,-58.55 1202.97,-44.31 1211.41,-33.14"/>
<polygon fill="midnightblue" stroke="midnightblue" points="1214.32,-35.1 1217.56,-25.01 1208.74,-30.87 1214.32,-35.1"/>
</g>
<!-- Node19&#45;&gt;Node8 -->
<g id="edge22" class="edge">
<title>Node19&#45;&gt;Node8</title>
<path fill="none" stroke="midnightblue" d="M1149.62,-68.64C1146.72,-68.03 1143.81,-67.47 1141,-67 973.34,-38.72 770.87,-24.07 686.24,-18.81"/>
<polygon fill="midnightblue" stroke="midnightblue" points="686.23,-15.31 676.03,-18.19 685.8,-22.29 686.23,-15.31"/>
</g>
<!-- Node19&#45;&gt;Node20 -->
<g id="edge23" class="edge">
<title>Node19&#45;&gt;Node20</title>
<path fill="none" stroke="midnightblue" d="M1205.22,-67.48C1237.02,-57.14 1290.77,-39.66 1326.32,-28.1"/>
<polygon fill="midnightblue" stroke="midnightblue" points="1327.4,-31.43 1335.83,-25.01 1325.24,-24.77 1327.4,-31.43"/>
</g>
<!-- Node21&#45;&gt;Node4 -->
<g id="edge30" class="edge">
<title>Node21&#45;&gt;Node4</title>
<path fill="none" stroke="midnightblue" d="M241.64,-70.63C257,-69.3 273.63,-67.98 289,-67 679.65,-42.12 781.92,-89.24 1169,-31 1176.52,-29.87 1184.49,-28.11 1191.96,-26.19"/>
<polygon fill="midnightblue" stroke="midnightblue" points="1193.02,-29.54 1201.75,-23.54 1191.18,-22.78 1193.02,-29.54"/>
</g>
<!-- Node21&#45;&gt;Node8 -->
<g id="edge25" class="edge">
<title>Node21&#45;&gt;Node8</title>
<path fill="none" stroke="midnightblue" d="M241.57,-68.71C246.45,-68.11 251.31,-67.54 256,-67 411.8,-49.14 454.28,-66.61 607,-31 610.07,-30.28 613.22,-29.39 616.34,-28.4"/>
<polygon fill="midnightblue" stroke="midnightblue" points="617.77,-31.62 626.06,-25.02 615.46,-25 617.77,-31.62"/>
</g>
<!-- Node21&#45;&gt;Node13 -->
<g id="edge26" class="edge">
<title>Node21&#45;&gt;Node13</title>
<path fill="none" stroke="midnightblue" d="M158.8,-67.44C132.78,-58.78 91.84,-44.75 57,-31 55.4,-30.37 53.76,-29.7 52.11,-29.02"/>
<polygon fill="midnightblue" stroke="midnightblue" points="53.32,-25.73 42.74,-25.03 50.57,-32.17 53.32,-25.73"/>
</g>
<!-- Node21&#45;&gt;Node14 -->
<g id="edge31" class="edge">
<title>Node21&#45;&gt;Node14</title>
<path fill="none" stroke="midnightblue" d="M171.53,-67.48C156.32,-57.84 131.31,-42.02 113.2,-30.55"/>
<polygon fill="midnightblue" stroke="midnightblue" points="114.76,-27.4 104.44,-25.01 111.02,-33.31 114.76,-27.4"/>
</g>
<!-- Node21&#45;&gt;Node18 -->
<g id="edge28" class="edge">
<title>Node21&#45;&gt;Node18</title>
<path fill="none" stroke="midnightblue" d="M240.73,-67.48C322.49,-54.97 472.51,-32.02 539.78,-21.73"/>
<polygon fill="midnightblue" stroke="midnightblue" points="540.49,-25.17 549.85,-20.19 539.43,-18.25 540.49,-25.17"/>
</g>
<!-- Node21&#45;&gt;Node22 -->
<g id="edge27" class="edge">
<title>Node21&#45;&gt;Node22</title>
<path fill="none" stroke="midnightblue" d="M181.13,-67.48C177.2,-58.82 171,-45.15 166.01,-34.15"/>
<polygon fill="midnightblue" stroke="midnightblue" points="169.18,-32.67 161.86,-25.01 162.81,-35.56 169.18,-32.67"/>
</g>
<!-- Node23 -->
<g id="node23" class="node">
<title>Node23</title>
<g id="a_node23"><a xlink:title=" ">
<polygon fill="white" stroke="#bfbfbf" points="199.5,-6 199.5,-25 306.5,-25 306.5,-6 199.5,-6"/>
<text text-anchor="middle" x="253" y="-13" font-family="Helvetica,sans-Serif" font-size="10.00">condition_variable</text>
</a>
</g>
</g>
<!-- Node21&#45;&gt;Node23 -->
<g id="edge29" class="edge">
<title>Node21&#45;&gt;Node23</title>
<path fill="none" stroke="midnightblue" d="M194.74,-67.48C205.35,-58.2 222.52,-43.17 235.48,-31.83"/>
<polygon fill="midnightblue" stroke="midnightblue" points="238.05,-34.23 243.28,-25.01 233.44,-28.96 238.05,-34.23"/>
</g>
<!-- Node25&#45;&gt;Node12 -->
<g id="edge37" class="edge">
<title>Node25&#45;&gt;Node12</title>
<path fill="none" stroke="midnightblue" d="M1477.29,-123.08C1480.85,-115.69 1486.02,-104.95 1490.42,-95.81"/>
<polygon fill="midnightblue" stroke="midnightblue" points="1493.6,-97.28 1494.79,-86.75 1487.29,-94.24 1493.6,-97.28"/>
</g>
<!-- Node26&#45;&gt;Node3 -->
<g id="edge39" class="edge">
<title>Node26&#45;&gt;Node3</title>
<path fill="none" stroke="midnightblue" d="M1116.24,-181.43C1059.48,-171.01 949.43,-150.79 893.09,-140.45"/>
<polygon fill="midnightblue" stroke="midnightblue" points="893.69,-137 883.22,-138.63 892.42,-143.88 893.69,-137"/>
</g>
<!-- Node26&#45;&gt;Node4 -->
<g id="edge41" class="edge">
<title>Node26&#45;&gt;Node4</title>
<path fill="none" stroke="midnightblue" d="M1163.06,-179.48C1182.48,-163.73 1222.08,-127.91 1237,-87 1243.25,-69.88 1238.09,-49.27 1232.54,-34.77"/>
<polygon fill="midnightblue" stroke="midnightblue" points="1235.7,-33.27 1228.58,-25.43 1229.26,-36.01 1235.7,-33.27"/>
</g>
<!-- Node26&#45;&gt;Node6 -->
<g id="edge40" class="edge">
<title>Node26&#45;&gt;Node6</title>
<path fill="none" stroke="midnightblue" d="M1187.55,-181.22C1214.38,-174.77 1251.06,-163.01 1278,-143 1294.84,-130.49 1308.38,-110.43 1316.73,-95.9"/>
<polygon fill="midnightblue" stroke="midnightblue" points="1319.93,-97.33 1321.66,-86.88 1313.79,-93.97 1319.93,-97.33"/>
</g>
</g>
</svg>
        <g id="navigator" transform="translate(0 0)" fill="#404254">
                <rect fill="#f2f5e9" fill-opacity="0.5" stroke="#606060" stroke-width=".5" x="0" y="0" width="60" height="60"/>
                <use id="zoomplus" xlink:href="#zoomPlus" x="17" y="9" onmousedown="handleZoom(evt,'in')"/>
                <use id="zoomminus" xlink:href="#zoomMin" x="42" y="9" onmousedown="handleZoom(evt,'out')"/>
                <use id="reset" xlink:href="#resetDef" x="30" y="36" onmousedown="handleReset()"/>
                <g id="arrowUp" xlink:href="#dirArrow" transform="translate(30 24)" onmousedown="handlePan(0,-1)">
                  <use xlink:href="#rim" fill="#404040">
                        <set attributeName="fill" to="#808080" begin="arrowUp.mouseover" end="arrowUp.mouseout"/>
                  </use>
                  <path fill="none" stroke="white" stroke-width="1.5" d="M0,-3.0v7 M-2.5,-0.5L0,-3.0L2.5,-0.5"/>
                </g>
                <g id="arrowRight" xlink:href="#dirArrow" transform="rotate(90) translate(36 -43)" onmousedown="handlePan(1,0)">
                  <use xlink:href="#rim" fill="#404040">
                        <set attributeName="fill" to="#808080" begin="arrowRight.mouseover" end="arrowRight.mouseout"/>
                  </use>
                  <path fill="none" stroke="white" stroke-width="1.5" d="M0,-3.0v7 M-2.5,-0.5L0,-3.0L2.5,-0.5"/>
                </g>
                <g id="arrowDown" xlink:href="#dirArrow" transform="rotate(180) translate(-30 -48)" onmousedown="handlePan(0,1)">
                  <use xlink:href="#rim" fill="#404040">
                        <set attributeName="fill" to="#808080" begin="arrowDown.mouseover" end="arrowDown.mouseout"/>
                  </use>
                  <path fill="none" stroke="white" stroke-width="1.5" d="M0,-3.0v7 M-2.5,-0.5L0,-3.0L2.5,-0.5"/>
                </g>
                <g id="arrowLeft" xlink:href="#dirArrow" transform="rotate(270) translate(-36 17)" onmousedown="handlePan(-1,0)">
                  <use xlink:href="#rim" fill="#404040">
                        <set attributeName="fill" to="#808080" begin="arrowLeft.mouseover" end="arrowLeft.mouseout"/>
                  </use>
                  <path fill="none" stroke="white" stroke-width="1.5" d="M0,-3.0v7 M-2.5,-0.5L0,-3.0L2.5,-0.5"/>
                </g>
        </g>
        <svg viewBox="0 0 15 15" width="100%" height="30px" preserveAspectRatio="xMaxYMin meet">
         <g id="arrow_out" transform="scale(0.3 0.3)">
          <a xlink:href="TransactionHistory_8h__incl_org.svg" target="_base">
           <rect id="button" ry="5" rx="5" y="6" x="6" height="38" width="38"
                fill="#f2f5e9" fill-opacity="0.5" stroke="#606060" stroke-width="1.0"/>
           <path id="arrow"
             d="M 11.500037,31.436501 C 11.940474,20.09759 22.043105,11.32322 32.158766,21.979434 L 37.068811,17.246167 C 37.068811,17.246167 37.088388,32 37.088388,32 L 22.160133,31.978069 C 22.160133,31.978069 26.997745,27.140456 26.997745,27.140456 C 18.528582,18.264221 13.291696,25.230495 11.500037,31.436501 z"
             style="fill:#404040;"/>
          </a>
         </g>
        </svg>
</svg>
