<?xml version="1.0" encoding="UTF-8" standalone="no"?>
<!DOCTYPE svg PUBLIC "-//W3C//DTD SVG 1.1//EN"
 "http://www.w3.org/Graphics/SVG/1.1/DTD/svg11.dtd">
<!-- Generated by graphviz version 2.43.0 (0)
 -->
<!-- Title: backend/game/TransactionHistory.h Pages: 1 -->
<!--zoomable 609 -->
<svg id="main" version="1.1" xmlns="http://www.w3.org/2000/svg" xmlns:xlink="http://www.w3.org/1999/xlink" xml:space="preserve" onload="init(evt)">
<style type="text/css"><![CDATA[
.edge:hover path { stroke: red; }
.edge:hover polygon { stroke: red; fill: red; }
]]></style>
<script type="text/javascript"><![CDATA[
var edges = document.getElementsByTagName('g');
if (edges && edges.length) {
  for (var i=0;i<edges.length;i++) {
    if (edges[i].id.substr(0,4)=='edge') {
      edges[i].setAttribute('class','edge');
    }
  }
}
]]></script>
        <defs>
                <circle id="rim" cx="0" cy="0" r="7"/>
                <circle id="rim2" cx="0" cy="0" r="3.5"/>
                <g id="zoomPlus">
                        <use xlink:href="#rim" fill="#404040">
                                <set attributeName="fill" to="#808080" begin="zoomplus.mouseover" end="zoomplus.mouseout"/>
                        </use>
                        <path d="M-4,0h8M0,-4v8" fill="none" stroke="white" stroke-width="1.5" pointer-events="none"/>
                </g>
                <g id="zoomMin">
                        <use xlink:href="#rim" fill="#404040">
                                <set attributeName="fill" to="#808080" begin="zoomminus.mouseover" end="zoomminus.mouseout"/>
                        </use>
                        <path d="M-4,0h8" fill="none" stroke="white" stroke-width="1.5" pointer-events="none"/>
                </g>
                <g id="dirArrow">
                        <path fill="none" stroke="white" stroke-width="1.5" d="M0,-3.0v7 M-2.5,-0.5L0,-3.0L2.5,-0.5"/>
                </g>
               <g id="resetDef">
                       <use xlink:href="#rim2" fill="#404040">
                               <set attributeName="fill" to="#808080" begin="reset.mouseover" end="reset.mouseout"/>
                       </use>
               </g>
        </defs>

<script type="text/javascript">
var viewWidth = 1920;
var viewHeight = 609;
var sectionId = 'dynsection-1';
</script>
<script xlink:href="svgpan.js"/>
<svg id="graph" class="graph">
<g id="viewport">
<title>backend/game/TransactionHistory.h</title>
<polygon fill="white" stroke="transparent" points="-4,4 -4,-605 1915.5,-605 1915.5,4 -4,4"/>
<!-- Node1 -->
<g id="node1" class="node">
<title>Node1</title>
<g id="a_node1"><a xlink:title="Maintains history of financial transactions.">
<polygon fill="#bfbfbf" stroke="black" points="1362.5,-570.5 1362.5,-600.5 1508.5,-600.5 1508.5,-570.5 1362.5,-570.5"/>
<text text-anchor="start" x="1370.5" y="-588.5" font-family="Helvetica,sans-Serif" font-size="10.00">backend/game/Transaction</text>
<text text-anchor="middle" x="1435.5" y="-577.5" font-family="Helvetica,sans-Serif" font-size="10.00">History.h</text>
</a>
</g>
</g>
<!-- Node2 -->
<g id="node2" class="node">
<title>Node2</title>
<g id="a_node2"><a xlink:href="SalesFloor_8h.html" target="_top" xlink:title="Sales floor management for customer interactions and plant sales.">
<polygon fill="white" stroke="black" points="1377,-503.5 1377,-533.5 1494,-533.5 1494,-503.5 1377,-503.5"/>
<text text-anchor="start" x="1385" y="-521.5" font-family="Helvetica,sans-Serif" font-size="10.00">backend/greenhouse</text>
<text text-anchor="middle" x="1435.5" y="-510.5" font-family="Helvetica,sans-Serif" font-size="10.00">/SalesFloor.h</text>
</a>
</g>
</g>
<!-- Node1&#45;&gt;Node2 -->
<g id="edge1" class="edge">
<title>Node1&#45;&gt;Node2</title>
<path fill="none" stroke="midnightblue" d="M1435.5,-560.11C1435.5,-551.15 1435.5,-541.32 1435.5,-533.58"/>
<polygon fill="midnightblue" stroke="midnightblue" points="1432,-560.4 1435.5,-570.4 1439,-560.4 1432,-560.4"/>
</g>
<!-- Node3 -->
<g id="node3" class="node">
<title>Node3</title>
<g id="a_node3"><a xlink:href="CustomerVisitor_8h.html" target="_top" xlink:title="Abstract visitor class for plant recommendation strategies for different customer types.">
<polygon fill="white" stroke="black" points="978.5,-436.5 978.5,-466.5 1134.5,-466.5 1134.5,-436.5 978.5,-436.5"/>
<text text-anchor="start" x="986.5" y="-454.5" font-family="Helvetica,sans-Serif" font-size="10.00">backend/customer/Customer</text>
<text text-anchor="middle" x="1056.5" y="-443.5" font-family="Helvetica,sans-Serif" font-size="10.00">Visitor.h</text>
</a>
</g>
</g>
<!-- Node2&#45;&gt;Node3 -->
<g id="edge2" class="edge">
<title>Node2&#45;&gt;Node3</title>
<path fill="none" stroke="midnightblue" d="M1366.48,-505.66C1301.02,-494.44 1202.79,-477.59 1134.52,-465.88"/>
<polygon fill="midnightblue" stroke="midnightblue" points="1366.25,-509.17 1376.7,-507.42 1367.43,-502.27 1366.25,-509.17"/>
</g>
<!-- Node33 -->
<g id="node33" class="node">
<title>Node33</title>
<g id="a_node33"><a xlink:href="Greenhouse_8h.html" target="_top" xlink:title="Main greenhouse class managing plant inventory and staff.">
<polygon fill="white" stroke="black" points="1464,-436.5 1464,-466.5 1581,-466.5 1581,-436.5 1464,-436.5"/>
<text text-anchor="start" x="1472" y="-454.5" font-family="Helvetica,sans-Serif" font-size="10.00">backend/greenhouse</text>
<text text-anchor="middle" x="1522.5" y="-443.5" font-family="Helvetica,sans-Serif" font-size="10.00">/Greenhouse.h</text>
</a>
</g>
</g>
<!-- Node2&#45;&gt;Node33 -->
<g id="edge41" class="edge">
<title>Node2&#45;&gt;Node33</title>
<path fill="none" stroke="midnightblue" d="M1462.71,-497.17C1476.02,-487.23 1491.7,-475.51 1503.66,-466.58"/>
<polygon fill="midnightblue" stroke="midnightblue" points="1460.29,-494.61 1454.38,-503.4 1464.48,-500.21 1460.29,-494.61"/>
</g>
<!-- Node34 -->
<g id="node34" class="node">
<title>Node34</title>
<g id="a_node34"><a xlink:href="Manager_8h.html" target="_top" xlink:title="Manager class for coordinating plant sales and customer interactions.">
<polygon fill="white" stroke="black" points="1464,-369.5 1464,-399.5 1581,-399.5 1581,-369.5 1464,-369.5"/>
<text text-anchor="start" x="1472" y="-387.5" font-family="Helvetica,sans-Serif" font-size="10.00">backend/greenhouse</text>
<text text-anchor="middle" x="1522.5" y="-376.5" font-family="Helvetica,sans-Serif" font-size="10.00">/Manager.h</text>
</a>
</g>
</g>
<!-- Node2&#45;&gt;Node34 -->
<g id="edge44" class="edge">
<title>Node2&#45;&gt;Node34</title>
<path fill="none" stroke="midnightblue" d="M1437.17,-493.05C1439.33,-475.9 1444.25,-453.06 1455.5,-436 1465.52,-420.8 1481.73,-408.4 1495.69,-399.7"/>
<polygon fill="midnightblue" stroke="midnightblue" points="1433.65,-493.09 1436.12,-503.39 1440.61,-493.8 1433.65,-493.09"/>
</g>
<!-- Node4 -->
<g id="node4" class="node">
<title>Node4</title>
<g id="a_node4"><a xlink:href="Customer_8h.html" target="_top" xlink:title="Abstract base class for all customer types in the plant shop game.">
<polygon fill="white" stroke="black" points="499.5,-375 499.5,-394 663.5,-394 663.5,-375 499.5,-375"/>
<text text-anchor="middle" x="581.5" y="-382" font-family="Helvetica,sans-Serif" font-size="10.00">backend/customer/Customer.h</text>
</a>
</g>
</g>
<!-- Node3&#45;&gt;Node4 -->
<g id="edge3" class="edge">
<title>Node3&#45;&gt;Node4</title>
<path fill="none" stroke="midnightblue" d="M968.3,-439.19C891.45,-429.23 777.03,-414.15 677.5,-400 664.32,-398.13 650.13,-396.03 636.81,-394.02"/>
<polygon fill="midnightblue" stroke="midnightblue" points="968.05,-442.69 978.42,-440.5 968.95,-435.74 968.05,-442.69"/>
</g>
<!-- Node10 -->
<g id="node10" class="node">
<title>Node10</title>
<g id="a_node10"><a xlink:href="CustomerBuilder_8h.html" target="_top" xlink:title="Abstract builder interface for creating Customer objects.">
<polygon fill="white" stroke="black" points="867.5,-302.5 867.5,-332.5 1023.5,-332.5 1023.5,-302.5 867.5,-302.5"/>
<text text-anchor="start" x="875.5" y="-320.5" font-family="Helvetica,sans-Serif" font-size="10.00">backend/customer/Customer</text>
<text text-anchor="middle" x="945.5" y="-309.5" font-family="Helvetica,sans-Serif" font-size="10.00">Builder.h</text>
</a>
</g>
</g>
<!-- Node3&#45;&gt;Node10 -->
<g id="edge35" class="edge">
<title>Node3&#45;&gt;Node10</title>
<path fill="none" stroke="midnightblue" d="M968.14,-450.24C876.84,-447.86 743.17,-437.79 710.5,-400 701.49,-389.58 701.84,-379.72 710.5,-369 715.64,-362.64 802.59,-345.14 869.24,-332.52"/>
<polygon fill="midnightblue" stroke="midnightblue" points="968.14,-453.74 978.22,-450.47 968.31,-446.74 968.14,-453.74"/>
</g>
<!-- Node12 -->
<g id="node12" class="node">
<title>Node12</title>
<g id="a_node12"><a xlink:href="Director_8h.html" target="_top" xlink:title="Director class for coordinating customer construction using builders and visitors.">
<polygon fill="white" stroke="black" points="1212.5,-241 1212.5,-260 1368.5,-260 1368.5,-241 1212.5,-241"/>
<text text-anchor="middle" x="1290.5" y="-248" font-family="Helvetica,sans-Serif" font-size="10.00">backend/customer/Director.h</text>
</a>
</g>
</g>
<!-- Node3&#45;&gt;Node12 -->
<g id="edge37" class="edge">
<title>Node3&#45;&gt;Node12</title>
<path fill="none" stroke="midnightblue" d="M1144.79,-450.84C1239.81,-449.1 1381.99,-439.69 1416.5,-400 1462.31,-347.31 1352.23,-283 1307.95,-260.1"/>
<polygon fill="midnightblue" stroke="midnightblue" points="1144.55,-447.35 1134.6,-451 1144.66,-454.34 1144.55,-447.35"/>
</g>
<!-- Node29 -->
<g id="node29" class="node">
<title>Node29</title>
<g id="a_node29"><a xlink:href="CustomerVisitor_8cpp.html" target="_top" xlink:title="Implements the CustomerVisitor base class functionality.">
<polygon fill="white" stroke="black" points="719.5,-369.5 719.5,-399.5 875.5,-399.5 875.5,-369.5 719.5,-369.5"/>
<text text-anchor="start" x="727.5" y="-387.5" font-family="Helvetica,sans-Serif" font-size="10.00">backend/customer/Customer</text>
<text text-anchor="middle" x="797.5" y="-376.5" font-family="Helvetica,sans-Serif" font-size="10.00">Visitor.cpp</text>
</a>
</g>
</g>
<!-- Node3&#45;&gt;Node29 -->
<g id="edge36" class="edge">
<title>Node3&#45;&gt;Node29</title>
<path fill="none" stroke="midnightblue" d="M990.69,-433.98C948.39,-423.37 894.01,-409.72 853.73,-399.61"/>
<polygon fill="midnightblue" stroke="midnightblue" points="990.07,-437.44 1000.62,-436.48 991.77,-430.65 990.07,-437.44"/>
</g>
<!-- Node30 -->
<g id="node30" class="node">
<title>Node30</title>
<g id="a_node30"><a xlink:href="VisitEasyCustomer_8h.html" target="_top" xlink:title="Visitor for creating plant recommendations for easy&#45;maintenance customers.">
<polygon fill="white" stroke="black" points="893.5,-369.5 893.5,-399.5 1047.5,-399.5 1047.5,-369.5 893.5,-369.5"/>
<text text-anchor="start" x="901.5" y="-387.5" font-family="Helvetica,sans-Serif" font-size="10.00">backend/customer/VisitEasy</text>
<text text-anchor="middle" x="970.5" y="-376.5" font-family="Helvetica,sans-Serif" font-size="10.00">Customer.h</text>
</a>
</g>
</g>
<!-- Node3&#45;&gt;Node30 -->
<g id="edge38" class="edge">
<title>Node3&#45;&gt;Node30</title>
<path fill="none" stroke="midnightblue" d="M1029.6,-430.17C1016.45,-420.23 1000.95,-408.51 989.12,-399.58"/>
<polygon fill="midnightblue" stroke="midnightblue" points="1027.75,-433.16 1037.84,-436.4 1031.97,-427.57 1027.75,-433.16"/>
</g>
<!-- Node31 -->
<g id="node31" class="node">
<title>Node31</title>
<g id="a_node31"><a xlink:href="VisitHighCustomer_8h.html" target="_top" xlink:title="Visitor for creating plant recommendations for customers preferring challenging plants.">
<polygon fill="white" stroke="black" points="1066,-369.5 1066,-399.5 1219,-399.5 1219,-369.5 1066,-369.5"/>
<text text-anchor="start" x="1074" y="-387.5" font-family="Helvetica,sans-Serif" font-size="10.00">backend/customer/VisitHigh</text>
<text text-anchor="middle" x="1142.5" y="-376.5" font-family="Helvetica,sans-Serif" font-size="10.00">Customer.h</text>
</a>
</g>
</g>
<!-- Node3&#45;&gt;Node31 -->
<g id="edge39" class="edge">
<title>Node3&#45;&gt;Node31</title>
<path fill="none" stroke="midnightblue" d="M1083.4,-430.17C1096.55,-420.23 1112.05,-408.51 1123.88,-399.58"/>
<polygon fill="midnightblue" stroke="midnightblue" points="1081.03,-427.57 1075.16,-436.4 1085.25,-433.16 1081.03,-427.57"/>
</g>
<!-- Node32 -->
<g id="node32" class="node">
<title>Node32</title>
<g id="a_node32"><a xlink:href="VisitMediumCustomer_8h_source.html" target="_top" xlink:title=" ">
<polygon fill="white" stroke="black" points="1237.5,-369.5 1237.5,-399.5 1407.5,-399.5 1407.5,-369.5 1237.5,-369.5"/>
<text text-anchor="start" x="1245.5" y="-387.5" font-family="Helvetica,sans-Serif" font-size="10.00">backend/customer/VisitMedium</text>
<text text-anchor="middle" x="1322.5" y="-376.5" font-family="Helvetica,sans-Serif" font-size="10.00">Customer.h</text>
</a>
</g>
</g>
<!-- Node3&#45;&gt;Node32 -->
<g id="edge40" class="edge">
<title>Node3&#45;&gt;Node32</title>
<path fill="none" stroke="midnightblue" d="M1123.81,-434.05C1167.3,-423.43 1223.3,-409.74 1264.75,-399.61"/>
<polygon fill="midnightblue" stroke="midnightblue" points="1122.77,-430.7 1113.89,-436.48 1124.44,-437.5 1122.77,-430.7"/>
</g>
<!-- Node5 -->
<g id="node5" class="node">
<title>Node5</title>
<g id="a_node5"><a xlink:href="AverageCustomer_8h.html" target="_top" xlink:title="Concrete customer class representing moderately experienced plant buyers.">
<polygon fill="white" stroke="black" points="155,-302.5 155,-332.5 304,-332.5 304,-302.5 155,-302.5"/>
<text text-anchor="start" x="163" y="-320.5" font-family="Helvetica,sans-Serif" font-size="10.00">backend/customer/Average</text>
<text text-anchor="middle" x="229.5" y="-309.5" font-family="Helvetica,sans-Serif" font-size="10.00">Customer.h</text>
</a>
</g>
</g>
<!-- Node4&#45;&gt;Node5 -->
<g id="edge4" class="edge">
<title>Node4&#45;&gt;Node5</title>
<path fill="none" stroke="midnightblue" d="M525.1,-373.08C465.24,-362.03 370.36,-344.51 304.3,-332.31"/>
<polygon fill="midnightblue" stroke="midnightblue" points="524.65,-376.56 535.12,-374.94 525.92,-369.68 524.65,-376.56"/>
</g>
<!-- Node9 -->
<g id="node9" class="node">
<title>Node9</title>
<g id="a_node9"><a xlink:href="Customer_8cpp.html" target="_top" xlink:title="Implements the functionality defined in the Customer class.">
<polygon fill="white" stroke="black" points="673.5,-308 673.5,-327 849.5,-327 849.5,-308 673.5,-308"/>
<text text-anchor="middle" x="761.5" y="-315" font-family="Helvetica,sans-Serif" font-size="10.00">backend/customer/Customer.cpp</text>
</a>
</g>
</g>
<!-- Node4&#45;&gt;Node9 -->
<g id="edge8" class="edge">
<title>Node4&#45;&gt;Node9</title>
<path fill="none" stroke="midnightblue" d="M614.91,-371.44C650.62,-358.54 706.33,-338.42 737.79,-327.06"/>
<polygon fill="midnightblue" stroke="midnightblue" points="613.62,-368.18 605.4,-374.87 616,-374.76 613.62,-368.18"/>
</g>
<!-- Node4&#45;&gt;Node10 -->
<g id="edge9" class="edge">
<title>Node4&#45;&gt;Node10</title>
<path fill="none" stroke="midnightblue" d="M639.41,-373.16C701.08,-362.15 799.02,-344.66 867.46,-332.44"/>
<polygon fill="midnightblue" stroke="midnightblue" points="638.69,-369.73 629.46,-374.94 639.92,-376.62 638.69,-369.73"/>
</g>
<!-- Node18 -->
<g id="node18" class="node">
<title>Node18</title>
<g id="a_node18"><a xlink:href="Game_8h.html" target="_top" xlink:title="Header file for Game class &#45; Main game facade.">
<polygon fill="white" stroke="black" points="1434,-241 1434,-260 1563,-260 1563,-241 1434,-241"/>
<text text-anchor="middle" x="1498.5" y="-248" font-family="Helvetica,sans-Serif" font-size="10.00">backend/game/Game.h</text>
</a>
</g>
</g>
<!-- Node4&#45;&gt;Node18 -->
<g id="edge34" class="edge">
<title>Node4&#45;&gt;Node18</title>
<path fill="none" stroke="midnightblue" d="M667.57,-373.82C681.91,-372.21 696.62,-370.56 710.5,-369 853.61,-352.96 889.95,-353.41 1032.5,-333 1188.6,-310.65 1372.67,-275.98 1454.96,-260.04"/>
<polygon fill="midnightblue" stroke="midnightblue" points="666.76,-370.39 657.21,-374.98 667.54,-377.34 666.76,-370.39"/>
</g>
<!-- Node25 -->
<g id="node25" class="node">
<title>Node25</title>
<g id="a_node25"><a xlink:href="GreenFingerCustomer_8h.html" target="_top" xlink:title="Concrete customer class representing expert plant enthusiasts.">
<polygon fill="white" stroke="black" points="321.5,-302.5 321.5,-332.5 489.5,-332.5 489.5,-302.5 321.5,-302.5"/>
<text text-anchor="start" x="329.5" y="-320.5" font-family="Helvetica,sans-Serif" font-size="10.00">backend/customer/GreenFinger</text>
<text text-anchor="middle" x="405.5" y="-309.5" font-family="Helvetica,sans-Serif" font-size="10.00">Customer.h</text>
</a>
</g>
</g>
<!-- Node4&#45;&gt;Node25 -->
<g id="edge28" class="edge">
<title>Node4&#45;&gt;Node25</title>
<path fill="none" stroke="midnightblue" d="M548.59,-371.35C518.76,-360.33 474.8,-344.09 443.48,-332.53"/>
<polygon fill="midnightblue" stroke="midnightblue" points="547.54,-374.69 558.13,-374.87 549.96,-368.12 547.54,-374.69"/>
</g>
<!-- Node27 -->
<g id="node27" class="node">
<title>Node27</title>
<g id="a_node27"><a xlink:href="IgnorantCustomer_8h.html" target="_top" xlink:title="Concrete customer class representing inexperienced plant buyers.">
<polygon fill="white" stroke="black" points="507,-302.5 507,-332.5 656,-332.5 656,-302.5 507,-302.5"/>
<text text-anchor="start" x="515" y="-320.5" font-family="Helvetica,sans-Serif" font-size="10.00">backend/customer/Ignorant</text>
<text text-anchor="middle" x="581.5" y="-309.5" font-family="Helvetica,sans-Serif" font-size="10.00">Customer.h</text>
</a>
</g>
</g>
<!-- Node4&#45;&gt;Node27 -->
<g id="edge31" class="edge">
<title>Node4&#45;&gt;Node27</title>
<path fill="none" stroke="midnightblue" d="M581.5,-364.41C581.5,-354.22 581.5,-341.9 581.5,-332.59"/>
<polygon fill="midnightblue" stroke="midnightblue" points="578,-364.73 581.5,-374.73 585,-364.73 578,-364.73"/>
</g>
<!-- Node6 -->
<g id="node6" class="node">
<title>Node6</title>
<g id="a_node6"><a xlink:href="AverageCustomer_8cpp.html" target="_top" xlink:title="Implements the functionality defined in the AverageCustomer class.">
<polygon fill="white" stroke="black" points="0,-235.5 0,-265.5 149,-265.5 149,-235.5 0,-235.5"/>
<text text-anchor="start" x="8" y="-253.5" font-family="Helvetica,sans-Serif" font-size="10.00">backend/customer/Average</text>
<text text-anchor="middle" x="74.5" y="-242.5" font-family="Helvetica,sans-Serif" font-size="10.00">Customer.cpp</text>
</a>
</g>
</g>
<!-- Node5&#45;&gt;Node6 -->
<g id="edge5" class="edge">
<title>Node5&#45;&gt;Node6</title>
<path fill="none" stroke="midnightblue" d="M186.35,-298.41C161.61,-288.03 131,-275.2 108.07,-265.58"/>
<polygon fill="midnightblue" stroke="midnightblue" points="185.29,-301.76 195.87,-302.4 188,-295.3 185.29,-301.76"/>
</g>
<!-- Node7 -->
<g id="node7" class="node">
<title>Node7</title>
<g id="a_node7"><a xlink:href="AverageCustomerBuilder_8h.html" target="_top" xlink:title="Builder class for creating AverageCustomer objects with randomized dialogues.">
<polygon fill="white" stroke="black" points="519,-235.5 519,-265.5 668,-265.5 668,-235.5 519,-235.5"/>
<text text-anchor="start" x="527" y="-253.5" font-family="Helvetica,sans-Serif" font-size="10.00">backend/customer/Average</text>
<text text-anchor="middle" x="593.5" y="-242.5" font-family="Helvetica,sans-Serif" font-size="10.00">CustomerBuilder.h</text>
</a>
</g>
</g>
<!-- Node5&#45;&gt;Node7 -->
<g id="edge6" class="edge">
<title>Node5&#45;&gt;Node7</title>
<path fill="none" stroke="midnightblue" d="M314.17,-301.38C376.09,-290.32 459.29,-275.47 518.75,-264.85"/>
<polygon fill="midnightblue" stroke="midnightblue" points="313.27,-297.99 304.04,-303.19 314.5,-304.88 313.27,-297.99"/>
</g>
<!-- Node8 -->
<g id="node8" class="node">
<title>Node8</title>
<g id="a_node8"><a xlink:href="AverageCustomerBuilder_8cpp.html" target="_top" xlink:title="Implements the AverageCustomerBuilder class functionality.">
<polygon fill="white" stroke="black" points="519,-168.5 519,-198.5 668,-198.5 668,-168.5 519,-168.5"/>
<text text-anchor="start" x="527" y="-186.5" font-family="Helvetica,sans-Serif" font-size="10.00">backend/customer/Average</text>
<text text-anchor="middle" x="593.5" y="-175.5" font-family="Helvetica,sans-Serif" font-size="10.00">CustomerBuilder.cpp</text>
</a>
</g>
</g>
<!-- Node7&#45;&gt;Node8 -->
<g id="edge7" class="edge">
<title>Node7&#45;&gt;Node8</title>
<path fill="none" stroke="midnightblue" d="M593.5,-225.11C593.5,-216.15 593.5,-206.32 593.5,-198.58"/>
<polygon fill="midnightblue" stroke="midnightblue" points="590,-225.4 593.5,-235.4 597,-225.4 590,-225.4"/>
</g>
<!-- Node10&#45;&gt;Node7 -->
<g id="edge10" class="edge">
<title>Node10&#45;&gt;Node7</title>
<path fill="none" stroke="midnightblue" d="M859.57,-300.63C800.97,-289.81 724.13,-275.62 668.1,-265.28"/>
<polygon fill="midnightblue" stroke="midnightblue" points="859.09,-304.1 869.55,-302.48 860.36,-297.22 859.09,-304.1"/>
</g>
<!-- Node11 -->
<g id="node11" class="node">
<title>Node11</title>
<g id="a_node11"><a xlink:href="CustomerBuilder_8cpp.html" target="_top" xlink:title="Implements the CustomerBuilder base class functionality.">
<polygon fill="white" stroke="black" points="1038.5,-235.5 1038.5,-265.5 1194.5,-265.5 1194.5,-235.5 1038.5,-235.5"/>
<text text-anchor="start" x="1046.5" y="-253.5" font-family="Helvetica,sans-Serif" font-size="10.00">backend/customer/Customer</text>
<text text-anchor="middle" x="1116.5" y="-242.5" font-family="Helvetica,sans-Serif" font-size="10.00">Builder.cpp</text>
</a>
</g>
</g>
<!-- Node10&#45;&gt;Node11 -->
<g id="edge11" class="edge">
<title>Node10&#45;&gt;Node11</title>
<path fill="none" stroke="midnightblue" d="M992.02,-298.82C1019.5,-288.37 1053.83,-275.32 1079.47,-265.58"/>
<polygon fill="midnightblue" stroke="midnightblue" points="990.71,-295.57 982.6,-302.4 993.2,-302.11 990.71,-295.57"/>
</g>
<!-- Node10&#45;&gt;Node12 -->
<g id="edge12" class="edge">
<title>Node10&#45;&gt;Node12</title>
<path fill="none" stroke="midnightblue" d="M1029.77,-300.62C1097.71,-287.82 1190.63,-270.32 1245.23,-260.03"/>
<polygon fill="midnightblue" stroke="midnightblue" points="1029.11,-297.18 1019.94,-302.48 1030.41,-304.06 1029.11,-297.18"/>
</g>
<!-- Node14 -->
<g id="node14" class="node">
<title>Node14</title>
<g id="a_node14"><a xlink:href="GreenFingerCustomerBuilder_8h.html" target="_top" xlink:title="Builder class for creating GreenFingerCustomer objects with randomized dialogues.">
<polygon fill="white" stroke="black" points="685.5,-235.5 685.5,-265.5 853.5,-265.5 853.5,-235.5 685.5,-235.5"/>
<text text-anchor="start" x="693.5" y="-253.5" font-family="Helvetica,sans-Serif" font-size="10.00">backend/customer/GreenFinger</text>
<text text-anchor="middle" x="769.5" y="-242.5" font-family="Helvetica,sans-Serif" font-size="10.00">CustomerBuilder.h</text>
</a>
</g>
</g>
<!-- Node10&#45;&gt;Node14 -->
<g id="edge14" class="edge">
<title>Node10&#45;&gt;Node14</title>
<path fill="none" stroke="midnightblue" d="M897.62,-298.82C869.33,-288.37 834.01,-275.32 807.61,-265.58"/>
<polygon fill="midnightblue" stroke="midnightblue" points="896.72,-302.21 907.31,-302.4 899.14,-295.65 896.72,-302.21"/>
</g>
<!-- Node16 -->
<g id="node16" class="node">
<title>Node16</title>
<g id="a_node16"><a xlink:href="IgnorantCustomerBuilder_8h.html" target="_top" xlink:title="Builder class for creating IgnorantCustomer objects with randomized dialogues.">
<polygon fill="white" stroke="black" points="871,-235.5 871,-265.5 1020,-265.5 1020,-235.5 871,-235.5"/>
<text text-anchor="start" x="879" y="-253.5" font-family="Helvetica,sans-Serif" font-size="10.00">backend/customer/Ignorant</text>
<text text-anchor="middle" x="945.5" y="-242.5" font-family="Helvetica,sans-Serif" font-size="10.00">CustomerBuilder.h</text>
</a>
</g>
</g>
<!-- Node10&#45;&gt;Node16 -->
<g id="edge16" class="edge">
<title>Node10&#45;&gt;Node16</title>
<path fill="none" stroke="midnightblue" d="M945.5,-292.11C945.5,-283.15 945.5,-273.32 945.5,-265.58"/>
<polygon fill="midnightblue" stroke="midnightblue" points="942,-292.4 945.5,-302.4 949,-292.4 942,-292.4"/>
</g>
<!-- Node10&#45;&gt;Node18 -->
<g id="edge18" class="edge">
<title>Node10&#45;&gt;Node18</title>
<path fill="none" stroke="midnightblue" d="M1033.68,-306.27C1120.99,-296.12 1258.48,-280.09 1377.5,-266 1395.78,-263.84 1415.61,-261.47 1433.82,-259.29"/>
<polygon fill="midnightblue" stroke="midnightblue" points="1033.08,-302.81 1023.55,-307.44 1033.89,-309.77 1033.08,-302.81"/>
</g>
<!-- Node13 -->
<g id="node13" class="node">
<title>Node13</title>
<g id="a_node13"><a xlink:href="Director_8cpp.html" target="_top" xlink:title="Implements the Director class functionality.">
<polygon fill="white" stroke="black" points="1185,-174 1185,-193 1352,-193 1352,-174 1185,-174"/>
<text text-anchor="middle" x="1268.5" y="-181" font-family="Helvetica,sans-Serif" font-size="10.00">backend/customer/Director.cpp</text>
</a>
</g>
</g>
<!-- Node12&#45;&gt;Node13 -->
<g id="edge13" class="edge">
<title>Node12&#45;&gt;Node13</title>
<path fill="none" stroke="midnightblue" d="M1284.21,-230.91C1280,-218.49 1274.67,-202.72 1271.42,-193.13"/>
<polygon fill="midnightblue" stroke="midnightblue" points="1281.01,-232.38 1287.53,-240.73 1287.64,-230.14 1281.01,-232.38"/>
</g>
<!-- Node15 -->
<g id="node15" class="node">
<title>Node15</title>
<g id="a_node15"><a xlink:href="GreenFingerCustomerBuilder_8cpp.html" target="_top" xlink:title="Implements the GreenFingerCustomerBuilder class functionality.">
<polygon fill="white" stroke="black" points="685.5,-168.5 685.5,-198.5 853.5,-198.5 853.5,-168.5 685.5,-168.5"/>
<text text-anchor="start" x="693.5" y="-186.5" font-family="Helvetica,sans-Serif" font-size="10.00">backend/customer/GreenFinger</text>
<text text-anchor="middle" x="769.5" y="-175.5" font-family="Helvetica,sans-Serif" font-size="10.00">CustomerBuilder.cpp</text>
</a>
</g>
</g>
<!-- Node14&#45;&gt;Node15 -->
<g id="edge15" class="edge">
<title>Node14&#45;&gt;Node15</title>
<path fill="none" stroke="midnightblue" d="M769.5,-225.11C769.5,-216.15 769.5,-206.32 769.5,-198.58"/>
<polygon fill="midnightblue" stroke="midnightblue" points="766,-225.4 769.5,-235.4 773,-225.4 766,-225.4"/>
</g>
<!-- Node17 -->
<g id="node17" class="node">
<title>Node17</title>
<g id="a_node17"><a xlink:href="IgnorantCustomerBuilder_8cpp.html" target="_top" xlink:title="Implements the IgnorantCustomerBuilder class functionality.">
<polygon fill="white" stroke="black" points="871,-168.5 871,-198.5 1020,-198.5 1020,-168.5 871,-168.5"/>
<text text-anchor="start" x="879" y="-186.5" font-family="Helvetica,sans-Serif" font-size="10.00">backend/customer/Ignorant</text>
<text text-anchor="middle" x="945.5" y="-175.5" font-family="Helvetica,sans-Serif" font-size="10.00">CustomerBuilder.cpp</text>
</a>
</g>
</g>
<!-- Node16&#45;&gt;Node17 -->
<g id="edge17" class="edge">
<title>Node16&#45;&gt;Node17</title>
<path fill="none" stroke="midnightblue" d="M945.5,-225.11C945.5,-216.15 945.5,-206.32 945.5,-198.58"/>
<polygon fill="midnightblue" stroke="midnightblue" points="942,-225.4 945.5,-235.4 949,-225.4 942,-225.4"/>
</g>
<!-- Node19 -->
<g id="node19" class="node">
<title>Node19</title>
<g id="a_node19"><a xlink:href="API_8h.html" target="_top" xlink:title="Bootstrapper for public facing API.">
<polygon fill="white" stroke="black" points="1807.5,-112.5 1807.5,-131.5 1911.5,-131.5 1911.5,-112.5 1807.5,-112.5"/>
<text text-anchor="middle" x="1859.5" y="-119.5" font-family="Helvetica,sans-Serif" font-size="10.00">backend/API/API.h</text>
</a>
</g>
</g>
<!-- Node18&#45;&gt;Node19 -->
<g id="edge19" class="edge">
<title>Node18&#45;&gt;Node19</title>
<path fill="none" stroke="midnightblue" d="M1532.58,-237.56C1604.84,-212.24 1772,-153.66 1834.94,-131.61"/>
<polygon fill="midnightblue" stroke="midnightblue" points="1531.31,-234.29 1523.03,-240.9 1533.62,-240.9 1531.31,-234.29"/>
</g>
<!-- Node20 -->
<g id="node20" class="node">
<title>Node20</title>
<g id="a_node20"><a xlink:href="APIController_8h.html" target="_top" xlink:title="Define endpoints.">
<polygon fill="white" stroke="black" points="1524,-56.5 1524,-75.5 1675,-75.5 1675,-56.5 1524,-56.5"/>
<text text-anchor="middle" x="1599.5" y="-63.5" font-family="Helvetica,sans-Serif" font-size="10.00">backend/API/APIController.h</text>
</a>
</g>
</g>
<!-- Node18&#45;&gt;Node20 -->
<g id="edge22" class="edge">
<title>Node18&#45;&gt;Node20</title>
<path fill="none" stroke="midnightblue" d="M1462.14,-236.89C1444.17,-228.81 1423.76,-216.5 1411.5,-199 1389.11,-167.03 1375.12,-142.48 1399.5,-112 1415.15,-92.44 1474.05,-80.79 1523.91,-74.26"/>
<polygon fill="midnightblue" stroke="midnightblue" points="1461.23,-240.3 1471.81,-240.95 1463.95,-233.85 1461.23,-240.3"/>
</g>
<!-- Node22 -->
<g id="node22" class="node">
<title>Node22</title>
<g id="a_node22"><a xlink:href="MenuOption_8h.html" target="_top" xlink:title="Base class for menu command options.">
<polygon fill="white" stroke="black" points="1420,-174 1420,-193 1579,-193 1579,-174 1420,-174"/>
<text text-anchor="middle" x="1499.5" y="-181" font-family="Helvetica,sans-Serif" font-size="10.00">backend/game/MenuOption.h</text>
</a>
</g>
</g>
<!-- Node18&#45;&gt;Node22 -->
<g id="edge23" class="edge">
<title>Node18&#45;&gt;Node22</title>
<path fill="none" stroke="midnightblue" d="M1498.79,-230.54C1498.98,-218.17 1499.22,-202.62 1499.37,-193.13"/>
<polygon fill="midnightblue" stroke="midnightblue" points="1495.29,-230.68 1498.63,-240.73 1502.29,-230.79 1495.29,-230.68"/>
</g>
<!-- Node19&#45;&gt;Node20 -->
<g id="edge20" class="edge">
<title>Node19&#45;&gt;Node20</title>
<path fill="none" stroke="midnightblue" d="M1808.51,-110.41C1759.37,-100.2 1685.97,-84.96 1640.51,-75.52"/>
<polygon fill="midnightblue" stroke="midnightblue" points="1807.8,-113.84 1818.3,-112.44 1809.22,-106.98 1807.8,-113.84"/>
</g>
<!-- Node21 -->
<g id="node21" class="node">
<title>Node21</title>
<g id="a_node21"><a xlink:href="APIController_8cpp.html" target="_top" xlink:title="Still need to see what going to do here.">
<polygon fill="white" stroke="black" points="1518.5,-0.5 1518.5,-19.5 1680.5,-19.5 1680.5,-0.5 1518.5,-0.5"/>
<text text-anchor="middle" x="1599.5" y="-7.5" font-family="Helvetica,sans-Serif" font-size="10.00">backend/API/APIController.cpp</text>
</a>
</g>
</g>
<!-- Node20&#45;&gt;Node21 -->
<g id="edge21" class="edge">
<title>Node20&#45;&gt;Node21</title>
<path fill="none" stroke="midnightblue" d="M1599.5,-45.8C1599.5,-36.91 1599.5,-26.78 1599.5,-19.75"/>
<polygon fill="midnightblue" stroke="midnightblue" points="1596,-46.08 1599.5,-56.08 1603,-46.08 1596,-46.08"/>
</g>
<!-- Node23 -->
<g id="node23" class="node">
<title>Node23</title>
<g id="a_node23"><a xlink:href="ExitGameOption_8h.html" target="_top" xlink:title="Command for exiting the game with logging capabilities.">
<polygon fill="white" stroke="black" points="1609.5,-112.5 1609.5,-131.5 1789.5,-131.5 1789.5,-112.5 1609.5,-112.5"/>
<text text-anchor="middle" x="1699.5" y="-119.5" font-family="Helvetica,sans-Serif" font-size="10.00">backend/game/ExitGameOption.h</text>
</a>
</g>
</g>
<!-- Node22&#45;&gt;Node23 -->
<g id="edge24" class="edge">
<title>Node22&#45;&gt;Node23</title>
<path fill="none" stroke="midnightblue" d="M1538.06,-171.03C1576.93,-159.46 1636.02,-141.88 1670.9,-131.51"/>
<polygon fill="midnightblue" stroke="midnightblue" points="1536.74,-167.77 1528.16,-173.98 1538.74,-174.48 1536.74,-167.77"/>
</g>
<!-- Node24 -->
<g id="node24" class="node">
<title>Node24</title>
<g id="a_node24"><a xlink:href="NewGameOption_8h.html" target="_top" xlink:title="Header file for NewGameOption class.">
<polygon fill="white" stroke="black" points="1408,-112.5 1408,-131.5 1591,-131.5 1591,-112.5 1408,-112.5"/>
<text text-anchor="middle" x="1499.5" y="-119.5" font-family="Helvetica,sans-Serif" font-size="10.00">backend/game/NewGameOption.h</text>
</a>
</g>
</g>
<!-- Node22&#45;&gt;Node24 -->
<g id="edge26" class="edge">
<title>Node22&#45;&gt;Node24</title>
<path fill="none" stroke="midnightblue" d="M1499.5,-163.82C1499.5,-153 1499.5,-139.9 1499.5,-131.51"/>
<polygon fill="midnightblue" stroke="midnightblue" points="1496,-163.98 1499.5,-173.98 1503,-163.98 1496,-163.98"/>
</g>
<!-- Node23&#45;&gt;Node20 -->
<g id="edge25" class="edge">
<title>Node23&#45;&gt;Node20</title>
<path fill="none" stroke="midnightblue" d="M1674.41,-107.45C1655.95,-97.48 1631.4,-84.23 1615.53,-75.65"/>
<polygon fill="midnightblue" stroke="midnightblue" points="1672.97,-110.65 1683.43,-112.32 1676.3,-104.49 1672.97,-110.65"/>
</g>
<!-- Node24&#45;&gt;Node20 -->
<g id="edge27" class="edge">
<title>Node24&#45;&gt;Node20</title>
<path fill="none" stroke="midnightblue" d="M1524.59,-107.45C1543.05,-97.48 1567.6,-84.23 1583.47,-75.65"/>
<polygon fill="midnightblue" stroke="midnightblue" points="1522.7,-104.49 1515.57,-112.32 1526.03,-110.65 1522.7,-104.49"/>
</g>
<!-- Node25&#45;&gt;Node14 -->
<g id="edge30" class="edge">
<title>Node25&#45;&gt;Node14</title>
<path fill="none" stroke="midnightblue" d="M493.89,-300.72C554.01,-289.98 632.84,-275.9 690.79,-265.55"/>
<polygon fill="midnightblue" stroke="midnightblue" points="493.26,-297.27 484.03,-302.48 494.49,-304.16 493.26,-297.27"/>
</g>
<!-- Node26 -->
<g id="node26" class="node">
<title>Node26</title>
<g id="a_node26"><a xlink:href="GreenFingerCustomer_8cpp.html" target="_top" xlink:title="Implements the functionality defined in the GreenFingerCustomer class.">
<polygon fill="white" stroke="black" points="166.5,-235.5 166.5,-265.5 334.5,-265.5 334.5,-235.5 166.5,-235.5"/>
<text text-anchor="start" x="174.5" y="-253.5" font-family="Helvetica,sans-Serif" font-size="10.00">backend/customer/GreenFinger</text>
<text text-anchor="middle" x="250.5" y="-242.5" font-family="Helvetica,sans-Serif" font-size="10.00">Customer.cpp</text>
</a>
</g>
</g>
<!-- Node25&#45;&gt;Node26 -->
<g id="edge29" class="edge">
<title>Node25&#45;&gt;Node26</title>
<path fill="none" stroke="midnightblue" d="M362.35,-298.41C337.61,-288.03 307,-275.2 284.07,-265.58"/>
<polygon fill="midnightblue" stroke="midnightblue" points="361.29,-301.76 371.87,-302.4 364,-295.3 361.29,-301.76"/>
</g>
<!-- Node27&#45;&gt;Node16 -->
<g id="edge33" class="edge">
<title>Node27&#45;&gt;Node16</title>
<path fill="none" stroke="midnightblue" d="M666.17,-301.38C728.09,-290.32 811.29,-275.47 870.75,-264.85"/>
<polygon fill="midnightblue" stroke="midnightblue" points="665.27,-297.99 656.04,-303.19 666.5,-304.88 665.27,-297.99"/>
</g>
<!-- Node28 -->
<g id="node28" class="node">
<title>Node28</title>
<g id="a_node28"><a xlink:href="IgnorantCustomer_8cpp.html" target="_top" xlink:title="Implements the functionality defined in the IgnorantCustomer class.">
<polygon fill="white" stroke="black" points="352,-235.5 352,-265.5 501,-265.5 501,-235.5 352,-235.5"/>
<text text-anchor="start" x="360" y="-253.5" font-family="Helvetica,sans-Serif" font-size="10.00">backend/customer/Ignorant</text>
<text text-anchor="middle" x="426.5" y="-242.5" font-family="Helvetica,sans-Serif" font-size="10.00">Customer.cpp</text>
</a>
</g>
</g>
<!-- Node27&#45;&gt;Node28 -->
<g id="edge32" class="edge">
<title>Node27&#45;&gt;Node28</title>
<path fill="none" stroke="midnightblue" d="M538.35,-298.41C513.61,-288.03 483,-275.2 460.07,-265.58"/>
<polygon fill="midnightblue" stroke="midnightblue" points="537.29,-301.76 547.87,-302.4 540,-295.3 537.29,-301.76"/>
</g>
<!-- Node33&#45;&gt;Node34 -->
<g id="edge42" class="edge">
<title>Node33&#45;&gt;Node34</title>
<path fill="none" stroke="midnightblue" d="M1522.5,-426.11C1522.5,-417.15 1522.5,-407.32 1522.5,-399.58"/>
<polygon fill="midnightblue" stroke="midnightblue" points="1519,-426.4 1522.5,-436.4 1526,-426.4 1519,-426.4"/>
</g>
<!-- Node34&#45;&gt;Node18 -->
<g id="edge43" class="edge">
<title>Node34&#45;&gt;Node18</title>
<path fill="none" stroke="midnightblue" d="M1518.1,-359.32C1512.66,-329.38 1503.67,-279.91 1500.06,-260.1"/>
<polygon fill="midnightblue" stroke="midnightblue" points="1514.7,-360.16 1519.93,-369.37 1521.59,-358.91 1514.7,-360.16"/>
</g>
</g>
</svg>
        <g id="navigator" transform="translate(0 0)" fill="#404254">
                <rect fill="#f2f5e9" fill-opacity="0.5" stroke="#606060" stroke-width=".5" x="0" y="0" width="60" height="60"/>
                <use id="zoomplus" xlink:href="#zoomPlus" x="17" y="9" onmousedown="handleZoom(evt,'in')"/>
                <use id="zoomminus" xlink:href="#zoomMin" x="42" y="9" onmousedown="handleZoom(evt,'out')"/>
                <use id="reset" xlink:href="#resetDef" x="30" y="36" onmousedown="handleReset()"/>
                <g id="arrowUp" xlink:href="#dirArrow" transform="translate(30 24)" onmousedown="handlePan(0,-1)">
                  <use xlink:href="#rim" fill="#404040">
                        <set attributeName="fill" to="#808080" begin="arrowUp.mouseover" end="arrowUp.mouseout"/>
                  </use>
                  <path fill="none" stroke="white" stroke-width="1.5" d="M0,-3.0v7 M-2.5,-0.5L0,-3.0L2.5,-0.5"/>
                </g>
                <g id="arrowRight" xlink:href="#dirArrow" transform="rotate(90) translate(36 -43)" onmousedown="handlePan(1,0)">
                  <use xlink:href="#rim" fill="#404040">
                        <set attributeName="fill" to="#808080" begin="arrowRight.mouseover" end="arrowRight.mouseout"/>
                  </use>
                  <path fill="none" stroke="white" stroke-width="1.5" d="M0,-3.0v7 M-2.5,-0.5L0,-3.0L2.5,-0.5"/>
                </g>
                <g id="arrowDown" xlink:href="#dirArrow" transform="rotate(180) translate(-30 -48)" onmousedown="handlePan(0,1)">
                  <use xlink:href="#rim" fill="#404040">
                        <set attributeName="fill" to="#808080" begin="arrowDown.mouseover" end="arrowDown.mouseout"/>
                  </use>
                  <path fill="none" stroke="white" stroke-width="1.5" d="M0,-3.0v7 M-2.5,-0.5L0,-3.0L2.5,-0.5"/>
                </g>
                <g id="arrowLeft" xlink:href="#dirArrow" transform="rotate(270) translate(-36 17)" onmousedown="handlePan(-1,0)">
                  <use xlink:href="#rim" fill="#404040">
                        <set attributeName="fill" to="#808080" begin="arrowLeft.mouseover" end="arrowLeft.mouseout"/>
                  </use>
                  <path fill="none" stroke="white" stroke-width="1.5" d="M0,-3.0v7 M-2.5,-0.5L0,-3.0L2.5,-0.5"/>
                </g>
        </g>
        <svg viewBox="0 0 15 15" width="100%" height="30px" preserveAspectRatio="xMaxYMin meet">
         <g id="arrow_out" transform="scale(0.3 0.3)">
          <a xlink:href="TransactionHistory_8h__dep__incl_org.svg" target="_base">
           <rect id="button" ry="5" rx="5" y="6" x="6" height="38" width="38"
                fill="#f2f5e9" fill-opacity="0.5" stroke="#606060" stroke-width="1.0"/>
           <path id="arrow"
             d="M 11.500037,31.436501 C 11.940474,20.09759 22.043105,11.32322 32.158766,21.979434 L 37.068811,17.246167 C 37.068811,17.246167 37.088388,32 37.088388,32 L 22.160133,31.978069 C 22.160133,31.978069 26.997745,27.140456 26.997745,27.140456 C 18.528582,18.264221 13.291696,25.230495 11.500037,31.436501 z"
             style="fill:#404040;"/>
          </a>
         </g>
        </svg>
</svg>
