<?xml version="1.0" encoding="UTF-8" standalone="no"?>
<!DOCTYPE svg PUBLIC "-//W3C//DTD SVG 1.1//EN"
 "http://www.w3.org/Graphics/SVG/1.1/DTD/svg11.dtd">
<!-- Generated by graphviz version 2.43.0 (0)
 -->
<!-- Title: backend/game/TransactionMem.h Pages: 1 -->
<svg width="1584pt" height="218pt"
 viewBox="0.00 0.00 1584.50 218.00" xmlns="http://www.w3.org/2000/svg" xmlns:xlink="http://www.w3.org/1999/xlink">
<g id="graph0" class="graph" transform="scale(1 1) rotate(0) translate(4 214)">
<title>backend/game/TransactionMem.h</title>
<polygon fill="white" stroke="transparent" points="-4,4 -4,-214 1580.5,-214 1580.5,4 -4,4"/>
<!-- Node1 -->
<g id="node1" class="node">
<title>Node1</title>
<g id="a_node1"><a xlink:title=" ">
<polygon fill="#bfbfbf" stroke="black" points="124.5,-179.5 124.5,-209.5 270.5,-209.5 270.5,-179.5 124.5,-179.5"/>
<text text-anchor="start" x="132.5" y="-197.5" font-family="Helvetica,sans-Serif" font-size="10.00">backend/game/Transaction</text>
<text text-anchor="middle" x="197.5" y="-186.5" font-family="Helvetica,sans-Serif" font-size="10.00">Mem.h</text>
</a>
</g>
</g>
<!-- Node2 -->
<g id="node2" class="node">
<title>Node2</title>
<g id="a_node2"><a xlink:href="Plant_8h.html" target="_top" xlink:title="Defines the abstract base class for all Plant objects used in the system.">
<polygon fill="white" stroke="black" points="492.5,-123.5 492.5,-142.5 542.5,-142.5 542.5,-123.5 492.5,-123.5"/>
<text text-anchor="middle" x="517.5" y="-130.5" font-family="Helvetica,sans-Serif" font-size="10.00">Plant.h</text>
</a>
</g>
</g>
<!-- Node1&#45;&gt;Node2 -->
<g id="edge1" class="edge">
<title>Node1&#45;&gt;Node2</title>
<path fill="none" stroke="midnightblue" d="M270.51,-179.92C336.64,-167.63 431.25,-150.04 482.04,-140.59"/>
<polygon fill="midnightblue" stroke="midnightblue" points="482.99,-143.98 492.18,-138.71 481.71,-137.09 482.99,-143.98"/>
</g>
<!-- Node3 -->
<g id="node3" class="node">
<title>Node3</title>
<g id="a_node3"><a xlink:title=" ">
<polygon fill="white" stroke="#bfbfbf" points="3.5,-6 3.5,-25 47.5,-25 47.5,-6 3.5,-6"/>
<text text-anchor="middle" x="25.5" y="-13" font-family="Helvetica,sans-Serif" font-size="10.00">string</text>
</a>
</g>
</g>
<!-- Node1&#45;&gt;Node3 -->
<g id="edge34" class="edge">
<title>Node1&#45;&gt;Node3</title>
<path fill="none" stroke="midnightblue" d="M141.1,-179.42C95.33,-164.69 33.77,-136.6 4.5,-87 -5.3,-70.4 3.75,-48.87 12.84,-33.99"/>
<polygon fill="midnightblue" stroke="midnightblue" points="16,-35.56 18.61,-25.29 10.16,-31.69 16,-35.56"/>
</g>
<!-- Node2&#45;&gt;Node3 -->
<g id="edge2" class="edge">
<title>Node2&#45;&gt;Node3</title>
<path fill="none" stroke="midnightblue" d="M492.43,-131.69C395.37,-130.22 47.97,-122.52 15.5,-87 2.63,-72.93 8.89,-50.23 15.91,-34.4"/>
<polygon fill="midnightblue" stroke="midnightblue" points="19.18,-35.67 20.43,-25.15 12.9,-32.59 19.18,-35.67"/>
</g>
<!-- Node4 -->
<g id="node4" class="node">
<title>Node4</title>
<g id="a_node4"><a xlink:title=" ">
<polygon fill="white" stroke="#bfbfbf" points="176.5,-67.5 176.5,-86.5 214.5,-86.5 214.5,-67.5 176.5,-67.5"/>
<text text-anchor="middle" x="195.5" y="-74.5" font-family="Helvetica,sans-Serif" font-size="10.00">map</text>
</a>
</g>
</g>
<!-- Node2&#45;&gt;Node4 -->
<g id="edge3" class="edge">
<title>Node2&#45;&gt;Node4</title>
<path fill="none" stroke="midnightblue" d="M492.46,-129.53C442.94,-124.35 328.93,-111 224.42,-86.89"/>
<polygon fill="midnightblue" stroke="midnightblue" points="225.2,-83.48 214.66,-84.6 223.6,-90.3 225.2,-83.48"/>
</g>
<!-- Node5 -->
<g id="node5" class="node">
<title>Node5</title>
<g id="a_node5"><a xlink:title=" ">
<polygon fill="white" stroke="#bfbfbf" points="233,-67.5 233,-86.5 280,-86.5 280,-67.5 233,-67.5"/>
<text text-anchor="middle" x="256.5" y="-74.5" font-family="Helvetica,sans-Serif" font-size="10.00">vector</text>
</a>
</g>
</g>
<!-- Node2&#45;&gt;Node5 -->
<g id="edge4" class="edge">
<title>Node2&#45;&gt;Node5</title>
<path fill="none" stroke="midnightblue" d="M492.4,-127.65C452.01,-120.52 369.85,-105.5 290.41,-87.07"/>
<polygon fill="midnightblue" stroke="midnightblue" points="290.77,-83.56 280.24,-84.69 289.18,-90.38 290.77,-83.56"/>
</g>
<!-- Node6 -->
<g id="node6" class="node">
<title>Node6</title>
<g id="a_node6"><a xlink:title=" ">
<polygon fill="white" stroke="#bfbfbf" points="298.5,-67.5 298.5,-86.5 362.5,-86.5 362.5,-67.5 298.5,-67.5"/>
<text text-anchor="middle" x="330.5" y="-74.5" font-family="Helvetica,sans-Serif" font-size="10.00">algorithm</text>
</a>
</g>
</g>
<!-- Node2&#45;&gt;Node6 -->
<g id="edge5" class="edge">
<title>Node2&#45;&gt;Node6</title>
<path fill="none" stroke="midnightblue" d="M492.28,-124.72C460.93,-115.67 407.07,-100.11 370.17,-89.46"/>
<polygon fill="midnightblue" stroke="midnightblue" points="370.82,-86 360.24,-86.59 368.88,-92.73 370.82,-86"/>
</g>
<!-- Node7 -->
<g id="node7" class="node">
<title>Node7</title>
<g id="a_node7"><a xlink:title=" ">
<polygon fill="white" stroke="#bfbfbf" points="343.5,-6 343.5,-25 403.5,-25 403.5,-6 343.5,-6"/>
<text text-anchor="middle" x="373.5" y="-13" font-family="Helvetica,sans-Serif" font-size="10.00">iostream</text>
</a>
</g>
</g>
<!-- Node2&#45;&gt;Node7 -->
<g id="edge6" class="edge">
<title>Node2&#45;&gt;Node7</title>
<path fill="none" stroke="midnightblue" d="M492.44,-130.95C411.12,-127.29 158.35,-113.83 134.5,-87 77.62,-23.05 251.37,-15.84 333.27,-15.86"/>
<polygon fill="midnightblue" stroke="midnightblue" points="333.47,-19.36 343.48,-15.9 333.5,-12.36 333.47,-19.36"/>
</g>
<!-- Node8 -->
<g id="node8" class="node">
<title>Node8</title>
<g id="a_node8"><a xlink:title=" ">
<polygon fill="white" stroke="#bfbfbf" points="381,-67.5 381,-86.5 494,-86.5 494,-67.5 381,-67.5"/>
<text text-anchor="middle" x="437.5" y="-74.5" font-family="Helvetica,sans-Serif" font-size="10.00">boost/uuid/uuid.hpp</text>
</a>
</g>
</g>
<!-- Node2&#45;&gt;Node8 -->
<g id="edge7" class="edge">
<title>Node2&#45;&gt;Node8</title>
<path fill="none" stroke="midnightblue" d="M504.64,-123.32C492.28,-114.98 473.37,-102.21 458.76,-92.35"/>
<polygon fill="midnightblue" stroke="midnightblue" points="460.56,-89.35 450.32,-86.65 456.65,-95.15 460.56,-89.35"/>
</g>
<!-- Node9 -->
<g id="node9" class="node">
<title>Node9</title>
<g id="a_node9"><a xlink:title=" ">
<polygon fill="white" stroke="#bfbfbf" points="512.5,-67.5 512.5,-86.5 682.5,-86.5 682.5,-67.5 512.5,-67.5"/>
<text text-anchor="middle" x="597.5" y="-74.5" font-family="Helvetica,sans-Serif" font-size="10.00">boost/uuid/uuid_generators.hpp</text>
</a>
</g>
</g>
<!-- Node2&#45;&gt;Node9 -->
<g id="edge8" class="edge">
<title>Node2&#45;&gt;Node9</title>
<path fill="none" stroke="midnightblue" d="M530.35,-123.32C542.71,-114.98 561.63,-102.21 576.23,-92.35"/>
<polygon fill="midnightblue" stroke="midnightblue" points="578.34,-95.15 584.67,-86.65 574.43,-89.35 578.34,-95.15"/>
</g>
<!-- Node10 -->
<g id="node10" class="node">
<title>Node10</title>
<g id="a_node10"><a xlink:title=" ">
<polygon fill="white" stroke="#bfbfbf" points="701,-67.5 701,-86.5 828,-86.5 828,-67.5 701,-67.5"/>
<text text-anchor="middle" x="764.5" y="-74.5" font-family="Helvetica,sans-Serif" font-size="10.00">boost/uuid/uuid_io.hpp</text>
</a>
</g>
</g>
<!-- Node2&#45;&gt;Node10 -->
<g id="edge9" class="edge">
<title>Node2&#45;&gt;Node10</title>
<path fill="none" stroke="midnightblue" d="M542.54,-126.53C582.9,-117.7 663.06,-100.18 715.19,-88.78"/>
<polygon fill="midnightblue" stroke="midnightblue" points="716.2,-92.14 725.23,-86.59 714.71,-85.3 716.2,-92.14"/>
</g>
<!-- Node11 -->
<g id="node11" class="node">
<title>Node11</title>
<g id="a_node11"><a xlink:title=" ">
<polygon fill="white" stroke="#bfbfbf" points="846.5,-67.5 846.5,-86.5 956.5,-86.5 956.5,-67.5 846.5,-67.5"/>
<text text-anchor="middle" x="901.5" y="-74.5" font-family="Helvetica,sans-Serif" font-size="10.00">nlohmann/json.hpp</text>
</a>
</g>
</g>
<!-- Node2&#45;&gt;Node11 -->
<g id="edge10" class="edge">
<title>Node2&#45;&gt;Node11</title>
<path fill="none" stroke="midnightblue" d="M542.69,-128.46C601.59,-120.17 749.85,-99.33 836.24,-87.18"/>
<polygon fill="midnightblue" stroke="midnightblue" points="836.78,-90.63 846.2,-85.78 835.81,-83.7 836.78,-90.63"/>
</g>
<!-- Node12 -->
<g id="node12" class="node">
<title>Node12</title>
<g id="a_node12"><a xlink:title=" ">
<polygon fill="white" stroke="#bfbfbf" points="752.5,-6 752.5,-25 800.5,-25 800.5,-6 752.5,-6"/>
<text text-anchor="middle" x="776.5" y="-13" font-family="Helvetica,sans-Serif" font-size="10.00">thread</text>
</a>
</g>
</g>
<!-- Node2&#45;&gt;Node12 -->
<g id="edge11" class="edge">
<title>Node2&#45;&gt;Node12</title>
<path fill="none" stroke="midnightblue" d="M492.47,-130.66C415.96,-126.31 188.99,-111.44 167.5,-87 161.62,-80.33 161.48,-73.54 167.5,-67 187.11,-45.69 616.44,-23.99 742.19,-18.07"/>
<polygon fill="midnightblue" stroke="midnightblue" points="742.56,-21.56 752.39,-17.59 742.24,-14.56 742.56,-21.56"/>
</g>
<!-- Node13 -->
<g id="node13" class="node">
<title>Node13</title>
<g id="a_node13"><a xlink:title=" ">
<polygon fill="white" stroke="#bfbfbf" points="1110.5,-6 1110.5,-25 1160.5,-25 1160.5,-6 1110.5,-6"/>
<text text-anchor="middle" x="1135.5" y="-13" font-family="Helvetica,sans-Serif" font-size="10.00">atomic</text>
</a>
</g>
</g>
<!-- Node2&#45;&gt;Node13 -->
<g id="edge12" class="edge">
<title>Node2&#45;&gt;Node13</title>
<path fill="none" stroke="midnightblue" d="M542.82,-132.25C658.03,-133.11 1128.84,-133.76 1172.5,-87 1187.57,-70.85 1169.4,-47.38 1153.62,-32.03"/>
<polygon fill="midnightblue" stroke="midnightblue" points="1155.94,-29.42 1146.22,-25.22 1151.2,-34.57 1155.94,-29.42"/>
</g>
<!-- Node14 -->
<g id="node14" class="node">
<title>Node14</title>
<g id="a_node14"><a xlink:href="GreenSock_8h.html" target="_top" xlink:title=" ">
<polygon fill="white" stroke="black" points="1258.5,-67.5 1258.5,-86.5 1336.5,-86.5 1336.5,-67.5 1258.5,-67.5"/>
<text text-anchor="middle" x="1297.5" y="-74.5" font-family="Helvetica,sans-Serif" font-size="10.00">GreenSock.h</text>
</a>
</g>
</g>
<!-- Node2&#45;&gt;Node14 -->
<g id="edge13" class="edge">
<title>Node2&#45;&gt;Node14</title>
<path fill="none" stroke="midnightblue" d="M542.69,-131.41C636,-129.02 970.64,-118.64 1244.5,-87 1245.77,-86.85 1247.07,-86.69 1248.37,-86.53"/>
<polygon fill="midnightblue" stroke="midnightblue" points="1249.07,-89.96 1258.49,-85.11 1248.1,-83.03 1249.07,-89.96"/>
</g>
<!-- Node17 -->
<g id="node17" class="node">
<title>Node17</title>
<g id="a_node17"><a xlink:title=" ">
<polygon fill="white" stroke="#bfbfbf" points="1244.5,-6 1244.5,-25 1292.5,-25 1292.5,-6 1244.5,-6"/>
<text text-anchor="middle" x="1268.5" y="-13" font-family="Helvetica,sans-Serif" font-size="10.00">mutex</text>
</a>
</g>
</g>
<!-- Node2&#45;&gt;Node17 -->
<g id="edge33" class="edge">
<title>Node2&#45;&gt;Node17</title>
<path fill="none" stroke="midnightblue" d="M542.68,-131.59C678.36,-129.29 1317.19,-116.89 1345.5,-87 1351.61,-80.55 1349.72,-74.82 1345.5,-67 1339.82,-56.5 1314.56,-41.06 1294.5,-30.02"/>
<polygon fill="midnightblue" stroke="midnightblue" points="1295.92,-26.81 1285.46,-25.15 1292.6,-32.97 1295.92,-26.81"/>
</g>
<!-- Node18 -->
<g id="node18" class="node">
<title>Node18</title>
<g id="a_node18"><a xlink:href="Logger_8h.html" target="_top" xlink:title="Header for Strategy Logger.">
<polygon fill="white" stroke="black" points="24.5,-67.5 24.5,-86.5 82.5,-86.5 82.5,-67.5 24.5,-67.5"/>
<text text-anchor="middle" x="53.5" y="-74.5" font-family="Helvetica,sans-Serif" font-size="10.00">Logger.h</text>
</a>
</g>
</g>
<!-- Node2&#45;&gt;Node18 -->
<g id="edge19" class="edge">
<title>Node2&#45;&gt;Node18</title>
<path fill="none" stroke="midnightblue" d="M492.23,-130.18C426.65,-125.28 245.71,-110.53 96.5,-87 95.22,-86.8 93.93,-86.59 92.63,-86.36"/>
<polygon fill="midnightblue" stroke="midnightblue" points="93.04,-82.88 82.57,-84.5 91.76,-89.76 93.04,-82.88"/>
</g>
<!-- Node20 -->
<g id="node20" class="node">
<title>Node20</title>
<g id="a_node20"><a xlink:href="ThreadSafeQueue_8h_source.html" target="_top" xlink:title=" ">
<polygon fill="white" stroke="black" points="1051,-67.5 1051,-86.5 1164,-86.5 1164,-67.5 1051,-67.5"/>
<text text-anchor="middle" x="1107.5" y="-74.5" font-family="Helvetica,sans-Serif" font-size="10.00">ThreadSafeQueue.h</text>
</a>
</g>
</g>
<!-- Node2&#45;&gt;Node20 -->
<g id="edge23" class="edge">
<title>Node2&#45;&gt;Node20</title>
<path fill="none" stroke="midnightblue" d="M542.63,-130.29C616.95,-125.13 842.36,-108.82 1040.96,-87"/>
<polygon fill="midnightblue" stroke="midnightblue" points="1041.44,-90.47 1050.99,-85.89 1040.67,-83.51 1041.44,-90.47"/>
</g>
<!-- Node21 -->
<g id="node21" class="node">
<title>Node21</title>
<g id="a_node21"><a xlink:title=" ">
<polygon fill="white" stroke="#bfbfbf" points="1179,-6 1179,-25 1226,-25 1226,-6 1179,-6"/>
<text text-anchor="middle" x="1202.5" y="-13" font-family="Helvetica,sans-Serif" font-size="10.00">queue</text>
</a>
</g>
</g>
<!-- Node2&#45;&gt;Node21 -->
<g id="edge31" class="edge">
<title>Node2&#45;&gt;Node21</title>
<path fill="none" stroke="midnightblue" d="M542.51,-132.1C658.5,-132.36 1140.38,-130.75 1189.5,-87 1203.84,-74.22 1205.61,-51.22 1204.76,-34.97"/>
<polygon fill="midnightblue" stroke="midnightblue" points="1208.24,-34.65 1203.87,-25.01 1201.27,-35.28 1208.24,-34.65"/>
</g>
<!-- Node23 -->
<g id="node23" class="node">
<title>Node23</title>
<g id="a_node23"><a xlink:title=" ">
<polygon fill="white" stroke="#bfbfbf" points="974.5,-67.5 974.5,-86.5 1032.5,-86.5 1032.5,-67.5 974.5,-67.5"/>
<text text-anchor="middle" x="1003.5" y="-74.5" font-family="Helvetica,sans-Serif" font-size="10.00">memory</text>
</a>
</g>
</g>
<!-- Node2&#45;&gt;Node23 -->
<g id="edge32" class="edge">
<title>Node2&#45;&gt;Node23</title>
<path fill="none" stroke="midnightblue" d="M542.91,-130.63C610.15,-126.76 798.37,-114.29 964.23,-87.01"/>
<polygon fill="midnightblue" stroke="midnightblue" points="964.83,-90.46 974.12,-85.36 963.68,-83.56 964.83,-90.46"/>
</g>
<!-- Node14&#45;&gt;Node3 -->
<g id="edge17" class="edge">
<title>Node14&#45;&gt;Node3</title>
<path fill="none" stroke="midnightblue" d="M1258.39,-72.78C1233.76,-70.86 1201.29,-68.5 1172.5,-67 924.7,-54.09 297.81,-88.75 56.5,-31 54.29,-30.47 52.05,-29.78 49.84,-28.98"/>
<polygon fill="midnightblue" stroke="midnightblue" points="51.07,-25.7 40.5,-25.01 48.33,-32.14 51.07,-25.7"/>
</g>
<!-- Node14&#45;&gt;Node7 -->
<g id="edge16" class="edge">
<title>Node14&#45;&gt;Node7</title>
<path fill="none" stroke="midnightblue" d="M1258.37,-73.09C1233.73,-71.29 1201.26,-68.94 1172.5,-67 881.69,-47.34 531.17,-26 413.91,-18.93"/>
<polygon fill="midnightblue" stroke="midnightblue" points="413.81,-15.42 403.61,-18.31 413.38,-22.4 413.81,-15.42"/>
</g>
<!-- Node15 -->
<g id="node15" class="node">
<title>Node15</title>
<g id="a_node15"><a xlink:title=" ">
<polygon fill="white" stroke="#bfbfbf" points="1311,-0.5 1311,-30.5 1424,-30.5 1424,-0.5 1311,-0.5"/>
<text text-anchor="start" x="1319" y="-18.5" font-family="Helvetica,sans-Serif" font-size="10.00">websocketpp/config</text>
<text text-anchor="middle" x="1367.5" y="-7.5" font-family="Helvetica,sans-Serif" font-size="10.00">/asio_no_tls.hpp</text>
</a>
</g>
</g>
<!-- Node14&#45;&gt;Node15 -->
<g id="edge14" class="edge">
<title>Node14&#45;&gt;Node15</title>
<path fill="none" stroke="midnightblue" d="M1307.52,-67.48C1316.83,-59.57 1331.04,-47.48 1343.3,-37.07"/>
<polygon fill="midnightblue" stroke="midnightblue" points="1345.65,-39.67 1351,-30.52 1341.11,-34.33 1345.65,-39.67"/>
</g>
<!-- Node16 -->
<g id="node16" class="node">
<title>Node16</title>
<g id="a_node16"><a xlink:title=" ">
<polygon fill="white" stroke="#bfbfbf" points="1442.5,-6 1442.5,-25 1576.5,-25 1576.5,-6 1442.5,-6"/>
<text text-anchor="middle" x="1509.5" y="-13" font-family="Helvetica,sans-Serif" font-size="10.00">websocketpp/server.hpp</text>
</a>
</g>
</g>
<!-- Node14&#45;&gt;Node16 -->
<g id="edge15" class="edge">
<title>Node14&#45;&gt;Node16</title>
<path fill="none" stroke="midnightblue" d="M1327.87,-67.48C1365.1,-57.03 1428.31,-39.29 1469.47,-27.73"/>
<polygon fill="midnightblue" stroke="midnightblue" points="1470.5,-31.08 1479.18,-25.01 1468.6,-24.34 1470.5,-31.08"/>
</g>
<!-- Node14&#45;&gt;Node17 -->
<g id="edge18" class="edge">
<title>Node14&#45;&gt;Node17</title>
<path fill="none" stroke="midnightblue" d="M1293.34,-67.48C1289.12,-58.82 1282.46,-45.15 1277.1,-34.15"/>
<polygon fill="midnightblue" stroke="midnightblue" points="1280.17,-32.46 1272.64,-25.01 1273.88,-35.53 1280.17,-32.46"/>
</g>
<!-- Node18&#45;&gt;Node3 -->
<g id="edge20" class="edge">
<title>Node18&#45;&gt;Node3</title>
<path fill="none" stroke="midnightblue" d="M49.48,-67.48C45.41,-58.82 38.98,-45.15 33.8,-34.15"/>
<polygon fill="midnightblue" stroke="midnightblue" points="36.92,-32.57 29.5,-25.01 30.59,-35.55 36.92,-32.57"/>
</g>
<!-- Node18&#45;&gt;Node7 -->
<g id="edge21" class="edge">
<title>Node18&#45;&gt;Node7</title>
<path fill="none" stroke="midnightblue" d="M82.62,-69.8C87.26,-68.84 92,-67.88 96.5,-67 180.55,-50.55 279.3,-32.96 333.26,-23.5"/>
<polygon fill="midnightblue" stroke="midnightblue" points="333.87,-26.94 343.12,-21.77 332.66,-20.05 333.87,-26.94"/>
</g>
<!-- Node19 -->
<g id="node19" class="node">
<title>Node19</title>
<g id="a_node19"><a xlink:title=" ">
<polygon fill="white" stroke="#bfbfbf" points="66,-6 66,-25 131,-25 131,-6 66,-6"/>
<text text-anchor="middle" x="98.5" y="-13" font-family="Helvetica,sans-Serif" font-size="10.00">stdexcept</text>
</a>
</g>
</g>
<!-- Node18&#45;&gt;Node19 -->
<g id="edge22" class="edge">
<title>Node18&#45;&gt;Node19</title>
<path fill="none" stroke="midnightblue" d="M59.94,-67.48C66.69,-58.55 77.46,-44.31 85.91,-33.14"/>
<polygon fill="midnightblue" stroke="midnightblue" points="88.82,-35.1 92.06,-25.01 83.24,-30.87 88.82,-35.1"/>
</g>
<!-- Node20&#45;&gt;Node3 -->
<g id="edge29" class="edge">
<title>Node20&#45;&gt;Node3</title>
<path fill="none" stroke="midnightblue" d="M1050.65,-67.89C1047.56,-67.56 1044.49,-67.26 1041.5,-67 823.27,-48.18 269.41,-82.43 56.5,-31 54.5,-30.52 52.48,-29.9 50.48,-29.2"/>
<polygon fill="midnightblue" stroke="midnightblue" points="51.4,-25.79 40.82,-25.15 48.69,-32.24 51.4,-25.79"/>
</g>
<!-- Node20&#45;&gt;Node7 -->
<g id="edge24" class="edge">
<title>Node20&#45;&gt;Node7</title>
<path fill="none" stroke="midnightblue" d="M1050.64,-68.03C1047.55,-67.66 1044.49,-67.32 1041.5,-67 803.89,-41.84 517.43,-24.54 413.56,-18.69"/>
<polygon fill="midnightblue" stroke="midnightblue" points="413.69,-15.19 403.51,-18.12 413.3,-22.18 413.69,-15.19"/>
</g>
<!-- Node20&#45;&gt;Node12 -->
<g id="edge25" class="edge">
<title>Node20&#45;&gt;Node12</title>
<path fill="none" stroke="midnightblue" d="M1060.07,-67.48C992.45,-55.32 869.95,-33.3 810.58,-22.63"/>
<polygon fill="midnightblue" stroke="midnightblue" points="811.06,-19.16 800.59,-20.83 809.82,-26.05 811.06,-19.16"/>
</g>
<!-- Node20&#45;&gt;Node13 -->
<g id="edge30" class="edge">
<title>Node20&#45;&gt;Node13</title>
<path fill="none" stroke="midnightblue" d="M1111.51,-67.48C1115.58,-58.82 1122.01,-45.15 1127.19,-34.15"/>
<polygon fill="midnightblue" stroke="midnightblue" points="1130.4,-35.55 1131.49,-25.01 1124.07,-32.57 1130.4,-35.55"/>
</g>
<!-- Node20&#45;&gt;Node17 -->
<g id="edge27" class="edge">
<title>Node20&#45;&gt;Node17</title>
<path fill="none" stroke="midnightblue" d="M1132.97,-67.5C1158.73,-58.78 1199.63,-44.6 1234.5,-31 1236.1,-30.37 1237.74,-29.72 1239.39,-29.05"/>
<polygon fill="midnightblue" stroke="midnightblue" points="1240.91,-32.21 1248.8,-25.14 1238.23,-25.75 1240.91,-32.21"/>
</g>
<!-- Node20&#45;&gt;Node21 -->
<g id="edge26" class="edge">
<title>Node20&#45;&gt;Node21</title>
<path fill="none" stroke="midnightblue" d="M1121.11,-67.48C1136.56,-57.8 1161.99,-41.87 1180.31,-30.39"/>
<polygon fill="midnightblue" stroke="midnightblue" points="1182.29,-33.28 1188.91,-25.01 1178.58,-27.35 1182.29,-33.28"/>
</g>
<!-- Node22 -->
<g id="node22" class="node">
<title>Node22</title>
<g id="a_node22"><a xlink:title=" ">
<polygon fill="white" stroke="#bfbfbf" points="985,-6 985,-25 1092,-25 1092,-6 985,-6"/>
<text text-anchor="middle" x="1038.5" y="-13" font-family="Helvetica,sans-Serif" font-size="10.00">condition_variable</text>
</a>
</g>
</g>
<!-- Node20&#45;&gt;Node22 -->
<g id="edge28" class="edge">
<title>Node20&#45;&gt;Node22</title>
<path fill="none" stroke="midnightblue" d="M1097.61,-67.48C1086.85,-58.2 1069.42,-43.17 1056.27,-31.83"/>
<polygon fill="midnightblue" stroke="midnightblue" points="1058.22,-28.89 1048.36,-25.01 1053.65,-34.19 1058.22,-28.89"/>
</g>
</g>
</svg>
