<?xml version="1.0" encoding="UTF-8" standalone="no"?>
<!DOCTYPE svg PUBLIC "-//W3C//DTD SVG 1.1//EN"
 "http://www.w3.org/Graphics/SVG/1.1/DTD/svg11.dtd">
<!-- Generated by graphviz version 2.43.0 (0)
 -->
<!-- Title: backend/game/Transaction.h Pages: 1 -->
<!--zoomable 263 -->
<svg id="main" version="1.1" xmlns="http://www.w3.org/2000/svg" xmlns:xlink="http://www.w3.org/1999/xlink" xml:space="preserve" onload="init(evt)">
<style type="text/css"><![CDATA[
.edge:hover path { stroke: red; }
.edge:hover polygon { stroke: red; fill: red; }
]]></style>
<script type="text/javascript"><![CDATA[
var edges = document.getElementsByTagName('g');
if (edges && edges.length) {
  for (var i=0;i<edges.length;i++) {
    if (edges[i].id.substr(0,4)=='edge') {
      edges[i].setAttribute('class','edge');
    }
  }
}
]]></script>
        <defs>
                <circle id="rim" cx="0" cy="0" r="7"/>
                <circle id="rim2" cx="0" cy="0" r="3.5"/>
                <g id="zoomPlus">
                        <use xlink:href="#rim" fill="#404040">
                                <set attributeName="fill" to="#808080" begin="zoomplus.mouseover" end="zoomplus.mouseout"/>
                        </use>
                        <path d="M-4,0h8M0,-4v8" fill="none" stroke="white" stroke-width="1.5" pointer-events="none"/>
                </g>
                <g id="zoomMin">
                        <use xlink:href="#rim" fill="#404040">
                                <set attributeName="fill" to="#808080" begin="zoomminus.mouseover" end="zoomminus.mouseout"/>
                        </use>
                        <path d="M-4,0h8" fill="none" stroke="white" stroke-width="1.5" pointer-events="none"/>
                </g>
                <g id="dirArrow">
                        <path fill="none" stroke="white" stroke-width="1.5" d="M0,-3.0v7 M-2.5,-0.5L0,-3.0L2.5,-0.5"/>
                </g>
               <g id="resetDef">
                       <use xlink:href="#rim2" fill="#404040">
                               <set attributeName="fill" to="#808080" begin="reset.mouseover" end="reset.mouseout"/>
                       </use>
               </g>
        </defs>

<script type="text/javascript">
var viewWidth = 1734;
var viewHeight = 263;
var sectionId = 'dynsection-0';
</script>
<script xlink:href="svgpan.js"/>
<svg id="graph" class="graph">
<g id="viewport">
<title>backend/game/Transaction.h</title>
<polygon fill="white" stroke="transparent" points="-4,4 -4,-259 1730.44,-259 1730.44,4 -4,4"/>
<!-- Node1 -->
<g id="node1" class="node">
<title>Node1</title>
<g id="a_node1"><a xlink:title=" ">
<polygon fill="#bfbfbf" stroke="black" points="130.94,-235.5 130.94,-254.5 285.94,-254.5 285.94,-235.5 130.94,-235.5"/>
<text text-anchor="middle" x="208.44" y="-242.5" font-family="Helvetica,sans-Serif" font-size="10.00">backend/game/Transaction.h</text>
</a>
</g>
</g>
<!-- Node2 -->
<g id="node2" class="node">
<title>Node2</title>
<g id="a_node2"><a xlink:href="TransactionStrategy_8h.html" target="_top" xlink:title=" ">
<polygon fill="white" stroke="black" points="84.94,-123.5 84.94,-142.5 205.94,-142.5 205.94,-123.5 84.94,-123.5"/>
<text text-anchor="middle" x="145.44" y="-130.5" font-family="Helvetica,sans-Serif" font-size="10.00">TransactionStrategy.h</text>
</a>
</g>
</g>
<!-- Node1&#45;&gt;Node2 -->
<g id="edge1" class="edge">
<title>Node1&#45;&gt;Node2</title>
<path fill="none" stroke="midnightblue" d="M203.5,-235.37C193.15,-217.3 169.03,-175.18 155.36,-151.31"/>
<polygon fill="midnightblue" stroke="midnightblue" points="158.37,-149.53 150.37,-142.59 152.3,-153.01 158.37,-149.53"/>
</g>
<!-- Node3 -->
<g id="node3" class="node">
<title>Node3</title>
<g id="a_node3"><a xlink:title=" ">
<polygon fill="white" stroke="#bfbfbf" points="232.44,-6 232.44,-25 276.44,-25 276.44,-6 232.44,-6"/>
<text text-anchor="middle" x="254.44" y="-13" font-family="Helvetica,sans-Serif" font-size="10.00">string</text>
</a>
</g>
</g>
<!-- Node1&#45;&gt;Node3 -->
<g id="edge49" class="edge">
<title>Node1&#45;&gt;Node3</title>
<path fill="none" stroke="midnightblue" d="M130.71,-236.97C79.67,-230.55 19.49,-218.95 3.44,-199 -2.13,-192.07 0.81,-187.49 3.44,-179 21.36,-121.31 31.47,-102.37 80.44,-67 123.26,-36.07 184.78,-23.99 222.03,-19.34"/>
<polygon fill="midnightblue" stroke="midnightblue" points="222.78,-22.78 232.32,-18.17 221.98,-15.82 222.78,-22.78"/>
</g>
<!-- Node4 -->
<g id="node4" class="node">
<title>Node4</title>
<g id="a_node4"><a xlink:href="Sale_8h.html" target="_top" xlink:title=" ">
<polygon fill="white" stroke="black" points="210.94,-179.5 210.94,-198.5 257.94,-198.5 257.94,-179.5 210.94,-179.5"/>
<text text-anchor="middle" x="234.44" y="-186.5" font-family="Helvetica,sans-Serif" font-size="10.00">Sale.h</text>
</a>
</g>
</g>
<!-- Node1&#45;&gt;Node4 -->
<g id="edge3" class="edge">
<title>Node1&#45;&gt;Node4</title>
<path fill="none" stroke="midnightblue" d="M212.74,-235.08C216.3,-227.69 221.47,-216.95 225.87,-207.81"/>
<polygon fill="midnightblue" stroke="midnightblue" points="229.05,-209.28 230.23,-198.75 222.74,-206.24 229.05,-209.28"/>
</g>
<!-- Node5 -->
<g id="node5" class="node">
<title>Node5</title>
<g id="a_node5"><a xlink:href="Return_8h.html" target="_top" xlink:title=" ">
<polygon fill="white" stroke="black" points="12.44,-179.5 12.44,-198.5 70.44,-198.5 70.44,-179.5 12.44,-179.5"/>
<text text-anchor="middle" x="41.44" y="-186.5" font-family="Helvetica,sans-Serif" font-size="10.00">Return.h</text>
</a>
</g>
</g>
<!-- Node1&#45;&gt;Node5 -->
<g id="edge6" class="edge">
<title>Node1&#45;&gt;Node5</title>
<path fill="none" stroke="midnightblue" d="M181.98,-235.44C153.77,-226.32 108.9,-211.81 77.48,-201.65"/>
<polygon fill="midnightblue" stroke="midnightblue" points="78.37,-198.26 67.78,-198.52 76.22,-204.92 78.37,-198.26"/>
</g>
<!-- Node6 -->
<g id="node6" class="node">
<title>Node6</title>
<g id="a_node6"><a xlink:href="game_2Restock_8h.html" target="_top" xlink:title=" ">
<polygon fill="white" stroke="black" points="88.94,-179.5 88.94,-198.5 153.94,-198.5 153.94,-179.5 88.94,-179.5"/>
<text text-anchor="middle" x="121.44" y="-186.5" font-family="Helvetica,sans-Serif" font-size="10.00">Restock.h</text>
</a>
</g>
</g>
<!-- Node1&#45;&gt;Node6 -->
<g id="edge9" class="edge">
<title>Node1&#45;&gt;Node6</title>
<path fill="none" stroke="midnightblue" d="M194.47,-235.32C180.9,-226.9 160.06,-213.97 144.12,-204.07"/>
<polygon fill="midnightblue" stroke="midnightblue" points="145.73,-200.95 135.39,-198.65 142.04,-206.9 145.73,-200.95"/>
</g>
<!-- Node7 -->
<g id="node7" class="node">
<title>Node7</title>
<g id="a_node7"><a xlink:href="TransactionMem_8h.html" target="_top" xlink:title=" ">
<polygon fill="white" stroke="black" points="338.44,-179.5 338.44,-198.5 444.44,-198.5 444.44,-179.5 338.44,-179.5"/>
<text text-anchor="middle" x="391.44" y="-186.5" font-family="Helvetica,sans-Serif" font-size="10.00">TransactionMem.h</text>
</a>
</g>
</g>
<!-- Node1&#45;&gt;Node7 -->
<g id="edge12" class="edge">
<title>Node1&#45;&gt;Node7</title>
<path fill="none" stroke="midnightblue" d="M237.44,-235.44C268.63,-226.24 318.37,-211.56 352.85,-201.39"/>
<polygon fill="midnightblue" stroke="midnightblue" points="353.98,-204.7 362.58,-198.52 352,-197.99 353.98,-204.7"/>
</g>
<!-- Node24 -->
<g id="node24" class="node">
<title>Node24</title>
<g id="a_node24"><a xlink:title=" ">
<polygon fill="white" stroke="#bfbfbf" points="295.94,-6 295.94,-25 360.94,-25 360.94,-6 295.94,-6"/>
<text text-anchor="middle" x="328.44" y="-13" font-family="Helvetica,sans-Serif" font-size="10.00">stdexcept</text>
</a>
</g>
</g>
<!-- Node1&#45;&gt;Node24 -->
<g id="edge50" class="edge">
<title>Node1&#45;&gt;Node24</title>
<path fill="none" stroke="midnightblue" d="M224.08,-235.41C237.1,-227.51 255.28,-214.67 266.44,-199 303.61,-146.85 319.86,-70.69 325.69,-35.55"/>
<polygon fill="midnightblue" stroke="midnightblue" points="329.21,-35.72 327.29,-25.3 322.29,-34.65 329.21,-35.72"/>
</g>
<!-- Node29 -->
<g id="node29" class="node">
<title>Node29</title>
<g id="a_node29"><a xlink:href="Ledger_8h_source.html" target="_top" xlink:title=" ">
<polygon fill="white" stroke="black" points="1341.44,-123.5 1341.44,-142.5 1399.44,-142.5 1399.44,-123.5 1341.44,-123.5"/>
<text text-anchor="middle" x="1370.44" y="-130.5" font-family="Helvetica,sans-Serif" font-size="10.00">Ledger.h</text>
</a>
</g>
</g>
<!-- Node1&#45;&gt;Node29 -->
<g id="edge47" class="edge">
<title>Node1&#45;&gt;Node29</title>
<path fill="none" stroke="midnightblue" d="M286.04,-236.65C511.91,-215.27 1163.58,-153.58 1330.91,-137.74"/>
<polygon fill="midnightblue" stroke="midnightblue" points="1331.59,-141.19 1341.22,-136.77 1330.93,-134.22 1331.59,-141.19"/>
</g>
<!-- Node2&#45;&gt;Node3 -->
<g id="edge2" class="edge">
<title>Node2&#45;&gt;Node3</title>
<path fill="none" stroke="midnightblue" d="M153.64,-123.32C171.79,-104.09 215.62,-57.64 239.06,-32.81"/>
<polygon fill="midnightblue" stroke="midnightblue" points="241.84,-34.96 246.16,-25.28 236.75,-30.15 241.84,-34.96"/>
</g>
<!-- Node4&#45;&gt;Node2 -->
<g id="edge4" class="edge">
<title>Node4&#45;&gt;Node2</title>
<path fill="none" stroke="midnightblue" d="M220.15,-179.32C206.26,-170.9 184.95,-157.97 168.64,-148.07"/>
<polygon fill="midnightblue" stroke="midnightblue" points="170.07,-144.85 159.71,-142.65 166.44,-150.83 170.07,-144.85"/>
</g>
<!-- Node4&#45;&gt;Node3 -->
<g id="edge5" class="edge">
<title>Node4&#45;&gt;Node3</title>
<path fill="none" stroke="midnightblue" d="M235.46,-179.26C238.57,-152.65 247.95,-72.21 252.25,-35.34"/>
<polygon fill="midnightblue" stroke="midnightblue" points="255.77,-35.36 253.45,-25.02 248.82,-34.55 255.77,-35.36"/>
</g>
<!-- Node5&#45;&gt;Node2 -->
<g id="edge7" class="edge">
<title>Node5&#45;&gt;Node2</title>
<path fill="none" stroke="midnightblue" d="M58.15,-179.32C74.76,-170.7 100.45,-157.36 119.67,-147.39"/>
<polygon fill="midnightblue" stroke="midnightblue" points="121.51,-150.37 128.78,-142.65 118.29,-144.16 121.51,-150.37"/>
</g>
<!-- Node5&#45;&gt;Node3 -->
<g id="edge8" class="edge">
<title>Node5&#45;&gt;Node3</title>
<path fill="none" stroke="midnightblue" d="M43.18,-179.41C48.14,-157.15 64.55,-97.21 102.44,-67 137.66,-38.93 189.16,-26.16 222.24,-20.57"/>
<polygon fill="midnightblue" stroke="midnightblue" points="222.95,-24 232.29,-19 221.87,-17.09 222.95,-24"/>
</g>
<!-- Node6&#45;&gt;Node2 -->
<g id="edge10" class="edge">
<title>Node6&#45;&gt;Node2</title>
<path fill="none" stroke="midnightblue" d="M125.41,-179.08C128.66,-171.77 133.36,-161.18 137.4,-152.1"/>
<polygon fill="midnightblue" stroke="midnightblue" points="140.69,-153.31 141.56,-142.75 134.3,-150.47 140.69,-153.31"/>
</g>
<!-- Node6&#45;&gt;Node3 -->
<g id="edge11" class="edge">
<title>Node6&#45;&gt;Node3</title>
<path fill="none" stroke="midnightblue" d="M107.55,-179.33C89.97,-167.2 63.35,-144.27 75.44,-123 106.98,-67.53 180.09,-37.93 222.47,-24.89"/>
<polygon fill="midnightblue" stroke="midnightblue" points="223.69,-28.18 232.29,-22 221.71,-21.47 223.69,-28.18"/>
</g>
<!-- Node7&#45;&gt;Node3 -->
<g id="edge46" class="edge">
<title>Node7&#45;&gt;Node3</title>
<path fill="none" stroke="midnightblue" d="M384.46,-179.26C362.75,-152.08 296.15,-68.71 267.63,-33.01"/>
<polygon fill="midnightblue" stroke="midnightblue" points="270.23,-30.65 261.25,-25.02 264.76,-35.02 270.23,-30.65"/>
</g>
<!-- Node8 -->
<g id="node8" class="node">
<title>Node8</title>
<g id="a_node8"><a xlink:href="Plant_8h.html" target="_top" xlink:title="Defines the abstract base class for all Plant objects used in the system.">
<polygon fill="white" stroke="black" points="939.44,-123.5 939.44,-142.5 989.44,-142.5 989.44,-123.5 939.44,-123.5"/>
<text text-anchor="middle" x="964.44" y="-130.5" font-family="Helvetica,sans-Serif" font-size="10.00">Plant.h</text>
</a>
</g>
</g>
<!-- Node7&#45;&gt;Node8 -->
<g id="edge13" class="edge">
<title>Node7&#45;&gt;Node8</title>
<path fill="none" stroke="midnightblue" d="M444.58,-182.99C560.24,-172.09 832.19,-146.46 929.25,-137.32"/>
<polygon fill="midnightblue" stroke="midnightblue" points="929.79,-140.78 939.41,-136.36 929.13,-133.81 929.79,-140.78"/>
</g>
<!-- Node8&#45;&gt;Node3 -->
<g id="edge14" class="edge">
<title>Node8&#45;&gt;Node3</title>
<path fill="none" stroke="midnightblue" d="M939.13,-131.7C839.73,-130.26 476.22,-122.63 367.44,-87 330.56,-74.92 293.46,-48.37 272.28,-31.52"/>
<polygon fill="midnightblue" stroke="midnightblue" points="274.45,-28.77 264.48,-25.17 270.03,-34.19 274.45,-28.77"/>
</g>
<!-- Node9 -->
<g id="node9" class="node">
<title>Node9</title>
<g id="a_node9"><a xlink:title=" ">
<polygon fill="white" stroke="#bfbfbf" points="978.44,-67.5 978.44,-86.5 1016.44,-86.5 1016.44,-67.5 978.44,-67.5"/>
<text text-anchor="middle" x="997.44" y="-74.5" font-family="Helvetica,sans-Serif" font-size="10.00">map</text>
</a>
</g>
</g>
<!-- Node8&#45;&gt;Node9 -->
<g id="edge15" class="edge">
<title>Node8&#45;&gt;Node9</title>
<path fill="none" stroke="midnightblue" d="M969.89,-123.08C974.46,-115.61 981.11,-104.72 986.74,-95.52"/>
<polygon fill="midnightblue" stroke="midnightblue" points="989.87,-97.11 992.1,-86.75 983.9,-93.46 989.87,-97.11"/>
</g>
<!-- Node10 -->
<g id="node10" class="node">
<title>Node10</title>
<g id="a_node10"><a xlink:title=" ">
<polygon fill="white" stroke="#bfbfbf" points="1034.94,-67.5 1034.94,-86.5 1081.94,-86.5 1081.94,-67.5 1034.94,-67.5"/>
<text text-anchor="middle" x="1058.44" y="-74.5" font-family="Helvetica,sans-Serif" font-size="10.00">vector</text>
</a>
</g>
</g>
<!-- Node8&#45;&gt;Node10 -->
<g id="edge16" class="edge">
<title>Node8&#45;&gt;Node10</title>
<path fill="none" stroke="midnightblue" d="M979.55,-123.32C994.35,-114.82 1017.14,-101.73 1034.43,-91.8"/>
<polygon fill="midnightblue" stroke="midnightblue" points="1036.45,-94.67 1043.38,-86.65 1032.96,-88.6 1036.45,-94.67"/>
</g>
<!-- Node11 -->
<g id="node11" class="node">
<title>Node11</title>
<g id="a_node11"><a xlink:title=" ">
<polygon fill="white" stroke="#bfbfbf" points="1100.44,-67.5 1100.44,-86.5 1164.44,-86.5 1164.44,-67.5 1100.44,-67.5"/>
<text text-anchor="middle" x="1132.44" y="-74.5" font-family="Helvetica,sans-Serif" font-size="10.00">algorithm</text>
</a>
</g>
</g>
<!-- Node8&#45;&gt;Node11 -->
<g id="edge17" class="edge">
<title>Node8&#45;&gt;Node11</title>
<path fill="none" stroke="midnightblue" d="M989.6,-123.92C1017.76,-114.86 1063.67,-100.11 1095.82,-89.77"/>
<polygon fill="midnightblue" stroke="midnightblue" points="1097.28,-92.98 1105.73,-86.59 1095.14,-86.31 1097.28,-92.98"/>
</g>
<!-- Node12 -->
<g id="node12" class="node">
<title>Node12</title>
<g id="a_node12"><a xlink:title=" ">
<polygon fill="white" stroke="#bfbfbf" points="468.44,-6 468.44,-25 528.44,-25 528.44,-6 468.44,-6"/>
<text text-anchor="middle" x="498.44" y="-13" font-family="Helvetica,sans-Serif" font-size="10.00">iostream</text>
</a>
</g>
</g>
<!-- Node8&#45;&gt;Node12 -->
<g id="edge18" class="edge">
<title>Node8&#45;&gt;Node12</title>
<path fill="none" stroke="midnightblue" d="M939.23,-131.76C882.22,-130.54 739.64,-123.74 627.44,-87 621.91,-85.19 558.59,-50.06 522.77,-30.09"/>
<polygon fill="midnightblue" stroke="midnightblue" points="524.32,-26.95 513.89,-25.14 520.91,-33.06 524.32,-26.95"/>
</g>
<!-- Node13 -->
<g id="node13" class="node">
<title>Node13</title>
<g id="a_node13"><a xlink:title=" ">
<polygon fill="white" stroke="#bfbfbf" points="1182.94,-67.5 1182.94,-86.5 1295.94,-86.5 1295.94,-67.5 1182.94,-67.5"/>
<text text-anchor="middle" x="1239.44" y="-74.5" font-family="Helvetica,sans-Serif" font-size="10.00">boost/uuid/uuid.hpp</text>
</a>
</g>
</g>
<!-- Node8&#45;&gt;Node13 -->
<g id="edge19" class="edge">
<title>Node8&#45;&gt;Node13</title>
<path fill="none" stroke="midnightblue" d="M989.82,-127.02C1034.19,-118.3 1126.76,-100.13 1185.85,-88.52"/>
<polygon fill="midnightblue" stroke="midnightblue" points="1186.62,-91.94 1195.76,-86.58 1185.27,-85.07 1186.62,-91.94"/>
</g>
<!-- Node14 -->
<g id="node14" class="node">
<title>Node14</title>
<g id="a_node14"><a xlink:title=" ">
<polygon fill="white" stroke="#bfbfbf" points="1314.44,-67.5 1314.44,-86.5 1484.44,-86.5 1484.44,-67.5 1314.44,-67.5"/>
<text text-anchor="middle" x="1399.44" y="-74.5" font-family="Helvetica,sans-Serif" font-size="10.00">boost/uuid/uuid_generators.hpp</text>
</a>
</g>
</g>
<!-- Node8&#45;&gt;Node14 -->
<g id="edge20" class="edge">
<title>Node8&#45;&gt;Node14</title>
<path fill="none" stroke="midnightblue" d="M989.71,-128.86C1053,-121.01 1220.39,-100.23 1320.56,-87.79"/>
<polygon fill="midnightblue" stroke="midnightblue" points="1321.14,-91.25 1330.63,-86.54 1320.28,-84.3 1321.14,-91.25"/>
</g>
<!-- Node15 -->
<g id="node15" class="node">
<title>Node15</title>
<g id="a_node15"><a xlink:title=" ">
<polygon fill="white" stroke="#bfbfbf" points="376.94,-67.5 376.94,-86.5 503.94,-86.5 503.94,-67.5 376.94,-67.5"/>
<text text-anchor="middle" x="440.44" y="-74.5" font-family="Helvetica,sans-Serif" font-size="10.00">boost/uuid/uuid_io.hpp</text>
</a>
</g>
</g>
<!-- Node8&#45;&gt;Node15 -->
<g id="edge21" class="edge">
<title>Node8&#45;&gt;Node15</title>
<path fill="none" stroke="midnightblue" d="M938.99,-129.67C871.63,-123.46 682.89,-105.76 514.19,-87.06"/>
<polygon fill="midnightblue" stroke="midnightblue" points="514.46,-83.57 504.14,-85.94 513.69,-90.52 514.46,-83.57"/>
</g>
<!-- Node16 -->
<g id="node16" class="node">
<title>Node16</title>
<g id="a_node16"><a xlink:title=" ">
<polygon fill="white" stroke="#bfbfbf" points="1616.44,-67.5 1616.44,-86.5 1726.44,-86.5 1726.44,-67.5 1616.44,-67.5"/>
<text text-anchor="middle" x="1671.44" y="-74.5" font-family="Helvetica,sans-Serif" font-size="10.00">nlohmann/json.hpp</text>
</a>
</g>
</g>
<!-- Node8&#45;&gt;Node16 -->
<g id="edge22" class="edge">
<title>Node8&#45;&gt;Node16</title>
<path fill="none" stroke="midnightblue" d="M989.72,-130.76C1075.68,-126.42 1364.63,-110.88 1602.44,-87 1603.56,-86.89 1604.68,-86.77 1605.81,-86.65"/>
<polygon fill="midnightblue" stroke="midnightblue" points="1606.56,-90.09 1616.12,-85.51 1605.79,-83.13 1606.56,-90.09"/>
</g>
<!-- Node17 -->
<g id="node17" class="node">
<title>Node17</title>
<g id="a_node17"><a xlink:title=" ">
<polygon fill="white" stroke="#bfbfbf" points="1414.44,-6 1414.44,-25 1462.44,-25 1462.44,-6 1414.44,-6"/>
<text text-anchor="middle" x="1438.44" y="-13" font-family="Helvetica,sans-Serif" font-size="10.00">thread</text>
</a>
</g>
</g>
<!-- Node8&#45;&gt;Node17 -->
<g id="edge23" class="edge">
<title>Node8&#45;&gt;Node17</title>
<path fill="none" stroke="midnightblue" d="M989.53,-131.88C1091.84,-131.11 1473.83,-125.67 1509.44,-87 1528.5,-66.31 1495.05,-43.59 1467.89,-29.69"/>
<polygon fill="midnightblue" stroke="midnightblue" points="1469.16,-26.41 1458.64,-25.15 1466.08,-32.7 1469.16,-26.41"/>
</g>
<!-- Node18 -->
<g id="node18" class="node">
<title>Node18</title>
<g id="a_node18"><a xlink:title=" ">
<polygon fill="white" stroke="#bfbfbf" points="1535.44,-6 1535.44,-25 1585.44,-25 1585.44,-6 1535.44,-6"/>
<text text-anchor="middle" x="1560.44" y="-13" font-family="Helvetica,sans-Serif" font-size="10.00">atomic</text>
</a>
</g>
</g>
<!-- Node8&#45;&gt;Node18 -->
<g id="edge24" class="edge">
<title>Node8&#45;&gt;Node18</title>
<path fill="none" stroke="midnightblue" d="M989.47,-131.43C1092.51,-128.89 1480.59,-117.36 1525.44,-87 1542.91,-75.18 1552.04,-51.98 1556.54,-35.42"/>
<polygon fill="midnightblue" stroke="midnightblue" points="1560.05,-35.78 1558.95,-25.24 1553.24,-34.16 1560.05,-35.78"/>
</g>
<!-- Node19 -->
<g id="node19" class="node">
<title>Node19</title>
<g id="a_node19"><a xlink:href="GreenSock_8h.html" target="_top" xlink:title=" ">
<polygon fill="white" stroke="black" points="636.44,-67.5 636.44,-86.5 714.44,-86.5 714.44,-67.5 636.44,-67.5"/>
<text text-anchor="middle" x="675.44" y="-74.5" font-family="Helvetica,sans-Serif" font-size="10.00">GreenSock.h</text>
</a>
</g>
</g>
<!-- Node8&#45;&gt;Node19 -->
<g id="edge25" class="edge">
<title>Node8&#45;&gt;Node19</title>
<path fill="none" stroke="midnightblue" d="M939.3,-127.3C891.56,-118.38 787,-98.85 724.8,-87.22"/>
<polygon fill="midnightblue" stroke="midnightblue" points="725.29,-83.75 714.82,-85.36 724.01,-90.63 725.29,-83.75"/>
</g>
<!-- Node22 -->
<g id="node22" class="node">
<title>Node22</title>
<g id="a_node22"><a xlink:title=" ">
<polygon fill="white" stroke="#bfbfbf" points="830.44,-6 830.44,-25 878.44,-25 878.44,-6 830.44,-6"/>
<text text-anchor="middle" x="854.44" y="-13" font-family="Helvetica,sans-Serif" font-size="10.00">mutex</text>
</a>
</g>
</g>
<!-- Node8&#45;&gt;Node22 -->
<g id="edge45" class="edge">
<title>Node8&#45;&gt;Node22</title>
<path fill="none" stroke="midnightblue" d="M939.11,-130.23C889.73,-126.19 783.47,-114.45 761.44,-87 755.88,-80.07 756.9,-74.64 761.44,-67 765.23,-60.64 801.12,-42.26 827.19,-29.53"/>
<polygon fill="midnightblue" stroke="midnightblue" points="828.8,-32.64 836.27,-25.12 825.74,-26.34 828.8,-32.64"/>
</g>
<!-- Node23 -->
<g id="node23" class="node">
<title>Node23</title>
<g id="a_node23"><a xlink:href="Logger_8h.html" target="_top" xlink:title="Header for Strategy Logger.">
<polygon fill="white" stroke="black" points="522.44,-67.5 522.44,-86.5 580.44,-86.5 580.44,-67.5 522.44,-67.5"/>
<text text-anchor="middle" x="551.44" y="-74.5" font-family="Helvetica,sans-Serif" font-size="10.00">Logger.h</text>
</a>
</g>
</g>
<!-- Node8&#45;&gt;Node23 -->
<g id="edge31" class="edge">
<title>Node8&#45;&gt;Node23</title>
<path fill="none" stroke="midnightblue" d="M939.22,-129.68C879.22,-124 723.41,-108.3 594.44,-87 593.17,-86.79 591.89,-86.57 590.58,-86.34"/>
<polygon fill="midnightblue" stroke="midnightblue" points="591,-82.86 580.53,-84.44 589.7,-89.73 591,-82.86"/>
</g>
<!-- Node25 -->
<g id="node25" class="node">
<title>Node25</title>
<g id="a_node25"><a xlink:href="ThreadSafeQueue_8h_source.html" target="_top" xlink:title=" ">
<polygon fill="white" stroke="black" points="770.94,-67.5 770.94,-86.5 883.94,-86.5 883.94,-67.5 770.94,-67.5"/>
<text text-anchor="middle" x="827.44" y="-74.5" font-family="Helvetica,sans-Serif" font-size="10.00">ThreadSafeQueue.h</text>
</a>
</g>
</g>
<!-- Node8&#45;&gt;Node25 -->
<g id="edge35" class="edge">
<title>Node8&#45;&gt;Node25</title>
<path fill="none" stroke="midnightblue" d="M942.74,-123.44C920.09,-114.52 884.37,-100.44 858.69,-90.32"/>
<polygon fill="midnightblue" stroke="midnightblue" points="859.64,-86.93 849.05,-86.52 857.07,-93.44 859.64,-86.93"/>
</g>
<!-- Node26 -->
<g id="node26" class="node">
<title>Node26</title>
<g id="a_node26"><a xlink:title=" ">
<polygon fill="white" stroke="#bfbfbf" points="1239.94,-6 1239.94,-25 1286.94,-25 1286.94,-6 1239.94,-6"/>
<text text-anchor="middle" x="1263.44" y="-13" font-family="Helvetica,sans-Serif" font-size="10.00">queue</text>
</a>
</g>
</g>
<!-- Node8&#45;&gt;Node26 -->
<g id="edge43" class="edge">
<title>Node8&#45;&gt;Node26</title>
<path fill="none" stroke="midnightblue" d="M989.47,-131.81C1089.79,-130.79 1459,-124.5 1493.44,-87 1499.46,-80.45 1499.02,-73.93 1493.44,-67 1469.2,-36.86 1355.14,-23.69 1297.28,-18.86"/>
<polygon fill="midnightblue" stroke="midnightblue" points="1297.41,-15.36 1287.17,-18.06 1296.86,-22.34 1297.41,-15.36"/>
</g>
<!-- Node28 -->
<g id="node28" class="node">
<title>Node28</title>
<g id="a_node28"><a xlink:title=" ">
<polygon fill="white" stroke="#bfbfbf" points="902.44,-67.5 902.44,-86.5 960.44,-86.5 960.44,-67.5 902.44,-67.5"/>
<text text-anchor="middle" x="931.44" y="-74.5" font-family="Helvetica,sans-Serif" font-size="10.00">memory</text>
</a>
</g>
</g>
<!-- Node8&#45;&gt;Node28 -->
<g id="edge44" class="edge">
<title>Node8&#45;&gt;Node28</title>
<path fill="none" stroke="midnightblue" d="M959,-123.08C954.43,-115.61 947.78,-104.72 942.15,-95.52"/>
<polygon fill="midnightblue" stroke="midnightblue" points="944.99,-93.46 936.79,-86.75 939.02,-97.11 944.99,-93.46"/>
</g>
<!-- Node19&#45;&gt;Node3 -->
<g id="edge29" class="edge">
<title>Node19&#45;&gt;Node3</title>
<path fill="none" stroke="midnightblue" d="M636.23,-71.8C540.83,-61.52 303.17,-35.63 286.44,-31 284.3,-30.4 282.11,-29.68 279.94,-28.88"/>
<polygon fill="midnightblue" stroke="midnightblue" points="281.26,-25.65 270.69,-25.03 278.57,-32.11 281.26,-25.65"/>
</g>
<!-- Node19&#45;&gt;Node12 -->
<g id="edge28" class="edge">
<title>Node19&#45;&gt;Node12</title>
<path fill="none" stroke="midnightblue" d="M648.1,-67.45C620.18,-58.63 575.63,-44.32 537.44,-31 535.2,-30.22 532.89,-29.4 530.56,-28.56"/>
<polygon fill="midnightblue" stroke="midnightblue" points="531.67,-25.24 521.07,-25.09 529.26,-31.81 531.67,-25.24"/>
</g>
<!-- Node20 -->
<g id="node20" class="node">
<title>Node20</title>
<g id="a_node20"><a xlink:title=" ">
<polygon fill="white" stroke="#bfbfbf" points="698.94,-0.5 698.94,-30.5 811.94,-30.5 811.94,-0.5 698.94,-0.5"/>
<text text-anchor="start" x="706.94" y="-18.5" font-family="Helvetica,sans-Serif" font-size="10.00">websocketpp/config</text>
<text text-anchor="middle" x="755.44" y="-7.5" font-family="Helvetica,sans-Serif" font-size="10.00">/asio_no_tls.hpp</text>
</a>
</g>
</g>
<!-- Node19&#45;&gt;Node20 -->
<g id="edge26" class="edge">
<title>Node19&#45;&gt;Node20</title>
<path fill="none" stroke="midnightblue" d="M686.91,-67.48C697.64,-59.49 714.09,-47.25 728.19,-36.77"/>
<polygon fill="midnightblue" stroke="midnightblue" points="730.65,-39.3 736.59,-30.52 726.48,-33.68 730.65,-39.3"/>
</g>
<!-- Node21 -->
<g id="node21" class="node">
<title>Node21</title>
<g id="a_node21"><a xlink:title=" ">
<polygon fill="white" stroke="#bfbfbf" points="546.44,-6 546.44,-25 680.44,-25 680.44,-6 546.44,-6"/>
<text text-anchor="middle" x="613.44" y="-13" font-family="Helvetica,sans-Serif" font-size="10.00">websocketpp/server.hpp</text>
</a>
</g>
</g>
<!-- Node19&#45;&gt;Node21 -->
<g id="edge27" class="edge">
<title>Node19&#45;&gt;Node21</title>
<path fill="none" stroke="midnightblue" d="M666.56,-67.48C656.99,-58.28 641.53,-43.46 629.76,-32.16"/>
<polygon fill="midnightblue" stroke="midnightblue" points="631.95,-29.41 622.31,-25.01 627.1,-34.46 631.95,-29.41"/>
</g>
<!-- Node19&#45;&gt;Node22 -->
<g id="edge30" class="edge">
<title>Node19&#45;&gt;Node22</title>
<path fill="none" stroke="midnightblue" d="M706.02,-67.5C735.57,-59.05 781.48,-45.31 820.44,-31 822.1,-30.39 823.79,-29.75 825.5,-29.08"/>
<polygon fill="midnightblue" stroke="midnightblue" points="827.23,-32.15 835.16,-25.13 824.58,-25.67 827.23,-32.15"/>
</g>
<!-- Node23&#45;&gt;Node3 -->
<g id="edge32" class="edge">
<title>Node23&#45;&gt;Node3</title>
<path fill="none" stroke="midnightblue" d="M522.1,-69C518.85,-68.29 515.58,-67.61 512.44,-67 412.61,-47.55 383.86,-60.25 286.44,-31 284.52,-30.42 282.55,-29.75 280.6,-29.02"/>
<polygon fill="midnightblue" stroke="midnightblue" points="281.64,-25.66 271.06,-25.04 278.94,-32.12 281.64,-25.66"/>
</g>
<!-- Node23&#45;&gt;Node12 -->
<g id="edge33" class="edge">
<title>Node23&#45;&gt;Node12</title>
<path fill="none" stroke="midnightblue" d="M543.85,-67.48C535.74,-58.37 522.71,-43.74 512.68,-32.48"/>
<polygon fill="midnightblue" stroke="midnightblue" points="515.29,-30.15 506.02,-25.01 510.06,-34.8 515.29,-30.15"/>
</g>
<!-- Node23&#45;&gt;Node24 -->
<g id="edge34" class="edge">
<title>Node23&#45;&gt;Node24</title>
<path fill="none" stroke="midnightblue" d="M522.29,-68.22C483.52,-57.88 414.73,-39.52 370.38,-27.69"/>
<polygon fill="midnightblue" stroke="midnightblue" points="371.06,-24.25 360.49,-25.05 369.25,-31.01 371.06,-24.25"/>
</g>
<!-- Node25&#45;&gt;Node3 -->
<g id="edge41" class="edge">
<title>Node25&#45;&gt;Node3</title>
<path fill="none" stroke="midnightblue" d="M770.77,-71.05C755.42,-69.72 738.79,-68.3 723.44,-67 529.26,-50.6 475.08,-79.94 286.44,-31 284.29,-30.44 282.09,-29.74 279.91,-28.96"/>
<polygon fill="midnightblue" stroke="midnightblue" points="281.24,-25.72 270.66,-25.14 278.57,-32.19 281.24,-25.72"/>
</g>
<!-- Node25&#45;&gt;Node12 -->
<g id="edge36" class="edge">
<title>Node25&#45;&gt;Node12</title>
<path fill="none" stroke="midnightblue" d="M770.89,-70.64C711.94,-64.27 617.19,-51.78 537.44,-31 534.63,-30.27 531.73,-29.4 528.85,-28.47"/>
<polygon fill="midnightblue" stroke="midnightblue" points="529.84,-25.11 519.24,-25.12 527.53,-31.72 529.84,-25.11"/>
</g>
<!-- Node25&#45;&gt;Node17 -->
<g id="edge37" class="edge">
<title>Node25&#45;&gt;Node17</title>
<path fill="none" stroke="midnightblue" d="M883.95,-68.12C887.16,-67.73 890.34,-67.35 893.44,-67 1072.14,-46.85 1117.44,-48.13 1296.44,-31 1333.35,-27.47 1375.63,-23.11 1404.39,-20.1"/>
<polygon fill="midnightblue" stroke="midnightblue" points="1404.75,-23.58 1414.33,-19.06 1404.02,-16.62 1404.75,-23.58"/>
</g>
<!-- Node25&#45;&gt;Node18 -->
<g id="edge42" class="edge">
<title>Node25&#45;&gt;Node18</title>
<path fill="none" stroke="midnightblue" d="M884.3,-67.98C887.39,-67.63 890.45,-67.3 893.44,-67 1149.57,-41.59 1215.67,-59.73 1471.44,-31 1489.18,-29.01 1508.78,-25.91 1525.05,-23.09"/>
<polygon fill="midnightblue" stroke="midnightblue" points="1525.98,-26.48 1535.22,-21.3 1524.76,-19.59 1525.98,-26.48"/>
</g>
<!-- Node25&#45;&gt;Node22 -->
<g id="edge39" class="edge">
<title>Node25&#45;&gt;Node22</title>
<path fill="none" stroke="midnightblue" d="M831.31,-67.48C835.24,-58.82 841.44,-45.15 846.44,-34.15"/>
<polygon fill="midnightblue" stroke="midnightblue" points="849.64,-35.56 850.58,-25.01 843.26,-32.67 849.64,-35.56"/>
</g>
<!-- Node25&#45;&gt;Node26 -->
<g id="edge38" class="edge">
<title>Node25&#45;&gt;Node26</title>
<path fill="none" stroke="midnightblue" d="M884,-68.28C975.79,-55.75 1154.48,-31.37 1229.26,-21.17"/>
<polygon fill="midnightblue" stroke="midnightblue" points="1230.08,-24.59 1239.51,-19.77 1229.13,-17.65 1230.08,-24.59"/>
</g>
<!-- Node27 -->
<g id="node27" class="node">
<title>Node27</title>
<g id="a_node27"><a xlink:title=" ">
<polygon fill="white" stroke="#bfbfbf" points="896.94,-6 896.94,-25 1003.94,-25 1003.94,-6 896.94,-6"/>
<text text-anchor="middle" x="950.44" y="-13" font-family="Helvetica,sans-Serif" font-size="10.00">condition_variable</text>
</a>
</g>
</g>
<!-- Node25&#45;&gt;Node27 -->
<g id="edge40" class="edge">
<title>Node25&#45;&gt;Node27</title>
<path fill="none" stroke="midnightblue" d="M845.07,-67.48C865.62,-57.53 899.81,-40.99 923.65,-29.46"/>
<polygon fill="midnightblue" stroke="midnightblue" points="925.38,-32.51 932.85,-25.01 922.33,-26.21 925.38,-32.51"/>
</g>
<!-- Node29&#45;&gt;Node16 -->
<g id="edge48" class="edge">
<title>Node29&#45;&gt;Node16</title>
<path fill="none" stroke="midnightblue" d="M1399.58,-126.77C1448.95,-117.92 1549.9,-99.81 1613.93,-88.32"/>
<polygon fill="midnightblue" stroke="midnightblue" points="1614.65,-91.75 1623.87,-86.53 1613.41,-84.86 1614.65,-91.75"/>
</g>
</g>
</svg>
        <g id="navigator" transform="translate(0 0)" fill="#404254">
                <rect fill="#f2f5e9" fill-opacity="0.5" stroke="#606060" stroke-width=".5" x="0" y="0" width="60" height="60"/>
                <use id="zoomplus" xlink:href="#zoomPlus" x="17" y="9" onmousedown="handleZoom(evt,'in')"/>
                <use id="zoomminus" xlink:href="#zoomMin" x="42" y="9" onmousedown="handleZoom(evt,'out')"/>
                <use id="reset" xlink:href="#resetDef" x="30" y="36" onmousedown="handleReset()"/>
                <g id="arrowUp" xlink:href="#dirArrow" transform="translate(30 24)" onmousedown="handlePan(0,-1)">
                  <use xlink:href="#rim" fill="#404040">
                        <set attributeName="fill" to="#808080" begin="arrowUp.mouseover" end="arrowUp.mouseout"/>
                  </use>
                  <path fill="none" stroke="white" stroke-width="1.5" d="M0,-3.0v7 M-2.5,-0.5L0,-3.0L2.5,-0.5"/>
                </g>
                <g id="arrowRight" xlink:href="#dirArrow" transform="rotate(90) translate(36 -43)" onmousedown="handlePan(1,0)">
                  <use xlink:href="#rim" fill="#404040">
                        <set attributeName="fill" to="#808080" begin="arrowRight.mouseover" end="arrowRight.mouseout"/>
                  </use>
                  <path fill="none" stroke="white" stroke-width="1.5" d="M0,-3.0v7 M-2.5,-0.5L0,-3.0L2.5,-0.5"/>
                </g>
                <g id="arrowDown" xlink:href="#dirArrow" transform="rotate(180) translate(-30 -48)" onmousedown="handlePan(0,1)">
                  <use xlink:href="#rim" fill="#404040">
                        <set attributeName="fill" to="#808080" begin="arrowDown.mouseover" end="arrowDown.mouseout"/>
                  </use>
                  <path fill="none" stroke="white" stroke-width="1.5" d="M0,-3.0v7 M-2.5,-0.5L0,-3.0L2.5,-0.5"/>
                </g>
                <g id="arrowLeft" xlink:href="#dirArrow" transform="rotate(270) translate(-36 17)" onmousedown="handlePan(-1,0)">
                  <use xlink:href="#rim" fill="#404040">
                        <set attributeName="fill" to="#808080" begin="arrowLeft.mouseover" end="arrowLeft.mouseout"/>
                  </use>
                  <path fill="none" stroke="white" stroke-width="1.5" d="M0,-3.0v7 M-2.5,-0.5L0,-3.0L2.5,-0.5"/>
                </g>
        </g>
        <svg viewBox="0 0 15 15" width="100%" height="30px" preserveAspectRatio="xMaxYMin meet">
         <g id="arrow_out" transform="scale(0.3 0.3)">
          <a xlink:href="Transaction_8h__incl_org.svg" target="_base">
           <rect id="button" ry="5" rx="5" y="6" x="6" height="38" width="38"
                fill="#f2f5e9" fill-opacity="0.5" stroke="#606060" stroke-width="1.0"/>
           <path id="arrow"
             d="M 11.500037,31.436501 C 11.940474,20.09759 22.043105,11.32322 32.158766,21.979434 L 37.068811,17.246167 C 37.068811,17.246167 37.088388,32 37.088388,32 L 22.160133,31.978069 C 22.160133,31.978069 26.997745,27.140456 26.997745,27.140456 C 18.528582,18.264221 13.291696,25.230495 11.500037,31.436501 z"
             style="fill:#404040;"/>
          </a>
         </g>
        </svg>
</svg>
