<?xml version="1.0" encoding="UTF-8" standalone="no"?>
<!DOCTYPE svg PUBLIC "-//W3C//DTD SVG 1.1//EN"
 "http://www.w3.org/Graphics/SVG/1.1/DTD/svg11.dtd">
<!-- Generated by graphviz version 2.43.0 (0)
 -->
<!-- Title: backend/game/TransactionStrategy.h Pages: 1 -->
<svg width="979pt" height="520pt"
 viewBox="0.00 0.00 979.00 520.00" xmlns="http://www.w3.org/2000/svg" xmlns:xlink="http://www.w3.org/1999/xlink">
<g id="graph0" class="graph" transform="scale(1 1) rotate(0) translate(4 516)">
<title>backend/game/TransactionStrategy.h</title>
<polygon fill="white" stroke="transparent" points="-4,4 -4,-516 975,-516 975,4 -4,4"/>
<!-- Node1 -->
<g id="node1" class="node">
<title>Node1</title>
<g id="a_node1"><a xlink:title=" ">
<polygon fill="#bfbfbf" stroke="black" points="306.5,-481.5 306.5,-511.5 452.5,-511.5 452.5,-481.5 306.5,-481.5"/>
<text text-anchor="start" x="314.5" y="-499.5" font-family="Helvetica,sans-Serif" font-size="10.00">backend/game/Transaction</text>
<text text-anchor="middle" x="379.5" y="-488.5" font-family="Helvetica,sans-Serif" font-size="10.00">Strategy.h</text>
</a>
</g>
</g>
<!-- Node2 -->
<g id="node2" class="node">
<title>Node2</title>
<g id="a_node2"><a xlink:href="PlantDied_8h.html" target="_top" xlink:title=" ">
<polygon fill="white" stroke="black" points="0,-420 0,-439 147,-439 147,-420 0,-420"/>
<text text-anchor="middle" x="73.5" y="-427" font-family="Helvetica,sans-Serif" font-size="10.00">backend/game/PlantDied.h</text>
</a>
</g>
</g>
<!-- Node1&#45;&gt;Node2 -->
<g id="edge1" class="edge">
<title>Node1&#45;&gt;Node2</title>
<path fill="none" stroke="midnightblue" d="M303.64,-479.39C243.49,-466.61 161.79,-449.25 113.65,-439.03"/>
<polygon fill="midnightblue" stroke="midnightblue" points="302.97,-482.82 313.48,-481.48 304.42,-475.97 302.97,-482.82"/>
</g>
<!-- Node3 -->
<g id="node3" class="node">
<title>Node3</title>
<g id="a_node3"><a xlink:href="game_2Restock_8h.html" target="_top" xlink:title=" ">
<polygon fill="white" stroke="black" points="165,-420 165,-439 304,-439 304,-420 165,-420"/>
<text text-anchor="middle" x="234.5" y="-427" font-family="Helvetica,sans-Serif" font-size="10.00">backend/game/Restock.h</text>
</a>
</g>
</g>
<!-- Node1&#45;&gt;Node3 -->
<g id="edge2" class="edge">
<title>Node1&#45;&gt;Node3</title>
<path fill="none" stroke="midnightblue" d="M338.89,-477.3C310.93,-464.76 275.06,-448.68 253.48,-439.01"/>
<polygon fill="midnightblue" stroke="midnightblue" points="337.48,-480.5 348.04,-481.4 340.34,-474.11 337.48,-480.5"/>
</g>
<!-- Node4 -->
<g id="node4" class="node">
<title>Node4</title>
<g id="a_node4"><a xlink:href="Transaction_8h.html" target="_top" xlink:title=" ">
<polygon fill="white" stroke="black" points="302,-358.5 302,-377.5 457,-377.5 457,-358.5 302,-358.5"/>
<text text-anchor="middle" x="379.5" y="-365.5" font-family="Helvetica,sans-Serif" font-size="10.00">backend/game/Transaction.h</text>
</a>
</g>
</g>
<!-- Node1&#45;&gt;Node4 -->
<g id="edge21" class="edge">
<title>Node1&#45;&gt;Node4</title>
<path fill="none" stroke="midnightblue" d="M363.6,-472.61C358.72,-464.3 353.98,-454.59 351.5,-445 348.05,-431.66 347.71,-427.25 351.5,-414 355.49,-400.02 365.22,-386.16 372.09,-377.59"/>
<polygon fill="midnightblue" stroke="midnightblue" points="360.78,-474.7 369.06,-481.31 366.71,-470.98 360.78,-474.7"/>
</g>
<!-- Node14 -->
<g id="node14" class="node">
<title>Node14</title>
<g id="a_node14"><a xlink:href="Return_8h.html" target="_top" xlink:title=" ">
<polygon fill="white" stroke="black" points="360.5,-420 360.5,-439 492.5,-439 492.5,-420 360.5,-420"/>
<text text-anchor="middle" x="426.5" y="-427" font-family="Helvetica,sans-Serif" font-size="10.00">backend/game/Return.h</text>
</a>
</g>
</g>
<!-- Node1&#45;&gt;Node14 -->
<g id="edge17" class="edge">
<title>Node1&#45;&gt;Node14</title>
<path fill="none" stroke="midnightblue" d="M395.79,-472.97C404.21,-461.33 413.99,-447.8 420.21,-439.19"/>
<polygon fill="midnightblue" stroke="midnightblue" points="392.72,-471.24 389.7,-481.4 398.39,-475.34 392.72,-471.24"/>
</g>
<!-- Node15 -->
<g id="node15" class="node">
<title>Node15</title>
<g id="a_node15"><a xlink:href="Sale_8h.html" target="_top" xlink:title=" ">
<polygon fill="white" stroke="black" points="511,-420 511,-439 632,-439 632,-420 511,-420"/>
<text text-anchor="middle" x="571.5" y="-427" font-family="Helvetica,sans-Serif" font-size="10.00">backend/game/Sale.h</text>
</a>
</g>
</g>
<!-- Node1&#45;&gt;Node15 -->
<g id="edge19" class="edge">
<title>Node1&#45;&gt;Node15</title>
<path fill="none" stroke="midnightblue" d="M430.87,-478.11C468.23,-465.46 517.17,-448.89 546.37,-439.01"/>
<polygon fill="midnightblue" stroke="midnightblue" points="429.51,-474.87 421.16,-481.4 431.76,-481.5 429.51,-474.87"/>
</g>
<!-- Node16 -->
<g id="node16" class="node">
<title>Node16</title>
<g id="a_node16"><a xlink:href="greenhouse_2Restock_8h_source.html" target="_top" xlink:title=" ">
<polygon fill="white" stroke="black" points="650,-414.5 650,-444.5 767,-444.5 767,-414.5 650,-414.5"/>
<text text-anchor="start" x="658" y="-432.5" font-family="Helvetica,sans-Serif" font-size="10.00">backend/greenhouse</text>
<text text-anchor="middle" x="708.5" y="-421.5" font-family="Helvetica,sans-Serif" font-size="10.00">/Restock.h</text>
</a>
</g>
</g>
<!-- Node1&#45;&gt;Node16 -->
<g id="edge22" class="edge">
<title>Node1&#45;&gt;Node16</title>
<path fill="none" stroke="midnightblue" d="M462.8,-479.94C514.34,-470.2 581.83,-457.21 641.5,-445 644.18,-444.45 646.92,-443.88 649.69,-443.31"/>
<polygon fill="midnightblue" stroke="midnightblue" points="461.89,-476.55 452.71,-481.85 463.19,-483.43 461.89,-476.55"/>
</g>
<!-- Node3&#45;&gt;Node4 -->
<g id="edge3" class="edge">
<title>Node3&#45;&gt;Node4</title>
<path fill="none" stroke="midnightblue" d="M264.64,-416.13C292.81,-404.57 334.12,-387.62 358.76,-377.51"/>
<polygon fill="midnightblue" stroke="midnightblue" points="263.2,-412.94 255.27,-419.98 265.86,-419.42 263.2,-412.94"/>
</g>
<!-- Node5 -->
<g id="node5" class="node">
<title>Node5</title>
<g id="a_node5"><a xlink:href="Manager_8h_source.html" target="_top" xlink:title=" ">
<polygon fill="white" stroke="black" points="321,-291.5 321,-321.5 438,-321.5 438,-291.5 321,-291.5"/>
<text text-anchor="start" x="329" y="-309.5" font-family="Helvetica,sans-Serif" font-size="10.00">backend/greenhouse</text>
<text text-anchor="middle" x="379.5" y="-298.5" font-family="Helvetica,sans-Serif" font-size="10.00">/Manager.h</text>
</a>
</g>
</g>
<!-- Node4&#45;&gt;Node5 -->
<g id="edge4" class="edge">
<title>Node4&#45;&gt;Node5</title>
<path fill="none" stroke="midnightblue" d="M379.5,-348.23C379.5,-339.59 379.5,-329.5 379.5,-321.52"/>
<polygon fill="midnightblue" stroke="midnightblue" points="376,-348.48 379.5,-358.48 383,-348.48 376,-348.48"/>
</g>
<!-- Node6 -->
<g id="node6" class="node">
<title>Node6</title>
<g id="a_node6"><a xlink:href="Game_8h.html" target="_top" xlink:title="Header file for Game class.">
<polygon fill="white" stroke="black" points="315,-235.5 315,-254.5 444,-254.5 444,-235.5 315,-235.5"/>
<text text-anchor="middle" x="379.5" y="-242.5" font-family="Helvetica,sans-Serif" font-size="10.00">backend/game/Game.h</text>
</a>
</g>
</g>
<!-- Node5&#45;&gt;Node6 -->
<g id="edge5" class="edge">
<title>Node5&#45;&gt;Node6</title>
<path fill="none" stroke="midnightblue" d="M379.5,-281.29C379.5,-271.86 379.5,-261.65 379.5,-254.66"/>
<polygon fill="midnightblue" stroke="midnightblue" points="376,-281.4 379.5,-291.4 383,-281.4 376,-281.4"/>
</g>
<!-- Node7 -->
<g id="node7" class="node">
<title>Node7</title>
<g id="a_node7"><a xlink:href="API_8h.html" target="_top" xlink:title="Bootstrapper for public facing API.">
<polygon fill="white" stroke="black" points="247.5,-179.5 247.5,-198.5 351.5,-198.5 351.5,-179.5 247.5,-179.5"/>
<text text-anchor="middle" x="299.5" y="-186.5" font-family="Helvetica,sans-Serif" font-size="10.00">backend/API/API.h</text>
</a>
</g>
</g>
<!-- Node6&#45;&gt;Node7 -->
<g id="edge6" class="edge">
<title>Node6&#45;&gt;Node7</title>
<path fill="none" stroke="midnightblue" d="M358.2,-229.62C343.58,-219.76 324.67,-206.99 312.32,-198.65"/>
<polygon fill="midnightblue" stroke="midnightblue" points="356.4,-232.63 366.65,-235.32 360.32,-226.83 356.4,-232.63"/>
</g>
<!-- Node8 -->
<g id="node8" class="node">
<title>Node8</title>
<g id="a_node8"><a xlink:href="APIController_8h.html" target="_top" xlink:title="Define endpoints.">
<polygon fill="white" stroke="black" points="414,-56.5 414,-75.5 565,-75.5 565,-56.5 414,-56.5"/>
<text text-anchor="middle" x="489.5" y="-63.5" font-family="Helvetica,sans-Serif" font-size="10.00">backend/API/APIController.h</text>
</a>
</g>
</g>
<!-- Node6&#45;&gt;Node8 -->
<g id="edge9" class="edge">
<title>Node6&#45;&gt;Node8</title>
<path fill="none" stroke="midnightblue" d="M377.07,-225.04C374.59,-197.44 374.01,-145.79 398.5,-112 411.84,-93.59 434.85,-82.31 454.39,-75.65"/>
<polygon fill="midnightblue" stroke="midnightblue" points="373.63,-225.72 378.19,-235.28 380.58,-224.96 373.63,-225.72"/>
</g>
<!-- Node10 -->
<g id="node10" class="node">
<title>Node10</title>
<g id="a_node10"><a xlink:href="MenuOption_8h_source.html" target="_top" xlink:title=" ">
<polygon fill="white" stroke="black" points="505,-179.5 505,-198.5 664,-198.5 664,-179.5 505,-179.5"/>
<text text-anchor="middle" x="584.5" y="-186.5" font-family="Helvetica,sans-Serif" font-size="10.00">backend/game/MenuOption.h</text>
</a>
</g>
</g>
<!-- Node6&#45;&gt;Node10 -->
<g id="edge10" class="edge">
<title>Node6&#45;&gt;Node10</title>
<path fill="none" stroke="midnightblue" d="M421.91,-232.83C460.61,-222.63 516.99,-207.78 552.17,-198.52"/>
<polygon fill="midnightblue" stroke="midnightblue" points="420.76,-229.51 411.98,-235.44 422.54,-236.28 420.76,-229.51"/>
</g>
<!-- Node7&#45;&gt;Node8 -->
<g id="edge7" class="edge">
<title>Node7&#45;&gt;Node8</title>
<path fill="none" stroke="midnightblue" d="M310.59,-170.73C322.36,-153.66 342.41,-127.86 365.5,-112 391.46,-94.17 425.3,-82.51 451.07,-75.54"/>
<polygon fill="midnightblue" stroke="midnightblue" points="307.58,-168.94 304.94,-179.2 313.4,-172.82 307.58,-168.94"/>
</g>
<!-- Node9 -->
<g id="node9" class="node">
<title>Node9</title>
<g id="a_node9"><a xlink:href="APIController_8cpp.html" target="_top" xlink:title="Still need to see what going to do here.">
<polygon fill="white" stroke="black" points="408.5,-0.5 408.5,-19.5 570.5,-19.5 570.5,-0.5 408.5,-0.5"/>
<text text-anchor="middle" x="489.5" y="-7.5" font-family="Helvetica,sans-Serif" font-size="10.00">backend/API/APIController.cpp</text>
</a>
</g>
</g>
<!-- Node8&#45;&gt;Node9 -->
<g id="edge8" class="edge">
<title>Node8&#45;&gt;Node9</title>
<path fill="none" stroke="midnightblue" d="M489.5,-45.8C489.5,-36.91 489.5,-26.78 489.5,-19.75"/>
<polygon fill="midnightblue" stroke="midnightblue" points="486,-46.08 489.5,-56.08 493,-46.08 486,-46.08"/>
</g>
<!-- Node11 -->
<g id="node11" class="node">
<title>Node11</title>
<g id="a_node11"><a xlink:href="ContinueGameOption_8h.html" target="_top" xlink:title="Header file for ContinueGameOption class.">
<polygon fill="white" stroke="black" points="407.5,-112.5 407.5,-142.5 571.5,-142.5 571.5,-112.5 407.5,-112.5"/>
<text text-anchor="start" x="415.5" y="-130.5" font-family="Helvetica,sans-Serif" font-size="10.00">backend/game/ContinueGame</text>
<text text-anchor="middle" x="489.5" y="-119.5" font-family="Helvetica,sans-Serif" font-size="10.00">Option.h</text>
</a>
</g>
</g>
<!-- Node10&#45;&gt;Node11 -->
<g id="edge11" class="edge">
<title>Node10&#45;&gt;Node11</title>
<path fill="none" stroke="midnightblue" d="M562.16,-174.01C547.01,-164.52 527.05,-152.02 511.89,-142.52"/>
<polygon fill="midnightblue" stroke="midnightblue" points="560.56,-177.13 570.89,-179.48 564.27,-171.2 560.56,-177.13"/>
</g>
<!-- Node12 -->
<g id="node12" class="node">
<title>Node12</title>
<g id="a_node12"><a xlink:href="ExitGameOption_8h.html" target="_top" xlink:title=" ">
<polygon fill="white" stroke="black" points="589.5,-118 589.5,-137 769.5,-137 769.5,-118 589.5,-118"/>
<text text-anchor="middle" x="679.5" y="-125" font-family="Helvetica,sans-Serif" font-size="10.00">backend/game/ExitGameOption.h</text>
</a>
</g>
</g>
<!-- Node10&#45;&gt;Node12 -->
<g id="edge13" class="edge">
<title>Node10&#45;&gt;Node12</title>
<path fill="none" stroke="midnightblue" d="M606.71,-174.09C625.05,-162.6 650.48,-146.68 665.91,-137.01"/>
<polygon fill="midnightblue" stroke="midnightblue" points="604.73,-171.2 598.11,-179.48 608.44,-177.13 604.73,-171.2"/>
</g>
<!-- Node13 -->
<g id="node13" class="node">
<title>Node13</title>
<g id="a_node13"><a xlink:href="NewGameOption_8h.html" target="_top" xlink:title="Header file for NewGameOption class.">
<polygon fill="white" stroke="black" points="788,-118 788,-137 971,-137 971,-118 788,-118"/>
<text text-anchor="middle" x="879.5" y="-125" font-family="Helvetica,sans-Serif" font-size="10.00">backend/game/NewGameOption.h</text>
</a>
</g>
</g>
<!-- Node10&#45;&gt;Node13 -->
<g id="edge15" class="edge">
<title>Node10&#45;&gt;Node13</title>
<path fill="none" stroke="midnightblue" d="M636.69,-177.47C693.86,-165.94 784.45,-147.67 837.31,-137.01"/>
<polygon fill="midnightblue" stroke="midnightblue" points="635.88,-174.07 626.77,-179.48 637.26,-180.93 635.88,-174.07"/>
</g>
<!-- Node11&#45;&gt;Node8 -->
<g id="edge12" class="edge">
<title>Node11&#45;&gt;Node8</title>
<path fill="none" stroke="midnightblue" d="M489.5,-102.29C489.5,-92.86 489.5,-82.65 489.5,-75.66"/>
<polygon fill="midnightblue" stroke="midnightblue" points="486,-102.4 489.5,-112.4 493,-102.4 486,-102.4"/>
</g>
<!-- Node12&#45;&gt;Node8 -->
<g id="edge14" class="edge">
<title>Node12&#45;&gt;Node8</title>
<path fill="none" stroke="midnightblue" d="M642.4,-114.88C605.46,-103.32 549.66,-85.84 516.67,-75.51"/>
<polygon fill="midnightblue" stroke="midnightblue" points="641.69,-118.33 652.28,-117.98 643.78,-111.65 641.69,-118.33"/>
</g>
<!-- Node13&#45;&gt;Node8 -->
<g id="edge16" class="edge">
<title>Node13&#45;&gt;Node8</title>
<path fill="none" stroke="midnightblue" d="M813.3,-116.4C737.91,-104.9 616.03,-86.3 545.27,-75.51"/>
<polygon fill="midnightblue" stroke="midnightblue" points="813.21,-119.93 823.62,-117.98 814.26,-113.01 813.21,-119.93"/>
</g>
<!-- Node14&#45;&gt;Node4 -->
<g id="edge18" class="edge">
<title>Node14&#45;&gt;Node4</title>
<path fill="none" stroke="midnightblue" d="M413.34,-411.84C404.52,-400.67 393.27,-386.43 386.22,-377.51"/>
<polygon fill="midnightblue" stroke="midnightblue" points="410.82,-414.3 419.77,-419.98 416.31,-409.96 410.82,-414.3"/>
</g>
<!-- Node15&#45;&gt;Node4 -->
<g id="edge20" class="edge">
<title>Node15&#45;&gt;Node4</title>
<path fill="none" stroke="midnightblue" d="M534.01,-416.88C496.69,-405.32 440.3,-387.84 406.96,-377.51"/>
<polygon fill="midnightblue" stroke="midnightblue" points="533.4,-420.36 543.99,-419.98 535.48,-413.67 533.4,-420.36"/>
</g>
</g>
</svg>
