<?xml version="1.0" encoding="UTF-8" standalone="no"?>
<!DOCTYPE svg PUBLIC "-//W3C//DTD SVG 1.1//EN"
 "http://www.w3.org/Graphics/SVG/1.1/DTD/svg11.dtd">
<!-- Generated by graphviz version 2.43.0 (0)
 -->
<!-- Title: backend/game/TransactionMem.h Pages: 1 -->
<!--zoomable 676 -->
<svg id="main" version="1.1" xmlns="http://www.w3.org/2000/svg" xmlns:xlink="http://www.w3.org/1999/xlink" xml:space="preserve" onload="init(evt)">
<style type="text/css"><![CDATA[
.edge:hover path { stroke: red; }
.edge:hover polygon { stroke: red; fill: red; }
]]></style>
<script type="text/javascript"><![CDATA[
var edges = document.getElementsByTagName('g');
if (edges && edges.length) {
  for (var i=0;i<edges.length;i++) {
    if (edges[i].id.substr(0,4)=='edge') {
      edges[i].setAttribute('class','edge');
    }
  }
}
]]></script>
        <defs>
                <circle id="rim" cx="0" cy="0" r="7"/>
                <circle id="rim2" cx="0" cy="0" r="3.5"/>
                <g id="zoomPlus">
                        <use xlink:href="#rim" fill="#404040">
                                <set attributeName="fill" to="#808080" begin="zoomplus.mouseover" end="zoomplus.mouseout"/>
                        </use>
                        <path d="M-4,0h8M0,-4v8" fill="none" stroke="white" stroke-width="1.5" pointer-events="none"/>
                </g>
                <g id="zoomMin">
                        <use xlink:href="#rim" fill="#404040">
                                <set attributeName="fill" to="#808080" begin="zoomminus.mouseover" end="zoomminus.mouseout"/>
                        </use>
                        <path d="M-4,0h8" fill="none" stroke="white" stroke-width="1.5" pointer-events="none"/>
                </g>
                <g id="dirArrow">
                        <path fill="none" stroke="white" stroke-width="1.5" d="M0,-3.0v7 M-2.5,-0.5L0,-3.0L2.5,-0.5"/>
                </g>
               <g id="resetDef">
                       <use xlink:href="#rim2" fill="#404040">
                               <set attributeName="fill" to="#808080" begin="reset.mouseover" end="reset.mouseout"/>
                       </use>
               </g>
        </defs>

<script type="text/javascript">
var viewWidth = 1670;
var viewHeight = 676;
var sectionId = 'dynsection-1';
</script>
<script xlink:href="svgpan.js"/>
<svg id="graph" class="graph">
<g id="viewport">
<title>backend/game/TransactionMem.h</title>
<polygon fill="white" stroke="transparent" points="-4,4 -4,-672 1666.02,-672 1666.02,4 -4,4"/>
<!-- Node1 -->
<g id="node1" class="node">
<title>Node1</title>
<g id="a_node1"><a xlink:title=" ">
<polygon fill="#bfbfbf" stroke="black" points="135.02,-637.5 135.02,-667.5 281.02,-667.5 281.02,-637.5 135.02,-637.5"/>
<text text-anchor="start" x="143.02" y="-655.5" font-family="Helvetica,sans-Serif" font-size="10.00">backend/game/Transaction</text>
<text text-anchor="middle" x="208.02" y="-644.5" font-family="Helvetica,sans-Serif" font-size="10.00">Mem.h</text>
</a>
</g>
</g>
<!-- Node2 -->
<g id="node2" class="node">
<title>Node2</title>
<g id="a_node2"><a xlink:href="Transaction_8h.html" target="_top" xlink:title="Represents a financial transaction in the system.">
<polygon fill="white" stroke="black" points="54.52,-509 54.52,-528 209.52,-528 209.52,-509 54.52,-509"/>
<text text-anchor="middle" x="132.02" y="-516" font-family="Helvetica,sans-Serif" font-size="10.00">backend/game/Transaction.h</text>
</a>
</g>
</g>
<!-- Node1&#45;&gt;Node2 -->
<g id="edge1" class="edge">
<title>Node1&#45;&gt;Node2</title>
<path fill="none" stroke="midnightblue" d="M194.77,-628.49C177.61,-598.68 148.52,-548.17 136.97,-528.1"/>
<polygon fill="midnightblue" stroke="midnightblue" points="191.86,-630.45 199.88,-637.37 197.93,-626.96 191.86,-630.45"/>
</g>
<!-- Node11 -->
<g id="node11" class="node">
<title>Node11</title>
<g id="a_node11"><a xlink:href="TransactionHistory_8h.html" target="_top" xlink:title="Maintains history of financial transactions.">
<polygon fill="white" stroke="black" points="199.02,-570.5 199.02,-600.5 345.02,-600.5 345.02,-570.5 199.02,-570.5"/>
<text text-anchor="start" x="207.02" y="-588.5" font-family="Helvetica,sans-Serif" font-size="10.00">backend/game/Transaction</text>
<text text-anchor="middle" x="272.02" y="-577.5" font-family="Helvetica,sans-Serif" font-size="10.00">History.h</text>
</a>
</g>
</g>
<!-- Node1&#45;&gt;Node11 -->
<g id="edge13" class="edge">
<title>Node1&#45;&gt;Node11</title>
<path fill="none" stroke="midnightblue" d="M229.16,-630.02C238.7,-620.34 249.69,-609.17 258.16,-600.58"/>
<polygon fill="midnightblue" stroke="midnightblue" points="226.43,-627.81 221.9,-637.4 231.41,-632.73 226.43,-627.81"/>
</g>
<!-- Node3 -->
<g id="node3" class="node">
<title>Node3</title>
<g id="a_node3"><a xlink:href="Manager_8h.html" target="_top" xlink:title="Manager class for coordinating plant sales and customer interactions.">
<polygon fill="white" stroke="black" points="106.52,-369.5 106.52,-399.5 223.52,-399.5 223.52,-369.5 106.52,-369.5"/>
<text text-anchor="start" x="114.52" y="-387.5" font-family="Helvetica,sans-Serif" font-size="10.00">backend/greenhouse</text>
<text text-anchor="middle" x="165.02" y="-376.5" font-family="Helvetica,sans-Serif" font-size="10.00">/Manager.h</text>
</a>
</g>
</g>
<!-- Node2&#45;&gt;Node3 -->
<g id="edge2" class="edge">
<title>Node2&#45;&gt;Node3</title>
<path fill="none" stroke="midnightblue" d="M132.33,-498.63C133.02,-481.89 135.07,-456.92 141.02,-436 144.68,-423.11 151.37,-409.45 156.75,-399.58"/>
<polygon fill="midnightblue" stroke="midnightblue" points="128.83,-498.66 132.04,-508.75 135.82,-498.86 128.83,-498.66"/>
</g>
<!-- Node4 -->
<g id="node4" class="node">
<title>Node4</title>
<g id="a_node4"><a xlink:href="Game_8h.html" target="_top" xlink:title="Header file for Game class &#45; Main game facade.">
<polygon fill="white" stroke="black" points="144.52,-241 144.52,-260 273.52,-260 273.52,-241 144.52,-241"/>
<text text-anchor="middle" x="209.02" y="-248" font-family="Helvetica,sans-Serif" font-size="10.00">backend/game/Game.h</text>
</a>
</g>
</g>
<!-- Node3&#45;&gt;Node4 -->
<g id="edge3" class="edge">
<title>Node3&#45;&gt;Node4</title>
<path fill="none" stroke="midnightblue" d="M172.95,-359.71C182.91,-329.81 199.52,-280 206.15,-260.1"/>
<polygon fill="midnightblue" stroke="midnightblue" points="169.57,-358.78 169.72,-369.37 176.21,-360.99 169.57,-358.78"/>
</g>
<!-- Node5 -->
<g id="node5" class="node">
<title>Node5</title>
<g id="a_node5"><a xlink:href="API_8h.html" target="_top" xlink:title="Bootstrapper for public facing API.">
<polygon fill="white" stroke="black" points="420.02,-112.5 420.02,-131.5 524.02,-131.5 524.02,-112.5 420.02,-112.5"/>
<text text-anchor="middle" x="472.02" y="-119.5" font-family="Helvetica,sans-Serif" font-size="10.00">backend/API/API.h</text>
</a>
</g>
</g>
<!-- Node4&#45;&gt;Node5 -->
<g id="edge4" class="edge">
<title>Node4&#45;&gt;Node5</title>
<path fill="none" stroke="midnightblue" d="M236.38,-236.34C290.32,-210.39 409.06,-153.28 454.16,-131.59"/>
<polygon fill="midnightblue" stroke="midnightblue" points="234.59,-233.32 227.09,-240.81 237.62,-239.62 234.59,-233.32"/>
</g>
<!-- Node6 -->
<g id="node6" class="node">
<title>Node6</title>
<g id="a_node6"><a xlink:href="APIController_8h.html" target="_top" xlink:title="Define endpoints.">
<polygon fill="white" stroke="black" points="136.52,-56.5 136.52,-75.5 287.52,-75.5 287.52,-56.5 136.52,-56.5"/>
<text text-anchor="middle" x="212.02" y="-63.5" font-family="Helvetica,sans-Serif" font-size="10.00">backend/API/APIController.h</text>
</a>
</g>
</g>
<!-- Node4&#45;&gt;Node6 -->
<g id="edge7" class="edge">
<title>Node4&#45;&gt;Node6</title>
<path fill="none" stroke="midnightblue" d="M163.18,-238.29C90.56,-218.39 -37.96,-173.15 11.02,-112 26.78,-92.32 86.15,-80.67 136.31,-74.17"/>
<polygon fill="midnightblue" stroke="midnightblue" points="162.47,-241.73 173.04,-240.93 164.28,-234.96 162.47,-241.73"/>
</g>
<!-- Node8 -->
<g id="node8" class="node">
<title>Node8</title>
<g id="a_node8"><a xlink:href="MenuOption_8h.html" target="_top" xlink:title="Base class for menu command options.">
<polygon fill="white" stroke="black" points="129.52,-174 129.52,-193 288.52,-193 288.52,-174 129.52,-174"/>
<text text-anchor="middle" x="209.02" y="-181" font-family="Helvetica,sans-Serif" font-size="10.00">backend/game/MenuOption.h</text>
</a>
</g>
</g>
<!-- Node4&#45;&gt;Node8 -->
<g id="edge8" class="edge">
<title>Node4&#45;&gt;Node8</title>
<path fill="none" stroke="midnightblue" d="M209.02,-230.54C209.02,-218.17 209.02,-202.62 209.02,-193.13"/>
<polygon fill="midnightblue" stroke="midnightblue" points="205.52,-230.73 209.02,-240.73 212.52,-230.73 205.52,-230.73"/>
</g>
<!-- Node5&#45;&gt;Node6 -->
<g id="edge5" class="edge">
<title>Node5&#45;&gt;Node6</title>
<path fill="none" stroke="midnightblue" d="M421.03,-110.41C371.89,-100.2 298.49,-84.96 253.02,-75.52"/>
<polygon fill="midnightblue" stroke="midnightblue" points="420.32,-113.84 430.82,-112.44 421.74,-106.98 420.32,-113.84"/>
</g>
<!-- Node7 -->
<g id="node7" class="node">
<title>Node7</title>
<g id="a_node7"><a xlink:href="APIController_8cpp.html" target="_top" xlink:title="Still need to see what going to do here.">
<polygon fill="white" stroke="black" points="131.02,-0.5 131.02,-19.5 293.02,-19.5 293.02,-0.5 131.02,-0.5"/>
<text text-anchor="middle" x="212.02" y="-7.5" font-family="Helvetica,sans-Serif" font-size="10.00">backend/API/APIController.cpp</text>
</a>
</g>
</g>
<!-- Node6&#45;&gt;Node7 -->
<g id="edge6" class="edge">
<title>Node6&#45;&gt;Node7</title>
<path fill="none" stroke="midnightblue" d="M212.02,-45.8C212.02,-36.91 212.02,-26.78 212.02,-19.75"/>
<polygon fill="midnightblue" stroke="midnightblue" points="208.52,-46.08 212.02,-56.08 215.52,-46.08 208.52,-46.08"/>
</g>
<!-- Node9 -->
<g id="node9" class="node">
<title>Node9</title>
<g id="a_node9"><a xlink:href="ExitGameOption_8h.html" target="_top" xlink:title="Command for exiting the game with logging capabilities.">
<polygon fill="white" stroke="black" points="222.02,-112.5 222.02,-131.5 402.02,-131.5 402.02,-112.5 222.02,-112.5"/>
<text text-anchor="middle" x="312.02" y="-119.5" font-family="Helvetica,sans-Serif" font-size="10.00">backend/game/ExitGameOption.h</text>
</a>
</g>
</g>
<!-- Node8&#45;&gt;Node9 -->
<g id="edge9" class="edge">
<title>Node8&#45;&gt;Node9</title>
<path fill="none" stroke="midnightblue" d="M232.56,-168.9C252.47,-157.4 280.39,-141.27 297.29,-131.51"/>
<polygon fill="midnightblue" stroke="midnightblue" points="230.68,-165.94 223.77,-173.98 234.18,-172 230.68,-165.94"/>
</g>
<!-- Node10 -->
<g id="node10" class="node">
<title>Node10</title>
<g id="a_node10"><a xlink:href="NewGameOption_8h.html" target="_top" xlink:title="Header file for NewGameOption class.">
<polygon fill="white" stroke="black" points="20.52,-112.5 20.52,-131.5 203.52,-131.5 203.52,-112.5 20.52,-112.5"/>
<text text-anchor="middle" x="112.02" y="-119.5" font-family="Helvetica,sans-Serif" font-size="10.00">backend/game/NewGameOption.h</text>
</a>
</g>
</g>
<!-- Node8&#45;&gt;Node10 -->
<g id="edge11" class="edge">
<title>Node8&#45;&gt;Node10</title>
<path fill="none" stroke="midnightblue" d="M186.59,-168.74C167.85,-157.25 141.72,-141.22 125.89,-131.51"/>
<polygon fill="midnightblue" stroke="midnightblue" points="184.76,-171.73 195.12,-173.98 188.42,-165.76 184.76,-171.73"/>
</g>
<!-- Node9&#45;&gt;Node6 -->
<g id="edge10" class="edge">
<title>Node9&#45;&gt;Node6</title>
<path fill="none" stroke="midnightblue" d="M286.93,-107.45C268.47,-97.48 243.92,-84.23 228.04,-75.65"/>
<polygon fill="midnightblue" stroke="midnightblue" points="285.49,-110.65 295.95,-112.32 288.81,-104.49 285.49,-110.65"/>
</g>
<!-- Node10&#45;&gt;Node6 -->
<g id="edge12" class="edge">
<title>Node10&#45;&gt;Node6</title>
<path fill="none" stroke="midnightblue" d="M137.1,-107.45C155.57,-97.48 180.11,-84.23 195.99,-75.65"/>
<polygon fill="midnightblue" stroke="midnightblue" points="135.22,-104.49 128.08,-112.32 138.55,-110.65 135.22,-104.49"/>
</g>
<!-- Node12 -->
<g id="node12" class="node">
<title>Node12</title>
<g id="a_node12"><a xlink:href="SalesFloor_8h.html" target="_top" xlink:title="Sales floor management for customer interactions and plant sales.">
<polygon fill="white" stroke="black" points="232.52,-503.5 232.52,-533.5 349.52,-533.5 349.52,-503.5 232.52,-503.5"/>
<text text-anchor="start" x="240.52" y="-521.5" font-family="Helvetica,sans-Serif" font-size="10.00">backend/greenhouse</text>
<text text-anchor="middle" x="291.02" y="-510.5" font-family="Helvetica,sans-Serif" font-size="10.00">/SalesFloor.h</text>
</a>
</g>
</g>
<!-- Node11&#45;&gt;Node12 -->
<g id="edge14" class="edge">
<title>Node11&#45;&gt;Node12</title>
<path fill="none" stroke="midnightblue" d="M278.97,-560.7C281.64,-551.59 284.59,-541.49 286.9,-533.58"/>
<polygon fill="midnightblue" stroke="midnightblue" points="275.59,-559.82 276.14,-570.4 282.3,-561.78 275.59,-559.82"/>
</g>
<!-- Node12&#45;&gt;Node3 -->
<g id="edge47" class="edge">
<title>Node12&#45;&gt;Node3</title>
<path fill="none" stroke="midnightblue" d="M292.22,-493.15C291.85,-475.56 288.63,-452.15 276.02,-436 262.53,-418.73 241.81,-407.17 221.9,-399.52"/>
<polygon fill="midnightblue" stroke="midnightblue" points="288.72,-493.21 292.15,-503.23 295.72,-493.26 288.72,-493.21"/>
</g>
<!-- Node13 -->
<g id="node13" class="node">
<title>Node13</title>
<g id="a_node13"><a xlink:href="CustomerVisitor_8h.html" target="_top" xlink:title="Abstract visitor class for plant recommendation strategies for different customer types.">
<polygon fill="white" stroke="black" points="539.02,-436.5 539.02,-466.5 695.02,-466.5 695.02,-436.5 539.02,-436.5"/>
<text text-anchor="start" x="547.02" y="-454.5" font-family="Helvetica,sans-Serif" font-size="10.00">backend/customer/Customer</text>
<text text-anchor="middle" x="617.02" y="-443.5" font-family="Helvetica,sans-Serif" font-size="10.00">Visitor.h</text>
</a>
</g>
</g>
<!-- Node12&#45;&gt;Node13 -->
<g id="edge15" class="edge">
<title>Node12&#45;&gt;Node13</title>
<path fill="none" stroke="midnightblue" d="M359.66,-503.81C414.57,-492.86 491.27,-477.57 546.63,-466.53"/>
<polygon fill="midnightblue" stroke="midnightblue" points="358.8,-500.42 349.67,-505.8 360.17,-507.28 358.8,-500.42"/>
</g>
<!-- Node36 -->
<g id="node36" class="node">
<title>Node36</title>
<g id="a_node36"><a xlink:href="Greenhouse_8h.html" target="_top" xlink:title="Main greenhouse class managing plant inventory and staff.">
<polygon fill="white" stroke="black" points="150.52,-436.5 150.52,-466.5 267.52,-466.5 267.52,-436.5 150.52,-436.5"/>
<text text-anchor="start" x="158.52" y="-454.5" font-family="Helvetica,sans-Serif" font-size="10.00">backend/greenhouse</text>
<text text-anchor="middle" x="209.02" y="-443.5" font-family="Helvetica,sans-Serif" font-size="10.00">/Greenhouse.h</text>
</a>
</g>
</g>
<!-- Node12&#45;&gt;Node36 -->
<g id="edge45" class="edge">
<title>Node12&#45;&gt;Node36</title>
<path fill="none" stroke="midnightblue" d="M265.37,-497.17C252.83,-487.23 238.05,-475.51 226.77,-466.58"/>
<polygon fill="midnightblue" stroke="midnightblue" points="263.21,-499.93 273.22,-503.4 267.56,-494.44 263.21,-499.93"/>
</g>
<!-- Node14 -->
<g id="node14" class="node">
<title>Node14</title>
<g id="a_node14"><a xlink:href="Customer_8h.html" target="_top" xlink:title="Abstract base class for all customer types in the plant shop game.">
<polygon fill="white" stroke="black" points="986.02,-375 986.02,-394 1150.02,-394 1150.02,-375 986.02,-375"/>
<text text-anchor="middle" x="1068.02" y="-382" font-family="Helvetica,sans-Serif" font-size="10.00">backend/customer/Customer.h</text>
</a>
</g>
</g>
<!-- Node13&#45;&gt;Node14 -->
<g id="edge16" class="edge">
<title>Node13&#45;&gt;Node14</title>
<path fill="none" stroke="midnightblue" d="M705.09,-438.61C778.02,-428.66 884.32,-413.89 977.02,-400 989.52,-398.13 1002.97,-396.03 1015.59,-394.02"/>
<polygon fill="midnightblue" stroke="midnightblue" points="704.46,-435.16 695.03,-439.98 705.41,-442.1 704.46,-435.16"/>
</g>
<!-- Node20 -->
<g id="node20" class="node">
<title>Node20</title>
<g id="a_node20"><a xlink:href="CustomerBuilder_8h.html" target="_top" xlink:title="Abstract builder interface for creating Customer objects.">
<polygon fill="white" stroke="black" points="626.02,-302.5 626.02,-332.5 782.02,-332.5 782.02,-302.5 626.02,-302.5"/>
<text text-anchor="start" x="634.02" y="-320.5" font-family="Helvetica,sans-Serif" font-size="10.00">backend/customer/Customer</text>
<text text-anchor="middle" x="704.02" y="-309.5" font-family="Helvetica,sans-Serif" font-size="10.00">Builder.h</text>
</a>
</g>
</g>
<!-- Node13&#45;&gt;Node20 -->
<g id="edge39" class="edge">
<title>Node13&#45;&gt;Node20</title>
<path fill="none" stroke="midnightblue" d="M528.66,-450.24C437.36,-447.86 303.69,-437.79 271.02,-400 262,-389.58 261.79,-379.23 271.02,-369 322.77,-311.58 540.41,-343.36 617.02,-333 619.9,-332.61 622.83,-332.2 625.8,-331.77"/>
<polygon fill="midnightblue" stroke="midnightblue" points="528.66,-453.74 538.74,-450.47 528.82,-446.74 528.66,-453.74"/>
</g>
<!-- Node22 -->
<g id="node22" class="node">
<title>Node22</title>
<g id="a_node22"><a xlink:href="Director_8h.html" target="_top" xlink:title="Director class for coordinating customer construction using builders and visitors.">
<polygon fill="white" stroke="black" points="1320.02,-241 1320.02,-260 1476.02,-260 1476.02,-241 1320.02,-241"/>
<text text-anchor="middle" x="1398.02" y="-248" font-family="Helvetica,sans-Serif" font-size="10.00">backend/customer/Director.h</text>
</a>
</g>
</g>
<!-- Node13&#45;&gt;Node22 -->
<g id="edge41" class="edge">
<title>Node13&#45;&gt;Node22</title>
<path fill="none" stroke="midnightblue" d="M705.46,-449.47C813.72,-446.57 1002,-436.18 1159.02,-400 1241.39,-381.02 1269.42,-383.76 1337.02,-333 1364.15,-312.62 1384.9,-276.97 1393.57,-260.41"/>
<polygon fill="midnightblue" stroke="midnightblue" points="705.15,-445.98 695.24,-449.73 705.32,-452.97 705.15,-445.98"/>
</g>
<!-- Node32 -->
<g id="node32" class="node">
<title>Node32</title>
<g id="a_node32"><a xlink:href="CustomerVisitor_8cpp.html" target="_top" xlink:title="Implements the CustomerVisitor base class functionality.">
<polygon fill="white" stroke="black" points="280.02,-369.5 280.02,-399.5 436.02,-399.5 436.02,-369.5 280.02,-369.5"/>
<text text-anchor="start" x="288.02" y="-387.5" font-family="Helvetica,sans-Serif" font-size="10.00">backend/customer/Customer</text>
<text text-anchor="middle" x="358.02" y="-376.5" font-family="Helvetica,sans-Serif" font-size="10.00">Visitor.cpp</text>
</a>
</g>
</g>
<!-- Node13&#45;&gt;Node32 -->
<g id="edge40" class="edge">
<title>Node13&#45;&gt;Node32</title>
<path fill="none" stroke="midnightblue" d="M551.21,-433.98C508.9,-423.37 454.52,-409.72 414.24,-399.61"/>
<polygon fill="midnightblue" stroke="midnightblue" points="550.58,-437.44 561.14,-436.48 552.29,-430.65 550.58,-437.44"/>
</g>
<!-- Node33 -->
<g id="node33" class="node">
<title>Node33</title>
<g id="a_node33"><a xlink:href="VisitEasyCustomer_8h.html" target="_top" xlink:title="Visitor for creating plant recommendations for easy&#45;maintenance customers.">
<polygon fill="white" stroke="black" points="454.02,-369.5 454.02,-399.5 608.02,-399.5 608.02,-369.5 454.02,-369.5"/>
<text text-anchor="start" x="462.02" y="-387.5" font-family="Helvetica,sans-Serif" font-size="10.00">backend/customer/VisitEasy</text>
<text text-anchor="middle" x="531.02" y="-376.5" font-family="Helvetica,sans-Serif" font-size="10.00">Customer.h</text>
</a>
</g>
</g>
<!-- Node13&#45;&gt;Node33 -->
<g id="edge42" class="edge">
<title>Node13&#45;&gt;Node33</title>
<path fill="none" stroke="midnightblue" d="M590.11,-430.17C576.96,-420.23 561.47,-408.51 549.64,-399.58"/>
<polygon fill="midnightblue" stroke="midnightblue" points="588.27,-433.16 598.36,-436.4 592.49,-427.57 588.27,-433.16"/>
</g>
<!-- Node34 -->
<g id="node34" class="node">
<title>Node34</title>
<g id="a_node34"><a xlink:href="VisitHighCustomer_8h.html" target="_top" xlink:title="Visitor for creating plant recommendations for customers preferring challenging plants.">
<polygon fill="white" stroke="black" points="626.52,-369.5 626.52,-399.5 779.52,-399.5 779.52,-369.5 626.52,-369.5"/>
<text text-anchor="start" x="634.52" y="-387.5" font-family="Helvetica,sans-Serif" font-size="10.00">backend/customer/VisitHigh</text>
<text text-anchor="middle" x="703.02" y="-376.5" font-family="Helvetica,sans-Serif" font-size="10.00">Customer.h</text>
</a>
</g>
</g>
<!-- Node13&#45;&gt;Node34 -->
<g id="edge43" class="edge">
<title>Node13&#45;&gt;Node34</title>
<path fill="none" stroke="midnightblue" d="M643.92,-430.17C657.07,-420.23 672.57,-408.51 684.39,-399.58"/>
<polygon fill="midnightblue" stroke="midnightblue" points="641.54,-427.57 635.68,-436.4 645.76,-433.16 641.54,-427.57"/>
</g>
<!-- Node35 -->
<g id="node35" class="node">
<title>Node35</title>
<g id="a_node35"><a xlink:href="VisitMediumCustomer_8h_source.html" target="_top" xlink:title=" ">
<polygon fill="white" stroke="black" points="798.02,-369.5 798.02,-399.5 968.02,-399.5 968.02,-369.5 798.02,-369.5"/>
<text text-anchor="start" x="806.02" y="-387.5" font-family="Helvetica,sans-Serif" font-size="10.00">backend/customer/VisitMedium</text>
<text text-anchor="middle" x="883.02" y="-376.5" font-family="Helvetica,sans-Serif" font-size="10.00">Customer.h</text>
</a>
</g>
</g>
<!-- Node13&#45;&gt;Node35 -->
<g id="edge44" class="edge">
<title>Node13&#45;&gt;Node35</title>
<path fill="none" stroke="midnightblue" d="M684.33,-434.05C727.82,-423.43 783.81,-409.74 825.27,-399.61"/>
<polygon fill="midnightblue" stroke="midnightblue" points="683.29,-430.7 674.41,-436.48 684.95,-437.5 683.29,-430.7"/>
</g>
<!-- Node14&#45;&gt;Node4 -->
<g id="edge38" class="edge">
<title>Node14&#45;&gt;Node4</title>
<path fill="none" stroke="midnightblue" d="M1009.35,-373.36C998.61,-371.73 987.5,-370.19 977.02,-369 743.75,-342.5 680.24,-378.99 450.02,-333 365.12,-316.04 268.95,-277.28 228.54,-260.04"/>
<polygon fill="midnightblue" stroke="midnightblue" points="1009.06,-376.86 1019.48,-374.94 1010.14,-369.94 1009.06,-376.86"/>
</g>
<!-- Node15 -->
<g id="node15" class="node">
<title>Node15</title>
<g id="a_node15"><a xlink:href="AverageCustomer_8h.html" target="_top" xlink:title="Concrete customer class representing moderately experienced plant buyers.">
<polygon fill="white" stroke="black" points="993.52,-302.5 993.52,-332.5 1142.52,-332.5 1142.52,-302.5 993.52,-302.5"/>
<text text-anchor="start" x="1001.52" y="-320.5" font-family="Helvetica,sans-Serif" font-size="10.00">backend/customer/Average</text>
<text text-anchor="middle" x="1068.02" y="-309.5" font-family="Helvetica,sans-Serif" font-size="10.00">Customer.h</text>
</a>
</g>
</g>
<!-- Node14&#45;&gt;Node15 -->
<g id="edge17" class="edge">
<title>Node14&#45;&gt;Node15</title>
<path fill="none" stroke="midnightblue" d="M1068.02,-364.41C1068.02,-354.22 1068.02,-341.9 1068.02,-332.59"/>
<polygon fill="midnightblue" stroke="midnightblue" points="1064.52,-364.73 1068.02,-374.73 1071.52,-364.73 1064.52,-364.73"/>
</g>
<!-- Node19 -->
<g id="node19" class="node">
<title>Node19</title>
<g id="a_node19"><a xlink:href="Customer_8cpp.html" target="_top" xlink:title="Implements the functionality defined in the Customer class.">
<polygon fill="white" stroke="black" points="800.02,-308 800.02,-327 976.02,-327 976.02,-308 800.02,-308"/>
<text text-anchor="middle" x="888.02" y="-315" font-family="Helvetica,sans-Serif" font-size="10.00">backend/customer/Customer.cpp</text>
</a>
</g>
</g>
<!-- Node14&#45;&gt;Node19 -->
<g id="edge21" class="edge">
<title>Node14&#45;&gt;Node19</title>
<path fill="none" stroke="midnightblue" d="M1034.61,-371.44C998.9,-358.54 943.19,-338.42 911.73,-327.06"/>
<polygon fill="midnightblue" stroke="midnightblue" points="1033.52,-374.76 1044.11,-374.87 1035.9,-368.18 1033.52,-374.76"/>
</g>
<!-- Node14&#45;&gt;Node20 -->
<g id="edge22" class="edge">
<title>Node14&#45;&gt;Node20</title>
<path fill="none" stroke="midnightblue" d="M1010.11,-373.16C948.44,-362.15 850.49,-344.66 782.06,-332.44"/>
<polygon fill="midnightblue" stroke="midnightblue" points="1009.6,-376.62 1020.06,-374.94 1010.83,-369.73 1009.6,-376.62"/>
</g>
<!-- Node28 -->
<g id="node28" class="node">
<title>Node28</title>
<g id="a_node28"><a xlink:href="GreenFingerCustomer_8h.html" target="_top" xlink:title="Concrete customer class representing expert plant enthusiasts.">
<polygon fill="white" stroke="black" points="1160.02,-302.5 1160.02,-332.5 1328.02,-332.5 1328.02,-302.5 1160.02,-302.5"/>
<text text-anchor="start" x="1168.02" y="-320.5" font-family="Helvetica,sans-Serif" font-size="10.00">backend/customer/GreenFinger</text>
<text text-anchor="middle" x="1244.02" y="-309.5" font-family="Helvetica,sans-Serif" font-size="10.00">Customer.h</text>
</a>
</g>
</g>
<!-- Node14&#45;&gt;Node28 -->
<g id="edge32" class="edge">
<title>Node14&#45;&gt;Node28</title>
<path fill="none" stroke="midnightblue" d="M1100.92,-371.35C1130.76,-360.33 1174.72,-344.09 1206.03,-332.53"/>
<polygon fill="midnightblue" stroke="midnightblue" points="1099.56,-368.12 1091.39,-374.87 1101.98,-374.69 1099.56,-368.12"/>
</g>
<!-- Node30 -->
<g id="node30" class="node">
<title>Node30</title>
<g id="a_node30"><a xlink:href="IgnorantCustomer_8h.html" target="_top" xlink:title="Concrete customer class representing inexperienced plant buyers.">
<polygon fill="white" stroke="black" points="458.52,-302.5 458.52,-332.5 607.52,-332.5 607.52,-302.5 458.52,-302.5"/>
<text text-anchor="start" x="466.52" y="-320.5" font-family="Helvetica,sans-Serif" font-size="10.00">backend/customer/Ignorant</text>
<text text-anchor="middle" x="533.02" y="-309.5" font-family="Helvetica,sans-Serif" font-size="10.00">Customer.h</text>
</a>
</g>
</g>
<!-- Node14&#45;&gt;Node30 -->
<g id="edge35" class="edge">
<title>Node14&#45;&gt;Node30</title>
<path fill="none" stroke="midnightblue" d="M1007.88,-373.41C997.6,-371.83 987.01,-370.29 977.02,-369 817.55,-348.34 776.34,-354.69 617.02,-333 613.94,-332.58 610.8,-332.13 607.63,-331.66"/>
<polygon fill="midnightblue" stroke="midnightblue" points="1007.61,-376.91 1018.03,-375 1008.69,-369.99 1007.61,-376.91"/>
</g>
<!-- Node16 -->
<g id="node16" class="node">
<title>Node16</title>
<g id="a_node16"><a xlink:href="AverageCustomer_8cpp.html" target="_top" xlink:title="Implements the functionality defined in the AverageCustomer class.">
<polygon fill="white" stroke="black" points="967.52,-235.5 967.52,-265.5 1116.52,-265.5 1116.52,-235.5 967.52,-235.5"/>
<text text-anchor="start" x="975.52" y="-253.5" font-family="Helvetica,sans-Serif" font-size="10.00">backend/customer/Average</text>
<text text-anchor="middle" x="1042.02" y="-242.5" font-family="Helvetica,sans-Serif" font-size="10.00">Customer.cpp</text>
</a>
</g>
</g>
<!-- Node15&#45;&gt;Node16 -->
<g id="edge18" class="edge">
<title>Node15&#45;&gt;Node16</title>
<path fill="none" stroke="midnightblue" d="M1058.61,-292.99C1054.94,-283.8 1050.85,-273.58 1047.65,-265.58"/>
<polygon fill="midnightblue" stroke="midnightblue" points="1055.41,-294.41 1062.37,-302.4 1061.91,-291.81 1055.41,-294.41"/>
</g>
<!-- Node17 -->
<g id="node17" class="node">
<title>Node17</title>
<g id="a_node17"><a xlink:href="AverageCustomerBuilder_8h.html" target="_top" xlink:title="Builder class for creating AverageCustomer objects with randomized dialogues.">
<polygon fill="white" stroke="black" points="800.52,-235.5 800.52,-265.5 949.52,-265.5 949.52,-235.5 800.52,-235.5"/>
<text text-anchor="start" x="808.52" y="-253.5" font-family="Helvetica,sans-Serif" font-size="10.00">backend/customer/Average</text>
<text text-anchor="middle" x="875.02" y="-242.5" font-family="Helvetica,sans-Serif" font-size="10.00">CustomerBuilder.h</text>
</a>
</g>
</g>
<!-- Node15&#45;&gt;Node17 -->
<g id="edge19" class="edge">
<title>Node15&#45;&gt;Node17</title>
<path fill="none" stroke="midnightblue" d="M1016.33,-299.09C985.17,-288.6 946.01,-275.41 916.81,-265.58"/>
<polygon fill="midnightblue" stroke="midnightblue" points="1015.54,-302.52 1026.14,-302.4 1017.78,-295.89 1015.54,-302.52"/>
</g>
<!-- Node18 -->
<g id="node18" class="node">
<title>Node18</title>
<g id="a_node18"><a xlink:href="AverageCustomerBuilder_8cpp.html" target="_top" xlink:title="Implements the AverageCustomerBuilder class functionality.">
<polygon fill="white" stroke="black" points="800.52,-168.5 800.52,-198.5 949.52,-198.5 949.52,-168.5 800.52,-168.5"/>
<text text-anchor="start" x="808.52" y="-186.5" font-family="Helvetica,sans-Serif" font-size="10.00">backend/customer/Average</text>
<text text-anchor="middle" x="875.02" y="-175.5" font-family="Helvetica,sans-Serif" font-size="10.00">CustomerBuilder.cpp</text>
</a>
</g>
</g>
<!-- Node17&#45;&gt;Node18 -->
<g id="edge20" class="edge">
<title>Node17&#45;&gt;Node18</title>
<path fill="none" stroke="midnightblue" d="M875.02,-225.11C875.02,-216.15 875.02,-206.32 875.02,-198.58"/>
<polygon fill="midnightblue" stroke="midnightblue" points="871.52,-225.4 875.02,-235.4 878.52,-225.4 871.52,-225.4"/>
</g>
<!-- Node20&#45;&gt;Node4 -->
<g id="edge31" class="edge">
<title>Node20&#45;&gt;Node4</title>
<path fill="none" stroke="midnightblue" d="M615.86,-301.9C467.39,-281.99 427.46,-287.89 283.02,-266 272.01,-264.33 260.16,-262.17 249.23,-260.03"/>
<polygon fill="midnightblue" stroke="midnightblue" points="615.41,-305.37 625.79,-303.24 616.36,-298.43 615.41,-305.37"/>
</g>
<!-- Node20&#45;&gt;Node17 -->
<g id="edge23" class="edge">
<title>Node20&#45;&gt;Node17</title>
<path fill="none" stroke="midnightblue" d="M750.53,-298.82C778.02,-288.37 812.34,-275.32 837.98,-265.58"/>
<polygon fill="midnightblue" stroke="midnightblue" points="749.22,-295.57 741.12,-302.4 751.71,-302.11 749.22,-295.57"/>
</g>
<!-- Node21 -->
<g id="node21" class="node">
<title>Node21</title>
<g id="a_node21"><a xlink:href="CustomerBuilder_8cpp.html" target="_top" xlink:title="Implements the CustomerBuilder base class functionality.">
<polygon fill="white" stroke="black" points="626.02,-235.5 626.02,-265.5 782.02,-265.5 782.02,-235.5 626.02,-235.5"/>
<text text-anchor="start" x="634.02" y="-253.5" font-family="Helvetica,sans-Serif" font-size="10.00">backend/customer/Customer</text>
<text text-anchor="middle" x="704.02" y="-242.5" font-family="Helvetica,sans-Serif" font-size="10.00">Builder.cpp</text>
</a>
</g>
</g>
<!-- Node20&#45;&gt;Node21 -->
<g id="edge24" class="edge">
<title>Node20&#45;&gt;Node21</title>
<path fill="none" stroke="midnightblue" d="M704.02,-292.11C704.02,-283.15 704.02,-273.32 704.02,-265.58"/>
<polygon fill="midnightblue" stroke="midnightblue" points="700.52,-292.4 704.02,-302.4 707.52,-292.4 700.52,-292.4"/>
</g>
<!-- Node20&#45;&gt;Node22 -->
<g id="edge25" class="edge">
<title>Node20&#45;&gt;Node22</title>
<path fill="none" stroke="midnightblue" d="M792.26,-301.93C1022.82,-275.43 1084.2,-292.69 1311.02,-266 1324.4,-264.43 1338.86,-262.22 1352.08,-260"/>
<polygon fill="midnightblue" stroke="midnightblue" points="791.75,-298.47 782.22,-303.1 792.56,-305.42 791.75,-298.47"/>
</g>
<!-- Node24 -->
<g id="node24" class="node">
<title>Node24</title>
<g id="a_node24"><a xlink:href="GreenFingerCustomerBuilder_8h.html" target="_top" xlink:title="Builder class for creating GreenFingerCustomer objects with randomized dialogues.">
<polygon fill="white" stroke="black" points="1134.02,-235.5 1134.02,-265.5 1302.02,-265.5 1302.02,-235.5 1134.02,-235.5"/>
<text text-anchor="start" x="1142.02" y="-253.5" font-family="Helvetica,sans-Serif" font-size="10.00">backend/customer/GreenFinger</text>
<text text-anchor="middle" x="1218.02" y="-242.5" font-family="Helvetica,sans-Serif" font-size="10.00">CustomerBuilder.h</text>
</a>
</g>
</g>
<!-- Node20&#45;&gt;Node24 -->
<g id="edge27" class="edge">
<title>Node20&#45;&gt;Node24</title>
<path fill="none" stroke="midnightblue" d="M792.2,-301.89C941.07,-281.84 980.76,-285.24 1126.02,-266 1128.58,-265.66 1131.18,-265.31 1133.81,-264.94"/>
<polygon fill="midnightblue" stroke="midnightblue" points="791.68,-298.43 782.24,-303.24 792.62,-305.36 791.68,-298.43"/>
</g>
<!-- Node26 -->
<g id="node26" class="node">
<title>Node26</title>
<g id="a_node26"><a xlink:href="IgnorantCustomerBuilder_8h.html" target="_top" xlink:title="Builder class for creating IgnorantCustomer objects with randomized dialogues.">
<polygon fill="white" stroke="black" points="458.52,-235.5 458.52,-265.5 607.52,-265.5 607.52,-235.5 458.52,-235.5"/>
<text text-anchor="start" x="466.52" y="-253.5" font-family="Helvetica,sans-Serif" font-size="10.00">backend/customer/Ignorant</text>
<text text-anchor="middle" x="533.02" y="-242.5" font-family="Helvetica,sans-Serif" font-size="10.00">CustomerBuilder.h</text>
</a>
</g>
</g>
<!-- Node20&#45;&gt;Node26 -->
<g id="edge29" class="edge">
<title>Node20&#45;&gt;Node26</title>
<path fill="none" stroke="midnightblue" d="M657.5,-298.82C630.01,-288.37 595.69,-275.32 570.05,-265.58"/>
<polygon fill="midnightblue" stroke="midnightblue" points="656.32,-302.11 666.91,-302.4 658.81,-295.57 656.32,-302.11"/>
</g>
<!-- Node23 -->
<g id="node23" class="node">
<title>Node23</title>
<g id="a_node23"><a xlink:href="Director_8cpp.html" target="_top" xlink:title="Implements the Director class functionality.">
<polygon fill="white" stroke="black" points="1316.52,-174 1316.52,-193 1483.52,-193 1483.52,-174 1316.52,-174"/>
<text text-anchor="middle" x="1400.02" y="-181" font-family="Helvetica,sans-Serif" font-size="10.00">backend/customer/Director.cpp</text>
</a>
</g>
</g>
<!-- Node22&#45;&gt;Node23 -->
<g id="edge26" class="edge">
<title>Node22&#45;&gt;Node23</title>
<path fill="none" stroke="midnightblue" d="M1398.6,-230.54C1398.98,-218.17 1399.46,-202.62 1399.75,-193.13"/>
<polygon fill="midnightblue" stroke="midnightblue" points="1395.1,-230.63 1398.29,-240.73 1402.09,-230.85 1395.1,-230.63"/>
</g>
<!-- Node25 -->
<g id="node25" class="node">
<title>Node25</title>
<g id="a_node25"><a xlink:href="GreenFingerCustomerBuilder_8cpp.html" target="_top" xlink:title="Implements the GreenFingerCustomerBuilder class functionality.">
<polygon fill="white" stroke="black" points="1131.02,-168.5 1131.02,-198.5 1299.02,-198.5 1299.02,-168.5 1131.02,-168.5"/>
<text text-anchor="start" x="1139.02" y="-186.5" font-family="Helvetica,sans-Serif" font-size="10.00">backend/customer/GreenFinger</text>
<text text-anchor="middle" x="1215.02" y="-175.5" font-family="Helvetica,sans-Serif" font-size="10.00">CustomerBuilder.cpp</text>
</a>
</g>
</g>
<!-- Node24&#45;&gt;Node25 -->
<g id="edge28" class="edge">
<title>Node24&#45;&gt;Node25</title>
<path fill="none" stroke="midnightblue" d="M1216.9,-225.4C1216.49,-216.37 1216.03,-206.41 1215.67,-198.58"/>
<polygon fill="midnightblue" stroke="midnightblue" points="1213.41,-225.57 1217.37,-235.4 1220.4,-225.25 1213.41,-225.57"/>
</g>
<!-- Node27 -->
<g id="node27" class="node">
<title>Node27</title>
<g id="a_node27"><a xlink:href="IgnorantCustomerBuilder_8cpp.html" target="_top" xlink:title="Implements the IgnorantCustomerBuilder class functionality.">
<polygon fill="white" stroke="black" points="458.52,-168.5 458.52,-198.5 607.52,-198.5 607.52,-168.5 458.52,-168.5"/>
<text text-anchor="start" x="466.52" y="-186.5" font-family="Helvetica,sans-Serif" font-size="10.00">backend/customer/Ignorant</text>
<text text-anchor="middle" x="533.02" y="-175.5" font-family="Helvetica,sans-Serif" font-size="10.00">CustomerBuilder.cpp</text>
</a>
</g>
</g>
<!-- Node26&#45;&gt;Node27 -->
<g id="edge30" class="edge">
<title>Node26&#45;&gt;Node27</title>
<path fill="none" stroke="midnightblue" d="M533.02,-225.11C533.02,-216.15 533.02,-206.32 533.02,-198.58"/>
<polygon fill="midnightblue" stroke="midnightblue" points="529.52,-225.4 533.02,-235.4 536.52,-225.4 529.52,-225.4"/>
</g>
<!-- Node28&#45;&gt;Node24 -->
<g id="edge34" class="edge">
<title>Node28&#45;&gt;Node24</title>
<path fill="none" stroke="midnightblue" d="M1234.61,-292.99C1230.94,-283.8 1226.85,-273.58 1223.65,-265.58"/>
<polygon fill="midnightblue" stroke="midnightblue" points="1231.41,-294.41 1238.37,-302.4 1237.91,-291.81 1231.41,-294.41"/>
</g>
<!-- Node29 -->
<g id="node29" class="node">
<title>Node29</title>
<g id="a_node29"><a xlink:href="GreenFingerCustomer_8cpp.html" target="_top" xlink:title="Implements the functionality defined in the GreenFingerCustomer class.">
<polygon fill="white" stroke="black" points="1494.02,-235.5 1494.02,-265.5 1662.02,-265.5 1662.02,-235.5 1494.02,-235.5"/>
<text text-anchor="start" x="1502.02" y="-253.5" font-family="Helvetica,sans-Serif" font-size="10.00">backend/customer/GreenFinger</text>
<text text-anchor="middle" x="1578.02" y="-242.5" font-family="Helvetica,sans-Serif" font-size="10.00">Customer.cpp</text>
</a>
</g>
</g>
<!-- Node28&#45;&gt;Node29 -->
<g id="edge33" class="edge">
<title>Node28&#45;&gt;Node29</title>
<path fill="none" stroke="midnightblue" d="M1326.15,-300.52C1381.18,-289.81 1452.95,-275.84 1505.8,-265.55"/>
<polygon fill="midnightblue" stroke="midnightblue" points="1325.23,-297.13 1316.08,-302.48 1326.56,-304 1325.23,-297.13"/>
</g>
<!-- Node30&#45;&gt;Node26 -->
<g id="edge37" class="edge">
<title>Node30&#45;&gt;Node26</title>
<path fill="none" stroke="midnightblue" d="M533.02,-292.11C533.02,-283.15 533.02,-273.32 533.02,-265.58"/>
<polygon fill="midnightblue" stroke="midnightblue" points="529.52,-292.4 533.02,-302.4 536.52,-292.4 529.52,-292.4"/>
</g>
<!-- Node31 -->
<g id="node31" class="node">
<title>Node31</title>
<g id="a_node31"><a xlink:href="IgnorantCustomer_8cpp.html" target="_top" xlink:title="Implements the functionality defined in the IgnorantCustomer class.">
<polygon fill="white" stroke="black" points="291.52,-235.5 291.52,-265.5 440.52,-265.5 440.52,-235.5 291.52,-235.5"/>
<text text-anchor="start" x="299.52" y="-253.5" font-family="Helvetica,sans-Serif" font-size="10.00">backend/customer/Ignorant</text>
<text text-anchor="middle" x="366.02" y="-242.5" font-family="Helvetica,sans-Serif" font-size="10.00">Customer.cpp</text>
</a>
</g>
</g>
<!-- Node30&#45;&gt;Node31 -->
<g id="edge36" class="edge">
<title>Node30&#45;&gt;Node31</title>
<path fill="none" stroke="midnightblue" d="M487.24,-298.68C460.45,-288.26 427.11,-275.28 402.18,-265.58"/>
<polygon fill="midnightblue" stroke="midnightblue" points="486.19,-302.03 496.78,-302.4 488.73,-295.51 486.19,-302.03"/>
</g>
<!-- Node36&#45;&gt;Node3 -->
<g id="edge46" class="edge">
<title>Node36&#45;&gt;Node3</title>
<path fill="none" stroke="midnightblue" d="M193.7,-427.87C187.33,-418.46 180.13,-407.83 174.54,-399.58"/>
<polygon fill="midnightblue" stroke="midnightblue" points="190.96,-430.08 199.47,-436.4 196.76,-426.15 190.96,-430.08"/>
</g>
</g>
</svg>
        <g id="navigator" transform="translate(0 0)" fill="#404254">
                <rect fill="#f2f5e9" fill-opacity="0.5" stroke="#606060" stroke-width=".5" x="0" y="0" width="60" height="60"/>
                <use id="zoomplus" xlink:href="#zoomPlus" x="17" y="9" onmousedown="handleZoom(evt,'in')"/>
                <use id="zoomminus" xlink:href="#zoomMin" x="42" y="9" onmousedown="handleZoom(evt,'out')"/>
                <use id="reset" xlink:href="#resetDef" x="30" y="36" onmousedown="handleReset()"/>
                <g id="arrowUp" xlink:href="#dirArrow" transform="translate(30 24)" onmousedown="handlePan(0,-1)">
                  <use xlink:href="#rim" fill="#404040">
                        <set attributeName="fill" to="#808080" begin="arrowUp.mouseover" end="arrowUp.mouseout"/>
                  </use>
                  <path fill="none" stroke="white" stroke-width="1.5" d="M0,-3.0v7 M-2.5,-0.5L0,-3.0L2.5,-0.5"/>
                </g>
                <g id="arrowRight" xlink:href="#dirArrow" transform="rotate(90) translate(36 -43)" onmousedown="handlePan(1,0)">
                  <use xlink:href="#rim" fill="#404040">
                        <set attributeName="fill" to="#808080" begin="arrowRight.mouseover" end="arrowRight.mouseout"/>
                  </use>
                  <path fill="none" stroke="white" stroke-width="1.5" d="M0,-3.0v7 M-2.5,-0.5L0,-3.0L2.5,-0.5"/>
                </g>
                <g id="arrowDown" xlink:href="#dirArrow" transform="rotate(180) translate(-30 -48)" onmousedown="handlePan(0,1)">
                  <use xlink:href="#rim" fill="#404040">
                        <set attributeName="fill" to="#808080" begin="arrowDown.mouseover" end="arrowDown.mouseout"/>
                  </use>
                  <path fill="none" stroke="white" stroke-width="1.5" d="M0,-3.0v7 M-2.5,-0.5L0,-3.0L2.5,-0.5"/>
                </g>
                <g id="arrowLeft" xlink:href="#dirArrow" transform="rotate(270) translate(-36 17)" onmousedown="handlePan(-1,0)">
                  <use xlink:href="#rim" fill="#404040">
                        <set attributeName="fill" to="#808080" begin="arrowLeft.mouseover" end="arrowLeft.mouseout"/>
                  </use>
                  <path fill="none" stroke="white" stroke-width="1.5" d="M0,-3.0v7 M-2.5,-0.5L0,-3.0L2.5,-0.5"/>
                </g>
        </g>
        <svg viewBox="0 0 15 15" width="100%" height="30px" preserveAspectRatio="xMaxYMin meet">
         <g id="arrow_out" transform="scale(0.3 0.3)">
          <a xlink:href="TransactionMem_8h__dep__incl_org.svg" target="_base">
           <rect id="button" ry="5" rx="5" y="6" x="6" height="38" width="38"
                fill="#f2f5e9" fill-opacity="0.5" stroke="#606060" stroke-width="1.0"/>
           <path id="arrow"
             d="M 11.500037,31.436501 C 11.940474,20.09759 22.043105,11.32322 32.158766,21.979434 L 37.068811,17.246167 C 37.068811,17.246167 37.088388,32 37.088388,32 L 22.160133,31.978069 C 22.160133,31.978069 26.997745,27.140456 26.997745,27.140456 C 18.528582,18.264221 13.291696,25.230495 11.500037,31.436501 z"
             style="fill:#404040;"/>
          </a>
         </g>
        </svg>
</svg>
