<?xml version="1.0" encoding="UTF-8" standalone="no"?>
<!DOCTYPE svg PUBLIC "-//W3C//DTD SVG 1.1//EN"
 "http://www.w3.org/Graphics/SVG/1.1/DTD/svg11.dtd">
<!-- Generated by graphviz version 2.43.0 (0)
 -->
<!-- Title: backend/game/TransactionStrategy.h Pages: 1 -->
<svg width="797pt" height="498pt"
 viewBox="0.00 0.00 797.00 498.00" xmlns="http://www.w3.org/2000/svg" xmlns:xlink="http://www.w3.org/1999/xlink">
<g id="graph0" class="graph" transform="scale(1 1) rotate(0) translate(4 494)">
<title>backend/game/TransactionStrategy.h</title>
<polygon fill="white" stroke="transparent" points="-4,4 -4,-494 793,-494 793,4 -4,4"/>
<!-- Node1 -->
<g id="node1" class="node">
<title>Node1</title>
<g id="a_node1"><a xlink:title="Abstract base class for transaction strategies.">
<polygon fill="#bfbfbf" stroke="black" points="259.5,-459.5 259.5,-489.5 405.5,-489.5 405.5,-459.5 259.5,-459.5"/>
<text text-anchor="start" x="267.5" y="-477.5" font-family="Helvetica,sans-Serif" font-size="10.00">backend/game/Transaction</text>
<text text-anchor="middle" x="332.5" y="-466.5" font-family="Helvetica,sans-Serif" font-size="10.00">Strategy.h</text>
</a>
</g>
</g>
<!-- Node2 -->
<g id="node2" class="node">
<title>Node2</title>
<g id="a_node2"><a xlink:href="PlantDied_8h.html" target="_top" xlink:title="Transaction strategy for plant death events.">
<polygon fill="white" stroke="black" points="0,-403.5 0,-422.5 147,-422.5 147,-403.5 0,-403.5"/>
<text text-anchor="middle" x="73.5" y="-410.5" font-family="Helvetica,sans-Serif" font-size="10.00">backend/game/PlantDied.h</text>
</a>
</g>
</g>
<!-- Node1&#45;&gt;Node2 -->
<g id="edge1" class="edge">
<title>Node1&#45;&gt;Node2</title>
<path fill="none" stroke="midnightblue" d="M261.56,-457.2C212.71,-445.98 149.78,-431.52 110.53,-422.51"/>
<polygon fill="midnightblue" stroke="midnightblue" points="260.92,-460.65 271.45,-459.47 262.49,-453.82 260.92,-460.65"/>
</g>
<!-- Node3 -->
<g id="node3" class="node">
<title>Node3</title>
<g id="a_node3"><a xlink:href="Restock_8h.html" target="_top" xlink:title="Transaction strategy for restock operations.">
<polygon fill="white" stroke="black" points="165,-403.5 165,-422.5 304,-422.5 304,-403.5 165,-403.5"/>
<text text-anchor="middle" x="234.5" y="-410.5" font-family="Helvetica,sans-Serif" font-size="10.00">backend/game/Restock.h</text>
</a>
</g>
</g>
<!-- Node1&#45;&gt;Node3 -->
<g id="edge2" class="edge">
<title>Node1&#45;&gt;Node3</title>
<path fill="none" stroke="midnightblue" d="M300.5,-454.07C283.03,-443.46 262.27,-430.86 248.76,-422.66"/>
<polygon fill="midnightblue" stroke="midnightblue" points="298.91,-457.2 309.28,-459.4 302.54,-451.22 298.91,-457.2"/>
</g>
<!-- Node4 -->
<g id="node4" class="node">
<title>Node4</title>
<g id="a_node4"><a xlink:href="Transaction_8h.html" target="_top" xlink:title="Represents a financial transaction in the system.">
<polygon fill="white" stroke="black" points="302,-347.5 302,-366.5 457,-366.5 457,-347.5 302,-347.5"/>
<text text-anchor="middle" x="379.5" y="-354.5" font-family="Helvetica,sans-Serif" font-size="10.00">backend/game/Transaction.h</text>
</a>
</g>
</g>
<!-- Node1&#45;&gt;Node4 -->
<g id="edge19" class="edge">
<title>Node1&#45;&gt;Node4</title>
<path fill="none" stroke="midnightblue" d="M337.13,-449.51C340.26,-435.59 345.02,-417.92 351.5,-403 357.37,-389.5 366.84,-375.29 373.12,-366.54"/>
<polygon fill="midnightblue" stroke="midnightblue" points="333.7,-448.8 335.05,-459.31 340.55,-450.26 333.7,-448.8"/>
</g>
<!-- Node13 -->
<g id="node13" class="node">
<title>Node13</title>
<g id="a_node13"><a xlink:href="Return_8h.html" target="_top" xlink:title="Transaction strategy for return operations.">
<polygon fill="white" stroke="black" points="360.5,-403.5 360.5,-422.5 492.5,-422.5 492.5,-403.5 360.5,-403.5"/>
<text text-anchor="middle" x="426.5" y="-410.5" font-family="Helvetica,sans-Serif" font-size="10.00">backend/game/Return.h</text>
</a>
</g>
</g>
<!-- Node1&#45;&gt;Node13 -->
<g id="edge15" class="edge">
<title>Node1&#45;&gt;Node13</title>
<path fill="none" stroke="midnightblue" d="M363.66,-453.78C380.32,-443.23 399.99,-430.78 412.82,-422.66"/>
<polygon fill="midnightblue" stroke="midnightblue" points="361.35,-451.09 354.78,-459.4 365.1,-457.01 361.35,-451.09"/>
</g>
<!-- Node14 -->
<g id="node14" class="node">
<title>Node14</title>
<g id="a_node14"><a xlink:href="Sale_8h.html" target="_top" xlink:title="Transaction strategy for sales operations.">
<polygon fill="white" stroke="black" points="511,-403.5 511,-422.5 632,-422.5 632,-403.5 511,-403.5"/>
<text text-anchor="middle" x="571.5" y="-410.5" font-family="Helvetica,sans-Serif" font-size="10.00">backend/game/Sale.h</text>
</a>
</g>
</g>
<!-- Node1&#45;&gt;Node14 -->
<g id="edge17" class="edge">
<title>Node1&#45;&gt;Node14</title>
<path fill="none" stroke="midnightblue" d="M398.81,-456.99C443.76,-445.8 501.34,-431.47 537.33,-422.51"/>
<polygon fill="midnightblue" stroke="midnightblue" points="397.7,-453.66 388.84,-459.47 399.39,-460.46 397.7,-453.66"/>
</g>
<!-- Node3&#45;&gt;Node4 -->
<g id="edge3" class="edge">
<title>Node3&#45;&gt;Node4</title>
<path fill="none" stroke="midnightblue" d="M266.98,-399.91C294.24,-389.75 332.49,-375.51 356.63,-366.52"/>
<polygon fill="midnightblue" stroke="midnightblue" points="265.63,-396.67 257.48,-403.44 268.07,-403.23 265.63,-396.67"/>
</g>
<!-- Node5 -->
<g id="node5" class="node">
<title>Node5</title>
<g id="a_node5"><a xlink:href="Manager_8h.html" target="_top" xlink:title="Manager class for coordinating plant sales and customer interactions.">
<polygon fill="white" stroke="black" points="321,-280.5 321,-310.5 438,-310.5 438,-280.5 321,-280.5"/>
<text text-anchor="start" x="329" y="-298.5" font-family="Helvetica,sans-Serif" font-size="10.00">backend/greenhouse</text>
<text text-anchor="middle" x="379.5" y="-287.5" font-family="Helvetica,sans-Serif" font-size="10.00">/Manager.h</text>
</a>
</g>
</g>
<!-- Node4&#45;&gt;Node5 -->
<g id="edge4" class="edge">
<title>Node4&#45;&gt;Node5</title>
<path fill="none" stroke="midnightblue" d="M379.5,-337.23C379.5,-328.59 379.5,-318.5 379.5,-310.52"/>
<polygon fill="midnightblue" stroke="midnightblue" points="376,-337.48 379.5,-347.48 383,-337.48 376,-337.48"/>
</g>
<!-- Node6 -->
<g id="node6" class="node">
<title>Node6</title>
<g id="a_node6"><a xlink:href="Game_8h.html" target="_top" xlink:title="Header file for Game class &#45; Main game facade.">
<polygon fill="white" stroke="black" points="315,-224.5 315,-243.5 444,-243.5 444,-224.5 315,-224.5"/>
<text text-anchor="middle" x="379.5" y="-231.5" font-family="Helvetica,sans-Serif" font-size="10.00">backend/game/Game.h</text>
</a>
</g>
</g>
<!-- Node5&#45;&gt;Node6 -->
<g id="edge5" class="edge">
<title>Node5&#45;&gt;Node6</title>
<path fill="none" stroke="midnightblue" d="M379.5,-270.29C379.5,-260.86 379.5,-250.65 379.5,-243.66"/>
<polygon fill="midnightblue" stroke="midnightblue" points="376,-270.4 379.5,-280.4 383,-270.4 376,-270.4"/>
</g>
<!-- Node7 -->
<g id="node7" class="node">
<title>Node7</title>
<g id="a_node7"><a xlink:href="API_8h.html" target="_top" xlink:title="Bootstrapper for public facing API.">
<polygon fill="white" stroke="black" points="247.5,-168.5 247.5,-187.5 351.5,-187.5 351.5,-168.5 247.5,-168.5"/>
<text text-anchor="middle" x="299.5" y="-175.5" font-family="Helvetica,sans-Serif" font-size="10.00">backend/API/API.h</text>
</a>
</g>
</g>
<!-- Node6&#45;&gt;Node7 -->
<g id="edge6" class="edge">
<title>Node6&#45;&gt;Node7</title>
<path fill="none" stroke="midnightblue" d="M358.2,-218.62C343.58,-208.76 324.67,-195.99 312.32,-187.65"/>
<polygon fill="midnightblue" stroke="midnightblue" points="356.4,-221.63 366.65,-224.32 360.32,-215.83 356.4,-221.63"/>
</g>
<!-- Node8 -->
<g id="node8" class="node">
<title>Node8</title>
<g id="a_node8"><a xlink:href="APIController_8h.html" target="_top" xlink:title="Define endpoints.">
<polygon fill="white" stroke="black" points="363,-56.5 363,-75.5 514,-75.5 514,-56.5 363,-56.5"/>
<text text-anchor="middle" x="438.5" y="-63.5" font-family="Helvetica,sans-Serif" font-size="10.00">backend/API/APIController.h</text>
</a>
</g>
</g>
<!-- Node6&#45;&gt;Node8 -->
<g id="edge9" class="edge">
<title>Node6&#45;&gt;Node8</title>
<path fill="none" stroke="midnightblue" d="M379.23,-214.17C379.59,-189.53 382.67,-145.53 398.5,-112 405.37,-97.44 418.45,-84.12 427.78,-75.81"/>
<polygon fill="midnightblue" stroke="midnightblue" points="375.73,-214.3 379.23,-224.3 382.73,-214.31 375.73,-214.3"/>
</g>
<!-- Node10 -->
<g id="node10" class="node">
<title>Node10</title>
<g id="a_node10"><a xlink:href="MenuOption_8h.html" target="_top" xlink:title="Base class for menu command options.">
<polygon fill="white" stroke="black" points="418,-168.5 418,-187.5 577,-187.5 577,-168.5 418,-168.5"/>
<text text-anchor="middle" x="497.5" y="-175.5" font-family="Helvetica,sans-Serif" font-size="10.00">backend/game/MenuOption.h</text>
</a>
</g>
</g>
<!-- Node6&#45;&gt;Node10 -->
<g id="edge10" class="edge">
<title>Node6&#45;&gt;Node10</title>
<path fill="none" stroke="midnightblue" d="M407.4,-220.23C429.47,-210.13 459.68,-196.31 478.89,-187.52"/>
<polygon fill="midnightblue" stroke="midnightblue" points="405.83,-217.1 398.2,-224.44 408.75,-223.46 405.83,-217.1"/>
</g>
<!-- Node7&#45;&gt;Node8 -->
<g id="edge7" class="edge">
<title>Node7&#45;&gt;Node8</title>
<path fill="none" stroke="midnightblue" d="M314.13,-160.65C326.94,-146.83 346.43,-126.96 365.5,-112 383.89,-97.57 407.18,-83.92 422.44,-75.51"/>
<polygon fill="midnightblue" stroke="midnightblue" points="311.24,-158.63 307.08,-168.37 316.41,-163.35 311.24,-158.63"/>
</g>
<!-- Node9 -->
<g id="node9" class="node">
<title>Node9</title>
<g id="a_node9"><a xlink:href="APIController_8cpp.html" target="_top" xlink:title="Still need to see what going to do here.">
<polygon fill="white" stroke="black" points="357.5,-0.5 357.5,-19.5 519.5,-19.5 519.5,-0.5 357.5,-0.5"/>
<text text-anchor="middle" x="438.5" y="-7.5" font-family="Helvetica,sans-Serif" font-size="10.00">backend/API/APIController.cpp</text>
</a>
</g>
</g>
<!-- Node8&#45;&gt;Node9 -->
<g id="edge8" class="edge">
<title>Node8&#45;&gt;Node9</title>
<path fill="none" stroke="midnightblue" d="M438.5,-45.8C438.5,-36.91 438.5,-26.78 438.5,-19.75"/>
<polygon fill="midnightblue" stroke="midnightblue" points="435,-46.08 438.5,-56.08 442,-46.08 435,-46.08"/>
</g>
<!-- Node11 -->
<g id="node11" class="node">
<title>Node11</title>
<g id="a_node11"><a xlink:href="ExitGameOption_8h.html" target="_top" xlink:title="Command for exiting the game with logging capabilities.">
<polygon fill="white" stroke="black" points="407.5,-112.5 407.5,-131.5 587.5,-131.5 587.5,-112.5 407.5,-112.5"/>
<text text-anchor="middle" x="497.5" y="-119.5" font-family="Helvetica,sans-Serif" font-size="10.00">backend/game/ExitGameOption.h</text>
</a>
</g>
</g>
<!-- Node10&#45;&gt;Node11 -->
<g id="edge11" class="edge">
<title>Node10&#45;&gt;Node11</title>
<path fill="none" stroke="midnightblue" d="M497.5,-157.8C497.5,-148.91 497.5,-138.78 497.5,-131.75"/>
<polygon fill="midnightblue" stroke="midnightblue" points="494,-158.08 497.5,-168.08 501,-158.08 494,-158.08"/>
</g>
<!-- Node12 -->
<g id="node12" class="node">
<title>Node12</title>
<g id="a_node12"><a xlink:href="NewGameOption_8h.html" target="_top" xlink:title="Header file for NewGameOption class.">
<polygon fill="white" stroke="black" points="606,-112.5 606,-131.5 789,-131.5 789,-112.5 606,-112.5"/>
<text text-anchor="middle" x="697.5" y="-119.5" font-family="Helvetica,sans-Serif" font-size="10.00">backend/game/NewGameOption.h</text>
</a>
</g>
</g>
<!-- Node10&#45;&gt;Node12 -->
<g id="edge13" class="edge">
<title>Node10&#45;&gt;Node12</title>
<path fill="none" stroke="midnightblue" d="M538.87,-165.83C576.64,-155.63 631.64,-140.78 665.96,-131.52"/>
<polygon fill="midnightblue" stroke="midnightblue" points="537.93,-162.46 529.19,-168.44 539.76,-169.22 537.93,-162.46"/>
</g>
<!-- Node11&#45;&gt;Node8 -->
<g id="edge12" class="edge">
<title>Node11&#45;&gt;Node8</title>
<path fill="none" stroke="midnightblue" d="M480.61,-105.54C470.09,-95.91 456.93,-83.87 448.15,-75.83"/>
<polygon fill="midnightblue" stroke="midnightblue" points="478.28,-108.15 488.02,-112.32 483.01,-102.99 478.28,-108.15"/>
</g>
<!-- Node12&#45;&gt;Node8 -->
<g id="edge14" class="edge">
<title>Node12&#45;&gt;Node8</title>
<path fill="none" stroke="midnightblue" d="M646.4,-110.35C597.45,-100.14 524.55,-84.94 479.35,-75.52"/>
<polygon fill="midnightblue" stroke="midnightblue" points="645.96,-113.83 656.46,-112.44 647.39,-106.98 645.96,-113.83"/>
</g>
<!-- Node13&#45;&gt;Node4 -->
<g id="edge16" class="edge">
<title>Node13&#45;&gt;Node4</title>
<path fill="none" stroke="midnightblue" d="M412.08,-395.43C403.84,-385.97 393.85,-374.48 387.12,-366.75"/>
<polygon fill="midnightblue" stroke="midnightblue" points="409.53,-397.84 418.74,-403.08 414.81,-393.24 409.53,-397.84"/>
</g>
<!-- Node14&#45;&gt;Node4 -->
<g id="edge18" class="edge">
<title>Node14&#45;&gt;Node4</title>
<path fill="none" stroke="midnightblue" d="M531.32,-400.7C495.08,-390.51 442.59,-375.74 409.78,-366.52"/>
<polygon fill="midnightblue" stroke="midnightblue" points="530.5,-404.11 541.08,-403.44 532.4,-397.37 530.5,-404.11"/>
</g>
</g>
</svg>
