<?xml version="1.0" encoding="UTF-8" standalone="no"?>
<!DOCTYPE svg PUBLIC "-//W3C//DTD SVG 1.1//EN"
 "http://www.w3.org/Graphics/SVG/1.1/DTD/svg11.dtd">
<!-- Generated by graphviz version 2.43.0 (0)
 -->
<!-- Title: backend/game/TransactionHistory.h Pages: 1 -->
<svg width="1420pt" height="274pt"
 viewBox="0.00 0.00 1419.82 274.00" xmlns="http://www.w3.org/2000/svg" xmlns:xlink="http://www.w3.org/1999/xlink">
<g id="graph0" class="graph" transform="scale(1 1) rotate(0) translate(4 270)">
<title>backend/game/TransactionHistory.h</title>
<polygon fill="white" stroke="transparent" points="-4,4 -4,-270 1415.82,-270 1415.82,4 -4,4"/>
<!-- Node1 -->
<g id="node1" class="node">
<title>Node1</title>
<g id="a_node1"><a xlink:title="Maintains history of financial transactions.">
<polygon fill="#bfbfbf" stroke="black" points="1000.82,-235.5 1000.82,-265.5 1146.82,-265.5 1146.82,-235.5 1000.82,-235.5"/>
<text text-anchor="start" x="1008.82" y="-253.5" font-family="Helvetica,sans-Serif" font-size="10.00">backend/game/Transaction</text>
<text text-anchor="middle" x="1073.82" y="-242.5" font-family="Helvetica,sans-Serif" font-size="10.00">History.h</text>
</a>
</g>
</g>
<!-- Node2 -->
<g id="node2" class="node">
<title>Node2</title>
<g id="a_node2"><a xlink:href="TransactionMem_8h.html" target="_top" xlink:title=" ">
<polygon fill="white" stroke="black" points="627.82,-179.5 627.82,-198.5 733.82,-198.5 733.82,-179.5 627.82,-179.5"/>
<text text-anchor="middle" x="680.82" y="-186.5" font-family="Helvetica,sans-Serif" font-size="10.00">TransactionMem.h</text>
</a>
</g>
</g>
<!-- Node1&#45;&gt;Node2 -->
<g id="edge1" class="edge">
<title>Node1&#45;&gt;Node2</title>
<path fill="none" stroke="midnightblue" d="M1000.36,-238.38C926.56,-227.21 814.03,-210.17 744.08,-199.58"/>
<polygon fill="midnightblue" stroke="midnightblue" points="744.49,-196.1 734.07,-198.06 743.44,-203.02 744.49,-196.1"/>
</g>
<!-- Node6 -->
<g id="node6" class="node">
<title>Node6</title>
<g id="a_node6"><a xlink:title=" ">
<polygon fill="white" stroke="#bfbfbf" points="1236.32,-67.5 1236.32,-86.5 1283.32,-86.5 1283.32,-67.5 1236.32,-67.5"/>
<text text-anchor="middle" x="1259.82" y="-74.5" font-family="Helvetica,sans-Serif" font-size="10.00">vector</text>
</a>
</g>
</g>
<!-- Node1&#45;&gt;Node6 -->
<g id="edge35" class="edge">
<title>Node1&#45;&gt;Node6</title>
<path fill="none" stroke="midnightblue" d="M1089.04,-235.47C1123.42,-203.77 1206.87,-126.82 1242.84,-93.65"/>
<polygon fill="midnightblue" stroke="midnightblue" points="1245.55,-95.91 1250.53,-86.56 1240.81,-90.77 1245.55,-95.91"/>
</g>
<!-- Node8 -->
<g id="node8" class="node">
<title>Node8</title>
<g id="a_node8"><a xlink:title=" ">
<polygon fill="white" stroke="#bfbfbf" points="261.82,-6 261.82,-25 321.82,-25 321.82,-6 261.82,-6"/>
<text text-anchor="middle" x="291.82" y="-13" font-family="Helvetica,sans-Serif" font-size="10.00">iostream</text>
</a>
</g>
</g>
<!-- Node1&#45;&gt;Node8 -->
<g id="edge34" class="edge">
<title>Node1&#45;&gt;Node8</title>
<path fill="none" stroke="midnightblue" d="M1000.79,-247.44C800.02,-240.87 243.61,-216.36 77.82,-143 43.56,-127.84 30.16,-121.18 14.82,-87 11.18,-78.89 9.12,-73.83 14.82,-67 29.85,-48.98 178.23,-29.57 251.42,-21"/>
<polygon fill="midnightblue" stroke="midnightblue" points="252.11,-24.45 261.64,-19.82 251.31,-17.49 252.11,-24.45"/>
</g>
<!-- Node12 -->
<g id="node12" class="node">
<title>Node12</title>
<g id="a_node12"><a xlink:title=" ">
<polygon fill="white" stroke="#bfbfbf" points="1301.82,-67.5 1301.82,-86.5 1411.82,-86.5 1411.82,-67.5 1301.82,-67.5"/>
<text text-anchor="middle" x="1356.82" y="-74.5" font-family="Helvetica,sans-Serif" font-size="10.00">nlohmann/json.hpp</text>
</a>
</g>
</g>
<!-- Node1&#45;&gt;Node12 -->
<g id="edge37" class="edge">
<title>Node1&#45;&gt;Node12</title>
<path fill="none" stroke="midnightblue" d="M1147.23,-237.05C1182.32,-229.24 1224.14,-217.11 1258.82,-199 1293.22,-181.03 1302.03,-173.66 1325.82,-143 1336.82,-128.81 1345.24,-110.09 1350.5,-96.38"/>
<polygon fill="midnightblue" stroke="midnightblue" points="1353.91,-97.24 1354.04,-86.65 1347.33,-94.85 1353.91,-97.24"/>
</g>
<!-- Node20 -->
<g id="node20" class="node">
<title>Node20</title>
<g id="a_node20"><a xlink:title=" ">
<polygon fill="white" stroke="#bfbfbf" points="81.32,-6 81.32,-25 146.32,-25 146.32,-6 81.32,-6"/>
<text text-anchor="middle" x="113.82" y="-13" font-family="Helvetica,sans-Serif" font-size="10.00">stdexcept</text>
</a>
</g>
</g>
<!-- Node1&#45;&gt;Node20 -->
<g id="edge36" class="edge">
<title>Node1&#45;&gt;Node20</title>
<path fill="none" stroke="midnightblue" d="M1000.73,-247.68C820.44,-242.81 358.17,-227.83 206.82,-199 128.67,-184.12 97.37,-194.59 36.82,-143 9.3,-119.56 -11.48,-97.57 7.82,-67 21.81,-44.83 48.5,-32.19 71.6,-25.1"/>
<polygon fill="midnightblue" stroke="midnightblue" points="72.55,-28.47 81.23,-22.39 70.66,-21.73 72.55,-28.47"/>
</g>
<!-- Node23 -->
<g id="node23" class="node">
<title>Node23</title>
<g id="a_node23"><a xlink:href="Ledger_8h.html" target="_top" xlink:title="Financial ledger for tracking game balance.">
<polygon fill="white" stroke="black" points="1258.82,-123.5 1258.82,-142.5 1316.82,-142.5 1316.82,-123.5 1258.82,-123.5"/>
<text text-anchor="middle" x="1287.82" y="-130.5" font-family="Helvetica,sans-Serif" font-size="10.00">Ledger.h</text>
</a>
</g>
</g>
<!-- Node1&#45;&gt;Node23 -->
<g id="edge28" class="edge">
<title>Node1&#45;&gt;Node23</title>
<path fill="none" stroke="midnightblue" d="M1146.9,-235.45C1175.32,-227.73 1207.15,-216.11 1232.82,-199 1251.58,-186.49 1267.52,-165.8 1277.33,-151.13"/>
<polygon fill="midnightblue" stroke="midnightblue" points="1280.41,-152.81 1282.86,-142.5 1274.52,-149.03 1280.41,-152.81"/>
</g>
<!-- Node24 -->
<g id="node24" class="node">
<title>Node24</title>
<g id="a_node24"><a xlink:href="Inventory_8h.html" target="_top" xlink:title="Inventory management for plants in greenhouse and sales floor.">
<polygon fill="white" stroke="black" points="1038.32,-179.5 1038.32,-198.5 1109.32,-198.5 1109.32,-179.5 1038.32,-179.5"/>
<text text-anchor="middle" x="1073.82" y="-186.5" font-family="Helvetica,sans-Serif" font-size="10.00">Inventory.h</text>
</a>
</g>
</g>
<!-- Node1&#45;&gt;Node24 -->
<g id="edge30" class="edge">
<title>Node1&#45;&gt;Node24</title>
<path fill="none" stroke="midnightblue" d="M1073.82,-235.4C1073.82,-227.47 1073.82,-217.46 1073.82,-208.86"/>
<polygon fill="midnightblue" stroke="midnightblue" points="1077.32,-208.66 1073.82,-198.66 1070.32,-208.66 1077.32,-208.66"/>
</g>
<!-- Node3 -->
<g id="node3" class="node">
<title>Node3</title>
<g id="a_node3"><a xlink:href="Plant_8h.html" target="_top" xlink:title="Defines the abstract base class for all Plant objects used in the system.">
<polygon fill="white" stroke="black" points="655.82,-123.5 655.82,-142.5 705.82,-142.5 705.82,-123.5 655.82,-123.5"/>
<text text-anchor="middle" x="680.82" y="-130.5" font-family="Helvetica,sans-Serif" font-size="10.00">Plant.h</text>
</a>
</g>
</g>
<!-- Node2&#45;&gt;Node3 -->
<g id="edge2" class="edge">
<title>Node2&#45;&gt;Node3</title>
<path fill="none" stroke="midnightblue" d="M680.82,-179.08C680.82,-172.01 680.82,-161.86 680.82,-152.99"/>
<polygon fill="midnightblue" stroke="midnightblue" points="684.32,-152.75 680.82,-142.75 677.32,-152.75 684.32,-152.75"/>
</g>
<!-- Node4 -->
<g id="node4" class="node">
<title>Node4</title>
<g id="a_node4"><a xlink:title=" ">
<polygon fill="white" stroke="#bfbfbf" points="545.82,-6 545.82,-25 589.82,-25 589.82,-6 545.82,-6"/>
<text text-anchor="middle" x="567.82" y="-13" font-family="Helvetica,sans-Serif" font-size="10.00">string</text>
</a>
</g>
</g>
<!-- Node2&#45;&gt;Node4 -->
<g id="edge27" class="edge">
<title>Node2&#45;&gt;Node4</title>
<path fill="none" stroke="midnightblue" d="M627.58,-188.3C485.17,-187.85 100.96,-178.05 22.82,-87 17.03,-80.25 16.83,-73.57 22.82,-67 40.2,-47.93 420.55,-24.86 535.32,-18.31"/>
<polygon fill="midnightblue" stroke="midnightblue" points="535.79,-21.79 545.57,-17.73 535.39,-14.8 535.79,-21.79"/>
</g>
<!-- Node3&#45;&gt;Node4 -->
<g id="edge3" class="edge">
<title>Node3&#45;&gt;Node4</title>
<path fill="none" stroke="midnightblue" d="M655.59,-126.22C634.24,-120.04 604.4,-108.14 586.82,-87 574.8,-72.55 570.33,-51.2 568.7,-35.79"/>
<polygon fill="midnightblue" stroke="midnightblue" points="572.15,-35.08 567.92,-25.36 565.17,-35.6 572.15,-35.08"/>
</g>
<!-- Node5 -->
<g id="node5" class="node">
<title>Node5</title>
<g id="a_node5"><a xlink:title=" ">
<polygon fill="white" stroke="#bfbfbf" points="249.82,-67.5 249.82,-86.5 287.82,-86.5 287.82,-67.5 249.82,-67.5"/>
<text text-anchor="middle" x="268.82" y="-74.5" font-family="Helvetica,sans-Serif" font-size="10.00">map</text>
</a>
</g>
</g>
<!-- Node3&#45;&gt;Node5 -->
<g id="edge4" class="edge">
<title>Node3&#45;&gt;Node5</title>
<path fill="none" stroke="midnightblue" d="M655.38,-130.73C594.86,-127.35 437.58,-116.44 297.98,-86.86"/>
<polygon fill="midnightblue" stroke="midnightblue" points="298.48,-83.38 287.96,-84.7 297,-90.23 298.48,-83.38"/>
</g>
<!-- Node3&#45;&gt;Node6 -->
<g id="edge5" class="edge">
<title>Node3&#45;&gt;Node6</title>
<path fill="none" stroke="midnightblue" d="M706.05,-131.24C783.54,-128.63 1024.73,-118.36 1221.82,-87 1223.28,-86.77 1224.77,-86.51 1226.28,-86.23"/>
<polygon fill="midnightblue" stroke="midnightblue" points="1227.13,-89.63 1236.21,-84.17 1225.71,-82.77 1227.13,-89.63"/>
</g>
<!-- Node7 -->
<g id="node7" class="node">
<title>Node7</title>
<g id="a_node7"><a xlink:title=" ">
<polygon fill="white" stroke="#bfbfbf" points="305.82,-67.5 305.82,-86.5 369.82,-86.5 369.82,-67.5 305.82,-67.5"/>
<text text-anchor="middle" x="337.82" y="-74.5" font-family="Helvetica,sans-Serif" font-size="10.00">algorithm</text>
</a>
</g>
</g>
<!-- Node3&#45;&gt;Node7 -->
<g id="edge6" class="edge">
<title>Node3&#45;&gt;Node7</title>
<path fill="none" stroke="midnightblue" d="M655.66,-128.84C605.31,-122.39 488.37,-106.79 380.11,-87.14"/>
<polygon fill="midnightblue" stroke="midnightblue" points="380.47,-83.64 370,-85.28 379.21,-90.53 380.47,-83.64"/>
</g>
<!-- Node3&#45;&gt;Node8 -->
<g id="edge7" class="edge">
<title>Node3&#45;&gt;Node8</title>
<path fill="none" stroke="midnightblue" d="M660.86,-123.4C629.26,-110.01 565.57,-83.97 509.82,-67 448.74,-48.41 376.25,-32.88 332.17,-24.14"/>
<polygon fill="midnightblue" stroke="midnightblue" points="332.62,-20.66 322.13,-22.17 331.27,-27.53 332.62,-20.66"/>
</g>
<!-- Node9 -->
<g id="node9" class="node">
<title>Node9</title>
<g id="a_node9"><a xlink:title=" ">
<polygon fill="white" stroke="#bfbfbf" points="388.32,-67.5 388.32,-86.5 501.32,-86.5 501.32,-67.5 388.32,-67.5"/>
<text text-anchor="middle" x="444.82" y="-74.5" font-family="Helvetica,sans-Serif" font-size="10.00">boost/uuid/uuid.hpp</text>
</a>
</g>
</g>
<!-- Node3&#45;&gt;Node9 -->
<g id="edge8" class="edge">
<title>Node3&#45;&gt;Node9</title>
<path fill="none" stroke="midnightblue" d="M655.56,-126.22C616.62,-117.31 541.3,-100.08 492.05,-88.81"/>
<polygon fill="midnightblue" stroke="midnightblue" points="492.79,-85.39 482.26,-86.57 491.23,-92.21 492.79,-85.39"/>
</g>
<!-- Node10 -->
<g id="node10" class="node">
<title>Node10</title>
<g id="a_node10"><a xlink:title=" ">
<polygon fill="white" stroke="#bfbfbf" points="595.82,-67.5 595.82,-86.5 765.82,-86.5 765.82,-67.5 595.82,-67.5"/>
<text text-anchor="middle" x="680.82" y="-74.5" font-family="Helvetica,sans-Serif" font-size="10.00">boost/uuid/uuid_generators.hpp</text>
</a>
</g>
</g>
<!-- Node3&#45;&gt;Node10 -->
<g id="edge9" class="edge">
<title>Node3&#45;&gt;Node10</title>
<path fill="none" stroke="midnightblue" d="M680.82,-123.08C680.82,-116.01 680.82,-105.86 680.82,-96.99"/>
<polygon fill="midnightblue" stroke="midnightblue" points="684.32,-96.75 680.82,-86.75 677.32,-96.75 684.32,-96.75"/>
</g>
<!-- Node11 -->
<g id="node11" class="node">
<title>Node11</title>
<g id="a_node11"><a xlink:title=" ">
<polygon fill="white" stroke="#bfbfbf" points="784.32,-67.5 784.32,-86.5 911.32,-86.5 911.32,-67.5 784.32,-67.5"/>
<text text-anchor="middle" x="847.82" y="-74.5" font-family="Helvetica,sans-Serif" font-size="10.00">boost/uuid/uuid_io.hpp</text>
</a>
</g>
</g>
<!-- Node3&#45;&gt;Node11 -->
<g id="edge10" class="edge">
<title>Node3&#45;&gt;Node11</title>
<path fill="none" stroke="midnightblue" d="M705.82,-123.92C733.82,-114.86 779.45,-100.11 811.41,-89.77"/>
<polygon fill="midnightblue" stroke="midnightblue" points="812.82,-92.99 821.26,-86.59 810.67,-86.33 812.82,-92.99"/>
</g>
<!-- Node3&#45;&gt;Node12 -->
<g id="edge11" class="edge">
<title>Node3&#45;&gt;Node12</title>
<path fill="none" stroke="midnightblue" d="M705.94,-130.75C788.3,-126.53 1057.81,-111.73 1291.63,-87.06"/>
<polygon fill="midnightblue" stroke="midnightblue" points="1292.11,-90.53 1301.69,-85.99 1291.37,-83.57 1292.11,-90.53"/>
</g>
<!-- Node13 -->
<g id="node13" class="node">
<title>Node13</title>
<g id="a_node13"><a xlink:title=" ">
<polygon fill="white" stroke="#bfbfbf" points="929.82,-67.5 929.82,-86.5 977.82,-86.5 977.82,-67.5 929.82,-67.5"/>
<text text-anchor="middle" x="953.82" y="-74.5" font-family="Helvetica,sans-Serif" font-size="10.00">thread</text>
</a>
</g>
</g>
<!-- Node3&#45;&gt;Node13 -->
<g id="edge12" class="edge">
<title>Node3&#45;&gt;Node13</title>
<path fill="none" stroke="midnightblue" d="M706.06,-127.87C749.79,-120.57 842.39,-104.51 919.82,-87 919.92,-86.98 920.02,-86.95 920.12,-86.93"/>
<polygon fill="midnightblue" stroke="midnightblue" points="920.83,-90.36 929.72,-84.61 919.18,-83.56 920.83,-90.36"/>
</g>
<!-- Node14 -->
<g id="node14" class="node">
<title>Node14</title>
<g id="a_node14"><a xlink:title=" ">
<polygon fill="white" stroke="#bfbfbf" points="995.82,-67.5 995.82,-86.5 1045.82,-86.5 1045.82,-67.5 995.82,-67.5"/>
<text text-anchor="middle" x="1020.82" y="-74.5" font-family="Helvetica,sans-Serif" font-size="10.00">atomic</text>
</a>
</g>
</g>
<!-- Node3&#45;&gt;Node14 -->
<g id="edge13" class="edge">
<title>Node3&#45;&gt;Node14</title>
<path fill="none" stroke="midnightblue" d="M705.97,-129.27C756.94,-123.54 876.2,-109.09 985.75,-87.02"/>
<polygon fill="midnightblue" stroke="midnightblue" points="986.54,-90.43 995.64,-85 985.14,-83.57 986.54,-90.43"/>
</g>
<!-- Node15 -->
<g id="node15" class="node">
<title>Node15</title>
<g id="a_node15"><a xlink:href="GreenSock_8h.html" target="_top" xlink:title=" ">
<polygon fill="white" stroke="black" points="1101.82,-67.5 1101.82,-86.5 1179.82,-86.5 1179.82,-67.5 1101.82,-67.5"/>
<text text-anchor="middle" x="1140.82" y="-74.5" font-family="Helvetica,sans-Serif" font-size="10.00">GreenSock.h</text>
</a>
</g>
</g>
<!-- Node3&#45;&gt;Node15 -->
<g id="edge14" class="edge">
<title>Node3&#45;&gt;Node15</title>
<path fill="none" stroke="midnightblue" d="M705.87,-129.06C779.14,-120.46 993.92,-95.24 1091.53,-83.79"/>
<polygon fill="midnightblue" stroke="midnightblue" points="1092.19,-87.23 1101.72,-82.59 1091.38,-80.28 1092.19,-87.23"/>
</g>
<!-- Node18 -->
<g id="node18" class="node">
<title>Node18</title>
<g id="a_node18"><a xlink:title=" ">
<polygon fill="white" stroke="#bfbfbf" points="1204.82,-6 1204.82,-25 1252.82,-25 1252.82,-6 1204.82,-6"/>
<text text-anchor="middle" x="1228.82" y="-13" font-family="Helvetica,sans-Serif" font-size="10.00">mutex</text>
</a>
</g>
</g>
<!-- Node3&#45;&gt;Node18 -->
<g id="edge26" class="edge">
<title>Node3&#45;&gt;Node18</title>
<path fill="none" stroke="midnightblue" d="M706.03,-131.13C802.91,-127.61 1147.91,-113.31 1188.82,-87 1207.26,-75.14 1218.08,-51.59 1223.71,-34.98"/>
<polygon fill="midnightblue" stroke="midnightblue" points="1227.11,-35.84 1226.7,-25.26 1220.41,-33.79 1227.11,-35.84"/>
</g>
<!-- Node19 -->
<g id="node19" class="node">
<title>Node19</title>
<g id="a_node19"><a xlink:href="Logger_8h.html" target="_top" xlink:title="Header for Strategy Logger interface.">
<polygon fill="white" stroke="black" points="173.82,-67.5 173.82,-86.5 231.82,-86.5 231.82,-67.5 173.82,-67.5"/>
<text text-anchor="middle" x="202.82" y="-74.5" font-family="Helvetica,sans-Serif" font-size="10.00">Logger.h</text>
</a>
</g>
</g>
<!-- Node3&#45;&gt;Node19 -->
<g id="edge20" class="edge">
<title>Node3&#45;&gt;Node19</title>
<path fill="none" stroke="midnightblue" d="M655.36,-130.56C588.97,-126.57 404.93,-113.93 242.38,-87.07"/>
<polygon fill="midnightblue" stroke="midnightblue" points="242.64,-83.56 232.2,-85.36 241.48,-90.46 242.64,-83.56"/>
</g>
<!-- Node21 -->
<g id="node21" class="node">
<title>Node21</title>
<g id="a_node21"><a xlink:title=" ">
<polygon fill="white" stroke="#bfbfbf" points="32.32,-67.5 32.32,-86.5 79.32,-86.5 79.32,-67.5 32.32,-67.5"/>
<text text-anchor="middle" x="55.82" y="-74.5" font-family="Helvetica,sans-Serif" font-size="10.00">queue</text>
</a>
</g>
</g>
<!-- Node3&#45;&gt;Node21 -->
<g id="edge24" class="edge">
<title>Node3&#45;&gt;Node21</title>
<path fill="none" stroke="midnightblue" d="M655.79,-131.8C575.02,-130.78 313.98,-124.73 89.48,-86.75"/>
<polygon fill="midnightblue" stroke="midnightblue" points="89.94,-83.28 79.49,-85.04 88.75,-90.18 89.94,-83.28"/>
</g>
<!-- Node22 -->
<g id="node22" class="node">
<title>Node22</title>
<g id="a_node22"><a xlink:title=" ">
<polygon fill="white" stroke="#bfbfbf" points="97.82,-67.5 97.82,-86.5 155.82,-86.5 155.82,-67.5 97.82,-67.5"/>
<text text-anchor="middle" x="126.82" y="-74.5" font-family="Helvetica,sans-Serif" font-size="10.00">memory</text>
</a>
</g>
</g>
<!-- Node3&#45;&gt;Node22 -->
<g id="edge25" class="edge">
<title>Node3&#45;&gt;Node22</title>
<path fill="none" stroke="midnightblue" d="M655.69,-131.11C581.95,-128.21 359.69,-117.52 166.25,-87.01"/>
<polygon fill="midnightblue" stroke="midnightblue" points="166.62,-83.53 156.19,-85.4 165.51,-90.44 166.62,-83.53"/>
</g>
<!-- Node15&#45;&gt;Node4 -->
<g id="edge18" class="edge">
<title>Node15&#45;&gt;Node4</title>
<path fill="none" stroke="midnightblue" d="M1101.79,-69.05C1097.09,-68.31 1092.35,-67.6 1087.82,-67 903.9,-42.49 681.87,-24.9 600.08,-18.83"/>
<polygon fill="midnightblue" stroke="midnightblue" points="600.16,-15.32 589.93,-18.08 599.64,-22.31 600.16,-15.32"/>
</g>
<!-- Node15&#45;&gt;Node8 -->
<g id="edge17" class="edge">
<title>Node15&#45;&gt;Node8</title>
<path fill="none" stroke="midnightblue" d="M1101.46,-71.56C1086.83,-70 1070.07,-68.3 1054.82,-67 912.2,-54.82 468.5,-27.33 332.11,-18.96"/>
<polygon fill="midnightblue" stroke="midnightblue" points="332.28,-15.47 322.09,-18.35 331.86,-22.45 332.28,-15.47"/>
</g>
<!-- Node16 -->
<g id="node16" class="node">
<title>Node16</title>
<g id="a_node16"><a xlink:title=" ">
<polygon fill="white" stroke="#bfbfbf" points="921.32,-0.5 921.32,-30.5 1034.32,-30.5 1034.32,-0.5 921.32,-0.5"/>
<text text-anchor="start" x="929.32" y="-18.5" font-family="Helvetica,sans-Serif" font-size="10.00">websocketpp/config</text>
<text text-anchor="middle" x="977.82" y="-7.5" font-family="Helvetica,sans-Serif" font-size="10.00">/asio_no_tls.hpp</text>
</a>
</g>
</g>
<!-- Node15&#45;&gt;Node16 -->
<g id="edge15" class="edge">
<title>Node15&#45;&gt;Node16</title>
<path fill="none" stroke="midnightblue" d="M1117.46,-67.48C1093.63,-58.78 1055.96,-45.03 1025.75,-34"/>
<polygon fill="midnightblue" stroke="midnightblue" points="1026.83,-30.66 1016.23,-30.52 1024.43,-37.24 1026.83,-30.66"/>
</g>
<!-- Node17 -->
<g id="node17" class="node">
<title>Node17</title>
<g id="a_node17"><a xlink:title=" ">
<polygon fill="white" stroke="#bfbfbf" points="1052.82,-6 1052.82,-25 1186.82,-25 1186.82,-6 1052.82,-6"/>
<text text-anchor="middle" x="1119.82" y="-13" font-family="Helvetica,sans-Serif" font-size="10.00">websocketpp/server.hpp</text>
</a>
</g>
</g>
<!-- Node15&#45;&gt;Node17 -->
<g id="edge16" class="edge">
<title>Node15&#45;&gt;Node17</title>
<path fill="none" stroke="midnightblue" d="M1137.81,-67.48C1134.78,-58.9 1130.03,-45.43 1126.16,-34.48"/>
<polygon fill="midnightblue" stroke="midnightblue" points="1129.45,-33.27 1122.82,-25.01 1122.85,-35.6 1129.45,-33.27"/>
</g>
<!-- Node15&#45;&gt;Node18 -->
<g id="edge19" class="edge">
<title>Node15&#45;&gt;Node18</title>
<path fill="none" stroke="midnightblue" d="M1153.42,-67.48C1167.54,-57.93 1190.65,-42.31 1207.57,-30.87"/>
<polygon fill="midnightblue" stroke="midnightblue" points="1209.91,-33.51 1216.23,-25.01 1205.99,-27.71 1209.91,-33.51"/>
</g>
<!-- Node19&#45;&gt;Node4 -->
<g id="edge21" class="edge">
<title>Node19&#45;&gt;Node4</title>
<path fill="none" stroke="midnightblue" d="M232.23,-68.79C235.12,-68.15 238.02,-67.55 240.82,-67 348.03,-46.06 476.4,-28.36 535.33,-20.65"/>
<polygon fill="midnightblue" stroke="midnightblue" points="536.04,-24.08 545.51,-19.32 535.14,-17.14 536.04,-24.08"/>
</g>
<!-- Node19&#45;&gt;Node8 -->
<g id="edge22" class="edge">
<title>Node19&#45;&gt;Node8</title>
<path fill="none" stroke="midnightblue" d="M215.57,-67.48C229.84,-57.93 253.21,-42.31 270.32,-30.87"/>
<polygon fill="midnightblue" stroke="midnightblue" points="272.72,-33.48 279.09,-25.01 268.83,-27.66 272.72,-33.48"/>
</g>
<!-- Node19&#45;&gt;Node20 -->
<g id="edge23" class="edge">
<title>Node19&#45;&gt;Node20</title>
<path fill="none" stroke="midnightblue" d="M190.07,-67.48C175.79,-57.93 152.42,-42.31 135.31,-30.87"/>
<polygon fill="midnightblue" stroke="midnightblue" points="136.8,-27.66 126.54,-25.01 132.91,-33.48 136.8,-27.66"/>
</g>
<!-- Node23&#45;&gt;Node12 -->
<g id="edge29" class="edge">
<title>Node23&#45;&gt;Node12</title>
<path fill="none" stroke="midnightblue" d="M1298.9,-123.32C1309.3,-115.18 1325.08,-102.84 1337.54,-93.09"/>
<polygon fill="midnightblue" stroke="midnightblue" points="1339.81,-95.75 1345.53,-86.83 1335.5,-90.24 1339.81,-95.75"/>
</g>
<!-- Node24&#45;&gt;Node3 -->
<g id="edge31" class="edge">
<title>Node24&#45;&gt;Node3</title>
<path fill="none" stroke="midnightblue" d="M1038.25,-183.11C963.51,-172.84 790.92,-149.13 716.28,-138.87"/>
<polygon fill="midnightblue" stroke="midnightblue" points="716.38,-135.35 706,-137.46 715.43,-142.29 716.38,-135.35"/>
</g>
<!-- Node24&#45;&gt;Node4 -->
<g id="edge33" class="edge">
<title>Node24&#45;&gt;Node4</title>
<path fill="none" stroke="midnightblue" d="M1075.56,-179.41C1079.53,-157.13 1086.59,-97.15 1054.82,-67 1021.84,-35.71 703.89,-21.45 600.28,-17.61"/>
<polygon fill="midnightblue" stroke="midnightblue" points="600.23,-14.1 590.11,-17.24 599.97,-21.1 600.23,-14.1"/>
</g>
<!-- Node24&#45;&gt;Node6 -->
<g id="edge32" class="edge">
<title>Node24&#45;&gt;Node6</title>
<path fill="none" stroke="midnightblue" d="M1088.41,-179.37C1120.47,-160.41 1197.25,-115 1236.24,-91.94"/>
<polygon fill="midnightblue" stroke="midnightblue" points="1238.46,-94.69 1245.29,-86.59 1234.9,-88.67 1238.46,-94.69"/>
</g>
</g>
</svg>
