<?xml version="1.0" encoding="UTF-8" standalone="no"?>
<!DOCTYPE svg PUBLIC "-//W3C//DTD SVG 1.1//EN"
 "http://www.w3.org/Graphics/SVG/1.1/DTD/svg11.dtd">
<!-- Generated by graphviz version 2.43.0 (0)
 -->
<!-- Title: backend/plant/Tree.cpp Pages: 1 -->
<svg width="1760pt" height="263pt"
 viewBox="0.00 0.00 1760.00 263.00" xmlns="http://www.w3.org/2000/svg" xmlns:xlink="http://www.w3.org/1999/xlink">
<g id="graph0" class="graph" transform="scale(1 1) rotate(0) translate(4 259)">
<title>backend/plant/Tree.cpp</title>
<polygon fill="white" stroke="transparent" points="-4,4 -4,-259 1756,-259 1756,4 -4,4"/>
<!-- Node1 -->
<g id="node1" class="node">
<title>Node1</title>
<g id="a_node1"><a xlink:title="Implements the functionality defined in the Tree class.">
<polygon fill="#bfbfbf" stroke="black" points="543,-235.5 543,-254.5 671,-254.5 671,-235.5 543,-235.5"/>
<text text-anchor="middle" x="607" y="-242.5" font-family="Helvetica,sans-Serif" font-size="10.00">backend/plant/Tree.cpp</text>
</a>
</g>
</g>
<!-- Node2 -->
<g id="node2" class="node">
<title>Node2</title>
<g id="a_node2"><a xlink:href="Tree_8h.html" target="_top" xlink:title="Defines the Tree subclass derived from the Plant base class.">
<polygon fill="white" stroke="black" points="766,-179.5 766,-198.5 812,-198.5 812,-179.5 766,-179.5"/>
<text text-anchor="middle" x="789" y="-186.5" font-family="Helvetica,sans-Serif" font-size="10.00">Tree.h</text>
</a>
</g>
</g>
<!-- Node1&#45;&gt;Node2 -->
<g id="edge1" class="edge">
<title>Node1&#45;&gt;Node2</title>
<path fill="none" stroke="midnightblue" d="M635.84,-235.44C668.45,-225.77 721.46,-210.04 755.78,-199.86"/>
<polygon fill="midnightblue" stroke="midnightblue" points="757.19,-203.09 765.78,-196.89 755.2,-196.38 757.19,-203.09"/>
</g>
<!-- Node25 -->
<g id="node25" class="node">
<title>Node25</title>
<g id="a_node25"><a xlink:href="PlantHealth_8h_source.html" target="_top" xlink:title=" ">
<polygon fill="white" stroke="black" points="229.5,-123.5 229.5,-142.5 312.5,-142.5 312.5,-123.5 229.5,-123.5"/>
<text text-anchor="middle" x="271" y="-130.5" font-family="Helvetica,sans-Serif" font-size="10.00">PlantHealth.h</text>
</a>
</g>
</g>
<!-- Node1&#45;&gt;Node25 -->
<g id="edge35" class="edge">
<title>Node1&#45;&gt;Node25</title>
<path fill="none" stroke="midnightblue" d="M580.91,-235.46C521.37,-215.97 375.34,-168.16 307.16,-145.84"/>
<polygon fill="midnightblue" stroke="midnightblue" points="307.89,-142.4 297.3,-142.61 305.72,-149.05 307.89,-142.4"/>
</g>
<!-- Node3 -->
<g id="node3" class="node">
<title>Node3</title>
<g id="a_node3"><a xlink:href="Plant_8h.html" target="_top" xlink:title="Defines the abstract base class for all Plant objects used in the system.">
<polygon fill="white" stroke="black" points="989,-123.5 989,-142.5 1039,-142.5 1039,-123.5 989,-123.5"/>
<text text-anchor="middle" x="1014" y="-130.5" font-family="Helvetica,sans-Serif" font-size="10.00">Plant.h</text>
</a>
</g>
</g>
<!-- Node2&#45;&gt;Node3 -->
<g id="edge2" class="edge">
<title>Node2&#45;&gt;Node3</title>
<path fill="none" stroke="midnightblue" d="M812.23,-182.42C851.79,-172.93 932.46,-153.57 978.92,-142.42"/>
<polygon fill="midnightblue" stroke="midnightblue" points="979.94,-145.77 988.84,-140.04 978.3,-138.97 979.94,-145.77"/>
</g>
<!-- Node4 -->
<g id="node4" class="node">
<title>Node4</title>
<g id="a_node4"><a xlink:title=" ">
<polygon fill="white" stroke="#bfbfbf" points="903,-6 903,-25 947,-25 947,-6 903,-6"/>
<text text-anchor="middle" x="925" y="-13" font-family="Helvetica,sans-Serif" font-size="10.00">string</text>
</a>
</g>
</g>
<!-- Node3&#45;&gt;Node4 -->
<g id="edge3" class="edge">
<title>Node3&#45;&gt;Node4</title>
<path fill="none" stroke="midnightblue" d="M1007.31,-123.32C992.62,-104.26 957.32,-58.45 938.07,-33.46"/>
<polygon fill="midnightblue" stroke="midnightblue" points="940.64,-31.07 931.77,-25.28 935.1,-35.34 940.64,-31.07"/>
</g>
<!-- Node5 -->
<g id="node5" class="node">
<title>Node5</title>
<g id="a_node5"><a xlink:title=" ">
<polygon fill="white" stroke="#bfbfbf" points="1246,-67.5 1246,-86.5 1284,-86.5 1284,-67.5 1246,-67.5"/>
<text text-anchor="middle" x="1265" y="-74.5" font-family="Helvetica,sans-Serif" font-size="10.00">map</text>
</a>
</g>
</g>
<!-- Node3&#45;&gt;Node5 -->
<g id="edge4" class="edge">
<title>Node3&#45;&gt;Node5</title>
<path fill="none" stroke="midnightblue" d="M1039.29,-127.31C1080.03,-119.64 1162.66,-103.6 1232,-87 1233.27,-86.7 1234.56,-86.38 1235.86,-86.05"/>
<polygon fill="midnightblue" stroke="midnightblue" points="1237.07,-89.36 1245.86,-83.44 1235.3,-82.58 1237.07,-89.36"/>
</g>
<!-- Node6 -->
<g id="node6" class="node">
<title>Node6</title>
<g id="a_node6"><a xlink:title=" ">
<polygon fill="white" stroke="#bfbfbf" points="1302.5,-67.5 1302.5,-86.5 1349.5,-86.5 1349.5,-67.5 1302.5,-67.5"/>
<text text-anchor="middle" x="1326" y="-74.5" font-family="Helvetica,sans-Serif" font-size="10.00">vector</text>
</a>
</g>
</g>
<!-- Node3&#45;&gt;Node6 -->
<g id="edge5" class="edge">
<title>Node3&#45;&gt;Node6</title>
<path fill="none" stroke="midnightblue" d="M1039.18,-128.85C1086.71,-122.72 1193.06,-108.06 1292.38,-86.93"/>
<polygon fill="midnightblue" stroke="midnightblue" points="1293.24,-90.32 1302.28,-84.79 1291.77,-83.48 1293.24,-90.32"/>
</g>
<!-- Node7 -->
<g id="node7" class="node">
<title>Node7</title>
<g id="a_node7"><a xlink:title=" ">
<polygon fill="white" stroke="#bfbfbf" points="1368,-67.5 1368,-86.5 1432,-86.5 1432,-67.5 1368,-67.5"/>
<text text-anchor="middle" x="1400" y="-74.5" font-family="Helvetica,sans-Serif" font-size="10.00">algorithm</text>
</a>
</g>
</g>
<!-- Node3&#45;&gt;Node7 -->
<g id="edge6" class="edge">
<title>Node3&#45;&gt;Node7</title>
<path fill="none" stroke="midnightblue" d="M1039.22,-129.47C1094.86,-123.71 1232.48,-108.61 1357.68,-87.1"/>
<polygon fill="midnightblue" stroke="midnightblue" points="1358.57,-90.5 1367.82,-85.34 1357.37,-83.6 1358.57,-90.5"/>
</g>
<!-- Node8 -->
<g id="node8" class="node">
<title>Node8</title>
<g id="a_node8"><a xlink:title=" ">
<polygon fill="white" stroke="#bfbfbf" points="741,-6 741,-25 801,-25 801,-6 741,-6"/>
<text text-anchor="middle" x="771" y="-13" font-family="Helvetica,sans-Serif" font-size="10.00">iostream</text>
</a>
</g>
</g>
<!-- Node3&#45;&gt;Node8 -->
<g id="edge7" class="edge">
<title>Node3&#45;&gt;Node8</title>
<path fill="none" stroke="midnightblue" d="M988.97,-125.96C960.89,-118.69 914.38,-105.16 877,-87 844.62,-71.27 810.53,-47.01 790.01,-31.45"/>
<polygon fill="midnightblue" stroke="midnightblue" points="791.91,-28.49 781.85,-25.17 787.64,-34.04 791.91,-28.49"/>
</g>
<!-- Node9 -->
<g id="node9" class="node">
<title>Node9</title>
<g id="a_node9"><a xlink:title=" ">
<polygon fill="white" stroke="#bfbfbf" points="1450.5,-67.5 1450.5,-86.5 1563.5,-86.5 1563.5,-67.5 1450.5,-67.5"/>
<text text-anchor="middle" x="1507" y="-74.5" font-family="Helvetica,sans-Serif" font-size="10.00">boost/uuid/uuid.hpp</text>
</a>
</g>
</g>
<!-- Node3&#45;&gt;Node9 -->
<g id="edge8" class="edge">
<title>Node3&#45;&gt;Node9</title>
<path fill="none" stroke="midnightblue" d="M1039.06,-129.63C1103.61,-123.46 1281.07,-106.15 1440.5,-87.03"/>
<polygon fill="midnightblue" stroke="midnightblue" points="1440.98,-90.49 1450.49,-85.82 1440.14,-83.54 1440.98,-90.49"/>
</g>
<!-- Node10 -->
<g id="node10" class="node">
<title>Node10</title>
<g id="a_node10"><a xlink:title=" ">
<polygon fill="white" stroke="#bfbfbf" points="1582,-67.5 1582,-86.5 1752,-86.5 1752,-67.5 1582,-67.5"/>
<text text-anchor="middle" x="1667" y="-74.5" font-family="Helvetica,sans-Serif" font-size="10.00">boost/uuid/uuid_generators.hpp</text>
</a>
</g>
</g>
<!-- Node3&#45;&gt;Node10 -->
<g id="edge9" class="edge">
<title>Node3&#45;&gt;Node10</title>
<path fill="none" stroke="midnightblue" d="M1039.08,-130.12C1116.56,-124.27 1359.16,-105.75 1571.85,-87.09"/>
<polygon fill="midnightblue" stroke="midnightblue" points="1572.3,-90.56 1581.95,-86.2 1571.68,-83.59 1572.3,-90.56"/>
</g>
<!-- Node11 -->
<g id="node11" class="node">
<title>Node11</title>
<g id="a_node11"><a xlink:title=" ">
<polygon fill="white" stroke="#bfbfbf" points="498.5,-67.5 498.5,-86.5 625.5,-86.5 625.5,-67.5 498.5,-67.5"/>
<text text-anchor="middle" x="562" y="-74.5" font-family="Helvetica,sans-Serif" font-size="10.00">boost/uuid/uuid_io.hpp</text>
</a>
</g>
</g>
<!-- Node3&#45;&gt;Node11 -->
<g id="edge10" class="edge">
<title>Node3&#45;&gt;Node11</title>
<path fill="none" stroke="midnightblue" d="M988.71,-129.04C929.25,-122.06 775.63,-103.99 635.75,-87.09"/>
<polygon fill="midnightblue" stroke="midnightblue" points="636.05,-83.6 625.7,-85.87 635.21,-90.55 636.05,-83.6"/>
</g>
<!-- Node12 -->
<g id="node12" class="node">
<title>Node12</title>
<g id="a_node12"><a xlink:title=" ">
<polygon fill="white" stroke="#bfbfbf" points="644,-67.5 644,-86.5 754,-86.5 754,-67.5 644,-67.5"/>
<text text-anchor="middle" x="699" y="-74.5" font-family="Helvetica,sans-Serif" font-size="10.00">nlohmann/json.hpp</text>
</a>
</g>
</g>
<!-- Node3&#45;&gt;Node12 -->
<g id="edge11" class="edge">
<title>Node3&#45;&gt;Node12</title>
<path fill="none" stroke="midnightblue" d="M988.75,-127.67C939.22,-119.18 828.08,-100.13 758.75,-88.24"/>
<polygon fill="midnightblue" stroke="midnightblue" points="759.28,-84.78 748.83,-86.54 758.1,-91.68 759.28,-84.78"/>
</g>
<!-- Node13 -->
<g id="node13" class="node">
<title>Node13</title>
<g id="a_node13"><a xlink:title=" ">
<polygon fill="white" stroke="#bfbfbf" points="1156,-6 1156,-25 1204,-25 1204,-6 1156,-6"/>
<text text-anchor="middle" x="1180" y="-13" font-family="Helvetica,sans-Serif" font-size="10.00">thread</text>
</a>
</g>
</g>
<!-- Node3&#45;&gt;Node13 -->
<g id="edge12" class="edge">
<title>Node3&#45;&gt;Node13</title>
<path fill="none" stroke="midnightblue" d="M1039.07,-128.22C1066.29,-123.02 1109.77,-111.37 1139,-87 1155.61,-73.15 1167,-50.73 1173.48,-34.9"/>
<polygon fill="midnightblue" stroke="midnightblue" points="1176.89,-35.76 1177.19,-25.17 1170.35,-33.27 1176.89,-35.76"/>
</g>
<!-- Node14 -->
<g id="node14" class="node">
<title>Node14</title>
<g id="a_node14"><a xlink:title=" ">
<polygon fill="white" stroke="#bfbfbf" points="1222,-6 1222,-25 1272,-25 1272,-6 1222,-6"/>
<text text-anchor="middle" x="1247" y="-13" font-family="Helvetica,sans-Serif" font-size="10.00">atomic</text>
</a>
</g>
</g>
<!-- Node3&#45;&gt;Node14 -->
<g id="edge13" class="edge">
<title>Node3&#45;&gt;Node14</title>
<path fill="none" stroke="midnightblue" d="M1039.08,-127.43C1069.31,-121.24 1121.01,-108.43 1161,-87 1188.24,-72.4 1215.05,-48.49 1231.3,-32.62"/>
<polygon fill="midnightblue" stroke="midnightblue" points="1234.19,-34.69 1238.79,-25.15 1229.24,-29.74 1234.19,-34.69"/>
</g>
<!-- Node15 -->
<g id="node15" class="node">
<title>Node15</title>
<g id="a_node15"><a xlink:href="GreenSock_8h.html" target="_top" xlink:title=" ">
<polygon fill="white" stroke="black" points="326,-67.5 326,-86.5 404,-86.5 404,-67.5 326,-67.5"/>
<text text-anchor="middle" x="365" y="-74.5" font-family="Helvetica,sans-Serif" font-size="10.00">GreenSock.h</text>
</a>
</g>
</g>
<!-- Node3&#45;&gt;Node15 -->
<g id="edge14" class="edge">
<title>Node3&#45;&gt;Node15</title>
<path fill="none" stroke="midnightblue" d="M988.96,-130.14C910.38,-124.28 661.7,-105.46 456,-87 442.52,-85.79 427.92,-84.39 414.45,-83.05"/>
<polygon fill="midnightblue" stroke="midnightblue" points="414.7,-79.56 404.4,-82.05 414.01,-86.53 414.7,-79.56"/>
</g>
<!-- Node18 -->
<g id="node18" class="node">
<title>Node18</title>
<g id="a_node18"><a xlink:title=" ">
<polygon fill="white" stroke="#bfbfbf" points="448,-6 448,-25 496,-25 496,-6 448,-6"/>
<text text-anchor="middle" x="472" y="-13" font-family="Helvetica,sans-Serif" font-size="10.00">mutex</text>
</a>
</g>
</g>
<!-- Node3&#45;&gt;Node18 -->
<g id="edge34" class="edge">
<title>Node3&#45;&gt;Node18</title>
<path fill="none" stroke="midnightblue" d="M988.78,-131.52C889.4,-129.41 528.39,-119.55 490,-87 475.13,-74.39 471.65,-51.35 471.23,-35.05"/>
<polygon fill="midnightblue" stroke="midnightblue" points="474.73,-35.08 471.32,-25.05 467.73,-35.01 474.73,-35.08"/>
</g>
<!-- Node19 -->
<g id="node19" class="node">
<title>Node19</title>
<g id="a_node19"><a xlink:href="Logger_8h.html" target="_top" xlink:title="Header for Strategy Logger.">
<polygon fill="white" stroke="black" points="886,-67.5 886,-86.5 944,-86.5 944,-67.5 886,-67.5"/>
<text text-anchor="middle" x="915" y="-74.5" font-family="Helvetica,sans-Serif" font-size="10.00">Logger.h</text>
</a>
</g>
</g>
<!-- Node3&#45;&gt;Node19 -->
<g id="edge20" class="edge">
<title>Node3&#45;&gt;Node19</title>
<path fill="none" stroke="midnightblue" d="M998.09,-123.32C982.36,-114.74 958.06,-101.49 939.79,-91.52"/>
<polygon fill="midnightblue" stroke="midnightblue" points="941.32,-88.37 930.87,-86.65 937.97,-94.52 941.32,-88.37"/>
</g>
<!-- Node21 -->
<g id="node21" class="node">
<title>Node21</title>
<g id="a_node21"><a xlink:href="ThreadSafeQueue_8h_source.html" target="_top" xlink:title=" ">
<polygon fill="white" stroke="black" points="1000.5,-67.5 1000.5,-86.5 1113.5,-86.5 1113.5,-67.5 1000.5,-67.5"/>
<text text-anchor="middle" x="1057" y="-74.5" font-family="Helvetica,sans-Serif" font-size="10.00">ThreadSafeQueue.h</text>
</a>
</g>
</g>
<!-- Node3&#45;&gt;Node21 -->
<g id="edge24" class="edge">
<title>Node3&#45;&gt;Node21</title>
<path fill="none" stroke="midnightblue" d="M1021.1,-123.08C1027.24,-115.38 1036.27,-104.03 1043.74,-94.65"/>
<polygon fill="midnightblue" stroke="midnightblue" points="1046.54,-96.75 1050.03,-86.75 1041.06,-92.39 1046.54,-96.75"/>
</g>
<!-- Node22 -->
<g id="node22" class="node">
<title>Node22</title>
<g id="a_node22"><a xlink:title=" ">
<polygon fill="white" stroke="#bfbfbf" points="1090.5,-6 1090.5,-25 1137.5,-25 1137.5,-6 1090.5,-6"/>
<text text-anchor="middle" x="1114" y="-13" font-family="Helvetica,sans-Serif" font-size="10.00">queue</text>
</a>
</g>
</g>
<!-- Node3&#45;&gt;Node22 -->
<g id="edge32" class="edge">
<title>Node3&#45;&gt;Node22</title>
<path fill="none" stroke="midnightblue" d="M1039.36,-129.48C1065.33,-125.4 1104.44,-114.74 1123,-87 1133.37,-71.5 1128.36,-49.73 1122.51,-34.5"/>
<polygon fill="midnightblue" stroke="midnightblue" points="1125.67,-32.97 1118.51,-25.15 1119.23,-35.72 1125.67,-32.97"/>
</g>
<!-- Node24 -->
<g id="node24" class="node">
<title>Node24</title>
<g id="a_node24"><a xlink:title=" ">
<polygon fill="white" stroke="#bfbfbf" points="772,-67.5 772,-86.5 830,-86.5 830,-67.5 772,-67.5"/>
<text text-anchor="middle" x="801" y="-74.5" font-family="Helvetica,sans-Serif" font-size="10.00">memory</text>
</a>
</g>
</g>
<!-- Node3&#45;&gt;Node24 -->
<g id="edge33" class="edge">
<title>Node3&#45;&gt;Node24</title>
<path fill="none" stroke="midnightblue" d="M988.73,-125.59C952,-116.28 883.54,-98.93 840.23,-87.94"/>
<polygon fill="midnightblue" stroke="midnightblue" points="840.88,-84.5 830.32,-85.43 839.16,-91.28 840.88,-84.5"/>
</g>
<!-- Node15&#45;&gt;Node4 -->
<g id="edge18" class="edge">
<title>Node15&#45;&gt;Node4</title>
<path fill="none" stroke="midnightblue" d="M404.42,-73.03C523.11,-64.03 870.4,-37.31 894,-31 895.94,-30.48 897.9,-29.85 899.85,-29.14"/>
<polygon fill="midnightblue" stroke="midnightblue" points="901.47,-32.26 909.32,-25.14 898.74,-25.81 901.47,-32.26"/>
</g>
<!-- Node15&#45;&gt;Node8 -->
<g id="edge17" class="edge">
<title>Node15&#45;&gt;Node8</title>
<path fill="none" stroke="midnightblue" d="M404.06,-69.25C408.75,-68.47 413.48,-67.71 418,-67 531.22,-49.29 665.26,-30.79 730.82,-21.9"/>
<polygon fill="midnightblue" stroke="midnightblue" points="731.3,-25.37 740.74,-20.56 730.36,-18.43 731.3,-25.37"/>
</g>
<!-- Node16 -->
<g id="node16" class="node">
<title>Node16</title>
<g id="a_node16"><a xlink:title=" ">
<polygon fill="white" stroke="#bfbfbf" points="164.5,-0.5 164.5,-30.5 277.5,-30.5 277.5,-0.5 164.5,-0.5"/>
<text text-anchor="start" x="172.5" y="-18.5" font-family="Helvetica,sans-Serif" font-size="10.00">websocketpp/config</text>
<text text-anchor="middle" x="221" y="-7.5" font-family="Helvetica,sans-Serif" font-size="10.00">/asio_no_tls.hpp</text>
</a>
</g>
</g>
<!-- Node15&#45;&gt;Node16 -->
<g id="edge15" class="edge">
<title>Node15&#45;&gt;Node16</title>
<path fill="none" stroke="midnightblue" d="M344.37,-67.48C323.59,-58.89 290.9,-45.38 264.39,-34.43"/>
<polygon fill="midnightblue" stroke="midnightblue" points="265.52,-31.11 254.94,-30.52 262.84,-37.58 265.52,-31.11"/>
</g>
<!-- Node17 -->
<g id="node17" class="node">
<title>Node17</title>
<g id="a_node17"><a xlink:title=" ">
<polygon fill="white" stroke="#bfbfbf" points="296,-6 296,-25 430,-25 430,-6 296,-6"/>
<text text-anchor="middle" x="363" y="-13" font-family="Helvetica,sans-Serif" font-size="10.00">websocketpp/server.hpp</text>
</a>
</g>
</g>
<!-- Node15&#45;&gt;Node17 -->
<g id="edge16" class="edge">
<title>Node15&#45;&gt;Node17</title>
<path fill="none" stroke="midnightblue" d="M364.71,-67.48C364.43,-59.08 363.99,-45.98 363.63,-35.16"/>
<polygon fill="midnightblue" stroke="midnightblue" points="367.12,-34.89 363.29,-25.01 360.12,-35.12 367.12,-34.89"/>
</g>
<!-- Node15&#45;&gt;Node18 -->
<g id="edge19" class="edge">
<title>Node15&#45;&gt;Node18</title>
<path fill="none" stroke="midnightblue" d="M380.33,-67.48C397.97,-57.67 427.16,-41.43 447.86,-29.92"/>
<polygon fill="midnightblue" stroke="midnightblue" points="449.66,-32.93 456.7,-25.01 446.26,-26.81 449.66,-32.93"/>
</g>
<!-- Node19&#45;&gt;Node4 -->
<g id="edge21" class="edge">
<title>Node19&#45;&gt;Node4</title>
<path fill="none" stroke="midnightblue" d="M916.43,-67.48C917.84,-59.08 920.05,-45.98 921.86,-35.16"/>
<polygon fill="midnightblue" stroke="midnightblue" points="925.36,-35.45 923.57,-25.01 918.46,-34.29 925.36,-35.45"/>
</g>
<!-- Node19&#45;&gt;Node8 -->
<g id="edge22" class="edge">
<title>Node19&#45;&gt;Node8</title>
<path fill="none" stroke="midnightblue" d="M894.37,-67.48C869.88,-57.36 828.85,-40.4 800.89,-28.85"/>
<polygon fill="midnightblue" stroke="midnightblue" points="802.17,-25.59 791.59,-25.01 799.5,-32.06 802.17,-25.59"/>
</g>
<!-- Node20 -->
<g id="node20" class="node">
<title>Node20</title>
<g id="a_node20"><a xlink:title=" ">
<polygon fill="white" stroke="#bfbfbf" points="819.5,-6 819.5,-25 884.5,-25 884.5,-6 819.5,-6"/>
<text text-anchor="middle" x="852" y="-13" font-family="Helvetica,sans-Serif" font-size="10.00">stdexcept</text>
</a>
</g>
</g>
<!-- Node19&#45;&gt;Node20 -->
<g id="edge23" class="edge">
<title>Node19&#45;&gt;Node20</title>
<path fill="none" stroke="midnightblue" d="M905.97,-67.48C896.24,-58.28 880.54,-43.46 868.58,-32.16"/>
<polygon fill="midnightblue" stroke="midnightblue" points="870.68,-29.33 861.01,-25.01 865.88,-34.42 870.68,-29.33"/>
</g>
<!-- Node21&#45;&gt;Node4 -->
<g id="edge30" class="edge">
<title>Node21&#45;&gt;Node4</title>
<path fill="none" stroke="midnightblue" d="M1037.82,-67.39C1017.69,-58.34 985.11,-43.69 957,-31 955.81,-30.46 954.6,-29.92 953.37,-29.36"/>
<polygon fill="midnightblue" stroke="midnightblue" points="954.5,-26.03 943.95,-25.1 951.61,-32.41 954.5,-26.03"/>
</g>
<!-- Node21&#45;&gt;Node8 -->
<g id="edge25" class="edge">
<title>Node21&#45;&gt;Node8</title>
<path fill="none" stroke="midnightblue" d="M1000.22,-68.36C949.97,-60.96 874.91,-48.3 811,-31 808.19,-30.24 805.3,-29.37 802.42,-28.44"/>
<polygon fill="midnightblue" stroke="midnightblue" points="803.39,-25.08 792.8,-25.15 801.12,-31.7 803.39,-25.08"/>
</g>
<!-- Node21&#45;&gt;Node13 -->
<g id="edge26" class="edge">
<title>Node21&#45;&gt;Node13</title>
<path fill="none" stroke="midnightblue" d="M1074.62,-67.48C1095.17,-57.53 1129.36,-40.99 1153.21,-29.46"/>
<polygon fill="midnightblue" stroke="midnightblue" points="1154.93,-32.51 1162.41,-25.01 1151.88,-26.21 1154.93,-32.51"/>
</g>
<!-- Node21&#45;&gt;Node14 -->
<g id="edge31" class="edge">
<title>Node21&#45;&gt;Node14</title>
<path fill="none" stroke="midnightblue" d="M1091.16,-67.44C1123.02,-59.14 1171.71,-45.7 1213,-31 1214.86,-30.34 1216.76,-29.63 1218.67,-28.89"/>
<polygon fill="midnightblue" stroke="midnightblue" points="1220.16,-32.06 1228.1,-25.04 1217.52,-25.58 1220.16,-32.06"/>
</g>
<!-- Node21&#45;&gt;Node18 -->
<g id="edge28" class="edge">
<title>Node21&#45;&gt;Node18</title>
<path fill="none" stroke="midnightblue" d="M1000.38,-70.24C880.29,-58.03 603.13,-29.84 506.21,-19.98"/>
<polygon fill="midnightblue" stroke="midnightblue" points="506.39,-16.48 496.09,-18.95 505.68,-23.44 506.39,-16.48"/>
</g>
<!-- Node21&#45;&gt;Node22 -->
<g id="edge27" class="edge">
<title>Node21&#45;&gt;Node22</title>
<path fill="none" stroke="midnightblue" d="M1065.17,-67.48C1073.89,-58.37 1087.9,-43.74 1098.69,-32.48"/>
<polygon fill="midnightblue" stroke="midnightblue" points="1101.46,-34.65 1105.85,-25.01 1096.4,-29.81 1101.46,-34.65"/>
</g>
<!-- Node23 -->
<g id="node23" class="node">
<title>Node23</title>
<g id="a_node23"><a xlink:title=" ">
<polygon fill="white" stroke="#bfbfbf" points="965.5,-6 965.5,-25 1072.5,-25 1072.5,-6 965.5,-6"/>
<text text-anchor="middle" x="1019" y="-13" font-family="Helvetica,sans-Serif" font-size="10.00">condition_variable</text>
</a>
</g>
</g>
<!-- Node21&#45;&gt;Node23 -->
<g id="edge29" class="edge">
<title>Node21&#45;&gt;Node23</title>
<path fill="none" stroke="midnightblue" d="M1051.56,-67.48C1045.91,-58.64 1036.94,-44.59 1029.84,-33.48"/>
<polygon fill="midnightblue" stroke="midnightblue" points="1032.77,-31.55 1024.43,-25.01 1026.87,-35.32 1032.77,-31.55"/>
</g>
<!-- Node25&#45;&gt;Node8 -->
<g id="edge36" class="edge">
<title>Node25&#45;&gt;Node8</title>
<path fill="none" stroke="midnightblue" d="M296.38,-123.47C336.93,-110.06 419,-83.86 490,-67 574.95,-46.83 676.03,-30.51 730.83,-22.29"/>
<polygon fill="midnightblue" stroke="midnightblue" points="731.46,-25.73 740.83,-20.8 730.43,-18.81 731.46,-25.73"/>
</g>
<!-- Node25&#45;&gt;Node15 -->
<g id="edge40" class="edge">
<title>Node25&#45;&gt;Node15</title>
<path fill="none" stroke="midnightblue" d="M286.1,-123.32C300.9,-114.82 323.69,-101.73 340.98,-91.8"/>
<polygon fill="midnightblue" stroke="midnightblue" points="343.01,-94.67 349.93,-86.65 339.52,-88.6 343.01,-94.67"/>
</g>
<!-- Node25&#45;&gt;Node18 -->
<g id="edge37" class="edge">
<title>Node25&#45;&gt;Node18</title>
<path fill="none" stroke="midnightblue" d="M274.75,-123.43C281.28,-109.49 296.09,-81.96 317,-67 362.98,-34.11 385.9,-50.41 439,-31 440.66,-30.39 442.35,-29.75 444.05,-29.07"/>
<polygon fill="midnightblue" stroke="midnightblue" points="445.79,-32.14 453.67,-25.05 443.09,-25.68 445.79,-32.14"/>
</g>
<!-- Node26 -->
<g id="node26" class="node">
<title>Node26</title>
<g id="a_node26"><a xlink:title=" ">
<polygon fill="white" stroke="#bfbfbf" points="148,-67.5 148,-86.5 198,-86.5 198,-67.5 148,-67.5"/>
<text text-anchor="middle" x="173" y="-74.5" font-family="Helvetica,sans-Serif" font-size="10.00">chrono</text>
</a>
</g>
</g>
<!-- Node25&#45;&gt;Node26 -->
<g id="edge38" class="edge">
<title>Node25&#45;&gt;Node26</title>
<path fill="none" stroke="midnightblue" d="M255.25,-123.32C239.68,-114.74 215.62,-101.49 197.54,-91.52"/>
<polygon fill="midnightblue" stroke="midnightblue" points="199.15,-88.42 188.71,-86.65 195.78,-94.55 199.15,-88.42"/>
</g>
<!-- Node27 -->
<g id="node27" class="node">
<title>Node27</title>
<g id="a_node27"><a xlink:title=" ">
<polygon fill="white" stroke="#bfbfbf" points="216,-67.5 216,-86.5 270,-86.5 270,-67.5 216,-67.5"/>
<text text-anchor="middle" x="243" y="-74.5" font-family="Helvetica,sans-Serif" font-size="10.00">random</text>
</a>
</g>
</g>
<!-- Node25&#45;&gt;Node27 -->
<g id="edge39" class="edge">
<title>Node25&#45;&gt;Node27</title>
<path fill="none" stroke="midnightblue" d="M266.38,-123.08C262.54,-115.69 256.98,-104.95 252.24,-95.81"/>
<polygon fill="midnightblue" stroke="midnightblue" points="255.25,-94.02 247.54,-86.75 249.03,-97.24 255.25,-94.02"/>
</g>
<!-- Node28 -->
<g id="node28" class="node">
<title>Node28</title>
<g id="a_node28"><a xlink:title=" ">
<polygon fill="white" stroke="#bfbfbf" points="0,-67.5 0,-86.5 56,-86.5 56,-67.5 0,-67.5"/>
<text text-anchor="middle" x="28" y="-74.5" font-family="Helvetica,sans-Serif" font-size="10.00">sstream</text>
</a>
</g>
</g>
<!-- Node25&#45;&gt;Node28 -->
<g id="edge41" class="edge">
<title>Node25&#45;&gt;Node28</title>
<path fill="none" stroke="midnightblue" d="M230.67,-123.48C191.21,-115.09 129.13,-101.7 66.35,-87.27"/>
<polygon fill="midnightblue" stroke="midnightblue" points="66.8,-83.78 56.27,-84.95 65.22,-90.61 66.8,-83.78"/>
</g>
<!-- Node29 -->
<g id="node29" class="node">
<title>Node29</title>
<g id="a_node29"><a xlink:title=" ">
<polygon fill="white" stroke="#bfbfbf" points="74,-67.5 74,-86.5 130,-86.5 130,-67.5 74,-67.5"/>
<text text-anchor="middle" x="102" y="-74.5" font-family="Helvetica,sans-Serif" font-size="10.00">iomanip</text>
</a>
</g>
</g>
<!-- Node25&#45;&gt;Node29 -->
<g id="edge42" class="edge">
<title>Node25&#45;&gt;Node29</title>
<path fill="none" stroke="midnightblue" d="M244.22,-123.44C215.67,-114.32 170.27,-99.81 138.46,-89.65"/>
<polygon fill="midnightblue" stroke="midnightblue" points="139.24,-86.23 128.65,-86.52 137.11,-92.89 139.24,-86.23"/>
</g>
</g>
</svg>
