<?xml version="1.0" encoding="UTF-8" standalone="no"?>
<!DOCTYPE svg PUBLIC "-//W3C//DTD SVG 1.1//EN"
 "http://www.w3.org/Graphics/SVG/1.1/DTD/svg11.dtd">
<!-- Generated by graphviz version 2.43.0 (0)
 -->
<!-- Title: backend/plant/Tree.h Pages: 1 -->
<svg width="312pt" height="140pt"
 viewBox="0.00 0.00 312.00 140.00" xmlns="http://www.w3.org/2000/svg" xmlns:xlink="http://www.w3.org/1999/xlink">
<g id="graph0" class="graph" transform="scale(1 1) rotate(0) translate(4 136)">
<title>backend/plant/Tree.h</title>
<polygon fill="white" stroke="transparent" points="-4,4 -4,-136 308,-136 308,4 -4,4"/>
<!-- Node1 -->
<g id="node1" class="node">
<title>Node1</title>
<g id="a_node1"><a xlink:title="Defines the Tree subclass derived from the Plant base class.">
<polygon fill="#bfbfbf" stroke="black" points="84.5,-112.5 84.5,-131.5 201.5,-131.5 201.5,-112.5 84.5,-112.5"/>
<text text-anchor="middle" x="143" y="-119.5" font-family="Helvetica,sans-Serif" font-size="10.00">backend/plant/Tree.h</text>
</a>
</g>
</g>
<!-- Node2 -->
<g id="node2" class="node">
<title>Node2</title>
<g id="a_node2"><a xlink:href="Tree_8cpp.html" target="_top" xlink:title="Implements the functionality defined in the Tree class.">
<polygon fill="white" stroke="black" points="0,-56.5 0,-75.5 128,-75.5 128,-56.5 0,-56.5"/>
<text text-anchor="middle" x="64" y="-63.5" font-family="Helvetica,sans-Serif" font-size="10.00">backend/plant/Tree.cpp</text>
</a>
</g>
</g>
<!-- Node1&#45;&gt;Node2 -->
<g id="edge1" class="edge">
<title>Node1&#45;&gt;Node2</title>
<path fill="none" stroke="midnightblue" d="M121.97,-106.62C107.53,-96.76 88.86,-83.99 76.66,-75.65"/>
<polygon fill="midnightblue" stroke="midnightblue" points="120.08,-109.57 130.31,-112.32 124.03,-103.79 120.08,-109.57"/>
</g>
<!-- Node3 -->
<g id="node3" class="node">
<title>Node3</title>
<g id="a_node3"><a xlink:href="TreeCreator_8h.html" target="_top" xlink:title="Defines the TreeCreator class for creating Tree objects.">
<polygon fill="white" stroke="black" points="146,-56.5 146,-75.5 298,-75.5 298,-56.5 146,-56.5"/>
<text text-anchor="middle" x="222" y="-63.5" font-family="Helvetica,sans-Serif" font-size="10.00">backend/plant/TreeCreator.h</text>
</a>
</g>
</g>
<!-- Node1&#45;&gt;Node3 -->
<g id="edge2" class="edge">
<title>Node1&#45;&gt;Node3</title>
<path fill="none" stroke="midnightblue" d="M164.03,-106.62C178.47,-96.76 197.14,-83.99 209.34,-75.65"/>
<polygon fill="midnightblue" stroke="midnightblue" points="161.97,-103.79 155.69,-112.32 165.92,-109.57 161.97,-103.79"/>
</g>
<!-- Node4 -->
<g id="node4" class="node">
<title>Node4</title>
<g id="a_node4"><a xlink:href="TreeCreator_8cpp.html" target="_top" xlink:title="Implements the functionality defined in the TreeCreator class.">
<polygon fill="white" stroke="black" points="140,-0.5 140,-19.5 304,-19.5 304,-0.5 140,-0.5"/>
<text text-anchor="middle" x="222" y="-7.5" font-family="Helvetica,sans-Serif" font-size="10.00">backend/plant/TreeCreator.cpp</text>
</a>
</g>
</g>
<!-- Node3&#45;&gt;Node4 -->
<g id="edge3" class="edge">
<title>Node3&#45;&gt;Node4</title>
<path fill="none" stroke="midnightblue" d="M222,-45.8C222,-36.91 222,-26.78 222,-19.75"/>
<polygon fill="midnightblue" stroke="midnightblue" points="218.5,-46.08 222,-56.08 225.5,-46.08 218.5,-46.08"/>
</g>
</g>
</svg>
