<?xml version="1.0" encoding="UTF-8" standalone="no"?>
<!DOCTYPE svg PUBLIC "-//W3C//DTD SVG 1.1//EN"
 "http://www.w3.org/Graphics/SVG/1.1/DTD/svg11.dtd">
<!-- Generated by graphviz version 2.43.0 (0)
 -->
<!-- Title: backend/plant/Tree.cpp Pages: 1 -->
<!--zoomable 263 -->
<svg id="main" version="1.1" xmlns="http://www.w3.org/2000/svg" xmlns:xlink="http://www.w3.org/1999/xlink" xml:space="preserve" onload="init(evt)">
<style type="text/css"><![CDATA[
.edge:hover path { stroke: red; }
.edge:hover polygon { stroke: red; fill: red; }
]]></style>
<script type="text/javascript"><![CDATA[
var edges = document.getElementsByTagName('g');
if (edges && edges.length) {
  for (var i=0;i<edges.length;i++) {
    if (edges[i].id.substr(0,4)=='edge') {
      edges[i].setAttribute('class','edge');
    }
  }
}
]]></script>
        <defs>
                <circle id="rim" cx="0" cy="0" r="7"/>
                <circle id="rim2" cx="0" cy="0" r="3.5"/>
                <g id="zoomPlus">
                        <use xlink:href="#rim" fill="#404040">
                                <set attributeName="fill" to="#808080" begin="zoomplus.mouseover" end="zoomplus.mouseout"/>
                        </use>
                        <path d="M-4,0h8M0,-4v8" fill="none" stroke="white" stroke-width="1.5" pointer-events="none"/>
                </g>
                <g id="zoomMin">
                        <use xlink:href="#rim" fill="#404040">
                                <set attributeName="fill" to="#808080" begin="zoomminus.mouseover" end="zoomminus.mouseout"/>
                        </use>
                        <path d="M-4,0h8" fill="none" stroke="white" stroke-width="1.5" pointer-events="none"/>
                </g>
                <g id="dirArrow">
                        <path fill="none" stroke="white" stroke-width="1.5" d="M0,-3.0v7 M-2.5,-0.5L0,-3.0L2.5,-0.5"/>
                </g>
               <g id="resetDef">
                       <use xlink:href="#rim2" fill="#404040">
                               <set attributeName="fill" to="#808080" begin="reset.mouseover" end="reset.mouseout"/>
                       </use>
               </g>
        </defs>

<script type="text/javascript">
var viewWidth = 1714;
var viewHeight = 263;
var sectionId = 'dynsection-0';
</script>
<script xlink:href="svgpan.js"/>
<svg id="graph" class="graph">
<g id="viewport">
<title>backend/plant/Tree.cpp</title>
<polygon fill="white" stroke="transparent" points="-4,4 -4,-259 1709.5,-259 1709.5,4 -4,4"/>
<!-- Node1 -->
<g id="node1" class="node">
<title>Node1</title>
<g id="a_node1"><a xlink:title="Implements the functionality defined in the Tree class.">
<polygon fill="#bfbfbf" stroke="black" points="618,-235.5 618,-254.5 746,-254.5 746,-235.5 618,-235.5"/>
<text text-anchor="middle" x="682" y="-242.5" font-family="Helvetica,sans-Serif" font-size="10.00">backend/plant/Tree.cpp</text>
</a>
</g>
</g>
<!-- Node2 -->
<g id="node2" class="node">
<title>Node2</title>
<g id="a_node2"><a xlink:href="Tree_8h.html" target="_top" xlink:title="Defines the Tree subclass derived from the Plant base class.">
<polygon fill="white" stroke="black" points="887,-179.5 887,-198.5 933,-198.5 933,-179.5 887,-179.5"/>
<text text-anchor="middle" x="910" y="-186.5" font-family="Helvetica,sans-Serif" font-size="10.00">Tree.h</text>
</a>
</g>
</g>
<!-- Node1&#45;&gt;Node2 -->
<g id="edge1" class="edge">
<title>Node1&#45;&gt;Node2</title>
<path fill="none" stroke="midnightblue" d="M718.13,-235.44C761.86,-225.09 834.88,-207.79 877.11,-197.79"/>
<polygon fill="midnightblue" stroke="midnightblue" points="877.97,-201.18 886.89,-195.47 876.35,-194.37 877.97,-201.18"/>
</g>
<!-- Node23 -->
<g id="node23" class="node">
<title>Node23</title>
<g id="a_node23"><a xlink:href="PlantHealth_8h.html" target="_top" xlink:title="Health management system for plant lifecycle and care requirements.">
<polygon fill="white" stroke="black" points="212.5,-123.5 212.5,-142.5 295.5,-142.5 295.5,-123.5 212.5,-123.5"/>
<text text-anchor="middle" x="254" y="-130.5" font-family="Helvetica,sans-Serif" font-size="10.00">PlantHealth.h</text>
</a>
</g>
</g>
<!-- Node1&#45;&gt;Node23 -->
<g id="edge27" class="edge">
<title>Node1&#45;&gt;Node23</title>
<path fill="none" stroke="midnightblue" d="M648.77,-235.46C572.05,-215.74 382.61,-167.05 297.11,-145.08"/>
<polygon fill="midnightblue" stroke="midnightblue" points="297.76,-141.63 287.21,-142.53 296.02,-148.41 297.76,-141.63"/>
</g>
<!-- Node3 -->
<g id="node3" class="node">
<title>Node3</title>
<g id="a_node3"><a xlink:href="Plant_8h.html" target="_top" xlink:title="Defines the abstract base class for all Plant objects used in the system.">
<polygon fill="white" stroke="black" points="1114,-123.5 1114,-142.5 1164,-142.5 1164,-123.5 1114,-123.5"/>
<text text-anchor="middle" x="1139" y="-130.5" font-family="Helvetica,sans-Serif" font-size="10.00">Plant.h</text>
</a>
</g>
</g>
<!-- Node2&#45;&gt;Node3 -->
<g id="edge2" class="edge">
<title>Node2&#45;&gt;Node3</title>
<path fill="none" stroke="midnightblue" d="M933.22,-182.53C973.58,-173.01 1056.88,-153.36 1104.19,-142.21"/>
<polygon fill="midnightblue" stroke="midnightblue" points="1105.06,-145.6 1113.99,-139.9 1103.45,-138.79 1105.06,-145.6"/>
</g>
<!-- Node4 -->
<g id="node4" class="node">
<title>Node4</title>
<g id="a_node4"><a xlink:title=" ">
<polygon fill="white" stroke="#bfbfbf" points="1523,-6 1523,-25 1567,-25 1567,-6 1523,-6"/>
<text text-anchor="middle" x="1545" y="-13" font-family="Helvetica,sans-Serif" font-size="10.00">string</text>
</a>
</g>
</g>
<!-- Node3&#45;&gt;Node4 -->
<g id="edge3" class="edge">
<title>Node3&#45;&gt;Node4</title>
<path fill="none" stroke="midnightblue" d="M1164.08,-131.2C1250.01,-128.19 1528.77,-116.23 1555,-87 1567.74,-72.81 1561.5,-50.13 1554.52,-34.34"/>
<polygon fill="midnightblue" stroke="midnightblue" points="1557.56,-32.57 1550.03,-25.12 1551.26,-35.64 1557.56,-32.57"/>
</g>
<!-- Node5 -->
<g id="node5" class="node">
<title>Node5</title>
<g id="a_node5"><a xlink:title=" ">
<polygon fill="white" stroke="#bfbfbf" points="1602,-67.5 1602,-86.5 1640,-86.5 1640,-67.5 1602,-67.5"/>
<text text-anchor="middle" x="1621" y="-74.5" font-family="Helvetica,sans-Serif" font-size="10.00">map</text>
</a>
</g>
</g>
<!-- Node3&#45;&gt;Node5 -->
<g id="edge4" class="edge">
<title>Node3&#45;&gt;Node5</title>
<path fill="none" stroke="midnightblue" d="M1164.03,-130.95C1232.45,-127.78 1428.16,-116.59 1588,-87 1589.28,-86.76 1590.58,-86.5 1591.9,-86.22"/>
<polygon fill="midnightblue" stroke="midnightblue" points="1593.04,-89.54 1601.93,-83.78 1591.39,-82.74 1593.04,-89.54"/>
</g>
<!-- Node6 -->
<g id="node6" class="node">
<title>Node6</title>
<g id="a_node6"><a xlink:title=" ">
<polygon fill="white" stroke="#bfbfbf" points="1658.5,-67.5 1658.5,-86.5 1705.5,-86.5 1705.5,-67.5 1658.5,-67.5"/>
<text text-anchor="middle" x="1682" y="-74.5" font-family="Helvetica,sans-Serif" font-size="10.00">vector</text>
</a>
</g>
</g>
<!-- Node3&#45;&gt;Node6 -->
<g id="edge5" class="edge">
<title>Node3&#45;&gt;Node6</title>
<path fill="none" stroke="midnightblue" d="M1164.15,-131.37C1237.44,-129.18 1457.14,-120.28 1648.37,-86.77"/>
<polygon fill="midnightblue" stroke="midnightblue" points="1649.09,-90.2 1658.32,-85 1647.86,-83.31 1649.09,-90.2"/>
</g>
<!-- Node7 -->
<g id="node7" class="node">
<title>Node7</title>
<g id="a_node7"><a xlink:title=" ">
<polygon fill="white" stroke="#bfbfbf" points="498,-67.5 498,-86.5 562,-86.5 562,-67.5 498,-67.5"/>
<text text-anchor="middle" x="530" y="-74.5" font-family="Helvetica,sans-Serif" font-size="10.00">algorithm</text>
</a>
</g>
</g>
<!-- Node3&#45;&gt;Node7 -->
<g id="edge6" class="edge">
<title>Node3&#45;&gt;Node7</title>
<path fill="none" stroke="midnightblue" d="M1113.92,-131.01C1034.67,-127.67 782.67,-115.38 576,-87 574.73,-86.83 573.44,-86.64 572.14,-86.44"/>
<polygon fill="midnightblue" stroke="midnightblue" points="572.53,-82.96 562.09,-84.76 571.38,-89.86 572.53,-82.96"/>
</g>
<!-- Node8 -->
<g id="node8" class="node">
<title>Node8</title>
<g id="a_node8"><a xlink:title=" ">
<polygon fill="white" stroke="#bfbfbf" points="560,-6 560,-25 620,-25 620,-6 560,-6"/>
<text text-anchor="middle" x="590" y="-13" font-family="Helvetica,sans-Serif" font-size="10.00">iostream</text>
</a>
</g>
</g>
<!-- Node3&#45;&gt;Node8 -->
<g id="edge7" class="edge">
<title>Node3&#45;&gt;Node8</title>
<path fill="none" stroke="midnightblue" d="M1113.9,-131.52C1014.16,-129.37 649.24,-119.36 610,-87 594.85,-74.5 590.7,-51.44 589.79,-35.1"/>
<polygon fill="midnightblue" stroke="midnightblue" points="593.29,-35 589.58,-25.07 586.29,-35.14 593.29,-35"/>
</g>
<!-- Node9 -->
<g id="node9" class="node">
<title>Node9</title>
<g id="a_node9"><a xlink:title=" ">
<polygon fill="white" stroke="#bfbfbf" points="618.5,-67.5 618.5,-86.5 731.5,-86.5 731.5,-67.5 618.5,-67.5"/>
<text text-anchor="middle" x="675" y="-74.5" font-family="Helvetica,sans-Serif" font-size="10.00">boost/uuid/uuid.hpp</text>
</a>
</g>
</g>
<!-- Node3&#45;&gt;Node9 -->
<g id="edge8" class="edge">
<title>Node3&#45;&gt;Node9</title>
<path fill="none" stroke="midnightblue" d="M1113.83,-129.36C1052.33,-122.86 889.31,-105.36 741.67,-87.06"/>
<polygon fill="midnightblue" stroke="midnightblue" points="741.87,-83.55 731.51,-85.79 741.01,-90.5 741.87,-83.55"/>
</g>
<!-- Node10 -->
<g id="node10" class="node">
<title>Node10</title>
<g id="a_node10"><a xlink:title=" ">
<polygon fill="white" stroke="#bfbfbf" points="750,-67.5 750,-86.5 920,-86.5 920,-67.5 750,-67.5"/>
<text text-anchor="middle" x="835" y="-74.5" font-family="Helvetica,sans-Serif" font-size="10.00">boost/uuid/uuid_generators.hpp</text>
</a>
</g>
</g>
<!-- Node3&#45;&gt;Node10 -->
<g id="edge9" class="edge">
<title>Node3&#45;&gt;Node10</title>
<path fill="none" stroke="midnightblue" d="M1113.86,-127.54C1065.76,-118.99 959.56,-100.13 892.99,-88.3"/>
<polygon fill="midnightblue" stroke="midnightblue" points="893.52,-84.84 883.06,-86.54 892.29,-91.73 893.52,-84.84"/>
</g>
<!-- Node11 -->
<g id="node11" class="node">
<title>Node11</title>
<g id="a_node11"><a xlink:title=" ">
<polygon fill="white" stroke="#bfbfbf" points="938.5,-67.5 938.5,-86.5 1065.5,-86.5 1065.5,-67.5 938.5,-67.5"/>
<text text-anchor="middle" x="1002" y="-74.5" font-family="Helvetica,sans-Serif" font-size="10.00">boost/uuid/uuid_io.hpp</text>
</a>
</g>
</g>
<!-- Node3&#45;&gt;Node11 -->
<g id="edge10" class="edge">
<title>Node3&#45;&gt;Node11</title>
<path fill="none" stroke="midnightblue" d="M1117.29,-123.44C1094.65,-114.52 1058.93,-100.44 1033.25,-90.32"/>
<polygon fill="midnightblue" stroke="midnightblue" points="1034.19,-86.93 1023.61,-86.52 1031.63,-93.44 1034.19,-86.93"/>
</g>
<!-- Node12 -->
<g id="node12" class="node">
<title>Node12</title>
<g id="a_node12"><a xlink:title=" ">
<polygon fill="white" stroke="#bfbfbf" points="1084,-67.5 1084,-86.5 1194,-86.5 1194,-67.5 1084,-67.5"/>
<text text-anchor="middle" x="1139" y="-74.5" font-family="Helvetica,sans-Serif" font-size="10.00">nlohmann/json.hpp</text>
</a>
</g>
</g>
<!-- Node3&#45;&gt;Node12 -->
<g id="edge11" class="edge">
<title>Node3&#45;&gt;Node12</title>
<path fill="none" stroke="midnightblue" d="M1139,-123.08C1139,-116.01 1139,-105.86 1139,-96.99"/>
<polygon fill="midnightblue" stroke="midnightblue" points="1142.5,-96.75 1139,-86.75 1135.5,-96.75 1142.5,-96.75"/>
</g>
<!-- Node13 -->
<g id="node13" class="node">
<title>Node13</title>
<g id="a_node13"><a xlink:title=" ">
<polygon fill="white" stroke="#bfbfbf" points="1212,-67.5 1212,-86.5 1260,-86.5 1260,-67.5 1212,-67.5"/>
<text text-anchor="middle" x="1236" y="-74.5" font-family="Helvetica,sans-Serif" font-size="10.00">thread</text>
</a>
</g>
</g>
<!-- Node3&#45;&gt;Node13 -->
<g id="edge12" class="edge">
<title>Node3&#45;&gt;Node13</title>
<path fill="none" stroke="midnightblue" d="M1154.58,-123.32C1170,-114.74 1193.81,-101.49 1211.71,-91.52"/>
<polygon fill="midnightblue" stroke="midnightblue" points="1213.42,-94.58 1220.45,-86.65 1210.01,-88.46 1213.42,-94.58"/>
</g>
<!-- Node14 -->
<g id="node14" class="node">
<title>Node14</title>
<g id="a_node14"><a xlink:title=" ">
<polygon fill="white" stroke="#bfbfbf" points="1278,-67.5 1278,-86.5 1328,-86.5 1328,-67.5 1278,-67.5"/>
<text text-anchor="middle" x="1303" y="-74.5" font-family="Helvetica,sans-Serif" font-size="10.00">atomic</text>
</a>
</g>
</g>
<!-- Node3&#45;&gt;Node14 -->
<g id="edge13" class="edge">
<title>Node3&#45;&gt;Node14</title>
<path fill="none" stroke="midnightblue" d="M1164.27,-123.68C1192.16,-114.5 1237.22,-99.66 1268.38,-89.4"/>
<polygon fill="midnightblue" stroke="midnightblue" points="1269.57,-92.69 1277.97,-86.24 1267.38,-86.04 1269.57,-92.69"/>
</g>
<!-- Node15 -->
<g id="node15" class="node">
<title>Node15</title>
<g id="a_node15"><a xlink:href="GreenSock_8h.html" target="_top" xlink:title=" ">
<polygon fill="white" stroke="black" points="364,-67.5 364,-86.5 442,-86.5 442,-67.5 364,-67.5"/>
<text text-anchor="middle" x="403" y="-74.5" font-family="Helvetica,sans-Serif" font-size="10.00">GreenSock.h</text>
</a>
</g>
</g>
<!-- Node3&#45;&gt;Node15 -->
<g id="edge14" class="edge">
<title>Node3&#45;&gt;Node15</title>
<path fill="none" stroke="midnightblue" d="M1113.88,-130.58C1027.13,-125.61 732.13,-108.13 489,-87 477.2,-85.97 464.51,-84.73 452.59,-83.49"/>
<polygon fill="midnightblue" stroke="midnightblue" points="452.67,-79.98 442.36,-82.41 451.94,-86.94 452.67,-79.98"/>
</g>
<!-- Node18 -->
<g id="node18" class="node">
<title>Node18</title>
<g id="a_node18"><a xlink:title=" ">
<polygon fill="white" stroke="#bfbfbf" points="210,-6 210,-25 258,-25 258,-6 210,-6"/>
<text text-anchor="middle" x="234" y="-13" font-family="Helvetica,sans-Serif" font-size="10.00">mutex</text>
</a>
</g>
</g>
<!-- Node3&#45;&gt;Node18 -->
<g id="edge26" class="edge">
<title>Node3&#45;&gt;Node18</title>
<path fill="none" stroke="midnightblue" d="M1113.76,-132.13C996.19,-132.47 501.86,-131.22 355,-87 344.51,-83.84 288.83,-50.19 256.78,-30.55"/>
<polygon fill="midnightblue" stroke="midnightblue" points="258.4,-27.43 248.04,-25.18 254.73,-33.4 258.4,-27.43"/>
</g>
<!-- Node19 -->
<g id="node19" class="node">
<title>Node19</title>
<g id="a_node19"><a xlink:href="Logger_8h.html" target="_top" xlink:title="Header for Strategy Logger interface.">
<polygon fill="white" stroke="black" points="1488,-67.5 1488,-86.5 1546,-86.5 1546,-67.5 1488,-67.5"/>
<text text-anchor="middle" x="1517" y="-74.5" font-family="Helvetica,sans-Serif" font-size="10.00">Logger.h</text>
</a>
</g>
</g>
<!-- Node3&#45;&gt;Node19 -->
<g id="edge20" class="edge">
<title>Node3&#45;&gt;Node19</title>
<path fill="none" stroke="midnightblue" d="M1164.3,-129.53C1219.46,-123.97 1354.79,-109.31 1477.65,-87.09"/>
<polygon fill="midnightblue" stroke="midnightblue" points="1478.4,-90.52 1487.6,-85.27 1477.14,-83.63 1478.4,-90.52"/>
</g>
<!-- Node21 -->
<g id="node21" class="node">
<title>Node21</title>
<g id="a_node21"><a xlink:title=" ">
<polygon fill="white" stroke="#bfbfbf" points="1346.5,-67.5 1346.5,-86.5 1393.5,-86.5 1393.5,-67.5 1346.5,-67.5"/>
<text text-anchor="middle" x="1370" y="-74.5" font-family="Helvetica,sans-Serif" font-size="10.00">queue</text>
</a>
</g>
</g>
<!-- Node3&#45;&gt;Node21 -->
<g id="edge24" class="edge">
<title>Node3&#45;&gt;Node21</title>
<path fill="none" stroke="midnightblue" d="M1164.09,-126.66C1199.98,-118.94 1268.3,-103.96 1336.22,-87.11"/>
<polygon fill="midnightblue" stroke="midnightblue" points="1337.38,-90.43 1346.24,-84.61 1335.69,-83.64 1337.38,-90.43"/>
</g>
<!-- Node22 -->
<g id="node22" class="node">
<title>Node22</title>
<g id="a_node22"><a xlink:title=" ">
<polygon fill="white" stroke="#bfbfbf" points="1412,-67.5 1412,-86.5 1470,-86.5 1470,-67.5 1412,-67.5"/>
<text text-anchor="middle" x="1441" y="-74.5" font-family="Helvetica,sans-Serif" font-size="10.00">memory</text>
</a>
</g>
</g>
<!-- Node3&#45;&gt;Node22 -->
<g id="edge25" class="edge">
<title>Node3&#45;&gt;Node22</title>
<path fill="none" stroke="midnightblue" d="M1164.22,-128.25C1209.7,-121.37 1308.68,-105.86 1402.1,-87.08"/>
<polygon fill="midnightblue" stroke="midnightblue" points="1402.89,-90.49 1412,-85.07 1401.5,-83.63 1402.89,-90.49"/>
</g>
<!-- Node15&#45;&gt;Node4 -->
<g id="edge18" class="edge">
<title>Node15&#45;&gt;Node4</title>
<path fill="none" stroke="midnightblue" d="M442.34,-71.31C456.97,-69.71 473.72,-68.07 489,-67 716.36,-51.13 1292.42,-84.36 1514,-31 1515.99,-30.52 1518.01,-29.91 1520.01,-29.2"/>
<polygon fill="midnightblue" stroke="midnightblue" points="1521.81,-32.25 1529.68,-25.15 1519.1,-25.79 1521.81,-32.25"/>
</g>
<!-- Node15&#45;&gt;Node8 -->
<g id="edge17" class="edge">
<title>Node15&#45;&gt;Node8</title>
<path fill="none" stroke="midnightblue" d="M432.93,-67.48C462.95,-58.8 510.41,-44.7 551,-31 553.4,-30.19 555.86,-29.33 558.34,-28.45"/>
<polygon fill="midnightblue" stroke="midnightblue" points="559.6,-31.72 567.81,-25.02 557.22,-25.14 559.6,-31.72"/>
</g>
<!-- Node16 -->
<g id="node16" class="node">
<title>Node16</title>
<g id="a_node16"><a xlink:title=" ">
<polygon fill="white" stroke="#bfbfbf" points="276.5,-0.5 276.5,-30.5 389.5,-30.5 389.5,-0.5 276.5,-0.5"/>
<text text-anchor="start" x="284.5" y="-18.5" font-family="Helvetica,sans-Serif" font-size="10.00">websocketpp/config</text>
<text text-anchor="middle" x="333" y="-7.5" font-family="Helvetica,sans-Serif" font-size="10.00">/asio_no_tls.hpp</text>
</a>
</g>
</g>
<!-- Node15&#45;&gt;Node16 -->
<g id="edge15" class="edge">
<title>Node15&#45;&gt;Node16</title>
<path fill="none" stroke="midnightblue" d="M392.97,-67.48C383.67,-59.57 369.45,-47.48 357.2,-37.07"/>
<polygon fill="midnightblue" stroke="midnightblue" points="359.38,-34.33 349.5,-30.52 354.85,-39.67 359.38,-34.33"/>
</g>
<!-- Node17 -->
<g id="node17" class="node">
<title>Node17</title>
<g id="a_node17"><a xlink:title=" ">
<polygon fill="white" stroke="#bfbfbf" points="408,-6 408,-25 542,-25 542,-6 408,-6"/>
<text text-anchor="middle" x="475" y="-13" font-family="Helvetica,sans-Serif" font-size="10.00">websocketpp/server.hpp</text>
</a>
</g>
</g>
<!-- Node15&#45;&gt;Node17 -->
<g id="edge16" class="edge">
<title>Node15&#45;&gt;Node17</title>
<path fill="none" stroke="midnightblue" d="M413.32,-67.48C424.65,-58.11 443.07,-42.88 456.84,-31.51"/>
<polygon fill="midnightblue" stroke="midnightblue" points="459.22,-34.08 464.7,-25.01 454.77,-28.68 459.22,-34.08"/>
</g>
<!-- Node15&#45;&gt;Node18 -->
<g id="edge19" class="edge">
<title>Node15&#45;&gt;Node18</title>
<path fill="none" stroke="midnightblue" d="M374.59,-67.46C346.89,-58.93 303.68,-45.09 267,-31 265.39,-30.38 263.75,-29.73 262.1,-29.06"/>
<polygon fill="midnightblue" stroke="midnightblue" points="263.29,-25.76 252.72,-25.09 260.57,-32.21 263.29,-25.76"/>
</g>
<!-- Node19&#45;&gt;Node4 -->
<g id="edge21" class="edge">
<title>Node19&#45;&gt;Node4</title>
<path fill="none" stroke="midnightblue" d="M1521.01,-67.48C1525.09,-58.82 1531.52,-45.15 1536.7,-34.15"/>
<polygon fill="midnightblue" stroke="midnightblue" points="1539.9,-35.55 1541,-25.01 1533.57,-32.57 1539.9,-35.55"/>
</g>
<!-- Node19&#45;&gt;Node8 -->
<g id="edge22" class="edge">
<title>Node19&#45;&gt;Node8</title>
<path fill="none" stroke="midnightblue" d="M1487.64,-68.51C1484.73,-67.93 1481.82,-67.41 1479,-67 1154.22,-19.69 756.68,-16.12 630.46,-16.28"/>
<polygon fill="midnightblue" stroke="midnightblue" points="630.11,-12.78 620.12,-16.3 630.13,-19.78 630.11,-12.78"/>
</g>
<!-- Node20 -->
<g id="node20" class="node">
<title>Node20</title>
<g id="a_node20"><a xlink:title=" ">
<polygon fill="white" stroke="#bfbfbf" points="1439.5,-6 1439.5,-25 1504.5,-25 1504.5,-6 1439.5,-6"/>
<text text-anchor="middle" x="1472" y="-13" font-family="Helvetica,sans-Serif" font-size="10.00">stdexcept</text>
</a>
</g>
</g>
<!-- Node19&#45;&gt;Node20 -->
<g id="edge23" class="edge">
<title>Node19&#45;&gt;Node20</title>
<path fill="none" stroke="midnightblue" d="M1510.55,-67.48C1503.8,-58.55 1493.03,-44.31 1484.59,-33.14"/>
<polygon fill="midnightblue" stroke="midnightblue" points="1487.26,-30.87 1478.44,-25.01 1481.68,-35.1 1487.26,-30.87"/>
</g>
<!-- Node23&#45;&gt;Node8 -->
<g id="edge28" class="edge">
<title>Node23&#45;&gt;Node8</title>
<path fill="none" stroke="midnightblue" d="M295.65,-125.72C336.16,-118.87 399.02,-106.24 451,-87 468.9,-80.37 472.02,-75.71 489,-67 514.15,-54.1 543,-39.71 563.41,-29.6"/>
<polygon fill="midnightblue" stroke="midnightblue" points="565.01,-32.72 572.43,-25.15 561.91,-26.44 565.01,-32.72"/>
</g>
<!-- Node23&#45;&gt;Node15 -->
<g id="edge32" class="edge">
<title>Node23&#45;&gt;Node15</title>
<path fill="none" stroke="midnightblue" d="M277.61,-123.44C302.46,-114.44 341.77,-100.19 369.75,-90.05"/>
<polygon fill="midnightblue" stroke="midnightblue" points="371.29,-93.21 379.5,-86.52 368.91,-86.63 371.29,-93.21"/>
</g>
<!-- Node23&#45;&gt;Node18 -->
<g id="edge29" class="edge">
<title>Node23&#45;&gt;Node18</title>
<path fill="none" stroke="midnightblue" d="M252.17,-123.39C250.26,-114.35 247.26,-99.71 245,-87 241.88,-69.49 238.8,-49.44 236.7,-35.21"/>
<polygon fill="midnightblue" stroke="midnightblue" points="240.14,-34.59 235.24,-25.2 233.22,-35.6 240.14,-34.59"/>
</g>
<!-- Node24 -->
<g id="node24" class="node">
<title>Node24</title>
<g id="a_node24"><a xlink:title=" ">
<polygon fill="white" stroke="#bfbfbf" points="148,-67.5 148,-86.5 198,-86.5 198,-67.5 148,-67.5"/>
<text text-anchor="middle" x="173" y="-74.5" font-family="Helvetica,sans-Serif" font-size="10.00">chrono</text>
</a>
</g>
</g>
<!-- Node23&#45;&gt;Node24 -->
<g id="edge30" class="edge">
<title>Node23&#45;&gt;Node24</title>
<path fill="none" stroke="midnightblue" d="M240.99,-123.32C228.47,-114.98 209.32,-102.21 194.53,-92.35"/>
<polygon fill="midnightblue" stroke="midnightblue" points="196.24,-89.29 185.98,-86.65 192.36,-95.11 196.24,-89.29"/>
</g>
<!-- Node25 -->
<g id="node25" class="node">
<title>Node25</title>
<g id="a_node25"><a xlink:title=" ">
<polygon fill="white" stroke="#bfbfbf" points="254,-67.5 254,-86.5 308,-86.5 308,-67.5 254,-67.5"/>
<text text-anchor="middle" x="281" y="-74.5" font-family="Helvetica,sans-Serif" font-size="10.00">random</text>
</a>
</g>
</g>
<!-- Node23&#45;&gt;Node25 -->
<g id="edge31" class="edge">
<title>Node23&#45;&gt;Node25</title>
<path fill="none" stroke="midnightblue" d="M258.46,-123.08C262.15,-115.69 267.52,-104.95 272.09,-95.81"/>
<polygon fill="midnightblue" stroke="midnightblue" points="275.28,-97.26 276.62,-86.75 269.02,-94.13 275.28,-97.26"/>
</g>
<!-- Node26 -->
<g id="node26" class="node">
<title>Node26</title>
<g id="a_node26"><a xlink:title=" ">
<polygon fill="white" stroke="#bfbfbf" points="0,-67.5 0,-86.5 56,-86.5 56,-67.5 0,-67.5"/>
<text text-anchor="middle" x="28" y="-74.5" font-family="Helvetica,sans-Serif" font-size="10.00">sstream</text>
</a>
</g>
</g>
<!-- Node23&#45;&gt;Node26 -->
<g id="edge33" class="edge">
<title>Node23&#45;&gt;Node26</title>
<path fill="none" stroke="midnightblue" d="M217.75,-123.43C181.71,-114.89 124.55,-101.31 66.06,-87.25"/>
<polygon fill="midnightblue" stroke="midnightblue" points="66.82,-83.83 56.28,-84.89 65.18,-90.64 66.82,-83.83"/>
</g>
<!-- Node27 -->
<g id="node27" class="node">
<title>Node27</title>
<g id="a_node27"><a xlink:title=" ">
<polygon fill="white" stroke="#bfbfbf" points="74,-67.5 74,-86.5 130,-86.5 130,-67.5 74,-67.5"/>
<text text-anchor="middle" x="102" y="-74.5" font-family="Helvetica,sans-Serif" font-size="10.00">iomanip</text>
</a>
</g>
</g>
<!-- Node23&#45;&gt;Node27 -->
<g id="edge34" class="edge">
<title>Node23&#45;&gt;Node27</title>
<path fill="none" stroke="midnightblue" d="M229.92,-123.44C204.46,-114.4 164.11,-100.06 135.54,-89.92"/>
<polygon fill="midnightblue" stroke="midnightblue" points="136.57,-86.57 125.97,-86.52 134.22,-93.16 136.57,-86.57"/>
</g>
</g>
</svg>
        <g id="navigator" transform="translate(0 0)" fill="#404254">
                <rect fill="#f2f5e9" fill-opacity="0.5" stroke="#606060" stroke-width=".5" x="0" y="0" width="60" height="60"/>
                <use id="zoomplus" xlink:href="#zoomPlus" x="17" y="9" onmousedown="handleZoom(evt,'in')"/>
                <use id="zoomminus" xlink:href="#zoomMin" x="42" y="9" onmousedown="handleZoom(evt,'out')"/>
                <use id="reset" xlink:href="#resetDef" x="30" y="36" onmousedown="handleReset()"/>
                <g id="arrowUp" xlink:href="#dirArrow" transform="translate(30 24)" onmousedown="handlePan(0,-1)">
                  <use xlink:href="#rim" fill="#404040">
                        <set attributeName="fill" to="#808080" begin="arrowUp.mouseover" end="arrowUp.mouseout"/>
                  </use>
                  <path fill="none" stroke="white" stroke-width="1.5" d="M0,-3.0v7 M-2.5,-0.5L0,-3.0L2.5,-0.5"/>
                </g>
                <g id="arrowRight" xlink:href="#dirArrow" transform="rotate(90) translate(36 -43)" onmousedown="handlePan(1,0)">
                  <use xlink:href="#rim" fill="#404040">
                        <set attributeName="fill" to="#808080" begin="arrowRight.mouseover" end="arrowRight.mouseout"/>
                  </use>
                  <path fill="none" stroke="white" stroke-width="1.5" d="M0,-3.0v7 M-2.5,-0.5L0,-3.0L2.5,-0.5"/>
                </g>
                <g id="arrowDown" xlink:href="#dirArrow" transform="rotate(180) translate(-30 -48)" onmousedown="handlePan(0,1)">
                  <use xlink:href="#rim" fill="#404040">
                        <set attributeName="fill" to="#808080" begin="arrowDown.mouseover" end="arrowDown.mouseout"/>
                  </use>
                  <path fill="none" stroke="white" stroke-width="1.5" d="M0,-3.0v7 M-2.5,-0.5L0,-3.0L2.5,-0.5"/>
                </g>
                <g id="arrowLeft" xlink:href="#dirArrow" transform="rotate(270) translate(-36 17)" onmousedown="handlePan(-1,0)">
                  <use xlink:href="#rim" fill="#404040">
                        <set attributeName="fill" to="#808080" begin="arrowLeft.mouseover" end="arrowLeft.mouseout"/>
                  </use>
                  <path fill="none" stroke="white" stroke-width="1.5" d="M0,-3.0v7 M-2.5,-0.5L0,-3.0L2.5,-0.5"/>
                </g>
        </g>
        <svg viewBox="0 0 15 15" width="100%" height="30px" preserveAspectRatio="xMaxYMin meet">
         <g id="arrow_out" transform="scale(0.3 0.3)">
          <a xlink:href="Tree_8cpp__incl_org.svg" target="_base">
           <rect id="button" ry="5" rx="5" y="6" x="6" height="38" width="38"
                fill="#f2f5e9" fill-opacity="0.5" stroke="#606060" stroke-width="1.0"/>
           <path id="arrow"
             d="M 11.500037,31.436501 C 11.940474,20.09759 22.043105,11.32322 32.158766,21.979434 L 37.068811,17.246167 C 37.068811,17.246167 37.088388,32 37.088388,32 L 22.160133,31.978069 C 22.160133,31.978069 26.997745,27.140456 26.997745,27.140456 C 18.528582,18.264221 13.291696,25.230495 11.500037,31.436501 z"
             style="fill:#404040;"/>
          </a>
         </g>
        </svg>
</svg>
