<?xml version="1.0" encoding="UTF-8" standalone="no"?>
<!DOCTYPE svg PUBLIC "-//W3C//DTD SVG 1.1//EN"
 "http://www.w3.org/Graphics/SVG/1.1/DTD/svg11.dtd">
<!-- Generated by graphviz version 2.43.0 (0)
 -->
<!-- Title: backend/customer/VisitEasyCustomer.h Pages: 1 -->
<!--zoomable 442 -->
<svg id="main" version="1.1" xmlns="http://www.w3.org/2000/svg" xmlns:xlink="http://www.w3.org/1999/xlink" xml:space="preserve" onload="init(evt)">
<style type="text/css"><![CDATA[
.edge:hover path { stroke: red; }
.edge:hover polygon { stroke: red; fill: red; }
]]></style>
<script type="text/javascript"><![CDATA[
var edges = document.getElementsByTagName('g');
if (edges && edges.length) {
  for (var i=0;i<edges.length;i++) {
    if (edges[i].id.substr(0,4)=='edge') {
      edges[i].setAttribute('class','edge');
    }
  }
}
]]></script>
        <defs>
                <circle id="rim" cx="0" cy="0" r="7"/>
                <circle id="rim2" cx="0" cy="0" r="3.5"/>
                <g id="zoomPlus">
                        <use xlink:href="#rim" fill="#404040">
                                <set attributeName="fill" to="#808080" begin="zoomplus.mouseover" end="zoomplus.mouseout"/>
                        </use>
                        <path d="M-4,0h8M0,-4v8" fill="none" stroke="white" stroke-width="1.5" pointer-events="none"/>
                </g>
                <g id="zoomMin">
                        <use xlink:href="#rim" fill="#404040">
                                <set attributeName="fill" to="#808080" begin="zoomminus.mouseover" end="zoomminus.mouseout"/>
                        </use>
                        <path d="M-4,0h8" fill="none" stroke="white" stroke-width="1.5" pointer-events="none"/>
                </g>
                <g id="dirArrow">
                        <path fill="none" stroke="white" stroke-width="1.5" d="M0,-3.0v7 M-2.5,-0.5L0,-3.0L2.5,-0.5"/>
                </g>
               <g id="resetDef">
                       <use xlink:href="#rim2" fill="#404040">
                               <set attributeName="fill" to="#808080" begin="reset.mouseover" end="reset.mouseout"/>
                       </use>
               </g>
        </defs>

<script type="text/javascript">
var viewWidth = 1620;
var viewHeight = 442;
var sectionId = 'dynsection-0';
</script>
<script xlink:href="svgpan.js"/>
<svg id="graph" class="graph">
<g id="viewport">
<title>backend/customer/VisitEasyCustomer.h</title>
<polygon fill="white" stroke="transparent" points="-4,4 -4,-438 1616,-438 1616,4 -4,4"/>
<!-- Node1 -->
<g id="node1" class="node">
<title>Node1</title>
<g id="a_node1"><a xlink:title="Visitor for creating plant recommendations for easy&#45;maintenance customers.">
<polygon fill="#bfbfbf" stroke="black" points="1237.5,-403.5 1237.5,-433.5 1391.5,-433.5 1391.5,-403.5 1237.5,-403.5"/>
<text text-anchor="start" x="1245.5" y="-421.5" font-family="Helvetica,sans-Serif" font-size="10.00">backend/customer/VisitEasy</text>
<text text-anchor="middle" x="1314.5" y="-410.5" font-family="Helvetica,sans-Serif" font-size="10.00">Customer.h</text>
</a>
</g>
</g>
<!-- Node2 -->
<g id="node2" class="node">
<title>Node2</title>
<g id="a_node2"><a xlink:href="CustomerVisitor_8h.html" target="_top" xlink:title="Abstract visitor class for plant recommendation strategies for different customer types.">
<polygon fill="white" stroke="black" points="1262.5,-347.5 1262.5,-366.5 1366.5,-366.5 1366.5,-347.5 1262.5,-347.5"/>
<text text-anchor="middle" x="1314.5" y="-354.5" font-family="Helvetica,sans-Serif" font-size="10.00">CustomerVisitor.h</text>
</a>
</g>
</g>
<!-- Node1&#45;&gt;Node2 -->
<g id="edge1" class="edge">
<title>Node1&#45;&gt;Node2</title>
<path fill="none" stroke="midnightblue" d="M1314.5,-403.4C1314.5,-395.47 1314.5,-385.46 1314.5,-376.86"/>
<polygon fill="midnightblue" stroke="midnightblue" points="1318,-376.66 1314.5,-366.66 1311,-376.66 1318,-376.66"/>
</g>
<!-- Node3 -->
<g id="node3" class="node">
<title>Node3</title>
<g id="a_node3"><a xlink:title=" ">
<polygon fill="white" stroke="#bfbfbf" points="1469,-67.5 1469,-86.5 1516,-86.5 1516,-67.5 1469,-67.5"/>
<text text-anchor="middle" x="1492.5" y="-74.5" font-family="Helvetica,sans-Serif" font-size="10.00">vector</text>
</a>
</g>
</g>
<!-- Node2&#45;&gt;Node3 -->
<g id="edge2" class="edge">
<title>Node2&#45;&gt;Node3</title>
<path fill="none" stroke="midnightblue" d="M1366.51,-351.95C1430.43,-343.8 1530.5,-319.33 1530.5,-246 1530.5,-246 1530.5,-246 1530.5,-188 1530.5,-153.81 1513.9,-116.76 1502.64,-95.57"/>
<polygon fill="midnightblue" stroke="midnightblue" points="1505.68,-93.83 1497.78,-86.77 1499.55,-97.22 1505.68,-93.83"/>
</g>
<!-- Node4 -->
<g id="node4" class="node">
<title>Node4</title>
<g id="a_node4"><a xlink:title=" ">
<polygon fill="white" stroke="#bfbfbf" points="60.5,-67.5 60.5,-86.5 124.5,-86.5 124.5,-67.5 60.5,-67.5"/>
<text text-anchor="middle" x="92.5" y="-74.5" font-family="Helvetica,sans-Serif" font-size="10.00">algorithm</text>
</a>
</g>
</g>
<!-- Node2&#45;&gt;Node4 -->
<g id="edge3" class="edge">
<title>Node2&#45;&gt;Node4</title>
<path fill="none" stroke="midnightblue" d="M1262.24,-354.16C1026.13,-345.53 70.5,-306.81 70.5,-246 70.5,-246 70.5,-246 70.5,-188 70.5,-155.33 79.95,-118.24 86.46,-96.55"/>
<polygon fill="midnightblue" stroke="midnightblue" points="89.89,-97.31 89.53,-86.72 83.21,-95.22 89.89,-97.31"/>
</g>
<!-- Node5 -->
<g id="node5" class="node">
<title>Node5</title>
<g id="a_node5"><a xlink:title=" ">
<polygon fill="white" stroke="#bfbfbf" points="1559,-291.5 1559,-310.5 1612,-310.5 1612,-291.5 1559,-291.5"/>
<text text-anchor="middle" x="1585.5" y="-298.5" font-family="Helvetica,sans-Serif" font-size="10.00">cstddef</text>
</a>
</g>
</g>
<!-- Node2&#45;&gt;Node5 -->
<g id="edge4" class="edge">
<title>Node2&#45;&gt;Node5</title>
<path fill="none" stroke="midnightblue" d="M1359.95,-347.43C1406.39,-338.59 1480.56,-324.27 1544.5,-311 1545.78,-310.73 1547.09,-310.46 1548.41,-310.18"/>
<polygon fill="midnightblue" stroke="midnightblue" points="1549.57,-313.51 1558.61,-307.99 1548.1,-306.67 1549.57,-313.51"/>
</g>
<!-- Node6 -->
<g id="node6" class="node">
<title>Node6</title>
<g id="a_node6"><a xlink:href="SalesFloor_8h.html" target="_top" xlink:title="Sales floor management for customer interactions and plant sales.">
<polygon fill="white" stroke="black" points="713.5,-291.5 713.5,-310.5 789.5,-310.5 789.5,-291.5 713.5,-291.5"/>
<text text-anchor="middle" x="751.5" y="-298.5" font-family="Helvetica,sans-Serif" font-size="10.00">SalesFloor.h</text>
</a>
</g>
</g>
<!-- Node2&#45;&gt;Node6 -->
<g id="edge5" class="edge">
<title>Node2&#45;&gt;Node6</title>
<path fill="none" stroke="midnightblue" d="M1262.29,-350.99C1153.73,-340.58 905.03,-316.73 799.87,-306.64"/>
<polygon fill="midnightblue" stroke="midnightblue" points="800.14,-303.15 789.85,-305.68 799.47,-310.12 800.14,-303.15"/>
</g>
<!-- Node8 -->
<g id="node8" class="node">
<title>Node8</title>
<g id="a_node8"><a xlink:href="Plant_8h.html" target="_top" xlink:title="Defines the abstract base class for all Plant objects used in the system.">
<polygon fill="white" stroke="black" points="815.5,-123.5 815.5,-142.5 865.5,-142.5 865.5,-123.5 815.5,-123.5"/>
<text text-anchor="middle" x="840.5" y="-130.5" font-family="Helvetica,sans-Serif" font-size="10.00">Plant.h</text>
</a>
</g>
</g>
<!-- Node2&#45;&gt;Node8 -->
<g id="edge49" class="edge">
<title>Node2&#45;&gt;Node8</title>
<path fill="none" stroke="midnightblue" d="M1296.21,-347.43C1223.55,-313.4 955.08,-187.66 867.98,-146.87"/>
<polygon fill="midnightblue" stroke="midnightblue" points="869.28,-143.61 858.74,-142.54 866.31,-149.95 869.28,-143.61"/>
</g>
<!-- Node6&#45;&gt;Node3 -->
<g id="edge46" class="edge">
<title>Node6&#45;&gt;Node3</title>
<path fill="none" stroke="midnightblue" d="M789.51,-298.76C918.37,-293.89 1336.73,-272.63 1445.5,-199 1479.45,-176.02 1488.88,-124.59 1491.5,-96.75"/>
<polygon fill="midnightblue" stroke="midnightblue" points="1494.99,-96.96 1492.24,-86.73 1488.01,-96.44 1494.99,-96.96"/>
</g>
<!-- Node7 -->
<g id="node7" class="node">
<title>Node7</title>
<g id="a_node7"><a xlink:href="Inventory_8h.html" target="_top" xlink:title="Inventory management for plants in greenhouse and sales floor.">
<polygon fill="white" stroke="black" points="1343,-179.5 1343,-198.5 1414,-198.5 1414,-179.5 1343,-179.5"/>
<text text-anchor="middle" x="1378.5" y="-186.5" font-family="Helvetica,sans-Serif" font-size="10.00">Inventory.h</text>
</a>
</g>
</g>
<!-- Node6&#45;&gt;Node7 -->
<g id="edge6" class="edge">
<title>Node6&#45;&gt;Node7</title>
<path fill="none" stroke="midnightblue" d="M789.78,-293.28C899.34,-274.06 1213.88,-218.88 1332.49,-198.07"/>
<polygon fill="midnightblue" stroke="midnightblue" points="1333.44,-201.46 1342.68,-196.28 1332.23,-194.56 1333.44,-201.46"/>
</g>
<!-- Node23 -->
<g id="node23" class="node">
<title>Node23</title>
<g id="a_node23"><a xlink:title=" ">
<polygon fill="white" stroke="#bfbfbf" points="0,-6 0,-25 65,-25 65,-6 0,-6"/>
<text text-anchor="middle" x="32.5" y="-13" font-family="Helvetica,sans-Serif" font-size="10.00">stdexcept</text>
</a>
</g>
</g>
<!-- Node6&#45;&gt;Node23 -->
<g id="edge48" class="edge">
<title>Node6&#45;&gt;Node23</title>
<path fill="none" stroke="midnightblue" d="M713.19,-297.56C591.82,-289.27 217.7,-259.31 114.5,-199 62.78,-168.77 56.13,-144.55 39.5,-87 34.6,-70.03 32.99,-49.91 32.53,-35.52"/>
<polygon fill="midnightblue" stroke="midnightblue" points="36.02,-35.32 32.36,-25.38 29.03,-35.43 36.02,-35.32"/>
</g>
<!-- Node26 -->
<g id="node26" class="node">
<title>Node26</title>
<g id="a_node26"><a xlink:href="TransactionHistory_8h.html" target="_top" xlink:title="Maintains history of financial transactions.">
<polygon fill="white" stroke="black" points="694,-235.5 694,-254.5 809,-254.5 809,-235.5 694,-235.5"/>
<text text-anchor="middle" x="751.5" y="-242.5" font-family="Helvetica,sans-Serif" font-size="10.00">TransactionHistory.h</text>
</a>
</g>
</g>
<!-- Node6&#45;&gt;Node26 -->
<g id="edge34" class="edge">
<title>Node6&#45;&gt;Node26</title>
<path fill="none" stroke="midnightblue" d="M751.5,-291.08C751.5,-284.01 751.5,-273.86 751.5,-264.99"/>
<polygon fill="midnightblue" stroke="midnightblue" points="755,-264.75 751.5,-254.75 748,-264.75 755,-264.75"/>
</g>
<!-- Node28 -->
<g id="node28" class="node">
<title>Node28</title>
<g id="a_node28"><a xlink:href="Ledger_8h.html" target="_top" xlink:title="Financial ledger for tracking game balance.">
<polygon fill="white" stroke="black" points="159.5,-179.5 159.5,-198.5 217.5,-198.5 217.5,-179.5 159.5,-179.5"/>
<text text-anchor="middle" x="188.5" y="-186.5" font-family="Helvetica,sans-Serif" font-size="10.00">Ledger.h</text>
</a>
</g>
</g>
<!-- Node6&#45;&gt;Node28 -->
<g id="edge45" class="edge">
<title>Node6&#45;&gt;Node28</title>
<path fill="none" stroke="midnightblue" d="M713.3,-292.78C627.22,-276.46 411.57,-235.33 231.5,-199 230.24,-198.75 228.96,-198.49 227.66,-198.22"/>
<polygon fill="midnightblue" stroke="midnightblue" points="228.13,-194.75 217.63,-196.16 226.72,-201.6 228.13,-194.75"/>
</g>
<!-- Node29 -->
<g id="node29" class="node">
<title>Node29</title>
<g id="a_node29"><a xlink:title=" ">
<polygon fill="white" stroke="#bfbfbf" points="621.5,-235.5 621.5,-254.5 675.5,-254.5 675.5,-235.5 621.5,-235.5"/>
<text text-anchor="middle" x="648.5" y="-242.5" font-family="Helvetica,sans-Serif" font-size="10.00">random</text>
</a>
</g>
</g>
<!-- Node6&#45;&gt;Node29 -->
<g id="edge47" class="edge">
<title>Node6&#45;&gt;Node29</title>
<path fill="none" stroke="midnightblue" d="M734.95,-291.32C718.51,-282.7 693.07,-269.36 674.03,-259.39"/>
<polygon fill="midnightblue" stroke="midnightblue" points="675.49,-256.2 665.01,-254.65 672.24,-262.4 675.49,-256.2"/>
</g>
<!-- Node7&#45;&gt;Node3 -->
<g id="edge32" class="edge">
<title>Node7&#45;&gt;Node3</title>
<path fill="none" stroke="midnightblue" d="M1386.27,-179.33C1397.78,-166.63 1420.18,-142.36 1440.5,-123 1451.3,-112.71 1463.96,-101.74 1474.07,-93.2"/>
<polygon fill="midnightblue" stroke="midnightblue" points="1476.45,-95.78 1481.88,-86.68 1471.96,-90.41 1476.45,-95.78"/>
</g>
<!-- Node7&#45;&gt;Node8 -->
<g id="edge7" class="edge">
<title>Node7&#45;&gt;Node8</title>
<path fill="none" stroke="midnightblue" d="M1342.78,-181.18C1337.99,-180.38 1333.13,-179.63 1328.5,-179 1159.67,-156.06 956.35,-141.47 875.82,-136.21"/>
<polygon fill="midnightblue" stroke="midnightblue" points="875.93,-132.71 865.73,-135.56 875.48,-139.69 875.93,-132.71"/>
</g>
<!-- Node9 -->
<g id="node9" class="node">
<title>Node9</title>
<g id="a_node9"><a xlink:title=" ">
<polygon fill="white" stroke="#bfbfbf" points="1342.5,-6 1342.5,-25 1386.5,-25 1386.5,-6 1342.5,-6"/>
<text text-anchor="middle" x="1364.5" y="-13" font-family="Helvetica,sans-Serif" font-size="10.00">string</text>
</a>
</g>
</g>
<!-- Node7&#45;&gt;Node9 -->
<g id="edge33" class="edge">
<title>Node7&#45;&gt;Node9</title>
<path fill="none" stroke="midnightblue" d="M1385.39,-179.29C1400.48,-159.11 1433.74,-107.76 1416.5,-67 1410.41,-52.59 1397.97,-40.27 1386.79,-31.4"/>
<polygon fill="midnightblue" stroke="midnightblue" points="1388.72,-28.48 1378.61,-25.32 1384.54,-34.09 1388.72,-28.48"/>
</g>
<!-- Node8&#45;&gt;Node3 -->
<g id="edge10" class="edge">
<title>Node8&#45;&gt;Node3</title>
<path fill="none" stroke="midnightblue" d="M865.66,-129.92C966.76,-121.54 1343.53,-90.34 1458.79,-80.79"/>
<polygon fill="midnightblue" stroke="midnightblue" points="1459.12,-84.28 1468.8,-79.96 1458.55,-77.3 1459.12,-84.28"/>
</g>
<!-- Node8&#45;&gt;Node4 -->
<g id="edge11" class="edge">
<title>Node8&#45;&gt;Node4</title>
<path fill="none" stroke="midnightblue" d="M815.31,-131.78C724.63,-130.71 406.3,-124.44 134.69,-86.95"/>
<polygon fill="midnightblue" stroke="midnightblue" points="135.03,-83.46 124.64,-85.54 134.06,-90.39 135.03,-83.46"/>
</g>
<!-- Node8&#45;&gt;Node9 -->
<g id="edge8" class="edge">
<title>Node8&#45;&gt;Node9</title>
<path fill="none" stroke="midnightblue" d="M865.6,-131.06C959.65,-127.33 1287.81,-112.59 1326.5,-87 1344.57,-75.04 1354.73,-51.51 1359.9,-34.94"/>
<polygon fill="midnightblue" stroke="midnightblue" points="1363.29,-35.81 1362.62,-25.24 1356.55,-33.92 1363.29,-35.81"/>
</g>
<!-- Node10 -->
<g id="node10" class="node">
<title>Node10</title>
<g id="a_node10"><a xlink:title=" ">
<polygon fill="white" stroke="#bfbfbf" points="940.5,-67.5 940.5,-86.5 978.5,-86.5 978.5,-67.5 940.5,-67.5"/>
<text text-anchor="middle" x="959.5" y="-74.5" font-family="Helvetica,sans-Serif" font-size="10.00">map</text>
</a>
</g>
</g>
<!-- Node8&#45;&gt;Node10 -->
<g id="edge9" class="edge">
<title>Node8&#45;&gt;Node10</title>
<path fill="none" stroke="midnightblue" d="M859.36,-123.44C878.77,-114.64 909.23,-100.81 931.46,-90.72"/>
<polygon fill="midnightblue" stroke="midnightblue" points="933.07,-93.84 940.73,-86.52 930.18,-87.46 933.07,-93.84"/>
</g>
<!-- Node11 -->
<g id="node11" class="node">
<title>Node11</title>
<g id="a_node11"><a xlink:title=" ">
<polygon fill="white" stroke="#bfbfbf" points="335.5,-6 335.5,-25 395.5,-25 395.5,-6 335.5,-6"/>
<text text-anchor="middle" x="365.5" y="-13" font-family="Helvetica,sans-Serif" font-size="10.00">iostream</text>
</a>
</g>
</g>
<!-- Node8&#45;&gt;Node11 -->
<g id="edge12" class="edge">
<title>Node8&#45;&gt;Node11</title>
<path fill="none" stroke="midnightblue" d="M815.32,-132.07C734.34,-131.88 481.95,-127.94 413.5,-87 393.51,-75.04 379.96,-51.15 372.48,-34.51"/>
<polygon fill="midnightblue" stroke="midnightblue" points="375.7,-33.14 368.61,-25.26 369.24,-35.84 375.7,-33.14"/>
</g>
<!-- Node12 -->
<g id="node12" class="node">
<title>Node12</title>
<g id="a_node12"><a xlink:title=" ">
<polygon fill="white" stroke="#bfbfbf" points="997,-67.5 997,-86.5 1110,-86.5 1110,-67.5 997,-67.5"/>
<text text-anchor="middle" x="1053.5" y="-74.5" font-family="Helvetica,sans-Serif" font-size="10.00">boost/uuid/uuid.hpp</text>
</a>
</g>
</g>
<!-- Node8&#45;&gt;Node12 -->
<g id="edge13" class="edge">
<title>Node8&#45;&gt;Node12</title>
<path fill="none" stroke="midnightblue" d="M865.77,-125.59C901.35,-116.57 966.7,-100.01 1010.13,-88.99"/>
<polygon fill="midnightblue" stroke="midnightblue" points="1011.03,-92.38 1019.86,-86.53 1009.31,-85.59 1011.03,-92.38"/>
</g>
<!-- Node13 -->
<g id="node13" class="node">
<title>Node13</title>
<g id="a_node13"><a xlink:title=" ">
<polygon fill="white" stroke="#bfbfbf" points="1128.5,-67.5 1128.5,-86.5 1298.5,-86.5 1298.5,-67.5 1128.5,-67.5"/>
<text text-anchor="middle" x="1213.5" y="-74.5" font-family="Helvetica,sans-Serif" font-size="10.00">boost/uuid/uuid_generators.hpp</text>
</a>
</g>
</g>
<!-- Node8&#45;&gt;Node13 -->
<g id="edge14" class="edge">
<title>Node8&#45;&gt;Node13</title>
<path fill="none" stroke="midnightblue" d="M865.55,-128.37C921.9,-120.22 1060.28,-100.18 1144.56,-87.98"/>
<polygon fill="midnightblue" stroke="midnightblue" points="1145.17,-91.43 1154.57,-86.53 1144.17,-84.5 1145.17,-91.43"/>
</g>
<!-- Node14 -->
<g id="node14" class="node">
<title>Node14</title>
<g id="a_node14"><a xlink:title=" ">
<polygon fill="white" stroke="#bfbfbf" points="423,-67.5 423,-86.5 550,-86.5 550,-67.5 423,-67.5"/>
<text text-anchor="middle" x="486.5" y="-74.5" font-family="Helvetica,sans-Serif" font-size="10.00">boost/uuid/uuid_io.hpp</text>
</a>
</g>
</g>
<!-- Node8&#45;&gt;Node14 -->
<g id="edge15" class="edge">
<title>Node8&#45;&gt;Node14</title>
<path fill="none" stroke="midnightblue" d="M815.32,-128.16C761.1,-119.89 631.74,-100.16 552.4,-88.05"/>
<polygon fill="midnightblue" stroke="midnightblue" points="552.92,-84.59 542.5,-86.54 551.86,-91.51 552.92,-84.59"/>
</g>
<!-- Node15 -->
<g id="node15" class="node">
<title>Node15</title>
<g id="a_node15"><a xlink:title=" ">
<polygon fill="white" stroke="#bfbfbf" points="142.5,-67.5 142.5,-86.5 252.5,-86.5 252.5,-67.5 142.5,-67.5"/>
<text text-anchor="middle" x="197.5" y="-74.5" font-family="Helvetica,sans-Serif" font-size="10.00">nlohmann/json.hpp</text>
</a>
</g>
</g>
<!-- Node8&#45;&gt;Node15 -->
<g id="edge16" class="edge">
<title>Node8&#45;&gt;Node15</title>
<path fill="none" stroke="midnightblue" d="M815.42,-129.96C738.38,-123.68 498.34,-104.04 299.5,-87 287.6,-85.98 274.92,-84.88 262.69,-83.8"/>
<polygon fill="midnightblue" stroke="midnightblue" points="262.82,-80.3 252.55,-82.91 262.2,-87.27 262.82,-80.3"/>
</g>
<!-- Node16 -->
<g id="node16" class="node">
<title>Node16</title>
<g id="a_node16"><a xlink:title=" ">
<polygon fill="white" stroke="#bfbfbf" points="568.5,-67.5 568.5,-86.5 616.5,-86.5 616.5,-67.5 568.5,-67.5"/>
<text text-anchor="middle" x="592.5" y="-74.5" font-family="Helvetica,sans-Serif" font-size="10.00">thread</text>
</a>
</g>
</g>
<!-- Node8&#45;&gt;Node16 -->
<g id="edge17" class="edge">
<title>Node8&#45;&gt;Node16</title>
<path fill="none" stroke="midnightblue" d="M815.23,-127.22C776.67,-119.82 700.62,-104.79 626.57,-87.15"/>
<polygon fill="midnightblue" stroke="midnightblue" points="627.15,-83.69 616.61,-84.75 625.51,-90.49 627.15,-83.69"/>
</g>
<!-- Node17 -->
<g id="node17" class="node">
<title>Node17</title>
<g id="a_node17"><a xlink:title=" ">
<polygon fill="white" stroke="#bfbfbf" points="634.5,-67.5 634.5,-86.5 684.5,-86.5 684.5,-67.5 634.5,-67.5"/>
<text text-anchor="middle" x="659.5" y="-74.5" font-family="Helvetica,sans-Serif" font-size="10.00">atomic</text>
</a>
</g>
</g>
<!-- Node8&#45;&gt;Node17 -->
<g id="edge18" class="edge">
<title>Node8&#45;&gt;Node17</title>
<path fill="none" stroke="midnightblue" d="M815.33,-124.49C783.95,-115.13 730.12,-99.07 694.67,-88.49"/>
<polygon fill="midnightblue" stroke="midnightblue" points="695.33,-85.04 684.74,-85.53 693.33,-91.74 695.33,-85.04"/>
</g>
<!-- Node18 -->
<g id="node18" class="node">
<title>Node18</title>
<g id="a_node18"><a xlink:href="GreenSock_8h.html" target="_top" xlink:title=" ">
<polygon fill="white" stroke="black" points="844.5,-67.5 844.5,-86.5 922.5,-86.5 922.5,-67.5 844.5,-67.5"/>
<text text-anchor="middle" x="883.5" y="-74.5" font-family="Helvetica,sans-Serif" font-size="10.00">GreenSock.h</text>
</a>
</g>
</g>
<!-- Node8&#45;&gt;Node18 -->
<g id="edge19" class="edge">
<title>Node8&#45;&gt;Node18</title>
<path fill="none" stroke="midnightblue" d="M847.6,-123.08C853.74,-115.38 862.77,-104.03 870.24,-94.65"/>
<polygon fill="midnightblue" stroke="midnightblue" points="873.04,-96.75 876.53,-86.75 867.56,-92.39 873.04,-96.75"/>
</g>
<!-- Node21 -->
<g id="node21" class="node">
<title>Node21</title>
<g id="a_node21"><a xlink:title=" ">
<polygon fill="white" stroke="#bfbfbf" points="1117.5,-6 1117.5,-25 1165.5,-25 1165.5,-6 1117.5,-6"/>
<text text-anchor="middle" x="1141.5" y="-13" font-family="Helvetica,sans-Serif" font-size="10.00">mutex</text>
</a>
</g>
</g>
<!-- Node8&#45;&gt;Node21 -->
<g id="edge31" class="edge">
<title>Node8&#45;&gt;Node21</title>
<path fill="none" stroke="midnightblue" d="M865.7,-131.51C958.53,-129.43 1277.59,-119.94 1307.5,-87 1347.71,-42.72 1235.48,-25.27 1175.92,-19.26"/>
<polygon fill="midnightblue" stroke="midnightblue" points="1176.09,-15.76 1165.81,-18.3 1175.43,-22.73 1176.09,-15.76"/>
</g>
<!-- Node22 -->
<g id="node22" class="node">
<title>Node22</title>
<g id="a_node22"><a xlink:href="Logger_8h.html" target="_top" xlink:title="Header for Strategy Logger interface.">
<polygon fill="white" stroke="black" points="308.5,-67.5 308.5,-86.5 366.5,-86.5 366.5,-67.5 308.5,-67.5"/>
<text text-anchor="middle" x="337.5" y="-74.5" font-family="Helvetica,sans-Serif" font-size="10.00">Logger.h</text>
</a>
</g>
</g>
<!-- Node8&#45;&gt;Node22 -->
<g id="edge25" class="edge">
<title>Node8&#45;&gt;Node22</title>
<path fill="none" stroke="midnightblue" d="M815.45,-130.51C746.04,-126.18 545.48,-112.26 380.5,-87 379.23,-86.81 377.94,-86.6 376.63,-86.38"/>
<polygon fill="midnightblue" stroke="midnightblue" points="377.03,-82.89 366.57,-84.53 375.77,-89.78 377.03,-82.89"/>
</g>
<!-- Node24 -->
<g id="node24" class="node">
<title>Node24</title>
<g id="a_node24"><a xlink:title=" ">
<polygon fill="white" stroke="#bfbfbf" points="703,-67.5 703,-86.5 750,-86.5 750,-67.5 703,-67.5"/>
<text text-anchor="middle" x="726.5" y="-74.5" font-family="Helvetica,sans-Serif" font-size="10.00">queue</text>
</a>
</g>
</g>
<!-- Node8&#45;&gt;Node24 -->
<g id="edge29" class="edge">
<title>Node8&#45;&gt;Node24</title>
<path fill="none" stroke="midnightblue" d="M822.44,-123.44C803.93,-114.68 774.92,-100.94 753.64,-90.86"/>
<polygon fill="midnightblue" stroke="midnightblue" points="755.01,-87.63 744.48,-86.52 752.02,-93.96 755.01,-87.63"/>
</g>
<!-- Node25 -->
<g id="node25" class="node">
<title>Node25</title>
<g id="a_node25"><a xlink:title=" ">
<polygon fill="white" stroke="#bfbfbf" points="768.5,-67.5 768.5,-86.5 826.5,-86.5 826.5,-67.5 768.5,-67.5"/>
<text text-anchor="middle" x="797.5" y="-74.5" font-family="Helvetica,sans-Serif" font-size="10.00">memory</text>
</a>
</g>
</g>
<!-- Node8&#45;&gt;Node25 -->
<g id="edge30" class="edge">
<title>Node8&#45;&gt;Node25</title>
<path fill="none" stroke="midnightblue" d="M833.4,-123.08C827.26,-115.38 818.23,-104.03 810.76,-94.65"/>
<polygon fill="midnightblue" stroke="midnightblue" points="813.44,-92.39 804.47,-86.75 807.96,-96.75 813.44,-92.39"/>
</g>
<!-- Node18&#45;&gt;Node9 -->
<g id="edge23" class="edge">
<title>Node18&#45;&gt;Node9</title>
<path fill="none" stroke="midnightblue" d="M922.76,-68.41C925.71,-67.91 928.65,-67.43 931.5,-67 1080.6,-44.35 1259.94,-26.37 1332.1,-19.5"/>
<polygon fill="midnightblue" stroke="midnightblue" points="1332.72,-22.96 1342.35,-18.54 1332.06,-15.99 1332.72,-22.96"/>
</g>
<!-- Node18&#45;&gt;Node11 -->
<g id="edge22" class="edge">
<title>Node18&#45;&gt;Node11</title>
<path fill="none" stroke="midnightblue" d="M844.25,-68.38C841.29,-67.89 838.35,-67.42 835.5,-67 677.18,-43.69 487.36,-26.59 405.88,-19.77"/>
<polygon fill="midnightblue" stroke="midnightblue" points="405.83,-16.25 395.57,-18.91 405.25,-23.22 405.83,-16.25"/>
</g>
<!-- Node19 -->
<g id="node19" class="node">
<title>Node19</title>
<g id="a_node19"><a xlink:title=" ">
<polygon fill="white" stroke="#bfbfbf" points="898,-0.5 898,-30.5 1011,-30.5 1011,-0.5 898,-0.5"/>
<text text-anchor="start" x="906" y="-18.5" font-family="Helvetica,sans-Serif" font-size="10.00">websocketpp/config</text>
<text text-anchor="middle" x="954.5" y="-7.5" font-family="Helvetica,sans-Serif" font-size="10.00">/asio_no_tls.hpp</text>
</a>
</g>
</g>
<!-- Node18&#45;&gt;Node19 -->
<g id="edge20" class="edge">
<title>Node18&#45;&gt;Node19</title>
<path fill="none" stroke="midnightblue" d="M893.67,-67.48C903.11,-59.57 917.53,-47.48 929.96,-37.07"/>
<polygon fill="midnightblue" stroke="midnightblue" points="932.35,-39.63 937.77,-30.52 927.85,-34.26 932.35,-39.63"/>
</g>
<!-- Node20 -->
<g id="node20" class="node">
<title>Node20</title>
<g id="a_node20"><a xlink:title=" ">
<polygon fill="white" stroke="#bfbfbf" points="745.5,-6 745.5,-25 879.5,-25 879.5,-6 745.5,-6"/>
<text text-anchor="middle" x="812.5" y="-13" font-family="Helvetica,sans-Serif" font-size="10.00">websocketpp/server.hpp</text>
</a>
</g>
</g>
<!-- Node18&#45;&gt;Node20 -->
<g id="edge21" class="edge">
<title>Node18&#45;&gt;Node20</title>
<path fill="none" stroke="midnightblue" d="M873.33,-67.48C862.15,-58.11 843.98,-42.88 830.41,-31.51"/>
<polygon fill="midnightblue" stroke="midnightblue" points="832.57,-28.75 822.65,-25.01 828.07,-34.11 832.57,-28.75"/>
</g>
<!-- Node18&#45;&gt;Node21 -->
<g id="edge24" class="edge">
<title>Node18&#45;&gt;Node21</title>
<path fill="none" stroke="midnightblue" d="M920.47,-67.48C970.44,-55.95 1058.87,-35.56 1107.35,-24.37"/>
<polygon fill="midnightblue" stroke="midnightblue" points="1108.39,-27.73 1117.35,-22.07 1106.82,-20.91 1108.39,-27.73"/>
</g>
<!-- Node22&#45;&gt;Node9 -->
<g id="edge26" class="edge">
<title>Node22&#45;&gt;Node9</title>
<path fill="none" stroke="midnightblue" d="M366.68,-72.06C380.8,-70.27 398.01,-68.28 413.5,-67 750.95,-39.07 836.54,-51.88 1174.5,-31 1229.8,-27.58 1294.06,-22.43 1331.89,-19.28"/>
<polygon fill="midnightblue" stroke="midnightblue" points="1332.61,-22.73 1342.28,-18.4 1332.03,-15.75 1332.61,-22.73"/>
</g>
<!-- Node22&#45;&gt;Node11 -->
<g id="edge27" class="edge">
<title>Node22&#45;&gt;Node11</title>
<path fill="none" stroke="midnightblue" d="M341.51,-67.48C345.59,-58.82 352.02,-45.15 357.2,-34.15"/>
<polygon fill="midnightblue" stroke="midnightblue" points="360.4,-35.55 361.5,-25.01 354.07,-32.57 360.4,-35.55"/>
</g>
<!-- Node22&#45;&gt;Node23 -->
<g id="edge28" class="edge">
<title>Node22&#45;&gt;Node23</title>
<path fill="none" stroke="midnightblue" d="M308.26,-70.29C254.16,-59.74 138.27,-37.13 75.32,-24.85"/>
<polygon fill="midnightblue" stroke="midnightblue" points="75.8,-21.38 65.32,-22.9 74.46,-28.25 75.8,-21.38"/>
</g>
<!-- Node26&#45;&gt;Node3 -->
<g id="edge42" class="edge">
<title>Node26&#45;&gt;Node3</title>
<path fill="none" stroke="midnightblue" d="M809.09,-243.21C962.18,-240.69 1371.08,-231 1422.5,-199 1441.95,-186.9 1470.77,-126.87 1484.57,-96.16"/>
<polygon fill="midnightblue" stroke="midnightblue" points="1487.93,-97.21 1488.79,-86.65 1481.53,-94.37 1487.93,-97.21"/>
</g>
<!-- Node26&#45;&gt;Node7 -->
<g id="edge40" class="edge">
<title>Node26&#45;&gt;Node7</title>
<path fill="none" stroke="midnightblue" d="M809.08,-239.04C932.53,-228.41 1220.52,-203.61 1332.66,-193.95"/>
<polygon fill="midnightblue" stroke="midnightblue" points="1332.98,-197.43 1342.64,-193.09 1332.38,-190.46 1332.98,-197.43"/>
</g>
<!-- Node26&#45;&gt;Node11 -->
<g id="edge41" class="edge">
<title>Node26&#45;&gt;Node11</title>
<path fill="none" stroke="midnightblue" d="M707.69,-235.43C603.95,-214.17 348.37,-155.71 299.5,-87 284.08,-65.31 313.15,-43.42 337.47,-29.91"/>
<polygon fill="midnightblue" stroke="midnightblue" points="339.25,-32.93 346.46,-25.16 335.98,-26.74 339.25,-32.93"/>
</g>
<!-- Node26&#45;&gt;Node15 -->
<g id="edge44" class="edge">
<title>Node26&#45;&gt;Node15</title>
<path fill="none" stroke="midnightblue" d="M693.78,-236.07C690.64,-235.69 687.53,-235.34 684.5,-235 592.49,-224.84 347.92,-248.19 269.5,-199 231.83,-175.37 211.34,-124.21 202.63,-96.59"/>
<polygon fill="midnightblue" stroke="midnightblue" points="205.88,-95.24 199.69,-86.65 199.17,-97.23 205.88,-95.24"/>
</g>
<!-- Node26&#45;&gt;Node23 -->
<g id="edge43" class="edge">
<title>Node26&#45;&gt;Node23</title>
<path fill="none" stroke="midnightblue" d="M693.79,-236C690.65,-235.64 687.54,-235.31 684.5,-235 566.16,-223.08 257.22,-251.49 150.5,-199 90.88,-169.68 82.98,-145.51 51.5,-87 42.69,-70.63 37.74,-49.89 35.12,-35.15"/>
<polygon fill="midnightblue" stroke="midnightblue" points="38.57,-34.55 33.54,-25.22 31.65,-35.64 38.57,-34.55"/>
</g>
<!-- Node27 -->
<g id="node27" class="node">
<title>Node27</title>
<g id="a_node27"><a xlink:href="TransactionMem_8h.html" target="_top" xlink:title=" ">
<polygon fill="white" stroke="black" points="787.5,-179.5 787.5,-198.5 893.5,-198.5 893.5,-179.5 787.5,-179.5"/>
<text text-anchor="middle" x="840.5" y="-186.5" font-family="Helvetica,sans-Serif" font-size="10.00">TransactionMem.h</text>
</a>
</g>
</g>
<!-- Node26&#45;&gt;Node27 -->
<g id="edge35" class="edge">
<title>Node26&#45;&gt;Node27</title>
<path fill="none" stroke="midnightblue" d="M765.8,-235.32C779.68,-226.9 800.99,-213.97 817.3,-204.07"/>
<polygon fill="midnightblue" stroke="midnightblue" points="819.5,-206.83 826.24,-198.65 815.87,-200.85 819.5,-206.83"/>
</g>
<!-- Node26&#45;&gt;Node28 -->
<g id="edge38" class="edge">
<title>Node26&#45;&gt;Node28</title>
<path fill="none" stroke="midnightblue" d="M693.78,-236.04C690.64,-235.68 687.53,-235.32 684.5,-235 483.67,-213.55 431.41,-227.75 231.5,-199 230.23,-198.82 228.93,-198.62 227.63,-198.41"/>
<polygon fill="midnightblue" stroke="midnightblue" points="228.02,-194.92 217.56,-196.6 226.78,-201.81 228.02,-194.92"/>
</g>
<!-- Node27&#45;&gt;Node8 -->
<g id="edge36" class="edge">
<title>Node27&#45;&gt;Node8</title>
<path fill="none" stroke="midnightblue" d="M840.5,-179.08C840.5,-172.01 840.5,-161.86 840.5,-152.99"/>
<polygon fill="midnightblue" stroke="midnightblue" points="844,-152.75 840.5,-142.75 837,-152.75 844,-152.75"/>
</g>
<!-- Node27&#45;&gt;Node9 -->
<g id="edge37" class="edge">
<title>Node27&#45;&gt;Node9</title>
<path fill="none" stroke="midnightblue" d="M893.71,-184.7C1010.77,-176.32 1285.36,-150.26 1349.5,-87 1362.98,-73.71 1365.76,-51.5 1365.79,-35.57"/>
<polygon fill="midnightblue" stroke="midnightblue" points="1369.28,-35.16 1365.43,-25.28 1362.28,-35.4 1369.28,-35.16"/>
</g>
<!-- Node28&#45;&gt;Node15 -->
<g id="edge39" class="edge">
<title>Node28&#45;&gt;Node15</title>
<path fill="none" stroke="midnightblue" d="M189.21,-179.37C190.66,-161.62 194.01,-120.67 195.98,-96.6"/>
<polygon fill="midnightblue" stroke="midnightblue" points="199.47,-96.84 196.8,-86.59 192.49,-96.27 199.47,-96.84"/>
</g>
</g>
</svg>
        <g id="navigator" transform="translate(0 0)" fill="#404254">
                <rect fill="#f2f5e9" fill-opacity="0.5" stroke="#606060" stroke-width=".5" x="0" y="0" width="60" height="60"/>
                <use id="zoomplus" xlink:href="#zoomPlus" x="17" y="9" onmousedown="handleZoom(evt,'in')"/>
                <use id="zoomminus" xlink:href="#zoomMin" x="42" y="9" onmousedown="handleZoom(evt,'out')"/>
                <use id="reset" xlink:href="#resetDef" x="30" y="36" onmousedown="handleReset()"/>
                <g id="arrowUp" xlink:href="#dirArrow" transform="translate(30 24)" onmousedown="handlePan(0,-1)">
                  <use xlink:href="#rim" fill="#404040">
                        <set attributeName="fill" to="#808080" begin="arrowUp.mouseover" end="arrowUp.mouseout"/>
                  </use>
                  <path fill="none" stroke="white" stroke-width="1.5" d="M0,-3.0v7 M-2.5,-0.5L0,-3.0L2.5,-0.5"/>
                </g>
                <g id="arrowRight" xlink:href="#dirArrow" transform="rotate(90) translate(36 -43)" onmousedown="handlePan(1,0)">
                  <use xlink:href="#rim" fill="#404040">
                        <set attributeName="fill" to="#808080" begin="arrowRight.mouseover" end="arrowRight.mouseout"/>
                  </use>
                  <path fill="none" stroke="white" stroke-width="1.5" d="M0,-3.0v7 M-2.5,-0.5L0,-3.0L2.5,-0.5"/>
                </g>
                <g id="arrowDown" xlink:href="#dirArrow" transform="rotate(180) translate(-30 -48)" onmousedown="handlePan(0,1)">
                  <use xlink:href="#rim" fill="#404040">
                        <set attributeName="fill" to="#808080" begin="arrowDown.mouseover" end="arrowDown.mouseout"/>
                  </use>
                  <path fill="none" stroke="white" stroke-width="1.5" d="M0,-3.0v7 M-2.5,-0.5L0,-3.0L2.5,-0.5"/>
                </g>
                <g id="arrowLeft" xlink:href="#dirArrow" transform="rotate(270) translate(-36 17)" onmousedown="handlePan(-1,0)">
                  <use xlink:href="#rim" fill="#404040">
                        <set attributeName="fill" to="#808080" begin="arrowLeft.mouseover" end="arrowLeft.mouseout"/>
                  </use>
                  <path fill="none" stroke="white" stroke-width="1.5" d="M0,-3.0v7 M-2.5,-0.5L0,-3.0L2.5,-0.5"/>
                </g>
        </g>
        <svg viewBox="0 0 15 15" width="100%" height="30px" preserveAspectRatio="xMaxYMin meet">
         <g id="arrow_out" transform="scale(0.3 0.3)">
          <a xlink:href="VisitEasyCustomer_8h__incl_org.svg" target="_base">
           <rect id="button" ry="5" rx="5" y="6" x="6" height="38" width="38"
                fill="#f2f5e9" fill-opacity="0.5" stroke="#606060" stroke-width="1.0"/>
           <path id="arrow"
             d="M 11.500037,31.436501 C 11.940474,20.09759 22.043105,11.32322 32.158766,21.979434 L 37.068811,17.246167 C 37.068811,17.246167 37.088388,32 37.088388,32 L 22.160133,31.978069 C 22.160133,31.978069 26.997745,27.140456 26.997745,27.140456 C 18.528582,18.264221 13.291696,25.230495 11.500037,31.436501 z"
             style="fill:#404040;"/>
          </a>
         </g>
        </svg>
</svg>
