<?xml version="1.0" encoding="UTF-8" standalone="no"?>
<!DOCTYPE svg PUBLIC "-//W3C//DTD SVG 1.1//EN"
 "http://www.w3.org/Graphics/SVG/1.1/DTD/svg11.dtd">
<!-- Generated by graphviz version 2.43.0 (0)
 -->
<!-- Title: backend/customer/VisitHighCustomer.h Pages: 1 -->
<svg width="1570pt" height="442pt"
 viewBox="0.00 0.00 1570.00 442.00" xmlns="http://www.w3.org/2000/svg" xmlns:xlink="http://www.w3.org/1999/xlink">
<g id="graph0" class="graph" transform="scale(1 1) rotate(0) translate(4 438)">
<title>backend/customer/VisitHighCustomer.h</title>
<polygon fill="white" stroke="transparent" points="-4,4 -4,-438 1566,-438 1566,4 -4,4"/>
<!-- Node1 -->
<g id="node1" class="node">
<title>Node1</title>
<g id="a_node1"><a xlink:title="Visitor for creating plant recommendations for customers preferring challenging plants.">
<polygon fill="#bfbfbf" stroke="black" points="835,-403.5 835,-433.5 988,-433.5 988,-403.5 835,-403.5"/>
<text text-anchor="start" x="843" y="-421.5" font-family="Helvetica,sans-Serif" font-size="10.00">backend/customer/VisitHigh</text>
<text text-anchor="middle" x="911.5" y="-410.5" font-family="Helvetica,sans-Serif" font-size="10.00">Customer.h</text>
</a>
</g>
</g>
<!-- Node2 -->
<g id="node2" class="node">
<title>Node2</title>
<g id="a_node2"><a xlink:href="CustomerVisitor_8h_source.html" target="_top" xlink:title=" ">
<polygon fill="white" stroke="black" points="859.5,-347.5 859.5,-366.5 963.5,-366.5 963.5,-347.5 859.5,-347.5"/>
<text text-anchor="middle" x="911.5" y="-354.5" font-family="Helvetica,sans-Serif" font-size="10.00">CustomerVisitor.h</text>
</a>
</g>
</g>
<!-- Node1&#45;&gt;Node2 -->
<g id="edge1" class="edge">
<title>Node1&#45;&gt;Node2</title>
<path fill="none" stroke="midnightblue" d="M911.5,-403.4C911.5,-395.47 911.5,-385.46 911.5,-376.86"/>
<polygon fill="midnightblue" stroke="midnightblue" points="915,-376.66 911.5,-366.66 908,-376.66 915,-376.66"/>
</g>
<!-- Node3 -->
<g id="node3" class="node">
<title>Node3</title>
<g id="a_node3"><a xlink:title=" ">
<polygon fill="white" stroke="#bfbfbf" points="1515,-67.5 1515,-86.5 1562,-86.5 1562,-67.5 1515,-67.5"/>
<text text-anchor="middle" x="1538.5" y="-74.5" font-family="Helvetica,sans-Serif" font-size="10.00">vector</text>
</a>
</g>
</g>
<!-- Node2&#45;&gt;Node3 -->
<g id="edge2" class="edge">
<title>Node2&#45;&gt;Node3</title>
<path fill="none" stroke="midnightblue" d="M963.72,-352.14C1028.21,-344.21 1129.5,-319.97 1129.5,-246 1129.5,-246 1129.5,-246 1129.5,-188 1129.5,-18.18 1330.79,-127.96 1504.87,-86.99"/>
<polygon fill="midnightblue" stroke="midnightblue" points="1505.87,-90.34 1514.71,-84.5 1504.16,-83.56 1505.87,-90.34"/>
</g>
<!-- Node4 -->
<g id="node4" class="node">
<title>Node4</title>
<g id="a_node4"><a xlink:title=" ">
<polygon fill="white" stroke="#bfbfbf" points="136.5,-67.5 136.5,-86.5 200.5,-86.5 200.5,-67.5 136.5,-67.5"/>
<text text-anchor="middle" x="168.5" y="-74.5" font-family="Helvetica,sans-Serif" font-size="10.00">algorithm</text>
</a>
</g>
</g>
<!-- Node2&#45;&gt;Node4 -->
<g id="edge3" class="edge">
<title>Node2&#45;&gt;Node4</title>
<path fill="none" stroke="midnightblue" d="M859.21,-354.69C675.47,-349.4 70.5,-325.93 70.5,-246 70.5,-246 70.5,-246 70.5,-188 70.5,-144.38 113.99,-110.06 143.03,-92.01"/>
<polygon fill="midnightblue" stroke="midnightblue" points="145.08,-94.86 151.88,-86.73 141.5,-88.85 145.08,-94.86"/>
</g>
<!-- Node5 -->
<g id="node5" class="node">
<title>Node5</title>
<g id="a_node5"><a xlink:title=" ">
<polygon fill="white" stroke="#bfbfbf" points="1158,-291.5 1158,-310.5 1211,-310.5 1211,-291.5 1158,-291.5"/>
<text text-anchor="middle" x="1184.5" y="-298.5" font-family="Helvetica,sans-Serif" font-size="10.00">cstddef</text>
</a>
</g>
</g>
<!-- Node2&#45;&gt;Node5 -->
<g id="edge4" class="edge">
<title>Node2&#45;&gt;Node5</title>
<path fill="none" stroke="midnightblue" d="M957.35,-347.45C1004.19,-338.63 1079.01,-324.33 1143.5,-311 1144.78,-310.73 1146.09,-310.46 1147.41,-310.18"/>
<polygon fill="midnightblue" stroke="midnightblue" points="1148.57,-313.52 1157.61,-308 1147.1,-306.67 1148.57,-313.52"/>
</g>
<!-- Node6 -->
<g id="node6" class="node">
<title>Node6</title>
<g id="a_node6"><a xlink:href="SalesFloor_8h.html" target="_top" xlink:title=" ">
<polygon fill="white" stroke="black" points="873.5,-291.5 873.5,-310.5 949.5,-310.5 949.5,-291.5 873.5,-291.5"/>
<text text-anchor="middle" x="911.5" y="-298.5" font-family="Helvetica,sans-Serif" font-size="10.00">SalesFloor.h</text>
</a>
</g>
</g>
<!-- Node2&#45;&gt;Node6 -->
<g id="edge5" class="edge">
<title>Node2&#45;&gt;Node6</title>
<path fill="none" stroke="midnightblue" d="M911.5,-347.08C911.5,-340.01 911.5,-329.86 911.5,-320.99"/>
<polygon fill="midnightblue" stroke="midnightblue" points="915,-320.75 911.5,-310.75 908,-320.75 915,-320.75"/>
</g>
<!-- Node8 -->
<g id="node8" class="node">
<title>Node8</title>
<g id="a_node8"><a xlink:href="Plant_8h.html" target="_top" xlink:title="Defines the abstract base class for all Plant objects used in the system.">
<polygon fill="white" stroke="black" points="752.5,-123.5 752.5,-142.5 802.5,-142.5 802.5,-123.5 752.5,-123.5"/>
<text text-anchor="middle" x="777.5" y="-130.5" font-family="Helvetica,sans-Serif" font-size="10.00">Plant.h</text>
</a>
</g>
</g>
<!-- Node2&#45;&gt;Node8 -->
<g id="edge57" class="edge">
<title>Node2&#45;&gt;Node8</title>
<path fill="none" stroke="midnightblue" d="M882.39,-347.43C840.72,-333.87 763.79,-303.88 715.5,-255 690.2,-229.39 668.58,-209.62 687.5,-179 699.52,-159.55 722.78,-148.23 742.64,-141.8"/>
<polygon fill="midnightblue" stroke="midnightblue" points="743.73,-145.13 752.34,-138.95 741.76,-138.41 743.73,-145.13"/>
</g>
<!-- Node6&#45;&gt;Node3 -->
<g id="edge54" class="edge">
<title>Node6&#45;&gt;Node3</title>
<path fill="none" stroke="midnightblue" d="M923.52,-291.26C946.65,-274.27 998.67,-235.3 1039.5,-199 1075.2,-167.26 1072.25,-143.29 1115.5,-123 1270.16,-50.43 1331.91,-115.51 1504.89,-86.72"/>
<polygon fill="midnightblue" stroke="midnightblue" points="1505.57,-90.16 1514.82,-84.99 1504.37,-83.26 1505.57,-90.16"/>
</g>
<!-- Node7 -->
<g id="node7" class="node">
<title>Node7</title>
<g id="a_node7"><a xlink:href="Inventory_8h_source.html" target="_top" xlink:title=" ">
<polygon fill="white" stroke="black" points="859,-179.5 859,-198.5 930,-198.5 930,-179.5 859,-179.5"/>
<text text-anchor="middle" x="894.5" y="-186.5" font-family="Helvetica,sans-Serif" font-size="10.00">Inventory.h</text>
</a>
</g>
</g>
<!-- Node6&#45;&gt;Node7 -->
<g id="edge6" class="edge">
<title>Node6&#45;&gt;Node7</title>
<path fill="none" stroke="midnightblue" d="M914.81,-291.45C919.2,-278.9 925.81,-254.81 920.5,-235 917.85,-225.1 912.43,-215.13 907.23,-207.1"/>
<polygon fill="midnightblue" stroke="midnightblue" points="909.96,-204.91 901.39,-198.68 904.21,-208.89 909.96,-204.91"/>
</g>
<!-- Node23 -->
<g id="node23" class="node">
<title>Node23</title>
<g id="a_node23"><a xlink:title=" ">
<polygon fill="white" stroke="#bfbfbf" points="0,-6 0,-25 65,-25 65,-6 0,-6"/>
<text text-anchor="middle" x="32.5" y="-13" font-family="Helvetica,sans-Serif" font-size="10.00">stdexcept</text>
</a>
</g>
</g>
<!-- Node6&#45;&gt;Node23 -->
<g id="edge56" class="edge">
<title>Node6&#45;&gt;Node23</title>
<path fill="none" stroke="midnightblue" d="M873.48,-296.65C772.94,-287.24 492.23,-257.36 265.5,-199 194.97,-180.85 172,-183.55 111.5,-143 83.54,-124.26 78.34,-115.55 60.5,-87 50.27,-70.62 42.57,-49.88 37.86,-35.14"/>
<polygon fill="midnightblue" stroke="midnightblue" points="41.1,-33.77 34.85,-25.22 34.41,-35.8 41.1,-33.77"/>
</g>
<!-- Node28 -->
<g id="node28" class="node">
<title>Node28</title>
<g id="a_node28"><a xlink:href="TransactionHistory_8h.html" target="_top" xlink:title=" ">
<polygon fill="white" stroke="black" points="724,-235.5 724,-254.5 839,-254.5 839,-235.5 724,-235.5"/>
<text text-anchor="middle" x="781.5" y="-242.5" font-family="Helvetica,sans-Serif" font-size="10.00">TransactionHistory.h</text>
</a>
</g>
</g>
<!-- Node6&#45;&gt;Node28 -->
<g id="edge42" class="edge">
<title>Node6&#45;&gt;Node28</title>
<path fill="none" stroke="midnightblue" d="M890.9,-291.44C869.51,-282.56 835.82,-268.56 811.48,-258.45"/>
<polygon fill="midnightblue" stroke="midnightblue" points="812.58,-255.12 802,-254.52 809.89,-261.58 812.58,-255.12"/>
</g>
<!-- Node30 -->
<g id="node30" class="node">
<title>Node30</title>
<g id="a_node30"><a xlink:href="Ledger_8h_source.html" target="_top" xlink:title=" ">
<polygon fill="white" stroke="black" points="948.5,-179.5 948.5,-198.5 1006.5,-198.5 1006.5,-179.5 948.5,-179.5"/>
<text text-anchor="middle" x="977.5" y="-186.5" font-family="Helvetica,sans-Serif" font-size="10.00">Ledger.h</text>
</a>
</g>
</g>
<!-- Node6&#45;&gt;Node30 -->
<g id="edge53" class="edge">
<title>Node6&#45;&gt;Node30</title>
<path fill="none" stroke="midnightblue" d="M916.68,-291.37C927.52,-273.3 952.79,-231.18 967.12,-207.31"/>
<polygon fill="midnightblue" stroke="midnightblue" points="970.2,-208.97 972.35,-198.59 964.2,-205.37 970.2,-208.97"/>
</g>
<!-- Node31 -->
<g id="node31" class="node">
<title>Node31</title>
<g id="a_node31"><a xlink:title=" ">
<polygon fill="white" stroke="#bfbfbf" points="857.5,-235.5 857.5,-254.5 911.5,-254.5 911.5,-235.5 857.5,-235.5"/>
<text text-anchor="middle" x="884.5" y="-242.5" font-family="Helvetica,sans-Serif" font-size="10.00">random</text>
</a>
</g>
</g>
<!-- Node6&#45;&gt;Node31 -->
<g id="edge55" class="edge">
<title>Node6&#45;&gt;Node31</title>
<path fill="none" stroke="midnightblue" d="M907.04,-291.08C903.35,-283.69 897.98,-272.95 893.41,-263.81"/>
<polygon fill="midnightblue" stroke="midnightblue" points="896.48,-262.13 888.88,-254.75 890.22,-265.26 896.48,-262.13"/>
</g>
<!-- Node7&#45;&gt;Node3 -->
<g id="edge40" class="edge">
<title>Node7&#45;&gt;Node3</title>
<path fill="none" stroke="midnightblue" d="M909.12,-179.39C934.6,-164.85 989.24,-135.79 1039.5,-123 1237.66,-72.56 1298.92,-120.93 1504.91,-86.72"/>
<polygon fill="midnightblue" stroke="midnightblue" points="1505.56,-90.16 1514.83,-85.03 1504.38,-83.26 1505.56,-90.16"/>
</g>
<!-- Node7&#45;&gt;Node8 -->
<g id="edge7" class="edge">
<title>Node7&#45;&gt;Node8</title>
<path fill="none" stroke="midnightblue" d="M875.96,-179.44C856.88,-170.64 826.93,-156.81 805.06,-146.72"/>
<polygon fill="midnightblue" stroke="midnightblue" points="806.5,-143.53 795.95,-142.52 803.57,-149.88 806.5,-143.53"/>
</g>
<!-- Node9 -->
<g id="node9" class="node">
<title>Node9</title>
<g id="a_node9"><a xlink:title=" ">
<polygon fill="white" stroke="#bfbfbf" points="225.5,-6 225.5,-25 269.5,-25 269.5,-6 225.5,-6"/>
<text text-anchor="middle" x="247.5" y="-13" font-family="Helvetica,sans-Serif" font-size="10.00">string</text>
</a>
</g>
</g>
<!-- Node7&#45;&gt;Node9 -->
<g id="edge41" class="edge">
<title>Node7&#45;&gt;Node9</title>
<path fill="none" stroke="midnightblue" d="M858.92,-183.96C709.48,-166.9 139.81,-101.03 127.5,-87 98.61,-54.05 170.89,-32.4 215.49,-22.58"/>
<polygon fill="midnightblue" stroke="midnightblue" points="216.28,-25.99 225.34,-20.5 214.84,-19.14 216.28,-25.99"/>
</g>
<!-- Node8&#45;&gt;Node3 -->
<g id="edge10" class="edge">
<title>Node8&#45;&gt;Node3</title>
<path fill="none" stroke="midnightblue" d="M802.64,-130.75C918.5,-124.96 1399.46,-100.48 1504.85,-86.55"/>
<polygon fill="midnightblue" stroke="midnightblue" points="1505.46,-90 1514.84,-85.08 1504.43,-83.08 1505.46,-90"/>
</g>
<!-- Node8&#45;&gt;Node4 -->
<g id="edge11" class="edge">
<title>Node8&#45;&gt;Node4</title>
<path fill="none" stroke="midnightblue" d="M752.45,-131.24C673.97,-128.6 425.83,-118.31 210.86,-87"/>
<polygon fill="midnightblue" stroke="midnightblue" points="211.06,-83.49 200.65,-85.49 210.03,-90.42 211.06,-83.49"/>
</g>
<!-- Node8&#45;&gt;Node9 -->
<g id="edge8" class="edge">
<title>Node8&#45;&gt;Node9</title>
<path fill="none" stroke="midnightblue" d="M752.43,-130.74C674.07,-126.59 434.67,-112.13 361.5,-87 324.55,-74.31 287.04,-47.95 265.59,-31.3"/>
<polygon fill="midnightblue" stroke="midnightblue" points="267.7,-28.5 257.69,-25.03 263.35,-33.99 267.7,-28.5"/>
</g>
<!-- Node10 -->
<g id="node10" class="node">
<title>Node10</title>
<g id="a_node10"><a xlink:title=" ">
<polygon fill="white" stroke="#bfbfbf" points="370.5,-67.5 370.5,-86.5 408.5,-86.5 408.5,-67.5 370.5,-67.5"/>
<text text-anchor="middle" x="389.5" y="-74.5" font-family="Helvetica,sans-Serif" font-size="10.00">map</text>
</a>
</g>
</g>
<!-- Node8&#45;&gt;Node10 -->
<g id="edge9" class="edge">
<title>Node8&#45;&gt;Node10</title>
<path fill="none" stroke="midnightblue" d="M752.35,-130.48C694.8,-126.65 549.08,-115.02 418.8,-86.91"/>
<polygon fill="midnightblue" stroke="midnightblue" points="419.17,-83.4 408.65,-84.68 417.67,-90.24 419.17,-83.4"/>
</g>
<!-- Node11 -->
<g id="node11" class="node">
<title>Node11</title>
<g id="a_node11"><a xlink:title=" ">
<polygon fill="white" stroke="#bfbfbf" points="439.5,-6 439.5,-25 499.5,-25 499.5,-6 439.5,-6"/>
<text text-anchor="middle" x="469.5" y="-13" font-family="Helvetica,sans-Serif" font-size="10.00">iostream</text>
</a>
</g>
</g>
<!-- Node8&#45;&gt;Node11 -->
<g id="edge12" class="edge">
<title>Node8&#45;&gt;Node11</title>
<path fill="none" stroke="midnightblue" d="M759.03,-123.41C740,-114.5 709.53,-100.07 683.5,-87 666.45,-78.43 663.28,-73.93 645.5,-67 587.24,-44.29 569.17,-49.67 509.5,-31 506.94,-30.2 504.31,-29.34 501.67,-28.44"/>
<polygon fill="midnightblue" stroke="midnightblue" points="502.82,-25.14 492.23,-25.13 500.51,-31.74 502.82,-25.14"/>
</g>
<!-- Node12 -->
<g id="node12" class="node">
<title>Node12</title>
<g id="a_node12"><a xlink:title=" ">
<polygon fill="white" stroke="#bfbfbf" points="523,-67.5 523,-86.5 636,-86.5 636,-67.5 523,-67.5"/>
<text text-anchor="middle" x="579.5" y="-74.5" font-family="Helvetica,sans-Serif" font-size="10.00">boost/uuid/uuid.hpp</text>
</a>
</g>
</g>
<!-- Node8&#45;&gt;Node12 -->
<g id="edge13" class="edge">
<title>Node8&#45;&gt;Node12</title>
<path fill="none" stroke="midnightblue" d="M752.42,-125.16C719.23,-116.11 660.28,-100.03 620.55,-89.2"/>
<polygon fill="midnightblue" stroke="midnightblue" points="621.46,-85.82 610.89,-86.56 619.62,-92.57 621.46,-85.82"/>
</g>
<!-- Node13 -->
<g id="node13" class="node">
<title>Node13</title>
<g id="a_node13"><a xlink:title=" ">
<polygon fill="white" stroke="#bfbfbf" points="692.5,-67.5 692.5,-86.5 862.5,-86.5 862.5,-67.5 692.5,-67.5"/>
<text text-anchor="middle" x="777.5" y="-74.5" font-family="Helvetica,sans-Serif" font-size="10.00">boost/uuid/uuid_generators.hpp</text>
</a>
</g>
</g>
<!-- Node8&#45;&gt;Node13 -->
<g id="edge14" class="edge">
<title>Node8&#45;&gt;Node13</title>
<path fill="none" stroke="midnightblue" d="M777.5,-123.08C777.5,-116.01 777.5,-105.86 777.5,-96.99"/>
<polygon fill="midnightblue" stroke="midnightblue" points="781,-96.75 777.5,-86.75 774,-96.75 781,-96.75"/>
</g>
<!-- Node14 -->
<g id="node14" class="node">
<title>Node14</title>
<g id="a_node14"><a xlink:title=" ">
<polygon fill="white" stroke="#bfbfbf" points="881,-67.5 881,-86.5 1008,-86.5 1008,-67.5 881,-67.5"/>
<text text-anchor="middle" x="944.5" y="-74.5" font-family="Helvetica,sans-Serif" font-size="10.00">boost/uuid/uuid_io.hpp</text>
</a>
</g>
</g>
<!-- Node8&#45;&gt;Node14 -->
<g id="edge15" class="edge">
<title>Node8&#45;&gt;Node14</title>
<path fill="none" stroke="midnightblue" d="M802.5,-123.92C830.5,-114.86 876.13,-100.11 908.09,-89.77"/>
<polygon fill="midnightblue" stroke="midnightblue" points="909.51,-92.99 917.95,-86.59 907.35,-86.33 909.51,-92.99"/>
</g>
<!-- Node15 -->
<g id="node15" class="node">
<title>Node15</title>
<g id="a_node15"><a xlink:title=" ">
<polygon fill="white" stroke="#bfbfbf" points="1386.5,-67.5 1386.5,-86.5 1496.5,-86.5 1496.5,-67.5 1386.5,-67.5"/>
<text text-anchor="middle" x="1441.5" y="-74.5" font-family="Helvetica,sans-Serif" font-size="10.00">nlohmann/json.hpp</text>
</a>
</g>
</g>
<!-- Node8&#45;&gt;Node15 -->
<g id="edge16" class="edge">
<title>Node8&#45;&gt;Node15</title>
<path fill="none" stroke="midnightblue" d="M802.56,-125.59C807.17,-124.59 811.96,-123.67 816.5,-123 1061.5,-87.04 1126.04,-111.03 1372.5,-87 1373.61,-86.89 1374.73,-86.78 1375.86,-86.66"/>
<polygon fill="midnightblue" stroke="midnightblue" points="1376.61,-90.1 1386.17,-85.54 1375.85,-83.14 1376.61,-90.1"/>
</g>
<!-- Node16 -->
<g id="node16" class="node">
<title>Node16</title>
<g id="a_node16"><a xlink:title=" ">
<polygon fill="white" stroke="#bfbfbf" points="1281.5,-6 1281.5,-25 1329.5,-25 1329.5,-6 1281.5,-6"/>
<text text-anchor="middle" x="1305.5" y="-13" font-family="Helvetica,sans-Serif" font-size="10.00">thread</text>
</a>
</g>
</g>
<!-- Node8&#45;&gt;Node16 -->
<g id="edge17" class="edge">
<title>Node8&#45;&gt;Node16</title>
<path fill="none" stroke="midnightblue" d="M802.57,-125.63C807.18,-124.63 811.97,-123.69 816.5,-123 918.73,-107.33 1198.4,-149.9 1280.5,-87 1296.41,-74.81 1302.23,-51.68 1304.33,-35.25"/>
<polygon fill="midnightblue" stroke="midnightblue" points="1307.83,-35.43 1305.28,-25.15 1300.86,-34.78 1307.83,-35.43"/>
</g>
<!-- Node17 -->
<g id="node17" class="node">
<title>Node17</title>
<g id="a_node17"><a xlink:title=" ">
<polygon fill="white" stroke="#bfbfbf" points="1347.5,-6 1347.5,-25 1397.5,-25 1397.5,-6 1347.5,-6"/>
<text text-anchor="middle" x="1372.5" y="-13" font-family="Helvetica,sans-Serif" font-size="10.00">atomic</text>
</a>
</g>
</g>
<!-- Node8&#45;&gt;Node17 -->
<g id="edge18" class="edge">
<title>Node8&#45;&gt;Node17</title>
<path fill="none" stroke="midnightblue" d="M802.57,-125.62C807.18,-124.62 811.97,-123.69 816.5,-123 923.35,-106.8 1203.17,-131.85 1301.5,-87 1326.97,-75.38 1348.51,-50.45 1360.97,-33.58"/>
<polygon fill="midnightblue" stroke="midnightblue" points="1364.01,-35.35 1366.93,-25.16 1358.29,-31.3 1364.01,-35.35"/>
</g>
<!-- Node18 -->
<g id="node18" class="node">
<title>Node18</title>
<g id="a_node18"><a xlink:href="GreenSock_8h.html" target="_top" xlink:title=" ">
<polygon fill="white" stroke="black" points="426.5,-67.5 426.5,-86.5 504.5,-86.5 504.5,-67.5 426.5,-67.5"/>
<text text-anchor="middle" x="465.5" y="-74.5" font-family="Helvetica,sans-Serif" font-size="10.00">GreenSock.h</text>
</a>
</g>
</g>
<!-- Node8&#45;&gt;Node18 -->
<g id="edge19" class="edge">
<title>Node8&#45;&gt;Node18</title>
<path fill="none" stroke="midnightblue" d="M752.46,-127.82C705.68,-119.99 601.85,-102.49 514.5,-87 514.4,-86.98 514.3,-86.96 514.2,-86.95"/>
<polygon fill="midnightblue" stroke="midnightblue" points="515,-83.53 504.54,-85.22 513.77,-90.42 515,-83.53"/>
</g>
<!-- Node21 -->
<g id="node21" class="node">
<title>Node21</title>
<g id="a_node21"><a xlink:title=" ">
<polygon fill="white" stroke="#bfbfbf" points="1024.5,-6 1024.5,-25 1072.5,-25 1072.5,-6 1024.5,-6"/>
<text text-anchor="middle" x="1048.5" y="-13" font-family="Helvetica,sans-Serif" font-size="10.00">mutex</text>
</a>
</g>
</g>
<!-- Node8&#45;&gt;Node21 -->
<g id="edge39" class="edge">
<title>Node8&#45;&gt;Node21</title>
<path fill="none" stroke="midnightblue" d="M802.6,-125.83C807.21,-124.8 811.99,-123.81 816.5,-123 877.59,-112.01 1052.53,-133.64 1093.5,-87 1108.87,-69.5 1087.31,-46.25 1069.06,-31.32"/>
<polygon fill="midnightblue" stroke="midnightblue" points="1071.1,-28.47 1061.06,-25.1 1066.8,-34 1071.1,-28.47"/>
</g>
<!-- Node22 -->
<g id="node22" class="node">
<title>Node22</title>
<g id="a_node22"><a xlink:href="Logger_8h.html" target="_top" xlink:title="Header for Strategy Logger.">
<polygon fill="white" stroke="black" points="218.5,-67.5 218.5,-86.5 276.5,-86.5 276.5,-67.5 218.5,-67.5"/>
<text text-anchor="middle" x="247.5" y="-74.5" font-family="Helvetica,sans-Serif" font-size="10.00">Logger.h</text>
</a>
</g>
</g>
<!-- Node8&#45;&gt;Node22 -->
<g id="edge25" class="edge">
<title>Node8&#45;&gt;Node22</title>
<path fill="none" stroke="midnightblue" d="M752.17,-129.56C683.8,-122.95 489.77,-104.04 328.5,-87 314.95,-85.57 300.14,-83.94 286.93,-82.47"/>
<polygon fill="midnightblue" stroke="midnightblue" points="287.06,-78.96 276.74,-81.33 286.28,-85.92 287.06,-78.96"/>
</g>
<!-- Node24 -->
<g id="node24" class="node">
<title>Node24</title>
<g id="a_node24"><a xlink:href="ThreadSafeQueue_8h_source.html" target="_top" xlink:title=" ">
<polygon fill="white" stroke="black" points="1141,-67.5 1141,-86.5 1254,-86.5 1254,-67.5 1141,-67.5"/>
<text text-anchor="middle" x="1197.5" y="-74.5" font-family="Helvetica,sans-Serif" font-size="10.00">ThreadSafeQueue.h</text>
</a>
</g>
</g>
<!-- Node8&#45;&gt;Node24 -->
<g id="edge29" class="edge">
<title>Node8&#45;&gt;Node24</title>
<path fill="none" stroke="midnightblue" d="M802.59,-125.78C807.2,-124.76 811.98,-123.78 816.5,-123 953.18,-99.37 988.81,-103.72 1126.5,-87 1127.96,-86.82 1129.45,-86.64 1130.94,-86.46"/>
<polygon fill="midnightblue" stroke="midnightblue" points="1131.43,-89.92 1140.93,-85.23 1130.57,-82.98 1131.43,-89.92"/>
</g>
<!-- Node25 -->
<g id="node25" class="node">
<title>Node25</title>
<g id="a_node25"><a xlink:title=" ">
<polygon fill="white" stroke="#bfbfbf" points="1216,-6 1216,-25 1263,-25 1263,-6 1216,-6"/>
<text text-anchor="middle" x="1239.5" y="-13" font-family="Helvetica,sans-Serif" font-size="10.00">queue</text>
</a>
</g>
</g>
<!-- Node8&#45;&gt;Node25 -->
<g id="edge37" class="edge">
<title>Node8&#45;&gt;Node25</title>
<path fill="none" stroke="midnightblue" d="M802.57,-125.65C807.18,-124.64 811.97,-123.7 816.5,-123 865.74,-115.38 1229.71,-123.62 1263.5,-87 1277.13,-72.23 1265.35,-49.39 1254,-33.74"/>
<polygon fill="midnightblue" stroke="midnightblue" points="1256.46,-31.21 1247.56,-25.47 1250.94,-35.51 1256.46,-31.21"/>
</g>
<!-- Node27 -->
<g id="node27" class="node">
<title>Node27</title>
<g id="a_node27"><a xlink:title=" ">
<polygon fill="white" stroke="#bfbfbf" points="1026.5,-67.5 1026.5,-86.5 1084.5,-86.5 1084.5,-67.5 1026.5,-67.5"/>
<text text-anchor="middle" x="1055.5" y="-74.5" font-family="Helvetica,sans-Serif" font-size="10.00">memory</text>
</a>
</g>
</g>
<!-- Node8&#45;&gt;Node27 -->
<g id="edge38" class="edge">
<title>Node8&#45;&gt;Node27</title>
<path fill="none" stroke="midnightblue" d="M802.64,-126.01C807.24,-124.96 812.01,-123.92 816.5,-123 902.28,-105.43 926.93,-105.44 1016.44,-87.12"/>
<polygon fill="midnightblue" stroke="midnightblue" points="1017.41,-90.5 1026.49,-85.05 1015.99,-83.64 1017.41,-90.5"/>
</g>
<!-- Node18&#45;&gt;Node9 -->
<g id="edge23" class="edge">
<title>Node18&#45;&gt;Node9</title>
<path fill="none" stroke="midnightblue" d="M426.25,-67.53C379.83,-57.34 305.45,-40.44 278.5,-31 276.88,-30.43 275.23,-29.81 273.58,-29.15"/>
<polygon fill="midnightblue" stroke="midnightblue" points="274.86,-25.89 264.3,-25.11 272.07,-32.31 274.86,-25.89"/>
</g>
<!-- Node18&#45;&gt;Node11 -->
<g id="edge22" class="edge">
<title>Node18&#45;&gt;Node11</title>
<path fill="none" stroke="midnightblue" d="M466.07,-67.48C466.64,-59.08 467.52,-45.98 468.25,-35.16"/>
<polygon fill="midnightblue" stroke="midnightblue" points="471.75,-35.22 468.93,-25.01 464.76,-34.75 471.75,-35.22"/>
</g>
<!-- Node19 -->
<g id="node19" class="node">
<title>Node19</title>
<g id="a_node19"><a xlink:title=" ">
<polygon fill="white" stroke="#bfbfbf" points="518,-0.5 518,-30.5 631,-30.5 631,-0.5 518,-0.5"/>
<text text-anchor="start" x="526" y="-18.5" font-family="Helvetica,sans-Serif" font-size="10.00">websocketpp/config</text>
<text text-anchor="middle" x="574.5" y="-7.5" font-family="Helvetica,sans-Serif" font-size="10.00">/asio_no_tls.hpp</text>
</a>
</g>
</g>
<!-- Node18&#45;&gt;Node19 -->
<g id="edge20" class="edge">
<title>Node18&#45;&gt;Node19</title>
<path fill="none" stroke="midnightblue" d="M481.12,-67.48C496.36,-59.15 520.08,-46.21 539.79,-35.45"/>
<polygon fill="midnightblue" stroke="midnightblue" points="541.71,-38.39 548.81,-30.52 538.36,-32.24 541.71,-38.39"/>
</g>
<!-- Node20 -->
<g id="node20" class="node">
<title>Node20</title>
<g id="a_node20"><a xlink:title=" ">
<polygon fill="white" stroke="#bfbfbf" points="287.5,-6 287.5,-25 421.5,-25 421.5,-6 287.5,-6"/>
<text text-anchor="middle" x="354.5" y="-13" font-family="Helvetica,sans-Serif" font-size="10.00">websocketpp/server.hpp</text>
</a>
</g>
</g>
<!-- Node18&#45;&gt;Node20 -->
<g id="edge21" class="edge">
<title>Node18&#45;&gt;Node20</title>
<path fill="none" stroke="midnightblue" d="M449.6,-67.48C431.22,-57.62 400.74,-41.29 379.26,-29.77"/>
<polygon fill="midnightblue" stroke="midnightblue" points="380.84,-26.65 370.37,-25.01 377.53,-32.82 380.84,-26.65"/>
</g>
<!-- Node18&#45;&gt;Node21 -->
<g id="edge24" class="edge">
<title>Node18&#45;&gt;Node21</title>
<path fill="none" stroke="midnightblue" d="M504.77,-68.48C508.05,-67.94 511.33,-67.44 514.5,-67 702.46,-40.9 929.56,-24.35 1014.37,-18.69"/>
<polygon fill="midnightblue" stroke="midnightblue" points="1014.72,-22.17 1024.46,-18.02 1014.25,-15.19 1014.72,-22.17"/>
</g>
<!-- Node22&#45;&gt;Node9 -->
<g id="edge26" class="edge">
<title>Node22&#45;&gt;Node9</title>
<path fill="none" stroke="midnightblue" d="M247.5,-67.48C247.5,-59.08 247.5,-45.98 247.5,-35.16"/>
<polygon fill="midnightblue" stroke="midnightblue" points="251,-35.01 247.5,-25.01 244,-35.01 251,-35.01"/>
</g>
<!-- Node22&#45;&gt;Node11 -->
<g id="edge27" class="edge">
<title>Node22&#45;&gt;Node11</title>
<path fill="none" stroke="midnightblue" d="M276.62,-69.92C312.97,-62.09 376.87,-47.5 430.5,-31 433.07,-30.21 435.71,-29.34 438.35,-28.44"/>
<polygon fill="midnightblue" stroke="midnightblue" points="439.54,-31.73 447.79,-25.08 437.19,-25.14 439.54,-31.73"/>
</g>
<!-- Node22&#45;&gt;Node23 -->
<g id="edge28" class="edge">
<title>Node22&#45;&gt;Node23</title>
<path fill="none" stroke="midnightblue" d="M218.06,-67.85C180.47,-57.45 115.27,-39.41 73.02,-27.71"/>
<polygon fill="midnightblue" stroke="midnightblue" points="73.9,-24.32 63.32,-25.03 72.03,-31.07 73.9,-24.32"/>
</g>
<!-- Node24&#45;&gt;Node9 -->
<g id="edge35" class="edge">
<title>Node24&#45;&gt;Node9</title>
<path fill="none" stroke="midnightblue" d="M1140.86,-70.66C1125.5,-69.33 1108.87,-68 1093.5,-67 912.6,-55.18 454.56,-74.24 278.5,-31 276.51,-30.51 274.49,-29.89 272.49,-29.18"/>
<polygon fill="midnightblue" stroke="midnightblue" points="273.41,-25.77 262.83,-25.12 270.69,-32.22 273.41,-25.77"/>
</g>
<!-- Node24&#45;&gt;Node11 -->
<g id="edge30" class="edge">
<title>Node24&#45;&gt;Node11</title>
<path fill="none" stroke="midnightblue" d="M1140.85,-70.84C1125.49,-69.51 1108.86,-68.14 1093.5,-67 834.16,-47.79 764.12,-83.85 509.5,-31 506.07,-30.29 502.54,-29.34 499.06,-28.27"/>
<polygon fill="midnightblue" stroke="midnightblue" points="500.12,-24.94 489.52,-25.03 497.86,-31.56 500.12,-24.94"/>
</g>
<!-- Node24&#45;&gt;Node16 -->
<g id="edge31" class="edge">
<title>Node24&#45;&gt;Node16</title>
<path fill="none" stroke="midnightblue" d="M1212.97,-67.48C1230.78,-57.67 1260.24,-41.43 1281.13,-29.92"/>
<polygon fill="midnightblue" stroke="midnightblue" points="1282.99,-32.9 1290.05,-25.01 1279.61,-26.77 1282.99,-32.9"/>
</g>
<!-- Node24&#45;&gt;Node17 -->
<g id="edge36" class="edge">
<title>Node24&#45;&gt;Node17</title>
<path fill="none" stroke="midnightblue" d="M1226.94,-67.49C1255.66,-58.98 1300.45,-45.15 1338.5,-31 1340.15,-30.38 1341.85,-29.73 1343.55,-29.06"/>
<polygon fill="midnightblue" stroke="midnightblue" points="1345.29,-32.13 1353.21,-25.1 1342.63,-25.66 1345.29,-32.13"/>
</g>
<!-- Node24&#45;&gt;Node21 -->
<g id="edge33" class="edge">
<title>Node24&#45;&gt;Node21</title>
<path fill="none" stroke="midnightblue" d="M1174.94,-67.4C1151.7,-58.49 1114.45,-44.06 1082.5,-31 1080.91,-30.35 1079.28,-29.68 1077.63,-28.99"/>
<polygon fill="midnightblue" stroke="midnightblue" points="1078.81,-25.69 1068.23,-25.04 1076.09,-32.14 1078.81,-25.69"/>
</g>
<!-- Node24&#45;&gt;Node25 -->
<g id="edge32" class="edge">
<title>Node24&#45;&gt;Node25</title>
<path fill="none" stroke="midnightblue" d="M1203.52,-67.48C1209.76,-58.64 1219.67,-44.59 1227.52,-33.48"/>
<polygon fill="midnightblue" stroke="midnightblue" points="1230.59,-35.2 1233.49,-25.01 1224.87,-31.16 1230.59,-35.2"/>
</g>
<!-- Node26 -->
<g id="node26" class="node">
<title>Node26</title>
<g id="a_node26"><a xlink:title=" ">
<polygon fill="white" stroke="#bfbfbf" points="1091,-6 1091,-25 1198,-25 1198,-6 1091,-6"/>
<text text-anchor="middle" x="1144.5" y="-13" font-family="Helvetica,sans-Serif" font-size="10.00">condition_variable</text>
</a>
</g>
</g>
<!-- Node24&#45;&gt;Node26 -->
<g id="edge34" class="edge">
<title>Node24&#45;&gt;Node26</title>
<path fill="none" stroke="midnightblue" d="M1189.91,-67.48C1181.8,-58.37 1168.77,-43.74 1158.74,-32.48"/>
<polygon fill="midnightblue" stroke="midnightblue" points="1161.34,-30.15 1152.08,-25.01 1156.12,-34.8 1161.34,-30.15"/>
</g>
<!-- Node28&#45;&gt;Node3 -->
<g id="edge50" class="edge">
<title>Node28&#45;&gt;Node3</title>
<path fill="none" stroke="midnightblue" d="M836.46,-235.46C900.72,-225.15 1000.29,-208.08 1015.5,-199 1052.93,-176.65 1038.94,-143.33 1077.5,-123 1159.29,-79.88 1396.07,-102.12 1504.72,-86.63"/>
<polygon fill="midnightblue" stroke="midnightblue" points="1505.5,-90.05 1514.82,-85.01 1504.4,-83.14 1505.5,-90.05"/>
</g>
<!-- Node28&#45;&gt;Node7 -->
<g id="edge48" class="edge">
<title>Node28&#45;&gt;Node7</title>
<path fill="none" stroke="midnightblue" d="M799.41,-235.44C817.75,-226.68 846.51,-212.94 867.59,-202.86"/>
<polygon fill="midnightblue" stroke="midnightblue" points="869.17,-205.99 876.68,-198.52 866.15,-199.67 869.17,-205.99"/>
</g>
<!-- Node28&#45;&gt;Node11 -->
<g id="edge49" class="edge">
<title>Node28&#45;&gt;Node11</title>
<path fill="none" stroke="midnightblue" d="M723.74,-241.94C629.34,-235.09 444.26,-206.28 361.5,-87 356.43,-79.7 356.73,-74.5 361.5,-67 366.01,-59.91 408.27,-41.49 438.57,-28.97"/>
<polygon fill="midnightblue" stroke="midnightblue" points="439.99,-32.17 447.92,-25.13 437.34,-25.69 439.99,-32.17"/>
</g>
<!-- Node28&#45;&gt;Node15 -->
<g id="edge52" class="edge">
<title>Node28&#45;&gt;Node15</title>
<path fill="none" stroke="midnightblue" d="M788.67,-235.21C800.31,-221.44 824.64,-194.75 850.5,-179 914.49,-140.03 936.4,-139.44 1009.5,-123 1044.32,-115.17 1263.95,-94.31 1375.96,-83.97"/>
<polygon fill="midnightblue" stroke="midnightblue" points="1376.49,-87.44 1386.13,-83.04 1375.85,-80.47 1376.49,-87.44"/>
</g>
<!-- Node28&#45;&gt;Node23 -->
<g id="edge51" class="edge">
<title>Node28&#45;&gt;Node23</title>
<path fill="none" stroke="midnightblue" d="M723.96,-239.17C587.54,-227.03 248.28,-192.63 146.5,-143 97.06,-118.89 59.26,-63 42.31,-34.27"/>
<polygon fill="midnightblue" stroke="midnightblue" points="45.2,-32.27 37.19,-25.33 39.12,-35.75 45.2,-32.27"/>
</g>
<!-- Node29 -->
<g id="node29" class="node">
<title>Node29</title>
<g id="a_node29"><a xlink:href="TransactionMem_8h.html" target="_top" xlink:title=" ">
<polygon fill="white" stroke="black" points="696.5,-179.5 696.5,-198.5 802.5,-198.5 802.5,-179.5 696.5,-179.5"/>
<text text-anchor="middle" x="749.5" y="-186.5" font-family="Helvetica,sans-Serif" font-size="10.00">TransactionMem.h</text>
</a>
</g>
</g>
<!-- Node28&#45;&gt;Node29 -->
<g id="edge43" class="edge">
<title>Node28&#45;&gt;Node29</title>
<path fill="none" stroke="midnightblue" d="M776.22,-235.08C771.79,-227.61 765.34,-216.72 759.88,-207.52"/>
<polygon fill="midnightblue" stroke="midnightblue" points="762.79,-205.57 754.69,-198.75 756.77,-209.14 762.79,-205.57"/>
</g>
<!-- Node28&#45;&gt;Node30 -->
<g id="edge46" class="edge">
<title>Node28&#45;&gt;Node30</title>
<path fill="none" stroke="midnightblue" d="M812.56,-235.44C846.6,-226.07 901.28,-211 938.26,-200.81"/>
<polygon fill="midnightblue" stroke="midnightblue" points="939.48,-204.11 948.19,-198.08 937.62,-197.36 939.48,-204.11"/>
</g>
<!-- Node29&#45;&gt;Node8 -->
<g id="edge44" class="edge">
<title>Node29&#45;&gt;Node8</title>
<path fill="none" stroke="midnightblue" d="M754.12,-179.08C757.96,-171.69 763.52,-160.95 768.26,-151.81"/>
<polygon fill="midnightblue" stroke="midnightblue" points="771.47,-153.24 772.96,-142.75 765.25,-150.02 771.47,-153.24"/>
</g>
<!-- Node29&#45;&gt;Node9 -->
<g id="edge45" class="edge">
<title>Node29&#45;&gt;Node9</title>
<path fill="none" stroke="midnightblue" d="M696.36,-188.59C553.77,-188.89 168.53,-180.83 94.5,-87 60.11,-43.41 160.87,-25.7 215.24,-19.46"/>
<polygon fill="midnightblue" stroke="midnightblue" points="215.87,-22.91 225.44,-18.36 215.12,-15.95 215.87,-22.91"/>
</g>
<!-- Node30&#45;&gt;Node15 -->
<g id="edge47" class="edge">
<title>Node30&#45;&gt;Node15</title>
<path fill="none" stroke="midnightblue" d="M982.73,-179.42C992.1,-164.95 1013.21,-135.97 1039.5,-123 1106.25,-90.07 1298.59,-95.81 1372.5,-87 1373.61,-86.87 1374.73,-86.73 1375.86,-86.6"/>
<polygon fill="midnightblue" stroke="midnightblue" points="1376.65,-90.02 1386.15,-85.33 1375.8,-83.08 1376.65,-90.02"/>
</g>
</g>
</svg>
